G04 #@! TF.GenerationSoftware,KiCad,Pcbnew,5.1.2-f72e74a~84~ubuntu18.04.1*
G04 #@! TF.CreationDate,2019-07-29T20:36:53-07:00*
G04 #@! TF.ProjectId,quad_copter_pcb,71756164-5f63-46f7-9074-65725f706362,rev?*
G04 #@! TF.SameCoordinates,Original*
G04 #@! TF.FileFunction,Copper,L2,Bot*
G04 #@! TF.FilePolarity,Positive*
%FSLAX46Y46*%
G04 Gerber Fmt 4.6, Leading zero omitted, Abs format (unit mm)*
G04 Created by KiCad (PCBNEW 5.1.2-f72e74a~84~ubuntu18.04.1) date 2019-07-29 20:36:53*
%MOMM*%
%LPD*%
G04 APERTURE LIST*
%ADD10C,5.000000*%
%ADD11C,1.700000*%
%ADD12C,0.100000*%
%ADD13C,1.700000*%
%ADD14R,1.700000X1.700000*%
%ADD15O,1.700000X1.700000*%
%ADD16O,1.500000X1.100000*%
%ADD17O,1.700000X1.350000*%
%ADD18C,1.879600*%
%ADD19C,1.524000*%
%ADD20C,0.800000*%
%ADD21C,2.000000*%
%ADD22C,1.000000*%
%ADD23C,0.200000*%
G04 APERTURE END LIST*
D10*
X192786000Y-82677000D03*
X192913000Y-90297000D03*
X103632000Y-64262000D03*
X108712000Y-59182000D03*
X116332000Y-136652000D03*
X111252000Y-131572000D03*
X188214000Y-122682000D03*
X183769000Y-128016000D03*
X174117000Y-50292000D03*
X179832000Y-55372000D03*
D11*
X113157000Y-54102000D03*
D12*
G36*
X114359082Y-54102000D02*
G01*
X113157000Y-55304082D01*
X111954918Y-54102000D01*
X113157000Y-52899918D01*
X114359082Y-54102000D01*
X114359082Y-54102000D01*
G37*
D11*
X114953051Y-52305949D03*
D13*
X114953051Y-52305949D02*
X114953051Y-52305949D01*
D11*
X116749102Y-50509898D03*
D13*
X116749102Y-50509898D02*
X116749102Y-50509898D01*
D11*
X101944898Y-123534898D03*
D13*
X101944898Y-123534898D02*
X101944898Y-123534898D01*
D11*
X103740949Y-125330949D03*
D13*
X103740949Y-125330949D02*
X103740949Y-125330949D01*
D11*
X105537000Y-127127000D03*
D12*
G36*
X105537000Y-125924918D02*
G01*
X106739082Y-127127000D01*
X105537000Y-128329082D01*
X104334918Y-127127000D01*
X105537000Y-125924918D01*
X105537000Y-125924918D01*
G37*
D11*
X175604898Y-137069102D03*
D13*
X175604898Y-137069102D02*
X175604898Y-137069102D01*
D11*
X177400949Y-135273051D03*
D13*
X177400949Y-135273051D02*
X177400949Y-135273051D01*
D11*
X179197000Y-133477000D03*
D12*
G36*
X177994918Y-133477000D02*
G01*
X179197000Y-132274918D01*
X180399082Y-133477000D01*
X179197000Y-134679082D01*
X177994918Y-133477000D01*
X177994918Y-133477000D01*
G37*
D11*
X186182000Y-59817000D03*
D12*
G36*
X186182000Y-61019082D02*
G01*
X184979918Y-59817000D01*
X186182000Y-58614918D01*
X187384082Y-59817000D01*
X186182000Y-61019082D01*
X186182000Y-61019082D01*
G37*
D11*
X187978051Y-61613051D03*
D13*
X187978051Y-61613051D02*
X187978051Y-61613051D01*
D11*
X189774102Y-63409102D03*
D13*
X189774102Y-63409102D02*
X189774102Y-63409102D01*
D14*
X128270000Y-95250000D03*
D15*
X125730000Y-95250000D03*
X128270000Y-92710000D03*
X125730000Y-92710000D03*
X128270000Y-90170001D03*
X125730000Y-90170000D03*
X128270000Y-87630000D03*
X125730000Y-87630000D03*
X128270000Y-85090000D03*
X125730000Y-85090000D03*
X121920000Y-124460000D03*
X119380000Y-124460000D03*
X121920000Y-121920000D03*
D14*
X119380000Y-121920000D03*
D15*
X162687000Y-56007000D03*
X160147000Y-56007000D03*
X157607000Y-56007000D03*
X155067000Y-56007000D03*
D14*
X152527000Y-56007000D03*
X152400000Y-78740000D03*
D15*
X152400000Y-81280000D03*
X149860000Y-78740000D03*
X149860000Y-81280000D03*
X147320000Y-78740000D03*
X147320000Y-81280000D03*
X144780000Y-78740000D03*
X144780000Y-81280000D03*
D14*
X168910000Y-106680000D03*
D15*
X171450000Y-106680000D03*
X168910000Y-109220000D03*
X171450000Y-109220000D03*
D14*
X128270000Y-76200000D03*
D15*
X125730000Y-76200000D03*
X128270000Y-73660000D03*
X125730000Y-73660000D03*
X128270000Y-71120001D03*
X125730000Y-71120000D03*
D14*
X157632400Y-141198600D03*
D15*
X155092400Y-141198600D03*
X152552400Y-141198600D03*
X150012400Y-141198600D03*
X147472400Y-141198600D03*
D16*
X196743000Y-106377000D03*
X196743000Y-101537000D03*
D17*
X199743000Y-106687000D03*
X199743000Y-101227000D03*
D18*
X143637000Y-56007000D03*
X142367000Y-53467000D03*
X141097000Y-56007000D03*
X139827000Y-53467000D03*
X138557000Y-56007000D03*
X137287000Y-53467000D03*
D19*
X96332040Y-105740200D03*
X98333560Y-105740200D03*
X100332540Y-105740200D03*
X102334060Y-105740200D03*
X104333040Y-105740200D03*
X106332020Y-105740200D03*
X108333540Y-105740200D03*
X110332520Y-105740200D03*
X112334040Y-105740200D03*
X114333020Y-105740200D03*
X114333020Y-83743800D03*
X112334040Y-83743800D03*
X110332520Y-83743800D03*
X108333540Y-83743800D03*
X106332020Y-83743800D03*
X104333040Y-83743800D03*
X102334060Y-83743800D03*
X100332540Y-83743800D03*
X98333560Y-83743800D03*
X96332040Y-83743800D03*
D14*
X140970000Y-99060000D03*
D15*
X143510000Y-99060000D03*
X146050000Y-99060000D03*
X148590000Y-99060000D03*
X151130000Y-99060000D03*
X153670000Y-99060000D03*
X156210000Y-99060000D03*
X158750000Y-99060000D03*
D20*
X187960000Y-76200000D03*
X154686000Y-134569200D03*
X145973800Y-125476000D03*
X147624800Y-127127000D03*
X155295600Y-118999000D03*
X159740600Y-134569200D03*
X156387800Y-129692400D03*
X152958800Y-117449600D03*
X141884400Y-121462800D03*
X135204200Y-120040400D03*
X150647400Y-61595000D03*
X142367000Y-117297200D03*
X137287000Y-116484400D03*
X154838400Y-103073200D03*
X160299400Y-78511400D03*
X169037000Y-76327000D03*
X139573000Y-45669200D03*
X146202400Y-95935800D03*
X147573574Y-96824374D03*
X162255200Y-52882800D03*
X150088600Y-118948200D03*
X179070000Y-74930000D03*
X179070000Y-68580000D03*
X162052000Y-126796800D03*
X185293000Y-80086200D03*
X166522400Y-134823200D03*
X156565600Y-136067800D03*
X153492200Y-137464800D03*
X178028600Y-115265200D03*
X135966200Y-130632200D03*
X141325600Y-123723400D03*
X151003000Y-114071400D03*
X147759610Y-114122200D03*
X150825200Y-120904000D03*
X152958800Y-121183400D03*
X153805571Y-123042163D03*
X159359600Y-115366800D03*
X133959600Y-117068600D03*
X160858200Y-113792000D03*
X127889000Y-122809000D03*
X170815000Y-93294200D03*
X165608000Y-79451200D03*
X162636200Y-73837800D03*
X141859000Y-67513200D03*
X164871400Y-113817400D03*
X133299200Y-134366000D03*
X143891000Y-130098800D03*
X179400200Y-109169200D03*
X171577000Y-91465400D03*
X133223000Y-122783600D03*
X121081800Y-93446600D03*
X147955000Y-118618000D03*
X151511000Y-108204000D03*
X161036000Y-94970600D03*
X140741400Y-92659200D03*
X121666000Y-91948000D03*
X147472400Y-106629200D03*
X146304000Y-94310200D03*
X140716000Y-90144600D03*
X132842000Y-90144600D03*
X144473545Y-115313648D03*
X121666000Y-90297000D03*
X135851575Y-112991575D03*
X130733800Y-114223800D03*
X126441200Y-105537000D03*
X143510000Y-115581200D03*
X106553000Y-101219000D03*
X142290800Y-116281200D03*
X137312400Y-112674400D03*
X135432800Y-110998000D03*
X131419600Y-96164400D03*
X120599200Y-91770200D03*
X159689800Y-111912400D03*
X142748000Y-108534200D03*
X135940800Y-104876600D03*
X133794175Y-103644375D03*
X161264275Y-119608275D03*
X166293800Y-113588800D03*
X166192200Y-111226600D03*
X161036000Y-111252000D03*
X132207000Y-106070400D03*
X133330758Y-107270358D03*
X146659600Y-118567200D03*
X151180800Y-106908600D03*
X158369000Y-79248000D03*
X150114000Y-71145400D03*
X134188200Y-126720600D03*
X131927600Y-117856000D03*
X130022600Y-112115600D03*
X138049000Y-126542800D03*
X139192000Y-121031000D03*
X128397000Y-113030000D03*
X148488400Y-50012600D03*
X148691600Y-112268000D03*
X152908000Y-109118400D03*
X162661600Y-82296000D03*
X149072600Y-113385600D03*
X154540375Y-109491975D03*
X168122600Y-96139000D03*
X145959600Y-113055400D03*
X149535897Y-106990897D03*
X155397200Y-101777800D03*
X154990800Y-96215200D03*
X152781000Y-88595200D03*
X149199600Y-84963000D03*
X136245600Y-69900800D03*
X147929600Y-73685400D03*
X150520400Y-117830600D03*
X155549600Y-111074200D03*
X169418000Y-94792800D03*
X158496000Y-84150200D03*
X154660600Y-84099400D03*
X144780000Y-83413600D03*
X139242800Y-116597200D03*
X137490200Y-114223800D03*
X143803600Y-111379000D03*
X153431818Y-107838818D03*
X159842200Y-76022200D03*
X153974800Y-73279000D03*
X141528800Y-76149200D03*
X144932400Y-113969800D03*
X146006625Y-108186025D03*
X148132800Y-104775000D03*
X147218400Y-101600000D03*
X144627600Y-96545400D03*
X141249400Y-94869000D03*
X120192800Y-88823800D03*
X133553200Y-87325200D03*
X141249400Y-88823800D03*
X144856200Y-89662000D03*
X139344825Y-118592173D03*
X132537200Y-116586000D03*
X131292600Y-115265200D03*
X132130800Y-113515601D03*
X130638358Y-109962758D03*
X138963400Y-87909400D03*
X140665200Y-85928200D03*
X140893800Y-118999001D03*
X136296400Y-114198400D03*
X134432797Y-110998000D03*
X150647400Y-95670600D03*
X148336000Y-92887800D03*
X151307800Y-123520200D03*
X155676600Y-109855000D03*
X160680400Y-104038400D03*
X142265400Y-84201000D03*
X115976400Y-79806800D03*
X121183400Y-79806800D03*
X151968200Y-125069600D03*
X144703800Y-137998200D03*
X117551200Y-129438400D03*
X150444200Y-124663200D03*
X117729000Y-87325200D03*
X153390600Y-123952000D03*
X145567400Y-138938000D03*
X115773200Y-129768600D03*
X96164400Y-110820200D03*
X109499400Y-102997000D03*
X132080000Y-125450600D03*
X108280200Y-116586000D03*
X108686600Y-112826800D03*
X141960600Y-133299200D03*
X186004200Y-74041000D03*
X192996930Y-106183244D03*
X187655200Y-106781600D03*
X177368200Y-110591600D03*
X168808400Y-112623600D03*
X192430400Y-105359200D03*
X187477400Y-105435400D03*
X170448055Y-115543678D03*
X164084000Y-132791200D03*
X192430400Y-104317800D03*
X187283031Y-104321085D03*
X164998400Y-134112000D03*
X170103800Y-114604800D03*
X193446400Y-103357000D03*
X187172600Y-103327200D03*
X169570400Y-113741200D03*
X157353000Y-129133600D03*
X149072600Y-67462400D03*
X146329400Y-67259200D03*
D21*
X174117000Y-46756467D02*
X168030543Y-40670010D01*
X174117000Y-50292000D02*
X174117000Y-46756467D01*
X168030543Y-40670010D02*
X117378480Y-40670010D01*
X103632000Y-54416490D02*
X117378480Y-40670010D01*
X103632000Y-64262000D02*
X103632000Y-54416490D01*
X174117000Y-50292000D02*
X183211753Y-50292000D01*
X183211753Y-50292000D02*
X200629990Y-67710237D01*
X200629990Y-74833010D02*
X192786000Y-82677000D01*
X200629990Y-67710237D02*
X200629990Y-74833010D01*
X188214000Y-129047002D02*
X171119312Y-146141689D01*
X188214000Y-122682000D02*
X188214000Y-129047002D01*
X171119312Y-146141689D02*
X125719897Y-146039897D01*
X125719897Y-146039897D02*
X116332000Y-136652000D01*
X192786000Y-84947998D02*
X188214000Y-89519998D01*
X192786000Y-82677000D02*
X192786000Y-84947998D01*
D22*
X192786000Y-82677000D02*
X192786000Y-81026000D01*
X192786000Y-81026000D02*
X187960000Y-76200000D01*
D21*
X188214000Y-89519998D02*
X188152802Y-89519998D01*
X188152802Y-89519998D02*
X184073800Y-93599000D01*
X184073800Y-118541800D02*
X188214000Y-122682000D01*
X184073800Y-93599000D02*
X184073800Y-118541800D01*
D23*
X154686000Y-134569200D02*
X157302200Y-131953000D01*
X157302200Y-131953000D02*
X157302200Y-131216400D01*
X145973800Y-125476000D02*
X147624800Y-127127000D01*
X154146199Y-117849599D02*
X155295600Y-118999000D01*
X157302200Y-132130800D02*
X157302200Y-131216400D01*
X159740600Y-134569200D02*
X157302200Y-132130800D01*
X156787799Y-130701999D02*
X157302200Y-131216400D01*
X156787799Y-130092399D02*
X156787799Y-130701999D01*
X156387800Y-129692400D02*
X156787799Y-130092399D01*
X153358799Y-117849599D02*
X154146199Y-117849599D01*
X152958800Y-117449600D02*
X153358799Y-117849599D01*
X135494799Y-120330999D02*
X135204200Y-120040400D01*
X141884400Y-121462800D02*
X140752599Y-120330999D01*
X140752599Y-120330999D02*
X135494799Y-120330999D01*
X150571200Y-61518800D02*
X150647400Y-61595000D01*
X141097000Y-56007000D02*
X146608800Y-61518800D01*
X146608800Y-61518800D02*
X150571200Y-61518800D01*
X142367000Y-117297200D02*
X138099800Y-117297200D01*
X138099800Y-117297200D02*
X137287000Y-116484400D01*
X153670000Y-101904800D02*
X153670000Y-99060000D01*
X154838400Y-103073200D02*
X153670000Y-101904800D01*
X160299400Y-78511400D02*
X166852600Y-78511400D01*
X166852600Y-78511400D02*
X169037000Y-76327000D01*
X138526801Y-46715399D02*
X139573000Y-45669200D01*
X137287000Y-53467000D02*
X138526801Y-52227199D01*
X138526801Y-52227199D02*
X138526801Y-46715399D01*
X143510000Y-99060000D02*
X146202400Y-96367600D01*
X146202400Y-96367600D02*
X146202400Y-95935800D01*
X148894374Y-96824374D02*
X151130000Y-99060000D01*
X147573574Y-96824374D02*
X148894374Y-96824374D01*
X153670000Y-99060000D02*
X151130000Y-99060000D01*
X162255200Y-55575200D02*
X162687000Y-56007000D01*
X162255200Y-52882800D02*
X162255200Y-55575200D01*
X151460200Y-118948200D02*
X152958800Y-117449600D01*
X150088600Y-118948200D02*
X151460200Y-118948200D01*
D22*
X179070000Y-74930000D02*
X179070000Y-68580000D01*
D23*
X162052000Y-126796800D02*
X162052000Y-103327200D01*
X166972251Y-135273051D02*
X177400949Y-135273051D01*
X166522400Y-134823200D02*
X166972251Y-135273051D01*
X156565600Y-136067800D02*
X154889200Y-136067800D01*
X154889200Y-136067800D02*
X153492200Y-137464800D01*
X180100201Y-103570001D02*
X170954700Y-94424500D01*
X180100201Y-113193599D02*
X180100201Y-103570001D01*
X178028600Y-115265200D02*
X180100201Y-113193599D01*
X162052000Y-103327200D02*
X170954700Y-94424500D01*
X170954700Y-94424500D02*
X185293000Y-80086200D01*
X135966200Y-130632200D02*
X136779000Y-129819400D01*
X136779000Y-129819400D02*
X141173200Y-129819400D01*
X141325600Y-129667000D02*
X141173200Y-129819400D01*
X141325600Y-123723400D02*
X141325600Y-129667000D01*
X150386515Y-114122200D02*
X147759610Y-114122200D01*
X151003000Y-114071400D02*
X150437315Y-114071400D01*
X150437315Y-114071400D02*
X150386515Y-114122200D01*
X150825200Y-120904000D02*
X152679400Y-120904000D01*
X152679400Y-120904000D02*
X152958800Y-121183400D01*
X158297363Y-123042163D02*
X162052000Y-126796800D01*
X153805571Y-123042163D02*
X158297363Y-123042163D01*
X102038947Y-125330949D02*
X103740949Y-125330949D01*
X94234000Y-117526002D02*
X102038947Y-125330949D01*
X94234000Y-107838240D02*
X94234000Y-117526002D01*
X96332040Y-105740200D02*
X94234000Y-107838240D01*
X165277800Y-136067800D02*
X166522400Y-134823200D01*
X156565600Y-136067800D02*
X165277800Y-136067800D01*
X136590001Y-119699001D02*
X133959600Y-117068600D01*
X155593084Y-119699001D02*
X136590001Y-119699001D01*
X159359600Y-115366800D02*
X159359600Y-115932485D01*
X159359600Y-115932485D02*
X155593084Y-119699001D01*
X127889000Y-119964200D02*
X127889000Y-122809000D01*
X157378400Y-110637002D02*
X157378400Y-110166698D01*
X160133399Y-113392001D02*
X157378400Y-110637002D01*
X160858200Y-113792000D02*
X160458201Y-113392001D01*
X160458201Y-113392001D02*
X160133399Y-113392001D01*
X152901102Y-105689400D02*
X146177000Y-105689400D01*
X157378400Y-110166698D02*
X152901102Y-105689400D01*
X146177000Y-106248200D02*
X142138400Y-110286800D01*
X146177000Y-105689400D02*
X146177000Y-106248200D01*
X137566400Y-110286800D02*
X133946900Y-113906300D01*
X134061200Y-113792000D02*
X133946900Y-113906300D01*
X142138400Y-110286800D02*
X137566400Y-110286800D01*
X133946900Y-113906300D02*
X127889000Y-119964200D01*
X167860000Y-106680000D02*
X168910000Y-106680000D01*
X165271399Y-109268601D02*
X167860000Y-106680000D01*
X165271399Y-113417401D02*
X165271399Y-109268601D01*
X164871400Y-113817400D02*
X165271399Y-113417401D01*
X170815000Y-93294200D02*
X170815000Y-84658200D01*
X170815000Y-84658200D02*
X165608000Y-79451200D01*
X144500600Y-70154800D02*
X141859000Y-67513200D01*
X162636200Y-73837800D02*
X158953200Y-70154800D01*
X158953200Y-70154800D02*
X144500600Y-70154800D01*
X133299200Y-134366000D02*
X139623800Y-134366000D01*
X139623800Y-134366000D02*
X143891000Y-130098800D01*
X176911000Y-106680000D02*
X171450000Y-106680000D01*
X179400200Y-109169200D02*
X176911000Y-106680000D01*
X174802800Y-88239600D02*
X171577000Y-91465400D01*
X186182000Y-59817000D02*
X174802800Y-71196200D01*
X174802800Y-71196200D02*
X174802800Y-88239600D01*
X125730000Y-121686002D02*
X125730000Y-95250000D01*
X127552999Y-123509001D02*
X125730000Y-121686002D01*
X131931914Y-123509001D02*
X127552999Y-123509001D01*
X132657315Y-122783600D02*
X131931914Y-123509001D01*
X133223000Y-122783600D02*
X132657315Y-122783600D01*
X128270000Y-95250000D02*
X125730000Y-95250000D01*
X122885200Y-95250000D02*
X125730000Y-95250000D01*
X121081800Y-93446600D02*
X122885200Y-95250000D01*
X148397797Y-95010201D02*
X143092401Y-95010201D01*
X161036000Y-94970600D02*
X148437398Y-94970600D01*
X143092401Y-95010201D02*
X140741400Y-92659200D01*
X148437398Y-94970600D02*
X148397797Y-95010201D01*
X147955000Y-118618000D02*
X147059610Y-117722610D01*
X147059610Y-112655390D02*
X148005800Y-111709200D01*
X147059610Y-117722610D02*
X147059610Y-112655390D01*
X147955000Y-111760000D02*
X148005800Y-111709200D01*
X148005800Y-111709200D02*
X151511000Y-108204000D01*
X124968000Y-91948000D02*
X125730000Y-92710000D01*
X121666000Y-91948000D02*
X124968000Y-91948000D01*
X146304000Y-94310200D02*
X142138400Y-90144600D01*
X142138400Y-90144600D02*
X140716000Y-90144600D01*
X128295401Y-90144600D02*
X128270000Y-90170001D01*
X132842000Y-90144600D02*
X128295401Y-90144600D01*
X146906715Y-106629200D02*
X146627315Y-106908600D01*
X146627315Y-106908600D02*
X146082298Y-106908600D01*
X146082298Y-106908600D02*
X141274800Y-111716098D01*
X147472400Y-106629200D02*
X146906715Y-106629200D01*
X143713897Y-114554000D02*
X144473545Y-115313648D01*
X141274800Y-111716098D02*
X141274800Y-113131600D01*
X142697200Y-114554000D02*
X143713897Y-114554000D01*
X141274800Y-113131600D02*
X142697200Y-114554000D01*
X125603000Y-90297000D02*
X125730000Y-90170000D01*
X121666000Y-90297000D02*
X125603000Y-90297000D01*
X136868751Y-111974399D02*
X135851575Y-112991575D01*
X142414835Y-115288920D02*
X139100314Y-111974399D01*
X139100314Y-111974399D02*
X136868751Y-111974399D01*
X126441200Y-112110202D02*
X126441200Y-105537000D01*
X130733800Y-114223800D02*
X128554798Y-114223800D01*
X128554798Y-114223800D02*
X126441200Y-112110202D01*
X142944315Y-115581200D02*
X142652035Y-115288920D01*
X142652035Y-115288920D02*
X142414835Y-115288920D01*
X143510000Y-115581200D02*
X142944315Y-115581200D01*
X102334060Y-105740200D02*
X106553000Y-101521260D01*
X106553000Y-101521260D02*
X106553000Y-101219000D01*
X142290800Y-116281200D02*
X140919200Y-116281200D01*
X140919200Y-116281200D02*
X137312400Y-112674400D01*
X129322599Y-112451601D02*
X129322599Y-98261401D01*
X129686599Y-112815601D02*
X129322599Y-112451601D01*
X129322599Y-98261401D02*
X131419600Y-96164400D01*
X135432800Y-110998000D02*
X133615199Y-112815601D01*
X133615199Y-112815601D02*
X129686599Y-112815601D01*
X120599200Y-90220800D02*
X125730000Y-85090000D01*
X120599200Y-91770200D02*
X120599200Y-90220800D01*
X146837400Y-99060000D02*
X146050000Y-99060000D01*
X159689800Y-111912400D02*
X146837400Y-99060000D01*
X146050000Y-99060000D02*
X146050000Y-105232200D01*
X146050000Y-105232200D02*
X142748000Y-108534200D01*
X121920000Y-124460000D02*
X119380000Y-124460000D01*
X135940800Y-104876600D02*
X134708575Y-103644375D01*
X134708575Y-103644375D02*
X133794175Y-103644375D01*
X160089799Y-112312399D02*
X159689800Y-111912400D01*
X161558201Y-113455999D02*
X160414601Y-112312399D01*
X161558201Y-118748664D02*
X161558201Y-113455999D01*
X161264275Y-119042590D02*
X161558201Y-118748664D01*
X160414601Y-112312399D02*
X160089799Y-112312399D01*
X161264275Y-119608275D02*
X161264275Y-119042590D01*
X166293800Y-113588800D02*
X166293800Y-111328200D01*
X166293800Y-111328200D02*
X166192200Y-111226600D01*
X148844000Y-99060000D02*
X148590000Y-99060000D01*
X161036000Y-111252000D02*
X148844000Y-99060000D01*
X119380000Y-121920000D02*
X121920000Y-121920000D01*
X132207000Y-106070400D02*
X132207000Y-106146600D01*
X132207000Y-106146600D02*
X133330758Y-107270358D01*
X158369000Y-79248000D02*
X150266400Y-71145400D01*
X150266400Y-71145400D02*
X150114000Y-71145400D01*
X150398502Y-107690898D02*
X149401594Y-107690898D01*
X151180800Y-106908600D02*
X150398502Y-107690898D01*
X149401594Y-107690898D02*
X146359610Y-110732882D01*
X146659600Y-118001515D02*
X146659600Y-118567200D01*
X146659601Y-111032873D02*
X146659600Y-118001515D01*
X146359610Y-110732882D02*
X146659601Y-111032873D01*
X134188200Y-120116600D02*
X131927600Y-117856000D01*
X134188200Y-126720600D02*
X134188200Y-120116600D01*
X139827000Y-54796077D02*
X139827000Y-53467000D01*
X139796801Y-54826276D02*
X139827000Y-54796077D01*
X154217001Y-55157001D02*
X155067000Y-56007000D01*
X150317200Y-51257200D02*
X154217001Y-55157001D01*
X142036800Y-51257200D02*
X150317200Y-51257200D01*
X139827000Y-53467000D02*
X142036800Y-51257200D01*
X130588312Y-112115600D02*
X139796801Y-102907111D01*
X139796801Y-101775714D02*
X139796801Y-101341201D01*
X139796801Y-102907111D02*
X139796801Y-101341201D01*
X130022600Y-112115600D02*
X130588312Y-112115600D01*
X139796801Y-101341201D02*
X139796801Y-54826276D01*
X138049000Y-126542800D02*
X139192000Y-125399800D01*
X139192000Y-125399800D02*
X139192000Y-121031000D01*
X138557000Y-87203002D02*
X138557000Y-56007000D01*
X128397000Y-97363002D02*
X138557000Y-87203002D01*
X128397000Y-113030000D02*
X128397000Y-97363002D01*
X136047199Y-54826276D02*
X137227923Y-56007000D01*
X136047199Y-52871895D02*
X136047199Y-54826276D01*
X137307601Y-51611493D02*
X136047199Y-52871895D01*
X137307601Y-46898597D02*
X137307601Y-51611493D01*
X139236999Y-44969199D02*
X137307601Y-46898597D01*
X139909001Y-44969199D02*
X139236999Y-44969199D01*
X137227923Y-56007000D02*
X138557000Y-56007000D01*
X144952402Y-50012600D02*
X139909001Y-44969199D01*
X148488400Y-50012600D02*
X144952402Y-50012600D01*
X148691600Y-112268000D02*
X151841200Y-109118400D01*
X151841200Y-109118400D02*
X152908000Y-109118400D01*
X155956000Y-82296000D02*
X152400000Y-78740000D01*
X162661600Y-82296000D02*
X155956000Y-82296000D01*
X149072600Y-113385600D02*
X150646750Y-113385600D01*
X150646750Y-113385600D02*
X154540375Y-109491975D01*
X153829285Y-81280000D02*
X152400000Y-81280000D01*
X168122600Y-95573315D02*
X153829285Y-81280000D01*
X168122600Y-96139000D02*
X168122600Y-95573315D01*
X145959600Y-113055400D02*
X145959600Y-110567194D01*
X145959600Y-110567194D02*
X149535897Y-106990897D01*
X154997201Y-96221601D02*
X154990800Y-96215200D01*
X155397200Y-101777800D02*
X154997201Y-101377801D01*
X154997201Y-101377801D02*
X154997201Y-96221601D01*
X152781000Y-88595200D02*
X149199600Y-85013800D01*
X149199600Y-85013800D02*
X149199600Y-84963000D01*
X136118600Y-69773800D02*
X136245600Y-69900800D01*
X96332040Y-83743800D02*
X110302040Y-69773800D01*
X110302040Y-69773800D02*
X136118600Y-69773800D01*
X147929600Y-76809600D02*
X149860000Y-78740000D01*
X147929600Y-73685400D02*
X147929600Y-76809600D01*
X153291925Y-113331875D02*
X155549600Y-111074200D01*
X150520400Y-117830600D02*
X153291925Y-115059075D01*
X153291925Y-115059075D02*
X153291925Y-113331875D01*
X169418000Y-94792800D02*
X158775400Y-84150200D01*
X158775400Y-84150200D02*
X158496000Y-84150200D01*
X152679400Y-84099400D02*
X149860000Y-81280000D01*
X154660600Y-84099400D02*
X152679400Y-84099400D01*
X147726400Y-83413600D02*
X149860000Y-81280000D01*
X144780000Y-83413600D02*
X147726400Y-83413600D01*
X139242800Y-116597200D02*
X139242800Y-115976400D01*
X139242800Y-115976400D02*
X137490200Y-114223800D01*
X151801599Y-106208599D02*
X153431818Y-107838818D01*
X143803600Y-111379000D02*
X148974001Y-106208599D01*
X148974001Y-106208599D02*
X151801599Y-106208599D01*
X159842200Y-76022200D02*
X157099000Y-73279000D01*
X157099000Y-73279000D02*
X153974800Y-73279000D01*
X145931281Y-76149200D02*
X141528800Y-76149200D01*
X147320000Y-78740000D02*
X147320000Y-77537919D01*
X147320000Y-77537919D02*
X145931281Y-76149200D01*
X144932400Y-113969800D02*
X144830800Y-113969800D01*
X143103599Y-111089051D02*
X146006625Y-108186025D01*
X144932400Y-113969800D02*
X143103599Y-112140999D01*
X143103599Y-112140999D02*
X143103599Y-111089051D01*
X148132800Y-104775000D02*
X148132800Y-102514400D01*
X148132800Y-102514400D02*
X147218400Y-101600000D01*
X144627600Y-96545400D02*
X142925800Y-96545400D01*
X142925800Y-96545400D02*
X141249400Y-94869000D01*
X130167999Y-83939999D02*
X133553200Y-87325200D01*
X120192800Y-88823800D02*
X125076601Y-83939999D01*
X125076601Y-83939999D02*
X130167999Y-83939999D01*
X141249400Y-88823800D02*
X144018000Y-88823800D01*
X144018000Y-88823800D02*
X144856200Y-89662000D01*
X132754601Y-116368599D02*
X132537200Y-116586000D01*
X134295601Y-116368599D02*
X132754601Y-116368599D01*
X139344825Y-118592173D02*
X136519175Y-118592173D01*
X136519175Y-118592173D02*
X134295601Y-116368599D01*
X131292600Y-115265200D02*
X132130800Y-114427000D01*
X132130800Y-114427000D02*
X132130800Y-113515601D01*
X138963400Y-103174814D02*
X138963400Y-87909400D01*
X130638358Y-109962758D02*
X132175456Y-109962758D01*
X132175456Y-109962758D02*
X138963400Y-103174814D01*
X140665200Y-82854800D02*
X144780000Y-78740000D01*
X140665200Y-85928200D02*
X140665200Y-82854800D01*
X136296400Y-116529802D02*
X136296400Y-114198400D01*
X140044826Y-119282290D02*
X140044826Y-117946826D01*
X140044826Y-117946826D02*
X139795210Y-117697210D01*
X140328115Y-118999001D02*
X140044826Y-119282290D01*
X140893800Y-118999001D02*
X140328115Y-118999001D01*
X139795210Y-117697210D02*
X137463808Y-117697210D01*
X137463808Y-117697210D02*
X136296400Y-116529802D01*
X147737398Y-95670600D02*
X150647400Y-95670600D01*
X144899999Y-98507999D02*
X147737398Y-95670600D01*
X134432797Y-110998000D02*
X144899999Y-100530798D01*
X144899999Y-100530798D02*
X144899999Y-98507999D01*
X143577919Y-81280000D02*
X144780000Y-81280000D01*
X141565399Y-83292520D02*
X143577919Y-81280000D01*
X141565399Y-84537001D02*
X141565399Y-83292520D01*
X148336000Y-91307602D02*
X141565399Y-84537001D01*
X148336000Y-92887800D02*
X148336000Y-91307602D01*
X160059601Y-114238001D02*
X155676600Y-109855000D01*
X160059601Y-115798183D02*
X160059601Y-114238001D01*
X151307800Y-123520200D02*
X152337584Y-123520200D01*
X152337584Y-123520200D02*
X160059601Y-115798183D01*
X160680400Y-104038400D02*
X161736001Y-102982799D01*
X151302402Y-84201000D02*
X142265400Y-84201000D01*
X161736001Y-94634599D02*
X151302402Y-84201000D01*
X161736001Y-102982799D02*
X161736001Y-94634599D01*
X104333040Y-83743800D02*
X108270040Y-79806800D01*
X108270040Y-79806800D02*
X115976400Y-79806800D01*
X128270000Y-77250000D02*
X128270000Y-76200000D01*
X125713200Y-79806800D02*
X128270000Y-77250000D01*
X121183400Y-79806800D02*
X125713200Y-79806800D01*
X151968200Y-125069600D02*
X144703800Y-132334000D01*
X144703800Y-132334000D02*
X144703800Y-137998200D01*
X98333560Y-110220760D02*
X98333560Y-105740200D01*
X117551200Y-129438400D02*
X98333560Y-110220760D01*
X127387310Y-123909011D02*
X123875800Y-120397501D01*
X131574413Y-123909011D02*
X127387310Y-123909011D01*
X132780001Y-126348403D02*
X132780001Y-125114599D01*
X133852199Y-127420601D02*
X132780001Y-126348403D01*
X132780001Y-125114599D02*
X131574413Y-123909011D01*
X144048798Y-124663200D02*
X142408997Y-123023399D01*
X150444200Y-124663200D02*
X144048798Y-124663200D01*
X138207201Y-127420601D02*
X133852199Y-127420601D01*
X139592010Y-124420988D02*
X139592010Y-126035792D01*
X142408997Y-123023399D02*
X140989599Y-123023399D01*
X139592010Y-126035792D02*
X138207201Y-127420601D01*
X140989599Y-123023399D02*
X139592010Y-124420988D01*
X123875800Y-120397501D02*
X123875800Y-98501200D01*
X123875800Y-98501200D02*
X119100600Y-93726000D01*
X119100600Y-85394800D02*
X124104400Y-80391000D01*
X124104400Y-80391000D02*
X129362200Y-80391000D01*
X129362200Y-80391000D02*
X131673600Y-78079600D01*
X131673600Y-78079600D02*
X131673600Y-77063600D01*
X131673600Y-77063600D02*
X128270000Y-73660000D01*
X119100600Y-85953600D02*
X119100600Y-85852000D01*
X117729000Y-87325200D02*
X119100600Y-85953600D01*
X119100600Y-93726000D02*
X119100600Y-85852000D01*
X119100600Y-85852000D02*
X119100600Y-85394800D01*
X153390600Y-131114800D02*
X145567400Y-138938000D01*
X153390600Y-123952000D02*
X153390600Y-131114800D01*
X102597998Y-120650000D02*
X96164400Y-114216402D01*
X115773200Y-129768600D02*
X106654600Y-120650000D01*
X96164400Y-114216402D02*
X96164400Y-110820200D01*
X106654600Y-120650000D02*
X102597998Y-120650000D01*
X115795031Y-96701369D02*
X109499400Y-102997000D01*
X125730000Y-73660000D02*
X115795031Y-83594969D01*
X115795031Y-83594969D02*
X115795031Y-96701369D01*
X117544799Y-125850599D02*
X108280200Y-116586000D01*
X132080000Y-125450600D02*
X131680001Y-125850599D01*
X131680001Y-125850599D02*
X117544799Y-125850599D01*
X108686600Y-110093760D02*
X104333040Y-105740200D01*
X108686600Y-112826800D02*
X108686600Y-110093760D01*
X115395021Y-94678219D02*
X104333040Y-105740200D01*
X115395021Y-82292977D02*
X115395021Y-94678219D01*
X125417997Y-72270001D02*
X115395021Y-82292977D01*
X127120000Y-72270001D02*
X125417997Y-72270001D01*
X128270000Y-71120001D02*
X127120000Y-72270001D01*
X141960600Y-137388802D02*
X141960600Y-133299200D01*
X146920399Y-142348601D02*
X141960600Y-137388802D01*
X157532399Y-142348601D02*
X146920399Y-142348601D01*
X157632400Y-142248600D02*
X157532399Y-142348601D01*
X157632400Y-141198600D02*
X157632400Y-142248600D01*
X173177402Y-141198600D02*
X157632400Y-141198600D01*
X180968999Y-133407003D02*
X173177402Y-141198600D01*
X180968999Y-85446203D02*
X180968999Y-133407003D01*
X186004200Y-80411002D02*
X180968999Y-85446203D01*
X186004200Y-74041000D02*
X186004200Y-80411002D01*
X192398574Y-106781600D02*
X187655200Y-106781600D01*
X192996930Y-106183244D02*
X192398574Y-106781600D01*
X177368200Y-110591600D02*
X175336200Y-112623600D01*
X175336200Y-112623600D02*
X168808400Y-112623600D01*
X192430400Y-105359200D02*
X187553600Y-105359200D01*
X187553600Y-105359200D02*
X187477400Y-105435400D01*
X164084000Y-134233602D02*
X164084000Y-132791200D01*
X164662399Y-134812001D02*
X164084000Y-134233602D01*
X165334401Y-134812001D02*
X164662399Y-134812001D01*
X170448055Y-115543678D02*
X170448055Y-129698347D01*
X170448055Y-129698347D02*
X165334401Y-134812001D01*
X192430400Y-104317800D02*
X187286316Y-104317800D01*
X187286316Y-104317800D02*
X187283031Y-104321085D01*
X164998400Y-132669598D02*
X163144200Y-130815398D01*
X164998400Y-134112000D02*
X164998400Y-132669598D01*
X163144200Y-128886499D02*
X163152011Y-128878688D01*
X163144200Y-130815398D02*
X163144200Y-128886499D01*
X163152011Y-128878688D02*
X163152011Y-116905669D01*
X163152011Y-116905669D02*
X164748070Y-115309610D01*
X169398990Y-115309610D02*
X170103800Y-114604800D01*
X164748070Y-115309610D02*
X169398990Y-115309610D01*
X193446400Y-103357000D02*
X187202400Y-103357000D01*
X187202400Y-103357000D02*
X187172600Y-103327200D01*
X162752001Y-116739981D02*
X162752001Y-128712999D01*
X164582382Y-114909600D02*
X162752001Y-116739981D01*
X162752001Y-128712999D02*
X162331400Y-129133600D01*
X169570400Y-113741200D02*
X168402000Y-114909600D01*
X162331400Y-129133600D02*
X157353000Y-129133600D01*
X168402000Y-114909600D02*
X164582382Y-114909600D01*
X149072600Y-67462400D02*
X146532600Y-67462400D01*
X146532600Y-67462400D02*
X146329400Y-67259200D01*
M02*
