G04 #@! TF.GenerationSoftware,KiCad,Pcbnew,5.0.1-33cea8e~68~ubuntu18.04.1*
G04 #@! TF.CreationDate,2018-12-09T11:33:24-08:00*
G04 #@! TF.ProjectId,quad_copter_pcb,717561645F636F707465725F7063622E,rev?*
G04 #@! TF.SameCoordinates,Original*
G04 #@! TF.FileFunction,Soldermask,Top*
G04 #@! TF.FilePolarity,Negative*
%FSLAX46Y46*%
G04 Gerber Fmt 4.6, Leading zero omitted, Abs format (unit mm)*
G04 Created by KiCad (PCBNEW 5.0.1-33cea8e~68~ubuntu18.04.1) date Sun 09 Dec 2018 11:33:24 AM PST*
%MOMM*%
%LPD*%
G01*
G04 APERTURE LIST*
%ADD10C,0.100000*%
G04 APERTURE END LIST*
D10*
G36*
X167507256Y-137583298D02*
X167613579Y-137604447D01*
X167914042Y-137728903D01*
X168053193Y-137821881D01*
X168184454Y-137909587D01*
X168414413Y-138139546D01*
X168414415Y-138139549D01*
X168595097Y-138409958D01*
X168719553Y-138710421D01*
X168724169Y-138733627D01*
X168783000Y-139029389D01*
X168783000Y-139354611D01*
X168719553Y-139673578D01*
X168595098Y-139974040D01*
X168414413Y-140244454D01*
X168184454Y-140474413D01*
X168184451Y-140474415D01*
X167914042Y-140655097D01*
X167613579Y-140779553D01*
X167507256Y-140800702D01*
X167294611Y-140843000D01*
X166969389Y-140843000D01*
X166756744Y-140800702D01*
X166650421Y-140779553D01*
X166349958Y-140655097D01*
X166079549Y-140474415D01*
X166079546Y-140474413D01*
X165849587Y-140244454D01*
X165668902Y-139974040D01*
X165544447Y-139673578D01*
X165481000Y-139354611D01*
X165481000Y-139029389D01*
X165539831Y-138733627D01*
X165544447Y-138710421D01*
X165668903Y-138409958D01*
X165849585Y-138139549D01*
X165849587Y-138139546D01*
X166079546Y-137909587D01*
X166210807Y-137821881D01*
X166349958Y-137728903D01*
X166650421Y-137604447D01*
X166756744Y-137583298D01*
X166969389Y-137541000D01*
X167294611Y-137541000D01*
X167507256Y-137583298D01*
X167507256Y-137583298D01*
G37*
G36*
X123692256Y-137583298D02*
X123798579Y-137604447D01*
X124099042Y-137728903D01*
X124238193Y-137821881D01*
X124369454Y-137909587D01*
X124599413Y-138139546D01*
X124599415Y-138139549D01*
X124780097Y-138409958D01*
X124904553Y-138710421D01*
X124909169Y-138733627D01*
X124968000Y-139029389D01*
X124968000Y-139354611D01*
X124904553Y-139673578D01*
X124780098Y-139974040D01*
X124599413Y-140244454D01*
X124369454Y-140474413D01*
X124369451Y-140474415D01*
X124099042Y-140655097D01*
X123798579Y-140779553D01*
X123692256Y-140800702D01*
X123479611Y-140843000D01*
X123154389Y-140843000D01*
X122941744Y-140800702D01*
X122835421Y-140779553D01*
X122534958Y-140655097D01*
X122264549Y-140474415D01*
X122264546Y-140474413D01*
X122034587Y-140244454D01*
X121853902Y-139974040D01*
X121729447Y-139673578D01*
X121666000Y-139354611D01*
X121666000Y-139029389D01*
X121724831Y-138733627D01*
X121729447Y-138710421D01*
X121853903Y-138409958D01*
X122034585Y-138139549D01*
X122034587Y-138139546D01*
X122264546Y-137909587D01*
X122395807Y-137821881D01*
X122534958Y-137728903D01*
X122835421Y-137604447D01*
X122941744Y-137583298D01*
X123154389Y-137541000D01*
X123479611Y-137541000D01*
X123692256Y-137583298D01*
X123692256Y-137583298D01*
G37*
G36*
X150097442Y-137662518D02*
X150163627Y-137669037D01*
X150276853Y-137703384D01*
X150333467Y-137720557D01*
X150472087Y-137794652D01*
X150489991Y-137804222D01*
X150511507Y-137821880D01*
X150627186Y-137916814D01*
X150710448Y-138018271D01*
X150739778Y-138054009D01*
X150739779Y-138054011D01*
X150823443Y-138210533D01*
X150823443Y-138210534D01*
X150874963Y-138380373D01*
X150892359Y-138557000D01*
X150874963Y-138733627D01*
X150840616Y-138846853D01*
X150823443Y-138903467D01*
X150818525Y-138912667D01*
X150739778Y-139059991D01*
X150710448Y-139095729D01*
X150627186Y-139197186D01*
X150525729Y-139280448D01*
X150489991Y-139309778D01*
X150489989Y-139309779D01*
X150333467Y-139393443D01*
X150276853Y-139410616D01*
X150163627Y-139444963D01*
X150097442Y-139451482D01*
X150031260Y-139458000D01*
X149942740Y-139458000D01*
X149876558Y-139451482D01*
X149810373Y-139444963D01*
X149697147Y-139410616D01*
X149640533Y-139393443D01*
X149484011Y-139309779D01*
X149484009Y-139309778D01*
X149448271Y-139280448D01*
X149346814Y-139197186D01*
X149263552Y-139095729D01*
X149234222Y-139059991D01*
X149155475Y-138912667D01*
X149150557Y-138903467D01*
X149133384Y-138846853D01*
X149099037Y-138733627D01*
X149081641Y-138557000D01*
X149099037Y-138380373D01*
X149150557Y-138210534D01*
X149150557Y-138210533D01*
X149234221Y-138054011D01*
X149234222Y-138054009D01*
X149263552Y-138018271D01*
X149346814Y-137916814D01*
X149462493Y-137821880D01*
X149484009Y-137804222D01*
X149501913Y-137794652D01*
X149640533Y-137720557D01*
X149697147Y-137703384D01*
X149810373Y-137669037D01*
X149876558Y-137662518D01*
X149942740Y-137656000D01*
X150031260Y-137656000D01*
X150097442Y-137662518D01*
X150097442Y-137662518D01*
G37*
G36*
X152637442Y-137662518D02*
X152703627Y-137669037D01*
X152816853Y-137703384D01*
X152873467Y-137720557D01*
X153012087Y-137794652D01*
X153029991Y-137804222D01*
X153051507Y-137821880D01*
X153167186Y-137916814D01*
X153250448Y-138018271D01*
X153279778Y-138054009D01*
X153279779Y-138054011D01*
X153363443Y-138210533D01*
X153363443Y-138210534D01*
X153414963Y-138380373D01*
X153432359Y-138557000D01*
X153414963Y-138733627D01*
X153380616Y-138846853D01*
X153363443Y-138903467D01*
X153358525Y-138912667D01*
X153279778Y-139059991D01*
X153250448Y-139095729D01*
X153167186Y-139197186D01*
X153065729Y-139280448D01*
X153029991Y-139309778D01*
X153029989Y-139309779D01*
X152873467Y-139393443D01*
X152816853Y-139410616D01*
X152703627Y-139444963D01*
X152637442Y-139451482D01*
X152571260Y-139458000D01*
X152482740Y-139458000D01*
X152416558Y-139451482D01*
X152350373Y-139444963D01*
X152237147Y-139410616D01*
X152180533Y-139393443D01*
X152024011Y-139309779D01*
X152024009Y-139309778D01*
X151988271Y-139280448D01*
X151886814Y-139197186D01*
X151803552Y-139095729D01*
X151774222Y-139059991D01*
X151695475Y-138912667D01*
X151690557Y-138903467D01*
X151673384Y-138846853D01*
X151639037Y-138733627D01*
X151621641Y-138557000D01*
X151639037Y-138380373D01*
X151690557Y-138210534D01*
X151690557Y-138210533D01*
X151774221Y-138054011D01*
X151774222Y-138054009D01*
X151803552Y-138018271D01*
X151886814Y-137916814D01*
X152002493Y-137821880D01*
X152024009Y-137804222D01*
X152041913Y-137794652D01*
X152180533Y-137720557D01*
X152237147Y-137703384D01*
X152350373Y-137669037D01*
X152416558Y-137662518D01*
X152482740Y-137656000D01*
X152571260Y-137656000D01*
X152637442Y-137662518D01*
X152637442Y-137662518D01*
G37*
G36*
X135648000Y-139458000D02*
X133846000Y-139458000D01*
X133846000Y-137656000D01*
X135648000Y-137656000D01*
X135648000Y-139458000D01*
X135648000Y-139458000D01*
G37*
G36*
X137397442Y-137662518D02*
X137463627Y-137669037D01*
X137576853Y-137703384D01*
X137633467Y-137720557D01*
X137772087Y-137794652D01*
X137789991Y-137804222D01*
X137811507Y-137821880D01*
X137927186Y-137916814D01*
X138010448Y-138018271D01*
X138039778Y-138054009D01*
X138039779Y-138054011D01*
X138123443Y-138210533D01*
X138123443Y-138210534D01*
X138174963Y-138380373D01*
X138192359Y-138557000D01*
X138174963Y-138733627D01*
X138140616Y-138846853D01*
X138123443Y-138903467D01*
X138118525Y-138912667D01*
X138039778Y-139059991D01*
X138010448Y-139095729D01*
X137927186Y-139197186D01*
X137825729Y-139280448D01*
X137789991Y-139309778D01*
X137789989Y-139309779D01*
X137633467Y-139393443D01*
X137576853Y-139410616D01*
X137463627Y-139444963D01*
X137397442Y-139451482D01*
X137331260Y-139458000D01*
X137242740Y-139458000D01*
X137176558Y-139451482D01*
X137110373Y-139444963D01*
X136997147Y-139410616D01*
X136940533Y-139393443D01*
X136784011Y-139309779D01*
X136784009Y-139309778D01*
X136748271Y-139280448D01*
X136646814Y-139197186D01*
X136563552Y-139095729D01*
X136534222Y-139059991D01*
X136455475Y-138912667D01*
X136450557Y-138903467D01*
X136433384Y-138846853D01*
X136399037Y-138733627D01*
X136381641Y-138557000D01*
X136399037Y-138380373D01*
X136450557Y-138210534D01*
X136450557Y-138210533D01*
X136534221Y-138054011D01*
X136534222Y-138054009D01*
X136563552Y-138018271D01*
X136646814Y-137916814D01*
X136762493Y-137821880D01*
X136784009Y-137804222D01*
X136801913Y-137794652D01*
X136940533Y-137720557D01*
X136997147Y-137703384D01*
X137110373Y-137669037D01*
X137176558Y-137662518D01*
X137242740Y-137656000D01*
X137331260Y-137656000D01*
X137397442Y-137662518D01*
X137397442Y-137662518D01*
G37*
G36*
X139937442Y-137662518D02*
X140003627Y-137669037D01*
X140116853Y-137703384D01*
X140173467Y-137720557D01*
X140312087Y-137794652D01*
X140329991Y-137804222D01*
X140351507Y-137821880D01*
X140467186Y-137916814D01*
X140550448Y-138018271D01*
X140579778Y-138054009D01*
X140579779Y-138054011D01*
X140663443Y-138210533D01*
X140663443Y-138210534D01*
X140714963Y-138380373D01*
X140732359Y-138557000D01*
X140714963Y-138733627D01*
X140680616Y-138846853D01*
X140663443Y-138903467D01*
X140658525Y-138912667D01*
X140579778Y-139059991D01*
X140550448Y-139095729D01*
X140467186Y-139197186D01*
X140365729Y-139280448D01*
X140329991Y-139309778D01*
X140329989Y-139309779D01*
X140173467Y-139393443D01*
X140116853Y-139410616D01*
X140003627Y-139444963D01*
X139937442Y-139451482D01*
X139871260Y-139458000D01*
X139782740Y-139458000D01*
X139716558Y-139451482D01*
X139650373Y-139444963D01*
X139537147Y-139410616D01*
X139480533Y-139393443D01*
X139324011Y-139309779D01*
X139324009Y-139309778D01*
X139288271Y-139280448D01*
X139186814Y-139197186D01*
X139103552Y-139095729D01*
X139074222Y-139059991D01*
X138995475Y-138912667D01*
X138990557Y-138903467D01*
X138973384Y-138846853D01*
X138939037Y-138733627D01*
X138921641Y-138557000D01*
X138939037Y-138380373D01*
X138990557Y-138210534D01*
X138990557Y-138210533D01*
X139074221Y-138054011D01*
X139074222Y-138054009D01*
X139103552Y-138018271D01*
X139186814Y-137916814D01*
X139302493Y-137821880D01*
X139324009Y-137804222D01*
X139341913Y-137794652D01*
X139480533Y-137720557D01*
X139537147Y-137703384D01*
X139650373Y-137669037D01*
X139716558Y-137662518D01*
X139782740Y-137656000D01*
X139871260Y-137656000D01*
X139937442Y-137662518D01*
X139937442Y-137662518D01*
G37*
G36*
X145017442Y-137662518D02*
X145083627Y-137669037D01*
X145196853Y-137703384D01*
X145253467Y-137720557D01*
X145392087Y-137794652D01*
X145409991Y-137804222D01*
X145431507Y-137821880D01*
X145547186Y-137916814D01*
X145630448Y-138018271D01*
X145659778Y-138054009D01*
X145659779Y-138054011D01*
X145743443Y-138210533D01*
X145743443Y-138210534D01*
X145794963Y-138380373D01*
X145812359Y-138557000D01*
X145794963Y-138733627D01*
X145760616Y-138846853D01*
X145743443Y-138903467D01*
X145738525Y-138912667D01*
X145659778Y-139059991D01*
X145630448Y-139095729D01*
X145547186Y-139197186D01*
X145445729Y-139280448D01*
X145409991Y-139309778D01*
X145409989Y-139309779D01*
X145253467Y-139393443D01*
X145196853Y-139410616D01*
X145083627Y-139444963D01*
X145017442Y-139451482D01*
X144951260Y-139458000D01*
X144862740Y-139458000D01*
X144796558Y-139451482D01*
X144730373Y-139444963D01*
X144617147Y-139410616D01*
X144560533Y-139393443D01*
X144404011Y-139309779D01*
X144404009Y-139309778D01*
X144368271Y-139280448D01*
X144266814Y-139197186D01*
X144183552Y-139095729D01*
X144154222Y-139059991D01*
X144075475Y-138912667D01*
X144070557Y-138903467D01*
X144053384Y-138846853D01*
X144019037Y-138733627D01*
X144001641Y-138557000D01*
X144019037Y-138380373D01*
X144070557Y-138210534D01*
X144070557Y-138210533D01*
X144154221Y-138054011D01*
X144154222Y-138054009D01*
X144183552Y-138018271D01*
X144266814Y-137916814D01*
X144382493Y-137821880D01*
X144404009Y-137804222D01*
X144421913Y-137794652D01*
X144560533Y-137720557D01*
X144617147Y-137703384D01*
X144730373Y-137669037D01*
X144796558Y-137662518D01*
X144862740Y-137656000D01*
X144951260Y-137656000D01*
X145017442Y-137662518D01*
X145017442Y-137662518D01*
G37*
G36*
X142477442Y-137662518D02*
X142543627Y-137669037D01*
X142656853Y-137703384D01*
X142713467Y-137720557D01*
X142852087Y-137794652D01*
X142869991Y-137804222D01*
X142891507Y-137821880D01*
X143007186Y-137916814D01*
X143090448Y-138018271D01*
X143119778Y-138054009D01*
X143119779Y-138054011D01*
X143203443Y-138210533D01*
X143203443Y-138210534D01*
X143254963Y-138380373D01*
X143272359Y-138557000D01*
X143254963Y-138733627D01*
X143220616Y-138846853D01*
X143203443Y-138903467D01*
X143198525Y-138912667D01*
X143119778Y-139059991D01*
X143090448Y-139095729D01*
X143007186Y-139197186D01*
X142905729Y-139280448D01*
X142869991Y-139309778D01*
X142869989Y-139309779D01*
X142713467Y-139393443D01*
X142656853Y-139410616D01*
X142543627Y-139444963D01*
X142477442Y-139451482D01*
X142411260Y-139458000D01*
X142322740Y-139458000D01*
X142256558Y-139451482D01*
X142190373Y-139444963D01*
X142077147Y-139410616D01*
X142020533Y-139393443D01*
X141864011Y-139309779D01*
X141864009Y-139309778D01*
X141828271Y-139280448D01*
X141726814Y-139197186D01*
X141643552Y-139095729D01*
X141614222Y-139059991D01*
X141535475Y-138912667D01*
X141530557Y-138903467D01*
X141513384Y-138846853D01*
X141479037Y-138733627D01*
X141461641Y-138557000D01*
X141479037Y-138380373D01*
X141530557Y-138210534D01*
X141530557Y-138210533D01*
X141614221Y-138054011D01*
X141614222Y-138054009D01*
X141643552Y-138018271D01*
X141726814Y-137916814D01*
X141842493Y-137821880D01*
X141864009Y-137804222D01*
X141881913Y-137794652D01*
X142020533Y-137720557D01*
X142077147Y-137703384D01*
X142190373Y-137669037D01*
X142256558Y-137662518D01*
X142322740Y-137656000D01*
X142411260Y-137656000D01*
X142477442Y-137662518D01*
X142477442Y-137662518D01*
G37*
G36*
X147557442Y-137662518D02*
X147623627Y-137669037D01*
X147736853Y-137703384D01*
X147793467Y-137720557D01*
X147932087Y-137794652D01*
X147949991Y-137804222D01*
X147971507Y-137821880D01*
X148087186Y-137916814D01*
X148170448Y-138018271D01*
X148199778Y-138054009D01*
X148199779Y-138054011D01*
X148283443Y-138210533D01*
X148283443Y-138210534D01*
X148334963Y-138380373D01*
X148352359Y-138557000D01*
X148334963Y-138733627D01*
X148300616Y-138846853D01*
X148283443Y-138903467D01*
X148278525Y-138912667D01*
X148199778Y-139059991D01*
X148170448Y-139095729D01*
X148087186Y-139197186D01*
X147985729Y-139280448D01*
X147949991Y-139309778D01*
X147949989Y-139309779D01*
X147793467Y-139393443D01*
X147736853Y-139410616D01*
X147623627Y-139444963D01*
X147557442Y-139451482D01*
X147491260Y-139458000D01*
X147402740Y-139458000D01*
X147336558Y-139451482D01*
X147270373Y-139444963D01*
X147157147Y-139410616D01*
X147100533Y-139393443D01*
X146944011Y-139309779D01*
X146944009Y-139309778D01*
X146908271Y-139280448D01*
X146806814Y-139197186D01*
X146723552Y-139095729D01*
X146694222Y-139059991D01*
X146615475Y-138912667D01*
X146610557Y-138903467D01*
X146593384Y-138846853D01*
X146559037Y-138733627D01*
X146541641Y-138557000D01*
X146559037Y-138380373D01*
X146610557Y-138210534D01*
X146610557Y-138210533D01*
X146694221Y-138054011D01*
X146694222Y-138054009D01*
X146723552Y-138018271D01*
X146806814Y-137916814D01*
X146922493Y-137821880D01*
X146944009Y-137804222D01*
X146961913Y-137794652D01*
X147100533Y-137720557D01*
X147157147Y-137703384D01*
X147270373Y-137669037D01*
X147336558Y-137662518D01*
X147402740Y-137656000D01*
X147491260Y-137656000D01*
X147557442Y-137662518D01*
X147557442Y-137662518D01*
G37*
G36*
X117076096Y-134199033D02*
X117076098Y-134199034D01*
X117076099Y-134199034D01*
X117540352Y-134391333D01*
X117901830Y-134632865D01*
X117958171Y-134670511D01*
X118313489Y-135025829D01*
X118313491Y-135025832D01*
X118592667Y-135443648D01*
X118730348Y-135776042D01*
X118784967Y-135907904D01*
X118808424Y-136025830D01*
X118883000Y-136400748D01*
X118883000Y-136903252D01*
X118784966Y-137396099D01*
X118592667Y-137860352D01*
X118314750Y-138276284D01*
X118313489Y-138278171D01*
X117958171Y-138633489D01*
X117958168Y-138633491D01*
X117540352Y-138912667D01*
X117076099Y-139104966D01*
X117076098Y-139104966D01*
X117076096Y-139104967D01*
X116583253Y-139203000D01*
X116080747Y-139203000D01*
X115587904Y-139104967D01*
X115587902Y-139104966D01*
X115587901Y-139104966D01*
X115123648Y-138912667D01*
X114705832Y-138633491D01*
X114705829Y-138633489D01*
X114350511Y-138278171D01*
X114349250Y-138276284D01*
X114071333Y-137860352D01*
X113879034Y-137396099D01*
X113781000Y-136903252D01*
X113781000Y-136400748D01*
X113855576Y-136025830D01*
X113879033Y-135907904D01*
X113933652Y-135776042D01*
X114071333Y-135443648D01*
X114350509Y-135025832D01*
X114350511Y-135025829D01*
X114705829Y-134670511D01*
X114762170Y-134632865D01*
X115123648Y-134391333D01*
X115587901Y-134199034D01*
X115587902Y-134199034D01*
X115587904Y-134199033D01*
X116080747Y-134101000D01*
X116583253Y-134101000D01*
X117076096Y-134199033D01*
X117076096Y-134199033D01*
G37*
G36*
X175709558Y-136174051D02*
X175781525Y-136181139D01*
X175894751Y-136215486D01*
X175951365Y-136232659D01*
X176089985Y-136306754D01*
X176107889Y-136316324D01*
X176143627Y-136345654D01*
X176245084Y-136428916D01*
X176328346Y-136530373D01*
X176357676Y-136566111D01*
X176357677Y-136566113D01*
X176441341Y-136722635D01*
X176441341Y-136722636D01*
X176492861Y-136892475D01*
X176510257Y-137069102D01*
X176492861Y-137245729D01*
X176458514Y-137358955D01*
X176441341Y-137415569D01*
X176374296Y-137541000D01*
X176357676Y-137572093D01*
X176331124Y-137604447D01*
X176245084Y-137709288D01*
X176143627Y-137792550D01*
X176107889Y-137821880D01*
X176107887Y-137821881D01*
X175951365Y-137905545D01*
X175914215Y-137916814D01*
X175781525Y-137957065D01*
X175715340Y-137963584D01*
X175649158Y-137970102D01*
X175560638Y-137970102D01*
X175494456Y-137963584D01*
X175428271Y-137957065D01*
X175295581Y-137916814D01*
X175258431Y-137905545D01*
X175101909Y-137821881D01*
X175101907Y-137821880D01*
X175066169Y-137792550D01*
X174964712Y-137709288D01*
X174878672Y-137604447D01*
X174852120Y-137572093D01*
X174835500Y-137541000D01*
X174768455Y-137415569D01*
X174751282Y-137358955D01*
X174716935Y-137245729D01*
X174699539Y-137069102D01*
X174716935Y-136892475D01*
X174768455Y-136722636D01*
X174768455Y-136722635D01*
X174852119Y-136566113D01*
X174852120Y-136566111D01*
X174881450Y-136530373D01*
X174964712Y-136428916D01*
X175066169Y-136345654D01*
X175101907Y-136316324D01*
X175119811Y-136306754D01*
X175258431Y-136232659D01*
X175315045Y-136215486D01*
X175428271Y-136181139D01*
X175500238Y-136174051D01*
X175560638Y-136168102D01*
X175649158Y-136168102D01*
X175709558Y-136174051D01*
X175709558Y-136174051D01*
G37*
G36*
X177511391Y-134378569D02*
X177577576Y-134385088D01*
X177690802Y-134419435D01*
X177747416Y-134436608D01*
X177886036Y-134510703D01*
X177903940Y-134520273D01*
X177939678Y-134549603D01*
X178041135Y-134632865D01*
X178124397Y-134734322D01*
X178153727Y-134770060D01*
X178153728Y-134770062D01*
X178237392Y-134926584D01*
X178237392Y-134926585D01*
X178288912Y-135096424D01*
X178306308Y-135273051D01*
X178288912Y-135449678D01*
X178254565Y-135562904D01*
X178237392Y-135619518D01*
X178163297Y-135758138D01*
X178153727Y-135776042D01*
X178124397Y-135811780D01*
X178041135Y-135913237D01*
X177939678Y-135996499D01*
X177903940Y-136025829D01*
X177903938Y-136025830D01*
X177747416Y-136109494D01*
X177690802Y-136126667D01*
X177577576Y-136161014D01*
X177511391Y-136167533D01*
X177445209Y-136174051D01*
X177356689Y-136174051D01*
X177290507Y-136167533D01*
X177224322Y-136161014D01*
X177111096Y-136126667D01*
X177054482Y-136109494D01*
X176897960Y-136025830D01*
X176897958Y-136025829D01*
X176862220Y-135996499D01*
X176760763Y-135913237D01*
X176677501Y-135811780D01*
X176648171Y-135776042D01*
X176638601Y-135758138D01*
X176564506Y-135619518D01*
X176547333Y-135562904D01*
X176512986Y-135449678D01*
X176495590Y-135273051D01*
X176512986Y-135096424D01*
X176564506Y-134926585D01*
X176564506Y-134926584D01*
X176648170Y-134770062D01*
X176648171Y-134770060D01*
X176677501Y-134734322D01*
X176760763Y-134632865D01*
X176862220Y-134549603D01*
X176897958Y-134520273D01*
X176915862Y-134510703D01*
X177054482Y-134436608D01*
X177111096Y-134419435D01*
X177224322Y-134385088D01*
X177290507Y-134378569D01*
X177356689Y-134372051D01*
X177445209Y-134372051D01*
X177511391Y-134378569D01*
X177511391Y-134378569D01*
G37*
G36*
X180471207Y-133477000D02*
X179197000Y-134751207D01*
X177922793Y-133477000D01*
X179197000Y-132202793D01*
X180471207Y-133477000D01*
X180471207Y-133477000D01*
G37*
G36*
X111996096Y-129119033D02*
X111996098Y-129119034D01*
X111996099Y-129119034D01*
X112460352Y-129311333D01*
X112876284Y-129589250D01*
X112878171Y-129590511D01*
X113233489Y-129945829D01*
X113233491Y-129945832D01*
X113512667Y-130363648D01*
X113704966Y-130827901D01*
X113803000Y-131320748D01*
X113803000Y-131823252D01*
X113704966Y-132316099D01*
X113512667Y-132780352D01*
X113234750Y-133196284D01*
X113233489Y-133198171D01*
X112878171Y-133553489D01*
X112878168Y-133553491D01*
X112460352Y-133832667D01*
X111996099Y-134024966D01*
X111996098Y-134024966D01*
X111996096Y-134024967D01*
X111503253Y-134123000D01*
X111000747Y-134123000D01*
X110507904Y-134024967D01*
X110507902Y-134024966D01*
X110507901Y-134024966D01*
X110043648Y-133832667D01*
X109625832Y-133553491D01*
X109625829Y-133553489D01*
X109270511Y-133198171D01*
X109269250Y-133196284D01*
X108991333Y-132780352D01*
X108799034Y-132316099D01*
X108701000Y-131823252D01*
X108701000Y-131320748D01*
X108799034Y-130827901D01*
X108991333Y-130363648D01*
X109270509Y-129945832D01*
X109270511Y-129945829D01*
X109625829Y-129590511D01*
X109627716Y-129589250D01*
X110043648Y-129311333D01*
X110507901Y-129119034D01*
X110507902Y-129119034D01*
X110507904Y-129119033D01*
X111000747Y-129021000D01*
X111503253Y-129021000D01*
X111996096Y-129119033D01*
X111996096Y-129119033D01*
G37*
G36*
X184513096Y-125563033D02*
X184513098Y-125563034D01*
X184513099Y-125563034D01*
X184977352Y-125755333D01*
X185300322Y-125971135D01*
X185395171Y-126034511D01*
X185750489Y-126389829D01*
X185750491Y-126389832D01*
X186029667Y-126807648D01*
X186221966Y-127271901D01*
X186320000Y-127764748D01*
X186320000Y-128267252D01*
X186221966Y-128760099D01*
X186029667Y-129224352D01*
X185971547Y-129311334D01*
X185750489Y-129642171D01*
X185395171Y-129997489D01*
X185395168Y-129997491D01*
X184977352Y-130276667D01*
X184513099Y-130468966D01*
X184513098Y-130468966D01*
X184513096Y-130468967D01*
X184020253Y-130567000D01*
X183517747Y-130567000D01*
X183024904Y-130468967D01*
X183024902Y-130468966D01*
X183024901Y-130468966D01*
X182560648Y-130276667D01*
X182142832Y-129997491D01*
X182142829Y-129997489D01*
X181787511Y-129642171D01*
X181566453Y-129311334D01*
X181508333Y-129224352D01*
X181316034Y-128760099D01*
X181218000Y-128267252D01*
X181218000Y-127764748D01*
X181316034Y-127271901D01*
X181508333Y-126807648D01*
X181787509Y-126389832D01*
X181787511Y-126389829D01*
X182142829Y-126034511D01*
X182237678Y-125971135D01*
X182560648Y-125755333D01*
X183024901Y-125563034D01*
X183024902Y-125563034D01*
X183024904Y-125563033D01*
X183517747Y-125465000D01*
X184020253Y-125465000D01*
X184513096Y-125563033D01*
X184513096Y-125563033D01*
G37*
G36*
X106811207Y-127127000D02*
X105537000Y-128401207D01*
X104262793Y-127127000D01*
X105537000Y-125852793D01*
X106811207Y-127127000D01*
X106811207Y-127127000D01*
G37*
G36*
X103845609Y-124435898D02*
X103917576Y-124442986D01*
X104030802Y-124477333D01*
X104087416Y-124494506D01*
X104226036Y-124568601D01*
X104243940Y-124578171D01*
X104248380Y-124581815D01*
X104381135Y-124690763D01*
X104464397Y-124792220D01*
X104493727Y-124827958D01*
X104493728Y-124827960D01*
X104577392Y-124984482D01*
X104577392Y-124984483D01*
X104628912Y-125154322D01*
X104646308Y-125330949D01*
X104628912Y-125507576D01*
X104612089Y-125563033D01*
X104577392Y-125677416D01*
X104551963Y-125724989D01*
X104493727Y-125833940D01*
X104478254Y-125852794D01*
X104381135Y-125971135D01*
X104279678Y-126054397D01*
X104243940Y-126083727D01*
X104243938Y-126083728D01*
X104087416Y-126167392D01*
X104030802Y-126184565D01*
X103917576Y-126218912D01*
X103851391Y-126225431D01*
X103785209Y-126231949D01*
X103696689Y-126231949D01*
X103630507Y-126225431D01*
X103564322Y-126218912D01*
X103451096Y-126184565D01*
X103394482Y-126167392D01*
X103237960Y-126083728D01*
X103237958Y-126083727D01*
X103202220Y-126054397D01*
X103100763Y-125971135D01*
X103003644Y-125852794D01*
X102988171Y-125833940D01*
X102929935Y-125724989D01*
X102904506Y-125677416D01*
X102869809Y-125563033D01*
X102852986Y-125507576D01*
X102835590Y-125330949D01*
X102852986Y-125154322D01*
X102904506Y-124984483D01*
X102904506Y-124984482D01*
X102988170Y-124827960D01*
X102988171Y-124827958D01*
X103017501Y-124792220D01*
X103100763Y-124690763D01*
X103233518Y-124581815D01*
X103237958Y-124578171D01*
X103255862Y-124568601D01*
X103394482Y-124494506D01*
X103451096Y-124477333D01*
X103564322Y-124442986D01*
X103636289Y-124435898D01*
X103696689Y-124429949D01*
X103785209Y-124429949D01*
X103845609Y-124435898D01*
X103845609Y-124435898D01*
G37*
G36*
X122157442Y-124327518D02*
X122223627Y-124334037D01*
X122336853Y-124368384D01*
X122393467Y-124385557D01*
X122476517Y-124429949D01*
X122549991Y-124469222D01*
X122580799Y-124494506D01*
X122687186Y-124581814D01*
X122770448Y-124683271D01*
X122799778Y-124719009D01*
X122799779Y-124719011D01*
X122883443Y-124875533D01*
X122883443Y-124875534D01*
X122934963Y-125045373D01*
X122952359Y-125222000D01*
X122934963Y-125398627D01*
X122914829Y-125465000D01*
X122883443Y-125568467D01*
X122825208Y-125677415D01*
X122799778Y-125724991D01*
X122774877Y-125755333D01*
X122687186Y-125862186D01*
X122585729Y-125945448D01*
X122549991Y-125974778D01*
X122549989Y-125974779D01*
X122393467Y-126058443D01*
X122336853Y-126075616D01*
X122223627Y-126109963D01*
X122157443Y-126116481D01*
X122091260Y-126123000D01*
X122002740Y-126123000D01*
X121936557Y-126116481D01*
X121870373Y-126109963D01*
X121757147Y-126075616D01*
X121700533Y-126058443D01*
X121544011Y-125974779D01*
X121544009Y-125974778D01*
X121508271Y-125945448D01*
X121406814Y-125862186D01*
X121319123Y-125755333D01*
X121294222Y-125724991D01*
X121268792Y-125677415D01*
X121210557Y-125568467D01*
X121179171Y-125465000D01*
X121159037Y-125398627D01*
X121141641Y-125222000D01*
X121159037Y-125045373D01*
X121210557Y-124875534D01*
X121210557Y-124875533D01*
X121294221Y-124719011D01*
X121294222Y-124719009D01*
X121323552Y-124683271D01*
X121406814Y-124581814D01*
X121513201Y-124494506D01*
X121544009Y-124469222D01*
X121617483Y-124429949D01*
X121700533Y-124385557D01*
X121757147Y-124368384D01*
X121870373Y-124334037D01*
X121936558Y-124327518D01*
X122002740Y-124321000D01*
X122091260Y-124321000D01*
X122157442Y-124327518D01*
X122157442Y-124327518D01*
G37*
G36*
X124697442Y-124327518D02*
X124763627Y-124334037D01*
X124876853Y-124368384D01*
X124933467Y-124385557D01*
X125016517Y-124429949D01*
X125089991Y-124469222D01*
X125120799Y-124494506D01*
X125227186Y-124581814D01*
X125310448Y-124683271D01*
X125339778Y-124719009D01*
X125339779Y-124719011D01*
X125423443Y-124875533D01*
X125423443Y-124875534D01*
X125474963Y-125045373D01*
X125492359Y-125222000D01*
X125474963Y-125398627D01*
X125454829Y-125465000D01*
X125423443Y-125568467D01*
X125365208Y-125677415D01*
X125339778Y-125724991D01*
X125314877Y-125755333D01*
X125227186Y-125862186D01*
X125125729Y-125945448D01*
X125089991Y-125974778D01*
X125089989Y-125974779D01*
X124933467Y-126058443D01*
X124876853Y-126075616D01*
X124763627Y-126109963D01*
X124697443Y-126116481D01*
X124631260Y-126123000D01*
X124542740Y-126123000D01*
X124476557Y-126116481D01*
X124410373Y-126109963D01*
X124297147Y-126075616D01*
X124240533Y-126058443D01*
X124084011Y-125974779D01*
X124084009Y-125974778D01*
X124048271Y-125945448D01*
X123946814Y-125862186D01*
X123859123Y-125755333D01*
X123834222Y-125724991D01*
X123808792Y-125677415D01*
X123750557Y-125568467D01*
X123719171Y-125465000D01*
X123699037Y-125398627D01*
X123681641Y-125222000D01*
X123699037Y-125045373D01*
X123750557Y-124875534D01*
X123750557Y-124875533D01*
X123834221Y-124719011D01*
X123834222Y-124719009D01*
X123863552Y-124683271D01*
X123946814Y-124581814D01*
X124053201Y-124494506D01*
X124084009Y-124469222D01*
X124157483Y-124429949D01*
X124240533Y-124385557D01*
X124297147Y-124368384D01*
X124410373Y-124334037D01*
X124476558Y-124327518D01*
X124542740Y-124321000D01*
X124631260Y-124321000D01*
X124697442Y-124327518D01*
X124697442Y-124327518D01*
G37*
G36*
X188958096Y-120229033D02*
X188958098Y-120229034D01*
X188958099Y-120229034D01*
X189422352Y-120421333D01*
X189838284Y-120699250D01*
X189840171Y-120700511D01*
X190195489Y-121055829D01*
X190195491Y-121055832D01*
X190474667Y-121473648D01*
X190663371Y-121929222D01*
X190666967Y-121937904D01*
X190765000Y-122430747D01*
X190765000Y-122933253D01*
X190714242Y-123188432D01*
X190666966Y-123426099D01*
X190474667Y-123890352D01*
X190284415Y-124175084D01*
X190195489Y-124308171D01*
X189840171Y-124663489D01*
X189840168Y-124663491D01*
X189422352Y-124942667D01*
X188958099Y-125134966D01*
X188958098Y-125134966D01*
X188958096Y-125134967D01*
X188465253Y-125233000D01*
X187962747Y-125233000D01*
X187469904Y-125134967D01*
X187469902Y-125134966D01*
X187469901Y-125134966D01*
X187005648Y-124942667D01*
X186587832Y-124663491D01*
X186587829Y-124663489D01*
X186232511Y-124308171D01*
X186143585Y-124175084D01*
X185953333Y-123890352D01*
X185761034Y-123426099D01*
X185713759Y-123188432D01*
X185663000Y-122933253D01*
X185663000Y-122430747D01*
X185761033Y-121937904D01*
X185764629Y-121929222D01*
X185953333Y-121473648D01*
X186232509Y-121055832D01*
X186232511Y-121055829D01*
X186587829Y-120700511D01*
X186589716Y-120699250D01*
X187005648Y-120421333D01*
X187469901Y-120229034D01*
X187469902Y-120229034D01*
X187469904Y-120229033D01*
X187962747Y-120131000D01*
X188465253Y-120131000D01*
X188958096Y-120229033D01*
X188958096Y-120229033D01*
G37*
G36*
X102055341Y-122640417D02*
X102121525Y-122646935D01*
X102234751Y-122681282D01*
X102291365Y-122698455D01*
X102429985Y-122772550D01*
X102447889Y-122782120D01*
X102483627Y-122811450D01*
X102585084Y-122894712D01*
X102668346Y-122996169D01*
X102697676Y-123031907D01*
X102697677Y-123031909D01*
X102781341Y-123188431D01*
X102781341Y-123188432D01*
X102832861Y-123358271D01*
X102850257Y-123534898D01*
X102832861Y-123711525D01*
X102798514Y-123824751D01*
X102781341Y-123881365D01*
X102776537Y-123890352D01*
X102697676Y-124037889D01*
X102668346Y-124073627D01*
X102585084Y-124175084D01*
X102483627Y-124258346D01*
X102447889Y-124287676D01*
X102447887Y-124287677D01*
X102291365Y-124371341D01*
X102244500Y-124385557D01*
X102121525Y-124422861D01*
X102055341Y-124429379D01*
X101989158Y-124435898D01*
X101900638Y-124435898D01*
X101834455Y-124429379D01*
X101768271Y-124422861D01*
X101645296Y-124385557D01*
X101598431Y-124371341D01*
X101441909Y-124287677D01*
X101441907Y-124287676D01*
X101406169Y-124258346D01*
X101304712Y-124175084D01*
X101221450Y-124073627D01*
X101192120Y-124037889D01*
X101113259Y-123890352D01*
X101108455Y-123881365D01*
X101091282Y-123824751D01*
X101056935Y-123711525D01*
X101039539Y-123534898D01*
X101056935Y-123358271D01*
X101108455Y-123188432D01*
X101108455Y-123188431D01*
X101192119Y-123031909D01*
X101192120Y-123031907D01*
X101221450Y-122996169D01*
X101304712Y-122894712D01*
X101406169Y-122811450D01*
X101441907Y-122782120D01*
X101459811Y-122772550D01*
X101598431Y-122698455D01*
X101655045Y-122681282D01*
X101768271Y-122646935D01*
X101834455Y-122640417D01*
X101900638Y-122633898D01*
X101989158Y-122633898D01*
X102055341Y-122640417D01*
X102055341Y-122640417D01*
G37*
G36*
X124697443Y-121787519D02*
X124763627Y-121794037D01*
X124876853Y-121828384D01*
X124933467Y-121845557D01*
X125072087Y-121919652D01*
X125089991Y-121929222D01*
X125125729Y-121958552D01*
X125227186Y-122041814D01*
X125310448Y-122143271D01*
X125339778Y-122179009D01*
X125339779Y-122179011D01*
X125423443Y-122335533D01*
X125423443Y-122335534D01*
X125474963Y-122505373D01*
X125492359Y-122682000D01*
X125474963Y-122858627D01*
X125464016Y-122894713D01*
X125423443Y-123028467D01*
X125421604Y-123031907D01*
X125339778Y-123184991D01*
X125310448Y-123220729D01*
X125227186Y-123322186D01*
X125125729Y-123405448D01*
X125089991Y-123434778D01*
X125089989Y-123434779D01*
X124933467Y-123518443D01*
X124879221Y-123534898D01*
X124763627Y-123569963D01*
X124697443Y-123576481D01*
X124631260Y-123583000D01*
X124542740Y-123583000D01*
X124476557Y-123576481D01*
X124410373Y-123569963D01*
X124294779Y-123534898D01*
X124240533Y-123518443D01*
X124084011Y-123434779D01*
X124084009Y-123434778D01*
X124048271Y-123405448D01*
X123946814Y-123322186D01*
X123863552Y-123220729D01*
X123834222Y-123184991D01*
X123752396Y-123031907D01*
X123750557Y-123028467D01*
X123709984Y-122894713D01*
X123699037Y-122858627D01*
X123681641Y-122682000D01*
X123699037Y-122505373D01*
X123750557Y-122335534D01*
X123750557Y-122335533D01*
X123834221Y-122179011D01*
X123834222Y-122179009D01*
X123863552Y-122143271D01*
X123946814Y-122041814D01*
X124048271Y-121958552D01*
X124084009Y-121929222D01*
X124101913Y-121919652D01*
X124240533Y-121845557D01*
X124297147Y-121828384D01*
X124410373Y-121794037D01*
X124476557Y-121787519D01*
X124542740Y-121781000D01*
X124631260Y-121781000D01*
X124697443Y-121787519D01*
X124697443Y-121787519D01*
G37*
G36*
X122948000Y-123583000D02*
X121146000Y-123583000D01*
X121146000Y-121781000D01*
X122948000Y-121781000D01*
X122948000Y-123583000D01*
X122948000Y-123583000D01*
G37*
G36*
X109810677Y-118760465D02*
X109848364Y-118771898D01*
X109883103Y-118790466D01*
X109913548Y-118815452D01*
X109938534Y-118845897D01*
X109957102Y-118880636D01*
X109968535Y-118918323D01*
X109973000Y-118963661D01*
X109973000Y-120050339D01*
X109968535Y-120095677D01*
X109957102Y-120133364D01*
X109938534Y-120168103D01*
X109913548Y-120198548D01*
X109883103Y-120223534D01*
X109848364Y-120242102D01*
X109810677Y-120253535D01*
X109765339Y-120258000D01*
X108928661Y-120258000D01*
X108883323Y-120253535D01*
X108845636Y-120242102D01*
X108810897Y-120223534D01*
X108780452Y-120198548D01*
X108755466Y-120168103D01*
X108736898Y-120133364D01*
X108725465Y-120095677D01*
X108721000Y-120050339D01*
X108721000Y-118963661D01*
X108725465Y-118918323D01*
X108736898Y-118880636D01*
X108755466Y-118845897D01*
X108780452Y-118815452D01*
X108810897Y-118790466D01*
X108845636Y-118771898D01*
X108883323Y-118760465D01*
X108928661Y-118756000D01*
X109765339Y-118756000D01*
X109810677Y-118760465D01*
X109810677Y-118760465D01*
G37*
G36*
X107760677Y-118760465D02*
X107798364Y-118771898D01*
X107833103Y-118790466D01*
X107863548Y-118815452D01*
X107888534Y-118845897D01*
X107907102Y-118880636D01*
X107918535Y-118918323D01*
X107923000Y-118963661D01*
X107923000Y-120050339D01*
X107918535Y-120095677D01*
X107907102Y-120133364D01*
X107888534Y-120168103D01*
X107863548Y-120198548D01*
X107833103Y-120223534D01*
X107798364Y-120242102D01*
X107760677Y-120253535D01*
X107715339Y-120258000D01*
X106878661Y-120258000D01*
X106833323Y-120253535D01*
X106795636Y-120242102D01*
X106760897Y-120223534D01*
X106730452Y-120198548D01*
X106705466Y-120168103D01*
X106686898Y-120133364D01*
X106675465Y-120095677D01*
X106671000Y-120050339D01*
X106671000Y-118963661D01*
X106675465Y-118918323D01*
X106686898Y-118880636D01*
X106705466Y-118845897D01*
X106730452Y-118815452D01*
X106760897Y-118790466D01*
X106795636Y-118771898D01*
X106833323Y-118760465D01*
X106878661Y-118756000D01*
X107715339Y-118756000D01*
X107760677Y-118760465D01*
X107760677Y-118760465D01*
G37*
G36*
X192272256Y-113453298D02*
X192378579Y-113474447D01*
X192679042Y-113598903D01*
X192703691Y-113615373D01*
X192949454Y-113779587D01*
X193179413Y-114009546D01*
X193179415Y-114009549D01*
X193360097Y-114279958D01*
X193469790Y-114544779D01*
X193484553Y-114580422D01*
X193548000Y-114899389D01*
X193548000Y-115224611D01*
X193484553Y-115543578D01*
X193360098Y-115844040D01*
X193179413Y-116114454D01*
X192949454Y-116344413D01*
X192949451Y-116344415D01*
X192679042Y-116525097D01*
X192378579Y-116649553D01*
X192272256Y-116670702D01*
X192059611Y-116713000D01*
X191734389Y-116713000D01*
X191521744Y-116670702D01*
X191415421Y-116649553D01*
X191114958Y-116525097D01*
X190844549Y-116344415D01*
X190844546Y-116344413D01*
X190614587Y-116114454D01*
X190433902Y-115844040D01*
X190309447Y-115543578D01*
X190246000Y-115224611D01*
X190246000Y-114899389D01*
X190309447Y-114580422D01*
X190324211Y-114544779D01*
X190433903Y-114279958D01*
X190614585Y-114009549D01*
X190614587Y-114009546D01*
X190844546Y-113779587D01*
X191090309Y-113615373D01*
X191114958Y-113598903D01*
X191415421Y-113474447D01*
X191521744Y-113453298D01*
X191734389Y-113411000D01*
X192059611Y-113411000D01*
X192272256Y-113453298D01*
X192272256Y-113453298D01*
G37*
G36*
X100197256Y-113453298D02*
X100303579Y-113474447D01*
X100604042Y-113598903D01*
X100628691Y-113615373D01*
X100874454Y-113779587D01*
X101104413Y-114009546D01*
X101104415Y-114009549D01*
X101285097Y-114279958D01*
X101394790Y-114544779D01*
X101409553Y-114580422D01*
X101473000Y-114899389D01*
X101473000Y-115224611D01*
X101409553Y-115543578D01*
X101285098Y-115844040D01*
X101104413Y-116114454D01*
X100874454Y-116344413D01*
X100874451Y-116344415D01*
X100604042Y-116525097D01*
X100303579Y-116649553D01*
X100197256Y-116670702D01*
X99984611Y-116713000D01*
X99659389Y-116713000D01*
X99446744Y-116670702D01*
X99340421Y-116649553D01*
X99039958Y-116525097D01*
X98769549Y-116344415D01*
X98769546Y-116344413D01*
X98539587Y-116114454D01*
X98358902Y-115844040D01*
X98234447Y-115543578D01*
X98171000Y-115224611D01*
X98171000Y-114899389D01*
X98234447Y-114580422D01*
X98249211Y-114544779D01*
X98358903Y-114279958D01*
X98539585Y-114009549D01*
X98539587Y-114009546D01*
X98769546Y-113779587D01*
X99015309Y-113615373D01*
X99039958Y-113598903D01*
X99340421Y-113474447D01*
X99446744Y-113453298D01*
X99659389Y-113411000D01*
X99984611Y-113411000D01*
X100197256Y-113453298D01*
X100197256Y-113453298D01*
G37*
G36*
X109366499Y-113905445D02*
X109403993Y-113916819D01*
X109438557Y-113935294D01*
X109468847Y-113960153D01*
X109493706Y-113990443D01*
X109512181Y-114025007D01*
X109523555Y-114062501D01*
X109528000Y-114107638D01*
X109528000Y-114746362D01*
X109523555Y-114791499D01*
X109512181Y-114828993D01*
X109493706Y-114863557D01*
X109468847Y-114893847D01*
X109438557Y-114918706D01*
X109403993Y-114937181D01*
X109366499Y-114948555D01*
X109321362Y-114953000D01*
X108582638Y-114953000D01*
X108537501Y-114948555D01*
X108500007Y-114937181D01*
X108465443Y-114918706D01*
X108435153Y-114893847D01*
X108410294Y-114863557D01*
X108391819Y-114828993D01*
X108380445Y-114791499D01*
X108376000Y-114746362D01*
X108376000Y-114107638D01*
X108380445Y-114062501D01*
X108391819Y-114025007D01*
X108410294Y-113990443D01*
X108435153Y-113960153D01*
X108465443Y-113935294D01*
X108500007Y-113916819D01*
X108537501Y-113905445D01*
X108582638Y-113901000D01*
X109321362Y-113901000D01*
X109366499Y-113905445D01*
X109366499Y-113905445D01*
G37*
G36*
X107616499Y-113905445D02*
X107653993Y-113916819D01*
X107688557Y-113935294D01*
X107718847Y-113960153D01*
X107743706Y-113990443D01*
X107762181Y-114025007D01*
X107773555Y-114062501D01*
X107778000Y-114107638D01*
X107778000Y-114746362D01*
X107773555Y-114791499D01*
X107762181Y-114828993D01*
X107743706Y-114863557D01*
X107718847Y-114893847D01*
X107688557Y-114918706D01*
X107653993Y-114937181D01*
X107616499Y-114948555D01*
X107571362Y-114953000D01*
X106832638Y-114953000D01*
X106787501Y-114948555D01*
X106750007Y-114937181D01*
X106715443Y-114918706D01*
X106685153Y-114893847D01*
X106660294Y-114863557D01*
X106641819Y-114828993D01*
X106630445Y-114791499D01*
X106626000Y-114746362D01*
X106626000Y-114107638D01*
X106630445Y-114062501D01*
X106641819Y-114025007D01*
X106660294Y-113990443D01*
X106685153Y-113960153D01*
X106715443Y-113935294D01*
X106750007Y-113916819D01*
X106787501Y-113905445D01*
X106832638Y-113901000D01*
X107571362Y-113901000D01*
X107616499Y-113905445D01*
X107616499Y-113905445D01*
G37*
G36*
X143747442Y-112897518D02*
X143813627Y-112904037D01*
X143926853Y-112938384D01*
X143983467Y-112955557D01*
X144068160Y-113000827D01*
X144139991Y-113039222D01*
X144171814Y-113065339D01*
X144277186Y-113151814D01*
X144338996Y-113227131D01*
X144389778Y-113289009D01*
X144389779Y-113289011D01*
X144473443Y-113445533D01*
X144473443Y-113445534D01*
X144524963Y-113615373D01*
X144542359Y-113792000D01*
X144524963Y-113968627D01*
X144507860Y-114025007D01*
X144473443Y-114138467D01*
X144459795Y-114164000D01*
X144389778Y-114294991D01*
X144360448Y-114330729D01*
X144277186Y-114432186D01*
X144175729Y-114515448D01*
X144139991Y-114544778D01*
X144139989Y-114544779D01*
X143983467Y-114628443D01*
X143926853Y-114645616D01*
X143813627Y-114679963D01*
X143747443Y-114686481D01*
X143681260Y-114693000D01*
X143592740Y-114693000D01*
X143526557Y-114686481D01*
X143460373Y-114679963D01*
X143347147Y-114645616D01*
X143290533Y-114628443D01*
X143134011Y-114544779D01*
X143134009Y-114544778D01*
X143098271Y-114515448D01*
X142996814Y-114432186D01*
X142913552Y-114330729D01*
X142884222Y-114294991D01*
X142814205Y-114164000D01*
X142800557Y-114138467D01*
X142766140Y-114025007D01*
X142749037Y-113968627D01*
X142731641Y-113792000D01*
X142749037Y-113615373D01*
X142800557Y-113445534D01*
X142800557Y-113445533D01*
X142884221Y-113289011D01*
X142884222Y-113289009D01*
X142935004Y-113227131D01*
X142996814Y-113151814D01*
X143102186Y-113065339D01*
X143134009Y-113039222D01*
X143205840Y-113000827D01*
X143290533Y-112955557D01*
X143347147Y-112938384D01*
X143460373Y-112904037D01*
X143526558Y-112897518D01*
X143592740Y-112891000D01*
X143681260Y-112891000D01*
X143747442Y-112897518D01*
X143747442Y-112897518D01*
G37*
G36*
X151367442Y-112897518D02*
X151433627Y-112904037D01*
X151546853Y-112938384D01*
X151603467Y-112955557D01*
X151688160Y-113000827D01*
X151759991Y-113039222D01*
X151791814Y-113065339D01*
X151897186Y-113151814D01*
X151958996Y-113227131D01*
X152009778Y-113289009D01*
X152009779Y-113289011D01*
X152093443Y-113445533D01*
X152093443Y-113445534D01*
X152144963Y-113615373D01*
X152162359Y-113792000D01*
X152144963Y-113968627D01*
X152127860Y-114025007D01*
X152093443Y-114138467D01*
X152079795Y-114164000D01*
X152009778Y-114294991D01*
X151980448Y-114330729D01*
X151897186Y-114432186D01*
X151795729Y-114515448D01*
X151759991Y-114544778D01*
X151759989Y-114544779D01*
X151603467Y-114628443D01*
X151546853Y-114645616D01*
X151433627Y-114679963D01*
X151367443Y-114686481D01*
X151301260Y-114693000D01*
X151212740Y-114693000D01*
X151146557Y-114686481D01*
X151080373Y-114679963D01*
X150967147Y-114645616D01*
X150910533Y-114628443D01*
X150754011Y-114544779D01*
X150754009Y-114544778D01*
X150718271Y-114515448D01*
X150616814Y-114432186D01*
X150533552Y-114330729D01*
X150504222Y-114294991D01*
X150434205Y-114164000D01*
X150420557Y-114138467D01*
X150386140Y-114025007D01*
X150369037Y-113968627D01*
X150351641Y-113792000D01*
X150369037Y-113615373D01*
X150420557Y-113445534D01*
X150420557Y-113445533D01*
X150504221Y-113289011D01*
X150504222Y-113289009D01*
X150555004Y-113227131D01*
X150616814Y-113151814D01*
X150722186Y-113065339D01*
X150754009Y-113039222D01*
X150825840Y-113000827D01*
X150910533Y-112955557D01*
X150967147Y-112938384D01*
X151080373Y-112904037D01*
X151146558Y-112897518D01*
X151212740Y-112891000D01*
X151301260Y-112891000D01*
X151367442Y-112897518D01*
X151367442Y-112897518D01*
G37*
G36*
X148827442Y-112897518D02*
X148893627Y-112904037D01*
X149006853Y-112938384D01*
X149063467Y-112955557D01*
X149148160Y-113000827D01*
X149219991Y-113039222D01*
X149251814Y-113065339D01*
X149357186Y-113151814D01*
X149418996Y-113227131D01*
X149469778Y-113289009D01*
X149469779Y-113289011D01*
X149553443Y-113445533D01*
X149553443Y-113445534D01*
X149604963Y-113615373D01*
X149622359Y-113792000D01*
X149604963Y-113968627D01*
X149587860Y-114025007D01*
X149553443Y-114138467D01*
X149539795Y-114164000D01*
X149469778Y-114294991D01*
X149440448Y-114330729D01*
X149357186Y-114432186D01*
X149255729Y-114515448D01*
X149219991Y-114544778D01*
X149219989Y-114544779D01*
X149063467Y-114628443D01*
X149006853Y-114645616D01*
X148893627Y-114679963D01*
X148827443Y-114686481D01*
X148761260Y-114693000D01*
X148672740Y-114693000D01*
X148606557Y-114686481D01*
X148540373Y-114679963D01*
X148427147Y-114645616D01*
X148370533Y-114628443D01*
X148214011Y-114544779D01*
X148214009Y-114544778D01*
X148178271Y-114515448D01*
X148076814Y-114432186D01*
X147993552Y-114330729D01*
X147964222Y-114294991D01*
X147894205Y-114164000D01*
X147880557Y-114138467D01*
X147846140Y-114025007D01*
X147829037Y-113968627D01*
X147811641Y-113792000D01*
X147829037Y-113615373D01*
X147880557Y-113445534D01*
X147880557Y-113445533D01*
X147964221Y-113289011D01*
X147964222Y-113289009D01*
X148015004Y-113227131D01*
X148076814Y-113151814D01*
X148182186Y-113065339D01*
X148214009Y-113039222D01*
X148285840Y-113000827D01*
X148370533Y-112955557D01*
X148427147Y-112938384D01*
X148540373Y-112904037D01*
X148606558Y-112897518D01*
X148672740Y-112891000D01*
X148761260Y-112891000D01*
X148827442Y-112897518D01*
X148827442Y-112897518D01*
G37*
G36*
X146287442Y-112897518D02*
X146353627Y-112904037D01*
X146466853Y-112938384D01*
X146523467Y-112955557D01*
X146608160Y-113000827D01*
X146679991Y-113039222D01*
X146711814Y-113065339D01*
X146817186Y-113151814D01*
X146878996Y-113227131D01*
X146929778Y-113289009D01*
X146929779Y-113289011D01*
X147013443Y-113445533D01*
X147013443Y-113445534D01*
X147064963Y-113615373D01*
X147082359Y-113792000D01*
X147064963Y-113968627D01*
X147047860Y-114025007D01*
X147013443Y-114138467D01*
X146999795Y-114164000D01*
X146929778Y-114294991D01*
X146900448Y-114330729D01*
X146817186Y-114432186D01*
X146715729Y-114515448D01*
X146679991Y-114544778D01*
X146679989Y-114544779D01*
X146523467Y-114628443D01*
X146466853Y-114645616D01*
X146353627Y-114679963D01*
X146287443Y-114686481D01*
X146221260Y-114693000D01*
X146132740Y-114693000D01*
X146066557Y-114686481D01*
X146000373Y-114679963D01*
X145887147Y-114645616D01*
X145830533Y-114628443D01*
X145674011Y-114544779D01*
X145674009Y-114544778D01*
X145638271Y-114515448D01*
X145536814Y-114432186D01*
X145453552Y-114330729D01*
X145424222Y-114294991D01*
X145354205Y-114164000D01*
X145340557Y-114138467D01*
X145306140Y-114025007D01*
X145289037Y-113968627D01*
X145271641Y-113792000D01*
X145289037Y-113615373D01*
X145340557Y-113445534D01*
X145340557Y-113445533D01*
X145424221Y-113289011D01*
X145424222Y-113289009D01*
X145475004Y-113227131D01*
X145536814Y-113151814D01*
X145642186Y-113065339D01*
X145674009Y-113039222D01*
X145745840Y-113000827D01*
X145830533Y-112955557D01*
X145887147Y-112938384D01*
X146000373Y-112904037D01*
X146066558Y-112897518D01*
X146132740Y-112891000D01*
X146221260Y-112891000D01*
X146287442Y-112897518D01*
X146287442Y-112897518D01*
G37*
G36*
X141998000Y-114693000D02*
X140196000Y-114693000D01*
X140196000Y-112891000D01*
X141998000Y-112891000D01*
X141998000Y-114693000D01*
X141998000Y-114693000D01*
G37*
G36*
X120624600Y-114274600D02*
X118897400Y-114274600D01*
X118897400Y-113309400D01*
X120624600Y-113309400D01*
X120624600Y-114274600D01*
X120624600Y-114274600D01*
G37*
G36*
X115036600Y-114274600D02*
X113309400Y-114274600D01*
X113309400Y-113309400D01*
X115036600Y-113309400D01*
X115036600Y-114274600D01*
X115036600Y-114274600D01*
G37*
G36*
X174862443Y-112262519D02*
X174928627Y-112269037D01*
X175041853Y-112303384D01*
X175098467Y-112320557D01*
X175237087Y-112394652D01*
X175254991Y-112404222D01*
X175290729Y-112433552D01*
X175392186Y-112516814D01*
X175475448Y-112618271D01*
X175504778Y-112654009D01*
X175504779Y-112654011D01*
X175588443Y-112810533D01*
X175588443Y-112810534D01*
X175639963Y-112980373D01*
X175657359Y-113157000D01*
X175639963Y-113333627D01*
X175632435Y-113358443D01*
X175588443Y-113503467D01*
X175528627Y-113615373D01*
X175504778Y-113659991D01*
X175475448Y-113695729D01*
X175392186Y-113797186D01*
X175290729Y-113880448D01*
X175254991Y-113909778D01*
X175254989Y-113909779D01*
X175098467Y-113993443D01*
X175045381Y-114009546D01*
X174928627Y-114044963D01*
X174862442Y-114051482D01*
X174796260Y-114058000D01*
X174707740Y-114058000D01*
X174641558Y-114051482D01*
X174575373Y-114044963D01*
X174458619Y-114009546D01*
X174405533Y-113993443D01*
X174249011Y-113909779D01*
X174249009Y-113909778D01*
X174213271Y-113880448D01*
X174111814Y-113797186D01*
X174028552Y-113695729D01*
X173999222Y-113659991D01*
X173975373Y-113615373D01*
X173915557Y-113503467D01*
X173871565Y-113358443D01*
X173864037Y-113333627D01*
X173846641Y-113157000D01*
X173864037Y-112980373D01*
X173915557Y-112810534D01*
X173915557Y-112810533D01*
X173999221Y-112654011D01*
X173999222Y-112654009D01*
X174028552Y-112618271D01*
X174111814Y-112516814D01*
X174213271Y-112433552D01*
X174249009Y-112404222D01*
X174266913Y-112394652D01*
X174405533Y-112320557D01*
X174462147Y-112303384D01*
X174575373Y-112269037D01*
X174641557Y-112262519D01*
X174707740Y-112256000D01*
X174796260Y-112256000D01*
X174862443Y-112262519D01*
X174862443Y-112262519D01*
G37*
G36*
X177402443Y-112262519D02*
X177468627Y-112269037D01*
X177581853Y-112303384D01*
X177638467Y-112320557D01*
X177777087Y-112394652D01*
X177794991Y-112404222D01*
X177830729Y-112433552D01*
X177932186Y-112516814D01*
X178015448Y-112618271D01*
X178044778Y-112654009D01*
X178044779Y-112654011D01*
X178128443Y-112810533D01*
X178128443Y-112810534D01*
X178179963Y-112980373D01*
X178197359Y-113157000D01*
X178179963Y-113333627D01*
X178172435Y-113358443D01*
X178128443Y-113503467D01*
X178068627Y-113615373D01*
X178044778Y-113659991D01*
X178015448Y-113695729D01*
X177932186Y-113797186D01*
X177830729Y-113880448D01*
X177794991Y-113909778D01*
X177794989Y-113909779D01*
X177638467Y-113993443D01*
X177585381Y-114009546D01*
X177468627Y-114044963D01*
X177402442Y-114051482D01*
X177336260Y-114058000D01*
X177247740Y-114058000D01*
X177181558Y-114051482D01*
X177115373Y-114044963D01*
X176998619Y-114009546D01*
X176945533Y-113993443D01*
X176789011Y-113909779D01*
X176789009Y-113909778D01*
X176753271Y-113880448D01*
X176651814Y-113797186D01*
X176568552Y-113695729D01*
X176539222Y-113659991D01*
X176515373Y-113615373D01*
X176455557Y-113503467D01*
X176411565Y-113358443D01*
X176404037Y-113333627D01*
X176386641Y-113157000D01*
X176404037Y-112980373D01*
X176455557Y-112810534D01*
X176455557Y-112810533D01*
X176539221Y-112654011D01*
X176539222Y-112654009D01*
X176568552Y-112618271D01*
X176651814Y-112516814D01*
X176753271Y-112433552D01*
X176789009Y-112404222D01*
X176806913Y-112394652D01*
X176945533Y-112320557D01*
X177002147Y-112303384D01*
X177115373Y-112269037D01*
X177181557Y-112262519D01*
X177247740Y-112256000D01*
X177336260Y-112256000D01*
X177402443Y-112262519D01*
X177402443Y-112262519D01*
G37*
G36*
X133108000Y-113423000D02*
X131306000Y-113423000D01*
X131306000Y-111621000D01*
X133108000Y-111621000D01*
X133108000Y-113423000D01*
X133108000Y-113423000D01*
G37*
G36*
X129777442Y-111627518D02*
X129843627Y-111634037D01*
X129956853Y-111668384D01*
X130013467Y-111685557D01*
X130152087Y-111759652D01*
X130169991Y-111769222D01*
X130178530Y-111776230D01*
X130307186Y-111881814D01*
X130386665Y-111978661D01*
X130419778Y-112019009D01*
X130419779Y-112019011D01*
X130503443Y-112175533D01*
X130503443Y-112175534D01*
X130554963Y-112345373D01*
X130572359Y-112522000D01*
X130554963Y-112698627D01*
X130521017Y-112810533D01*
X130503443Y-112868467D01*
X130484430Y-112904037D01*
X130419778Y-113024991D01*
X130396032Y-113053925D01*
X130307186Y-113162186D01*
X130228049Y-113227131D01*
X130169991Y-113274778D01*
X130169989Y-113274779D01*
X130013467Y-113358443D01*
X129956853Y-113375616D01*
X129843627Y-113409963D01*
X129777442Y-113416482D01*
X129711260Y-113423000D01*
X129622740Y-113423000D01*
X129556558Y-113416482D01*
X129490373Y-113409963D01*
X129377147Y-113375616D01*
X129320533Y-113358443D01*
X129164011Y-113274779D01*
X129164009Y-113274778D01*
X129105951Y-113227131D01*
X129026814Y-113162186D01*
X128937968Y-113053925D01*
X128914222Y-113024991D01*
X128849570Y-112904037D01*
X128830557Y-112868467D01*
X128812983Y-112810533D01*
X128779037Y-112698627D01*
X128761641Y-112522000D01*
X128779037Y-112345373D01*
X128830557Y-112175534D01*
X128830557Y-112175533D01*
X128914221Y-112019011D01*
X128914222Y-112019009D01*
X128947335Y-111978661D01*
X129026814Y-111881814D01*
X129155470Y-111776230D01*
X129164009Y-111769222D01*
X129181913Y-111759652D01*
X129320533Y-111685557D01*
X129377147Y-111668384D01*
X129490373Y-111634037D01*
X129556558Y-111627518D01*
X129622740Y-111621000D01*
X129711260Y-111621000D01*
X129777442Y-111627518D01*
X129777442Y-111627518D01*
G37*
G36*
X158315677Y-111775465D02*
X158353364Y-111786898D01*
X158388103Y-111805466D01*
X158418548Y-111830452D01*
X158443534Y-111860897D01*
X158462102Y-111895636D01*
X158473535Y-111933323D01*
X158478000Y-111978661D01*
X158478000Y-113065339D01*
X158473535Y-113110677D01*
X158462102Y-113148364D01*
X158443534Y-113183103D01*
X158418548Y-113213548D01*
X158388103Y-113238534D01*
X158353364Y-113257102D01*
X158315677Y-113268535D01*
X158270339Y-113273000D01*
X157433661Y-113273000D01*
X157388323Y-113268535D01*
X157350636Y-113257102D01*
X157315897Y-113238534D01*
X157285452Y-113213548D01*
X157260466Y-113183103D01*
X157241898Y-113148364D01*
X157230465Y-113110677D01*
X157226000Y-113065339D01*
X157226000Y-111978661D01*
X157230465Y-111933323D01*
X157241898Y-111895636D01*
X157260466Y-111860897D01*
X157285452Y-111830452D01*
X157315897Y-111805466D01*
X157350636Y-111786898D01*
X157388323Y-111775465D01*
X157433661Y-111771000D01*
X158270339Y-111771000D01*
X158315677Y-111775465D01*
X158315677Y-111775465D01*
G37*
G36*
X164665677Y-111775465D02*
X164703364Y-111786898D01*
X164738103Y-111805466D01*
X164768548Y-111830452D01*
X164793534Y-111860897D01*
X164812102Y-111895636D01*
X164823535Y-111933323D01*
X164828000Y-111978661D01*
X164828000Y-113065339D01*
X164823535Y-113110677D01*
X164812102Y-113148364D01*
X164793534Y-113183103D01*
X164768548Y-113213548D01*
X164738103Y-113238534D01*
X164703364Y-113257102D01*
X164665677Y-113268535D01*
X164620339Y-113273000D01*
X163783661Y-113273000D01*
X163738323Y-113268535D01*
X163700636Y-113257102D01*
X163665897Y-113238534D01*
X163635452Y-113213548D01*
X163610466Y-113183103D01*
X163591898Y-113148364D01*
X163580465Y-113110677D01*
X163576000Y-113065339D01*
X163576000Y-111978661D01*
X163580465Y-111933323D01*
X163591898Y-111895636D01*
X163610466Y-111860897D01*
X163635452Y-111830452D01*
X163665897Y-111805466D01*
X163700636Y-111786898D01*
X163738323Y-111775465D01*
X163783661Y-111771000D01*
X164620339Y-111771000D01*
X164665677Y-111775465D01*
X164665677Y-111775465D01*
G37*
G36*
X166715677Y-111775465D02*
X166753364Y-111786898D01*
X166788103Y-111805466D01*
X166818548Y-111830452D01*
X166843534Y-111860897D01*
X166862102Y-111895636D01*
X166873535Y-111933323D01*
X166878000Y-111978661D01*
X166878000Y-113065339D01*
X166873535Y-113110677D01*
X166862102Y-113148364D01*
X166843534Y-113183103D01*
X166818548Y-113213548D01*
X166788103Y-113238534D01*
X166753364Y-113257102D01*
X166715677Y-113268535D01*
X166670339Y-113273000D01*
X165833661Y-113273000D01*
X165788323Y-113268535D01*
X165750636Y-113257102D01*
X165715897Y-113238534D01*
X165685452Y-113213548D01*
X165660466Y-113183103D01*
X165641898Y-113148364D01*
X165630465Y-113110677D01*
X165626000Y-113065339D01*
X165626000Y-111978661D01*
X165630465Y-111933323D01*
X165641898Y-111895636D01*
X165660466Y-111860897D01*
X165685452Y-111830452D01*
X165715897Y-111805466D01*
X165750636Y-111786898D01*
X165788323Y-111775465D01*
X165833661Y-111771000D01*
X166670339Y-111771000D01*
X166715677Y-111775465D01*
X166715677Y-111775465D01*
G37*
G36*
X160365677Y-111775465D02*
X160403364Y-111786898D01*
X160438103Y-111805466D01*
X160468548Y-111830452D01*
X160493534Y-111860897D01*
X160512102Y-111895636D01*
X160523535Y-111933323D01*
X160528000Y-111978661D01*
X160528000Y-113065339D01*
X160523535Y-113110677D01*
X160512102Y-113148364D01*
X160493534Y-113183103D01*
X160468548Y-113213548D01*
X160438103Y-113238534D01*
X160403364Y-113257102D01*
X160365677Y-113268535D01*
X160320339Y-113273000D01*
X159483661Y-113273000D01*
X159438323Y-113268535D01*
X159400636Y-113257102D01*
X159365897Y-113238534D01*
X159335452Y-113213548D01*
X159310466Y-113183103D01*
X159291898Y-113148364D01*
X159280465Y-113110677D01*
X159276000Y-113065339D01*
X159276000Y-111978661D01*
X159280465Y-111933323D01*
X159291898Y-111895636D01*
X159310466Y-111860897D01*
X159335452Y-111830452D01*
X159365897Y-111805466D01*
X159400636Y-111786898D01*
X159438323Y-111775465D01*
X159483661Y-111771000D01*
X160320339Y-111771000D01*
X160365677Y-111775465D01*
X160365677Y-111775465D01*
G37*
G36*
X177402442Y-109722518D02*
X177468627Y-109729037D01*
X177581853Y-109763384D01*
X177638467Y-109780557D01*
X177777087Y-109854652D01*
X177794991Y-109864222D01*
X177830729Y-109893552D01*
X177932186Y-109976814D01*
X178015448Y-110078271D01*
X178044778Y-110114009D01*
X178044779Y-110114011D01*
X178128443Y-110270533D01*
X178128443Y-110270534D01*
X178179963Y-110440373D01*
X178197359Y-110617000D01*
X178179963Y-110793627D01*
X178169070Y-110829535D01*
X178128443Y-110963467D01*
X178054348Y-111102087D01*
X178044778Y-111119991D01*
X178015448Y-111155729D01*
X177932186Y-111257186D01*
X177830729Y-111340448D01*
X177794991Y-111369778D01*
X177794989Y-111369779D01*
X177638467Y-111453443D01*
X177581853Y-111470616D01*
X177468627Y-111504963D01*
X177402442Y-111511482D01*
X177336260Y-111518000D01*
X177247740Y-111518000D01*
X177181558Y-111511482D01*
X177115373Y-111504963D01*
X177002147Y-111470616D01*
X176945533Y-111453443D01*
X176789011Y-111369779D01*
X176789009Y-111369778D01*
X176753271Y-111340448D01*
X176651814Y-111257186D01*
X176568552Y-111155729D01*
X176539222Y-111119991D01*
X176529652Y-111102087D01*
X176455557Y-110963467D01*
X176414930Y-110829535D01*
X176404037Y-110793627D01*
X176386641Y-110617000D01*
X176404037Y-110440373D01*
X176455557Y-110270534D01*
X176455557Y-110270533D01*
X176539221Y-110114011D01*
X176539222Y-110114009D01*
X176568552Y-110078271D01*
X176651814Y-109976814D01*
X176753271Y-109893552D01*
X176789009Y-109864222D01*
X176806913Y-109854652D01*
X176945533Y-109780557D01*
X177002147Y-109763384D01*
X177115373Y-109729037D01*
X177181558Y-109722518D01*
X177247740Y-109716000D01*
X177336260Y-109716000D01*
X177402442Y-109722518D01*
X177402442Y-109722518D01*
G37*
G36*
X175653000Y-111518000D02*
X173851000Y-111518000D01*
X173851000Y-109716000D01*
X175653000Y-109716000D01*
X175653000Y-111518000D01*
X175653000Y-111518000D01*
G37*
G36*
X107837562Y-109060181D02*
X107872477Y-109070773D01*
X107904665Y-109087978D01*
X107932873Y-109111127D01*
X107956022Y-109139335D01*
X107973227Y-109171523D01*
X107983819Y-109206438D01*
X107988000Y-109248895D01*
X107988000Y-110715105D01*
X107983819Y-110757562D01*
X107973227Y-110792477D01*
X107956022Y-110824665D01*
X107932873Y-110852873D01*
X107904665Y-110876022D01*
X107872477Y-110893227D01*
X107837562Y-110903819D01*
X107795105Y-110908000D01*
X106653895Y-110908000D01*
X106611438Y-110903819D01*
X106576523Y-110893227D01*
X106544335Y-110876022D01*
X106516127Y-110852873D01*
X106492978Y-110824665D01*
X106475773Y-110792477D01*
X106465181Y-110757562D01*
X106461000Y-110715105D01*
X106461000Y-109248895D01*
X106465181Y-109206438D01*
X106475773Y-109171523D01*
X106492978Y-109139335D01*
X106516127Y-109111127D01*
X106544335Y-109087978D01*
X106576523Y-109070773D01*
X106611438Y-109060181D01*
X106653895Y-109056000D01*
X107795105Y-109056000D01*
X107837562Y-109060181D01*
X107837562Y-109060181D01*
G37*
G36*
X110812562Y-109060181D02*
X110847477Y-109070773D01*
X110879665Y-109087978D01*
X110907873Y-109111127D01*
X110931022Y-109139335D01*
X110948227Y-109171523D01*
X110958819Y-109206438D01*
X110963000Y-109248895D01*
X110963000Y-110715105D01*
X110958819Y-110757562D01*
X110948227Y-110792477D01*
X110931022Y-110824665D01*
X110907873Y-110852873D01*
X110879665Y-110876022D01*
X110847477Y-110893227D01*
X110812562Y-110903819D01*
X110770105Y-110908000D01*
X109628895Y-110908000D01*
X109586438Y-110903819D01*
X109551523Y-110893227D01*
X109519335Y-110876022D01*
X109491127Y-110852873D01*
X109467978Y-110824665D01*
X109450773Y-110792477D01*
X109440181Y-110757562D01*
X109436000Y-110715105D01*
X109436000Y-109248895D01*
X109440181Y-109206438D01*
X109450773Y-109171523D01*
X109467978Y-109139335D01*
X109491127Y-109111127D01*
X109519335Y-109087978D01*
X109551523Y-109070773D01*
X109586438Y-109060181D01*
X109628895Y-109056000D01*
X110770105Y-109056000D01*
X110812562Y-109060181D01*
X110812562Y-109060181D01*
G37*
G36*
X132317443Y-109087519D02*
X132383627Y-109094037D01*
X132496853Y-109128384D01*
X132553467Y-109145557D01*
X132692087Y-109219652D01*
X132709991Y-109229222D01*
X132718530Y-109236230D01*
X132847186Y-109341814D01*
X132926665Y-109438661D01*
X132959778Y-109479009D01*
X132959779Y-109479011D01*
X133043443Y-109635533D01*
X133043443Y-109635534D01*
X133094963Y-109805373D01*
X133112359Y-109982000D01*
X133094963Y-110158627D01*
X133061017Y-110270533D01*
X133043443Y-110328467D01*
X132983627Y-110440373D01*
X132959778Y-110484991D01*
X132936032Y-110513925D01*
X132847186Y-110622186D01*
X132754154Y-110698534D01*
X132709991Y-110734778D01*
X132709989Y-110734779D01*
X132553467Y-110818443D01*
X132532955Y-110824665D01*
X132383627Y-110869963D01*
X132322108Y-110876022D01*
X132251260Y-110883000D01*
X132162740Y-110883000D01*
X132091892Y-110876022D01*
X132030373Y-110869963D01*
X131881045Y-110824665D01*
X131860533Y-110818443D01*
X131704011Y-110734779D01*
X131704009Y-110734778D01*
X131659846Y-110698534D01*
X131566814Y-110622186D01*
X131477968Y-110513925D01*
X131454222Y-110484991D01*
X131430373Y-110440373D01*
X131370557Y-110328467D01*
X131352983Y-110270533D01*
X131319037Y-110158627D01*
X131301641Y-109982000D01*
X131319037Y-109805373D01*
X131370557Y-109635534D01*
X131370557Y-109635533D01*
X131454221Y-109479011D01*
X131454222Y-109479009D01*
X131487335Y-109438661D01*
X131566814Y-109341814D01*
X131695470Y-109236230D01*
X131704009Y-109229222D01*
X131721913Y-109219652D01*
X131860533Y-109145557D01*
X131917147Y-109128384D01*
X132030373Y-109094037D01*
X132096557Y-109087519D01*
X132162740Y-109081000D01*
X132251260Y-109081000D01*
X132317443Y-109087519D01*
X132317443Y-109087519D01*
G37*
G36*
X129777443Y-109087519D02*
X129843627Y-109094037D01*
X129956853Y-109128384D01*
X130013467Y-109145557D01*
X130152087Y-109219652D01*
X130169991Y-109229222D01*
X130178530Y-109236230D01*
X130307186Y-109341814D01*
X130386665Y-109438661D01*
X130419778Y-109479009D01*
X130419779Y-109479011D01*
X130503443Y-109635533D01*
X130503443Y-109635534D01*
X130554963Y-109805373D01*
X130572359Y-109982000D01*
X130554963Y-110158627D01*
X130521017Y-110270533D01*
X130503443Y-110328467D01*
X130443627Y-110440373D01*
X130419778Y-110484991D01*
X130396032Y-110513925D01*
X130307186Y-110622186D01*
X130214154Y-110698534D01*
X130169991Y-110734778D01*
X130169989Y-110734779D01*
X130013467Y-110818443D01*
X129992955Y-110824665D01*
X129843627Y-110869963D01*
X129782108Y-110876022D01*
X129711260Y-110883000D01*
X129622740Y-110883000D01*
X129551892Y-110876022D01*
X129490373Y-110869963D01*
X129341045Y-110824665D01*
X129320533Y-110818443D01*
X129164011Y-110734779D01*
X129164009Y-110734778D01*
X129119846Y-110698534D01*
X129026814Y-110622186D01*
X128937968Y-110513925D01*
X128914222Y-110484991D01*
X128890373Y-110440373D01*
X128830557Y-110328467D01*
X128812983Y-110270533D01*
X128779037Y-110158627D01*
X128761641Y-109982000D01*
X128779037Y-109805373D01*
X128830557Y-109635534D01*
X128830557Y-109635533D01*
X128914221Y-109479011D01*
X128914222Y-109479009D01*
X128947335Y-109438661D01*
X129026814Y-109341814D01*
X129155470Y-109236230D01*
X129164009Y-109229222D01*
X129181913Y-109219652D01*
X129320533Y-109145557D01*
X129377147Y-109128384D01*
X129490373Y-109094037D01*
X129556557Y-109087519D01*
X129622740Y-109081000D01*
X129711260Y-109081000D01*
X129777443Y-109087519D01*
X129777443Y-109087519D01*
G37*
G36*
X102580677Y-109235465D02*
X102618364Y-109246898D01*
X102653103Y-109265466D01*
X102683548Y-109290452D01*
X102708534Y-109320897D01*
X102727102Y-109355636D01*
X102738535Y-109393323D01*
X102743000Y-109438661D01*
X102743000Y-110525339D01*
X102738535Y-110570677D01*
X102727102Y-110608364D01*
X102708534Y-110643103D01*
X102683548Y-110673548D01*
X102653103Y-110698534D01*
X102618364Y-110717102D01*
X102580677Y-110728535D01*
X102535339Y-110733000D01*
X101698661Y-110733000D01*
X101653323Y-110728535D01*
X101615636Y-110717102D01*
X101580897Y-110698534D01*
X101550452Y-110673548D01*
X101525466Y-110643103D01*
X101506898Y-110608364D01*
X101495465Y-110570677D01*
X101491000Y-110525339D01*
X101491000Y-109438661D01*
X101495465Y-109393323D01*
X101506898Y-109355636D01*
X101525466Y-109320897D01*
X101550452Y-109290452D01*
X101580897Y-109265466D01*
X101615636Y-109246898D01*
X101653323Y-109235465D01*
X101698661Y-109231000D01*
X102535339Y-109231000D01*
X102580677Y-109235465D01*
X102580677Y-109235465D01*
G37*
G36*
X100530677Y-109235465D02*
X100568364Y-109246898D01*
X100603103Y-109265466D01*
X100633548Y-109290452D01*
X100658534Y-109320897D01*
X100677102Y-109355636D01*
X100688535Y-109393323D01*
X100693000Y-109438661D01*
X100693000Y-110525339D01*
X100688535Y-110570677D01*
X100677102Y-110608364D01*
X100658534Y-110643103D01*
X100633548Y-110673548D01*
X100603103Y-110698534D01*
X100568364Y-110717102D01*
X100530677Y-110728535D01*
X100485339Y-110733000D01*
X99648661Y-110733000D01*
X99603323Y-110728535D01*
X99565636Y-110717102D01*
X99530897Y-110698534D01*
X99500452Y-110673548D01*
X99475466Y-110643103D01*
X99456898Y-110608364D01*
X99445465Y-110570677D01*
X99441000Y-110525339D01*
X99441000Y-109438661D01*
X99445465Y-109393323D01*
X99456898Y-109355636D01*
X99475466Y-109320897D01*
X99500452Y-109290452D01*
X99530897Y-109265466D01*
X99565636Y-109246898D01*
X99603323Y-109235465D01*
X99648661Y-109231000D01*
X100485339Y-109231000D01*
X100530677Y-109235465D01*
X100530677Y-109235465D01*
G37*
G36*
X115036600Y-110464600D02*
X113309400Y-110464600D01*
X113309400Y-109499400D01*
X115036600Y-109499400D01*
X115036600Y-110464600D01*
X115036600Y-110464600D01*
G37*
G36*
X120624600Y-110464600D02*
X118897400Y-110464600D01*
X118897400Y-109499400D01*
X120624600Y-109499400D01*
X120624600Y-110464600D01*
X120624600Y-110464600D01*
G37*
G36*
X129777443Y-106547519D02*
X129843627Y-106554037D01*
X129956853Y-106588384D01*
X130013467Y-106605557D01*
X130152087Y-106679652D01*
X130169991Y-106689222D01*
X130198371Y-106712513D01*
X130307186Y-106801814D01*
X130390448Y-106903271D01*
X130419778Y-106939009D01*
X130419779Y-106939011D01*
X130503443Y-107095533D01*
X130503443Y-107095534D01*
X130554963Y-107265373D01*
X130572359Y-107442000D01*
X130554963Y-107618627D01*
X130520616Y-107731853D01*
X130503443Y-107788467D01*
X130466276Y-107858000D01*
X130419778Y-107944991D01*
X130390448Y-107980729D01*
X130307186Y-108082186D01*
X130205729Y-108165448D01*
X130169991Y-108194778D01*
X130169989Y-108194779D01*
X130013467Y-108278443D01*
X129956853Y-108295616D01*
X129843627Y-108329963D01*
X129777442Y-108336482D01*
X129711260Y-108343000D01*
X129622740Y-108343000D01*
X129556558Y-108336482D01*
X129490373Y-108329963D01*
X129377147Y-108295616D01*
X129320533Y-108278443D01*
X129164011Y-108194779D01*
X129164009Y-108194778D01*
X129128271Y-108165448D01*
X129026814Y-108082186D01*
X128943552Y-107980729D01*
X128914222Y-107944991D01*
X128867724Y-107858000D01*
X128830557Y-107788467D01*
X128813384Y-107731853D01*
X128779037Y-107618627D01*
X128761641Y-107442000D01*
X128779037Y-107265373D01*
X128830557Y-107095534D01*
X128830557Y-107095533D01*
X128914221Y-106939011D01*
X128914222Y-106939009D01*
X128943552Y-106903271D01*
X129026814Y-106801814D01*
X129135629Y-106712513D01*
X129164009Y-106689222D01*
X129181913Y-106679652D01*
X129320533Y-106605557D01*
X129377147Y-106588384D01*
X129490373Y-106554037D01*
X129556557Y-106547519D01*
X129622740Y-106541000D01*
X129711260Y-106541000D01*
X129777443Y-106547519D01*
X129777443Y-106547519D01*
G37*
G36*
X132317443Y-106547519D02*
X132383627Y-106554037D01*
X132496853Y-106588384D01*
X132553467Y-106605557D01*
X132692087Y-106679652D01*
X132709991Y-106689222D01*
X132738371Y-106712513D01*
X132847186Y-106801814D01*
X132930448Y-106903271D01*
X132959778Y-106939009D01*
X132959779Y-106939011D01*
X133043443Y-107095533D01*
X133043443Y-107095534D01*
X133094963Y-107265373D01*
X133112359Y-107442000D01*
X133094963Y-107618627D01*
X133060616Y-107731853D01*
X133043443Y-107788467D01*
X133006276Y-107858000D01*
X132959778Y-107944991D01*
X132930448Y-107980729D01*
X132847186Y-108082186D01*
X132745729Y-108165448D01*
X132709991Y-108194778D01*
X132709989Y-108194779D01*
X132553467Y-108278443D01*
X132496853Y-108295616D01*
X132383627Y-108329963D01*
X132317442Y-108336482D01*
X132251260Y-108343000D01*
X132162740Y-108343000D01*
X132096558Y-108336482D01*
X132030373Y-108329963D01*
X131917147Y-108295616D01*
X131860533Y-108278443D01*
X131704011Y-108194779D01*
X131704009Y-108194778D01*
X131668271Y-108165448D01*
X131566814Y-108082186D01*
X131483552Y-107980729D01*
X131454222Y-107944991D01*
X131407724Y-107858000D01*
X131370557Y-107788467D01*
X131353384Y-107731853D01*
X131319037Y-107618627D01*
X131301641Y-107442000D01*
X131319037Y-107265373D01*
X131370557Y-107095534D01*
X131370557Y-107095533D01*
X131454221Y-106939011D01*
X131454222Y-106939009D01*
X131483552Y-106903271D01*
X131566814Y-106801814D01*
X131675629Y-106712513D01*
X131704009Y-106689222D01*
X131721913Y-106679652D01*
X131860533Y-106605557D01*
X131917147Y-106588384D01*
X132030373Y-106554037D01*
X132096557Y-106547519D01*
X132162740Y-106541000D01*
X132251260Y-106541000D01*
X132317443Y-106547519D01*
X132317443Y-106547519D01*
G37*
G36*
X197739000Y-105508000D02*
X197689000Y-105508000D01*
X197664614Y-105510402D01*
X197641165Y-105517515D01*
X197619554Y-105529066D01*
X197600612Y-105544612D01*
X197585066Y-105563554D01*
X197573515Y-105585165D01*
X197566402Y-105608614D01*
X197564000Y-105633000D01*
X197564000Y-105818500D01*
X197566402Y-105842886D01*
X197573515Y-105866335D01*
X197585066Y-105887946D01*
X197600612Y-105906888D01*
X197619554Y-105922434D01*
X197641165Y-105933985D01*
X197664614Y-105941098D01*
X197689000Y-105943500D01*
X198526226Y-105943500D01*
X198541165Y-105951485D01*
X198564614Y-105958598D01*
X198589000Y-105961000D01*
X199967670Y-105961000D01*
X199976748Y-105963274D01*
X200060321Y-105971505D01*
X200197172Y-106013019D01*
X200197174Y-106013020D01*
X200197177Y-106013021D01*
X200323296Y-106080432D01*
X200433843Y-106171157D01*
X200524568Y-106281704D01*
X200591979Y-106407823D01*
X200591980Y-106407826D01*
X200591981Y-106407828D01*
X200633495Y-106544679D01*
X200647512Y-106687000D01*
X200633495Y-106829321D01*
X200600220Y-106939011D01*
X200591979Y-106966177D01*
X200524568Y-107092296D01*
X200433843Y-107202843D01*
X200323296Y-107293568D01*
X200197177Y-107360979D01*
X200197174Y-107360980D01*
X200197172Y-107360981D01*
X200060321Y-107402495D01*
X199977841Y-107410618D01*
X199976748Y-107410726D01*
X199965314Y-107413000D01*
X198589000Y-107413000D01*
X198564614Y-107415402D01*
X198541165Y-107422515D01*
X198519554Y-107434066D01*
X198500612Y-107449612D01*
X198485066Y-107468554D01*
X198473515Y-107490165D01*
X198466402Y-107513614D01*
X198464000Y-107538000D01*
X198464000Y-107870500D01*
X197590420Y-107870500D01*
X197584835Y-107867515D01*
X197561386Y-107860402D01*
X197537000Y-107858000D01*
X195962000Y-107858000D01*
X195962000Y-106550621D01*
X195959598Y-106526235D01*
X195956617Y-106514335D01*
X195950696Y-106494818D01*
X195939093Y-106377000D01*
X195950696Y-106259182D01*
X195956617Y-106239665D01*
X195961398Y-106215632D01*
X195962000Y-106203379D01*
X195962000Y-105705239D01*
X195965934Y-105700446D01*
X195977485Y-105678835D01*
X195984598Y-105655386D01*
X195987000Y-105631000D01*
X195987000Y-102406000D01*
X197739000Y-102406000D01*
X197739000Y-105508000D01*
X197739000Y-105508000D01*
G37*
G36*
X104584943Y-104909787D02*
X104742108Y-104974887D01*
X104883553Y-105069398D01*
X105003842Y-105189687D01*
X105098353Y-105331132D01*
X105163453Y-105488297D01*
X105196640Y-105655143D01*
X105196640Y-105825257D01*
X105163453Y-105992103D01*
X105098353Y-106149268D01*
X105003842Y-106290713D01*
X104883553Y-106411002D01*
X104742108Y-106505513D01*
X104584943Y-106570613D01*
X104418097Y-106603800D01*
X104247983Y-106603800D01*
X104081137Y-106570613D01*
X103923972Y-106505513D01*
X103782527Y-106411002D01*
X103662238Y-106290713D01*
X103567727Y-106149268D01*
X103502627Y-105992103D01*
X103469440Y-105825257D01*
X103469440Y-105655143D01*
X103502627Y-105488297D01*
X103567727Y-105331132D01*
X103662238Y-105189687D01*
X103782527Y-105069398D01*
X103923972Y-104974887D01*
X104081137Y-104909787D01*
X104247983Y-104876600D01*
X104418097Y-104876600D01*
X104584943Y-104909787D01*
X104584943Y-104909787D01*
G37*
G36*
X102585963Y-104909787D02*
X102743128Y-104974887D01*
X102884573Y-105069398D01*
X103004862Y-105189687D01*
X103099373Y-105331132D01*
X103164473Y-105488297D01*
X103197660Y-105655143D01*
X103197660Y-105825257D01*
X103164473Y-105992103D01*
X103099373Y-106149268D01*
X103004862Y-106290713D01*
X102884573Y-106411002D01*
X102743128Y-106505513D01*
X102585963Y-106570613D01*
X102419117Y-106603800D01*
X102249003Y-106603800D01*
X102082157Y-106570613D01*
X101924992Y-106505513D01*
X101783547Y-106411002D01*
X101663258Y-106290713D01*
X101568747Y-106149268D01*
X101503647Y-105992103D01*
X101470460Y-105825257D01*
X101470460Y-105655143D01*
X101503647Y-105488297D01*
X101568747Y-105331132D01*
X101663258Y-105189687D01*
X101783547Y-105069398D01*
X101924992Y-104974887D01*
X102082157Y-104909787D01*
X102249003Y-104876600D01*
X102419117Y-104876600D01*
X102585963Y-104909787D01*
X102585963Y-104909787D01*
G37*
G36*
X106583923Y-104909787D02*
X106741088Y-104974887D01*
X106882533Y-105069398D01*
X107002822Y-105189687D01*
X107097333Y-105331132D01*
X107162433Y-105488297D01*
X107195620Y-105655143D01*
X107195620Y-105825257D01*
X107162433Y-105992103D01*
X107097333Y-106149268D01*
X107002822Y-106290713D01*
X106882533Y-106411002D01*
X106741088Y-106505513D01*
X106583923Y-106570613D01*
X106417077Y-106603800D01*
X106246963Y-106603800D01*
X106080117Y-106570613D01*
X105922952Y-106505513D01*
X105781507Y-106411002D01*
X105661218Y-106290713D01*
X105566707Y-106149268D01*
X105501607Y-105992103D01*
X105468420Y-105825257D01*
X105468420Y-105655143D01*
X105501607Y-105488297D01*
X105566707Y-105331132D01*
X105661218Y-105189687D01*
X105781507Y-105069398D01*
X105922952Y-104974887D01*
X106080117Y-104909787D01*
X106246963Y-104876600D01*
X106417077Y-104876600D01*
X106583923Y-104909787D01*
X106583923Y-104909787D01*
G37*
G36*
X108585443Y-104909787D02*
X108742608Y-104974887D01*
X108884053Y-105069398D01*
X109004342Y-105189687D01*
X109098853Y-105331132D01*
X109163953Y-105488297D01*
X109197140Y-105655143D01*
X109197140Y-105825257D01*
X109163953Y-105992103D01*
X109098853Y-106149268D01*
X109004342Y-106290713D01*
X108884053Y-106411002D01*
X108742608Y-106505513D01*
X108585443Y-106570613D01*
X108418597Y-106603800D01*
X108248483Y-106603800D01*
X108081637Y-106570613D01*
X107924472Y-106505513D01*
X107783027Y-106411002D01*
X107662738Y-106290713D01*
X107568227Y-106149268D01*
X107503127Y-105992103D01*
X107469940Y-105825257D01*
X107469940Y-105655143D01*
X107503127Y-105488297D01*
X107568227Y-105331132D01*
X107662738Y-105189687D01*
X107783027Y-105069398D01*
X107924472Y-104974887D01*
X108081637Y-104909787D01*
X108248483Y-104876600D01*
X108418597Y-104876600D01*
X108585443Y-104909787D01*
X108585443Y-104909787D01*
G37*
G36*
X110584423Y-104909787D02*
X110741588Y-104974887D01*
X110883033Y-105069398D01*
X111003322Y-105189687D01*
X111097833Y-105331132D01*
X111162933Y-105488297D01*
X111196120Y-105655143D01*
X111196120Y-105825257D01*
X111162933Y-105992103D01*
X111097833Y-106149268D01*
X111003322Y-106290713D01*
X110883033Y-106411002D01*
X110741588Y-106505513D01*
X110584423Y-106570613D01*
X110417577Y-106603800D01*
X110247463Y-106603800D01*
X110080617Y-106570613D01*
X109923452Y-106505513D01*
X109782007Y-106411002D01*
X109661718Y-106290713D01*
X109567207Y-106149268D01*
X109502107Y-105992103D01*
X109468920Y-105825257D01*
X109468920Y-105655143D01*
X109502107Y-105488297D01*
X109567207Y-105331132D01*
X109661718Y-105189687D01*
X109782007Y-105069398D01*
X109923452Y-104974887D01*
X110080617Y-104909787D01*
X110247463Y-104876600D01*
X110417577Y-104876600D01*
X110584423Y-104909787D01*
X110584423Y-104909787D01*
G37*
G36*
X114584923Y-104909787D02*
X114742088Y-104974887D01*
X114883533Y-105069398D01*
X115003822Y-105189687D01*
X115098333Y-105331132D01*
X115163433Y-105488297D01*
X115196620Y-105655143D01*
X115196620Y-105825257D01*
X115163433Y-105992103D01*
X115098333Y-106149268D01*
X115003822Y-106290713D01*
X114883533Y-106411002D01*
X114742088Y-106505513D01*
X114584923Y-106570613D01*
X114418077Y-106603800D01*
X114247963Y-106603800D01*
X114081117Y-106570613D01*
X113923952Y-106505513D01*
X113782507Y-106411002D01*
X113662218Y-106290713D01*
X113567707Y-106149268D01*
X113502607Y-105992103D01*
X113469420Y-105825257D01*
X113469420Y-105655143D01*
X113502607Y-105488297D01*
X113567707Y-105331132D01*
X113662218Y-105189687D01*
X113782507Y-105069398D01*
X113923952Y-104974887D01*
X114081117Y-104909787D01*
X114247963Y-104876600D01*
X114418077Y-104876600D01*
X114584923Y-104909787D01*
X114584923Y-104909787D01*
G37*
G36*
X100584443Y-104909787D02*
X100741608Y-104974887D01*
X100883053Y-105069398D01*
X101003342Y-105189687D01*
X101097853Y-105331132D01*
X101162953Y-105488297D01*
X101196140Y-105655143D01*
X101196140Y-105825257D01*
X101162953Y-105992103D01*
X101097853Y-106149268D01*
X101003342Y-106290713D01*
X100883053Y-106411002D01*
X100741608Y-106505513D01*
X100584443Y-106570613D01*
X100417597Y-106603800D01*
X100247483Y-106603800D01*
X100080637Y-106570613D01*
X99923472Y-106505513D01*
X99782027Y-106411002D01*
X99661738Y-106290713D01*
X99567227Y-106149268D01*
X99502127Y-105992103D01*
X99468940Y-105825257D01*
X99468940Y-105655143D01*
X99502127Y-105488297D01*
X99567227Y-105331132D01*
X99661738Y-105189687D01*
X99782027Y-105069398D01*
X99923472Y-104974887D01*
X100080637Y-104909787D01*
X100247483Y-104876600D01*
X100417597Y-104876600D01*
X100584443Y-104909787D01*
X100584443Y-104909787D01*
G37*
G36*
X98585463Y-104909787D02*
X98742628Y-104974887D01*
X98884073Y-105069398D01*
X99004362Y-105189687D01*
X99098873Y-105331132D01*
X99163973Y-105488297D01*
X99197160Y-105655143D01*
X99197160Y-105825257D01*
X99163973Y-105992103D01*
X99098873Y-106149268D01*
X99004362Y-106290713D01*
X98884073Y-106411002D01*
X98742628Y-106505513D01*
X98585463Y-106570613D01*
X98418617Y-106603800D01*
X98248503Y-106603800D01*
X98081657Y-106570613D01*
X97924492Y-106505513D01*
X97783047Y-106411002D01*
X97662758Y-106290713D01*
X97568247Y-106149268D01*
X97503147Y-105992103D01*
X97469960Y-105825257D01*
X97469960Y-105655143D01*
X97503147Y-105488297D01*
X97568247Y-105331132D01*
X97662758Y-105189687D01*
X97783047Y-105069398D01*
X97924492Y-104974887D01*
X98081657Y-104909787D01*
X98248503Y-104876600D01*
X98418617Y-104876600D01*
X98585463Y-104909787D01*
X98585463Y-104909787D01*
G37*
G36*
X96583943Y-104909787D02*
X96741108Y-104974887D01*
X96882553Y-105069398D01*
X97002842Y-105189687D01*
X97097353Y-105331132D01*
X97162453Y-105488297D01*
X97195640Y-105655143D01*
X97195640Y-105825257D01*
X97162453Y-105992103D01*
X97097353Y-106149268D01*
X97002842Y-106290713D01*
X96882553Y-106411002D01*
X96741108Y-106505513D01*
X96583943Y-106570613D01*
X96417097Y-106603800D01*
X96246983Y-106603800D01*
X96080137Y-106570613D01*
X95922972Y-106505513D01*
X95781527Y-106411002D01*
X95661238Y-106290713D01*
X95566727Y-106149268D01*
X95501627Y-105992103D01*
X95468440Y-105825257D01*
X95468440Y-105655143D01*
X95501627Y-105488297D01*
X95566727Y-105331132D01*
X95661238Y-105189687D01*
X95781527Y-105069398D01*
X95922972Y-104974887D01*
X96080137Y-104909787D01*
X96246983Y-104876600D01*
X96417097Y-104876600D01*
X96583943Y-104909787D01*
X96583943Y-104909787D01*
G37*
G36*
X112585943Y-104909787D02*
X112743108Y-104974887D01*
X112884553Y-105069398D01*
X113004842Y-105189687D01*
X113099353Y-105331132D01*
X113164453Y-105488297D01*
X113197640Y-105655143D01*
X113197640Y-105825257D01*
X113164453Y-105992103D01*
X113099353Y-106149268D01*
X113004842Y-106290713D01*
X112884553Y-106411002D01*
X112743108Y-106505513D01*
X112585943Y-106570613D01*
X112419097Y-106603800D01*
X112248983Y-106603800D01*
X112082137Y-106570613D01*
X111924972Y-106505513D01*
X111783527Y-106411002D01*
X111663238Y-106290713D01*
X111568727Y-106149268D01*
X111503627Y-105992103D01*
X111470440Y-105825257D01*
X111470440Y-105655143D01*
X111503627Y-105488297D01*
X111568727Y-105331132D01*
X111663238Y-105189687D01*
X111783527Y-105069398D01*
X111924972Y-104974887D01*
X112082137Y-104909787D01*
X112248983Y-104876600D01*
X112419097Y-104876600D01*
X112585943Y-104909787D01*
X112585943Y-104909787D01*
G37*
G36*
X129777443Y-104007519D02*
X129843627Y-104014037D01*
X129956853Y-104048384D01*
X130013467Y-104065557D01*
X130152087Y-104139652D01*
X130169991Y-104149222D01*
X130172157Y-104151000D01*
X130307186Y-104261814D01*
X130384481Y-104356000D01*
X130419778Y-104399009D01*
X130419779Y-104399011D01*
X130503443Y-104555533D01*
X130503443Y-104555534D01*
X130554963Y-104725373D01*
X130572359Y-104902000D01*
X130554963Y-105078627D01*
X130521274Y-105189686D01*
X130503443Y-105248467D01*
X130459257Y-105331132D01*
X130419778Y-105404991D01*
X130390448Y-105440729D01*
X130307186Y-105542186D01*
X130226242Y-105608614D01*
X130169991Y-105654778D01*
X130152087Y-105664348D01*
X130013467Y-105738443D01*
X129956853Y-105755616D01*
X129843627Y-105789963D01*
X129777442Y-105796482D01*
X129711260Y-105803000D01*
X129622740Y-105803000D01*
X129556558Y-105796482D01*
X129490373Y-105789963D01*
X129377147Y-105755616D01*
X129320533Y-105738443D01*
X129181913Y-105664348D01*
X129164009Y-105654778D01*
X129107758Y-105608614D01*
X129026814Y-105542186D01*
X128943552Y-105440729D01*
X128914222Y-105404991D01*
X128874743Y-105331132D01*
X128830557Y-105248467D01*
X128812726Y-105189686D01*
X128779037Y-105078627D01*
X128761641Y-104902000D01*
X128779037Y-104725373D01*
X128830557Y-104555534D01*
X128830557Y-104555533D01*
X128914221Y-104399011D01*
X128914222Y-104399009D01*
X128949519Y-104356000D01*
X129026814Y-104261814D01*
X129161843Y-104151000D01*
X129164009Y-104149222D01*
X129181913Y-104139652D01*
X129320533Y-104065557D01*
X129377147Y-104048384D01*
X129490373Y-104014037D01*
X129556558Y-104007518D01*
X129622740Y-104001000D01*
X129711260Y-104001000D01*
X129777443Y-104007519D01*
X129777443Y-104007519D01*
G37*
G36*
X132317443Y-104007519D02*
X132383627Y-104014037D01*
X132496853Y-104048384D01*
X132553467Y-104065557D01*
X132692087Y-104139652D01*
X132709991Y-104149222D01*
X132712157Y-104151000D01*
X132847186Y-104261814D01*
X132924481Y-104356000D01*
X132959778Y-104399009D01*
X132959779Y-104399011D01*
X133043443Y-104555533D01*
X133043443Y-104555534D01*
X133094963Y-104725373D01*
X133112359Y-104902000D01*
X133094963Y-105078627D01*
X133061274Y-105189686D01*
X133043443Y-105248467D01*
X132999257Y-105331132D01*
X132959778Y-105404991D01*
X132930448Y-105440729D01*
X132847186Y-105542186D01*
X132766242Y-105608614D01*
X132709991Y-105654778D01*
X132692087Y-105664348D01*
X132553467Y-105738443D01*
X132496853Y-105755616D01*
X132383627Y-105789963D01*
X132317442Y-105796482D01*
X132251260Y-105803000D01*
X132162740Y-105803000D01*
X132096558Y-105796482D01*
X132030373Y-105789963D01*
X131917147Y-105755616D01*
X131860533Y-105738443D01*
X131721913Y-105664348D01*
X131704009Y-105654778D01*
X131647758Y-105608614D01*
X131566814Y-105542186D01*
X131483552Y-105440729D01*
X131454222Y-105404991D01*
X131414743Y-105331132D01*
X131370557Y-105248467D01*
X131352726Y-105189686D01*
X131319037Y-105078627D01*
X131301641Y-104902000D01*
X131319037Y-104725373D01*
X131370557Y-104555534D01*
X131370557Y-104555533D01*
X131454221Y-104399011D01*
X131454222Y-104399009D01*
X131489519Y-104356000D01*
X131566814Y-104261814D01*
X131701843Y-104151000D01*
X131704009Y-104149222D01*
X131721913Y-104139652D01*
X131860533Y-104065557D01*
X131917147Y-104048384D01*
X132030373Y-104014037D01*
X132096558Y-104007518D01*
X132162740Y-104001000D01*
X132251260Y-104001000D01*
X132317443Y-104007519D01*
X132317443Y-104007519D01*
G37*
G36*
X201314000Y-105683000D02*
X198712000Y-105683000D01*
X198712000Y-104151000D01*
X201314000Y-104151000D01*
X201314000Y-105683000D01*
X201314000Y-105683000D01*
G37*
G36*
X201314000Y-103763000D02*
X198712000Y-103763000D01*
X198712000Y-102231000D01*
X201314000Y-102231000D01*
X201314000Y-103763000D01*
X201314000Y-103763000D01*
G37*
G36*
X147130677Y-100980465D02*
X147168364Y-100991898D01*
X147203103Y-101010466D01*
X147233548Y-101035452D01*
X147258534Y-101065897D01*
X147277102Y-101100636D01*
X147288535Y-101138323D01*
X147293000Y-101183661D01*
X147293000Y-102270339D01*
X147288535Y-102315677D01*
X147277102Y-102353364D01*
X147258534Y-102388103D01*
X147233548Y-102418548D01*
X147203103Y-102443534D01*
X147168364Y-102462102D01*
X147130677Y-102473535D01*
X147085339Y-102478000D01*
X146248661Y-102478000D01*
X146203323Y-102473535D01*
X146165636Y-102462102D01*
X146130897Y-102443534D01*
X146100452Y-102418548D01*
X146075466Y-102388103D01*
X146056898Y-102353364D01*
X146045465Y-102315677D01*
X146041000Y-102270339D01*
X146041000Y-101183661D01*
X146045465Y-101138323D01*
X146056898Y-101100636D01*
X146075466Y-101065897D01*
X146100452Y-101035452D01*
X146130897Y-101010466D01*
X146165636Y-100991898D01*
X146203323Y-100980465D01*
X146248661Y-100976000D01*
X147085339Y-100976000D01*
X147130677Y-100980465D01*
X147130677Y-100980465D01*
G37*
G36*
X149180677Y-100980465D02*
X149218364Y-100991898D01*
X149253103Y-101010466D01*
X149283548Y-101035452D01*
X149308534Y-101065897D01*
X149327102Y-101100636D01*
X149338535Y-101138323D01*
X149343000Y-101183661D01*
X149343000Y-102270339D01*
X149338535Y-102315677D01*
X149327102Y-102353364D01*
X149308534Y-102388103D01*
X149283548Y-102418548D01*
X149253103Y-102443534D01*
X149218364Y-102462102D01*
X149180677Y-102473535D01*
X149135339Y-102478000D01*
X148298661Y-102478000D01*
X148253323Y-102473535D01*
X148215636Y-102462102D01*
X148180897Y-102443534D01*
X148150452Y-102418548D01*
X148125466Y-102388103D01*
X148106898Y-102353364D01*
X148095465Y-102315677D01*
X148091000Y-102270339D01*
X148091000Y-101183661D01*
X148095465Y-101138323D01*
X148106898Y-101100636D01*
X148125466Y-101065897D01*
X148150452Y-101035452D01*
X148180897Y-101010466D01*
X148215636Y-100991898D01*
X148253323Y-100980465D01*
X148298661Y-100976000D01*
X149135339Y-100976000D01*
X149180677Y-100980465D01*
X149180677Y-100980465D01*
G37*
G36*
X143656499Y-101205445D02*
X143693993Y-101216819D01*
X143728557Y-101235294D01*
X143758847Y-101260153D01*
X143783706Y-101290443D01*
X143802181Y-101325007D01*
X143813555Y-101362501D01*
X143818000Y-101407638D01*
X143818000Y-102046362D01*
X143813555Y-102091499D01*
X143802181Y-102128993D01*
X143783706Y-102163557D01*
X143758847Y-102193847D01*
X143728557Y-102218706D01*
X143693993Y-102237181D01*
X143656499Y-102248555D01*
X143611362Y-102253000D01*
X142872638Y-102253000D01*
X142827501Y-102248555D01*
X142790007Y-102237181D01*
X142755443Y-102218706D01*
X142725153Y-102193847D01*
X142700294Y-102163557D01*
X142681819Y-102128993D01*
X142670445Y-102091499D01*
X142666000Y-102046362D01*
X142666000Y-101407638D01*
X142670445Y-101362501D01*
X142681819Y-101325007D01*
X142700294Y-101290443D01*
X142725153Y-101260153D01*
X142755443Y-101235294D01*
X142790007Y-101216819D01*
X142827501Y-101205445D01*
X142872638Y-101201000D01*
X143611362Y-101201000D01*
X143656499Y-101205445D01*
X143656499Y-101205445D01*
G37*
G36*
X158416499Y-101205445D02*
X158453993Y-101216819D01*
X158488557Y-101235294D01*
X158518847Y-101260153D01*
X158543706Y-101290443D01*
X158562181Y-101325007D01*
X158573555Y-101362501D01*
X158578000Y-101407638D01*
X158578000Y-102046362D01*
X158573555Y-102091499D01*
X158562181Y-102128993D01*
X158543706Y-102163557D01*
X158518847Y-102193847D01*
X158488557Y-102218706D01*
X158453993Y-102237181D01*
X158416499Y-102248555D01*
X158371362Y-102253000D01*
X157632638Y-102253000D01*
X157587501Y-102248555D01*
X157550007Y-102237181D01*
X157515443Y-102218706D01*
X157485153Y-102193847D01*
X157460294Y-102163557D01*
X157441819Y-102128993D01*
X157430445Y-102091499D01*
X157426000Y-102046362D01*
X157426000Y-101407638D01*
X157430445Y-101362501D01*
X157441819Y-101325007D01*
X157460294Y-101290443D01*
X157485153Y-101260153D01*
X157515443Y-101235294D01*
X157550007Y-101216819D01*
X157587501Y-101205445D01*
X157632638Y-101201000D01*
X158371362Y-101201000D01*
X158416499Y-101205445D01*
X158416499Y-101205445D01*
G37*
G36*
X160166499Y-101205445D02*
X160203993Y-101216819D01*
X160238557Y-101235294D01*
X160268847Y-101260153D01*
X160293706Y-101290443D01*
X160312181Y-101325007D01*
X160323555Y-101362501D01*
X160328000Y-101407638D01*
X160328000Y-102046362D01*
X160323555Y-102091499D01*
X160312181Y-102128993D01*
X160293706Y-102163557D01*
X160268847Y-102193847D01*
X160238557Y-102218706D01*
X160203993Y-102237181D01*
X160166499Y-102248555D01*
X160121362Y-102253000D01*
X159382638Y-102253000D01*
X159337501Y-102248555D01*
X159300007Y-102237181D01*
X159265443Y-102218706D01*
X159235153Y-102193847D01*
X159210294Y-102163557D01*
X159191819Y-102128993D01*
X159180445Y-102091499D01*
X159176000Y-102046362D01*
X159176000Y-101407638D01*
X159180445Y-101362501D01*
X159191819Y-101325007D01*
X159210294Y-101290443D01*
X159235153Y-101260153D01*
X159265443Y-101235294D01*
X159300007Y-101216819D01*
X159337501Y-101205445D01*
X159382638Y-101201000D01*
X160121362Y-101201000D01*
X160166499Y-101205445D01*
X160166499Y-101205445D01*
G37*
G36*
X155086499Y-101205445D02*
X155123993Y-101216819D01*
X155158557Y-101235294D01*
X155188847Y-101260153D01*
X155213706Y-101290443D01*
X155232181Y-101325007D01*
X155243555Y-101362501D01*
X155248000Y-101407638D01*
X155248000Y-102046362D01*
X155243555Y-102091499D01*
X155232181Y-102128993D01*
X155213706Y-102163557D01*
X155188847Y-102193847D01*
X155158557Y-102218706D01*
X155123993Y-102237181D01*
X155086499Y-102248555D01*
X155041362Y-102253000D01*
X154302638Y-102253000D01*
X154257501Y-102248555D01*
X154220007Y-102237181D01*
X154185443Y-102218706D01*
X154155153Y-102193847D01*
X154130294Y-102163557D01*
X154111819Y-102128993D01*
X154100445Y-102091499D01*
X154096000Y-102046362D01*
X154096000Y-101407638D01*
X154100445Y-101362501D01*
X154111819Y-101325007D01*
X154130294Y-101290443D01*
X154155153Y-101260153D01*
X154185443Y-101235294D01*
X154220007Y-101216819D01*
X154257501Y-101205445D01*
X154302638Y-101201000D01*
X155041362Y-101201000D01*
X155086499Y-101205445D01*
X155086499Y-101205445D01*
G37*
G36*
X153336499Y-101205445D02*
X153373993Y-101216819D01*
X153408557Y-101235294D01*
X153438847Y-101260153D01*
X153463706Y-101290443D01*
X153482181Y-101325007D01*
X153493555Y-101362501D01*
X153498000Y-101407638D01*
X153498000Y-102046362D01*
X153493555Y-102091499D01*
X153482181Y-102128993D01*
X153463706Y-102163557D01*
X153438847Y-102193847D01*
X153408557Y-102218706D01*
X153373993Y-102237181D01*
X153336499Y-102248555D01*
X153291362Y-102253000D01*
X152552638Y-102253000D01*
X152507501Y-102248555D01*
X152470007Y-102237181D01*
X152435443Y-102218706D01*
X152405153Y-102193847D01*
X152380294Y-102163557D01*
X152361819Y-102128993D01*
X152350445Y-102091499D01*
X152346000Y-102046362D01*
X152346000Y-101407638D01*
X152350445Y-101362501D01*
X152361819Y-101325007D01*
X152380294Y-101290443D01*
X152405153Y-101260153D01*
X152435443Y-101235294D01*
X152470007Y-101216819D01*
X152507501Y-101205445D01*
X152552638Y-101201000D01*
X153291362Y-101201000D01*
X153336499Y-101205445D01*
X153336499Y-101205445D01*
G37*
G36*
X141906499Y-101205445D02*
X141943993Y-101216819D01*
X141978557Y-101235294D01*
X142008847Y-101260153D01*
X142033706Y-101290443D01*
X142052181Y-101325007D01*
X142063555Y-101362501D01*
X142068000Y-101407638D01*
X142068000Y-102046362D01*
X142063555Y-102091499D01*
X142052181Y-102128993D01*
X142033706Y-102163557D01*
X142008847Y-102193847D01*
X141978557Y-102218706D01*
X141943993Y-102237181D01*
X141906499Y-102248555D01*
X141861362Y-102253000D01*
X141122638Y-102253000D01*
X141077501Y-102248555D01*
X141040007Y-102237181D01*
X141005443Y-102218706D01*
X140975153Y-102193847D01*
X140950294Y-102163557D01*
X140931819Y-102128993D01*
X140920445Y-102091499D01*
X140916000Y-102046362D01*
X140916000Y-101407638D01*
X140920445Y-101362501D01*
X140931819Y-101325007D01*
X140950294Y-101290443D01*
X140975153Y-101260153D01*
X141005443Y-101235294D01*
X141040007Y-101216819D01*
X141077501Y-101205445D01*
X141122638Y-101201000D01*
X141861362Y-101201000D01*
X141906499Y-101205445D01*
X141906499Y-101205445D01*
G37*
G36*
X198464000Y-100356000D02*
X198466402Y-100380386D01*
X198473515Y-100403835D01*
X198485066Y-100425446D01*
X198500612Y-100444388D01*
X198519554Y-100459934D01*
X198541165Y-100471485D01*
X198564614Y-100478598D01*
X198589000Y-100481000D01*
X199917349Y-100481000D01*
X199919554Y-100482810D01*
X199941165Y-100494361D01*
X199976748Y-100503274D01*
X200060321Y-100511505D01*
X200197172Y-100553019D01*
X200197174Y-100553020D01*
X200197177Y-100553021D01*
X200323296Y-100620432D01*
X200433843Y-100711157D01*
X200524568Y-100821704D01*
X200591979Y-100947823D01*
X200591980Y-100947826D01*
X200591981Y-100947828D01*
X200633495Y-101084679D01*
X200647512Y-101227000D01*
X200633495Y-101369321D01*
X200593446Y-101501341D01*
X200591979Y-101506177D01*
X200524568Y-101632296D01*
X200433843Y-101742843D01*
X200323296Y-101833568D01*
X200197177Y-101900979D01*
X200197174Y-101900980D01*
X200197172Y-101900981D01*
X200060321Y-101942495D01*
X199974991Y-101950899D01*
X199953660Y-101953000D01*
X199532340Y-101953000D01*
X199425678Y-101942495D01*
X199412124Y-101938383D01*
X199388091Y-101933602D01*
X199375838Y-101933000D01*
X197669000Y-101933000D01*
X197644614Y-101935402D01*
X197621165Y-101942515D01*
X197599554Y-101954066D01*
X197580612Y-101969612D01*
X197565066Y-101988554D01*
X197553515Y-102010165D01*
X197546402Y-102033614D01*
X197544000Y-102058000D01*
X197544000Y-102108000D01*
X197149586Y-102108000D01*
X197125200Y-102110402D01*
X197113300Y-102113383D01*
X197060818Y-102129304D01*
X196972519Y-102138000D01*
X196513481Y-102138000D01*
X196425182Y-102129304D01*
X196372700Y-102113383D01*
X196348667Y-102108602D01*
X196336414Y-102108000D01*
X195942000Y-102108000D01*
X195942000Y-101572659D01*
X195941398Y-101560407D01*
X195939093Y-101537000D01*
X195941398Y-101513593D01*
X195942000Y-101501341D01*
X195942000Y-100006000D01*
X197537000Y-100006000D01*
X197561386Y-100003598D01*
X197584835Y-99996485D01*
X197590420Y-99993500D01*
X198464000Y-99993500D01*
X198464000Y-100356000D01*
X198464000Y-100356000D01*
G37*
G36*
X138286499Y-98855445D02*
X138323993Y-98866819D01*
X138358557Y-98885294D01*
X138388847Y-98910153D01*
X138413706Y-98940443D01*
X138432181Y-98975007D01*
X138443555Y-99012501D01*
X138448000Y-99057638D01*
X138448000Y-99796362D01*
X138443555Y-99841499D01*
X138432181Y-99878993D01*
X138413706Y-99913557D01*
X138388847Y-99943847D01*
X138358557Y-99968706D01*
X138323993Y-99987181D01*
X138286499Y-99998555D01*
X138241362Y-100003000D01*
X137602638Y-100003000D01*
X137557501Y-99998555D01*
X137520007Y-99987181D01*
X137485443Y-99968706D01*
X137455153Y-99943847D01*
X137430294Y-99913557D01*
X137411819Y-99878993D01*
X137400445Y-99841499D01*
X137396000Y-99796362D01*
X137396000Y-99057638D01*
X137400445Y-99012501D01*
X137411819Y-98975007D01*
X137430294Y-98940443D01*
X137455153Y-98910153D01*
X137485443Y-98885294D01*
X137520007Y-98866819D01*
X137557501Y-98855445D01*
X137602638Y-98851000D01*
X138241362Y-98851000D01*
X138286499Y-98855445D01*
X138286499Y-98855445D01*
G37*
G36*
X138286499Y-97105445D02*
X138323993Y-97116819D01*
X138358557Y-97135294D01*
X138388847Y-97160153D01*
X138413706Y-97190443D01*
X138432181Y-97225007D01*
X138443555Y-97262501D01*
X138448000Y-97307638D01*
X138448000Y-98046362D01*
X138443555Y-98091499D01*
X138432181Y-98128993D01*
X138413706Y-98163557D01*
X138388847Y-98193847D01*
X138358557Y-98218706D01*
X138323993Y-98237181D01*
X138286499Y-98248555D01*
X138241362Y-98253000D01*
X137602638Y-98253000D01*
X137557501Y-98248555D01*
X137520007Y-98237181D01*
X137485443Y-98218706D01*
X137455153Y-98193847D01*
X137430294Y-98163557D01*
X137411819Y-98128993D01*
X137400445Y-98091499D01*
X137396000Y-98046362D01*
X137396000Y-97307638D01*
X137400445Y-97262501D01*
X137411819Y-97225007D01*
X137430294Y-97190443D01*
X137455153Y-97160153D01*
X137485443Y-97135294D01*
X137520007Y-97116819D01*
X137557501Y-97105445D01*
X137602638Y-97101000D01*
X138241362Y-97101000D01*
X138286499Y-97105445D01*
X138286499Y-97105445D01*
G37*
G36*
X166928800Y-97256600D02*
X164795200Y-97256600D01*
X164795200Y-91719400D01*
X166928800Y-91719400D01*
X166928800Y-97256600D01*
X166928800Y-97256600D01*
G37*
G36*
X155573000Y-95893000D02*
X145671000Y-95893000D01*
X145671000Y-94291000D01*
X155573000Y-94291000D01*
X155573000Y-95893000D01*
X155573000Y-95893000D01*
G37*
G36*
X173211499Y-94650445D02*
X173248993Y-94661819D01*
X173283557Y-94680294D01*
X173313847Y-94705153D01*
X173338706Y-94735443D01*
X173357181Y-94770007D01*
X173368555Y-94807501D01*
X173373000Y-94852638D01*
X173373000Y-95591362D01*
X173368555Y-95636499D01*
X173357181Y-95673993D01*
X173338706Y-95708557D01*
X173313847Y-95738847D01*
X173283557Y-95763706D01*
X173248993Y-95782181D01*
X173211499Y-95793555D01*
X173166362Y-95798000D01*
X172527638Y-95798000D01*
X172482501Y-95793555D01*
X172445007Y-95782181D01*
X172410443Y-95763706D01*
X172380153Y-95738847D01*
X172355294Y-95708557D01*
X172336819Y-95673993D01*
X172325445Y-95636499D01*
X172321000Y-95591362D01*
X172321000Y-94852638D01*
X172325445Y-94807501D01*
X172336819Y-94770007D01*
X172355294Y-94735443D01*
X172380153Y-94705153D01*
X172410443Y-94680294D01*
X172445007Y-94661819D01*
X172482501Y-94650445D01*
X172527638Y-94646000D01*
X173166362Y-94646000D01*
X173211499Y-94650445D01*
X173211499Y-94650445D01*
G37*
G36*
X132776499Y-94220445D02*
X132813993Y-94231819D01*
X132848557Y-94250294D01*
X132878847Y-94275153D01*
X132903706Y-94305443D01*
X132922181Y-94340007D01*
X132933555Y-94377501D01*
X132938000Y-94422638D01*
X132938000Y-95061362D01*
X132933555Y-95106499D01*
X132922181Y-95143993D01*
X132903706Y-95178557D01*
X132878847Y-95208847D01*
X132848557Y-95233706D01*
X132813993Y-95252181D01*
X132776499Y-95263555D01*
X132731362Y-95268000D01*
X131992638Y-95268000D01*
X131947501Y-95263555D01*
X131910007Y-95252181D01*
X131875443Y-95233706D01*
X131845153Y-95208847D01*
X131820294Y-95178557D01*
X131801819Y-95143993D01*
X131790445Y-95106499D01*
X131786000Y-95061362D01*
X131786000Y-94422638D01*
X131790445Y-94377501D01*
X131801819Y-94340007D01*
X131820294Y-94305443D01*
X131845153Y-94275153D01*
X131875443Y-94250294D01*
X131910007Y-94231819D01*
X131947501Y-94220445D01*
X131992638Y-94216000D01*
X132731362Y-94216000D01*
X132776499Y-94220445D01*
X132776499Y-94220445D01*
G37*
G36*
X134526499Y-94220445D02*
X134563993Y-94231819D01*
X134598557Y-94250294D01*
X134628847Y-94275153D01*
X134653706Y-94305443D01*
X134672181Y-94340007D01*
X134683555Y-94377501D01*
X134688000Y-94422638D01*
X134688000Y-95061362D01*
X134683555Y-95106499D01*
X134672181Y-95143993D01*
X134653706Y-95178557D01*
X134628847Y-95208847D01*
X134598557Y-95233706D01*
X134563993Y-95252181D01*
X134526499Y-95263555D01*
X134481362Y-95268000D01*
X133742638Y-95268000D01*
X133697501Y-95263555D01*
X133660007Y-95252181D01*
X133625443Y-95233706D01*
X133595153Y-95208847D01*
X133570294Y-95178557D01*
X133551819Y-95143993D01*
X133540445Y-95106499D01*
X133536000Y-95061362D01*
X133536000Y-94422638D01*
X133540445Y-94377501D01*
X133551819Y-94340007D01*
X133570294Y-94305443D01*
X133595153Y-94275153D01*
X133625443Y-94250294D01*
X133660007Y-94231819D01*
X133697501Y-94220445D01*
X133742638Y-94216000D01*
X134481362Y-94216000D01*
X134526499Y-94220445D01*
X134526499Y-94220445D01*
G37*
G36*
X173211499Y-92900445D02*
X173248993Y-92911819D01*
X173283557Y-92930294D01*
X173313847Y-92955153D01*
X173338706Y-92985443D01*
X173357181Y-93020007D01*
X173368555Y-93057501D01*
X173373000Y-93102638D01*
X173373000Y-93841362D01*
X173368555Y-93886499D01*
X173357181Y-93923993D01*
X173338706Y-93958557D01*
X173313847Y-93988847D01*
X173283557Y-94013706D01*
X173248993Y-94032181D01*
X173211499Y-94043555D01*
X173166362Y-94048000D01*
X172527638Y-94048000D01*
X172482501Y-94043555D01*
X172445007Y-94032181D01*
X172410443Y-94013706D01*
X172380153Y-93988847D01*
X172355294Y-93958557D01*
X172336819Y-93923993D01*
X172325445Y-93886499D01*
X172321000Y-93841362D01*
X172321000Y-93102638D01*
X172325445Y-93057501D01*
X172336819Y-93020007D01*
X172355294Y-92985443D01*
X172380153Y-92955153D01*
X172410443Y-92930294D01*
X172445007Y-92911819D01*
X172482501Y-92900445D01*
X172527638Y-92896000D01*
X173166362Y-92896000D01*
X173211499Y-92900445D01*
X173211499Y-92900445D01*
G37*
G36*
X158123000Y-93343000D02*
X156521000Y-93343000D01*
X156521000Y-83441000D01*
X158123000Y-83441000D01*
X158123000Y-93343000D01*
X158123000Y-93343000D01*
G37*
G36*
X144723000Y-93343000D02*
X143121000Y-93343000D01*
X143121000Y-83441000D01*
X144723000Y-83441000D01*
X144723000Y-93343000D01*
X144723000Y-93343000D01*
G37*
G36*
X193657096Y-87844033D02*
X193657098Y-87844034D01*
X193657099Y-87844034D01*
X194121352Y-88036333D01*
X194537284Y-88314250D01*
X194539171Y-88315511D01*
X194894489Y-88670829D01*
X194894491Y-88670832D01*
X195173667Y-89088648D01*
X195365966Y-89552901D01*
X195365967Y-89552904D01*
X195464000Y-90045747D01*
X195464000Y-90548253D01*
X195385480Y-90943000D01*
X195365966Y-91041099D01*
X195173667Y-91505352D01*
X194949394Y-91841000D01*
X194894489Y-91923171D01*
X194539171Y-92278489D01*
X194539168Y-92278491D01*
X194121352Y-92557667D01*
X193657099Y-92749966D01*
X193657098Y-92749966D01*
X193657096Y-92749967D01*
X193164253Y-92848000D01*
X192661747Y-92848000D01*
X192168904Y-92749967D01*
X192168902Y-92749966D01*
X192168901Y-92749966D01*
X191704648Y-92557667D01*
X191286832Y-92278491D01*
X191286829Y-92278489D01*
X190931511Y-91923171D01*
X190876606Y-91841000D01*
X190652333Y-91505352D01*
X190460034Y-91041099D01*
X190440521Y-90943000D01*
X190362000Y-90548253D01*
X190362000Y-90045747D01*
X190460033Y-89552904D01*
X190460034Y-89552901D01*
X190652333Y-89088648D01*
X190931509Y-88670832D01*
X190931511Y-88670829D01*
X191286829Y-88315511D01*
X191288716Y-88314250D01*
X191704648Y-88036333D01*
X192168901Y-87844034D01*
X192168902Y-87844034D01*
X192168904Y-87844033D01*
X192661747Y-87746000D01*
X193164253Y-87746000D01*
X193657096Y-87844033D01*
X193657096Y-87844033D01*
G37*
G36*
X160892499Y-90360445D02*
X160929993Y-90371819D01*
X160964557Y-90390294D01*
X160994847Y-90415153D01*
X161019706Y-90445443D01*
X161038181Y-90480007D01*
X161049555Y-90517501D01*
X161054000Y-90562638D01*
X161054000Y-91301362D01*
X161049555Y-91346499D01*
X161038181Y-91383993D01*
X161019706Y-91418557D01*
X160994847Y-91448847D01*
X160964557Y-91473706D01*
X160929993Y-91492181D01*
X160892499Y-91503555D01*
X160847362Y-91508000D01*
X160208638Y-91508000D01*
X160163501Y-91503555D01*
X160126007Y-91492181D01*
X160091443Y-91473706D01*
X160061153Y-91448847D01*
X160036294Y-91418557D01*
X160017819Y-91383993D01*
X160006445Y-91346499D01*
X160002000Y-91301362D01*
X160002000Y-90562638D01*
X160006445Y-90517501D01*
X160017819Y-90480007D01*
X160036294Y-90445443D01*
X160061153Y-90415153D01*
X160091443Y-90390294D01*
X160126007Y-90371819D01*
X160163501Y-90360445D01*
X160208638Y-90356000D01*
X160847362Y-90356000D01*
X160892499Y-90360445D01*
X160892499Y-90360445D01*
G37*
G36*
X160892499Y-88610445D02*
X160929993Y-88621819D01*
X160964557Y-88640294D01*
X160994847Y-88665153D01*
X161019706Y-88695443D01*
X161038181Y-88730007D01*
X161049555Y-88767501D01*
X161054000Y-88812638D01*
X161054000Y-89551362D01*
X161049555Y-89596499D01*
X161038181Y-89633993D01*
X161019706Y-89668557D01*
X160994847Y-89698847D01*
X160964557Y-89723706D01*
X160929993Y-89742181D01*
X160892499Y-89753555D01*
X160847362Y-89758000D01*
X160208638Y-89758000D01*
X160163501Y-89753555D01*
X160126007Y-89742181D01*
X160091443Y-89723706D01*
X160061153Y-89698847D01*
X160036294Y-89668557D01*
X160017819Y-89633993D01*
X160006445Y-89596499D01*
X160002000Y-89551362D01*
X160002000Y-88812638D01*
X160006445Y-88767501D01*
X160017819Y-88730007D01*
X160036294Y-88695443D01*
X160061153Y-88665153D01*
X160091443Y-88640294D01*
X160126007Y-88621819D01*
X160163501Y-88610445D01*
X160208638Y-88606000D01*
X160847362Y-88606000D01*
X160892499Y-88610445D01*
X160892499Y-88610445D01*
G37*
G36*
X138163000Y-89373000D02*
X135961000Y-89373000D01*
X135961000Y-87571000D01*
X138163000Y-87571000D01*
X138163000Y-89373000D01*
X138163000Y-89373000D01*
G37*
G36*
X132263000Y-89373000D02*
X130061000Y-89373000D01*
X130061000Y-87571000D01*
X132263000Y-87571000D01*
X132263000Y-89373000D01*
X132263000Y-89373000D01*
G37*
G36*
X166928800Y-87604600D02*
X164795200Y-87604600D01*
X164795200Y-82067400D01*
X166928800Y-82067400D01*
X166928800Y-87604600D01*
X166928800Y-87604600D01*
G37*
G36*
X173211499Y-85915445D02*
X173248993Y-85926819D01*
X173283557Y-85945294D01*
X173313847Y-85970153D01*
X173338706Y-86000443D01*
X173357181Y-86035007D01*
X173368555Y-86072501D01*
X173373000Y-86117638D01*
X173373000Y-86856362D01*
X173368555Y-86901499D01*
X173357181Y-86938993D01*
X173338706Y-86973557D01*
X173313847Y-87003847D01*
X173283557Y-87028706D01*
X173248993Y-87047181D01*
X173211499Y-87058555D01*
X173166362Y-87063000D01*
X172527638Y-87063000D01*
X172482501Y-87058555D01*
X172445007Y-87047181D01*
X172410443Y-87028706D01*
X172380153Y-87003847D01*
X172355294Y-86973557D01*
X172336819Y-86938993D01*
X172325445Y-86901499D01*
X172321000Y-86856362D01*
X172321000Y-86117638D01*
X172325445Y-86072501D01*
X172336819Y-86035007D01*
X172355294Y-86000443D01*
X172380153Y-85970153D01*
X172410443Y-85945294D01*
X172445007Y-85926819D01*
X172482501Y-85915445D01*
X172527638Y-85911000D01*
X173166362Y-85911000D01*
X173211499Y-85915445D01*
X173211499Y-85915445D01*
G37*
G36*
X132263000Y-86673000D02*
X130061000Y-86673000D01*
X130061000Y-84871000D01*
X132263000Y-84871000D01*
X132263000Y-86673000D01*
X132263000Y-86673000D01*
G37*
G36*
X138163000Y-86673000D02*
X135961000Y-86673000D01*
X135961000Y-84871000D01*
X138163000Y-84871000D01*
X138163000Y-86673000D01*
X138163000Y-86673000D01*
G37*
G36*
X173211499Y-84165445D02*
X173248993Y-84176819D01*
X173283557Y-84195294D01*
X173313847Y-84220153D01*
X173338706Y-84250443D01*
X173357181Y-84285007D01*
X173368555Y-84322501D01*
X173373000Y-84367638D01*
X173373000Y-85106362D01*
X173368555Y-85151499D01*
X173357181Y-85188993D01*
X173338706Y-85223557D01*
X173313847Y-85253847D01*
X173283557Y-85278706D01*
X173248993Y-85297181D01*
X173211499Y-85308555D01*
X173166362Y-85313000D01*
X172527638Y-85313000D01*
X172482501Y-85308555D01*
X172445007Y-85297181D01*
X172410443Y-85278706D01*
X172380153Y-85253847D01*
X172355294Y-85223557D01*
X172336819Y-85188993D01*
X172325445Y-85151499D01*
X172321000Y-85106362D01*
X172321000Y-84367638D01*
X172325445Y-84322501D01*
X172336819Y-84285007D01*
X172355294Y-84250443D01*
X172380153Y-84220153D01*
X172410443Y-84195294D01*
X172445007Y-84176819D01*
X172482501Y-84165445D01*
X172527638Y-84161000D01*
X173166362Y-84161000D01*
X173211499Y-84165445D01*
X173211499Y-84165445D01*
G37*
G36*
X193530096Y-80224033D02*
X193530098Y-80224034D01*
X193530099Y-80224034D01*
X193994352Y-80416333D01*
X194410284Y-80694250D01*
X194412171Y-80695511D01*
X194767489Y-81050829D01*
X194767491Y-81050832D01*
X195046667Y-81468648D01*
X195212230Y-81868354D01*
X195238967Y-81932904D01*
X195337000Y-82425747D01*
X195337000Y-82928253D01*
X195327008Y-82978488D01*
X195238966Y-83421099D01*
X195046667Y-83885352D01*
X194839570Y-84195294D01*
X194767489Y-84303171D01*
X194412171Y-84658489D01*
X194412168Y-84658491D01*
X193994352Y-84937667D01*
X193530099Y-85129966D01*
X193530098Y-85129966D01*
X193530096Y-85129967D01*
X193037253Y-85228000D01*
X192534747Y-85228000D01*
X192041904Y-85129967D01*
X192041902Y-85129966D01*
X192041901Y-85129966D01*
X191577648Y-84937667D01*
X191159832Y-84658491D01*
X191159829Y-84658489D01*
X190804511Y-84303171D01*
X190732430Y-84195294D01*
X190525333Y-83885352D01*
X190333034Y-83421099D01*
X190244993Y-82978488D01*
X190235000Y-82928253D01*
X190235000Y-82425747D01*
X190333033Y-81932904D01*
X190359770Y-81868354D01*
X190525333Y-81468648D01*
X190804509Y-81050832D01*
X190804511Y-81050829D01*
X191159829Y-80695511D01*
X191161716Y-80694250D01*
X191577648Y-80416333D01*
X192041901Y-80224034D01*
X192041902Y-80224034D01*
X192041904Y-80224033D01*
X192534747Y-80126000D01*
X193037253Y-80126000D01*
X193530096Y-80224033D01*
X193530096Y-80224033D01*
G37*
G36*
X100584443Y-82913387D02*
X100741608Y-82978487D01*
X100883053Y-83072998D01*
X101003342Y-83193287D01*
X101097853Y-83334732D01*
X101162953Y-83491897D01*
X101196140Y-83658743D01*
X101196140Y-83828857D01*
X101162953Y-83995703D01*
X101097853Y-84152868D01*
X101003342Y-84294313D01*
X100883053Y-84414602D01*
X100741608Y-84509113D01*
X100584443Y-84574213D01*
X100417597Y-84607400D01*
X100247483Y-84607400D01*
X100080637Y-84574213D01*
X99923472Y-84509113D01*
X99782027Y-84414602D01*
X99661738Y-84294313D01*
X99567227Y-84152868D01*
X99502127Y-83995703D01*
X99468940Y-83828857D01*
X99468940Y-83658743D01*
X99502127Y-83491897D01*
X99567227Y-83334732D01*
X99661738Y-83193287D01*
X99782027Y-83072998D01*
X99923472Y-82978487D01*
X100080637Y-82913387D01*
X100247483Y-82880200D01*
X100417597Y-82880200D01*
X100584443Y-82913387D01*
X100584443Y-82913387D01*
G37*
G36*
X98585463Y-82913387D02*
X98742628Y-82978487D01*
X98884073Y-83072998D01*
X99004362Y-83193287D01*
X99098873Y-83334732D01*
X99163973Y-83491897D01*
X99197160Y-83658743D01*
X99197160Y-83828857D01*
X99163973Y-83995703D01*
X99098873Y-84152868D01*
X99004362Y-84294313D01*
X98884073Y-84414602D01*
X98742628Y-84509113D01*
X98585463Y-84574213D01*
X98418617Y-84607400D01*
X98248503Y-84607400D01*
X98081657Y-84574213D01*
X97924492Y-84509113D01*
X97783047Y-84414602D01*
X97662758Y-84294313D01*
X97568247Y-84152868D01*
X97503147Y-83995703D01*
X97469960Y-83828857D01*
X97469960Y-83658743D01*
X97503147Y-83491897D01*
X97568247Y-83334732D01*
X97662758Y-83193287D01*
X97783047Y-83072998D01*
X97924492Y-82978487D01*
X98081657Y-82913387D01*
X98248503Y-82880200D01*
X98418617Y-82880200D01*
X98585463Y-82913387D01*
X98585463Y-82913387D01*
G37*
G36*
X102585963Y-82913387D02*
X102743128Y-82978487D01*
X102884573Y-83072998D01*
X103004862Y-83193287D01*
X103099373Y-83334732D01*
X103164473Y-83491897D01*
X103197660Y-83658743D01*
X103197660Y-83828857D01*
X103164473Y-83995703D01*
X103099373Y-84152868D01*
X103004862Y-84294313D01*
X102884573Y-84414602D01*
X102743128Y-84509113D01*
X102585963Y-84574213D01*
X102419117Y-84607400D01*
X102249003Y-84607400D01*
X102082157Y-84574213D01*
X101924992Y-84509113D01*
X101783547Y-84414602D01*
X101663258Y-84294313D01*
X101568747Y-84152868D01*
X101503647Y-83995703D01*
X101470460Y-83828857D01*
X101470460Y-83658743D01*
X101503647Y-83491897D01*
X101568747Y-83334732D01*
X101663258Y-83193287D01*
X101783547Y-83072998D01*
X101924992Y-82978487D01*
X102082157Y-82913387D01*
X102249003Y-82880200D01*
X102419117Y-82880200D01*
X102585963Y-82913387D01*
X102585963Y-82913387D01*
G37*
G36*
X104584943Y-82913387D02*
X104742108Y-82978487D01*
X104883553Y-83072998D01*
X105003842Y-83193287D01*
X105098353Y-83334732D01*
X105163453Y-83491897D01*
X105196640Y-83658743D01*
X105196640Y-83828857D01*
X105163453Y-83995703D01*
X105098353Y-84152868D01*
X105003842Y-84294313D01*
X104883553Y-84414602D01*
X104742108Y-84509113D01*
X104584943Y-84574213D01*
X104418097Y-84607400D01*
X104247983Y-84607400D01*
X104081137Y-84574213D01*
X103923972Y-84509113D01*
X103782527Y-84414602D01*
X103662238Y-84294313D01*
X103567727Y-84152868D01*
X103502627Y-83995703D01*
X103469440Y-83828857D01*
X103469440Y-83658743D01*
X103502627Y-83491897D01*
X103567727Y-83334732D01*
X103662238Y-83193287D01*
X103782527Y-83072998D01*
X103923972Y-82978487D01*
X104081137Y-82913387D01*
X104247983Y-82880200D01*
X104418097Y-82880200D01*
X104584943Y-82913387D01*
X104584943Y-82913387D01*
G37*
G36*
X106583923Y-82913387D02*
X106741088Y-82978487D01*
X106882533Y-83072998D01*
X107002822Y-83193287D01*
X107097333Y-83334732D01*
X107162433Y-83491897D01*
X107195620Y-83658743D01*
X107195620Y-83828857D01*
X107162433Y-83995703D01*
X107097333Y-84152868D01*
X107002822Y-84294313D01*
X106882533Y-84414602D01*
X106741088Y-84509113D01*
X106583923Y-84574213D01*
X106417077Y-84607400D01*
X106246963Y-84607400D01*
X106080117Y-84574213D01*
X105922952Y-84509113D01*
X105781507Y-84414602D01*
X105661218Y-84294313D01*
X105566707Y-84152868D01*
X105501607Y-83995703D01*
X105468420Y-83828857D01*
X105468420Y-83658743D01*
X105501607Y-83491897D01*
X105566707Y-83334732D01*
X105661218Y-83193287D01*
X105781507Y-83072998D01*
X105922952Y-82978487D01*
X106080117Y-82913387D01*
X106246963Y-82880200D01*
X106417077Y-82880200D01*
X106583923Y-82913387D01*
X106583923Y-82913387D01*
G37*
G36*
X108585443Y-82913387D02*
X108742608Y-82978487D01*
X108884053Y-83072998D01*
X109004342Y-83193287D01*
X109098853Y-83334732D01*
X109163953Y-83491897D01*
X109197140Y-83658743D01*
X109197140Y-83828857D01*
X109163953Y-83995703D01*
X109098853Y-84152868D01*
X109004342Y-84294313D01*
X108884053Y-84414602D01*
X108742608Y-84509113D01*
X108585443Y-84574213D01*
X108418597Y-84607400D01*
X108248483Y-84607400D01*
X108081637Y-84574213D01*
X107924472Y-84509113D01*
X107783027Y-84414602D01*
X107662738Y-84294313D01*
X107568227Y-84152868D01*
X107503127Y-83995703D01*
X107469940Y-83828857D01*
X107469940Y-83658743D01*
X107503127Y-83491897D01*
X107568227Y-83334732D01*
X107662738Y-83193287D01*
X107783027Y-83072998D01*
X107924472Y-82978487D01*
X108081637Y-82913387D01*
X108248483Y-82880200D01*
X108418597Y-82880200D01*
X108585443Y-82913387D01*
X108585443Y-82913387D01*
G37*
G36*
X110584423Y-82913387D02*
X110741588Y-82978487D01*
X110883033Y-83072998D01*
X111003322Y-83193287D01*
X111097833Y-83334732D01*
X111162933Y-83491897D01*
X111196120Y-83658743D01*
X111196120Y-83828857D01*
X111162933Y-83995703D01*
X111097833Y-84152868D01*
X111003322Y-84294313D01*
X110883033Y-84414602D01*
X110741588Y-84509113D01*
X110584423Y-84574213D01*
X110417577Y-84607400D01*
X110247463Y-84607400D01*
X110080617Y-84574213D01*
X109923452Y-84509113D01*
X109782007Y-84414602D01*
X109661718Y-84294313D01*
X109567207Y-84152868D01*
X109502107Y-83995703D01*
X109468920Y-83828857D01*
X109468920Y-83658743D01*
X109502107Y-83491897D01*
X109567207Y-83334732D01*
X109661718Y-83193287D01*
X109782007Y-83072998D01*
X109923452Y-82978487D01*
X110080617Y-82913387D01*
X110247463Y-82880200D01*
X110417577Y-82880200D01*
X110584423Y-82913387D01*
X110584423Y-82913387D01*
G37*
G36*
X112585943Y-82913387D02*
X112743108Y-82978487D01*
X112884553Y-83072998D01*
X113004842Y-83193287D01*
X113099353Y-83334732D01*
X113164453Y-83491897D01*
X113197640Y-83658743D01*
X113197640Y-83828857D01*
X113164453Y-83995703D01*
X113099353Y-84152868D01*
X113004842Y-84294313D01*
X112884553Y-84414602D01*
X112743108Y-84509113D01*
X112585943Y-84574213D01*
X112419097Y-84607400D01*
X112248983Y-84607400D01*
X112082137Y-84574213D01*
X111924972Y-84509113D01*
X111783527Y-84414602D01*
X111663238Y-84294313D01*
X111568727Y-84152868D01*
X111503627Y-83995703D01*
X111470440Y-83828857D01*
X111470440Y-83658743D01*
X111503627Y-83491897D01*
X111568727Y-83334732D01*
X111663238Y-83193287D01*
X111783527Y-83072998D01*
X111924972Y-82978487D01*
X112082137Y-82913387D01*
X112248983Y-82880200D01*
X112419097Y-82880200D01*
X112585943Y-82913387D01*
X112585943Y-82913387D01*
G37*
G36*
X114584923Y-82913387D02*
X114742088Y-82978487D01*
X114883533Y-83072998D01*
X115003822Y-83193287D01*
X115098333Y-83334732D01*
X115163433Y-83491897D01*
X115196620Y-83658743D01*
X115196620Y-83828857D01*
X115163433Y-83995703D01*
X115098333Y-84152868D01*
X115003822Y-84294313D01*
X114883533Y-84414602D01*
X114742088Y-84509113D01*
X114584923Y-84574213D01*
X114418077Y-84607400D01*
X114247963Y-84607400D01*
X114081117Y-84574213D01*
X113923952Y-84509113D01*
X113782507Y-84414602D01*
X113662218Y-84294313D01*
X113567707Y-84152868D01*
X113502607Y-83995703D01*
X113469420Y-83828857D01*
X113469420Y-83658743D01*
X113502607Y-83491897D01*
X113567707Y-83334732D01*
X113662218Y-83193287D01*
X113782507Y-83072998D01*
X113923952Y-82978487D01*
X114081117Y-82913387D01*
X114247963Y-82880200D01*
X114418077Y-82880200D01*
X114584923Y-82913387D01*
X114584923Y-82913387D01*
G37*
G36*
X96583943Y-82913387D02*
X96741108Y-82978487D01*
X96882553Y-83072998D01*
X97002842Y-83193287D01*
X97097353Y-83334732D01*
X97162453Y-83491897D01*
X97195640Y-83658743D01*
X97195640Y-83828857D01*
X97162453Y-83995703D01*
X97097353Y-84152868D01*
X97002842Y-84294313D01*
X96882553Y-84414602D01*
X96741108Y-84509113D01*
X96583943Y-84574213D01*
X96417097Y-84607400D01*
X96246983Y-84607400D01*
X96080137Y-84574213D01*
X95922972Y-84509113D01*
X95781527Y-84414602D01*
X95661238Y-84294313D01*
X95566727Y-84152868D01*
X95501627Y-83995703D01*
X95468440Y-83828857D01*
X95468440Y-83658743D01*
X95501627Y-83491897D01*
X95566727Y-83334732D01*
X95661238Y-83193287D01*
X95781527Y-83072998D01*
X95922972Y-82978487D01*
X96080137Y-82913387D01*
X96246983Y-82880200D01*
X96417097Y-82880200D01*
X96583943Y-82913387D01*
X96583943Y-82913387D01*
G37*
G36*
X140826499Y-81710445D02*
X140863993Y-81721819D01*
X140898557Y-81740294D01*
X140928847Y-81765153D01*
X140953706Y-81795443D01*
X140972181Y-81830007D01*
X140983555Y-81867501D01*
X140988000Y-81912638D01*
X140988000Y-82651362D01*
X140983555Y-82696499D01*
X140972181Y-82733993D01*
X140953706Y-82768557D01*
X140928847Y-82798847D01*
X140898557Y-82823706D01*
X140863993Y-82842181D01*
X140826499Y-82853555D01*
X140781362Y-82858000D01*
X140142638Y-82858000D01*
X140097501Y-82853555D01*
X140060007Y-82842181D01*
X140025443Y-82823706D01*
X139995153Y-82798847D01*
X139970294Y-82768557D01*
X139951819Y-82733993D01*
X139940445Y-82696499D01*
X139936000Y-82651362D01*
X139936000Y-81912638D01*
X139940445Y-81867501D01*
X139951819Y-81830007D01*
X139970294Y-81795443D01*
X139995153Y-81765153D01*
X140025443Y-81740294D01*
X140060007Y-81721819D01*
X140097501Y-81710445D01*
X140142638Y-81706000D01*
X140781362Y-81706000D01*
X140826499Y-81710445D01*
X140826499Y-81710445D01*
G37*
G36*
X155573000Y-82493000D02*
X145671000Y-82493000D01*
X145671000Y-80891000D01*
X155573000Y-80891000D01*
X155573000Y-82493000D01*
X155573000Y-82493000D01*
G37*
G36*
X127131207Y-80772000D02*
X125857000Y-82046207D01*
X124582793Y-80772000D01*
X125857000Y-79497793D01*
X127131207Y-80772000D01*
X127131207Y-80772000D01*
G37*
G36*
X133651499Y-80250445D02*
X133688993Y-80261819D01*
X133723557Y-80280294D01*
X133753847Y-80305153D01*
X133778706Y-80335443D01*
X133797181Y-80370007D01*
X133808555Y-80407501D01*
X133813000Y-80452638D01*
X133813000Y-81091362D01*
X133808555Y-81136499D01*
X133797181Y-81173993D01*
X133778706Y-81208557D01*
X133753847Y-81238847D01*
X133723557Y-81263706D01*
X133688993Y-81282181D01*
X133651499Y-81293555D01*
X133606362Y-81298000D01*
X132867638Y-81298000D01*
X132822501Y-81293555D01*
X132785007Y-81282181D01*
X132750443Y-81263706D01*
X132720153Y-81238847D01*
X132695294Y-81208557D01*
X132676819Y-81173993D01*
X132665445Y-81136499D01*
X132661000Y-81091362D01*
X132661000Y-80452638D01*
X132665445Y-80407501D01*
X132676819Y-80370007D01*
X132695294Y-80335443D01*
X132720153Y-80305153D01*
X132750443Y-80280294D01*
X132785007Y-80261819D01*
X132822501Y-80250445D01*
X132867638Y-80246000D01*
X133606362Y-80246000D01*
X133651499Y-80250445D01*
X133651499Y-80250445D01*
G37*
G36*
X135401499Y-80250445D02*
X135438993Y-80261819D01*
X135473557Y-80280294D01*
X135503847Y-80305153D01*
X135528706Y-80335443D01*
X135547181Y-80370007D01*
X135558555Y-80407501D01*
X135563000Y-80452638D01*
X135563000Y-81091362D01*
X135558555Y-81136499D01*
X135547181Y-81173993D01*
X135528706Y-81208557D01*
X135503847Y-81238847D01*
X135473557Y-81263706D01*
X135438993Y-81282181D01*
X135401499Y-81293555D01*
X135356362Y-81298000D01*
X134617638Y-81298000D01*
X134572501Y-81293555D01*
X134535007Y-81282181D01*
X134500443Y-81263706D01*
X134470153Y-81238847D01*
X134445294Y-81208557D01*
X134426819Y-81173993D01*
X134415445Y-81136499D01*
X134411000Y-81091362D01*
X134411000Y-80452638D01*
X134415445Y-80407501D01*
X134426819Y-80370007D01*
X134445294Y-80335443D01*
X134470153Y-80305153D01*
X134500443Y-80280294D01*
X134535007Y-80261819D01*
X134572501Y-80250445D01*
X134617638Y-80246000D01*
X135356362Y-80246000D01*
X135401499Y-80250445D01*
X135401499Y-80250445D01*
G37*
G36*
X140826499Y-79960445D02*
X140863993Y-79971819D01*
X140898557Y-79990294D01*
X140928847Y-80015153D01*
X140953706Y-80045443D01*
X140972181Y-80080007D01*
X140983555Y-80117501D01*
X140988000Y-80162638D01*
X140988000Y-80901362D01*
X140983555Y-80946499D01*
X140972181Y-80983993D01*
X140953706Y-81018557D01*
X140928847Y-81048847D01*
X140898557Y-81073706D01*
X140863993Y-81092181D01*
X140826499Y-81103555D01*
X140781362Y-81108000D01*
X140142638Y-81108000D01*
X140097501Y-81103555D01*
X140060007Y-81092181D01*
X140025443Y-81073706D01*
X139995153Y-81048847D01*
X139970294Y-81018557D01*
X139951819Y-80983993D01*
X139940445Y-80946499D01*
X139936000Y-80901362D01*
X139936000Y-80162638D01*
X139940445Y-80117501D01*
X139951819Y-80080007D01*
X139970294Y-80045443D01*
X139995153Y-80015153D01*
X140025443Y-79990294D01*
X140060007Y-79971819D01*
X140097501Y-79960445D01*
X140142638Y-79956000D01*
X140781362Y-79956000D01*
X140826499Y-79960445D01*
X140826499Y-79960445D01*
G37*
G36*
X127757711Y-78080898D02*
X127829678Y-78087986D01*
X127922028Y-78116000D01*
X127999518Y-78139506D01*
X128123725Y-78205897D01*
X128156042Y-78223171D01*
X128172846Y-78236962D01*
X128293237Y-78335763D01*
X128376499Y-78437220D01*
X128405829Y-78472958D01*
X128405830Y-78472960D01*
X128489494Y-78629482D01*
X128489494Y-78629483D01*
X128541014Y-78799322D01*
X128558410Y-78975949D01*
X128541014Y-79152576D01*
X128506667Y-79265802D01*
X128489494Y-79322416D01*
X128476980Y-79345827D01*
X128405829Y-79478940D01*
X128390356Y-79497794D01*
X128293237Y-79616135D01*
X128218490Y-79677477D01*
X128156042Y-79728727D01*
X128156040Y-79728728D01*
X127999518Y-79812392D01*
X127942904Y-79829565D01*
X127829678Y-79863912D01*
X127763493Y-79870431D01*
X127697311Y-79876949D01*
X127608791Y-79876949D01*
X127542609Y-79870431D01*
X127476424Y-79863912D01*
X127363198Y-79829565D01*
X127306584Y-79812392D01*
X127150062Y-79728728D01*
X127150060Y-79728727D01*
X127087612Y-79677477D01*
X127012865Y-79616135D01*
X126915746Y-79497794D01*
X126900273Y-79478940D01*
X126829122Y-79345827D01*
X126816608Y-79322416D01*
X126799435Y-79265802D01*
X126765088Y-79152576D01*
X126747692Y-78975949D01*
X126765088Y-78799322D01*
X126816608Y-78629483D01*
X126816608Y-78629482D01*
X126900272Y-78472960D01*
X126900273Y-78472958D01*
X126929603Y-78437220D01*
X127012865Y-78335763D01*
X127133256Y-78236962D01*
X127150060Y-78223171D01*
X127182377Y-78205897D01*
X127306584Y-78139506D01*
X127384074Y-78116000D01*
X127476424Y-78087986D01*
X127548391Y-78080898D01*
X127608791Y-78074949D01*
X127697311Y-78074949D01*
X127757711Y-78080898D01*
X127757711Y-78080898D01*
G37*
G36*
X124165609Y-78080898D02*
X124237576Y-78087986D01*
X124329926Y-78116000D01*
X124407416Y-78139506D01*
X124531623Y-78205897D01*
X124563940Y-78223171D01*
X124580744Y-78236962D01*
X124701135Y-78335763D01*
X124784397Y-78437220D01*
X124813727Y-78472958D01*
X124813728Y-78472960D01*
X124897392Y-78629482D01*
X124897392Y-78629483D01*
X124948912Y-78799322D01*
X124966308Y-78975949D01*
X124948912Y-79152576D01*
X124914565Y-79265802D01*
X124897392Y-79322416D01*
X124884878Y-79345827D01*
X124813727Y-79478940D01*
X124798254Y-79497794D01*
X124701135Y-79616135D01*
X124626388Y-79677477D01*
X124563940Y-79728727D01*
X124563938Y-79728728D01*
X124407416Y-79812392D01*
X124350802Y-79829565D01*
X124237576Y-79863912D01*
X124171391Y-79870431D01*
X124105209Y-79876949D01*
X124016689Y-79876949D01*
X123950507Y-79870431D01*
X123884322Y-79863912D01*
X123771096Y-79829565D01*
X123714482Y-79812392D01*
X123557960Y-79728728D01*
X123557958Y-79728727D01*
X123495510Y-79677477D01*
X123420763Y-79616135D01*
X123323644Y-79497794D01*
X123308171Y-79478940D01*
X123237020Y-79345827D01*
X123224506Y-79322416D01*
X123207333Y-79265802D01*
X123172986Y-79152576D01*
X123155590Y-78975949D01*
X123172986Y-78799322D01*
X123224506Y-78629483D01*
X123224506Y-78629482D01*
X123308170Y-78472960D01*
X123308171Y-78472958D01*
X123337501Y-78437220D01*
X123420763Y-78335763D01*
X123541154Y-78236962D01*
X123557958Y-78223171D01*
X123590275Y-78205897D01*
X123714482Y-78139506D01*
X123791972Y-78116000D01*
X123884322Y-78087986D01*
X123956289Y-78080898D01*
X124016689Y-78074949D01*
X124105209Y-78074949D01*
X124165609Y-78080898D01*
X124165609Y-78080898D01*
G37*
G36*
X103827562Y-77945181D02*
X103862477Y-77955773D01*
X103894665Y-77972978D01*
X103922873Y-77996127D01*
X103946022Y-78024335D01*
X103963227Y-78056523D01*
X103973819Y-78091438D01*
X103978000Y-78133895D01*
X103978000Y-79600105D01*
X103973819Y-79642562D01*
X103963227Y-79677477D01*
X103946022Y-79709665D01*
X103922873Y-79737873D01*
X103894665Y-79761022D01*
X103862477Y-79778227D01*
X103827562Y-79788819D01*
X103785105Y-79793000D01*
X102643895Y-79793000D01*
X102601438Y-79788819D01*
X102566523Y-79778227D01*
X102534335Y-79761022D01*
X102506127Y-79737873D01*
X102482978Y-79709665D01*
X102465773Y-79677477D01*
X102455181Y-79642562D01*
X102451000Y-79600105D01*
X102451000Y-78133895D01*
X102455181Y-78091438D01*
X102465773Y-78056523D01*
X102482978Y-78024335D01*
X102506127Y-77996127D01*
X102534335Y-77972978D01*
X102566523Y-77955773D01*
X102601438Y-77945181D01*
X102643895Y-77941000D01*
X103785105Y-77941000D01*
X103827562Y-77945181D01*
X103827562Y-77945181D01*
G37*
G36*
X100852562Y-77945181D02*
X100887477Y-77955773D01*
X100919665Y-77972978D01*
X100947873Y-77996127D01*
X100971022Y-78024335D01*
X100988227Y-78056523D01*
X100998819Y-78091438D01*
X101003000Y-78133895D01*
X101003000Y-79600105D01*
X100998819Y-79642562D01*
X100988227Y-79677477D01*
X100971022Y-79709665D01*
X100947873Y-79737873D01*
X100919665Y-79761022D01*
X100887477Y-79778227D01*
X100852562Y-79788819D01*
X100810105Y-79793000D01*
X99668895Y-79793000D01*
X99626438Y-79788819D01*
X99591523Y-79778227D01*
X99559335Y-79761022D01*
X99531127Y-79737873D01*
X99507978Y-79709665D01*
X99490773Y-79677477D01*
X99480181Y-79642562D01*
X99476000Y-79600105D01*
X99476000Y-78133895D01*
X99480181Y-78091438D01*
X99490773Y-78056523D01*
X99507978Y-78024335D01*
X99531127Y-77996127D01*
X99559335Y-77972978D01*
X99591523Y-77955773D01*
X99626438Y-77945181D01*
X99668895Y-77941000D01*
X100810105Y-77941000D01*
X100852562Y-77945181D01*
X100852562Y-77945181D01*
G37*
G36*
X112105677Y-78120465D02*
X112143364Y-78131898D01*
X112178103Y-78150466D01*
X112208548Y-78175452D01*
X112233534Y-78205897D01*
X112252102Y-78240636D01*
X112263535Y-78278323D01*
X112268000Y-78323661D01*
X112268000Y-79410339D01*
X112263535Y-79455677D01*
X112252102Y-79493364D01*
X112233534Y-79528103D01*
X112208548Y-79558548D01*
X112178103Y-79583534D01*
X112143364Y-79602102D01*
X112105677Y-79613535D01*
X112060339Y-79618000D01*
X111223661Y-79618000D01*
X111178323Y-79613535D01*
X111140636Y-79602102D01*
X111105897Y-79583534D01*
X111075452Y-79558548D01*
X111050466Y-79528103D01*
X111031898Y-79493364D01*
X111020465Y-79455677D01*
X111016000Y-79410339D01*
X111016000Y-78323661D01*
X111020465Y-78278323D01*
X111031898Y-78240636D01*
X111050466Y-78205897D01*
X111075452Y-78175452D01*
X111105897Y-78150466D01*
X111140636Y-78131898D01*
X111178323Y-78120465D01*
X111223661Y-78116000D01*
X112060339Y-78116000D01*
X112105677Y-78120465D01*
X112105677Y-78120465D01*
G37*
G36*
X110055677Y-78120465D02*
X110093364Y-78131898D01*
X110128103Y-78150466D01*
X110158548Y-78175452D01*
X110183534Y-78205897D01*
X110202102Y-78240636D01*
X110213535Y-78278323D01*
X110218000Y-78323661D01*
X110218000Y-79410339D01*
X110213535Y-79455677D01*
X110202102Y-79493364D01*
X110183534Y-79528103D01*
X110158548Y-79558548D01*
X110128103Y-79583534D01*
X110093364Y-79602102D01*
X110055677Y-79613535D01*
X110010339Y-79618000D01*
X109173661Y-79618000D01*
X109128323Y-79613535D01*
X109090636Y-79602102D01*
X109055897Y-79583534D01*
X109025452Y-79558548D01*
X109000466Y-79528103D01*
X108981898Y-79493364D01*
X108970465Y-79455677D01*
X108966000Y-79410339D01*
X108966000Y-78323661D01*
X108970465Y-78278323D01*
X108981898Y-78240636D01*
X109000466Y-78205897D01*
X109025452Y-78175452D01*
X109055897Y-78150466D01*
X109090636Y-78131898D01*
X109128323Y-78120465D01*
X109173661Y-78116000D01*
X110010339Y-78116000D01*
X110055677Y-78120465D01*
X110055677Y-78120465D01*
G37*
G36*
X180245062Y-77310181D02*
X180279977Y-77320773D01*
X180312165Y-77337978D01*
X180340373Y-77361127D01*
X180363522Y-77389335D01*
X180380727Y-77421523D01*
X180391319Y-77456438D01*
X180395500Y-77498895D01*
X180395500Y-78965105D01*
X180391319Y-79007562D01*
X180380727Y-79042477D01*
X180363522Y-79074665D01*
X180340373Y-79102873D01*
X180312165Y-79126022D01*
X180279977Y-79143227D01*
X180245062Y-79153819D01*
X180202605Y-79158000D01*
X179061395Y-79158000D01*
X179018938Y-79153819D01*
X178984023Y-79143227D01*
X178951835Y-79126022D01*
X178923627Y-79102873D01*
X178900478Y-79074665D01*
X178883273Y-79042477D01*
X178872681Y-79007562D01*
X178868500Y-78965105D01*
X178868500Y-77498895D01*
X178872681Y-77456438D01*
X178883273Y-77421523D01*
X178900478Y-77389335D01*
X178923627Y-77361127D01*
X178951835Y-77337978D01*
X178984023Y-77320773D01*
X179018938Y-77310181D01*
X179061395Y-77306000D01*
X180202605Y-77306000D01*
X180245062Y-77310181D01*
X180245062Y-77310181D01*
G37*
G36*
X177270062Y-77310181D02*
X177304977Y-77320773D01*
X177337165Y-77337978D01*
X177365373Y-77361127D01*
X177388522Y-77389335D01*
X177405727Y-77421523D01*
X177416319Y-77456438D01*
X177420500Y-77498895D01*
X177420500Y-78965105D01*
X177416319Y-79007562D01*
X177405727Y-79042477D01*
X177388522Y-79074665D01*
X177365373Y-79102873D01*
X177337165Y-79126022D01*
X177304977Y-79143227D01*
X177270062Y-79153819D01*
X177227605Y-79158000D01*
X176086395Y-79158000D01*
X176043938Y-79153819D01*
X176009023Y-79143227D01*
X175976835Y-79126022D01*
X175948627Y-79102873D01*
X175925478Y-79074665D01*
X175908273Y-79042477D01*
X175897681Y-79007562D01*
X175893500Y-78965105D01*
X175893500Y-77498895D01*
X175897681Y-77456438D01*
X175908273Y-77421523D01*
X175925478Y-77389335D01*
X175948627Y-77361127D01*
X175976835Y-77337978D01*
X176009023Y-77320773D01*
X176043938Y-77310181D01*
X176086395Y-77306000D01*
X177227605Y-77306000D01*
X177270062Y-77310181D01*
X177270062Y-77310181D01*
G37*
G36*
X173455677Y-77485465D02*
X173493364Y-77496898D01*
X173528103Y-77515466D01*
X173558548Y-77540452D01*
X173583534Y-77570897D01*
X173602102Y-77605636D01*
X173613535Y-77643323D01*
X173618000Y-77688661D01*
X173618000Y-78775339D01*
X173613535Y-78820677D01*
X173602102Y-78858364D01*
X173583534Y-78893103D01*
X173558548Y-78923548D01*
X173528103Y-78948534D01*
X173493364Y-78967102D01*
X173455677Y-78978535D01*
X173410339Y-78983000D01*
X172573661Y-78983000D01*
X172528323Y-78978535D01*
X172490636Y-78967102D01*
X172455897Y-78948534D01*
X172425452Y-78923548D01*
X172400466Y-78893103D01*
X172381898Y-78858364D01*
X172370465Y-78820677D01*
X172366000Y-78775339D01*
X172366000Y-77688661D01*
X172370465Y-77643323D01*
X172381898Y-77605636D01*
X172400466Y-77570897D01*
X172425452Y-77540452D01*
X172455897Y-77515466D01*
X172490636Y-77496898D01*
X172528323Y-77485465D01*
X172573661Y-77481000D01*
X173410339Y-77481000D01*
X173455677Y-77485465D01*
X173455677Y-77485465D01*
G37*
G36*
X171405677Y-77485465D02*
X171443364Y-77496898D01*
X171478103Y-77515466D01*
X171508548Y-77540452D01*
X171533534Y-77570897D01*
X171552102Y-77605636D01*
X171563535Y-77643323D01*
X171568000Y-77688661D01*
X171568000Y-78775339D01*
X171563535Y-78820677D01*
X171552102Y-78858364D01*
X171533534Y-78893103D01*
X171508548Y-78923548D01*
X171478103Y-78948534D01*
X171443364Y-78967102D01*
X171405677Y-78978535D01*
X171360339Y-78983000D01*
X170523661Y-78983000D01*
X170478323Y-78978535D01*
X170440636Y-78967102D01*
X170405897Y-78948534D01*
X170375452Y-78923548D01*
X170350466Y-78893103D01*
X170331898Y-78858364D01*
X170320465Y-78820677D01*
X170316000Y-78775339D01*
X170316000Y-77688661D01*
X170320465Y-77643323D01*
X170331898Y-77605636D01*
X170350466Y-77570897D01*
X170375452Y-77540452D01*
X170405897Y-77515466D01*
X170440636Y-77496898D01*
X170478323Y-77485465D01*
X170523661Y-77481000D01*
X171360339Y-77481000D01*
X171405677Y-77485465D01*
X171405677Y-77485465D01*
G37*
G36*
X129553752Y-76284846D02*
X129625729Y-76291935D01*
X129738955Y-76326282D01*
X129795569Y-76343455D01*
X129934189Y-76417550D01*
X129952093Y-76427120D01*
X129987831Y-76456450D01*
X130089288Y-76539712D01*
X130172550Y-76641169D01*
X130201880Y-76676907D01*
X130201881Y-76676909D01*
X130285545Y-76833431D01*
X130285545Y-76833432D01*
X130337065Y-77003271D01*
X130354461Y-77179898D01*
X130337065Y-77356525D01*
X130306757Y-77456438D01*
X130285545Y-77526365D01*
X130260139Y-77573895D01*
X130201880Y-77682889D01*
X130172550Y-77718627D01*
X130089288Y-77820084D01*
X129987831Y-77903346D01*
X129952093Y-77932676D01*
X129952091Y-77932677D01*
X129795569Y-78016341D01*
X129738955Y-78033514D01*
X129625729Y-78067861D01*
X129559545Y-78074379D01*
X129493362Y-78080898D01*
X129404842Y-78080898D01*
X129338659Y-78074379D01*
X129272475Y-78067861D01*
X129159249Y-78033514D01*
X129102635Y-78016341D01*
X128946113Y-77932677D01*
X128946111Y-77932676D01*
X128910373Y-77903346D01*
X128808916Y-77820084D01*
X128725654Y-77718627D01*
X128696324Y-77682889D01*
X128638065Y-77573895D01*
X128612659Y-77526365D01*
X128591447Y-77456438D01*
X128561139Y-77356525D01*
X128543743Y-77179898D01*
X128561139Y-77003271D01*
X128612659Y-76833432D01*
X128612659Y-76833431D01*
X128696323Y-76676909D01*
X128696324Y-76676907D01*
X128725654Y-76641169D01*
X128808916Y-76539712D01*
X128910373Y-76456450D01*
X128946111Y-76427120D01*
X128964015Y-76417550D01*
X129102635Y-76343455D01*
X129159249Y-76326282D01*
X129272475Y-76291935D01*
X129344452Y-76284846D01*
X129404842Y-76278898D01*
X129493362Y-76278898D01*
X129553752Y-76284846D01*
X129553752Y-76284846D01*
G37*
G36*
X125961650Y-76284846D02*
X126033627Y-76291935D01*
X126146853Y-76326282D01*
X126203467Y-76343455D01*
X126342087Y-76417550D01*
X126359991Y-76427120D01*
X126395729Y-76456450D01*
X126497186Y-76539712D01*
X126580448Y-76641169D01*
X126609778Y-76676907D01*
X126609779Y-76676909D01*
X126693443Y-76833431D01*
X126693443Y-76833432D01*
X126744963Y-77003271D01*
X126762359Y-77179898D01*
X126744963Y-77356525D01*
X126714655Y-77456438D01*
X126693443Y-77526365D01*
X126668037Y-77573895D01*
X126609778Y-77682889D01*
X126580448Y-77718627D01*
X126497186Y-77820084D01*
X126395729Y-77903346D01*
X126359991Y-77932676D01*
X126359989Y-77932677D01*
X126203467Y-78016341D01*
X126146853Y-78033514D01*
X126033627Y-78067861D01*
X125967443Y-78074379D01*
X125901260Y-78080898D01*
X125812740Y-78080898D01*
X125746557Y-78074379D01*
X125680373Y-78067861D01*
X125567147Y-78033514D01*
X125510533Y-78016341D01*
X125354011Y-77932677D01*
X125354009Y-77932676D01*
X125318271Y-77903346D01*
X125216814Y-77820084D01*
X125133552Y-77718627D01*
X125104222Y-77682889D01*
X125045963Y-77573895D01*
X125020557Y-77526365D01*
X124999345Y-77456438D01*
X124969037Y-77356525D01*
X124951641Y-77179898D01*
X124969037Y-77003271D01*
X125020557Y-76833432D01*
X125020557Y-76833431D01*
X125104221Y-76676909D01*
X125104222Y-76676907D01*
X125133552Y-76641169D01*
X125216814Y-76539712D01*
X125318271Y-76456450D01*
X125354009Y-76427120D01*
X125371913Y-76417550D01*
X125510533Y-76343455D01*
X125567147Y-76326282D01*
X125680373Y-76291935D01*
X125752350Y-76284846D01*
X125812740Y-76278898D01*
X125901260Y-76278898D01*
X125961650Y-76284846D01*
X125961650Y-76284846D01*
G37*
G36*
X151036499Y-76440445D02*
X151073993Y-76451819D01*
X151108557Y-76470294D01*
X151138847Y-76495153D01*
X151163706Y-76525443D01*
X151182181Y-76560007D01*
X151193555Y-76597501D01*
X151198000Y-76642638D01*
X151198000Y-77281362D01*
X151193555Y-77326499D01*
X151182181Y-77363993D01*
X151163706Y-77398557D01*
X151138847Y-77428847D01*
X151108557Y-77453706D01*
X151073993Y-77472181D01*
X151036499Y-77483555D01*
X150991362Y-77488000D01*
X150252638Y-77488000D01*
X150207501Y-77483555D01*
X150170007Y-77472181D01*
X150135443Y-77453706D01*
X150105153Y-77428847D01*
X150080294Y-77398557D01*
X150061819Y-77363993D01*
X150050445Y-77326499D01*
X150046000Y-77281362D01*
X150046000Y-76642638D01*
X150050445Y-76597501D01*
X150061819Y-76560007D01*
X150080294Y-76525443D01*
X150105153Y-76495153D01*
X150135443Y-76470294D01*
X150170007Y-76451819D01*
X150207501Y-76440445D01*
X150252638Y-76436000D01*
X150991362Y-76436000D01*
X151036499Y-76440445D01*
X151036499Y-76440445D01*
G37*
G36*
X149286499Y-76440445D02*
X149323993Y-76451819D01*
X149358557Y-76470294D01*
X149388847Y-76495153D01*
X149413706Y-76525443D01*
X149432181Y-76560007D01*
X149443555Y-76597501D01*
X149448000Y-76642638D01*
X149448000Y-77281362D01*
X149443555Y-77326499D01*
X149432181Y-77363993D01*
X149413706Y-77398557D01*
X149388847Y-77428847D01*
X149358557Y-77453706D01*
X149323993Y-77472181D01*
X149286499Y-77483555D01*
X149241362Y-77488000D01*
X148502638Y-77488000D01*
X148457501Y-77483555D01*
X148420007Y-77472181D01*
X148385443Y-77453706D01*
X148355153Y-77428847D01*
X148330294Y-77398557D01*
X148311819Y-77363993D01*
X148300445Y-77326499D01*
X148296000Y-77281362D01*
X148296000Y-76642638D01*
X148300445Y-76597501D01*
X148311819Y-76560007D01*
X148330294Y-76525443D01*
X148355153Y-76495153D01*
X148385443Y-76470294D01*
X148420007Y-76451819D01*
X148457501Y-76440445D01*
X148502638Y-76436000D01*
X149241362Y-76436000D01*
X149286499Y-76440445D01*
X149286499Y-76440445D01*
G37*
G36*
X144714499Y-76440445D02*
X144751993Y-76451819D01*
X144786557Y-76470294D01*
X144816847Y-76495153D01*
X144841706Y-76525443D01*
X144860181Y-76560007D01*
X144871555Y-76597501D01*
X144876000Y-76642638D01*
X144876000Y-77281362D01*
X144871555Y-77326499D01*
X144860181Y-77363993D01*
X144841706Y-77398557D01*
X144816847Y-77428847D01*
X144786557Y-77453706D01*
X144751993Y-77472181D01*
X144714499Y-77483555D01*
X144669362Y-77488000D01*
X143930638Y-77488000D01*
X143885501Y-77483555D01*
X143848007Y-77472181D01*
X143813443Y-77453706D01*
X143783153Y-77428847D01*
X143758294Y-77398557D01*
X143739819Y-77363993D01*
X143728445Y-77326499D01*
X143724000Y-77281362D01*
X143724000Y-76642638D01*
X143728445Y-76597501D01*
X143739819Y-76560007D01*
X143758294Y-76525443D01*
X143783153Y-76495153D01*
X143813443Y-76470294D01*
X143848007Y-76451819D01*
X143885501Y-76440445D01*
X143930638Y-76436000D01*
X144669362Y-76436000D01*
X144714499Y-76440445D01*
X144714499Y-76440445D01*
G37*
G36*
X146464499Y-76440445D02*
X146501993Y-76451819D01*
X146536557Y-76470294D01*
X146566847Y-76495153D01*
X146591706Y-76525443D01*
X146610181Y-76560007D01*
X146621555Y-76597501D01*
X146626000Y-76642638D01*
X146626000Y-77281362D01*
X146621555Y-77326499D01*
X146610181Y-77363993D01*
X146591706Y-77398557D01*
X146566847Y-77428847D01*
X146536557Y-77453706D01*
X146501993Y-77472181D01*
X146464499Y-77483555D01*
X146419362Y-77488000D01*
X145680638Y-77488000D01*
X145635501Y-77483555D01*
X145598007Y-77472181D01*
X145563443Y-77453706D01*
X145533153Y-77428847D01*
X145508294Y-77398557D01*
X145489819Y-77363993D01*
X145478445Y-77326499D01*
X145474000Y-77281362D01*
X145474000Y-76642638D01*
X145478445Y-76597501D01*
X145489819Y-76560007D01*
X145508294Y-76525443D01*
X145533153Y-76495153D01*
X145563443Y-76470294D01*
X145598007Y-76451819D01*
X145635501Y-76440445D01*
X145680638Y-76436000D01*
X146419362Y-76436000D01*
X146464499Y-76440445D01*
X146464499Y-76440445D01*
G37*
G36*
X131349814Y-74488795D02*
X131421781Y-74495883D01*
X131535007Y-74530230D01*
X131591621Y-74547403D01*
X131677397Y-74593252D01*
X131748145Y-74631068D01*
X131783883Y-74660398D01*
X131885340Y-74743660D01*
X131968602Y-74845117D01*
X131997932Y-74880855D01*
X131997933Y-74880857D01*
X132081597Y-75037379D01*
X132081597Y-75037380D01*
X132133117Y-75207219D01*
X132150513Y-75383846D01*
X132133117Y-75560473D01*
X132098770Y-75673699D01*
X132081597Y-75730313D01*
X132007502Y-75868933D01*
X131997932Y-75886837D01*
X131968602Y-75922575D01*
X131885340Y-76024032D01*
X131783883Y-76107294D01*
X131748145Y-76136624D01*
X131748143Y-76136625D01*
X131591621Y-76220289D01*
X131535007Y-76237462D01*
X131421781Y-76271809D01*
X131355596Y-76278328D01*
X131289414Y-76284846D01*
X131200894Y-76284846D01*
X131134712Y-76278328D01*
X131068527Y-76271809D01*
X130955301Y-76237462D01*
X130898687Y-76220289D01*
X130742165Y-76136625D01*
X130742163Y-76136624D01*
X130706425Y-76107294D01*
X130604968Y-76024032D01*
X130521706Y-75922575D01*
X130492376Y-75886837D01*
X130482806Y-75868933D01*
X130408711Y-75730313D01*
X130391538Y-75673699D01*
X130357191Y-75560473D01*
X130339795Y-75383846D01*
X130357191Y-75207219D01*
X130408711Y-75037380D01*
X130408711Y-75037379D01*
X130492375Y-74880857D01*
X130492376Y-74880855D01*
X130521706Y-74845117D01*
X130604968Y-74743660D01*
X130706425Y-74660398D01*
X130742163Y-74631068D01*
X130812911Y-74593252D01*
X130898687Y-74547403D01*
X130955301Y-74530230D01*
X131068527Y-74495883D01*
X131140494Y-74488795D01*
X131200894Y-74482846D01*
X131289414Y-74482846D01*
X131349814Y-74488795D01*
X131349814Y-74488795D01*
G37*
G36*
X127757711Y-74488795D02*
X127829678Y-74495883D01*
X127942904Y-74530230D01*
X127999518Y-74547403D01*
X128085294Y-74593252D01*
X128156042Y-74631068D01*
X128191780Y-74660398D01*
X128293237Y-74743660D01*
X128376499Y-74845117D01*
X128405829Y-74880855D01*
X128405830Y-74880857D01*
X128489494Y-75037379D01*
X128489494Y-75037380D01*
X128541014Y-75207219D01*
X128558410Y-75383846D01*
X128541014Y-75560473D01*
X128506667Y-75673699D01*
X128489494Y-75730313D01*
X128415399Y-75868933D01*
X128405829Y-75886837D01*
X128376499Y-75922575D01*
X128293237Y-76024032D01*
X128191780Y-76107294D01*
X128156042Y-76136624D01*
X128156040Y-76136625D01*
X127999518Y-76220289D01*
X127942904Y-76237462D01*
X127829678Y-76271809D01*
X127763493Y-76278328D01*
X127697311Y-76284846D01*
X127608791Y-76284846D01*
X127542609Y-76278328D01*
X127476424Y-76271809D01*
X127363198Y-76237462D01*
X127306584Y-76220289D01*
X127150062Y-76136625D01*
X127150060Y-76136624D01*
X127114322Y-76107294D01*
X127012865Y-76024032D01*
X126929603Y-75922575D01*
X126900273Y-75886837D01*
X126890703Y-75868933D01*
X126816608Y-75730313D01*
X126799435Y-75673699D01*
X126765088Y-75560473D01*
X126747692Y-75383846D01*
X126765088Y-75207219D01*
X126816608Y-75037380D01*
X126816608Y-75037379D01*
X126900272Y-74880857D01*
X126900273Y-74880855D01*
X126929603Y-74845117D01*
X127012865Y-74743660D01*
X127114322Y-74660398D01*
X127150060Y-74631068D01*
X127220808Y-74593252D01*
X127306584Y-74547403D01*
X127363198Y-74530230D01*
X127476424Y-74495883D01*
X127548391Y-74488795D01*
X127608791Y-74482846D01*
X127697311Y-74482846D01*
X127757711Y-74488795D01*
X127757711Y-74488795D01*
G37*
G36*
X172178000Y-75128000D02*
X170976000Y-75128000D01*
X170976000Y-70426000D01*
X172178000Y-70426000D01*
X172178000Y-75128000D01*
X172178000Y-75128000D01*
G37*
G36*
X174718000Y-75128000D02*
X173516000Y-75128000D01*
X173516000Y-70426000D01*
X174718000Y-70426000D01*
X174718000Y-75128000D01*
X174718000Y-75128000D01*
G37*
G36*
X169638000Y-75128000D02*
X168436000Y-75128000D01*
X168436000Y-70426000D01*
X169638000Y-70426000D01*
X169638000Y-75128000D01*
X169638000Y-75128000D01*
G37*
G36*
X183673173Y-73508040D02*
X183710860Y-73519473D01*
X183745599Y-73538041D01*
X183776044Y-73563027D01*
X183801030Y-73593472D01*
X183819598Y-73628211D01*
X183831031Y-73665898D01*
X183835496Y-73711236D01*
X183835496Y-74547914D01*
X183831031Y-74593252D01*
X183819598Y-74630939D01*
X183801030Y-74665678D01*
X183776044Y-74696123D01*
X183745599Y-74721109D01*
X183710860Y-74739677D01*
X183673173Y-74751110D01*
X183627835Y-74755575D01*
X182541157Y-74755575D01*
X182495819Y-74751110D01*
X182458132Y-74739677D01*
X182423393Y-74721109D01*
X182392948Y-74696123D01*
X182367962Y-74665678D01*
X182349394Y-74630939D01*
X182337961Y-74593252D01*
X182333496Y-74547914D01*
X182333496Y-73711236D01*
X182337961Y-73665898D01*
X182349394Y-73628211D01*
X182367962Y-73593472D01*
X182392948Y-73563027D01*
X182423393Y-73538041D01*
X182458132Y-73519473D01*
X182495819Y-73508040D01*
X182541157Y-73503575D01*
X183627835Y-73503575D01*
X183673173Y-73508040D01*
X183673173Y-73508040D01*
G37*
G36*
X133145865Y-72692744D02*
X133217832Y-72699832D01*
X133331058Y-72734179D01*
X133387672Y-72751352D01*
X133526292Y-72825447D01*
X133544196Y-72835017D01*
X133579934Y-72864347D01*
X133681391Y-72947609D01*
X133764653Y-73049066D01*
X133793983Y-73084804D01*
X133793984Y-73084806D01*
X133877648Y-73241328D01*
X133877648Y-73241329D01*
X133929168Y-73411168D01*
X133946564Y-73587795D01*
X133929168Y-73764422D01*
X133925732Y-73775748D01*
X133877648Y-73934262D01*
X133803553Y-74072882D01*
X133793983Y-74090786D01*
X133764653Y-74126524D01*
X133681391Y-74227981D01*
X133579934Y-74311243D01*
X133544196Y-74340573D01*
X133544194Y-74340574D01*
X133387672Y-74424238D01*
X133331058Y-74441411D01*
X133217832Y-74475758D01*
X133151648Y-74482276D01*
X133085465Y-74488795D01*
X132996945Y-74488795D01*
X132930762Y-74482276D01*
X132864578Y-74475758D01*
X132751352Y-74441411D01*
X132694738Y-74424238D01*
X132538216Y-74340574D01*
X132538214Y-74340573D01*
X132502476Y-74311243D01*
X132401019Y-74227981D01*
X132317757Y-74126524D01*
X132288427Y-74090786D01*
X132278857Y-74072882D01*
X132204762Y-73934262D01*
X132156678Y-73775748D01*
X132153242Y-73764422D01*
X132135846Y-73587795D01*
X132153242Y-73411168D01*
X132204762Y-73241329D01*
X132204762Y-73241328D01*
X132288426Y-73084806D01*
X132288427Y-73084804D01*
X132317757Y-73049066D01*
X132401019Y-72947609D01*
X132502476Y-72864347D01*
X132538214Y-72835017D01*
X132556118Y-72825447D01*
X132694738Y-72751352D01*
X132751352Y-72734179D01*
X132864578Y-72699832D01*
X132936545Y-72692744D01*
X132996945Y-72686795D01*
X133085465Y-72686795D01*
X133145865Y-72692744D01*
X133145865Y-72692744D01*
G37*
G36*
X129553762Y-72692744D02*
X129625729Y-72699832D01*
X129738955Y-72734179D01*
X129795569Y-72751352D01*
X129934189Y-72825447D01*
X129952093Y-72835017D01*
X129987831Y-72864347D01*
X130089288Y-72947609D01*
X130172550Y-73049066D01*
X130201880Y-73084804D01*
X130201881Y-73084806D01*
X130285545Y-73241328D01*
X130285545Y-73241329D01*
X130337065Y-73411168D01*
X130354461Y-73587795D01*
X130337065Y-73764422D01*
X130333629Y-73775748D01*
X130285545Y-73934262D01*
X130211450Y-74072882D01*
X130201880Y-74090786D01*
X130172550Y-74126524D01*
X130089288Y-74227981D01*
X129987831Y-74311243D01*
X129952093Y-74340573D01*
X129952091Y-74340574D01*
X129795569Y-74424238D01*
X129738955Y-74441411D01*
X129625729Y-74475758D01*
X129559545Y-74482276D01*
X129493362Y-74488795D01*
X129404842Y-74488795D01*
X129338659Y-74482276D01*
X129272475Y-74475758D01*
X129159249Y-74441411D01*
X129102635Y-74424238D01*
X128946113Y-74340574D01*
X128946111Y-74340573D01*
X128910373Y-74311243D01*
X128808916Y-74227981D01*
X128725654Y-74126524D01*
X128696324Y-74090786D01*
X128686754Y-74072882D01*
X128612659Y-73934262D01*
X128564575Y-73775748D01*
X128561139Y-73764422D01*
X128543743Y-73587795D01*
X128561139Y-73411168D01*
X128612659Y-73241329D01*
X128612659Y-73241328D01*
X128696323Y-73084806D01*
X128696324Y-73084804D01*
X128725654Y-73049066D01*
X128808916Y-72947609D01*
X128910373Y-72864347D01*
X128946111Y-72835017D01*
X128964015Y-72825447D01*
X129102635Y-72751352D01*
X129159249Y-72734179D01*
X129272475Y-72699832D01*
X129344442Y-72692744D01*
X129404842Y-72686795D01*
X129493362Y-72686795D01*
X129553762Y-72692744D01*
X129553762Y-72692744D01*
G37*
G36*
X100197256Y-69638298D02*
X100303579Y-69659447D01*
X100604042Y-69783903D01*
X100858517Y-69953938D01*
X100874454Y-69964587D01*
X101104413Y-70194546D01*
X101104415Y-70194549D01*
X101232416Y-70386115D01*
X101285098Y-70464960D01*
X101409553Y-70765422D01*
X101473000Y-71084389D01*
X101473000Y-71409611D01*
X101409553Y-71728578D01*
X101285098Y-72029040D01*
X101104413Y-72299454D01*
X100874454Y-72529413D01*
X100874451Y-72529415D01*
X100604042Y-72710097D01*
X100303579Y-72834553D01*
X100197256Y-72855702D01*
X99984611Y-72898000D01*
X99659389Y-72898000D01*
X99446744Y-72855702D01*
X99340421Y-72834553D01*
X99039958Y-72710097D01*
X98769549Y-72529415D01*
X98769546Y-72529413D01*
X98539587Y-72299454D01*
X98358902Y-72029040D01*
X98234447Y-71728578D01*
X98171000Y-71409611D01*
X98171000Y-71084389D01*
X98234447Y-70765422D01*
X98358902Y-70464960D01*
X98411585Y-70386115D01*
X98539585Y-70194549D01*
X98539587Y-70194546D01*
X98769546Y-69964587D01*
X98785483Y-69953938D01*
X99039958Y-69783903D01*
X99340421Y-69659447D01*
X99446744Y-69638298D01*
X99659389Y-69596000D01*
X99984611Y-69596000D01*
X100197256Y-69638298D01*
X100197256Y-69638298D01*
G37*
G36*
X192272256Y-69638298D02*
X192378579Y-69659447D01*
X192679042Y-69783903D01*
X192933517Y-69953938D01*
X192949454Y-69964587D01*
X193179413Y-70194546D01*
X193179415Y-70194549D01*
X193307416Y-70386115D01*
X193360098Y-70464960D01*
X193484553Y-70765422D01*
X193548000Y-71084389D01*
X193548000Y-71409611D01*
X193484553Y-71728578D01*
X193360098Y-72029040D01*
X193179413Y-72299454D01*
X192949454Y-72529413D01*
X192949451Y-72529415D01*
X192679042Y-72710097D01*
X192378579Y-72834553D01*
X192272256Y-72855702D01*
X192059611Y-72898000D01*
X191734389Y-72898000D01*
X191521744Y-72855702D01*
X191415421Y-72834553D01*
X191114958Y-72710097D01*
X190844549Y-72529415D01*
X190844546Y-72529413D01*
X190614587Y-72299454D01*
X190433902Y-72029040D01*
X190309447Y-71728578D01*
X190246000Y-71409611D01*
X190246000Y-71084389D01*
X190309447Y-70765422D01*
X190433902Y-70464960D01*
X190486585Y-70386115D01*
X190614585Y-70194549D01*
X190614587Y-70194546D01*
X190844546Y-69964587D01*
X190860483Y-69953938D01*
X191114958Y-69783903D01*
X191415421Y-69659447D01*
X191521744Y-69638298D01*
X191734389Y-69596000D01*
X192059611Y-69596000D01*
X192272256Y-69638298D01*
X192272256Y-69638298D01*
G37*
G36*
X183673173Y-71458040D02*
X183710860Y-71469473D01*
X183745599Y-71488041D01*
X183776044Y-71513027D01*
X183801030Y-71543472D01*
X183819598Y-71578211D01*
X183831031Y-71615898D01*
X183835496Y-71661236D01*
X183835496Y-72497914D01*
X183831031Y-72543252D01*
X183819598Y-72580939D01*
X183801030Y-72615678D01*
X183776044Y-72646123D01*
X183745599Y-72671109D01*
X183710860Y-72689677D01*
X183673173Y-72701110D01*
X183627835Y-72705575D01*
X182541157Y-72705575D01*
X182495819Y-72701110D01*
X182458132Y-72689677D01*
X182423393Y-72671109D01*
X182392948Y-72646123D01*
X182367962Y-72615678D01*
X182349394Y-72580939D01*
X182337961Y-72543252D01*
X182333496Y-72497914D01*
X182333496Y-71661236D01*
X182337961Y-71615898D01*
X182349394Y-71578211D01*
X182367962Y-71543472D01*
X182392948Y-71513027D01*
X182423393Y-71488041D01*
X182458132Y-71469473D01*
X182495819Y-71458040D01*
X182541157Y-71453575D01*
X183627835Y-71453575D01*
X183673173Y-71458040D01*
X183673173Y-71458040D01*
G37*
G36*
X131355597Y-70897263D02*
X131421781Y-70903781D01*
X131535007Y-70938128D01*
X131591621Y-70955301D01*
X131730241Y-71029396D01*
X131748145Y-71038966D01*
X131783883Y-71068296D01*
X131885340Y-71151558D01*
X131963666Y-71247000D01*
X131997932Y-71288753D01*
X131997933Y-71288755D01*
X132081597Y-71445277D01*
X132090399Y-71474293D01*
X132133117Y-71615117D01*
X132150513Y-71791744D01*
X132133117Y-71968371D01*
X132098770Y-72081597D01*
X132081597Y-72138211D01*
X132007502Y-72276831D01*
X131997932Y-72294735D01*
X131994059Y-72299454D01*
X131885340Y-72431930D01*
X131818845Y-72486500D01*
X131748145Y-72544522D01*
X131748143Y-72544523D01*
X131591621Y-72628187D01*
X131535007Y-72645360D01*
X131421781Y-72679707D01*
X131369491Y-72684857D01*
X131289414Y-72692744D01*
X131200894Y-72692744D01*
X131120817Y-72684857D01*
X131068527Y-72679707D01*
X130955301Y-72645360D01*
X130898687Y-72628187D01*
X130742165Y-72544523D01*
X130742163Y-72544522D01*
X130671463Y-72486500D01*
X130604968Y-72431930D01*
X130496249Y-72299454D01*
X130492376Y-72294735D01*
X130482806Y-72276831D01*
X130408711Y-72138211D01*
X130391538Y-72081597D01*
X130357191Y-71968371D01*
X130339795Y-71791744D01*
X130357191Y-71615117D01*
X130399909Y-71474293D01*
X130408711Y-71445277D01*
X130492375Y-71288755D01*
X130492376Y-71288753D01*
X130526642Y-71247000D01*
X130604968Y-71151558D01*
X130706425Y-71068296D01*
X130742163Y-71038966D01*
X130760067Y-71029396D01*
X130898687Y-70955301D01*
X130955301Y-70938128D01*
X131068527Y-70903781D01*
X131134711Y-70897263D01*
X131200894Y-70890744D01*
X131289414Y-70890744D01*
X131355597Y-70897263D01*
X131355597Y-70897263D01*
G37*
G36*
X122051207Y-71247000D02*
X120777000Y-72521207D01*
X119502793Y-71247000D01*
X120777000Y-69972793D01*
X122051207Y-71247000D01*
X122051207Y-71247000D01*
G37*
G36*
X147226499Y-69455445D02*
X147263993Y-69466819D01*
X147298557Y-69485294D01*
X147328847Y-69510153D01*
X147353706Y-69540443D01*
X147372181Y-69575007D01*
X147383555Y-69612501D01*
X147388000Y-69657638D01*
X147388000Y-70296362D01*
X147383555Y-70341499D01*
X147372181Y-70378993D01*
X147353706Y-70413557D01*
X147328847Y-70443847D01*
X147298557Y-70468706D01*
X147263993Y-70487181D01*
X147226499Y-70498555D01*
X147181362Y-70503000D01*
X146442638Y-70503000D01*
X146397501Y-70498555D01*
X146360007Y-70487181D01*
X146325443Y-70468706D01*
X146295153Y-70443847D01*
X146270294Y-70413557D01*
X146251819Y-70378993D01*
X146240445Y-70341499D01*
X146236000Y-70296362D01*
X146236000Y-69657638D01*
X146240445Y-69612501D01*
X146251819Y-69575007D01*
X146270294Y-69540443D01*
X146295153Y-69510153D01*
X146325443Y-69485294D01*
X146360007Y-69466819D01*
X146397501Y-69455445D01*
X146442638Y-69451000D01*
X147181362Y-69451000D01*
X147226499Y-69455445D01*
X147226499Y-69455445D01*
G37*
G36*
X145476499Y-69455445D02*
X145513993Y-69466819D01*
X145548557Y-69485294D01*
X145578847Y-69510153D01*
X145603706Y-69540443D01*
X145622181Y-69575007D01*
X145633555Y-69612501D01*
X145638000Y-69657638D01*
X145638000Y-70296362D01*
X145633555Y-70341499D01*
X145622181Y-70378993D01*
X145603706Y-70413557D01*
X145578847Y-70443847D01*
X145548557Y-70468706D01*
X145513993Y-70487181D01*
X145476499Y-70498555D01*
X145431362Y-70503000D01*
X144692638Y-70503000D01*
X144647501Y-70498555D01*
X144610007Y-70487181D01*
X144575443Y-70468706D01*
X144545153Y-70443847D01*
X144520294Y-70413557D01*
X144501819Y-70378993D01*
X144490445Y-70341499D01*
X144486000Y-70296362D01*
X144486000Y-69657638D01*
X144490445Y-69612501D01*
X144501819Y-69575007D01*
X144520294Y-69540443D01*
X144545153Y-69510153D01*
X144575443Y-69485294D01*
X144610007Y-69466819D01*
X144647501Y-69455445D01*
X144692638Y-69451000D01*
X145431362Y-69451000D01*
X145476499Y-69455445D01*
X145476499Y-69455445D01*
G37*
G36*
X119085609Y-68555898D02*
X119157576Y-68562986D01*
X119270802Y-68597333D01*
X119327416Y-68614506D01*
X119466036Y-68688601D01*
X119483940Y-68698171D01*
X119519678Y-68727501D01*
X119621135Y-68810763D01*
X119704397Y-68912220D01*
X119733727Y-68947958D01*
X119733728Y-68947960D01*
X119817392Y-69104482D01*
X119817392Y-69104483D01*
X119868912Y-69274322D01*
X119886308Y-69450949D01*
X119868912Y-69627576D01*
X119834565Y-69740802D01*
X119817392Y-69797416D01*
X119743297Y-69936036D01*
X119733727Y-69953940D01*
X119718254Y-69972794D01*
X119621135Y-70091135D01*
X119519678Y-70174397D01*
X119483940Y-70203727D01*
X119483938Y-70203728D01*
X119327416Y-70287392D01*
X119297845Y-70296362D01*
X119157576Y-70338912D01*
X119091392Y-70345430D01*
X119025209Y-70351949D01*
X118936689Y-70351949D01*
X118870506Y-70345430D01*
X118804322Y-70338912D01*
X118664053Y-70296362D01*
X118634482Y-70287392D01*
X118477960Y-70203728D01*
X118477958Y-70203727D01*
X118442220Y-70174397D01*
X118340763Y-70091135D01*
X118243644Y-69972794D01*
X118228171Y-69953940D01*
X118218601Y-69936036D01*
X118144506Y-69797416D01*
X118127333Y-69740802D01*
X118092986Y-69627576D01*
X118075590Y-69450949D01*
X118092986Y-69274322D01*
X118144506Y-69104483D01*
X118144506Y-69104482D01*
X118228170Y-68947960D01*
X118228171Y-68947958D01*
X118257501Y-68912220D01*
X118340763Y-68810763D01*
X118442220Y-68727501D01*
X118477958Y-68698171D01*
X118495862Y-68688601D01*
X118634482Y-68614506D01*
X118691096Y-68597333D01*
X118804322Y-68562986D01*
X118876289Y-68555898D01*
X118936689Y-68549949D01*
X119025209Y-68549949D01*
X119085609Y-68555898D01*
X119085609Y-68555898D01*
G37*
G36*
X122677711Y-68555898D02*
X122749678Y-68562986D01*
X122862904Y-68597333D01*
X122919518Y-68614506D01*
X123058138Y-68688601D01*
X123076042Y-68698171D01*
X123111780Y-68727501D01*
X123213237Y-68810763D01*
X123296499Y-68912220D01*
X123325829Y-68947958D01*
X123325830Y-68947960D01*
X123409494Y-69104482D01*
X123409494Y-69104483D01*
X123461014Y-69274322D01*
X123478410Y-69450949D01*
X123461014Y-69627576D01*
X123426667Y-69740802D01*
X123409494Y-69797416D01*
X123335399Y-69936036D01*
X123325829Y-69953940D01*
X123310356Y-69972794D01*
X123213237Y-70091135D01*
X123111780Y-70174397D01*
X123076042Y-70203727D01*
X123076040Y-70203728D01*
X122919518Y-70287392D01*
X122889947Y-70296362D01*
X122749678Y-70338912D01*
X122683494Y-70345430D01*
X122617311Y-70351949D01*
X122528791Y-70351949D01*
X122462608Y-70345430D01*
X122396424Y-70338912D01*
X122256155Y-70296362D01*
X122226584Y-70287392D01*
X122070062Y-70203728D01*
X122070060Y-70203727D01*
X122034322Y-70174397D01*
X121932865Y-70091135D01*
X121835746Y-69972794D01*
X121820273Y-69953940D01*
X121810703Y-69936036D01*
X121736608Y-69797416D01*
X121719435Y-69740802D01*
X121685088Y-69627576D01*
X121667692Y-69450949D01*
X121685088Y-69274322D01*
X121736608Y-69104483D01*
X121736608Y-69104482D01*
X121820272Y-68947960D01*
X121820273Y-68947958D01*
X121849603Y-68912220D01*
X121932865Y-68810763D01*
X122034322Y-68727501D01*
X122070060Y-68698171D01*
X122087964Y-68688601D01*
X122226584Y-68614506D01*
X122283198Y-68597333D01*
X122396424Y-68562986D01*
X122468391Y-68555898D01*
X122528791Y-68549949D01*
X122617311Y-68549949D01*
X122677711Y-68555898D01*
X122677711Y-68555898D01*
G37*
G36*
X120881650Y-66759846D02*
X120953627Y-66766935D01*
X121066853Y-66801282D01*
X121123467Y-66818455D01*
X121262087Y-66892550D01*
X121279991Y-66902120D01*
X121315729Y-66931450D01*
X121417186Y-67014712D01*
X121500448Y-67116169D01*
X121529778Y-67151907D01*
X121529779Y-67151909D01*
X121613443Y-67308431D01*
X121613443Y-67308432D01*
X121664963Y-67478271D01*
X121682359Y-67654898D01*
X121664963Y-67831525D01*
X121638246Y-67919600D01*
X121613443Y-68001365D01*
X121542867Y-68133402D01*
X121529778Y-68157889D01*
X121506297Y-68186500D01*
X121417186Y-68295084D01*
X121324548Y-68371109D01*
X121279991Y-68407676D01*
X121279989Y-68407677D01*
X121123467Y-68491341D01*
X121066853Y-68508514D01*
X120953627Y-68542861D01*
X120887442Y-68549380D01*
X120821260Y-68555898D01*
X120732740Y-68555898D01*
X120666558Y-68549380D01*
X120600373Y-68542861D01*
X120487147Y-68508514D01*
X120430533Y-68491341D01*
X120274011Y-68407677D01*
X120274009Y-68407676D01*
X120229452Y-68371109D01*
X120136814Y-68295084D01*
X120047703Y-68186500D01*
X120024222Y-68157889D01*
X120011133Y-68133402D01*
X119940557Y-68001365D01*
X119915754Y-67919600D01*
X119889037Y-67831525D01*
X119871641Y-67654898D01*
X119889037Y-67478271D01*
X119940557Y-67308432D01*
X119940557Y-67308431D01*
X120024221Y-67151909D01*
X120024222Y-67151907D01*
X120053552Y-67116169D01*
X120136814Y-67014712D01*
X120238271Y-66931450D01*
X120274009Y-66902120D01*
X120291913Y-66892550D01*
X120430533Y-66818455D01*
X120487147Y-66801282D01*
X120600373Y-66766935D01*
X120672350Y-66759846D01*
X120732740Y-66753898D01*
X120821260Y-66753898D01*
X120881650Y-66759846D01*
X120881650Y-66759846D01*
G37*
G36*
X124473752Y-66759846D02*
X124545729Y-66766935D01*
X124658955Y-66801282D01*
X124715569Y-66818455D01*
X124854189Y-66892550D01*
X124872093Y-66902120D01*
X124907831Y-66931450D01*
X125009288Y-67014712D01*
X125092550Y-67116169D01*
X125121880Y-67151907D01*
X125121881Y-67151909D01*
X125205545Y-67308431D01*
X125205545Y-67308432D01*
X125257065Y-67478271D01*
X125274461Y-67654898D01*
X125257065Y-67831525D01*
X125230348Y-67919600D01*
X125205545Y-68001365D01*
X125134969Y-68133402D01*
X125121880Y-68157889D01*
X125098399Y-68186500D01*
X125009288Y-68295084D01*
X124916650Y-68371109D01*
X124872093Y-68407676D01*
X124872091Y-68407677D01*
X124715569Y-68491341D01*
X124658955Y-68508514D01*
X124545729Y-68542861D01*
X124479544Y-68549380D01*
X124413362Y-68555898D01*
X124324842Y-68555898D01*
X124258660Y-68549380D01*
X124192475Y-68542861D01*
X124079249Y-68508514D01*
X124022635Y-68491341D01*
X123866113Y-68407677D01*
X123866111Y-68407676D01*
X123821554Y-68371109D01*
X123728916Y-68295084D01*
X123639805Y-68186500D01*
X123616324Y-68157889D01*
X123603235Y-68133402D01*
X123532659Y-68001365D01*
X123507856Y-67919600D01*
X123481139Y-67831525D01*
X123463743Y-67654898D01*
X123481139Y-67478271D01*
X123532659Y-67308432D01*
X123532659Y-67308431D01*
X123616323Y-67151909D01*
X123616324Y-67151907D01*
X123645654Y-67116169D01*
X123728916Y-67014712D01*
X123830373Y-66931450D01*
X123866111Y-66902120D01*
X123884015Y-66892550D01*
X124022635Y-66818455D01*
X124079249Y-66801282D01*
X124192475Y-66766935D01*
X124264452Y-66759846D01*
X124324842Y-66753898D01*
X124413362Y-66753898D01*
X124473752Y-66759846D01*
X124473752Y-66759846D01*
G37*
G36*
X183673173Y-67158040D02*
X183710860Y-67169473D01*
X183745599Y-67188041D01*
X183776044Y-67213027D01*
X183801030Y-67243472D01*
X183819598Y-67278211D01*
X183831031Y-67315898D01*
X183835496Y-67361236D01*
X183835496Y-68197914D01*
X183831031Y-68243252D01*
X183819598Y-68280939D01*
X183801030Y-68315678D01*
X183776044Y-68346123D01*
X183745599Y-68371109D01*
X183710860Y-68389677D01*
X183673173Y-68401110D01*
X183627835Y-68405575D01*
X182541157Y-68405575D01*
X182495819Y-68401110D01*
X182458132Y-68389677D01*
X182423393Y-68371109D01*
X182392948Y-68346123D01*
X182367962Y-68315678D01*
X182349394Y-68280939D01*
X182337961Y-68243252D01*
X182333496Y-68197914D01*
X182333496Y-67361236D01*
X182337961Y-67315898D01*
X182349394Y-67278211D01*
X182367962Y-67243472D01*
X182392948Y-67213027D01*
X182423393Y-67188041D01*
X182458132Y-67169473D01*
X182495819Y-67158040D01*
X182541157Y-67153575D01*
X183627835Y-67153575D01*
X183673173Y-67158040D01*
X183673173Y-67158040D01*
G37*
G36*
X177028000Y-68378000D02*
X166126000Y-68378000D01*
X166126000Y-58876000D01*
X177028000Y-58876000D01*
X177028000Y-68378000D01*
X177028000Y-68378000D01*
G37*
G36*
X158724600Y-67919600D02*
X156997400Y-67919600D01*
X156997400Y-66954400D01*
X158724600Y-66954400D01*
X158724600Y-67919600D01*
X158724600Y-67919600D01*
G37*
G36*
X153136600Y-67919600D02*
X151409400Y-67919600D01*
X151409400Y-66954400D01*
X153136600Y-66954400D01*
X153136600Y-67919600D01*
X153136600Y-67919600D01*
G37*
G36*
X104376096Y-61809033D02*
X104376098Y-61809034D01*
X104376099Y-61809034D01*
X104840352Y-62001333D01*
X105256284Y-62279250D01*
X105258171Y-62280511D01*
X105613489Y-62635829D01*
X105613491Y-62635832D01*
X105892667Y-63053648D01*
X106083957Y-63515465D01*
X106084967Y-63517904D01*
X106183000Y-64010747D01*
X106183000Y-64513253D01*
X106087715Y-64992282D01*
X106084966Y-65006099D01*
X105892667Y-65470352D01*
X105633083Y-65858846D01*
X105613489Y-65888171D01*
X105258171Y-66243489D01*
X105258168Y-66243491D01*
X104840352Y-66522667D01*
X104376099Y-66714966D01*
X104376098Y-66714966D01*
X104376096Y-66714967D01*
X103883253Y-66813000D01*
X103380747Y-66813000D01*
X102887904Y-66714967D01*
X102887902Y-66714966D01*
X102887901Y-66714966D01*
X102423648Y-66522667D01*
X102005832Y-66243491D01*
X102005829Y-66243489D01*
X101650511Y-65888171D01*
X101630917Y-65858846D01*
X101371333Y-65470352D01*
X101179034Y-65006099D01*
X101176286Y-64992282D01*
X101081000Y-64513253D01*
X101081000Y-64010747D01*
X101179033Y-63517904D01*
X101180043Y-63515465D01*
X101371333Y-63053648D01*
X101650509Y-62635832D01*
X101650511Y-62635829D01*
X102005829Y-62280511D01*
X102007716Y-62279250D01*
X102423648Y-62001333D01*
X102887901Y-61809034D01*
X102887902Y-61809034D01*
X102887904Y-61809033D01*
X103380747Y-61711000D01*
X103883253Y-61711000D01*
X104376096Y-61809033D01*
X104376096Y-61809033D01*
G37*
G36*
X122683494Y-64964365D02*
X122749678Y-64970883D01*
X122862904Y-65005230D01*
X122919518Y-65022403D01*
X123058138Y-65096498D01*
X123076042Y-65106068D01*
X123092376Y-65119473D01*
X123213237Y-65218660D01*
X123289211Y-65311236D01*
X123325829Y-65355855D01*
X123325830Y-65355857D01*
X123409494Y-65512379D01*
X123409494Y-65512380D01*
X123461014Y-65682219D01*
X123478410Y-65858846D01*
X123461014Y-66035473D01*
X123446475Y-66083402D01*
X123409494Y-66205313D01*
X123371787Y-66275857D01*
X123325829Y-66361837D01*
X123296499Y-66397575D01*
X123213237Y-66499032D01*
X123111780Y-66582294D01*
X123076042Y-66611624D01*
X123076040Y-66611625D01*
X122919518Y-66695289D01*
X122862904Y-66712462D01*
X122749678Y-66746809D01*
X122683494Y-66753327D01*
X122617311Y-66759846D01*
X122528791Y-66759846D01*
X122462608Y-66753327D01*
X122396424Y-66746809D01*
X122283198Y-66712462D01*
X122226584Y-66695289D01*
X122070062Y-66611625D01*
X122070060Y-66611624D01*
X122034322Y-66582294D01*
X121932865Y-66499032D01*
X121849603Y-66397575D01*
X121820273Y-66361837D01*
X121774315Y-66275857D01*
X121736608Y-66205313D01*
X121699627Y-66083402D01*
X121685088Y-66035473D01*
X121667692Y-65858846D01*
X121685088Y-65682219D01*
X121736608Y-65512380D01*
X121736608Y-65512379D01*
X121820272Y-65355857D01*
X121820273Y-65355855D01*
X121856891Y-65311236D01*
X121932865Y-65218660D01*
X122053726Y-65119473D01*
X122070060Y-65106068D01*
X122087964Y-65096498D01*
X122226584Y-65022403D01*
X122283198Y-65005230D01*
X122396424Y-64970883D01*
X122462608Y-64964365D01*
X122528791Y-64957846D01*
X122617311Y-64957846D01*
X122683494Y-64964365D01*
X122683494Y-64964365D01*
G37*
G36*
X183673173Y-65108040D02*
X183710860Y-65119473D01*
X183745599Y-65138041D01*
X183776044Y-65163027D01*
X183801030Y-65193472D01*
X183819598Y-65228211D01*
X183831031Y-65265898D01*
X183835496Y-65311236D01*
X183835496Y-66147914D01*
X183831031Y-66193252D01*
X183819598Y-66230939D01*
X183801030Y-66265678D01*
X183776044Y-66296123D01*
X183745599Y-66321109D01*
X183710860Y-66339677D01*
X183673173Y-66351110D01*
X183627835Y-66355575D01*
X182541157Y-66355575D01*
X182495819Y-66351110D01*
X182458132Y-66339677D01*
X182423393Y-66321109D01*
X182392948Y-66296123D01*
X182367962Y-66265678D01*
X182349394Y-66230939D01*
X182337961Y-66193252D01*
X182333496Y-66147914D01*
X182333496Y-65311236D01*
X182337961Y-65265898D01*
X182349394Y-65228211D01*
X182367962Y-65193472D01*
X182392948Y-65163027D01*
X182423393Y-65138041D01*
X182458132Y-65119473D01*
X182495819Y-65108040D01*
X182541157Y-65103575D01*
X183627835Y-65103575D01*
X183673173Y-65108040D01*
X183673173Y-65108040D01*
G37*
G36*
X145225677Y-63515465D02*
X145263364Y-63526898D01*
X145298103Y-63545466D01*
X145328548Y-63570452D01*
X145353534Y-63600897D01*
X145372102Y-63635636D01*
X145383535Y-63673323D01*
X145388000Y-63718661D01*
X145388000Y-64805339D01*
X145383535Y-64850677D01*
X145372102Y-64888364D01*
X145353534Y-64923103D01*
X145328548Y-64953548D01*
X145298103Y-64978534D01*
X145263364Y-64997102D01*
X145225677Y-65008535D01*
X145180339Y-65013000D01*
X144343661Y-65013000D01*
X144298323Y-65008535D01*
X144260636Y-64997102D01*
X144225897Y-64978534D01*
X144195452Y-64953548D01*
X144170466Y-64923103D01*
X144151898Y-64888364D01*
X144140465Y-64850677D01*
X144136000Y-64805339D01*
X144136000Y-63718661D01*
X144140465Y-63673323D01*
X144151898Y-63635636D01*
X144170466Y-63600897D01*
X144195452Y-63570452D01*
X144225897Y-63545466D01*
X144260636Y-63526898D01*
X144298323Y-63515465D01*
X144343661Y-63511000D01*
X145180339Y-63511000D01*
X145225677Y-63515465D01*
X145225677Y-63515465D01*
G37*
G36*
X147275677Y-63515465D02*
X147313364Y-63526898D01*
X147348103Y-63545466D01*
X147378548Y-63570452D01*
X147403534Y-63600897D01*
X147422102Y-63635636D01*
X147433535Y-63673323D01*
X147438000Y-63718661D01*
X147438000Y-64805339D01*
X147433535Y-64850677D01*
X147422102Y-64888364D01*
X147403534Y-64923103D01*
X147378548Y-64953548D01*
X147348103Y-64978534D01*
X147313364Y-64997102D01*
X147275677Y-65008535D01*
X147230339Y-65013000D01*
X146393661Y-65013000D01*
X146348323Y-65008535D01*
X146310636Y-64997102D01*
X146275897Y-64978534D01*
X146245452Y-64953548D01*
X146220466Y-64923103D01*
X146201898Y-64888364D01*
X146190465Y-64850677D01*
X146186000Y-64805339D01*
X146186000Y-63718661D01*
X146190465Y-63673323D01*
X146201898Y-63635636D01*
X146220466Y-63600897D01*
X146245452Y-63570452D01*
X146275897Y-63545466D01*
X146310636Y-63526898D01*
X146348323Y-63515465D01*
X146393661Y-63511000D01*
X147230339Y-63511000D01*
X147275677Y-63515465D01*
X147275677Y-63515465D01*
G37*
G36*
X189878762Y-62514051D02*
X189950729Y-62521139D01*
X190063955Y-62555486D01*
X190120569Y-62572659D01*
X190259189Y-62646754D01*
X190277093Y-62656324D01*
X190312831Y-62685654D01*
X190414288Y-62768916D01*
X190497550Y-62870373D01*
X190526880Y-62906111D01*
X190526881Y-62906113D01*
X190610545Y-63062635D01*
X190610545Y-63062636D01*
X190662065Y-63232475D01*
X190679461Y-63409102D01*
X190662065Y-63585729D01*
X190648040Y-63631962D01*
X190610545Y-63755569D01*
X190595790Y-63783173D01*
X190526880Y-63912093D01*
X190497550Y-63947831D01*
X190414288Y-64049288D01*
X190312831Y-64132550D01*
X190277093Y-64161880D01*
X190277091Y-64161881D01*
X190120569Y-64245545D01*
X190063955Y-64262718D01*
X189950729Y-64297065D01*
X189884544Y-64303584D01*
X189818362Y-64310102D01*
X189729842Y-64310102D01*
X189663660Y-64303584D01*
X189597475Y-64297065D01*
X189484249Y-64262718D01*
X189427635Y-64245545D01*
X189271113Y-64161881D01*
X189271111Y-64161880D01*
X189235373Y-64132550D01*
X189133916Y-64049288D01*
X189050654Y-63947831D01*
X189021324Y-63912093D01*
X188952414Y-63783173D01*
X188937659Y-63755569D01*
X188900164Y-63631962D01*
X188886139Y-63585729D01*
X188868743Y-63409102D01*
X188886139Y-63232475D01*
X188937659Y-63062636D01*
X188937659Y-63062635D01*
X189021323Y-62906113D01*
X189021324Y-62906111D01*
X189050654Y-62870373D01*
X189133916Y-62768916D01*
X189235373Y-62685654D01*
X189271111Y-62656324D01*
X189289015Y-62646754D01*
X189427635Y-62572659D01*
X189484249Y-62555486D01*
X189597475Y-62521139D01*
X189669442Y-62514051D01*
X189729842Y-62508102D01*
X189818362Y-62508102D01*
X189878762Y-62514051D01*
X189878762Y-62514051D01*
G37*
G36*
X153136600Y-64109600D02*
X151409400Y-64109600D01*
X151409400Y-63144400D01*
X153136600Y-63144400D01*
X153136600Y-64109600D01*
X153136600Y-64109600D01*
G37*
G36*
X158724600Y-64109600D02*
X156997400Y-64109600D01*
X156997400Y-63144400D01*
X158724600Y-63144400D01*
X158724600Y-64109600D01*
X158724600Y-64109600D01*
G37*
G36*
X188088494Y-60718570D02*
X188154678Y-60725088D01*
X188267904Y-60759435D01*
X188324518Y-60776608D01*
X188383567Y-60808171D01*
X188481042Y-60860273D01*
X188516780Y-60889603D01*
X188618237Y-60972865D01*
X188701499Y-61074322D01*
X188730829Y-61110060D01*
X188730830Y-61110062D01*
X188814494Y-61266584D01*
X188814494Y-61266585D01*
X188866014Y-61436424D01*
X188883410Y-61613051D01*
X188866014Y-61789678D01*
X188860142Y-61809034D01*
X188814494Y-61959518D01*
X188740399Y-62098138D01*
X188730829Y-62116042D01*
X188701499Y-62151780D01*
X188618237Y-62253237D01*
X188516780Y-62336499D01*
X188481042Y-62365829D01*
X188481040Y-62365830D01*
X188324518Y-62449494D01*
X188267904Y-62466667D01*
X188154678Y-62501014D01*
X188088494Y-62507532D01*
X188022311Y-62514051D01*
X187933791Y-62514051D01*
X187867608Y-62507532D01*
X187801424Y-62501014D01*
X187688198Y-62466667D01*
X187631584Y-62449494D01*
X187475062Y-62365830D01*
X187475060Y-62365829D01*
X187439322Y-62336499D01*
X187337865Y-62253237D01*
X187254603Y-62151780D01*
X187225273Y-62116042D01*
X187215703Y-62098138D01*
X187141608Y-61959518D01*
X187095960Y-61809034D01*
X187090088Y-61789678D01*
X187072692Y-61613051D01*
X187090088Y-61436424D01*
X187141608Y-61266585D01*
X187141608Y-61266584D01*
X187225272Y-61110062D01*
X187225273Y-61110060D01*
X187254603Y-61074322D01*
X187337865Y-60972865D01*
X187439322Y-60889603D01*
X187475060Y-60860273D01*
X187572535Y-60808171D01*
X187631584Y-60776608D01*
X187688198Y-60759435D01*
X187801424Y-60725088D01*
X187867608Y-60718570D01*
X187933791Y-60712051D01*
X188022311Y-60712051D01*
X188088494Y-60718570D01*
X188088494Y-60718570D01*
G37*
G36*
X109456096Y-56729033D02*
X109456098Y-56729034D01*
X109456099Y-56729034D01*
X109920352Y-56921333D01*
X110336284Y-57199250D01*
X110338171Y-57200511D01*
X110693489Y-57555829D01*
X110693491Y-57555832D01*
X110972667Y-57973648D01*
X111164966Y-58437901D01*
X111164967Y-58437904D01*
X111263000Y-58930747D01*
X111263000Y-59433253D01*
X111186668Y-59817000D01*
X111164966Y-59926099D01*
X110972667Y-60390352D01*
X110757714Y-60712051D01*
X110693489Y-60808171D01*
X110338171Y-61163489D01*
X110338168Y-61163491D01*
X109920352Y-61442667D01*
X109456099Y-61634966D01*
X109456098Y-61634966D01*
X109456096Y-61634967D01*
X108963253Y-61733000D01*
X108460747Y-61733000D01*
X107967904Y-61634967D01*
X107967902Y-61634966D01*
X107967901Y-61634966D01*
X107503648Y-61442667D01*
X107085832Y-61163491D01*
X107085829Y-61163489D01*
X106730511Y-60808171D01*
X106666286Y-60712051D01*
X106451333Y-60390352D01*
X106259034Y-59926099D01*
X106237333Y-59817000D01*
X106161000Y-59433253D01*
X106161000Y-58930747D01*
X106259033Y-58437904D01*
X106259034Y-58437901D01*
X106451333Y-57973648D01*
X106730509Y-57555832D01*
X106730511Y-57555829D01*
X107085829Y-57200511D01*
X107087716Y-57199250D01*
X107503648Y-56921333D01*
X107967901Y-56729034D01*
X107967902Y-56729034D01*
X107967904Y-56729033D01*
X108460747Y-56631000D01*
X108963253Y-56631000D01*
X109456096Y-56729033D01*
X109456096Y-56729033D01*
G37*
G36*
X187456207Y-59817000D02*
X186182000Y-61091207D01*
X184907793Y-59817000D01*
X186182000Y-58542793D01*
X187456207Y-59817000D01*
X187456207Y-59817000D01*
G37*
G36*
X180576096Y-52919033D02*
X180576098Y-52919034D01*
X180576099Y-52919034D01*
X181040352Y-53111333D01*
X181456284Y-53389250D01*
X181458171Y-53390511D01*
X181813489Y-53745829D01*
X181813491Y-53745832D01*
X182092667Y-54163648D01*
X182235467Y-54508400D01*
X182284967Y-54627904D01*
X182383000Y-55120747D01*
X182383000Y-55623253D01*
X182306668Y-56007000D01*
X182284966Y-56116099D01*
X182092667Y-56580352D01*
X181814750Y-56996284D01*
X181813489Y-56998171D01*
X181458171Y-57353489D01*
X181458168Y-57353491D01*
X181040352Y-57632667D01*
X180576099Y-57824966D01*
X180576098Y-57824966D01*
X180576096Y-57824967D01*
X180083253Y-57923000D01*
X179580747Y-57923000D01*
X179087904Y-57824967D01*
X179087902Y-57824966D01*
X179087901Y-57824966D01*
X178623648Y-57632667D01*
X178205832Y-57353491D01*
X178205829Y-57353489D01*
X177850511Y-56998171D01*
X177849250Y-56996284D01*
X177571333Y-56580352D01*
X177379034Y-56116099D01*
X177357333Y-56007000D01*
X177281000Y-55623253D01*
X177281000Y-55120747D01*
X177379033Y-54627904D01*
X177428533Y-54508400D01*
X177571333Y-54163648D01*
X177850509Y-53745832D01*
X177850511Y-53745829D01*
X178205829Y-53390511D01*
X178207716Y-53389250D01*
X178623648Y-53111333D01*
X179087901Y-52919034D01*
X179087902Y-52919034D01*
X179087904Y-52919033D01*
X179580747Y-52821000D01*
X180083253Y-52821000D01*
X180576096Y-52919033D01*
X180576096Y-52919033D01*
G37*
G36*
X141400765Y-55005620D02*
X141590289Y-55084123D01*
X141760855Y-55198092D01*
X141905908Y-55343145D01*
X142019877Y-55513711D01*
X142098380Y-55703235D01*
X142138400Y-55904430D01*
X142138400Y-56109570D01*
X142098380Y-56310765D01*
X142019877Y-56500289D01*
X141905908Y-56670855D01*
X141760855Y-56815908D01*
X141590289Y-56929877D01*
X141400765Y-57008380D01*
X141199570Y-57048400D01*
X140994430Y-57048400D01*
X140793235Y-57008380D01*
X140603711Y-56929877D01*
X140433145Y-56815908D01*
X140288092Y-56670855D01*
X140174123Y-56500289D01*
X140095620Y-56310765D01*
X140055600Y-56109570D01*
X140055600Y-55904430D01*
X140095620Y-55703235D01*
X140174123Y-55513711D01*
X140288092Y-55343145D01*
X140433145Y-55198092D01*
X140603711Y-55084123D01*
X140793235Y-55005620D01*
X140994430Y-54965600D01*
X141199570Y-54965600D01*
X141400765Y-55005620D01*
X141400765Y-55005620D01*
G37*
G36*
X138860765Y-55005620D02*
X139050289Y-55084123D01*
X139220855Y-55198092D01*
X139365908Y-55343145D01*
X139479877Y-55513711D01*
X139558380Y-55703235D01*
X139598400Y-55904430D01*
X139598400Y-56109570D01*
X139558380Y-56310765D01*
X139479877Y-56500289D01*
X139365908Y-56670855D01*
X139220855Y-56815908D01*
X139050289Y-56929877D01*
X138860765Y-57008380D01*
X138659570Y-57048400D01*
X138454430Y-57048400D01*
X138253235Y-57008380D01*
X138063711Y-56929877D01*
X137893145Y-56815908D01*
X137748092Y-56670855D01*
X137634123Y-56500289D01*
X137555620Y-56310765D01*
X137515600Y-56109570D01*
X137515600Y-55904430D01*
X137555620Y-55703235D01*
X137634123Y-55513711D01*
X137748092Y-55343145D01*
X137893145Y-55198092D01*
X138063711Y-55084123D01*
X138253235Y-55005620D01*
X138454430Y-54965600D01*
X138659570Y-54965600D01*
X138860765Y-55005620D01*
X138860765Y-55005620D01*
G37*
G36*
X143940765Y-55005620D02*
X144130289Y-55084123D01*
X144300855Y-55198092D01*
X144445908Y-55343145D01*
X144559877Y-55513711D01*
X144638380Y-55703235D01*
X144678400Y-55904430D01*
X144678400Y-56109570D01*
X144638380Y-56310765D01*
X144559877Y-56500289D01*
X144445908Y-56670855D01*
X144300855Y-56815908D01*
X144130289Y-56929877D01*
X143940765Y-57008380D01*
X143739570Y-57048400D01*
X143534430Y-57048400D01*
X143333235Y-57008380D01*
X143143711Y-56929877D01*
X142973145Y-56815908D01*
X142828092Y-56670855D01*
X142714123Y-56500289D01*
X142635620Y-56310765D01*
X142595600Y-56109570D01*
X142595600Y-55904430D01*
X142635620Y-55703235D01*
X142714123Y-55513711D01*
X142828092Y-55343145D01*
X142973145Y-55198092D01*
X143143711Y-55084123D01*
X143333235Y-55005620D01*
X143534430Y-54965600D01*
X143739570Y-54965600D01*
X143940765Y-55005620D01*
X143940765Y-55005620D01*
G37*
G36*
X155177443Y-55112519D02*
X155243627Y-55119037D01*
X155356853Y-55153384D01*
X155413467Y-55170557D01*
X155552087Y-55244652D01*
X155569991Y-55254222D01*
X155605729Y-55283552D01*
X155707186Y-55366814D01*
X155790448Y-55468271D01*
X155819778Y-55504009D01*
X155819779Y-55504011D01*
X155903443Y-55660533D01*
X155903443Y-55660534D01*
X155954963Y-55830373D01*
X155972359Y-56007000D01*
X155954963Y-56183627D01*
X155920616Y-56296853D01*
X155903443Y-56353467D01*
X155829348Y-56492087D01*
X155819778Y-56509991D01*
X155790448Y-56545729D01*
X155707186Y-56647186D01*
X155607454Y-56729033D01*
X155569991Y-56759778D01*
X155569989Y-56759779D01*
X155413467Y-56843443D01*
X155356853Y-56860616D01*
X155243627Y-56894963D01*
X155177442Y-56901482D01*
X155111260Y-56908000D01*
X155022740Y-56908000D01*
X154956558Y-56901482D01*
X154890373Y-56894963D01*
X154777147Y-56860616D01*
X154720533Y-56843443D01*
X154564011Y-56759779D01*
X154564009Y-56759778D01*
X154526546Y-56729033D01*
X154426814Y-56647186D01*
X154343552Y-56545729D01*
X154314222Y-56509991D01*
X154304652Y-56492087D01*
X154230557Y-56353467D01*
X154213384Y-56296853D01*
X154179037Y-56183627D01*
X154161641Y-56007000D01*
X154179037Y-55830373D01*
X154230557Y-55660534D01*
X154230557Y-55660533D01*
X154314221Y-55504011D01*
X154314222Y-55504009D01*
X154343552Y-55468271D01*
X154426814Y-55366814D01*
X154528271Y-55283552D01*
X154564009Y-55254222D01*
X154581913Y-55244652D01*
X154720533Y-55170557D01*
X154777147Y-55153384D01*
X154890373Y-55119037D01*
X154956557Y-55112519D01*
X155022740Y-55106000D01*
X155111260Y-55106000D01*
X155177443Y-55112519D01*
X155177443Y-55112519D01*
G37*
G36*
X153428000Y-56908000D02*
X151626000Y-56908000D01*
X151626000Y-55106000D01*
X153428000Y-55106000D01*
X153428000Y-56908000D01*
X153428000Y-56908000D01*
G37*
G36*
X162797443Y-55112519D02*
X162863627Y-55119037D01*
X162976853Y-55153384D01*
X163033467Y-55170557D01*
X163172087Y-55244652D01*
X163189991Y-55254222D01*
X163225729Y-55283552D01*
X163327186Y-55366814D01*
X163410448Y-55468271D01*
X163439778Y-55504009D01*
X163439779Y-55504011D01*
X163523443Y-55660533D01*
X163523443Y-55660534D01*
X163574963Y-55830373D01*
X163592359Y-56007000D01*
X163574963Y-56183627D01*
X163540616Y-56296853D01*
X163523443Y-56353467D01*
X163449348Y-56492087D01*
X163439778Y-56509991D01*
X163410448Y-56545729D01*
X163327186Y-56647186D01*
X163227454Y-56729033D01*
X163189991Y-56759778D01*
X163189989Y-56759779D01*
X163033467Y-56843443D01*
X162976853Y-56860616D01*
X162863627Y-56894963D01*
X162797442Y-56901482D01*
X162731260Y-56908000D01*
X162642740Y-56908000D01*
X162576558Y-56901482D01*
X162510373Y-56894963D01*
X162397147Y-56860616D01*
X162340533Y-56843443D01*
X162184011Y-56759779D01*
X162184009Y-56759778D01*
X162146546Y-56729033D01*
X162046814Y-56647186D01*
X161963552Y-56545729D01*
X161934222Y-56509991D01*
X161924652Y-56492087D01*
X161850557Y-56353467D01*
X161833384Y-56296853D01*
X161799037Y-56183627D01*
X161781641Y-56007000D01*
X161799037Y-55830373D01*
X161850557Y-55660534D01*
X161850557Y-55660533D01*
X161934221Y-55504011D01*
X161934222Y-55504009D01*
X161963552Y-55468271D01*
X162046814Y-55366814D01*
X162148271Y-55283552D01*
X162184009Y-55254222D01*
X162201913Y-55244652D01*
X162340533Y-55170557D01*
X162397147Y-55153384D01*
X162510373Y-55119037D01*
X162576557Y-55112519D01*
X162642740Y-55106000D01*
X162731260Y-55106000D01*
X162797443Y-55112519D01*
X162797443Y-55112519D01*
G37*
G36*
X157717443Y-55112519D02*
X157783627Y-55119037D01*
X157896853Y-55153384D01*
X157953467Y-55170557D01*
X158092087Y-55244652D01*
X158109991Y-55254222D01*
X158145729Y-55283552D01*
X158247186Y-55366814D01*
X158330448Y-55468271D01*
X158359778Y-55504009D01*
X158359779Y-55504011D01*
X158443443Y-55660533D01*
X158443443Y-55660534D01*
X158494963Y-55830373D01*
X158512359Y-56007000D01*
X158494963Y-56183627D01*
X158460616Y-56296853D01*
X158443443Y-56353467D01*
X158369348Y-56492087D01*
X158359778Y-56509991D01*
X158330448Y-56545729D01*
X158247186Y-56647186D01*
X158147454Y-56729033D01*
X158109991Y-56759778D01*
X158109989Y-56759779D01*
X157953467Y-56843443D01*
X157896853Y-56860616D01*
X157783627Y-56894963D01*
X157717442Y-56901482D01*
X157651260Y-56908000D01*
X157562740Y-56908000D01*
X157496558Y-56901482D01*
X157430373Y-56894963D01*
X157317147Y-56860616D01*
X157260533Y-56843443D01*
X157104011Y-56759779D01*
X157104009Y-56759778D01*
X157066546Y-56729033D01*
X156966814Y-56647186D01*
X156883552Y-56545729D01*
X156854222Y-56509991D01*
X156844652Y-56492087D01*
X156770557Y-56353467D01*
X156753384Y-56296853D01*
X156719037Y-56183627D01*
X156701641Y-56007000D01*
X156719037Y-55830373D01*
X156770557Y-55660534D01*
X156770557Y-55660533D01*
X156854221Y-55504011D01*
X156854222Y-55504009D01*
X156883552Y-55468271D01*
X156966814Y-55366814D01*
X157068271Y-55283552D01*
X157104009Y-55254222D01*
X157121913Y-55244652D01*
X157260533Y-55170557D01*
X157317147Y-55153384D01*
X157430373Y-55119037D01*
X157496557Y-55112519D01*
X157562740Y-55106000D01*
X157651260Y-55106000D01*
X157717443Y-55112519D01*
X157717443Y-55112519D01*
G37*
G36*
X160257443Y-55112519D02*
X160323627Y-55119037D01*
X160436853Y-55153384D01*
X160493467Y-55170557D01*
X160632087Y-55244652D01*
X160649991Y-55254222D01*
X160685729Y-55283552D01*
X160787186Y-55366814D01*
X160870448Y-55468271D01*
X160899778Y-55504009D01*
X160899779Y-55504011D01*
X160983443Y-55660533D01*
X160983443Y-55660534D01*
X161034963Y-55830373D01*
X161052359Y-56007000D01*
X161034963Y-56183627D01*
X161000616Y-56296853D01*
X160983443Y-56353467D01*
X160909348Y-56492087D01*
X160899778Y-56509991D01*
X160870448Y-56545729D01*
X160787186Y-56647186D01*
X160687454Y-56729033D01*
X160649991Y-56759778D01*
X160649989Y-56759779D01*
X160493467Y-56843443D01*
X160436853Y-56860616D01*
X160323627Y-56894963D01*
X160257442Y-56901482D01*
X160191260Y-56908000D01*
X160102740Y-56908000D01*
X160036558Y-56901482D01*
X159970373Y-56894963D01*
X159857147Y-56860616D01*
X159800533Y-56843443D01*
X159644011Y-56759779D01*
X159644009Y-56759778D01*
X159606546Y-56729033D01*
X159506814Y-56647186D01*
X159423552Y-56545729D01*
X159394222Y-56509991D01*
X159384652Y-56492087D01*
X159310557Y-56353467D01*
X159293384Y-56296853D01*
X159259037Y-56183627D01*
X159241641Y-56007000D01*
X159259037Y-55830373D01*
X159310557Y-55660534D01*
X159310557Y-55660533D01*
X159394221Y-55504011D01*
X159394222Y-55504009D01*
X159423552Y-55468271D01*
X159506814Y-55366814D01*
X159608271Y-55283552D01*
X159644009Y-55254222D01*
X159661913Y-55244652D01*
X159800533Y-55170557D01*
X159857147Y-55153384D01*
X159970373Y-55119037D01*
X160036557Y-55112519D01*
X160102740Y-55106000D01*
X160191260Y-55106000D01*
X160257443Y-55112519D01*
X160257443Y-55112519D01*
G37*
G36*
X114431207Y-54102000D02*
X113157000Y-55376207D01*
X111882793Y-54102000D01*
X113157000Y-52827793D01*
X114431207Y-54102000D01*
X114431207Y-54102000D01*
G37*
G36*
X140130765Y-52465620D02*
X140320289Y-52544123D01*
X140490855Y-52658092D01*
X140635908Y-52803145D01*
X140749877Y-52973711D01*
X140828380Y-53163235D01*
X140868400Y-53364430D01*
X140868400Y-53569570D01*
X140828380Y-53770765D01*
X140749877Y-53960289D01*
X140635908Y-54130855D01*
X140490855Y-54275908D01*
X140320289Y-54389877D01*
X140130765Y-54468380D01*
X139929570Y-54508400D01*
X139724430Y-54508400D01*
X139523235Y-54468380D01*
X139333711Y-54389877D01*
X139163145Y-54275908D01*
X139018092Y-54130855D01*
X138904123Y-53960289D01*
X138825620Y-53770765D01*
X138785600Y-53569570D01*
X138785600Y-53364430D01*
X138825620Y-53163235D01*
X138904123Y-52973711D01*
X139018092Y-52803145D01*
X139163145Y-52658092D01*
X139333711Y-52544123D01*
X139523235Y-52465620D01*
X139724430Y-52425600D01*
X139929570Y-52425600D01*
X140130765Y-52465620D01*
X140130765Y-52465620D01*
G37*
G36*
X142670765Y-52465620D02*
X142860289Y-52544123D01*
X143030855Y-52658092D01*
X143175908Y-52803145D01*
X143289877Y-52973711D01*
X143368380Y-53163235D01*
X143408400Y-53364430D01*
X143408400Y-53569570D01*
X143368380Y-53770765D01*
X143289877Y-53960289D01*
X143175908Y-54130855D01*
X143030855Y-54275908D01*
X142860289Y-54389877D01*
X142670765Y-54468380D01*
X142469570Y-54508400D01*
X142264430Y-54508400D01*
X142063235Y-54468380D01*
X141873711Y-54389877D01*
X141703145Y-54275908D01*
X141558092Y-54130855D01*
X141444123Y-53960289D01*
X141365620Y-53770765D01*
X141325600Y-53569570D01*
X141325600Y-53364430D01*
X141365620Y-53163235D01*
X141444123Y-52973711D01*
X141558092Y-52803145D01*
X141703145Y-52658092D01*
X141873711Y-52544123D01*
X142063235Y-52465620D01*
X142264430Y-52425600D01*
X142469570Y-52425600D01*
X142670765Y-52465620D01*
X142670765Y-52465620D01*
G37*
G36*
X137590765Y-52465620D02*
X137780289Y-52544123D01*
X137950855Y-52658092D01*
X138095908Y-52803145D01*
X138209877Y-52973711D01*
X138288380Y-53163235D01*
X138328400Y-53364430D01*
X138328400Y-53569570D01*
X138288380Y-53770765D01*
X138209877Y-53960289D01*
X138095908Y-54130855D01*
X137950855Y-54275908D01*
X137780289Y-54389877D01*
X137590765Y-54468380D01*
X137389570Y-54508400D01*
X137184430Y-54508400D01*
X136983235Y-54468380D01*
X136793711Y-54389877D01*
X136623145Y-54275908D01*
X136478092Y-54130855D01*
X136364123Y-53960289D01*
X136285620Y-53770765D01*
X136245600Y-53569570D01*
X136245600Y-53364430D01*
X136285620Y-53163235D01*
X136364123Y-52973711D01*
X136478092Y-52803145D01*
X136623145Y-52658092D01*
X136793711Y-52544123D01*
X136983235Y-52465620D01*
X137184430Y-52425600D01*
X137389570Y-52425600D01*
X137590765Y-52465620D01*
X137590765Y-52465620D01*
G37*
G36*
X115057711Y-51410898D02*
X115129678Y-51417986D01*
X115242904Y-51452333D01*
X115299518Y-51469506D01*
X115438138Y-51543601D01*
X115456042Y-51553171D01*
X115491780Y-51582501D01*
X115593237Y-51665763D01*
X115676499Y-51767220D01*
X115705829Y-51802958D01*
X115705830Y-51802960D01*
X115789494Y-51959482D01*
X115789494Y-51959483D01*
X115841014Y-52129322D01*
X115858410Y-52305949D01*
X115841014Y-52482576D01*
X115822344Y-52544123D01*
X115789494Y-52652416D01*
X115786460Y-52658092D01*
X115705829Y-52808940D01*
X115690356Y-52827794D01*
X115593237Y-52946135D01*
X115491780Y-53029397D01*
X115456042Y-53058727D01*
X115456040Y-53058728D01*
X115299518Y-53142392D01*
X115242904Y-53159565D01*
X115129678Y-53193912D01*
X115063493Y-53200431D01*
X114997311Y-53206949D01*
X114908791Y-53206949D01*
X114842609Y-53200431D01*
X114776424Y-53193912D01*
X114663198Y-53159565D01*
X114606584Y-53142392D01*
X114450062Y-53058728D01*
X114450060Y-53058727D01*
X114414322Y-53029397D01*
X114312865Y-52946135D01*
X114215746Y-52827794D01*
X114200273Y-52808940D01*
X114119642Y-52658092D01*
X114116608Y-52652416D01*
X114083758Y-52544123D01*
X114065088Y-52482576D01*
X114047692Y-52305949D01*
X114065088Y-52129322D01*
X114116608Y-51959483D01*
X114116608Y-51959482D01*
X114200272Y-51802960D01*
X114200273Y-51802958D01*
X114229603Y-51767220D01*
X114312865Y-51665763D01*
X114414322Y-51582501D01*
X114450060Y-51553171D01*
X114467964Y-51543601D01*
X114606584Y-51469506D01*
X114663198Y-51452333D01*
X114776424Y-51417986D01*
X114848391Y-51410898D01*
X114908791Y-51404949D01*
X114997311Y-51404949D01*
X115057711Y-51410898D01*
X115057711Y-51410898D01*
G37*
G36*
X174861096Y-47839033D02*
X174861098Y-47839034D01*
X174861099Y-47839034D01*
X175325352Y-48031333D01*
X175604762Y-48218029D01*
X175743171Y-48310511D01*
X176098489Y-48665829D01*
X176098491Y-48665832D01*
X176377667Y-49083648D01*
X176569966Y-49547901D01*
X176569967Y-49547904D01*
X176668000Y-50040747D01*
X176668000Y-50543253D01*
X176574584Y-51012887D01*
X176569966Y-51036099D01*
X176377667Y-51500352D01*
X176099750Y-51916284D01*
X176098489Y-51918171D01*
X175743171Y-52273489D01*
X175743168Y-52273491D01*
X175325352Y-52552667D01*
X174861099Y-52744966D01*
X174861098Y-52744966D01*
X174861096Y-52744967D01*
X174368253Y-52843000D01*
X173865747Y-52843000D01*
X173372904Y-52744967D01*
X173372902Y-52744966D01*
X173372901Y-52744966D01*
X172908648Y-52552667D01*
X172490832Y-52273491D01*
X172490829Y-52273489D01*
X172135511Y-51918171D01*
X172134250Y-51916284D01*
X171856333Y-51500352D01*
X171664034Y-51036099D01*
X171659417Y-51012887D01*
X171566000Y-50543253D01*
X171566000Y-50040747D01*
X171664033Y-49547904D01*
X171664034Y-49547901D01*
X171856333Y-49083648D01*
X172135509Y-48665832D01*
X172135511Y-48665829D01*
X172490829Y-48310511D01*
X172629238Y-48218029D01*
X172908648Y-48031333D01*
X173372901Y-47839034D01*
X173372902Y-47839034D01*
X173372904Y-47839033D01*
X173865747Y-47741000D01*
X174368253Y-47741000D01*
X174861096Y-47839033D01*
X174861096Y-47839033D01*
G37*
G36*
X116859544Y-49615416D02*
X116925729Y-49621935D01*
X117038955Y-49656282D01*
X117095569Y-49673455D01*
X117234189Y-49747550D01*
X117252093Y-49757120D01*
X117287831Y-49786450D01*
X117389288Y-49869712D01*
X117472550Y-49971169D01*
X117501880Y-50006907D01*
X117501881Y-50006909D01*
X117585545Y-50163431D01*
X117585545Y-50163432D01*
X117637065Y-50333271D01*
X117654461Y-50509898D01*
X117637065Y-50686525D01*
X117602718Y-50799751D01*
X117585545Y-50856365D01*
X117511450Y-50994985D01*
X117501880Y-51012889D01*
X117482834Y-51036096D01*
X117389288Y-51150084D01*
X117287831Y-51233346D01*
X117252093Y-51262676D01*
X117252091Y-51262677D01*
X117095569Y-51346341D01*
X117038955Y-51363514D01*
X116925729Y-51397861D01*
X116859545Y-51404379D01*
X116793362Y-51410898D01*
X116704842Y-51410898D01*
X116638660Y-51404380D01*
X116572475Y-51397861D01*
X116459249Y-51363514D01*
X116402635Y-51346341D01*
X116246113Y-51262677D01*
X116246111Y-51262676D01*
X116210373Y-51233346D01*
X116108916Y-51150084D01*
X116015370Y-51036096D01*
X115996324Y-51012889D01*
X115986754Y-50994985D01*
X115912659Y-50856365D01*
X115895486Y-50799751D01*
X115861139Y-50686525D01*
X115843743Y-50509898D01*
X115861139Y-50333271D01*
X115912659Y-50163432D01*
X115912659Y-50163431D01*
X115996323Y-50006909D01*
X115996324Y-50006907D01*
X116025654Y-49971169D01*
X116108916Y-49869712D01*
X116210373Y-49786450D01*
X116246111Y-49757120D01*
X116264015Y-49747550D01*
X116402635Y-49673455D01*
X116459249Y-49656282D01*
X116572475Y-49621935D01*
X116638660Y-49615416D01*
X116704842Y-49608898D01*
X116793362Y-49608898D01*
X116859544Y-49615416D01*
X116859544Y-49615416D01*
G37*
G36*
X146045803Y-45456175D02*
X146045805Y-45456176D01*
X146045806Y-45456176D01*
X146360136Y-45586375D01*
X146360137Y-45586376D01*
X146643029Y-45775398D01*
X146883602Y-46015971D01*
X146883604Y-46015974D01*
X147072625Y-46298864D01*
X147182254Y-46563534D01*
X147202825Y-46613197D01*
X147269200Y-46946884D01*
X147269200Y-47287116D01*
X147207246Y-47598579D01*
X147202824Y-47620806D01*
X147072625Y-47935136D01*
X146916061Y-48169451D01*
X146883602Y-48218029D01*
X146643029Y-48458602D01*
X146643026Y-48458604D01*
X146360136Y-48647625D01*
X146045806Y-48777824D01*
X146045805Y-48777824D01*
X146045803Y-48777825D01*
X145712116Y-48844200D01*
X145371884Y-48844200D01*
X145038197Y-48777825D01*
X145038195Y-48777824D01*
X145038194Y-48777824D01*
X144723864Y-48647625D01*
X144440974Y-48458604D01*
X144440971Y-48458602D01*
X144200398Y-48218029D01*
X144167939Y-48169451D01*
X144011375Y-47935136D01*
X143881176Y-47620806D01*
X143876755Y-47598579D01*
X143814800Y-47287116D01*
X143814800Y-46946884D01*
X143881175Y-46613197D01*
X143901746Y-46563534D01*
X144011375Y-46298864D01*
X144200396Y-46015974D01*
X144200398Y-46015971D01*
X144440971Y-45775398D01*
X144723863Y-45586376D01*
X144723864Y-45586375D01*
X145038194Y-45456176D01*
X145038195Y-45456176D01*
X145038197Y-45456175D01*
X145371884Y-45389800D01*
X145712116Y-45389800D01*
X146045803Y-45456175D01*
X146045803Y-45456175D01*
G37*
G36*
X135885803Y-45456175D02*
X135885805Y-45456176D01*
X135885806Y-45456176D01*
X136200136Y-45586375D01*
X136200137Y-45586376D01*
X136483029Y-45775398D01*
X136723602Y-46015971D01*
X136723604Y-46015974D01*
X136912625Y-46298864D01*
X137022254Y-46563534D01*
X137042825Y-46613197D01*
X137109200Y-46946884D01*
X137109200Y-47287116D01*
X137047246Y-47598579D01*
X137042824Y-47620806D01*
X136912625Y-47935136D01*
X136756061Y-48169451D01*
X136723602Y-48218029D01*
X136483029Y-48458602D01*
X136483026Y-48458604D01*
X136200136Y-48647625D01*
X135885806Y-48777824D01*
X135885805Y-48777824D01*
X135885803Y-48777825D01*
X135552116Y-48844200D01*
X135211884Y-48844200D01*
X134878197Y-48777825D01*
X134878195Y-48777824D01*
X134878194Y-48777824D01*
X134563864Y-48647625D01*
X134280974Y-48458604D01*
X134280971Y-48458602D01*
X134040398Y-48218029D01*
X134007939Y-48169451D01*
X133851375Y-47935136D01*
X133721176Y-47620806D01*
X133716755Y-47598579D01*
X133654800Y-47287116D01*
X133654800Y-46946884D01*
X133721175Y-46613197D01*
X133741746Y-46563534D01*
X133851375Y-46298864D01*
X134040396Y-46015974D01*
X134040398Y-46015971D01*
X134280971Y-45775398D01*
X134563863Y-45586376D01*
X134563864Y-45586375D01*
X134878194Y-45456176D01*
X134878195Y-45456176D01*
X134878197Y-45456175D01*
X135211884Y-45389800D01*
X135552116Y-45389800D01*
X135885803Y-45456175D01*
X135885803Y-45456175D01*
G37*
G36*
X123692256Y-45508298D02*
X123798579Y-45529447D01*
X124099042Y-45653903D01*
X124365852Y-45832180D01*
X124369454Y-45834587D01*
X124599413Y-46064546D01*
X124599415Y-46064549D01*
X124780097Y-46334958D01*
X124899227Y-46622562D01*
X124904553Y-46635422D01*
X124968000Y-46954389D01*
X124968000Y-47279611D01*
X124966507Y-47287116D01*
X124904553Y-47598579D01*
X124780097Y-47899042D01*
X124755979Y-47935137D01*
X124599413Y-48169454D01*
X124369454Y-48399413D01*
X124369451Y-48399415D01*
X124099042Y-48580097D01*
X123798579Y-48704553D01*
X123692256Y-48725702D01*
X123479611Y-48768000D01*
X123154389Y-48768000D01*
X122941744Y-48725702D01*
X122835421Y-48704553D01*
X122534958Y-48580097D01*
X122264549Y-48399415D01*
X122264546Y-48399413D01*
X122034587Y-48169454D01*
X121878021Y-47935137D01*
X121853903Y-47899042D01*
X121729447Y-47598579D01*
X121667493Y-47287116D01*
X121666000Y-47279611D01*
X121666000Y-46954389D01*
X121729447Y-46635422D01*
X121734774Y-46622562D01*
X121853903Y-46334958D01*
X122034585Y-46064549D01*
X122034587Y-46064546D01*
X122264546Y-45834587D01*
X122268148Y-45832180D01*
X122534958Y-45653903D01*
X122835421Y-45529447D01*
X122941744Y-45508298D01*
X123154389Y-45466000D01*
X123479611Y-45466000D01*
X123692256Y-45508298D01*
X123692256Y-45508298D01*
G37*
G36*
X167507256Y-45508298D02*
X167613579Y-45529447D01*
X167914042Y-45653903D01*
X168180852Y-45832180D01*
X168184454Y-45834587D01*
X168414413Y-46064546D01*
X168414415Y-46064549D01*
X168595097Y-46334958D01*
X168714227Y-46622562D01*
X168719553Y-46635422D01*
X168783000Y-46954389D01*
X168783000Y-47279611D01*
X168781507Y-47287116D01*
X168719553Y-47598579D01*
X168595097Y-47899042D01*
X168570979Y-47935137D01*
X168414413Y-48169454D01*
X168184454Y-48399413D01*
X168184451Y-48399415D01*
X167914042Y-48580097D01*
X167613579Y-48704553D01*
X167507256Y-48725702D01*
X167294611Y-48768000D01*
X166969389Y-48768000D01*
X166756744Y-48725702D01*
X166650421Y-48704553D01*
X166349958Y-48580097D01*
X166079549Y-48399415D01*
X166079546Y-48399413D01*
X165849587Y-48169454D01*
X165693021Y-47935137D01*
X165668903Y-47899042D01*
X165544447Y-47598579D01*
X165482493Y-47287116D01*
X165481000Y-47279611D01*
X165481000Y-46954389D01*
X165544447Y-46635422D01*
X165549774Y-46622562D01*
X165668903Y-46334958D01*
X165849585Y-46064549D01*
X165849587Y-46064546D01*
X166079546Y-45834587D01*
X166083148Y-45832180D01*
X166349958Y-45653903D01*
X166650421Y-45529447D01*
X166756744Y-45508298D01*
X166969389Y-45466000D01*
X167294611Y-45466000D01*
X167507256Y-45508298D01*
X167507256Y-45508298D01*
G37*
G36*
X158637562Y-44925181D02*
X158672477Y-44935773D01*
X158704665Y-44952978D01*
X158732873Y-44976127D01*
X158756022Y-45004335D01*
X158773227Y-45036523D01*
X158783819Y-45071438D01*
X158788000Y-45113895D01*
X158788000Y-46580105D01*
X158783819Y-46622562D01*
X158773227Y-46657477D01*
X158756022Y-46689665D01*
X158732873Y-46717873D01*
X158704665Y-46741022D01*
X158672477Y-46758227D01*
X158637562Y-46768819D01*
X158595105Y-46773000D01*
X157453895Y-46773000D01*
X157411438Y-46768819D01*
X157376523Y-46758227D01*
X157344335Y-46741022D01*
X157316127Y-46717873D01*
X157292978Y-46689665D01*
X157275773Y-46657477D01*
X157265181Y-46622562D01*
X157261000Y-46580105D01*
X157261000Y-45113895D01*
X157265181Y-45071438D01*
X157275773Y-45036523D01*
X157292978Y-45004335D01*
X157316127Y-44976127D01*
X157344335Y-44952978D01*
X157376523Y-44935773D01*
X157411438Y-44925181D01*
X157453895Y-44921000D01*
X158595105Y-44921000D01*
X158637562Y-44925181D01*
X158637562Y-44925181D01*
G37*
G36*
X161612562Y-44925181D02*
X161647477Y-44935773D01*
X161679665Y-44952978D01*
X161707873Y-44976127D01*
X161731022Y-45004335D01*
X161748227Y-45036523D01*
X161758819Y-45071438D01*
X161763000Y-45113895D01*
X161763000Y-46580105D01*
X161758819Y-46622562D01*
X161748227Y-46657477D01*
X161731022Y-46689665D01*
X161707873Y-46717873D01*
X161679665Y-46741022D01*
X161647477Y-46758227D01*
X161612562Y-46768819D01*
X161570105Y-46773000D01*
X160428895Y-46773000D01*
X160386438Y-46768819D01*
X160351523Y-46758227D01*
X160319335Y-46741022D01*
X160291127Y-46717873D01*
X160267978Y-46689665D01*
X160250773Y-46657477D01*
X160240181Y-46622562D01*
X160236000Y-46580105D01*
X160236000Y-45113895D01*
X160240181Y-45071438D01*
X160250773Y-45036523D01*
X160267978Y-45004335D01*
X160291127Y-44976127D01*
X160319335Y-44952978D01*
X160351523Y-44935773D01*
X160386438Y-44925181D01*
X160428895Y-44921000D01*
X161570105Y-44921000D01*
X161612562Y-44925181D01*
X161612562Y-44925181D01*
G37*
G36*
X152355677Y-45100465D02*
X152393364Y-45111898D01*
X152428103Y-45130466D01*
X152458548Y-45155452D01*
X152483534Y-45185897D01*
X152502102Y-45220636D01*
X152513535Y-45258323D01*
X152518000Y-45303661D01*
X152518000Y-46390339D01*
X152513535Y-46435677D01*
X152502102Y-46473364D01*
X152483534Y-46508103D01*
X152458548Y-46538548D01*
X152428103Y-46563534D01*
X152393364Y-46582102D01*
X152355677Y-46593535D01*
X152310339Y-46598000D01*
X151473661Y-46598000D01*
X151428323Y-46593535D01*
X151390636Y-46582102D01*
X151355897Y-46563534D01*
X151325452Y-46538548D01*
X151300466Y-46508103D01*
X151281898Y-46473364D01*
X151270465Y-46435677D01*
X151266000Y-46390339D01*
X151266000Y-45303661D01*
X151270465Y-45258323D01*
X151281898Y-45220636D01*
X151300466Y-45185897D01*
X151325452Y-45155452D01*
X151355897Y-45130466D01*
X151390636Y-45111898D01*
X151428323Y-45100465D01*
X151473661Y-45096000D01*
X152310339Y-45096000D01*
X152355677Y-45100465D01*
X152355677Y-45100465D01*
G37*
G36*
X154405677Y-45100465D02*
X154443364Y-45111898D01*
X154478103Y-45130466D01*
X154508548Y-45155452D01*
X154533534Y-45185897D01*
X154552102Y-45220636D01*
X154563535Y-45258323D01*
X154568000Y-45303661D01*
X154568000Y-46390339D01*
X154563535Y-46435677D01*
X154552102Y-46473364D01*
X154533534Y-46508103D01*
X154508548Y-46538548D01*
X154478103Y-46563534D01*
X154443364Y-46582102D01*
X154405677Y-46593535D01*
X154360339Y-46598000D01*
X153523661Y-46598000D01*
X153478323Y-46593535D01*
X153440636Y-46582102D01*
X153405897Y-46563534D01*
X153375452Y-46538548D01*
X153350466Y-46508103D01*
X153331898Y-46473364D01*
X153320465Y-46435677D01*
X153316000Y-46390339D01*
X153316000Y-45303661D01*
X153320465Y-45258323D01*
X153331898Y-45220636D01*
X153350466Y-45185897D01*
X153375452Y-45155452D01*
X153405897Y-45130466D01*
X153440636Y-45111898D01*
X153478323Y-45100465D01*
X153523661Y-45096000D01*
X154360339Y-45096000D01*
X154405677Y-45100465D01*
X154405677Y-45100465D01*
G37*
M02*
