M48
; DRILL file {KiCad 5.1.2-f72e74a~84~ubuntu18.04.1} date Mon 29 Jul 2019 08:39:35 PM PDT
; FORMAT={-:-/ absolute / inch / decimal}
; #@! TF.CreationDate,2019-07-29T20:39:35-07:00
; #@! TF.GenerationSoftware,Kicad,Pcbnew,5.1.2-f72e74a~84~ubuntu18.04.1
FMAT,2
INCH
T1C0.0157
T2C0.0256
T3C0.0276
T4C0.0314
T5C0.0394
T6C0.0400
T7C0.0984
T8C0.1260
T9C0.1280
%
G90
G05
T1
X3.786Y-4.363
X4.195Y-3.985
X4.263Y-4.59
X4.279Y-4.442
X4.311Y-4.055
X4.558Y-5.109
X4.566Y-3.142
X4.628Y-5.096
X4.635Y-3.438
X4.732Y-3.497
X4.748Y-3.613
X4.767Y-3.679
X4.771Y-3.142
X4.79Y-3.555
X4.79Y-3.62
X4.978Y-4.155
X5.035Y-4.835
X5.055Y-4.45
X5.119Y-4.414
X5.1432Y-4.3292
X5.147Y-4.497
X5.169Y-4.538
X5.174Y-3.786
X5.194Y-4.64
X5.2Y-4.939
X5.202Y-4.4691
X5.205Y-4.176
X5.218Y-4.59
X5.23Y-3.549
X5.245Y-4.834
X5.248Y-5.29
X5.2492Y-4.2232
X5.258Y-3.438
X5.2675Y-4.0805
X5.274Y-4.609
X5.283Y-4.989
X5.2926Y-4.37
X5.323Y-4.726
X5.332Y-4.37
X5.3485Y-4.4485
X5.352Y-4.129
X5.353Y-5.143
X5.364Y-2.752
X5.366Y-4.496
X5.405Y-4.586
X5.406Y-4.436
X5.413Y-4.497
X5.435Y-4.982
X5.471Y-3.461
X5.48Y-4.765
X5.482Y-4.5904
X5.486Y-4.669
X5.495Y-1.798
X5.538Y-3.383
X5.54Y-3.549
X5.541Y-3.648
X5.547Y-4.685
X5.561Y-3.497
X5.561Y-3.735
X5.564Y-4.871
X5.572Y-2.998
X5.585Y-2.658
X5.586Y-4.782
X5.589Y-5.248
X5.601Y-3.315
X5.602Y-4.578
X5.605Y-4.618
X5.62Y-4.273
X5.65Y-4.5504
X5.6616Y-4.385
X5.665Y-5.122
X5.6879Y-4.5399
X5.694Y-3.801
X5.697Y-5.433
X5.7Y-3.284
X5.703Y-3.53
X5.706Y-4.487
X5.731Y-5.47
X5.7464Y-4.451
X5.747Y-4.94
X5.7483Y-4.2593
X5.756Y-3.777
X5.76Y-3.713
X5.761Y-2.648
X5.774Y-4.668
X5.796Y-4.0
X5.806Y-4.198
X5.81Y-3.812
X5.812Y-5.005
X5.8173Y-4.493
X5.824Y-2.901
X5.825Y-4.67
X5.832Y-4.125
X5.84Y-3.657
X5.846Y-1.969
X5.854Y-4.42
X5.869Y-2.656
X5.869Y-4.464
X5.874Y-3.345
X5.8872Y-4.2122
X5.909Y-4.683
X5.91Y-2.801
X5.923Y-4.908
X5.926Y-4.639
X5.931Y-2.425
X5.931Y-3.7666
X5.938Y-4.76
X5.945Y-4.491
X5.952Y-4.209
X5.957Y-4.863
X5.965Y-4.26
X5.983Y-4.924
X6.015Y-3.488
X6.02Y-4.296
X6.022Y-4.624
X6.022Y-4.771
X6.039Y-4.88
X6.0406Y-4.2456
X6.043Y-5.412
X6.0553Y-4.8442
X6.062Y-2.885
X6.0843Y-4.3107
X6.089Y-3.311
X6.09Y-5.298
X6.096Y-4.058
X6.102Y-3.788
X6.114Y-4.685
X6.118Y-4.007
X6.124Y-4.373
X6.129Y-4.325
X6.157Y-5.106
X6.164Y-5.357
X6.195Y-5.084
X6.235Y-3.12
X6.24Y-3.313
X6.274Y-4.542
X6.287Y-4.406
X6.289Y-5.298
X6.293Y-2.993
X6.311Y-3.091
X6.326Y-4.096
X6.333Y-4.48
X6.34Y-3.739
X6.34Y-4.38
X6.349Y-4.709
X6.38Y-4.992
X6.388Y-2.082
X6.403Y-2.907
X6.404Y-3.24
X6.46Y-5.228
X6.491Y-4.481
X6.496Y-5.28
X6.52Y-3.128
X6.543Y-4.379
X6.547Y-4.472
X6.556Y-5.308
X6.619Y-3.785
X6.646Y-4.434
X6.655Y-3.005
X6.67Y-3.732
X6.676Y-4.478
X6.697Y-4.512
X6.7106Y-4.549
X6.725Y-3.673
X6.755Y-3.601
X6.983Y-4.354
X7.009Y-4.538
X7.05Y-2.7
X7.05Y-2.95
X7.063Y-4.298
X7.295Y-3.153
X7.323Y-2.915
X7.369Y-4.068
X7.3733Y-4.1071
X7.381Y-4.151
X7.388Y-4.204
X7.4Y-3.0
X7.576Y-4.107
X7.576Y-4.148
X7.5983Y-4.1804
X7.616Y-4.0692
T4
X3.7926Y-3.297
X3.7926Y-4.163
X3.8714Y-3.297
X3.8714Y-4.163
X3.9501Y-3.297
X3.9501Y-4.163
X4.0289Y-3.297
X4.0289Y-4.163
X4.1076Y-3.297
X4.1076Y-4.163
X4.1863Y-3.297
X4.1863Y-4.163
X4.2651Y-3.297
X4.2651Y-4.163
X4.3438Y-3.297
X4.3438Y-4.163
X4.4226Y-3.297
X4.4226Y-4.163
X4.5013Y-3.297
X4.5013Y-4.163
T5
X4.95Y-2.8
X4.95Y-2.9
X4.95Y-3.0
X5.05Y-2.8
X5.05Y-2.9
X5.05Y-3.0
X6.9136Y-5.3964
X6.9843Y-5.3257
X7.055Y-5.255
X5.806Y-5.559
X5.906Y-5.559
X6.006Y-5.559
X6.106Y-5.559
X6.206Y-5.559
X4.95Y-3.35
X4.95Y-3.45
X4.95Y-3.55
X4.95Y-3.65
X4.95Y-3.75
X5.05Y-3.35
X5.05Y-3.45
X5.05Y-3.55
X5.05Y-3.65
X5.05Y-3.75
X5.55Y-3.9
X5.65Y-3.9
X5.75Y-3.9
X5.85Y-3.9
X5.95Y-3.9
X6.05Y-3.9
X6.15Y-3.9
X6.25Y-3.9
X4.0136Y-4.8636
X4.0843Y-4.9343
X4.155Y-5.005
X7.33Y-2.355
X7.4007Y-2.4257
X7.4714Y-2.4964
X6.65Y-4.2
X6.65Y-4.3
X6.75Y-4.2
X6.75Y-4.3
X4.7Y-4.8
X4.7Y-4.9
X4.8Y-4.8
X4.8Y-4.9
X6.005Y-2.205
X6.105Y-2.205
X6.205Y-2.205
X6.305Y-2.205
X6.405Y-2.205
X5.7Y-3.1
X5.7Y-3.2
X5.8Y-3.1
X5.8Y-3.2
X5.9Y-3.1
X5.9Y-3.2
X6.0Y-3.1
X6.0Y-3.2
X4.455Y-2.13
X4.5257Y-2.0593
X4.5964Y-1.9886
T6
X5.405Y-2.105
X5.455Y-2.205
X5.505Y-2.105
X5.555Y-2.205
X5.605Y-2.105
X5.655Y-2.205
T7
X7.08Y-2.18
X4.08Y-2.53
X7.595Y-3.555
X4.38Y-5.18
X4.28Y-2.33
X7.59Y-3.255
X6.855Y-1.98
X7.41Y-4.83
X4.58Y-5.38
X7.235Y-5.04
T8
X3.93Y-2.805
X6.58Y-5.48
X3.93Y-4.53
X6.58Y-1.855
X7.555Y-4.53
X4.855Y-5.48
X7.555Y-2.805
X4.855Y-1.855
T9
X5.33Y-1.855
X5.73Y-1.855
T2
G00X7.7537Y-3.9975
M15
G01X7.7379Y-3.9975
M16
G05
G00X7.7537Y-4.1881
M15
G01X7.7379Y-4.1881
M16
G05
T3
G00X7.8737Y-3.9853
M15
G01X7.8541Y-3.9853
M16
G05
G00X7.8737Y-4.2003
M15
G01X7.8541Y-4.2003
M16
G05
T0
M30
