G04 #@! TF.GenerationSoftware,KiCad,Pcbnew,5.1.2-f72e74a~84~ubuntu18.04.1*
G04 #@! TF.CreationDate,2019-07-29T20:36:53-07:00*
G04 #@! TF.ProjectId,quad_copter_pcb,71756164-5f63-46f7-9074-65725f706362,rev?*
G04 #@! TF.SameCoordinates,Original*
G04 #@! TF.FileFunction,Soldermask,Bot*
G04 #@! TF.FilePolarity,Negative*
%FSLAX46Y46*%
G04 Gerber Fmt 4.6, Leading zero omitted, Abs format (unit mm)*
G04 Created by KiCad (PCBNEW 5.1.2-f72e74a~84~ubuntu18.04.1) date 2019-07-29 20:36:53*
%MOMM*%
%LPD*%
G04 APERTURE LIST*
%ADD10C,0.100000*%
G04 APERTURE END LIST*
D10*
G36*
X147582842Y-140304118D02*
G01*
X147649027Y-140310637D01*
X147818866Y-140362157D01*
X147975391Y-140445822D01*
X148010231Y-140474415D01*
X148112586Y-140558414D01*
X148191931Y-140655098D01*
X148225178Y-140695609D01*
X148308843Y-140852134D01*
X148360363Y-141021973D01*
X148377759Y-141198600D01*
X148360363Y-141375227D01*
X148308843Y-141545066D01*
X148225178Y-141701591D01*
X148195848Y-141737329D01*
X148112586Y-141838786D01*
X148011129Y-141922048D01*
X147975391Y-141951378D01*
X147818866Y-142035043D01*
X147649027Y-142086563D01*
X147582843Y-142093081D01*
X147516660Y-142099600D01*
X147428140Y-142099600D01*
X147361957Y-142093081D01*
X147295773Y-142086563D01*
X147125934Y-142035043D01*
X146969409Y-141951378D01*
X146933671Y-141922048D01*
X146832214Y-141838786D01*
X146748952Y-141737329D01*
X146719622Y-141701591D01*
X146635957Y-141545066D01*
X146584437Y-141375227D01*
X146567041Y-141198600D01*
X146584437Y-141021973D01*
X146635957Y-140852134D01*
X146719622Y-140695609D01*
X146752869Y-140655098D01*
X146832214Y-140558414D01*
X146934569Y-140474415D01*
X146969409Y-140445822D01*
X147125934Y-140362157D01*
X147295773Y-140310637D01*
X147361958Y-140304118D01*
X147428140Y-140297600D01*
X147516660Y-140297600D01*
X147582842Y-140304118D01*
X147582842Y-140304118D01*
G37*
G36*
X155202842Y-140304118D02*
G01*
X155269027Y-140310637D01*
X155438866Y-140362157D01*
X155595391Y-140445822D01*
X155630231Y-140474415D01*
X155732586Y-140558414D01*
X155811931Y-140655098D01*
X155845178Y-140695609D01*
X155928843Y-140852134D01*
X155980363Y-141021973D01*
X155997759Y-141198600D01*
X155980363Y-141375227D01*
X155928843Y-141545066D01*
X155845178Y-141701591D01*
X155815848Y-141737329D01*
X155732586Y-141838786D01*
X155631129Y-141922048D01*
X155595391Y-141951378D01*
X155438866Y-142035043D01*
X155269027Y-142086563D01*
X155202843Y-142093081D01*
X155136660Y-142099600D01*
X155048140Y-142099600D01*
X154981957Y-142093081D01*
X154915773Y-142086563D01*
X154745934Y-142035043D01*
X154589409Y-141951378D01*
X154553671Y-141922048D01*
X154452214Y-141838786D01*
X154368952Y-141737329D01*
X154339622Y-141701591D01*
X154255957Y-141545066D01*
X154204437Y-141375227D01*
X154187041Y-141198600D01*
X154204437Y-141021973D01*
X154255957Y-140852134D01*
X154339622Y-140695609D01*
X154372869Y-140655098D01*
X154452214Y-140558414D01*
X154554569Y-140474415D01*
X154589409Y-140445822D01*
X154745934Y-140362157D01*
X154915773Y-140310637D01*
X154981958Y-140304118D01*
X155048140Y-140297600D01*
X155136660Y-140297600D01*
X155202842Y-140304118D01*
X155202842Y-140304118D01*
G37*
G36*
X152662842Y-140304118D02*
G01*
X152729027Y-140310637D01*
X152898866Y-140362157D01*
X153055391Y-140445822D01*
X153090231Y-140474415D01*
X153192586Y-140558414D01*
X153271931Y-140655098D01*
X153305178Y-140695609D01*
X153388843Y-140852134D01*
X153440363Y-141021973D01*
X153457759Y-141198600D01*
X153440363Y-141375227D01*
X153388843Y-141545066D01*
X153305178Y-141701591D01*
X153275848Y-141737329D01*
X153192586Y-141838786D01*
X153091129Y-141922048D01*
X153055391Y-141951378D01*
X152898866Y-142035043D01*
X152729027Y-142086563D01*
X152662843Y-142093081D01*
X152596660Y-142099600D01*
X152508140Y-142099600D01*
X152441957Y-142093081D01*
X152375773Y-142086563D01*
X152205934Y-142035043D01*
X152049409Y-141951378D01*
X152013671Y-141922048D01*
X151912214Y-141838786D01*
X151828952Y-141737329D01*
X151799622Y-141701591D01*
X151715957Y-141545066D01*
X151664437Y-141375227D01*
X151647041Y-141198600D01*
X151664437Y-141021973D01*
X151715957Y-140852134D01*
X151799622Y-140695609D01*
X151832869Y-140655098D01*
X151912214Y-140558414D01*
X152014569Y-140474415D01*
X152049409Y-140445822D01*
X152205934Y-140362157D01*
X152375773Y-140310637D01*
X152441958Y-140304118D01*
X152508140Y-140297600D01*
X152596660Y-140297600D01*
X152662842Y-140304118D01*
X152662842Y-140304118D01*
G37*
G36*
X150122842Y-140304118D02*
G01*
X150189027Y-140310637D01*
X150358866Y-140362157D01*
X150515391Y-140445822D01*
X150550231Y-140474415D01*
X150652586Y-140558414D01*
X150731931Y-140655098D01*
X150765178Y-140695609D01*
X150848843Y-140852134D01*
X150900363Y-141021973D01*
X150917759Y-141198600D01*
X150900363Y-141375227D01*
X150848843Y-141545066D01*
X150765178Y-141701591D01*
X150735848Y-141737329D01*
X150652586Y-141838786D01*
X150551129Y-141922048D01*
X150515391Y-141951378D01*
X150358866Y-142035043D01*
X150189027Y-142086563D01*
X150122843Y-142093081D01*
X150056660Y-142099600D01*
X149968140Y-142099600D01*
X149901957Y-142093081D01*
X149835773Y-142086563D01*
X149665934Y-142035043D01*
X149509409Y-141951378D01*
X149473671Y-141922048D01*
X149372214Y-141838786D01*
X149288952Y-141737329D01*
X149259622Y-141701591D01*
X149175957Y-141545066D01*
X149124437Y-141375227D01*
X149107041Y-141198600D01*
X149124437Y-141021973D01*
X149175957Y-140852134D01*
X149259622Y-140695609D01*
X149292869Y-140655098D01*
X149372214Y-140558414D01*
X149474569Y-140474415D01*
X149509409Y-140445822D01*
X149665934Y-140362157D01*
X149835773Y-140310637D01*
X149901958Y-140304118D01*
X149968140Y-140297600D01*
X150056660Y-140297600D01*
X150122842Y-140304118D01*
X150122842Y-140304118D01*
G37*
G36*
X158533400Y-142099600D02*
G01*
X156731400Y-142099600D01*
X156731400Y-140297600D01*
X158533400Y-140297600D01*
X158533400Y-142099600D01*
X158533400Y-142099600D01*
G37*
G36*
X167507256Y-137583298D02*
G01*
X167613579Y-137604447D01*
X167914042Y-137728903D01*
X168184451Y-137909585D01*
X168414415Y-138139549D01*
X168595097Y-138409958D01*
X168687688Y-138633491D01*
X168719553Y-138710422D01*
X168759783Y-138912668D01*
X168783000Y-139029391D01*
X168783000Y-139354609D01*
X168719553Y-139673579D01*
X168595097Y-139974042D01*
X168414415Y-140244451D01*
X168184451Y-140474415D01*
X167914042Y-140655097D01*
X167613579Y-140779553D01*
X167507256Y-140800702D01*
X167294611Y-140843000D01*
X166969389Y-140843000D01*
X166756744Y-140800702D01*
X166650421Y-140779553D01*
X166349958Y-140655097D01*
X166079549Y-140474415D01*
X165849585Y-140244451D01*
X165668903Y-139974042D01*
X165544447Y-139673579D01*
X165481000Y-139354609D01*
X165481000Y-139029391D01*
X165504218Y-138912668D01*
X165544447Y-138710422D01*
X165576313Y-138633491D01*
X165668903Y-138409958D01*
X165849585Y-138139549D01*
X166079549Y-137909585D01*
X166349958Y-137728903D01*
X166650421Y-137604447D01*
X166756744Y-137583298D01*
X166969389Y-137541000D01*
X167294611Y-137541000D01*
X167507256Y-137583298D01*
X167507256Y-137583298D01*
G37*
G36*
X123692256Y-137583298D02*
G01*
X123798579Y-137604447D01*
X124099042Y-137728903D01*
X124369451Y-137909585D01*
X124599415Y-138139549D01*
X124780097Y-138409958D01*
X124872688Y-138633491D01*
X124904553Y-138710422D01*
X124944783Y-138912668D01*
X124968000Y-139029391D01*
X124968000Y-139354609D01*
X124904553Y-139673579D01*
X124780097Y-139974042D01*
X124599415Y-140244451D01*
X124369451Y-140474415D01*
X124099042Y-140655097D01*
X123798579Y-140779553D01*
X123692256Y-140800702D01*
X123479611Y-140843000D01*
X123154389Y-140843000D01*
X122941744Y-140800702D01*
X122835421Y-140779553D01*
X122534958Y-140655097D01*
X122264549Y-140474415D01*
X122034585Y-140244451D01*
X121853903Y-139974042D01*
X121729447Y-139673579D01*
X121666000Y-139354609D01*
X121666000Y-139029391D01*
X121689218Y-138912668D01*
X121729447Y-138710422D01*
X121761313Y-138633491D01*
X121853903Y-138409958D01*
X122034585Y-138139549D01*
X122264549Y-137909585D01*
X122534958Y-137728903D01*
X122835421Y-137604447D01*
X122941744Y-137583298D01*
X123154389Y-137541000D01*
X123479611Y-137541000D01*
X123692256Y-137583298D01*
X123692256Y-137583298D01*
G37*
G36*
X117076098Y-134199033D02*
G01*
X117540350Y-134391332D01*
X117540352Y-134391333D01*
X117958168Y-134670509D01*
X118313491Y-135025832D01*
X118592667Y-135443648D01*
X118592668Y-135443650D01*
X118784967Y-135907902D01*
X118883000Y-136400747D01*
X118883000Y-136903253D01*
X118784967Y-137396098D01*
X118647115Y-137728902D01*
X118592667Y-137860352D01*
X118313491Y-138278168D01*
X117958168Y-138633491D01*
X117540352Y-138912667D01*
X117540351Y-138912668D01*
X117540350Y-138912668D01*
X117076098Y-139104967D01*
X116583253Y-139203000D01*
X116080747Y-139203000D01*
X115587902Y-139104967D01*
X115123650Y-138912668D01*
X115123649Y-138912668D01*
X115123648Y-138912667D01*
X114705832Y-138633491D01*
X114350509Y-138278168D01*
X114071333Y-137860352D01*
X114016885Y-137728902D01*
X113879033Y-137396098D01*
X113781000Y-136903253D01*
X113781000Y-136400747D01*
X113879033Y-135907902D01*
X114071332Y-135443650D01*
X114071333Y-135443648D01*
X114350509Y-135025832D01*
X114705832Y-134670509D01*
X115123648Y-134391333D01*
X115123650Y-134391332D01*
X115587902Y-134199033D01*
X116080747Y-134101000D01*
X116583253Y-134101000D01*
X117076098Y-134199033D01*
X117076098Y-134199033D01*
G37*
G36*
X175709558Y-136174051D02*
G01*
X175781525Y-136181139D01*
X175951364Y-136232659D01*
X176107889Y-136316324D01*
X176143627Y-136345654D01*
X176245084Y-136428916D01*
X176328346Y-136530373D01*
X176357676Y-136566111D01*
X176441341Y-136722636D01*
X176492861Y-136892475D01*
X176510257Y-137069102D01*
X176492861Y-137245729D01*
X176441341Y-137415568D01*
X176357676Y-137572093D01*
X176331124Y-137604447D01*
X176245084Y-137709288D01*
X176143627Y-137792550D01*
X176107889Y-137821880D01*
X175951364Y-137905545D01*
X175781525Y-137957065D01*
X175715340Y-137963584D01*
X175649158Y-137970102D01*
X175560638Y-137970102D01*
X175494456Y-137963584D01*
X175428271Y-137957065D01*
X175258432Y-137905545D01*
X175101907Y-137821880D01*
X175066169Y-137792550D01*
X174964712Y-137709288D01*
X174878672Y-137604447D01*
X174852120Y-137572093D01*
X174768455Y-137415568D01*
X174716935Y-137245729D01*
X174699539Y-137069102D01*
X174716935Y-136892475D01*
X174768455Y-136722636D01*
X174852120Y-136566111D01*
X174881450Y-136530373D01*
X174964712Y-136428916D01*
X175066169Y-136345654D01*
X175101907Y-136316324D01*
X175258432Y-136232659D01*
X175428271Y-136181139D01*
X175500238Y-136174051D01*
X175560638Y-136168102D01*
X175649158Y-136168102D01*
X175709558Y-136174051D01*
X175709558Y-136174051D01*
G37*
G36*
X177511391Y-134378569D02*
G01*
X177577576Y-134385088D01*
X177747415Y-134436608D01*
X177903940Y-134520273D01*
X177939678Y-134549603D01*
X178041135Y-134632865D01*
X178124397Y-134734322D01*
X178153727Y-134770060D01*
X178237392Y-134926585D01*
X178288912Y-135096424D01*
X178306308Y-135273051D01*
X178288912Y-135449678D01*
X178237392Y-135619517D01*
X178153727Y-135776042D01*
X178124397Y-135811780D01*
X178041135Y-135913237D01*
X177939678Y-135996499D01*
X177903940Y-136025829D01*
X177747415Y-136109494D01*
X177577576Y-136161014D01*
X177511391Y-136167533D01*
X177445209Y-136174051D01*
X177356689Y-136174051D01*
X177290507Y-136167533D01*
X177224322Y-136161014D01*
X177054483Y-136109494D01*
X176897958Y-136025829D01*
X176862220Y-135996499D01*
X176760763Y-135913237D01*
X176677501Y-135811780D01*
X176648171Y-135776042D01*
X176564506Y-135619517D01*
X176512986Y-135449678D01*
X176495590Y-135273051D01*
X176512986Y-135096424D01*
X176564506Y-134926585D01*
X176648171Y-134770060D01*
X176677501Y-134734322D01*
X176760763Y-134632865D01*
X176862220Y-134549603D01*
X176897958Y-134520273D01*
X177054483Y-134436608D01*
X177224322Y-134385088D01*
X177290507Y-134378569D01*
X177356689Y-134372051D01*
X177445209Y-134372051D01*
X177511391Y-134378569D01*
X177511391Y-134378569D01*
G37*
G36*
X180471206Y-133477000D02*
G01*
X179197000Y-134751206D01*
X177922794Y-133477000D01*
X179197000Y-132202794D01*
X180471206Y-133477000D01*
X180471206Y-133477000D01*
G37*
G36*
X111996098Y-129119033D02*
G01*
X112460350Y-129311332D01*
X112460352Y-129311333D01*
X112878168Y-129590509D01*
X113233491Y-129945832D01*
X113512667Y-130363648D01*
X113512668Y-130363650D01*
X113704967Y-130827902D01*
X113803000Y-131320747D01*
X113803000Y-131823253D01*
X113704967Y-132316098D01*
X113512668Y-132780350D01*
X113512667Y-132780352D01*
X113233491Y-133198168D01*
X112878168Y-133553491D01*
X112460352Y-133832667D01*
X112460351Y-133832668D01*
X112460350Y-133832668D01*
X111996098Y-134024967D01*
X111503253Y-134123000D01*
X111000747Y-134123000D01*
X110507902Y-134024967D01*
X110043650Y-133832668D01*
X110043649Y-133832668D01*
X110043648Y-133832667D01*
X109625832Y-133553491D01*
X109270509Y-133198168D01*
X108991333Y-132780352D01*
X108991332Y-132780350D01*
X108799033Y-132316098D01*
X108701000Y-131823253D01*
X108701000Y-131320747D01*
X108799033Y-130827902D01*
X108991332Y-130363650D01*
X108991333Y-130363648D01*
X109270509Y-129945832D01*
X109625832Y-129590509D01*
X110043648Y-129311333D01*
X110043650Y-129311332D01*
X110507902Y-129119033D01*
X111000747Y-129021000D01*
X111503253Y-129021000D01*
X111996098Y-129119033D01*
X111996098Y-129119033D01*
G37*
G36*
X184513098Y-125563033D02*
G01*
X184977350Y-125755332D01*
X184977352Y-125755333D01*
X185395168Y-126034509D01*
X185750491Y-126389832D01*
X186029667Y-126807648D01*
X186029668Y-126807650D01*
X186221967Y-127271902D01*
X186320000Y-127764747D01*
X186320000Y-128267253D01*
X186221967Y-128760098D01*
X186073291Y-129119034D01*
X186029667Y-129224352D01*
X185750491Y-129642168D01*
X185395168Y-129997491D01*
X184977352Y-130276667D01*
X184977351Y-130276668D01*
X184977350Y-130276668D01*
X184513098Y-130468967D01*
X184020253Y-130567000D01*
X183517747Y-130567000D01*
X183024902Y-130468967D01*
X182560650Y-130276668D01*
X182560649Y-130276668D01*
X182560648Y-130276667D01*
X182142832Y-129997491D01*
X181787509Y-129642168D01*
X181508333Y-129224352D01*
X181464709Y-129119034D01*
X181316033Y-128760098D01*
X181218000Y-128267253D01*
X181218000Y-127764747D01*
X181316033Y-127271902D01*
X181508332Y-126807650D01*
X181508333Y-126807648D01*
X181787509Y-126389832D01*
X182142832Y-126034509D01*
X182560648Y-125755333D01*
X182560650Y-125755332D01*
X183024902Y-125563033D01*
X183517747Y-125465000D01*
X184020253Y-125465000D01*
X184513098Y-125563033D01*
X184513098Y-125563033D01*
G37*
G36*
X106811206Y-127127000D02*
G01*
X105537000Y-128401206D01*
X104262794Y-127127000D01*
X105537000Y-125852794D01*
X106811206Y-127127000D01*
X106811206Y-127127000D01*
G37*
G36*
X103845609Y-124435898D02*
G01*
X103917576Y-124442986D01*
X104087415Y-124494506D01*
X104243940Y-124578171D01*
X104279678Y-124607501D01*
X104381135Y-124690763D01*
X104464397Y-124792220D01*
X104493727Y-124827958D01*
X104577392Y-124984483D01*
X104628912Y-125154322D01*
X104646308Y-125330949D01*
X104628912Y-125507576D01*
X104577392Y-125677415D01*
X104493727Y-125833940D01*
X104478254Y-125852794D01*
X104381135Y-125971135D01*
X104303912Y-126034509D01*
X104243940Y-126083727D01*
X104087415Y-126167392D01*
X103917576Y-126218912D01*
X103851391Y-126225431D01*
X103785209Y-126231949D01*
X103696689Y-126231949D01*
X103630507Y-126225431D01*
X103564322Y-126218912D01*
X103394483Y-126167392D01*
X103237958Y-126083727D01*
X103177986Y-126034509D01*
X103100763Y-125971135D01*
X103003644Y-125852794D01*
X102988171Y-125833940D01*
X102904506Y-125677415D01*
X102852986Y-125507576D01*
X102835590Y-125330949D01*
X102852986Y-125154322D01*
X102904506Y-124984483D01*
X102988171Y-124827958D01*
X103017501Y-124792220D01*
X103100763Y-124690763D01*
X103202220Y-124607501D01*
X103237958Y-124578171D01*
X103394483Y-124494506D01*
X103564322Y-124442986D01*
X103636289Y-124435898D01*
X103696689Y-124429949D01*
X103785209Y-124429949D01*
X103845609Y-124435898D01*
X103845609Y-124435898D01*
G37*
G36*
X122030442Y-123565518D02*
G01*
X122096627Y-123572037D01*
X122266466Y-123623557D01*
X122422991Y-123707222D01*
X122428234Y-123711525D01*
X122560186Y-123819814D01*
X122618074Y-123890352D01*
X122672778Y-123957009D01*
X122756443Y-124113534D01*
X122807963Y-124283373D01*
X122825359Y-124460000D01*
X122807963Y-124636627D01*
X122756443Y-124806466D01*
X122672778Y-124962991D01*
X122655141Y-124984481D01*
X122560186Y-125100186D01*
X122458729Y-125183448D01*
X122422991Y-125212778D01*
X122266466Y-125296443D01*
X122096627Y-125347963D01*
X122030442Y-125354482D01*
X121964260Y-125361000D01*
X121875740Y-125361000D01*
X121809558Y-125354482D01*
X121743373Y-125347963D01*
X121573534Y-125296443D01*
X121417009Y-125212778D01*
X121381271Y-125183448D01*
X121279814Y-125100186D01*
X121184859Y-124984481D01*
X121167222Y-124962991D01*
X121083557Y-124806466D01*
X121032037Y-124636627D01*
X121014641Y-124460000D01*
X121032037Y-124283373D01*
X121083557Y-124113534D01*
X121167222Y-123957009D01*
X121221926Y-123890352D01*
X121279814Y-123819814D01*
X121411766Y-123711525D01*
X121417009Y-123707222D01*
X121573534Y-123623557D01*
X121743373Y-123572037D01*
X121809558Y-123565518D01*
X121875740Y-123559000D01*
X121964260Y-123559000D01*
X122030442Y-123565518D01*
X122030442Y-123565518D01*
G37*
G36*
X119490442Y-123565518D02*
G01*
X119556627Y-123572037D01*
X119726466Y-123623557D01*
X119882991Y-123707222D01*
X119888234Y-123711525D01*
X120020186Y-123819814D01*
X120078074Y-123890352D01*
X120132778Y-123957009D01*
X120216443Y-124113534D01*
X120267963Y-124283373D01*
X120285359Y-124460000D01*
X120267963Y-124636627D01*
X120216443Y-124806466D01*
X120132778Y-124962991D01*
X120115141Y-124984481D01*
X120020186Y-125100186D01*
X119918729Y-125183448D01*
X119882991Y-125212778D01*
X119726466Y-125296443D01*
X119556627Y-125347963D01*
X119490442Y-125354482D01*
X119424260Y-125361000D01*
X119335740Y-125361000D01*
X119269558Y-125354482D01*
X119203373Y-125347963D01*
X119033534Y-125296443D01*
X118877009Y-125212778D01*
X118841271Y-125183448D01*
X118739814Y-125100186D01*
X118644859Y-124984481D01*
X118627222Y-124962991D01*
X118543557Y-124806466D01*
X118492037Y-124636627D01*
X118474641Y-124460000D01*
X118492037Y-124283373D01*
X118543557Y-124113534D01*
X118627222Y-123957009D01*
X118681926Y-123890352D01*
X118739814Y-123819814D01*
X118871766Y-123711525D01*
X118877009Y-123707222D01*
X119033534Y-123623557D01*
X119203373Y-123572037D01*
X119269558Y-123565518D01*
X119335740Y-123559000D01*
X119424260Y-123559000D01*
X119490442Y-123565518D01*
X119490442Y-123565518D01*
G37*
G36*
X188958098Y-120229033D02*
G01*
X189422350Y-120421332D01*
X189422352Y-120421333D01*
X189840168Y-120700509D01*
X190195491Y-121055832D01*
X190436822Y-121417009D01*
X190474668Y-121473650D01*
X190666967Y-121937902D01*
X190765000Y-122430747D01*
X190765000Y-122933253D01*
X190666967Y-123426098D01*
X190503885Y-123819814D01*
X190474667Y-123890352D01*
X190195491Y-124308168D01*
X189840168Y-124663491D01*
X189422352Y-124942667D01*
X189422351Y-124942668D01*
X189422350Y-124942668D01*
X188958098Y-125134967D01*
X188465253Y-125233000D01*
X187962747Y-125233000D01*
X187469902Y-125134967D01*
X187005650Y-124942668D01*
X187005649Y-124942668D01*
X187005648Y-124942667D01*
X186587832Y-124663491D01*
X186232509Y-124308168D01*
X185953333Y-123890352D01*
X185924115Y-123819814D01*
X185761033Y-123426098D01*
X185663000Y-122933253D01*
X185663000Y-122430747D01*
X185761033Y-121937902D01*
X185953332Y-121473650D01*
X185991178Y-121417009D01*
X186232509Y-121055832D01*
X186587832Y-120700509D01*
X187005648Y-120421333D01*
X187005650Y-120421332D01*
X187469902Y-120229033D01*
X187962747Y-120131000D01*
X188465253Y-120131000D01*
X188958098Y-120229033D01*
X188958098Y-120229033D01*
G37*
G36*
X102055341Y-122640417D02*
G01*
X102121525Y-122646935D01*
X102291364Y-122698455D01*
X102447889Y-122782120D01*
X102483627Y-122811450D01*
X102585084Y-122894712D01*
X102668346Y-122996169D01*
X102697676Y-123031907D01*
X102781341Y-123188432D01*
X102832861Y-123358271D01*
X102850257Y-123534898D01*
X102832861Y-123711525D01*
X102781341Y-123881364D01*
X102697676Y-124037889D01*
X102668346Y-124073627D01*
X102585084Y-124175084D01*
X102483627Y-124258346D01*
X102447889Y-124287676D01*
X102291364Y-124371341D01*
X102121525Y-124422861D01*
X102055341Y-124429379D01*
X101989158Y-124435898D01*
X101900638Y-124435898D01*
X101834455Y-124429379D01*
X101768271Y-124422861D01*
X101598432Y-124371341D01*
X101441907Y-124287676D01*
X101406169Y-124258346D01*
X101304712Y-124175084D01*
X101221450Y-124073627D01*
X101192120Y-124037889D01*
X101108455Y-123881364D01*
X101056935Y-123711525D01*
X101039539Y-123534898D01*
X101056935Y-123358271D01*
X101108455Y-123188432D01*
X101192120Y-123031907D01*
X101221450Y-122996169D01*
X101304712Y-122894712D01*
X101406169Y-122811450D01*
X101441907Y-122782120D01*
X101598432Y-122698455D01*
X101768271Y-122646935D01*
X101834455Y-122640417D01*
X101900638Y-122633898D01*
X101989158Y-122633898D01*
X102055341Y-122640417D01*
X102055341Y-122640417D01*
G37*
G36*
X122030442Y-121025518D02*
G01*
X122096627Y-121032037D01*
X122266466Y-121083557D01*
X122422991Y-121167222D01*
X122458729Y-121196552D01*
X122560186Y-121279814D01*
X122643448Y-121381271D01*
X122672778Y-121417009D01*
X122756443Y-121573534D01*
X122807963Y-121743373D01*
X122825359Y-121920000D01*
X122807963Y-122096627D01*
X122756443Y-122266466D01*
X122672778Y-122422991D01*
X122643448Y-122458729D01*
X122560186Y-122560186D01*
X122470366Y-122633898D01*
X122422991Y-122672778D01*
X122266466Y-122756443D01*
X122096627Y-122807963D01*
X122030443Y-122814481D01*
X121964260Y-122821000D01*
X121875740Y-122821000D01*
X121809557Y-122814481D01*
X121743373Y-122807963D01*
X121573534Y-122756443D01*
X121417009Y-122672778D01*
X121369634Y-122633898D01*
X121279814Y-122560186D01*
X121196552Y-122458729D01*
X121167222Y-122422991D01*
X121083557Y-122266466D01*
X121032037Y-122096627D01*
X121014641Y-121920000D01*
X121032037Y-121743373D01*
X121083557Y-121573534D01*
X121167222Y-121417009D01*
X121196552Y-121381271D01*
X121279814Y-121279814D01*
X121381271Y-121196552D01*
X121417009Y-121167222D01*
X121573534Y-121083557D01*
X121743373Y-121032037D01*
X121809558Y-121025518D01*
X121875740Y-121019000D01*
X121964260Y-121019000D01*
X122030442Y-121025518D01*
X122030442Y-121025518D01*
G37*
G36*
X120281000Y-122821000D02*
G01*
X118479000Y-122821000D01*
X118479000Y-121019000D01*
X120281000Y-121019000D01*
X120281000Y-122821000D01*
X120281000Y-122821000D01*
G37*
G36*
X192272256Y-113453298D02*
G01*
X192378579Y-113474447D01*
X192679042Y-113598903D01*
X192949451Y-113779585D01*
X193179415Y-114009549D01*
X193360097Y-114279958D01*
X193484553Y-114580421D01*
X193548000Y-114899391D01*
X193548000Y-115224609D01*
X193484553Y-115543579D01*
X193360097Y-115844042D01*
X193179415Y-116114451D01*
X192949451Y-116344415D01*
X192679042Y-116525097D01*
X192378579Y-116649553D01*
X192272256Y-116670702D01*
X192059611Y-116713000D01*
X191734389Y-116713000D01*
X191521744Y-116670702D01*
X191415421Y-116649553D01*
X191114958Y-116525097D01*
X190844549Y-116344415D01*
X190614585Y-116114451D01*
X190433903Y-115844042D01*
X190309447Y-115543579D01*
X190246000Y-115224609D01*
X190246000Y-114899391D01*
X190309447Y-114580421D01*
X190433903Y-114279958D01*
X190614585Y-114009549D01*
X190844549Y-113779585D01*
X191114958Y-113598903D01*
X191415421Y-113474447D01*
X191521744Y-113453298D01*
X191734389Y-113411000D01*
X192059611Y-113411000D01*
X192272256Y-113453298D01*
X192272256Y-113453298D01*
G37*
G36*
X100197256Y-113453298D02*
G01*
X100303579Y-113474447D01*
X100604042Y-113598903D01*
X100874451Y-113779585D01*
X101104415Y-114009549D01*
X101285097Y-114279958D01*
X101409553Y-114580421D01*
X101473000Y-114899391D01*
X101473000Y-115224609D01*
X101409553Y-115543579D01*
X101285097Y-115844042D01*
X101104415Y-116114451D01*
X100874451Y-116344415D01*
X100604042Y-116525097D01*
X100303579Y-116649553D01*
X100197256Y-116670702D01*
X99984611Y-116713000D01*
X99659389Y-116713000D01*
X99446744Y-116670702D01*
X99340421Y-116649553D01*
X99039958Y-116525097D01*
X98769549Y-116344415D01*
X98539585Y-116114451D01*
X98358903Y-115844042D01*
X98234447Y-115543579D01*
X98171000Y-115224609D01*
X98171000Y-114899391D01*
X98234447Y-114580421D01*
X98358903Y-114279958D01*
X98539585Y-114009549D01*
X98769549Y-113779585D01*
X99039958Y-113598903D01*
X99340421Y-113474447D01*
X99446744Y-113453298D01*
X99659389Y-113411000D01*
X99984611Y-113411000D01*
X100197256Y-113453298D01*
X100197256Y-113453298D01*
G37*
G36*
X171560443Y-108325519D02*
G01*
X171626627Y-108332037D01*
X171796466Y-108383557D01*
X171952991Y-108467222D01*
X171988729Y-108496552D01*
X172090186Y-108579814D01*
X172173448Y-108681271D01*
X172202778Y-108717009D01*
X172286443Y-108873534D01*
X172337963Y-109043373D01*
X172355359Y-109220000D01*
X172337963Y-109396627D01*
X172286443Y-109566466D01*
X172202778Y-109722991D01*
X172173448Y-109758729D01*
X172090186Y-109860186D01*
X171988729Y-109943448D01*
X171952991Y-109972778D01*
X171796466Y-110056443D01*
X171626627Y-110107963D01*
X171560443Y-110114481D01*
X171494260Y-110121000D01*
X171405740Y-110121000D01*
X171339557Y-110114481D01*
X171273373Y-110107963D01*
X171103534Y-110056443D01*
X170947009Y-109972778D01*
X170911271Y-109943448D01*
X170809814Y-109860186D01*
X170726552Y-109758729D01*
X170697222Y-109722991D01*
X170613557Y-109566466D01*
X170562037Y-109396627D01*
X170544641Y-109220000D01*
X170562037Y-109043373D01*
X170613557Y-108873534D01*
X170697222Y-108717009D01*
X170726552Y-108681271D01*
X170809814Y-108579814D01*
X170911271Y-108496552D01*
X170947009Y-108467222D01*
X171103534Y-108383557D01*
X171273373Y-108332037D01*
X171339557Y-108325519D01*
X171405740Y-108319000D01*
X171494260Y-108319000D01*
X171560443Y-108325519D01*
X171560443Y-108325519D01*
G37*
G36*
X169020443Y-108325519D02*
G01*
X169086627Y-108332037D01*
X169256466Y-108383557D01*
X169412991Y-108467222D01*
X169448729Y-108496552D01*
X169550186Y-108579814D01*
X169633448Y-108681271D01*
X169662778Y-108717009D01*
X169746443Y-108873534D01*
X169797963Y-109043373D01*
X169815359Y-109220000D01*
X169797963Y-109396627D01*
X169746443Y-109566466D01*
X169662778Y-109722991D01*
X169633448Y-109758729D01*
X169550186Y-109860186D01*
X169448729Y-109943448D01*
X169412991Y-109972778D01*
X169256466Y-110056443D01*
X169086627Y-110107963D01*
X169020443Y-110114481D01*
X168954260Y-110121000D01*
X168865740Y-110121000D01*
X168799557Y-110114481D01*
X168733373Y-110107963D01*
X168563534Y-110056443D01*
X168407009Y-109972778D01*
X168371271Y-109943448D01*
X168269814Y-109860186D01*
X168186552Y-109758729D01*
X168157222Y-109722991D01*
X168073557Y-109566466D01*
X168022037Y-109396627D01*
X168004641Y-109220000D01*
X168022037Y-109043373D01*
X168073557Y-108873534D01*
X168157222Y-108717009D01*
X168186552Y-108681271D01*
X168269814Y-108579814D01*
X168371271Y-108496552D01*
X168407009Y-108467222D01*
X168563534Y-108383557D01*
X168733373Y-108332037D01*
X168799557Y-108325519D01*
X168865740Y-108319000D01*
X168954260Y-108319000D01*
X169020443Y-108325519D01*
X169020443Y-108325519D01*
G37*
G36*
X171552102Y-105784697D02*
G01*
X171626627Y-105792037D01*
X171796466Y-105843557D01*
X171952991Y-105927222D01*
X171980713Y-105949973D01*
X172090186Y-106039814D01*
X172173448Y-106141271D01*
X172202778Y-106177009D01*
X172286443Y-106333534D01*
X172337963Y-106503373D01*
X172355359Y-106680000D01*
X172337963Y-106856627D01*
X172286443Y-107026466D01*
X172202778Y-107182991D01*
X172173448Y-107218729D01*
X172090186Y-107320186D01*
X171989891Y-107402495D01*
X171952991Y-107432778D01*
X171796466Y-107516443D01*
X171626627Y-107567963D01*
X171560443Y-107574481D01*
X171494260Y-107581000D01*
X171405740Y-107581000D01*
X171339557Y-107574481D01*
X171273373Y-107567963D01*
X171103534Y-107516443D01*
X170947009Y-107432778D01*
X170910109Y-107402495D01*
X170809814Y-107320186D01*
X170726552Y-107218729D01*
X170697222Y-107182991D01*
X170613557Y-107026466D01*
X170562037Y-106856627D01*
X170544641Y-106680000D01*
X170562037Y-106503373D01*
X170613557Y-106333534D01*
X170697222Y-106177009D01*
X170726552Y-106141271D01*
X170809814Y-106039814D01*
X170919287Y-105949973D01*
X170947009Y-105927222D01*
X171103534Y-105843557D01*
X171273373Y-105792037D01*
X171347898Y-105784697D01*
X171405740Y-105779000D01*
X171494260Y-105779000D01*
X171552102Y-105784697D01*
X171552102Y-105784697D01*
G37*
G36*
X169811000Y-107581000D02*
G01*
X168009000Y-107581000D01*
X168009000Y-105779000D01*
X169811000Y-105779000D01*
X169811000Y-107581000D01*
X169811000Y-107581000D01*
G37*
G36*
X199989213Y-105964502D02*
G01*
X200060321Y-105971505D01*
X200197172Y-106013019D01*
X200197175Y-106013020D01*
X200323294Y-106080432D01*
X200433843Y-106171157D01*
X200524568Y-106281706D01*
X200591980Y-106407825D01*
X200591981Y-106407828D01*
X200633495Y-106544679D01*
X200647512Y-106687000D01*
X200633495Y-106829321D01*
X200618385Y-106879130D01*
X200591980Y-106966175D01*
X200524568Y-107092294D01*
X200433843Y-107202843D01*
X200323294Y-107293568D01*
X200197175Y-107360980D01*
X200197172Y-107360981D01*
X200060321Y-107402495D01*
X199989213Y-107409498D01*
X199953660Y-107413000D01*
X199532340Y-107413000D01*
X199496787Y-107409498D01*
X199425679Y-107402495D01*
X199288828Y-107360981D01*
X199288825Y-107360980D01*
X199162706Y-107293568D01*
X199052157Y-107202843D01*
X198961432Y-107092294D01*
X198894020Y-106966175D01*
X198867615Y-106879130D01*
X198852505Y-106829321D01*
X198838488Y-106687000D01*
X198852505Y-106544679D01*
X198894019Y-106407828D01*
X198894020Y-106407825D01*
X198961432Y-106281706D01*
X199052157Y-106171157D01*
X199162706Y-106080432D01*
X199288825Y-106013020D01*
X199288828Y-106013019D01*
X199425679Y-105971505D01*
X199496787Y-105964502D01*
X199532340Y-105961000D01*
X199953660Y-105961000D01*
X199989213Y-105964502D01*
X199989213Y-105964502D01*
G37*
G36*
X197060818Y-105784696D02*
G01*
X197174105Y-105819062D01*
X197278512Y-105874869D01*
X197370027Y-105949973D01*
X197445131Y-106041488D01*
X197500938Y-106145895D01*
X197535304Y-106259182D01*
X197546907Y-106377000D01*
X197535304Y-106494818D01*
X197500938Y-106608105D01*
X197445131Y-106712512D01*
X197370027Y-106804027D01*
X197278512Y-106879131D01*
X197174105Y-106934938D01*
X197060818Y-106969304D01*
X196972519Y-106978000D01*
X196513481Y-106978000D01*
X196425182Y-106969304D01*
X196311895Y-106934938D01*
X196207488Y-106879131D01*
X196115973Y-106804027D01*
X196040869Y-106712512D01*
X195985062Y-106608105D01*
X195950696Y-106494818D01*
X195939093Y-106377000D01*
X195950696Y-106259182D01*
X195985062Y-106145895D01*
X196040869Y-106041488D01*
X196115973Y-105949973D01*
X196207488Y-105874869D01*
X196311895Y-105819062D01*
X196425182Y-105784696D01*
X196513481Y-105776000D01*
X196972519Y-105776000D01*
X197060818Y-105784696D01*
X197060818Y-105784696D01*
G37*
G36*
X96583943Y-104909787D02*
G01*
X96741108Y-104974887D01*
X96882553Y-105069398D01*
X97002842Y-105189687D01*
X97097353Y-105331132D01*
X97162453Y-105488297D01*
X97195640Y-105655143D01*
X97195640Y-105825257D01*
X97162453Y-105992103D01*
X97097353Y-106149268D01*
X97002842Y-106290713D01*
X96882553Y-106411002D01*
X96741108Y-106505513D01*
X96583943Y-106570613D01*
X96417097Y-106603800D01*
X96246983Y-106603800D01*
X96080137Y-106570613D01*
X95922972Y-106505513D01*
X95781527Y-106411002D01*
X95661238Y-106290713D01*
X95566727Y-106149268D01*
X95501627Y-105992103D01*
X95468440Y-105825257D01*
X95468440Y-105655143D01*
X95501627Y-105488297D01*
X95566727Y-105331132D01*
X95661238Y-105189687D01*
X95781527Y-105069398D01*
X95922972Y-104974887D01*
X96080137Y-104909787D01*
X96246983Y-104876600D01*
X96417097Y-104876600D01*
X96583943Y-104909787D01*
X96583943Y-104909787D01*
G37*
G36*
X114584923Y-104909787D02*
G01*
X114742088Y-104974887D01*
X114883533Y-105069398D01*
X115003822Y-105189687D01*
X115098333Y-105331132D01*
X115163433Y-105488297D01*
X115196620Y-105655143D01*
X115196620Y-105825257D01*
X115163433Y-105992103D01*
X115098333Y-106149268D01*
X115003822Y-106290713D01*
X114883533Y-106411002D01*
X114742088Y-106505513D01*
X114584923Y-106570613D01*
X114418077Y-106603800D01*
X114247963Y-106603800D01*
X114081117Y-106570613D01*
X113923952Y-106505513D01*
X113782507Y-106411002D01*
X113662218Y-106290713D01*
X113567707Y-106149268D01*
X113502607Y-105992103D01*
X113469420Y-105825257D01*
X113469420Y-105655143D01*
X113502607Y-105488297D01*
X113567707Y-105331132D01*
X113662218Y-105189687D01*
X113782507Y-105069398D01*
X113923952Y-104974887D01*
X114081117Y-104909787D01*
X114247963Y-104876600D01*
X114418077Y-104876600D01*
X114584923Y-104909787D01*
X114584923Y-104909787D01*
G37*
G36*
X98585463Y-104909787D02*
G01*
X98742628Y-104974887D01*
X98884073Y-105069398D01*
X99004362Y-105189687D01*
X99098873Y-105331132D01*
X99163973Y-105488297D01*
X99197160Y-105655143D01*
X99197160Y-105825257D01*
X99163973Y-105992103D01*
X99098873Y-106149268D01*
X99004362Y-106290713D01*
X98884073Y-106411002D01*
X98742628Y-106505513D01*
X98585463Y-106570613D01*
X98418617Y-106603800D01*
X98248503Y-106603800D01*
X98081657Y-106570613D01*
X97924492Y-106505513D01*
X97783047Y-106411002D01*
X97662758Y-106290713D01*
X97568247Y-106149268D01*
X97503147Y-105992103D01*
X97469960Y-105825257D01*
X97469960Y-105655143D01*
X97503147Y-105488297D01*
X97568247Y-105331132D01*
X97662758Y-105189687D01*
X97783047Y-105069398D01*
X97924492Y-104974887D01*
X98081657Y-104909787D01*
X98248503Y-104876600D01*
X98418617Y-104876600D01*
X98585463Y-104909787D01*
X98585463Y-104909787D01*
G37*
G36*
X100584443Y-104909787D02*
G01*
X100741608Y-104974887D01*
X100883053Y-105069398D01*
X101003342Y-105189687D01*
X101097853Y-105331132D01*
X101162953Y-105488297D01*
X101196140Y-105655143D01*
X101196140Y-105825257D01*
X101162953Y-105992103D01*
X101097853Y-106149268D01*
X101003342Y-106290713D01*
X100883053Y-106411002D01*
X100741608Y-106505513D01*
X100584443Y-106570613D01*
X100417597Y-106603800D01*
X100247483Y-106603800D01*
X100080637Y-106570613D01*
X99923472Y-106505513D01*
X99782027Y-106411002D01*
X99661738Y-106290713D01*
X99567227Y-106149268D01*
X99502127Y-105992103D01*
X99468940Y-105825257D01*
X99468940Y-105655143D01*
X99502127Y-105488297D01*
X99567227Y-105331132D01*
X99661738Y-105189687D01*
X99782027Y-105069398D01*
X99923472Y-104974887D01*
X100080637Y-104909787D01*
X100247483Y-104876600D01*
X100417597Y-104876600D01*
X100584443Y-104909787D01*
X100584443Y-104909787D01*
G37*
G36*
X104584943Y-104909787D02*
G01*
X104742108Y-104974887D01*
X104883553Y-105069398D01*
X105003842Y-105189687D01*
X105098353Y-105331132D01*
X105163453Y-105488297D01*
X105196640Y-105655143D01*
X105196640Y-105825257D01*
X105163453Y-105992103D01*
X105098353Y-106149268D01*
X105003842Y-106290713D01*
X104883553Y-106411002D01*
X104742108Y-106505513D01*
X104584943Y-106570613D01*
X104418097Y-106603800D01*
X104247983Y-106603800D01*
X104081137Y-106570613D01*
X103923972Y-106505513D01*
X103782527Y-106411002D01*
X103662238Y-106290713D01*
X103567727Y-106149268D01*
X103502627Y-105992103D01*
X103469440Y-105825257D01*
X103469440Y-105655143D01*
X103502627Y-105488297D01*
X103567727Y-105331132D01*
X103662238Y-105189687D01*
X103782527Y-105069398D01*
X103923972Y-104974887D01*
X104081137Y-104909787D01*
X104247983Y-104876600D01*
X104418097Y-104876600D01*
X104584943Y-104909787D01*
X104584943Y-104909787D01*
G37*
G36*
X108585443Y-104909787D02*
G01*
X108742608Y-104974887D01*
X108884053Y-105069398D01*
X109004342Y-105189687D01*
X109098853Y-105331132D01*
X109163953Y-105488297D01*
X109197140Y-105655143D01*
X109197140Y-105825257D01*
X109163953Y-105992103D01*
X109098853Y-106149268D01*
X109004342Y-106290713D01*
X108884053Y-106411002D01*
X108742608Y-106505513D01*
X108585443Y-106570613D01*
X108418597Y-106603800D01*
X108248483Y-106603800D01*
X108081637Y-106570613D01*
X107924472Y-106505513D01*
X107783027Y-106411002D01*
X107662738Y-106290713D01*
X107568227Y-106149268D01*
X107503127Y-105992103D01*
X107469940Y-105825257D01*
X107469940Y-105655143D01*
X107503127Y-105488297D01*
X107568227Y-105331132D01*
X107662738Y-105189687D01*
X107783027Y-105069398D01*
X107924472Y-104974887D01*
X108081637Y-104909787D01*
X108248483Y-104876600D01*
X108418597Y-104876600D01*
X108585443Y-104909787D01*
X108585443Y-104909787D01*
G37*
G36*
X110584423Y-104909787D02*
G01*
X110741588Y-104974887D01*
X110883033Y-105069398D01*
X111003322Y-105189687D01*
X111097833Y-105331132D01*
X111162933Y-105488297D01*
X111196120Y-105655143D01*
X111196120Y-105825257D01*
X111162933Y-105992103D01*
X111097833Y-106149268D01*
X111003322Y-106290713D01*
X110883033Y-106411002D01*
X110741588Y-106505513D01*
X110584423Y-106570613D01*
X110417577Y-106603800D01*
X110247463Y-106603800D01*
X110080617Y-106570613D01*
X109923452Y-106505513D01*
X109782007Y-106411002D01*
X109661718Y-106290713D01*
X109567207Y-106149268D01*
X109502107Y-105992103D01*
X109468920Y-105825257D01*
X109468920Y-105655143D01*
X109502107Y-105488297D01*
X109567207Y-105331132D01*
X109661718Y-105189687D01*
X109782007Y-105069398D01*
X109923452Y-104974887D01*
X110080617Y-104909787D01*
X110247463Y-104876600D01*
X110417577Y-104876600D01*
X110584423Y-104909787D01*
X110584423Y-104909787D01*
G37*
G36*
X112585943Y-104909787D02*
G01*
X112743108Y-104974887D01*
X112884553Y-105069398D01*
X113004842Y-105189687D01*
X113099353Y-105331132D01*
X113164453Y-105488297D01*
X113197640Y-105655143D01*
X113197640Y-105825257D01*
X113164453Y-105992103D01*
X113099353Y-106149268D01*
X113004842Y-106290713D01*
X112884553Y-106411002D01*
X112743108Y-106505513D01*
X112585943Y-106570613D01*
X112419097Y-106603800D01*
X112248983Y-106603800D01*
X112082137Y-106570613D01*
X111924972Y-106505513D01*
X111783527Y-106411002D01*
X111663238Y-106290713D01*
X111568727Y-106149268D01*
X111503627Y-105992103D01*
X111470440Y-105825257D01*
X111470440Y-105655143D01*
X111503627Y-105488297D01*
X111568727Y-105331132D01*
X111663238Y-105189687D01*
X111783527Y-105069398D01*
X111924972Y-104974887D01*
X112082137Y-104909787D01*
X112248983Y-104876600D01*
X112419097Y-104876600D01*
X112585943Y-104909787D01*
X112585943Y-104909787D01*
G37*
G36*
X102585963Y-104909787D02*
G01*
X102743128Y-104974887D01*
X102884573Y-105069398D01*
X103004862Y-105189687D01*
X103099373Y-105331132D01*
X103164473Y-105488297D01*
X103197660Y-105655143D01*
X103197660Y-105825257D01*
X103164473Y-105992103D01*
X103099373Y-106149268D01*
X103004862Y-106290713D01*
X102884573Y-106411002D01*
X102743128Y-106505513D01*
X102585963Y-106570613D01*
X102419117Y-106603800D01*
X102249003Y-106603800D01*
X102082157Y-106570613D01*
X101924992Y-106505513D01*
X101783547Y-106411002D01*
X101663258Y-106290713D01*
X101568747Y-106149268D01*
X101503647Y-105992103D01*
X101470460Y-105825257D01*
X101470460Y-105655143D01*
X101503647Y-105488297D01*
X101568747Y-105331132D01*
X101663258Y-105189687D01*
X101783547Y-105069398D01*
X101924992Y-104974887D01*
X102082157Y-104909787D01*
X102249003Y-104876600D01*
X102419117Y-104876600D01*
X102585963Y-104909787D01*
X102585963Y-104909787D01*
G37*
G36*
X106583923Y-104909787D02*
G01*
X106741088Y-104974887D01*
X106882533Y-105069398D01*
X107002822Y-105189687D01*
X107097333Y-105331132D01*
X107162433Y-105488297D01*
X107195620Y-105655143D01*
X107195620Y-105825257D01*
X107162433Y-105992103D01*
X107097333Y-106149268D01*
X107002822Y-106290713D01*
X106882533Y-106411002D01*
X106741088Y-106505513D01*
X106583923Y-106570613D01*
X106417077Y-106603800D01*
X106246963Y-106603800D01*
X106080117Y-106570613D01*
X105922952Y-106505513D01*
X105781507Y-106411002D01*
X105661218Y-106290713D01*
X105566707Y-106149268D01*
X105501607Y-105992103D01*
X105468420Y-105825257D01*
X105468420Y-105655143D01*
X105501607Y-105488297D01*
X105566707Y-105331132D01*
X105661218Y-105189687D01*
X105781507Y-105069398D01*
X105922952Y-104974887D01*
X106080117Y-104909787D01*
X106246963Y-104876600D01*
X106417077Y-104876600D01*
X106583923Y-104909787D01*
X106583923Y-104909787D01*
G37*
G36*
X197060818Y-100944696D02*
G01*
X197174105Y-100979062D01*
X197278512Y-101034869D01*
X197370027Y-101109973D01*
X197445131Y-101201488D01*
X197500938Y-101305895D01*
X197535304Y-101419182D01*
X197546907Y-101537000D01*
X197535304Y-101654818D01*
X197500938Y-101768105D01*
X197445131Y-101872512D01*
X197370027Y-101964027D01*
X197278512Y-102039131D01*
X197174105Y-102094938D01*
X197060818Y-102129304D01*
X196972519Y-102138000D01*
X196513481Y-102138000D01*
X196425182Y-102129304D01*
X196311895Y-102094938D01*
X196207488Y-102039131D01*
X196115973Y-101964027D01*
X196040869Y-101872512D01*
X195985062Y-101768105D01*
X195950696Y-101654818D01*
X195939093Y-101537000D01*
X195950696Y-101419182D01*
X195985062Y-101305895D01*
X196040869Y-101201488D01*
X196115973Y-101109973D01*
X196207488Y-101034869D01*
X196311895Y-100979062D01*
X196425182Y-100944696D01*
X196513481Y-100936000D01*
X196972519Y-100936000D01*
X197060818Y-100944696D01*
X197060818Y-100944696D01*
G37*
G36*
X199989213Y-100504502D02*
G01*
X200060321Y-100511505D01*
X200197172Y-100553019D01*
X200197175Y-100553020D01*
X200323294Y-100620432D01*
X200433843Y-100711157D01*
X200524568Y-100821706D01*
X200591980Y-100947825D01*
X200591981Y-100947828D01*
X200633495Y-101084679D01*
X200647512Y-101227000D01*
X200633495Y-101369321D01*
X200618369Y-101419184D01*
X200591980Y-101506175D01*
X200524568Y-101632294D01*
X200433843Y-101742843D01*
X200323294Y-101833568D01*
X200197175Y-101900980D01*
X200197172Y-101900981D01*
X200060321Y-101942495D01*
X199989213Y-101949498D01*
X199953660Y-101953000D01*
X199532340Y-101953000D01*
X199496787Y-101949498D01*
X199425679Y-101942495D01*
X199288828Y-101900981D01*
X199288825Y-101900980D01*
X199162706Y-101833568D01*
X199052157Y-101742843D01*
X198961432Y-101632294D01*
X198894020Y-101506175D01*
X198867631Y-101419184D01*
X198852505Y-101369321D01*
X198838488Y-101227000D01*
X198852505Y-101084679D01*
X198894019Y-100947828D01*
X198894020Y-100947825D01*
X198961432Y-100821706D01*
X199052157Y-100711157D01*
X199162706Y-100620432D01*
X199288825Y-100553020D01*
X199288828Y-100553019D01*
X199425679Y-100511505D01*
X199496787Y-100504502D01*
X199532340Y-100501000D01*
X199953660Y-100501000D01*
X199989213Y-100504502D01*
X199989213Y-100504502D01*
G37*
G36*
X141871000Y-99961000D02*
G01*
X140069000Y-99961000D01*
X140069000Y-98159000D01*
X141871000Y-98159000D01*
X141871000Y-99961000D01*
X141871000Y-99961000D01*
G37*
G36*
X148700443Y-98165519D02*
G01*
X148766627Y-98172037D01*
X148936466Y-98223557D01*
X149092991Y-98307222D01*
X149128729Y-98336552D01*
X149230186Y-98419814D01*
X149313448Y-98521271D01*
X149342778Y-98557009D01*
X149426443Y-98713534D01*
X149477963Y-98883373D01*
X149495359Y-99060000D01*
X149477963Y-99236627D01*
X149426443Y-99406466D01*
X149342778Y-99562991D01*
X149313448Y-99598729D01*
X149230186Y-99700186D01*
X149128729Y-99783448D01*
X149092991Y-99812778D01*
X148936466Y-99896443D01*
X148766627Y-99947963D01*
X148700443Y-99954481D01*
X148634260Y-99961000D01*
X148545740Y-99961000D01*
X148479557Y-99954481D01*
X148413373Y-99947963D01*
X148243534Y-99896443D01*
X148087009Y-99812778D01*
X148051271Y-99783448D01*
X147949814Y-99700186D01*
X147866552Y-99598729D01*
X147837222Y-99562991D01*
X147753557Y-99406466D01*
X147702037Y-99236627D01*
X147684641Y-99060000D01*
X147702037Y-98883373D01*
X147753557Y-98713534D01*
X147837222Y-98557009D01*
X147866552Y-98521271D01*
X147949814Y-98419814D01*
X148051271Y-98336552D01*
X148087009Y-98307222D01*
X148243534Y-98223557D01*
X148413373Y-98172037D01*
X148479557Y-98165519D01*
X148545740Y-98159000D01*
X148634260Y-98159000D01*
X148700443Y-98165519D01*
X148700443Y-98165519D01*
G37*
G36*
X146160443Y-98165519D02*
G01*
X146226627Y-98172037D01*
X146396466Y-98223557D01*
X146552991Y-98307222D01*
X146588729Y-98336552D01*
X146690186Y-98419814D01*
X146773448Y-98521271D01*
X146802778Y-98557009D01*
X146886443Y-98713534D01*
X146937963Y-98883373D01*
X146955359Y-99060000D01*
X146937963Y-99236627D01*
X146886443Y-99406466D01*
X146802778Y-99562991D01*
X146773448Y-99598729D01*
X146690186Y-99700186D01*
X146588729Y-99783448D01*
X146552991Y-99812778D01*
X146396466Y-99896443D01*
X146226627Y-99947963D01*
X146160443Y-99954481D01*
X146094260Y-99961000D01*
X146005740Y-99961000D01*
X145939557Y-99954481D01*
X145873373Y-99947963D01*
X145703534Y-99896443D01*
X145547009Y-99812778D01*
X145511271Y-99783448D01*
X145409814Y-99700186D01*
X145326552Y-99598729D01*
X145297222Y-99562991D01*
X145213557Y-99406466D01*
X145162037Y-99236627D01*
X145144641Y-99060000D01*
X145162037Y-98883373D01*
X145213557Y-98713534D01*
X145297222Y-98557009D01*
X145326552Y-98521271D01*
X145409814Y-98419814D01*
X145511271Y-98336552D01*
X145547009Y-98307222D01*
X145703534Y-98223557D01*
X145873373Y-98172037D01*
X145939557Y-98165519D01*
X146005740Y-98159000D01*
X146094260Y-98159000D01*
X146160443Y-98165519D01*
X146160443Y-98165519D01*
G37*
G36*
X143620443Y-98165519D02*
G01*
X143686627Y-98172037D01*
X143856466Y-98223557D01*
X144012991Y-98307222D01*
X144048729Y-98336552D01*
X144150186Y-98419814D01*
X144233448Y-98521271D01*
X144262778Y-98557009D01*
X144346443Y-98713534D01*
X144397963Y-98883373D01*
X144415359Y-99060000D01*
X144397963Y-99236627D01*
X144346443Y-99406466D01*
X144262778Y-99562991D01*
X144233448Y-99598729D01*
X144150186Y-99700186D01*
X144048729Y-99783448D01*
X144012991Y-99812778D01*
X143856466Y-99896443D01*
X143686627Y-99947963D01*
X143620443Y-99954481D01*
X143554260Y-99961000D01*
X143465740Y-99961000D01*
X143399557Y-99954481D01*
X143333373Y-99947963D01*
X143163534Y-99896443D01*
X143007009Y-99812778D01*
X142971271Y-99783448D01*
X142869814Y-99700186D01*
X142786552Y-99598729D01*
X142757222Y-99562991D01*
X142673557Y-99406466D01*
X142622037Y-99236627D01*
X142604641Y-99060000D01*
X142622037Y-98883373D01*
X142673557Y-98713534D01*
X142757222Y-98557009D01*
X142786552Y-98521271D01*
X142869814Y-98419814D01*
X142971271Y-98336552D01*
X143007009Y-98307222D01*
X143163534Y-98223557D01*
X143333373Y-98172037D01*
X143399557Y-98165519D01*
X143465740Y-98159000D01*
X143554260Y-98159000D01*
X143620443Y-98165519D01*
X143620443Y-98165519D01*
G37*
G36*
X153780443Y-98165519D02*
G01*
X153846627Y-98172037D01*
X154016466Y-98223557D01*
X154172991Y-98307222D01*
X154208729Y-98336552D01*
X154310186Y-98419814D01*
X154393448Y-98521271D01*
X154422778Y-98557009D01*
X154506443Y-98713534D01*
X154557963Y-98883373D01*
X154575359Y-99060000D01*
X154557963Y-99236627D01*
X154506443Y-99406466D01*
X154422778Y-99562991D01*
X154393448Y-99598729D01*
X154310186Y-99700186D01*
X154208729Y-99783448D01*
X154172991Y-99812778D01*
X154016466Y-99896443D01*
X153846627Y-99947963D01*
X153780443Y-99954481D01*
X153714260Y-99961000D01*
X153625740Y-99961000D01*
X153559557Y-99954481D01*
X153493373Y-99947963D01*
X153323534Y-99896443D01*
X153167009Y-99812778D01*
X153131271Y-99783448D01*
X153029814Y-99700186D01*
X152946552Y-99598729D01*
X152917222Y-99562991D01*
X152833557Y-99406466D01*
X152782037Y-99236627D01*
X152764641Y-99060000D01*
X152782037Y-98883373D01*
X152833557Y-98713534D01*
X152917222Y-98557009D01*
X152946552Y-98521271D01*
X153029814Y-98419814D01*
X153131271Y-98336552D01*
X153167009Y-98307222D01*
X153323534Y-98223557D01*
X153493373Y-98172037D01*
X153559557Y-98165519D01*
X153625740Y-98159000D01*
X153714260Y-98159000D01*
X153780443Y-98165519D01*
X153780443Y-98165519D01*
G37*
G36*
X156320443Y-98165519D02*
G01*
X156386627Y-98172037D01*
X156556466Y-98223557D01*
X156712991Y-98307222D01*
X156748729Y-98336552D01*
X156850186Y-98419814D01*
X156933448Y-98521271D01*
X156962778Y-98557009D01*
X157046443Y-98713534D01*
X157097963Y-98883373D01*
X157115359Y-99060000D01*
X157097963Y-99236627D01*
X157046443Y-99406466D01*
X156962778Y-99562991D01*
X156933448Y-99598729D01*
X156850186Y-99700186D01*
X156748729Y-99783448D01*
X156712991Y-99812778D01*
X156556466Y-99896443D01*
X156386627Y-99947963D01*
X156320443Y-99954481D01*
X156254260Y-99961000D01*
X156165740Y-99961000D01*
X156099557Y-99954481D01*
X156033373Y-99947963D01*
X155863534Y-99896443D01*
X155707009Y-99812778D01*
X155671271Y-99783448D01*
X155569814Y-99700186D01*
X155486552Y-99598729D01*
X155457222Y-99562991D01*
X155373557Y-99406466D01*
X155322037Y-99236627D01*
X155304641Y-99060000D01*
X155322037Y-98883373D01*
X155373557Y-98713534D01*
X155457222Y-98557009D01*
X155486552Y-98521271D01*
X155569814Y-98419814D01*
X155671271Y-98336552D01*
X155707009Y-98307222D01*
X155863534Y-98223557D01*
X156033373Y-98172037D01*
X156099557Y-98165519D01*
X156165740Y-98159000D01*
X156254260Y-98159000D01*
X156320443Y-98165519D01*
X156320443Y-98165519D01*
G37*
G36*
X151240443Y-98165519D02*
G01*
X151306627Y-98172037D01*
X151476466Y-98223557D01*
X151632991Y-98307222D01*
X151668729Y-98336552D01*
X151770186Y-98419814D01*
X151853448Y-98521271D01*
X151882778Y-98557009D01*
X151966443Y-98713534D01*
X152017963Y-98883373D01*
X152035359Y-99060000D01*
X152017963Y-99236627D01*
X151966443Y-99406466D01*
X151882778Y-99562991D01*
X151853448Y-99598729D01*
X151770186Y-99700186D01*
X151668729Y-99783448D01*
X151632991Y-99812778D01*
X151476466Y-99896443D01*
X151306627Y-99947963D01*
X151240443Y-99954481D01*
X151174260Y-99961000D01*
X151085740Y-99961000D01*
X151019557Y-99954481D01*
X150953373Y-99947963D01*
X150783534Y-99896443D01*
X150627009Y-99812778D01*
X150591271Y-99783448D01*
X150489814Y-99700186D01*
X150406552Y-99598729D01*
X150377222Y-99562991D01*
X150293557Y-99406466D01*
X150242037Y-99236627D01*
X150224641Y-99060000D01*
X150242037Y-98883373D01*
X150293557Y-98713534D01*
X150377222Y-98557009D01*
X150406552Y-98521271D01*
X150489814Y-98419814D01*
X150591271Y-98336552D01*
X150627009Y-98307222D01*
X150783534Y-98223557D01*
X150953373Y-98172037D01*
X151019557Y-98165519D01*
X151085740Y-98159000D01*
X151174260Y-98159000D01*
X151240443Y-98165519D01*
X151240443Y-98165519D01*
G37*
G36*
X158860443Y-98165519D02*
G01*
X158926627Y-98172037D01*
X159096466Y-98223557D01*
X159252991Y-98307222D01*
X159288729Y-98336552D01*
X159390186Y-98419814D01*
X159473448Y-98521271D01*
X159502778Y-98557009D01*
X159586443Y-98713534D01*
X159637963Y-98883373D01*
X159655359Y-99060000D01*
X159637963Y-99236627D01*
X159586443Y-99406466D01*
X159502778Y-99562991D01*
X159473448Y-99598729D01*
X159390186Y-99700186D01*
X159288729Y-99783448D01*
X159252991Y-99812778D01*
X159096466Y-99896443D01*
X158926627Y-99947963D01*
X158860443Y-99954481D01*
X158794260Y-99961000D01*
X158705740Y-99961000D01*
X158639557Y-99954481D01*
X158573373Y-99947963D01*
X158403534Y-99896443D01*
X158247009Y-99812778D01*
X158211271Y-99783448D01*
X158109814Y-99700186D01*
X158026552Y-99598729D01*
X157997222Y-99562991D01*
X157913557Y-99406466D01*
X157862037Y-99236627D01*
X157844641Y-99060000D01*
X157862037Y-98883373D01*
X157913557Y-98713534D01*
X157997222Y-98557009D01*
X158026552Y-98521271D01*
X158109814Y-98419814D01*
X158211271Y-98336552D01*
X158247009Y-98307222D01*
X158403534Y-98223557D01*
X158573373Y-98172037D01*
X158639557Y-98165519D01*
X158705740Y-98159000D01*
X158794260Y-98159000D01*
X158860443Y-98165519D01*
X158860443Y-98165519D01*
G37*
G36*
X129171000Y-96151000D02*
G01*
X127369000Y-96151000D01*
X127369000Y-94349000D01*
X129171000Y-94349000D01*
X129171000Y-96151000D01*
X129171000Y-96151000D01*
G37*
G36*
X125840442Y-94355518D02*
G01*
X125906627Y-94362037D01*
X126076466Y-94413557D01*
X126232991Y-94497222D01*
X126268729Y-94526552D01*
X126370186Y-94609814D01*
X126453448Y-94711271D01*
X126482778Y-94747009D01*
X126566443Y-94903534D01*
X126617963Y-95073373D01*
X126635359Y-95250000D01*
X126617963Y-95426627D01*
X126566443Y-95596466D01*
X126482778Y-95752991D01*
X126453448Y-95788729D01*
X126370186Y-95890186D01*
X126268729Y-95973448D01*
X126232991Y-96002778D01*
X126076466Y-96086443D01*
X125906627Y-96137963D01*
X125840443Y-96144481D01*
X125774260Y-96151000D01*
X125685740Y-96151000D01*
X125619558Y-96144482D01*
X125553373Y-96137963D01*
X125383534Y-96086443D01*
X125227009Y-96002778D01*
X125191271Y-95973448D01*
X125089814Y-95890186D01*
X125006552Y-95788729D01*
X124977222Y-95752991D01*
X124893557Y-95596466D01*
X124842037Y-95426627D01*
X124824641Y-95250000D01*
X124842037Y-95073373D01*
X124893557Y-94903534D01*
X124977222Y-94747009D01*
X125006552Y-94711271D01*
X125089814Y-94609814D01*
X125191271Y-94526552D01*
X125227009Y-94497222D01*
X125383534Y-94413557D01*
X125553373Y-94362037D01*
X125619557Y-94355519D01*
X125685740Y-94349000D01*
X125774260Y-94349000D01*
X125840442Y-94355518D01*
X125840442Y-94355518D01*
G37*
G36*
X125840442Y-91815518D02*
G01*
X125906627Y-91822037D01*
X126076466Y-91873557D01*
X126232991Y-91957222D01*
X126268729Y-91986552D01*
X126370186Y-92069814D01*
X126453448Y-92171271D01*
X126482778Y-92207009D01*
X126566443Y-92363534D01*
X126617963Y-92533373D01*
X126635359Y-92710000D01*
X126617963Y-92886627D01*
X126566443Y-93056466D01*
X126482778Y-93212991D01*
X126453448Y-93248729D01*
X126370186Y-93350186D01*
X126268729Y-93433448D01*
X126232991Y-93462778D01*
X126076466Y-93546443D01*
X125906627Y-93597963D01*
X125840442Y-93604482D01*
X125774260Y-93611000D01*
X125685740Y-93611000D01*
X125619557Y-93604481D01*
X125553373Y-93597963D01*
X125383534Y-93546443D01*
X125227009Y-93462778D01*
X125191271Y-93433448D01*
X125089814Y-93350186D01*
X125006552Y-93248729D01*
X124977222Y-93212991D01*
X124893557Y-93056466D01*
X124842037Y-92886627D01*
X124824641Y-92710000D01*
X124842037Y-92533373D01*
X124893557Y-92363534D01*
X124977222Y-92207009D01*
X125006552Y-92171271D01*
X125089814Y-92069814D01*
X125191271Y-91986552D01*
X125227009Y-91957222D01*
X125383534Y-91873557D01*
X125553373Y-91822037D01*
X125619558Y-91815518D01*
X125685740Y-91809000D01*
X125774260Y-91809000D01*
X125840442Y-91815518D01*
X125840442Y-91815518D01*
G37*
G36*
X128380442Y-91815518D02*
G01*
X128446627Y-91822037D01*
X128616466Y-91873557D01*
X128772991Y-91957222D01*
X128808729Y-91986552D01*
X128910186Y-92069814D01*
X128993448Y-92171271D01*
X129022778Y-92207009D01*
X129106443Y-92363534D01*
X129157963Y-92533373D01*
X129175359Y-92710000D01*
X129157963Y-92886627D01*
X129106443Y-93056466D01*
X129022778Y-93212991D01*
X128993448Y-93248729D01*
X128910186Y-93350186D01*
X128808729Y-93433448D01*
X128772991Y-93462778D01*
X128616466Y-93546443D01*
X128446627Y-93597963D01*
X128380442Y-93604482D01*
X128314260Y-93611000D01*
X128225740Y-93611000D01*
X128159557Y-93604481D01*
X128093373Y-93597963D01*
X127923534Y-93546443D01*
X127767009Y-93462778D01*
X127731271Y-93433448D01*
X127629814Y-93350186D01*
X127546552Y-93248729D01*
X127517222Y-93212991D01*
X127433557Y-93056466D01*
X127382037Y-92886627D01*
X127364641Y-92710000D01*
X127382037Y-92533373D01*
X127433557Y-92363534D01*
X127517222Y-92207009D01*
X127546552Y-92171271D01*
X127629814Y-92069814D01*
X127731271Y-91986552D01*
X127767009Y-91957222D01*
X127923534Y-91873557D01*
X128093373Y-91822037D01*
X128159558Y-91815518D01*
X128225740Y-91809000D01*
X128314260Y-91809000D01*
X128380442Y-91815518D01*
X128380442Y-91815518D01*
G37*
G36*
X193657098Y-87844033D02*
G01*
X194121350Y-88036332D01*
X194121352Y-88036333D01*
X194539168Y-88315509D01*
X194894491Y-88670832D01*
X195173667Y-89088648D01*
X195173668Y-89088650D01*
X195365967Y-89552902D01*
X195464000Y-90045747D01*
X195464000Y-90548253D01*
X195365967Y-91041098D01*
X195173668Y-91505350D01*
X195173667Y-91505352D01*
X194894491Y-91923168D01*
X194539168Y-92278491D01*
X194121352Y-92557667D01*
X194121351Y-92557668D01*
X194121350Y-92557668D01*
X193657098Y-92749967D01*
X193164253Y-92848000D01*
X192661747Y-92848000D01*
X192168902Y-92749967D01*
X191704650Y-92557668D01*
X191704649Y-92557668D01*
X191704648Y-92557667D01*
X191286832Y-92278491D01*
X190931509Y-91923168D01*
X190652333Y-91505352D01*
X190652332Y-91505350D01*
X190460033Y-91041098D01*
X190362000Y-90548253D01*
X190362000Y-90045747D01*
X190460033Y-89552902D01*
X190652332Y-89088650D01*
X190652333Y-89088648D01*
X190931509Y-88670832D01*
X191286832Y-88315509D01*
X191704648Y-88036333D01*
X191704650Y-88036332D01*
X192168902Y-87844033D01*
X192661747Y-87746000D01*
X193164253Y-87746000D01*
X193657098Y-87844033D01*
X193657098Y-87844033D01*
G37*
G36*
X128380443Y-89275520D02*
G01*
X128446627Y-89282038D01*
X128616466Y-89333558D01*
X128772991Y-89417223D01*
X128808729Y-89446553D01*
X128910186Y-89529815D01*
X128993448Y-89631272D01*
X129022778Y-89667010D01*
X129106443Y-89823535D01*
X129157963Y-89993374D01*
X129175359Y-90170001D01*
X129157963Y-90346628D01*
X129106443Y-90516467D01*
X129022778Y-90672992D01*
X128993448Y-90708730D01*
X128910186Y-90810187D01*
X128808729Y-90893449D01*
X128772991Y-90922779D01*
X128616466Y-91006444D01*
X128446627Y-91057964D01*
X128380442Y-91064483D01*
X128314260Y-91071001D01*
X128225740Y-91071001D01*
X128159558Y-91064483D01*
X128093373Y-91057964D01*
X127923534Y-91006444D01*
X127767009Y-90922779D01*
X127731271Y-90893449D01*
X127629814Y-90810187D01*
X127546552Y-90708730D01*
X127517222Y-90672992D01*
X127433557Y-90516467D01*
X127382037Y-90346628D01*
X127364641Y-90170001D01*
X127382037Y-89993374D01*
X127433557Y-89823535D01*
X127517222Y-89667010D01*
X127546552Y-89631272D01*
X127629814Y-89529815D01*
X127731271Y-89446553D01*
X127767009Y-89417223D01*
X127923534Y-89333558D01*
X128093373Y-89282038D01*
X128159557Y-89275520D01*
X128225740Y-89269001D01*
X128314260Y-89269001D01*
X128380443Y-89275520D01*
X128380443Y-89275520D01*
G37*
G36*
X125840443Y-89275519D02*
G01*
X125906627Y-89282037D01*
X126076466Y-89333557D01*
X126232991Y-89417222D01*
X126268729Y-89446552D01*
X126370186Y-89529814D01*
X126453448Y-89631271D01*
X126482778Y-89667009D01*
X126566443Y-89823534D01*
X126617963Y-89993373D01*
X126635359Y-90170000D01*
X126617963Y-90346627D01*
X126566443Y-90516466D01*
X126482778Y-90672991D01*
X126482777Y-90672992D01*
X126370186Y-90810186D01*
X126268729Y-90893448D01*
X126232991Y-90922778D01*
X126076466Y-91006443D01*
X125906627Y-91057963D01*
X125840442Y-91064482D01*
X125774260Y-91071000D01*
X125685740Y-91071000D01*
X125619558Y-91064482D01*
X125553373Y-91057963D01*
X125383534Y-91006443D01*
X125227009Y-90922778D01*
X125191271Y-90893448D01*
X125089814Y-90810186D01*
X124977223Y-90672992D01*
X124977222Y-90672991D01*
X124893557Y-90516466D01*
X124842037Y-90346627D01*
X124824641Y-90170000D01*
X124842037Y-89993373D01*
X124893557Y-89823534D01*
X124977222Y-89667009D01*
X125006552Y-89631271D01*
X125089814Y-89529814D01*
X125191271Y-89446552D01*
X125227009Y-89417222D01*
X125383534Y-89333557D01*
X125553373Y-89282037D01*
X125619557Y-89275519D01*
X125685740Y-89269000D01*
X125774260Y-89269000D01*
X125840443Y-89275519D01*
X125840443Y-89275519D01*
G37*
G36*
X128380442Y-86735518D02*
G01*
X128446627Y-86742037D01*
X128616466Y-86793557D01*
X128772991Y-86877222D01*
X128808729Y-86906552D01*
X128910186Y-86989814D01*
X128993448Y-87091271D01*
X129022778Y-87127009D01*
X129106443Y-87283534D01*
X129157963Y-87453373D01*
X129175359Y-87630000D01*
X129157963Y-87806627D01*
X129106443Y-87976466D01*
X129022778Y-88132991D01*
X128993448Y-88168729D01*
X128910186Y-88270186D01*
X128808729Y-88353448D01*
X128772991Y-88382778D01*
X128616466Y-88466443D01*
X128446627Y-88517963D01*
X128380442Y-88524482D01*
X128314260Y-88531000D01*
X128225740Y-88531000D01*
X128159558Y-88524482D01*
X128093373Y-88517963D01*
X127923534Y-88466443D01*
X127767009Y-88382778D01*
X127731271Y-88353448D01*
X127629814Y-88270186D01*
X127546552Y-88168729D01*
X127517222Y-88132991D01*
X127433557Y-87976466D01*
X127382037Y-87806627D01*
X127364641Y-87630000D01*
X127382037Y-87453373D01*
X127433557Y-87283534D01*
X127517222Y-87127009D01*
X127546552Y-87091271D01*
X127629814Y-86989814D01*
X127731271Y-86906552D01*
X127767009Y-86877222D01*
X127923534Y-86793557D01*
X128093373Y-86742037D01*
X128159558Y-86735518D01*
X128225740Y-86729000D01*
X128314260Y-86729000D01*
X128380442Y-86735518D01*
X128380442Y-86735518D01*
G37*
G36*
X125840442Y-86735518D02*
G01*
X125906627Y-86742037D01*
X126076466Y-86793557D01*
X126232991Y-86877222D01*
X126268729Y-86906552D01*
X126370186Y-86989814D01*
X126453448Y-87091271D01*
X126482778Y-87127009D01*
X126566443Y-87283534D01*
X126617963Y-87453373D01*
X126635359Y-87630000D01*
X126617963Y-87806627D01*
X126566443Y-87976466D01*
X126482778Y-88132991D01*
X126453448Y-88168729D01*
X126370186Y-88270186D01*
X126268729Y-88353448D01*
X126232991Y-88382778D01*
X126076466Y-88466443D01*
X125906627Y-88517963D01*
X125840442Y-88524482D01*
X125774260Y-88531000D01*
X125685740Y-88531000D01*
X125619558Y-88524482D01*
X125553373Y-88517963D01*
X125383534Y-88466443D01*
X125227009Y-88382778D01*
X125191271Y-88353448D01*
X125089814Y-88270186D01*
X125006552Y-88168729D01*
X124977222Y-88132991D01*
X124893557Y-87976466D01*
X124842037Y-87806627D01*
X124824641Y-87630000D01*
X124842037Y-87453373D01*
X124893557Y-87283534D01*
X124977222Y-87127009D01*
X125006552Y-87091271D01*
X125089814Y-86989814D01*
X125191271Y-86906552D01*
X125227009Y-86877222D01*
X125383534Y-86793557D01*
X125553373Y-86742037D01*
X125619558Y-86735518D01*
X125685740Y-86729000D01*
X125774260Y-86729000D01*
X125840442Y-86735518D01*
X125840442Y-86735518D01*
G37*
G36*
X125840442Y-84195518D02*
G01*
X125906627Y-84202037D01*
X126076466Y-84253557D01*
X126232991Y-84337222D01*
X126268729Y-84366552D01*
X126370186Y-84449814D01*
X126453448Y-84551271D01*
X126482778Y-84587009D01*
X126566443Y-84743534D01*
X126617963Y-84913373D01*
X126635359Y-85090000D01*
X126617963Y-85266627D01*
X126566443Y-85436466D01*
X126482778Y-85592991D01*
X126453448Y-85628729D01*
X126370186Y-85730186D01*
X126268729Y-85813448D01*
X126232991Y-85842778D01*
X126076466Y-85926443D01*
X125906627Y-85977963D01*
X125840442Y-85984482D01*
X125774260Y-85991000D01*
X125685740Y-85991000D01*
X125619558Y-85984482D01*
X125553373Y-85977963D01*
X125383534Y-85926443D01*
X125227009Y-85842778D01*
X125191271Y-85813448D01*
X125089814Y-85730186D01*
X125006552Y-85628729D01*
X124977222Y-85592991D01*
X124893557Y-85436466D01*
X124842037Y-85266627D01*
X124824641Y-85090000D01*
X124842037Y-84913373D01*
X124893557Y-84743534D01*
X124977222Y-84587009D01*
X125006552Y-84551271D01*
X125089814Y-84449814D01*
X125191271Y-84366552D01*
X125227009Y-84337222D01*
X125383534Y-84253557D01*
X125553373Y-84202037D01*
X125619558Y-84195518D01*
X125685740Y-84189000D01*
X125774260Y-84189000D01*
X125840442Y-84195518D01*
X125840442Y-84195518D01*
G37*
G36*
X128380442Y-84195518D02*
G01*
X128446627Y-84202037D01*
X128616466Y-84253557D01*
X128772991Y-84337222D01*
X128808729Y-84366552D01*
X128910186Y-84449814D01*
X128993448Y-84551271D01*
X129022778Y-84587009D01*
X129106443Y-84743534D01*
X129157963Y-84913373D01*
X129175359Y-85090000D01*
X129157963Y-85266627D01*
X129106443Y-85436466D01*
X129022778Y-85592991D01*
X128993448Y-85628729D01*
X128910186Y-85730186D01*
X128808729Y-85813448D01*
X128772991Y-85842778D01*
X128616466Y-85926443D01*
X128446627Y-85977963D01*
X128380442Y-85984482D01*
X128314260Y-85991000D01*
X128225740Y-85991000D01*
X128159558Y-85984482D01*
X128093373Y-85977963D01*
X127923534Y-85926443D01*
X127767009Y-85842778D01*
X127731271Y-85813448D01*
X127629814Y-85730186D01*
X127546552Y-85628729D01*
X127517222Y-85592991D01*
X127433557Y-85436466D01*
X127382037Y-85266627D01*
X127364641Y-85090000D01*
X127382037Y-84913373D01*
X127433557Y-84743534D01*
X127517222Y-84587009D01*
X127546552Y-84551271D01*
X127629814Y-84449814D01*
X127731271Y-84366552D01*
X127767009Y-84337222D01*
X127923534Y-84253557D01*
X128093373Y-84202037D01*
X128159558Y-84195518D01*
X128225740Y-84189000D01*
X128314260Y-84189000D01*
X128380442Y-84195518D01*
X128380442Y-84195518D01*
G37*
G36*
X193530098Y-80224033D02*
G01*
X193994350Y-80416332D01*
X193994352Y-80416333D01*
X194412168Y-80695509D01*
X194767491Y-81050832D01*
X195046667Y-81468648D01*
X195046668Y-81468650D01*
X195238967Y-81932902D01*
X195337000Y-82425747D01*
X195337000Y-82928253D01*
X195238967Y-83421098D01*
X195140531Y-83658743D01*
X195046667Y-83885352D01*
X194767491Y-84303168D01*
X194412168Y-84658491D01*
X193994352Y-84937667D01*
X193994351Y-84937668D01*
X193994350Y-84937668D01*
X193530098Y-85129967D01*
X193037253Y-85228000D01*
X192534747Y-85228000D01*
X192041902Y-85129967D01*
X191577650Y-84937668D01*
X191577649Y-84937668D01*
X191577648Y-84937667D01*
X191159832Y-84658491D01*
X190804509Y-84303168D01*
X190525333Y-83885352D01*
X190431469Y-83658743D01*
X190333033Y-83421098D01*
X190235000Y-82928253D01*
X190235000Y-82425747D01*
X190333033Y-81932902D01*
X190525332Y-81468650D01*
X190525333Y-81468648D01*
X190804509Y-81050832D01*
X191159832Y-80695509D01*
X191577648Y-80416333D01*
X191577650Y-80416332D01*
X192041902Y-80224033D01*
X192534747Y-80126000D01*
X193037253Y-80126000D01*
X193530098Y-80224033D01*
X193530098Y-80224033D01*
G37*
G36*
X100584443Y-82913387D02*
G01*
X100741608Y-82978487D01*
X100883053Y-83072998D01*
X101003342Y-83193287D01*
X101097853Y-83334732D01*
X101162953Y-83491897D01*
X101196140Y-83658743D01*
X101196140Y-83828857D01*
X101162953Y-83995703D01*
X101097853Y-84152868D01*
X101003342Y-84294313D01*
X100883053Y-84414602D01*
X100741608Y-84509113D01*
X100584443Y-84574213D01*
X100417597Y-84607400D01*
X100247483Y-84607400D01*
X100080637Y-84574213D01*
X99923472Y-84509113D01*
X99782027Y-84414602D01*
X99661738Y-84294313D01*
X99567227Y-84152868D01*
X99502127Y-83995703D01*
X99468940Y-83828857D01*
X99468940Y-83658743D01*
X99502127Y-83491897D01*
X99567227Y-83334732D01*
X99661738Y-83193287D01*
X99782027Y-83072998D01*
X99923472Y-82978487D01*
X100080637Y-82913387D01*
X100247483Y-82880200D01*
X100417597Y-82880200D01*
X100584443Y-82913387D01*
X100584443Y-82913387D01*
G37*
G36*
X102585963Y-82913387D02*
G01*
X102743128Y-82978487D01*
X102884573Y-83072998D01*
X103004862Y-83193287D01*
X103099373Y-83334732D01*
X103164473Y-83491897D01*
X103197660Y-83658743D01*
X103197660Y-83828857D01*
X103164473Y-83995703D01*
X103099373Y-84152868D01*
X103004862Y-84294313D01*
X102884573Y-84414602D01*
X102743128Y-84509113D01*
X102585963Y-84574213D01*
X102419117Y-84607400D01*
X102249003Y-84607400D01*
X102082157Y-84574213D01*
X101924992Y-84509113D01*
X101783547Y-84414602D01*
X101663258Y-84294313D01*
X101568747Y-84152868D01*
X101503647Y-83995703D01*
X101470460Y-83828857D01*
X101470460Y-83658743D01*
X101503647Y-83491897D01*
X101568747Y-83334732D01*
X101663258Y-83193287D01*
X101783547Y-83072998D01*
X101924992Y-82978487D01*
X102082157Y-82913387D01*
X102249003Y-82880200D01*
X102419117Y-82880200D01*
X102585963Y-82913387D01*
X102585963Y-82913387D01*
G37*
G36*
X110584423Y-82913387D02*
G01*
X110741588Y-82978487D01*
X110883033Y-83072998D01*
X111003322Y-83193287D01*
X111097833Y-83334732D01*
X111162933Y-83491897D01*
X111196120Y-83658743D01*
X111196120Y-83828857D01*
X111162933Y-83995703D01*
X111097833Y-84152868D01*
X111003322Y-84294313D01*
X110883033Y-84414602D01*
X110741588Y-84509113D01*
X110584423Y-84574213D01*
X110417577Y-84607400D01*
X110247463Y-84607400D01*
X110080617Y-84574213D01*
X109923452Y-84509113D01*
X109782007Y-84414602D01*
X109661718Y-84294313D01*
X109567207Y-84152868D01*
X109502107Y-83995703D01*
X109468920Y-83828857D01*
X109468920Y-83658743D01*
X109502107Y-83491897D01*
X109567207Y-83334732D01*
X109661718Y-83193287D01*
X109782007Y-83072998D01*
X109923452Y-82978487D01*
X110080617Y-82913387D01*
X110247463Y-82880200D01*
X110417577Y-82880200D01*
X110584423Y-82913387D01*
X110584423Y-82913387D01*
G37*
G36*
X112585943Y-82913387D02*
G01*
X112743108Y-82978487D01*
X112884553Y-83072998D01*
X113004842Y-83193287D01*
X113099353Y-83334732D01*
X113164453Y-83491897D01*
X113197640Y-83658743D01*
X113197640Y-83828857D01*
X113164453Y-83995703D01*
X113099353Y-84152868D01*
X113004842Y-84294313D01*
X112884553Y-84414602D01*
X112743108Y-84509113D01*
X112585943Y-84574213D01*
X112419097Y-84607400D01*
X112248983Y-84607400D01*
X112082137Y-84574213D01*
X111924972Y-84509113D01*
X111783527Y-84414602D01*
X111663238Y-84294313D01*
X111568727Y-84152868D01*
X111503627Y-83995703D01*
X111470440Y-83828857D01*
X111470440Y-83658743D01*
X111503627Y-83491897D01*
X111568727Y-83334732D01*
X111663238Y-83193287D01*
X111783527Y-83072998D01*
X111924972Y-82978487D01*
X112082137Y-82913387D01*
X112248983Y-82880200D01*
X112419097Y-82880200D01*
X112585943Y-82913387D01*
X112585943Y-82913387D01*
G37*
G36*
X114584923Y-82913387D02*
G01*
X114742088Y-82978487D01*
X114883533Y-83072998D01*
X115003822Y-83193287D01*
X115098333Y-83334732D01*
X115163433Y-83491897D01*
X115196620Y-83658743D01*
X115196620Y-83828857D01*
X115163433Y-83995703D01*
X115098333Y-84152868D01*
X115003822Y-84294313D01*
X114883533Y-84414602D01*
X114742088Y-84509113D01*
X114584923Y-84574213D01*
X114418077Y-84607400D01*
X114247963Y-84607400D01*
X114081117Y-84574213D01*
X113923952Y-84509113D01*
X113782507Y-84414602D01*
X113662218Y-84294313D01*
X113567707Y-84152868D01*
X113502607Y-83995703D01*
X113469420Y-83828857D01*
X113469420Y-83658743D01*
X113502607Y-83491897D01*
X113567707Y-83334732D01*
X113662218Y-83193287D01*
X113782507Y-83072998D01*
X113923952Y-82978487D01*
X114081117Y-82913387D01*
X114247963Y-82880200D01*
X114418077Y-82880200D01*
X114584923Y-82913387D01*
X114584923Y-82913387D01*
G37*
G36*
X98585463Y-82913387D02*
G01*
X98742628Y-82978487D01*
X98884073Y-83072998D01*
X99004362Y-83193287D01*
X99098873Y-83334732D01*
X99163973Y-83491897D01*
X99197160Y-83658743D01*
X99197160Y-83828857D01*
X99163973Y-83995703D01*
X99098873Y-84152868D01*
X99004362Y-84294313D01*
X98884073Y-84414602D01*
X98742628Y-84509113D01*
X98585463Y-84574213D01*
X98418617Y-84607400D01*
X98248503Y-84607400D01*
X98081657Y-84574213D01*
X97924492Y-84509113D01*
X97783047Y-84414602D01*
X97662758Y-84294313D01*
X97568247Y-84152868D01*
X97503147Y-83995703D01*
X97469960Y-83828857D01*
X97469960Y-83658743D01*
X97503147Y-83491897D01*
X97568247Y-83334732D01*
X97662758Y-83193287D01*
X97783047Y-83072998D01*
X97924492Y-82978487D01*
X98081657Y-82913387D01*
X98248503Y-82880200D01*
X98418617Y-82880200D01*
X98585463Y-82913387D01*
X98585463Y-82913387D01*
G37*
G36*
X96583943Y-82913387D02*
G01*
X96741108Y-82978487D01*
X96882553Y-83072998D01*
X97002842Y-83193287D01*
X97097353Y-83334732D01*
X97162453Y-83491897D01*
X97195640Y-83658743D01*
X97195640Y-83828857D01*
X97162453Y-83995703D01*
X97097353Y-84152868D01*
X97002842Y-84294313D01*
X96882553Y-84414602D01*
X96741108Y-84509113D01*
X96583943Y-84574213D01*
X96417097Y-84607400D01*
X96246983Y-84607400D01*
X96080137Y-84574213D01*
X95922972Y-84509113D01*
X95781527Y-84414602D01*
X95661238Y-84294313D01*
X95566727Y-84152868D01*
X95501627Y-83995703D01*
X95468440Y-83828857D01*
X95468440Y-83658743D01*
X95501627Y-83491897D01*
X95566727Y-83334732D01*
X95661238Y-83193287D01*
X95781527Y-83072998D01*
X95922972Y-82978487D01*
X96080137Y-82913387D01*
X96246983Y-82880200D01*
X96417097Y-82880200D01*
X96583943Y-82913387D01*
X96583943Y-82913387D01*
G37*
G36*
X108585443Y-82913387D02*
G01*
X108742608Y-82978487D01*
X108884053Y-83072998D01*
X109004342Y-83193287D01*
X109098853Y-83334732D01*
X109163953Y-83491897D01*
X109197140Y-83658743D01*
X109197140Y-83828857D01*
X109163953Y-83995703D01*
X109098853Y-84152868D01*
X109004342Y-84294313D01*
X108884053Y-84414602D01*
X108742608Y-84509113D01*
X108585443Y-84574213D01*
X108418597Y-84607400D01*
X108248483Y-84607400D01*
X108081637Y-84574213D01*
X107924472Y-84509113D01*
X107783027Y-84414602D01*
X107662738Y-84294313D01*
X107568227Y-84152868D01*
X107503127Y-83995703D01*
X107469940Y-83828857D01*
X107469940Y-83658743D01*
X107503127Y-83491897D01*
X107568227Y-83334732D01*
X107662738Y-83193287D01*
X107783027Y-83072998D01*
X107924472Y-82978487D01*
X108081637Y-82913387D01*
X108248483Y-82880200D01*
X108418597Y-82880200D01*
X108585443Y-82913387D01*
X108585443Y-82913387D01*
G37*
G36*
X104584943Y-82913387D02*
G01*
X104742108Y-82978487D01*
X104883553Y-83072998D01*
X105003842Y-83193287D01*
X105098353Y-83334732D01*
X105163453Y-83491897D01*
X105196640Y-83658743D01*
X105196640Y-83828857D01*
X105163453Y-83995703D01*
X105098353Y-84152868D01*
X105003842Y-84294313D01*
X104883553Y-84414602D01*
X104742108Y-84509113D01*
X104584943Y-84574213D01*
X104418097Y-84607400D01*
X104247983Y-84607400D01*
X104081137Y-84574213D01*
X103923972Y-84509113D01*
X103782527Y-84414602D01*
X103662238Y-84294313D01*
X103567727Y-84152868D01*
X103502627Y-83995703D01*
X103469440Y-83828857D01*
X103469440Y-83658743D01*
X103502627Y-83491897D01*
X103567727Y-83334732D01*
X103662238Y-83193287D01*
X103782527Y-83072998D01*
X103923972Y-82978487D01*
X104081137Y-82913387D01*
X104247983Y-82880200D01*
X104418097Y-82880200D01*
X104584943Y-82913387D01*
X104584943Y-82913387D01*
G37*
G36*
X106583923Y-82913387D02*
G01*
X106741088Y-82978487D01*
X106882533Y-83072998D01*
X107002822Y-83193287D01*
X107097333Y-83334732D01*
X107162433Y-83491897D01*
X107195620Y-83658743D01*
X107195620Y-83828857D01*
X107162433Y-83995703D01*
X107097333Y-84152868D01*
X107002822Y-84294313D01*
X106882533Y-84414602D01*
X106741088Y-84509113D01*
X106583923Y-84574213D01*
X106417077Y-84607400D01*
X106246963Y-84607400D01*
X106080117Y-84574213D01*
X105922952Y-84509113D01*
X105781507Y-84414602D01*
X105661218Y-84294313D01*
X105566707Y-84152868D01*
X105501607Y-83995703D01*
X105468420Y-83828857D01*
X105468420Y-83658743D01*
X105501607Y-83491897D01*
X105566707Y-83334732D01*
X105661218Y-83193287D01*
X105781507Y-83072998D01*
X105922952Y-82978487D01*
X106080117Y-82913387D01*
X106246963Y-82880200D01*
X106417077Y-82880200D01*
X106583923Y-82913387D01*
X106583923Y-82913387D01*
G37*
G36*
X149970442Y-80385518D02*
G01*
X150036627Y-80392037D01*
X150206466Y-80443557D01*
X150362991Y-80527222D01*
X150398729Y-80556552D01*
X150500186Y-80639814D01*
X150583448Y-80741271D01*
X150612778Y-80777009D01*
X150696443Y-80933534D01*
X150747963Y-81103373D01*
X150765359Y-81280000D01*
X150747963Y-81456627D01*
X150696443Y-81626466D01*
X150612778Y-81782991D01*
X150583448Y-81818729D01*
X150500186Y-81920186D01*
X150398729Y-82003448D01*
X150362991Y-82032778D01*
X150206466Y-82116443D01*
X150036627Y-82167963D01*
X149970443Y-82174481D01*
X149904260Y-82181000D01*
X149815740Y-82181000D01*
X149749557Y-82174481D01*
X149683373Y-82167963D01*
X149513534Y-82116443D01*
X149357009Y-82032778D01*
X149321271Y-82003448D01*
X149219814Y-81920186D01*
X149136552Y-81818729D01*
X149107222Y-81782991D01*
X149023557Y-81626466D01*
X148972037Y-81456627D01*
X148954641Y-81280000D01*
X148972037Y-81103373D01*
X149023557Y-80933534D01*
X149107222Y-80777009D01*
X149136552Y-80741271D01*
X149219814Y-80639814D01*
X149321271Y-80556552D01*
X149357009Y-80527222D01*
X149513534Y-80443557D01*
X149683373Y-80392037D01*
X149749558Y-80385518D01*
X149815740Y-80379000D01*
X149904260Y-80379000D01*
X149970442Y-80385518D01*
X149970442Y-80385518D01*
G37*
G36*
X152510442Y-80385518D02*
G01*
X152576627Y-80392037D01*
X152746466Y-80443557D01*
X152902991Y-80527222D01*
X152938729Y-80556552D01*
X153040186Y-80639814D01*
X153123448Y-80741271D01*
X153152778Y-80777009D01*
X153236443Y-80933534D01*
X153287963Y-81103373D01*
X153305359Y-81280000D01*
X153287963Y-81456627D01*
X153236443Y-81626466D01*
X153152778Y-81782991D01*
X153123448Y-81818729D01*
X153040186Y-81920186D01*
X152938729Y-82003448D01*
X152902991Y-82032778D01*
X152746466Y-82116443D01*
X152576627Y-82167963D01*
X152510443Y-82174481D01*
X152444260Y-82181000D01*
X152355740Y-82181000D01*
X152289557Y-82174481D01*
X152223373Y-82167963D01*
X152053534Y-82116443D01*
X151897009Y-82032778D01*
X151861271Y-82003448D01*
X151759814Y-81920186D01*
X151676552Y-81818729D01*
X151647222Y-81782991D01*
X151563557Y-81626466D01*
X151512037Y-81456627D01*
X151494641Y-81280000D01*
X151512037Y-81103373D01*
X151563557Y-80933534D01*
X151647222Y-80777009D01*
X151676552Y-80741271D01*
X151759814Y-80639814D01*
X151861271Y-80556552D01*
X151897009Y-80527222D01*
X152053534Y-80443557D01*
X152223373Y-80392037D01*
X152289558Y-80385518D01*
X152355740Y-80379000D01*
X152444260Y-80379000D01*
X152510442Y-80385518D01*
X152510442Y-80385518D01*
G37*
G36*
X147430442Y-80385518D02*
G01*
X147496627Y-80392037D01*
X147666466Y-80443557D01*
X147822991Y-80527222D01*
X147858729Y-80556552D01*
X147960186Y-80639814D01*
X148043448Y-80741271D01*
X148072778Y-80777009D01*
X148156443Y-80933534D01*
X148207963Y-81103373D01*
X148225359Y-81280000D01*
X148207963Y-81456627D01*
X148156443Y-81626466D01*
X148072778Y-81782991D01*
X148043448Y-81818729D01*
X147960186Y-81920186D01*
X147858729Y-82003448D01*
X147822991Y-82032778D01*
X147666466Y-82116443D01*
X147496627Y-82167963D01*
X147430443Y-82174481D01*
X147364260Y-82181000D01*
X147275740Y-82181000D01*
X147209557Y-82174481D01*
X147143373Y-82167963D01*
X146973534Y-82116443D01*
X146817009Y-82032778D01*
X146781271Y-82003448D01*
X146679814Y-81920186D01*
X146596552Y-81818729D01*
X146567222Y-81782991D01*
X146483557Y-81626466D01*
X146432037Y-81456627D01*
X146414641Y-81280000D01*
X146432037Y-81103373D01*
X146483557Y-80933534D01*
X146567222Y-80777009D01*
X146596552Y-80741271D01*
X146679814Y-80639814D01*
X146781271Y-80556552D01*
X146817009Y-80527222D01*
X146973534Y-80443557D01*
X147143373Y-80392037D01*
X147209558Y-80385518D01*
X147275740Y-80379000D01*
X147364260Y-80379000D01*
X147430442Y-80385518D01*
X147430442Y-80385518D01*
G37*
G36*
X144890442Y-80385518D02*
G01*
X144956627Y-80392037D01*
X145126466Y-80443557D01*
X145282991Y-80527222D01*
X145318729Y-80556552D01*
X145420186Y-80639814D01*
X145503448Y-80741271D01*
X145532778Y-80777009D01*
X145616443Y-80933534D01*
X145667963Y-81103373D01*
X145685359Y-81280000D01*
X145667963Y-81456627D01*
X145616443Y-81626466D01*
X145532778Y-81782991D01*
X145503448Y-81818729D01*
X145420186Y-81920186D01*
X145318729Y-82003448D01*
X145282991Y-82032778D01*
X145126466Y-82116443D01*
X144956627Y-82167963D01*
X144890443Y-82174481D01*
X144824260Y-82181000D01*
X144735740Y-82181000D01*
X144669557Y-82174481D01*
X144603373Y-82167963D01*
X144433534Y-82116443D01*
X144277009Y-82032778D01*
X144241271Y-82003448D01*
X144139814Y-81920186D01*
X144056552Y-81818729D01*
X144027222Y-81782991D01*
X143943557Y-81626466D01*
X143892037Y-81456627D01*
X143874641Y-81280000D01*
X143892037Y-81103373D01*
X143943557Y-80933534D01*
X144027222Y-80777009D01*
X144056552Y-80741271D01*
X144139814Y-80639814D01*
X144241271Y-80556552D01*
X144277009Y-80527222D01*
X144433534Y-80443557D01*
X144603373Y-80392037D01*
X144669558Y-80385518D01*
X144735740Y-80379000D01*
X144824260Y-80379000D01*
X144890442Y-80385518D01*
X144890442Y-80385518D01*
G37*
G36*
X153301000Y-79641000D02*
G01*
X151499000Y-79641000D01*
X151499000Y-77839000D01*
X153301000Y-77839000D01*
X153301000Y-79641000D01*
X153301000Y-79641000D01*
G37*
G36*
X149970443Y-77845519D02*
G01*
X150036627Y-77852037D01*
X150206466Y-77903557D01*
X150362991Y-77987222D01*
X150398729Y-78016552D01*
X150500186Y-78099814D01*
X150583448Y-78201271D01*
X150612778Y-78237009D01*
X150696443Y-78393534D01*
X150747963Y-78563373D01*
X150765359Y-78740000D01*
X150747963Y-78916627D01*
X150696443Y-79086466D01*
X150612778Y-79242991D01*
X150583448Y-79278729D01*
X150500186Y-79380186D01*
X150398729Y-79463448D01*
X150362991Y-79492778D01*
X150206466Y-79576443D01*
X150036627Y-79627963D01*
X149970442Y-79634482D01*
X149904260Y-79641000D01*
X149815740Y-79641000D01*
X149749558Y-79634482D01*
X149683373Y-79627963D01*
X149513534Y-79576443D01*
X149357009Y-79492778D01*
X149321271Y-79463448D01*
X149219814Y-79380186D01*
X149136552Y-79278729D01*
X149107222Y-79242991D01*
X149023557Y-79086466D01*
X148972037Y-78916627D01*
X148954641Y-78740000D01*
X148972037Y-78563373D01*
X149023557Y-78393534D01*
X149107222Y-78237009D01*
X149136552Y-78201271D01*
X149219814Y-78099814D01*
X149321271Y-78016552D01*
X149357009Y-77987222D01*
X149513534Y-77903557D01*
X149683373Y-77852037D01*
X149749557Y-77845519D01*
X149815740Y-77839000D01*
X149904260Y-77839000D01*
X149970443Y-77845519D01*
X149970443Y-77845519D01*
G37*
G36*
X147430443Y-77845519D02*
G01*
X147496627Y-77852037D01*
X147666466Y-77903557D01*
X147822991Y-77987222D01*
X147858729Y-78016552D01*
X147960186Y-78099814D01*
X148043448Y-78201271D01*
X148072778Y-78237009D01*
X148156443Y-78393534D01*
X148207963Y-78563373D01*
X148225359Y-78740000D01*
X148207963Y-78916627D01*
X148156443Y-79086466D01*
X148072778Y-79242991D01*
X148043448Y-79278729D01*
X147960186Y-79380186D01*
X147858729Y-79463448D01*
X147822991Y-79492778D01*
X147666466Y-79576443D01*
X147496627Y-79627963D01*
X147430442Y-79634482D01*
X147364260Y-79641000D01*
X147275740Y-79641000D01*
X147209558Y-79634482D01*
X147143373Y-79627963D01*
X146973534Y-79576443D01*
X146817009Y-79492778D01*
X146781271Y-79463448D01*
X146679814Y-79380186D01*
X146596552Y-79278729D01*
X146567222Y-79242991D01*
X146483557Y-79086466D01*
X146432037Y-78916627D01*
X146414641Y-78740000D01*
X146432037Y-78563373D01*
X146483557Y-78393534D01*
X146567222Y-78237009D01*
X146596552Y-78201271D01*
X146679814Y-78099814D01*
X146781271Y-78016552D01*
X146817009Y-77987222D01*
X146973534Y-77903557D01*
X147143373Y-77852037D01*
X147209557Y-77845519D01*
X147275740Y-77839000D01*
X147364260Y-77839000D01*
X147430443Y-77845519D01*
X147430443Y-77845519D01*
G37*
G36*
X144890443Y-77845519D02*
G01*
X144956627Y-77852037D01*
X145126466Y-77903557D01*
X145282991Y-77987222D01*
X145318729Y-78016552D01*
X145420186Y-78099814D01*
X145503448Y-78201271D01*
X145532778Y-78237009D01*
X145616443Y-78393534D01*
X145667963Y-78563373D01*
X145685359Y-78740000D01*
X145667963Y-78916627D01*
X145616443Y-79086466D01*
X145532778Y-79242991D01*
X145503448Y-79278729D01*
X145420186Y-79380186D01*
X145318729Y-79463448D01*
X145282991Y-79492778D01*
X145126466Y-79576443D01*
X144956627Y-79627963D01*
X144890442Y-79634482D01*
X144824260Y-79641000D01*
X144735740Y-79641000D01*
X144669558Y-79634482D01*
X144603373Y-79627963D01*
X144433534Y-79576443D01*
X144277009Y-79492778D01*
X144241271Y-79463448D01*
X144139814Y-79380186D01*
X144056552Y-79278729D01*
X144027222Y-79242991D01*
X143943557Y-79086466D01*
X143892037Y-78916627D01*
X143874641Y-78740000D01*
X143892037Y-78563373D01*
X143943557Y-78393534D01*
X144027222Y-78237009D01*
X144056552Y-78201271D01*
X144139814Y-78099814D01*
X144241271Y-78016552D01*
X144277009Y-77987222D01*
X144433534Y-77903557D01*
X144603373Y-77852037D01*
X144669557Y-77845519D01*
X144735740Y-77839000D01*
X144824260Y-77839000D01*
X144890443Y-77845519D01*
X144890443Y-77845519D01*
G37*
G36*
X129171000Y-77101000D02*
G01*
X127369000Y-77101000D01*
X127369000Y-75299000D01*
X129171000Y-75299000D01*
X129171000Y-77101000D01*
X129171000Y-77101000D01*
G37*
G36*
X125840442Y-75305518D02*
G01*
X125906627Y-75312037D01*
X126076466Y-75363557D01*
X126232991Y-75447222D01*
X126268729Y-75476552D01*
X126370186Y-75559814D01*
X126453448Y-75661271D01*
X126482778Y-75697009D01*
X126566443Y-75853534D01*
X126617963Y-76023373D01*
X126635359Y-76200000D01*
X126617963Y-76376627D01*
X126566443Y-76546466D01*
X126482778Y-76702991D01*
X126453448Y-76738729D01*
X126370186Y-76840186D01*
X126268729Y-76923448D01*
X126232991Y-76952778D01*
X126076466Y-77036443D01*
X125906627Y-77087963D01*
X125840442Y-77094482D01*
X125774260Y-77101000D01*
X125685740Y-77101000D01*
X125619558Y-77094482D01*
X125553373Y-77087963D01*
X125383534Y-77036443D01*
X125227009Y-76952778D01*
X125191271Y-76923448D01*
X125089814Y-76840186D01*
X125006552Y-76738729D01*
X124977222Y-76702991D01*
X124893557Y-76546466D01*
X124842037Y-76376627D01*
X124824641Y-76200000D01*
X124842037Y-76023373D01*
X124893557Y-75853534D01*
X124977222Y-75697009D01*
X125006552Y-75661271D01*
X125089814Y-75559814D01*
X125191271Y-75476552D01*
X125227009Y-75447222D01*
X125383534Y-75363557D01*
X125553373Y-75312037D01*
X125619558Y-75305518D01*
X125685740Y-75299000D01*
X125774260Y-75299000D01*
X125840442Y-75305518D01*
X125840442Y-75305518D01*
G37*
G36*
X125840442Y-72765518D02*
G01*
X125906627Y-72772037D01*
X126076466Y-72823557D01*
X126232991Y-72907222D01*
X126268729Y-72936552D01*
X126370186Y-73019814D01*
X126453448Y-73121271D01*
X126482778Y-73157009D01*
X126566443Y-73313534D01*
X126617963Y-73483373D01*
X126635359Y-73660000D01*
X126617963Y-73836627D01*
X126566443Y-74006466D01*
X126482778Y-74162991D01*
X126453448Y-74198729D01*
X126370186Y-74300186D01*
X126268729Y-74383448D01*
X126232991Y-74412778D01*
X126076466Y-74496443D01*
X125906627Y-74547963D01*
X125840442Y-74554482D01*
X125774260Y-74561000D01*
X125685740Y-74561000D01*
X125619558Y-74554482D01*
X125553373Y-74547963D01*
X125383534Y-74496443D01*
X125227009Y-74412778D01*
X125191271Y-74383448D01*
X125089814Y-74300186D01*
X125006552Y-74198729D01*
X124977222Y-74162991D01*
X124893557Y-74006466D01*
X124842037Y-73836627D01*
X124824641Y-73660000D01*
X124842037Y-73483373D01*
X124893557Y-73313534D01*
X124977222Y-73157009D01*
X125006552Y-73121271D01*
X125089814Y-73019814D01*
X125191271Y-72936552D01*
X125227009Y-72907222D01*
X125383534Y-72823557D01*
X125553373Y-72772037D01*
X125619558Y-72765518D01*
X125685740Y-72759000D01*
X125774260Y-72759000D01*
X125840442Y-72765518D01*
X125840442Y-72765518D01*
G37*
G36*
X128380442Y-72765518D02*
G01*
X128446627Y-72772037D01*
X128616466Y-72823557D01*
X128772991Y-72907222D01*
X128808729Y-72936552D01*
X128910186Y-73019814D01*
X128993448Y-73121271D01*
X129022778Y-73157009D01*
X129106443Y-73313534D01*
X129157963Y-73483373D01*
X129175359Y-73660000D01*
X129157963Y-73836627D01*
X129106443Y-74006466D01*
X129022778Y-74162991D01*
X128993448Y-74198729D01*
X128910186Y-74300186D01*
X128808729Y-74383448D01*
X128772991Y-74412778D01*
X128616466Y-74496443D01*
X128446627Y-74547963D01*
X128380442Y-74554482D01*
X128314260Y-74561000D01*
X128225740Y-74561000D01*
X128159558Y-74554482D01*
X128093373Y-74547963D01*
X127923534Y-74496443D01*
X127767009Y-74412778D01*
X127731271Y-74383448D01*
X127629814Y-74300186D01*
X127546552Y-74198729D01*
X127517222Y-74162991D01*
X127433557Y-74006466D01*
X127382037Y-73836627D01*
X127364641Y-73660000D01*
X127382037Y-73483373D01*
X127433557Y-73313534D01*
X127517222Y-73157009D01*
X127546552Y-73121271D01*
X127629814Y-73019814D01*
X127731271Y-72936552D01*
X127767009Y-72907222D01*
X127923534Y-72823557D01*
X128093373Y-72772037D01*
X128159558Y-72765518D01*
X128225740Y-72759000D01*
X128314260Y-72759000D01*
X128380442Y-72765518D01*
X128380442Y-72765518D01*
G37*
G36*
X192272256Y-69638298D02*
G01*
X192378579Y-69659447D01*
X192679042Y-69783903D01*
X192949451Y-69964585D01*
X193179415Y-70194549D01*
X193294792Y-70367223D01*
X193360098Y-70464960D01*
X193396550Y-70552963D01*
X193484553Y-70765421D01*
X193486167Y-70773534D01*
X193548000Y-71084389D01*
X193548000Y-71409611D01*
X193536690Y-71466468D01*
X193484553Y-71728579D01*
X193360097Y-72029042D01*
X193179415Y-72299451D01*
X192949451Y-72529415D01*
X192679042Y-72710097D01*
X192378579Y-72834553D01*
X192272256Y-72855702D01*
X192059611Y-72898000D01*
X191734389Y-72898000D01*
X191521744Y-72855702D01*
X191415421Y-72834553D01*
X191114958Y-72710097D01*
X190844549Y-72529415D01*
X190614585Y-72299451D01*
X190433903Y-72029042D01*
X190309447Y-71728579D01*
X190257310Y-71466468D01*
X190246000Y-71409611D01*
X190246000Y-71084389D01*
X190307833Y-70773534D01*
X190309447Y-70765421D01*
X190397450Y-70552963D01*
X190433902Y-70464960D01*
X190499208Y-70367223D01*
X190614585Y-70194549D01*
X190844549Y-69964585D01*
X191114958Y-69783903D01*
X191415421Y-69659447D01*
X191521744Y-69638298D01*
X191734389Y-69596000D01*
X192059611Y-69596000D01*
X192272256Y-69638298D01*
X192272256Y-69638298D01*
G37*
G36*
X100197256Y-69638298D02*
G01*
X100303579Y-69659447D01*
X100604042Y-69783903D01*
X100874451Y-69964585D01*
X101104415Y-70194549D01*
X101219792Y-70367223D01*
X101285098Y-70464960D01*
X101321550Y-70552963D01*
X101409553Y-70765421D01*
X101411167Y-70773534D01*
X101473000Y-71084389D01*
X101473000Y-71409611D01*
X101461690Y-71466468D01*
X101409553Y-71728579D01*
X101285097Y-72029042D01*
X101104415Y-72299451D01*
X100874451Y-72529415D01*
X100604042Y-72710097D01*
X100303579Y-72834553D01*
X100197256Y-72855702D01*
X99984611Y-72898000D01*
X99659389Y-72898000D01*
X99446744Y-72855702D01*
X99340421Y-72834553D01*
X99039958Y-72710097D01*
X98769549Y-72529415D01*
X98539585Y-72299451D01*
X98358903Y-72029042D01*
X98234447Y-71728579D01*
X98182310Y-71466468D01*
X98171000Y-71409611D01*
X98171000Y-71084389D01*
X98232833Y-70773534D01*
X98234447Y-70765421D01*
X98322450Y-70552963D01*
X98358902Y-70464960D01*
X98424208Y-70367223D01*
X98539585Y-70194549D01*
X98769549Y-69964585D01*
X99039958Y-69783903D01*
X99340421Y-69659447D01*
X99446744Y-69638298D01*
X99659389Y-69596000D01*
X99984611Y-69596000D01*
X100197256Y-69638298D01*
X100197256Y-69638298D01*
G37*
G36*
X128380442Y-70225519D02*
G01*
X128446627Y-70232038D01*
X128616466Y-70283558D01*
X128772991Y-70367223D01*
X128808729Y-70396553D01*
X128910186Y-70479815D01*
X128993448Y-70581272D01*
X129022778Y-70617010D01*
X129022779Y-70617012D01*
X129102107Y-70765422D01*
X129106443Y-70773535D01*
X129157963Y-70943374D01*
X129175359Y-71120001D01*
X129157963Y-71296628D01*
X129106443Y-71466467D01*
X129022778Y-71622992D01*
X128993448Y-71658730D01*
X128910186Y-71760187D01*
X128808729Y-71843449D01*
X128772991Y-71872779D01*
X128616466Y-71956444D01*
X128446627Y-72007964D01*
X128380443Y-72014482D01*
X128314260Y-72021001D01*
X128225740Y-72021001D01*
X128159557Y-72014482D01*
X128093373Y-72007964D01*
X127923534Y-71956444D01*
X127767009Y-71872779D01*
X127731271Y-71843449D01*
X127629814Y-71760187D01*
X127546552Y-71658730D01*
X127517222Y-71622992D01*
X127433557Y-71466467D01*
X127382037Y-71296628D01*
X127364641Y-71120001D01*
X127382037Y-70943374D01*
X127433557Y-70773535D01*
X127437894Y-70765422D01*
X127517221Y-70617012D01*
X127517222Y-70617010D01*
X127546552Y-70581272D01*
X127629814Y-70479815D01*
X127731271Y-70396553D01*
X127767009Y-70367223D01*
X127923534Y-70283558D01*
X128093373Y-70232038D01*
X128159558Y-70225519D01*
X128225740Y-70219001D01*
X128314260Y-70219001D01*
X128380442Y-70225519D01*
X128380442Y-70225519D01*
G37*
G36*
X125840442Y-70225518D02*
G01*
X125906627Y-70232037D01*
X126076466Y-70283557D01*
X126232991Y-70367222D01*
X126268729Y-70396552D01*
X126370186Y-70479814D01*
X126453448Y-70581271D01*
X126482778Y-70617009D01*
X126482779Y-70617011D01*
X126562107Y-70765421D01*
X126566443Y-70773534D01*
X126617963Y-70943373D01*
X126635359Y-71120000D01*
X126617963Y-71296627D01*
X126566443Y-71466466D01*
X126482778Y-71622991D01*
X126482777Y-71622992D01*
X126370186Y-71760186D01*
X126268729Y-71843448D01*
X126232991Y-71872778D01*
X126076466Y-71956443D01*
X125906627Y-72007963D01*
X125840443Y-72014481D01*
X125774260Y-72021000D01*
X125685740Y-72021000D01*
X125619557Y-72014481D01*
X125553373Y-72007963D01*
X125383534Y-71956443D01*
X125227009Y-71872778D01*
X125191271Y-71843448D01*
X125089814Y-71760186D01*
X124977223Y-71622992D01*
X124977222Y-71622991D01*
X124893557Y-71466466D01*
X124842037Y-71296627D01*
X124824641Y-71120000D01*
X124842037Y-70943373D01*
X124893557Y-70773534D01*
X124897894Y-70765421D01*
X124977221Y-70617011D01*
X124977222Y-70617009D01*
X125006552Y-70581271D01*
X125089814Y-70479814D01*
X125191271Y-70396552D01*
X125227009Y-70367222D01*
X125383534Y-70283557D01*
X125553373Y-70232037D01*
X125619558Y-70225518D01*
X125685740Y-70219000D01*
X125774260Y-70219000D01*
X125840442Y-70225518D01*
X125840442Y-70225518D01*
G37*
G36*
X104376098Y-61809033D02*
G01*
X104739399Y-61959517D01*
X104840352Y-62001333D01*
X105258168Y-62280509D01*
X105613491Y-62635832D01*
X105794087Y-62906113D01*
X105892668Y-63053650D01*
X106084967Y-63517902D01*
X106183000Y-64010747D01*
X106183000Y-64513253D01*
X106084967Y-65006098D01*
X105892668Y-65470350D01*
X105892667Y-65470352D01*
X105613491Y-65888168D01*
X105258168Y-66243491D01*
X104840352Y-66522667D01*
X104840351Y-66522668D01*
X104840350Y-66522668D01*
X104376098Y-66714967D01*
X103883253Y-66813000D01*
X103380747Y-66813000D01*
X102887902Y-66714967D01*
X102423650Y-66522668D01*
X102423649Y-66522668D01*
X102423648Y-66522667D01*
X102005832Y-66243491D01*
X101650509Y-65888168D01*
X101371333Y-65470352D01*
X101371332Y-65470350D01*
X101179033Y-65006098D01*
X101081000Y-64513253D01*
X101081000Y-64010747D01*
X101179033Y-63517902D01*
X101371332Y-63053650D01*
X101469913Y-62906113D01*
X101650509Y-62635832D01*
X102005832Y-62280509D01*
X102423648Y-62001333D01*
X102524601Y-61959517D01*
X102887902Y-61809033D01*
X103380747Y-61711000D01*
X103883253Y-61711000D01*
X104376098Y-61809033D01*
X104376098Y-61809033D01*
G37*
G36*
X189878762Y-62514051D02*
G01*
X189950729Y-62521139D01*
X190120568Y-62572659D01*
X190277093Y-62656324D01*
X190312831Y-62685654D01*
X190414288Y-62768916D01*
X190497550Y-62870373D01*
X190526880Y-62906111D01*
X190610545Y-63062636D01*
X190662065Y-63232475D01*
X190679461Y-63409102D01*
X190662065Y-63585729D01*
X190610545Y-63755568D01*
X190526880Y-63912093D01*
X190497550Y-63947831D01*
X190414288Y-64049288D01*
X190312831Y-64132550D01*
X190277093Y-64161880D01*
X190120568Y-64245545D01*
X189950729Y-64297065D01*
X189884544Y-64303584D01*
X189818362Y-64310102D01*
X189729842Y-64310102D01*
X189663660Y-64303584D01*
X189597475Y-64297065D01*
X189427636Y-64245545D01*
X189271111Y-64161880D01*
X189235373Y-64132550D01*
X189133916Y-64049288D01*
X189050654Y-63947831D01*
X189021324Y-63912093D01*
X188937659Y-63755568D01*
X188886139Y-63585729D01*
X188868743Y-63409102D01*
X188886139Y-63232475D01*
X188937659Y-63062636D01*
X189021324Y-62906111D01*
X189050654Y-62870373D01*
X189133916Y-62768916D01*
X189235373Y-62685654D01*
X189271111Y-62656324D01*
X189427636Y-62572659D01*
X189597475Y-62521139D01*
X189669442Y-62514051D01*
X189729842Y-62508102D01*
X189818362Y-62508102D01*
X189878762Y-62514051D01*
X189878762Y-62514051D01*
G37*
G36*
X188088494Y-60718570D02*
G01*
X188154678Y-60725088D01*
X188324517Y-60776608D01*
X188481042Y-60860273D01*
X188516780Y-60889603D01*
X188618237Y-60972865D01*
X188701499Y-61074322D01*
X188730829Y-61110060D01*
X188814494Y-61266585D01*
X188866014Y-61436424D01*
X188883410Y-61613051D01*
X188866014Y-61789678D01*
X188814494Y-61959517D01*
X188730829Y-62116042D01*
X188701499Y-62151780D01*
X188618237Y-62253237D01*
X188516780Y-62336499D01*
X188481042Y-62365829D01*
X188324517Y-62449494D01*
X188154678Y-62501014D01*
X188088494Y-62507532D01*
X188022311Y-62514051D01*
X187933791Y-62514051D01*
X187867608Y-62507532D01*
X187801424Y-62501014D01*
X187631585Y-62449494D01*
X187475060Y-62365829D01*
X187439322Y-62336499D01*
X187337865Y-62253237D01*
X187254603Y-62151780D01*
X187225273Y-62116042D01*
X187141608Y-61959517D01*
X187090088Y-61789678D01*
X187072692Y-61613051D01*
X187090088Y-61436424D01*
X187141608Y-61266585D01*
X187225273Y-61110060D01*
X187254603Y-61074322D01*
X187337865Y-60972865D01*
X187439322Y-60889603D01*
X187475060Y-60860273D01*
X187631585Y-60776608D01*
X187801424Y-60725088D01*
X187867608Y-60718570D01*
X187933791Y-60712051D01*
X188022311Y-60712051D01*
X188088494Y-60718570D01*
X188088494Y-60718570D01*
G37*
G36*
X109456098Y-56729033D02*
G01*
X109920350Y-56921332D01*
X109920352Y-56921333D01*
X110338168Y-57200509D01*
X110693491Y-57555832D01*
X110873321Y-57824967D01*
X110972668Y-57973650D01*
X111164967Y-58437902D01*
X111263000Y-58930747D01*
X111263000Y-59433253D01*
X111164967Y-59926098D01*
X110972668Y-60390350D01*
X110972667Y-60390352D01*
X110693491Y-60808168D01*
X110338168Y-61163491D01*
X109920352Y-61442667D01*
X109920351Y-61442668D01*
X109920350Y-61442668D01*
X109456098Y-61634967D01*
X108963253Y-61733000D01*
X108460747Y-61733000D01*
X107967902Y-61634967D01*
X107503650Y-61442668D01*
X107503649Y-61442668D01*
X107503648Y-61442667D01*
X107085832Y-61163491D01*
X106730509Y-60808168D01*
X106451333Y-60390352D01*
X106451332Y-60390350D01*
X106259033Y-59926098D01*
X106161000Y-59433253D01*
X106161000Y-58930747D01*
X106259033Y-58437902D01*
X106451332Y-57973650D01*
X106550679Y-57824967D01*
X106730509Y-57555832D01*
X107085832Y-57200509D01*
X107503648Y-56921333D01*
X107503650Y-56921332D01*
X107967902Y-56729033D01*
X108460747Y-56631000D01*
X108963253Y-56631000D01*
X109456098Y-56729033D01*
X109456098Y-56729033D01*
G37*
G36*
X187456206Y-59817000D02*
G01*
X186182000Y-61091206D01*
X184907794Y-59817000D01*
X186182000Y-58542794D01*
X187456206Y-59817000D01*
X187456206Y-59817000D01*
G37*
G36*
X180576098Y-52919033D02*
G01*
X180913352Y-53058728D01*
X181040352Y-53111333D01*
X181458168Y-53390509D01*
X181813491Y-53745832D01*
X182092667Y-54163648D01*
X182092668Y-54163650D01*
X182284967Y-54627902D01*
X182383000Y-55120747D01*
X182383000Y-55623253D01*
X182284967Y-56116098D01*
X182092668Y-56580350D01*
X182092667Y-56580352D01*
X181813491Y-56998168D01*
X181458168Y-57353491D01*
X181040352Y-57632667D01*
X181040351Y-57632668D01*
X181040350Y-57632668D01*
X180576098Y-57824967D01*
X180083253Y-57923000D01*
X179580747Y-57923000D01*
X179087902Y-57824967D01*
X178623650Y-57632668D01*
X178623649Y-57632668D01*
X178623648Y-57632667D01*
X178205832Y-57353491D01*
X177850509Y-56998168D01*
X177571333Y-56580352D01*
X177571332Y-56580350D01*
X177379033Y-56116098D01*
X177281000Y-55623253D01*
X177281000Y-55120747D01*
X177379033Y-54627902D01*
X177571332Y-54163650D01*
X177571333Y-54163648D01*
X177850509Y-53745832D01*
X178205832Y-53390509D01*
X178623648Y-53111333D01*
X178750648Y-53058728D01*
X179087902Y-52919033D01*
X179580747Y-52821000D01*
X180083253Y-52821000D01*
X180576098Y-52919033D01*
X180576098Y-52919033D01*
G37*
G36*
X143940765Y-55005620D02*
G01*
X144130288Y-55084123D01*
X144300854Y-55198092D01*
X144445908Y-55343146D01*
X144553395Y-55504011D01*
X144559878Y-55513714D01*
X144638380Y-55703235D01*
X144678400Y-55904430D01*
X144678400Y-56109570D01*
X144663669Y-56183627D01*
X144638380Y-56310765D01*
X144559877Y-56500288D01*
X144445908Y-56670854D01*
X144300854Y-56815908D01*
X144130288Y-56929877D01*
X144130287Y-56929878D01*
X144130286Y-56929878D01*
X143940765Y-57008380D01*
X143739570Y-57048400D01*
X143534430Y-57048400D01*
X143333235Y-57008380D01*
X143143714Y-56929878D01*
X143143713Y-56929878D01*
X143143712Y-56929877D01*
X142973146Y-56815908D01*
X142828092Y-56670854D01*
X142714123Y-56500288D01*
X142635620Y-56310765D01*
X142610331Y-56183627D01*
X142595600Y-56109570D01*
X142595600Y-55904430D01*
X142635620Y-55703235D01*
X142714122Y-55513714D01*
X142720605Y-55504011D01*
X142828092Y-55343146D01*
X142973146Y-55198092D01*
X143143712Y-55084123D01*
X143333235Y-55005620D01*
X143534430Y-54965600D01*
X143739570Y-54965600D01*
X143940765Y-55005620D01*
X143940765Y-55005620D01*
G37*
G36*
X141400765Y-55005620D02*
G01*
X141590288Y-55084123D01*
X141760854Y-55198092D01*
X141905908Y-55343146D01*
X142013395Y-55504011D01*
X142019878Y-55513714D01*
X142098380Y-55703235D01*
X142138400Y-55904430D01*
X142138400Y-56109570D01*
X142123669Y-56183627D01*
X142098380Y-56310765D01*
X142019877Y-56500288D01*
X141905908Y-56670854D01*
X141760854Y-56815908D01*
X141590288Y-56929877D01*
X141590287Y-56929878D01*
X141590286Y-56929878D01*
X141400765Y-57008380D01*
X141199570Y-57048400D01*
X140994430Y-57048400D01*
X140793235Y-57008380D01*
X140603714Y-56929878D01*
X140603713Y-56929878D01*
X140603712Y-56929877D01*
X140433146Y-56815908D01*
X140288092Y-56670854D01*
X140174123Y-56500288D01*
X140095620Y-56310765D01*
X140070331Y-56183627D01*
X140055600Y-56109570D01*
X140055600Y-55904430D01*
X140095620Y-55703235D01*
X140174122Y-55513714D01*
X140180605Y-55504011D01*
X140288092Y-55343146D01*
X140433146Y-55198092D01*
X140603712Y-55084123D01*
X140793235Y-55005620D01*
X140994430Y-54965600D01*
X141199570Y-54965600D01*
X141400765Y-55005620D01*
X141400765Y-55005620D01*
G37*
G36*
X138860765Y-55005620D02*
G01*
X139050288Y-55084123D01*
X139220854Y-55198092D01*
X139365908Y-55343146D01*
X139473395Y-55504011D01*
X139479878Y-55513714D01*
X139558380Y-55703235D01*
X139598400Y-55904430D01*
X139598400Y-56109570D01*
X139583669Y-56183627D01*
X139558380Y-56310765D01*
X139479877Y-56500288D01*
X139365908Y-56670854D01*
X139220854Y-56815908D01*
X139050288Y-56929877D01*
X139050287Y-56929878D01*
X139050286Y-56929878D01*
X138860765Y-57008380D01*
X138659570Y-57048400D01*
X138454430Y-57048400D01*
X138253235Y-57008380D01*
X138063714Y-56929878D01*
X138063713Y-56929878D01*
X138063712Y-56929877D01*
X137893146Y-56815908D01*
X137748092Y-56670854D01*
X137634123Y-56500288D01*
X137555620Y-56310765D01*
X137530331Y-56183627D01*
X137515600Y-56109570D01*
X137515600Y-55904430D01*
X137555620Y-55703235D01*
X137634122Y-55513714D01*
X137640605Y-55504011D01*
X137748092Y-55343146D01*
X137893146Y-55198092D01*
X138063712Y-55084123D01*
X138253235Y-55005620D01*
X138454430Y-54965600D01*
X138659570Y-54965600D01*
X138860765Y-55005620D01*
X138860765Y-55005620D01*
G37*
G36*
X160257443Y-55112519D02*
G01*
X160323627Y-55119037D01*
X160493466Y-55170557D01*
X160649991Y-55254222D01*
X160685729Y-55283552D01*
X160787186Y-55366814D01*
X160870448Y-55468271D01*
X160899778Y-55504009D01*
X160983443Y-55660534D01*
X161034963Y-55830373D01*
X161052359Y-56007000D01*
X161034963Y-56183627D01*
X160983443Y-56353466D01*
X160899778Y-56509991D01*
X160870448Y-56545729D01*
X160787186Y-56647186D01*
X160687454Y-56729033D01*
X160649991Y-56759778D01*
X160493466Y-56843443D01*
X160323627Y-56894963D01*
X160257442Y-56901482D01*
X160191260Y-56908000D01*
X160102740Y-56908000D01*
X160036558Y-56901482D01*
X159970373Y-56894963D01*
X159800534Y-56843443D01*
X159644009Y-56759778D01*
X159606546Y-56729033D01*
X159506814Y-56647186D01*
X159423552Y-56545729D01*
X159394222Y-56509991D01*
X159310557Y-56353466D01*
X159259037Y-56183627D01*
X159241641Y-56007000D01*
X159259037Y-55830373D01*
X159310557Y-55660534D01*
X159394222Y-55504009D01*
X159423552Y-55468271D01*
X159506814Y-55366814D01*
X159608271Y-55283552D01*
X159644009Y-55254222D01*
X159800534Y-55170557D01*
X159970373Y-55119037D01*
X160036557Y-55112519D01*
X160102740Y-55106000D01*
X160191260Y-55106000D01*
X160257443Y-55112519D01*
X160257443Y-55112519D01*
G37*
G36*
X153428000Y-56908000D02*
G01*
X151626000Y-56908000D01*
X151626000Y-55106000D01*
X153428000Y-55106000D01*
X153428000Y-56908000D01*
X153428000Y-56908000D01*
G37*
G36*
X157717443Y-55112519D02*
G01*
X157783627Y-55119037D01*
X157953466Y-55170557D01*
X158109991Y-55254222D01*
X158145729Y-55283552D01*
X158247186Y-55366814D01*
X158330448Y-55468271D01*
X158359778Y-55504009D01*
X158443443Y-55660534D01*
X158494963Y-55830373D01*
X158512359Y-56007000D01*
X158494963Y-56183627D01*
X158443443Y-56353466D01*
X158359778Y-56509991D01*
X158330448Y-56545729D01*
X158247186Y-56647186D01*
X158147454Y-56729033D01*
X158109991Y-56759778D01*
X157953466Y-56843443D01*
X157783627Y-56894963D01*
X157717442Y-56901482D01*
X157651260Y-56908000D01*
X157562740Y-56908000D01*
X157496558Y-56901482D01*
X157430373Y-56894963D01*
X157260534Y-56843443D01*
X157104009Y-56759778D01*
X157066546Y-56729033D01*
X156966814Y-56647186D01*
X156883552Y-56545729D01*
X156854222Y-56509991D01*
X156770557Y-56353466D01*
X156719037Y-56183627D01*
X156701641Y-56007000D01*
X156719037Y-55830373D01*
X156770557Y-55660534D01*
X156854222Y-55504009D01*
X156883552Y-55468271D01*
X156966814Y-55366814D01*
X157068271Y-55283552D01*
X157104009Y-55254222D01*
X157260534Y-55170557D01*
X157430373Y-55119037D01*
X157496557Y-55112519D01*
X157562740Y-55106000D01*
X157651260Y-55106000D01*
X157717443Y-55112519D01*
X157717443Y-55112519D01*
G37*
G36*
X162797443Y-55112519D02*
G01*
X162863627Y-55119037D01*
X163033466Y-55170557D01*
X163189991Y-55254222D01*
X163225729Y-55283552D01*
X163327186Y-55366814D01*
X163410448Y-55468271D01*
X163439778Y-55504009D01*
X163523443Y-55660534D01*
X163574963Y-55830373D01*
X163592359Y-56007000D01*
X163574963Y-56183627D01*
X163523443Y-56353466D01*
X163439778Y-56509991D01*
X163410448Y-56545729D01*
X163327186Y-56647186D01*
X163227454Y-56729033D01*
X163189991Y-56759778D01*
X163033466Y-56843443D01*
X162863627Y-56894963D01*
X162797442Y-56901482D01*
X162731260Y-56908000D01*
X162642740Y-56908000D01*
X162576558Y-56901482D01*
X162510373Y-56894963D01*
X162340534Y-56843443D01*
X162184009Y-56759778D01*
X162146546Y-56729033D01*
X162046814Y-56647186D01*
X161963552Y-56545729D01*
X161934222Y-56509991D01*
X161850557Y-56353466D01*
X161799037Y-56183627D01*
X161781641Y-56007000D01*
X161799037Y-55830373D01*
X161850557Y-55660534D01*
X161934222Y-55504009D01*
X161963552Y-55468271D01*
X162046814Y-55366814D01*
X162148271Y-55283552D01*
X162184009Y-55254222D01*
X162340534Y-55170557D01*
X162510373Y-55119037D01*
X162576557Y-55112519D01*
X162642740Y-55106000D01*
X162731260Y-55106000D01*
X162797443Y-55112519D01*
X162797443Y-55112519D01*
G37*
G36*
X155177443Y-55112519D02*
G01*
X155243627Y-55119037D01*
X155413466Y-55170557D01*
X155569991Y-55254222D01*
X155605729Y-55283552D01*
X155707186Y-55366814D01*
X155790448Y-55468271D01*
X155819778Y-55504009D01*
X155903443Y-55660534D01*
X155954963Y-55830373D01*
X155972359Y-56007000D01*
X155954963Y-56183627D01*
X155903443Y-56353466D01*
X155819778Y-56509991D01*
X155790448Y-56545729D01*
X155707186Y-56647186D01*
X155607454Y-56729033D01*
X155569991Y-56759778D01*
X155413466Y-56843443D01*
X155243627Y-56894963D01*
X155177442Y-56901482D01*
X155111260Y-56908000D01*
X155022740Y-56908000D01*
X154956558Y-56901482D01*
X154890373Y-56894963D01*
X154720534Y-56843443D01*
X154564009Y-56759778D01*
X154526546Y-56729033D01*
X154426814Y-56647186D01*
X154343552Y-56545729D01*
X154314222Y-56509991D01*
X154230557Y-56353466D01*
X154179037Y-56183627D01*
X154161641Y-56007000D01*
X154179037Y-55830373D01*
X154230557Y-55660534D01*
X154314222Y-55504009D01*
X154343552Y-55468271D01*
X154426814Y-55366814D01*
X154528271Y-55283552D01*
X154564009Y-55254222D01*
X154720534Y-55170557D01*
X154890373Y-55119037D01*
X154956557Y-55112519D01*
X155022740Y-55106000D01*
X155111260Y-55106000D01*
X155177443Y-55112519D01*
X155177443Y-55112519D01*
G37*
G36*
X114431206Y-54102000D02*
G01*
X113157000Y-55376206D01*
X111882794Y-54102000D01*
X113157000Y-52827794D01*
X114431206Y-54102000D01*
X114431206Y-54102000D01*
G37*
G36*
X142670765Y-52465620D02*
G01*
X142860288Y-52544123D01*
X143030854Y-52658092D01*
X143175908Y-52803146D01*
X143289877Y-52973712D01*
X143289878Y-52973714D01*
X143359746Y-53142391D01*
X143368380Y-53163235D01*
X143408400Y-53364431D01*
X143408400Y-53569569D01*
X143368380Y-53770765D01*
X143289877Y-53960288D01*
X143175908Y-54130854D01*
X143030854Y-54275908D01*
X142860288Y-54389877D01*
X142860287Y-54389878D01*
X142860286Y-54389878D01*
X142670765Y-54468380D01*
X142469570Y-54508400D01*
X142264430Y-54508400D01*
X142063235Y-54468380D01*
X141873714Y-54389878D01*
X141873713Y-54389878D01*
X141873712Y-54389877D01*
X141703146Y-54275908D01*
X141558092Y-54130854D01*
X141444123Y-53960288D01*
X141365620Y-53770765D01*
X141325600Y-53569569D01*
X141325600Y-53364431D01*
X141365620Y-53163235D01*
X141374254Y-53142391D01*
X141444122Y-52973714D01*
X141444123Y-52973712D01*
X141558092Y-52803146D01*
X141703146Y-52658092D01*
X141873712Y-52544123D01*
X142063235Y-52465620D01*
X142264430Y-52425600D01*
X142469570Y-52425600D01*
X142670765Y-52465620D01*
X142670765Y-52465620D01*
G37*
G36*
X140130765Y-52465620D02*
G01*
X140320288Y-52544123D01*
X140490854Y-52658092D01*
X140635908Y-52803146D01*
X140749877Y-52973712D01*
X140749878Y-52973714D01*
X140819746Y-53142391D01*
X140828380Y-53163235D01*
X140868400Y-53364431D01*
X140868400Y-53569569D01*
X140828380Y-53770765D01*
X140749877Y-53960288D01*
X140635908Y-54130854D01*
X140490854Y-54275908D01*
X140320288Y-54389877D01*
X140320287Y-54389878D01*
X140320286Y-54389878D01*
X140130765Y-54468380D01*
X139929570Y-54508400D01*
X139724430Y-54508400D01*
X139523235Y-54468380D01*
X139333714Y-54389878D01*
X139333713Y-54389878D01*
X139333712Y-54389877D01*
X139163146Y-54275908D01*
X139018092Y-54130854D01*
X138904123Y-53960288D01*
X138825620Y-53770765D01*
X138785600Y-53569569D01*
X138785600Y-53364431D01*
X138825620Y-53163235D01*
X138834254Y-53142391D01*
X138904122Y-52973714D01*
X138904123Y-52973712D01*
X139018092Y-52803146D01*
X139163146Y-52658092D01*
X139333712Y-52544123D01*
X139523235Y-52465620D01*
X139724430Y-52425600D01*
X139929570Y-52425600D01*
X140130765Y-52465620D01*
X140130765Y-52465620D01*
G37*
G36*
X137590765Y-52465620D02*
G01*
X137780288Y-52544123D01*
X137950854Y-52658092D01*
X138095908Y-52803146D01*
X138209877Y-52973712D01*
X138209878Y-52973714D01*
X138279746Y-53142391D01*
X138288380Y-53163235D01*
X138328400Y-53364431D01*
X138328400Y-53569569D01*
X138288380Y-53770765D01*
X138209877Y-53960288D01*
X138095908Y-54130854D01*
X137950854Y-54275908D01*
X137780288Y-54389877D01*
X137780287Y-54389878D01*
X137780286Y-54389878D01*
X137590765Y-54468380D01*
X137389570Y-54508400D01*
X137184430Y-54508400D01*
X136983235Y-54468380D01*
X136793714Y-54389878D01*
X136793713Y-54389878D01*
X136793712Y-54389877D01*
X136623146Y-54275908D01*
X136478092Y-54130854D01*
X136364123Y-53960288D01*
X136285620Y-53770765D01*
X136245600Y-53569569D01*
X136245600Y-53364431D01*
X136285620Y-53163235D01*
X136294254Y-53142391D01*
X136364122Y-52973714D01*
X136364123Y-52973712D01*
X136478092Y-52803146D01*
X136623146Y-52658092D01*
X136793712Y-52544123D01*
X136983235Y-52465620D01*
X137184430Y-52425600D01*
X137389570Y-52425600D01*
X137590765Y-52465620D01*
X137590765Y-52465620D01*
G37*
G36*
X115057711Y-51410898D02*
G01*
X115129678Y-51417986D01*
X115299517Y-51469506D01*
X115456042Y-51553171D01*
X115491780Y-51582501D01*
X115593237Y-51665763D01*
X115676499Y-51767220D01*
X115705829Y-51802958D01*
X115789494Y-51959483D01*
X115841014Y-52129322D01*
X115858410Y-52305949D01*
X115841014Y-52482576D01*
X115789494Y-52652415D01*
X115705829Y-52808940D01*
X115690356Y-52827794D01*
X115593237Y-52946135D01*
X115491780Y-53029397D01*
X115456042Y-53058727D01*
X115299517Y-53142392D01*
X115129678Y-53193912D01*
X115063493Y-53200431D01*
X114997311Y-53206949D01*
X114908791Y-53206949D01*
X114842609Y-53200431D01*
X114776424Y-53193912D01*
X114606585Y-53142392D01*
X114450060Y-53058727D01*
X114414322Y-53029397D01*
X114312865Y-52946135D01*
X114215746Y-52827794D01*
X114200273Y-52808940D01*
X114116608Y-52652415D01*
X114065088Y-52482576D01*
X114047692Y-52305949D01*
X114065088Y-52129322D01*
X114116608Y-51959483D01*
X114200273Y-51802958D01*
X114229603Y-51767220D01*
X114312865Y-51665763D01*
X114414322Y-51582501D01*
X114450060Y-51553171D01*
X114606585Y-51469506D01*
X114776424Y-51417986D01*
X114848391Y-51410898D01*
X114908791Y-51404949D01*
X114997311Y-51404949D01*
X115057711Y-51410898D01*
X115057711Y-51410898D01*
G37*
G36*
X174861098Y-47839033D02*
G01*
X175325350Y-48031332D01*
X175325352Y-48031333D01*
X175743168Y-48310509D01*
X176098491Y-48665832D01*
X176377667Y-49083648D01*
X176377668Y-49083650D01*
X176569967Y-49547902D01*
X176668000Y-50040747D01*
X176668000Y-50543253D01*
X176569967Y-51036098D01*
X176377668Y-51500350D01*
X176377667Y-51500352D01*
X176098491Y-51918168D01*
X175743168Y-52273491D01*
X175325352Y-52552667D01*
X175325351Y-52552668D01*
X175325350Y-52552668D01*
X174861098Y-52744967D01*
X174368253Y-52843000D01*
X173865747Y-52843000D01*
X173372902Y-52744967D01*
X172908650Y-52552668D01*
X172908649Y-52552668D01*
X172908648Y-52552667D01*
X172490832Y-52273491D01*
X172135509Y-51918168D01*
X171856333Y-51500352D01*
X171856332Y-51500350D01*
X171664033Y-51036098D01*
X171566000Y-50543253D01*
X171566000Y-50040747D01*
X171664033Y-49547902D01*
X171856332Y-49083650D01*
X171856333Y-49083648D01*
X172135509Y-48665832D01*
X172490832Y-48310509D01*
X172908648Y-48031333D01*
X172908650Y-48031332D01*
X173372902Y-47839033D01*
X173865747Y-47741000D01*
X174368253Y-47741000D01*
X174861098Y-47839033D01*
X174861098Y-47839033D01*
G37*
G36*
X116859544Y-49615416D02*
G01*
X116925729Y-49621935D01*
X117095568Y-49673455D01*
X117252093Y-49757120D01*
X117287831Y-49786450D01*
X117389288Y-49869712D01*
X117472550Y-49971169D01*
X117501880Y-50006907D01*
X117585545Y-50163432D01*
X117637065Y-50333271D01*
X117654461Y-50509898D01*
X117637065Y-50686525D01*
X117585545Y-50856364D01*
X117501880Y-51012889D01*
X117482833Y-51036098D01*
X117389288Y-51150084D01*
X117287831Y-51233346D01*
X117252093Y-51262676D01*
X117095568Y-51346341D01*
X116925729Y-51397861D01*
X116859545Y-51404379D01*
X116793362Y-51410898D01*
X116704842Y-51410898D01*
X116638660Y-51404380D01*
X116572475Y-51397861D01*
X116402636Y-51346341D01*
X116246111Y-51262676D01*
X116210373Y-51233346D01*
X116108916Y-51150084D01*
X116015371Y-51036098D01*
X115996324Y-51012889D01*
X115912659Y-50856364D01*
X115861139Y-50686525D01*
X115843743Y-50509898D01*
X115861139Y-50333271D01*
X115912659Y-50163432D01*
X115996324Y-50006907D01*
X116025654Y-49971169D01*
X116108916Y-49869712D01*
X116210373Y-49786450D01*
X116246111Y-49757120D01*
X116402636Y-49673455D01*
X116572475Y-49621935D01*
X116638660Y-49615416D01*
X116704842Y-49608898D01*
X116793362Y-49608898D01*
X116859544Y-49615416D01*
X116859544Y-49615416D01*
G37*
G36*
X135885805Y-45456175D02*
G01*
X136016005Y-45510106D01*
X136200136Y-45586375D01*
X136483026Y-45775396D01*
X136723604Y-46015974D01*
X136912625Y-46298864D01*
X136927576Y-46334960D01*
X137042825Y-46613195D01*
X137109200Y-46946884D01*
X137109200Y-47287116D01*
X137042825Y-47620805D01*
X136993038Y-47741000D01*
X136912625Y-47935136D01*
X136723604Y-48218026D01*
X136483026Y-48458604D01*
X136200136Y-48647625D01*
X136016005Y-48723894D01*
X135885805Y-48777825D01*
X135552116Y-48844200D01*
X135211884Y-48844200D01*
X134878195Y-48777825D01*
X134747995Y-48723894D01*
X134563864Y-48647625D01*
X134280974Y-48458604D01*
X134040396Y-48218026D01*
X133851375Y-47935136D01*
X133770962Y-47741000D01*
X133721175Y-47620805D01*
X133654800Y-47287116D01*
X133654800Y-46946884D01*
X133721175Y-46613195D01*
X133836424Y-46334960D01*
X133851375Y-46298864D01*
X134040396Y-46015974D01*
X134280974Y-45775396D01*
X134563864Y-45586375D01*
X134747995Y-45510106D01*
X134878195Y-45456175D01*
X135211884Y-45389800D01*
X135552116Y-45389800D01*
X135885805Y-45456175D01*
X135885805Y-45456175D01*
G37*
G36*
X146045805Y-45456175D02*
G01*
X146176005Y-45510106D01*
X146360136Y-45586375D01*
X146643026Y-45775396D01*
X146883604Y-46015974D01*
X147072625Y-46298864D01*
X147087576Y-46334960D01*
X147202825Y-46613195D01*
X147269200Y-46946884D01*
X147269200Y-47287116D01*
X147202825Y-47620805D01*
X147153038Y-47741000D01*
X147072625Y-47935136D01*
X146883604Y-48218026D01*
X146643026Y-48458604D01*
X146360136Y-48647625D01*
X146176005Y-48723894D01*
X146045805Y-48777825D01*
X145712116Y-48844200D01*
X145371884Y-48844200D01*
X145038195Y-48777825D01*
X144907995Y-48723894D01*
X144723864Y-48647625D01*
X144440974Y-48458604D01*
X144200396Y-48218026D01*
X144011375Y-47935136D01*
X143930962Y-47741000D01*
X143881175Y-47620805D01*
X143814800Y-47287116D01*
X143814800Y-46946884D01*
X143881175Y-46613195D01*
X143996424Y-46334960D01*
X144011375Y-46298864D01*
X144200396Y-46015974D01*
X144440974Y-45775396D01*
X144723864Y-45586375D01*
X144907995Y-45510106D01*
X145038195Y-45456175D01*
X145371884Y-45389800D01*
X145712116Y-45389800D01*
X146045805Y-45456175D01*
X146045805Y-45456175D01*
G37*
G36*
X123692256Y-45508298D02*
G01*
X123798579Y-45529447D01*
X124099042Y-45653903D01*
X124369451Y-45834585D01*
X124599415Y-46064549D01*
X124780097Y-46334958D01*
X124895347Y-46613195D01*
X124904553Y-46635422D01*
X124968000Y-46954389D01*
X124968000Y-47279611D01*
X124966507Y-47287116D01*
X124904553Y-47598579D01*
X124780097Y-47899042D01*
X124599415Y-48169451D01*
X124369451Y-48399415D01*
X124099042Y-48580097D01*
X123798579Y-48704553D01*
X123692256Y-48725702D01*
X123479611Y-48768000D01*
X123154389Y-48768000D01*
X122941744Y-48725702D01*
X122835421Y-48704553D01*
X122534958Y-48580097D01*
X122264549Y-48399415D01*
X122034585Y-48169451D01*
X121853903Y-47899042D01*
X121729447Y-47598579D01*
X121667493Y-47287116D01*
X121666000Y-47279611D01*
X121666000Y-46954389D01*
X121729447Y-46635422D01*
X121738654Y-46613195D01*
X121853903Y-46334958D01*
X122034585Y-46064549D01*
X122264549Y-45834585D01*
X122534958Y-45653903D01*
X122835421Y-45529447D01*
X122941744Y-45508298D01*
X123154389Y-45466000D01*
X123479611Y-45466000D01*
X123692256Y-45508298D01*
X123692256Y-45508298D01*
G37*
G36*
X167507256Y-45508298D02*
G01*
X167613579Y-45529447D01*
X167914042Y-45653903D01*
X168184451Y-45834585D01*
X168414415Y-46064549D01*
X168595097Y-46334958D01*
X168710347Y-46613195D01*
X168719553Y-46635422D01*
X168783000Y-46954389D01*
X168783000Y-47279611D01*
X168781507Y-47287116D01*
X168719553Y-47598579D01*
X168595097Y-47899042D01*
X168414415Y-48169451D01*
X168184451Y-48399415D01*
X167914042Y-48580097D01*
X167613579Y-48704553D01*
X167507256Y-48725702D01*
X167294611Y-48768000D01*
X166969389Y-48768000D01*
X166756744Y-48725702D01*
X166650421Y-48704553D01*
X166349958Y-48580097D01*
X166079549Y-48399415D01*
X165849585Y-48169451D01*
X165668903Y-47899042D01*
X165544447Y-47598579D01*
X165482493Y-47287116D01*
X165481000Y-47279611D01*
X165481000Y-46954389D01*
X165544447Y-46635422D01*
X165553654Y-46613195D01*
X165668903Y-46334958D01*
X165849585Y-46064549D01*
X166079549Y-45834585D01*
X166349958Y-45653903D01*
X166650421Y-45529447D01*
X166756744Y-45508298D01*
X166969389Y-45466000D01*
X167294611Y-45466000D01*
X167507256Y-45508298D01*
X167507256Y-45508298D01*
G37*
M02*
