G04 #@! TF.GenerationSoftware,KiCad,Pcbnew,5.1.2-f72e74a~84~ubuntu18.04.1*
G04 #@! TF.CreationDate,2019-07-29T20:36:53-07:00*
G04 #@! TF.ProjectId,quad_copter_pcb,71756164-5f63-46f7-9074-65725f706362,rev?*
G04 #@! TF.SameCoordinates,Original*
G04 #@! TF.FileFunction,Soldermask,Top*
G04 #@! TF.FilePolarity,Negative*
%FSLAX46Y46*%
G04 Gerber Fmt 4.6, Leading zero omitted, Abs format (unit mm)*
G04 Created by KiCad (PCBNEW 5.1.2-f72e74a~84~ubuntu18.04.1) date 2019-07-29 20:36:53*
%MOMM*%
%LPD*%
G04 APERTURE LIST*
%ADD10C,0.100000*%
G04 APERTURE END LIST*
D10*
G36*
X155202842Y-140304118D02*
G01*
X155269027Y-140310637D01*
X155438866Y-140362157D01*
X155595391Y-140445822D01*
X155630231Y-140474415D01*
X155732586Y-140558414D01*
X155811931Y-140655098D01*
X155845178Y-140695609D01*
X155928843Y-140852134D01*
X155980363Y-141021973D01*
X155997759Y-141198600D01*
X155980363Y-141375227D01*
X155928843Y-141545066D01*
X155845178Y-141701591D01*
X155815848Y-141737329D01*
X155732586Y-141838786D01*
X155631129Y-141922048D01*
X155595391Y-141951378D01*
X155438866Y-142035043D01*
X155269027Y-142086563D01*
X155202843Y-142093081D01*
X155136660Y-142099600D01*
X155048140Y-142099600D01*
X154981957Y-142093081D01*
X154915773Y-142086563D01*
X154745934Y-142035043D01*
X154589409Y-141951378D01*
X154553671Y-141922048D01*
X154452214Y-141838786D01*
X154368952Y-141737329D01*
X154339622Y-141701591D01*
X154255957Y-141545066D01*
X154204437Y-141375227D01*
X154187041Y-141198600D01*
X154204437Y-141021973D01*
X154255957Y-140852134D01*
X154339622Y-140695609D01*
X154372869Y-140655098D01*
X154452214Y-140558414D01*
X154554569Y-140474415D01*
X154589409Y-140445822D01*
X154745934Y-140362157D01*
X154915773Y-140310637D01*
X154981958Y-140304118D01*
X155048140Y-140297600D01*
X155136660Y-140297600D01*
X155202842Y-140304118D01*
X155202842Y-140304118D01*
G37*
G36*
X158533400Y-142099600D02*
G01*
X156731400Y-142099600D01*
X156731400Y-140297600D01*
X158533400Y-140297600D01*
X158533400Y-142099600D01*
X158533400Y-142099600D01*
G37*
G36*
X147582842Y-140304118D02*
G01*
X147649027Y-140310637D01*
X147818866Y-140362157D01*
X147975391Y-140445822D01*
X148010231Y-140474415D01*
X148112586Y-140558414D01*
X148191931Y-140655098D01*
X148225178Y-140695609D01*
X148308843Y-140852134D01*
X148360363Y-141021973D01*
X148377759Y-141198600D01*
X148360363Y-141375227D01*
X148308843Y-141545066D01*
X148225178Y-141701591D01*
X148195848Y-141737329D01*
X148112586Y-141838786D01*
X148011129Y-141922048D01*
X147975391Y-141951378D01*
X147818866Y-142035043D01*
X147649027Y-142086563D01*
X147582843Y-142093081D01*
X147516660Y-142099600D01*
X147428140Y-142099600D01*
X147361957Y-142093081D01*
X147295773Y-142086563D01*
X147125934Y-142035043D01*
X146969409Y-141951378D01*
X146933671Y-141922048D01*
X146832214Y-141838786D01*
X146748952Y-141737329D01*
X146719622Y-141701591D01*
X146635957Y-141545066D01*
X146584437Y-141375227D01*
X146567041Y-141198600D01*
X146584437Y-141021973D01*
X146635957Y-140852134D01*
X146719622Y-140695609D01*
X146752869Y-140655098D01*
X146832214Y-140558414D01*
X146934569Y-140474415D01*
X146969409Y-140445822D01*
X147125934Y-140362157D01*
X147295773Y-140310637D01*
X147361958Y-140304118D01*
X147428140Y-140297600D01*
X147516660Y-140297600D01*
X147582842Y-140304118D01*
X147582842Y-140304118D01*
G37*
G36*
X152662842Y-140304118D02*
G01*
X152729027Y-140310637D01*
X152898866Y-140362157D01*
X153055391Y-140445822D01*
X153090231Y-140474415D01*
X153192586Y-140558414D01*
X153271931Y-140655098D01*
X153305178Y-140695609D01*
X153388843Y-140852134D01*
X153440363Y-141021973D01*
X153457759Y-141198600D01*
X153440363Y-141375227D01*
X153388843Y-141545066D01*
X153305178Y-141701591D01*
X153275848Y-141737329D01*
X153192586Y-141838786D01*
X153091129Y-141922048D01*
X153055391Y-141951378D01*
X152898866Y-142035043D01*
X152729027Y-142086563D01*
X152662843Y-142093081D01*
X152596660Y-142099600D01*
X152508140Y-142099600D01*
X152441957Y-142093081D01*
X152375773Y-142086563D01*
X152205934Y-142035043D01*
X152049409Y-141951378D01*
X152013671Y-141922048D01*
X151912214Y-141838786D01*
X151828952Y-141737329D01*
X151799622Y-141701591D01*
X151715957Y-141545066D01*
X151664437Y-141375227D01*
X151647041Y-141198600D01*
X151664437Y-141021973D01*
X151715957Y-140852134D01*
X151799622Y-140695609D01*
X151832869Y-140655098D01*
X151912214Y-140558414D01*
X152014569Y-140474415D01*
X152049409Y-140445822D01*
X152205934Y-140362157D01*
X152375773Y-140310637D01*
X152441958Y-140304118D01*
X152508140Y-140297600D01*
X152596660Y-140297600D01*
X152662842Y-140304118D01*
X152662842Y-140304118D01*
G37*
G36*
X150122842Y-140304118D02*
G01*
X150189027Y-140310637D01*
X150358866Y-140362157D01*
X150515391Y-140445822D01*
X150550231Y-140474415D01*
X150652586Y-140558414D01*
X150731931Y-140655098D01*
X150765178Y-140695609D01*
X150848843Y-140852134D01*
X150900363Y-141021973D01*
X150917759Y-141198600D01*
X150900363Y-141375227D01*
X150848843Y-141545066D01*
X150765178Y-141701591D01*
X150735848Y-141737329D01*
X150652586Y-141838786D01*
X150551129Y-141922048D01*
X150515391Y-141951378D01*
X150358866Y-142035043D01*
X150189027Y-142086563D01*
X150122843Y-142093081D01*
X150056660Y-142099600D01*
X149968140Y-142099600D01*
X149901957Y-142093081D01*
X149835773Y-142086563D01*
X149665934Y-142035043D01*
X149509409Y-141951378D01*
X149473671Y-141922048D01*
X149372214Y-141838786D01*
X149288952Y-141737329D01*
X149259622Y-141701591D01*
X149175957Y-141545066D01*
X149124437Y-141375227D01*
X149107041Y-141198600D01*
X149124437Y-141021973D01*
X149175957Y-140852134D01*
X149259622Y-140695609D01*
X149292869Y-140655098D01*
X149372214Y-140558414D01*
X149474569Y-140474415D01*
X149509409Y-140445822D01*
X149665934Y-140362157D01*
X149835773Y-140310637D01*
X149901958Y-140304118D01*
X149968140Y-140297600D01*
X150056660Y-140297600D01*
X150122842Y-140304118D01*
X150122842Y-140304118D01*
G37*
G36*
X167507256Y-137583298D02*
G01*
X167613579Y-137604447D01*
X167914042Y-137728903D01*
X168184451Y-137909585D01*
X168414415Y-138139549D01*
X168595097Y-138409958D01*
X168687688Y-138633491D01*
X168719553Y-138710422D01*
X168759783Y-138912668D01*
X168783000Y-139029391D01*
X168783000Y-139354609D01*
X168719553Y-139673579D01*
X168595097Y-139974042D01*
X168414415Y-140244451D01*
X168184451Y-140474415D01*
X167914042Y-140655097D01*
X167613579Y-140779553D01*
X167507256Y-140800702D01*
X167294611Y-140843000D01*
X166969389Y-140843000D01*
X166756744Y-140800702D01*
X166650421Y-140779553D01*
X166349958Y-140655097D01*
X166079549Y-140474415D01*
X165849585Y-140244451D01*
X165668903Y-139974042D01*
X165544447Y-139673579D01*
X165481000Y-139354609D01*
X165481000Y-139029391D01*
X165504218Y-138912668D01*
X165544447Y-138710422D01*
X165576313Y-138633491D01*
X165668903Y-138409958D01*
X165849585Y-138139549D01*
X166079549Y-137909585D01*
X166349958Y-137728903D01*
X166650421Y-137604447D01*
X166756744Y-137583298D01*
X166969389Y-137541000D01*
X167294611Y-137541000D01*
X167507256Y-137583298D01*
X167507256Y-137583298D01*
G37*
G36*
X123692256Y-137583298D02*
G01*
X123798579Y-137604447D01*
X124099042Y-137728903D01*
X124369451Y-137909585D01*
X124599415Y-138139549D01*
X124780097Y-138409958D01*
X124872688Y-138633491D01*
X124904553Y-138710422D01*
X124944783Y-138912668D01*
X124968000Y-139029391D01*
X124968000Y-139354609D01*
X124904553Y-139673579D01*
X124780097Y-139974042D01*
X124599415Y-140244451D01*
X124369451Y-140474415D01*
X124099042Y-140655097D01*
X123798579Y-140779553D01*
X123692256Y-140800702D01*
X123479611Y-140843000D01*
X123154389Y-140843000D01*
X122941744Y-140800702D01*
X122835421Y-140779553D01*
X122534958Y-140655097D01*
X122264549Y-140474415D01*
X122034585Y-140244451D01*
X121853903Y-139974042D01*
X121729447Y-139673579D01*
X121666000Y-139354609D01*
X121666000Y-139029391D01*
X121689218Y-138912668D01*
X121729447Y-138710422D01*
X121761313Y-138633491D01*
X121853903Y-138409958D01*
X122034585Y-138139549D01*
X122264549Y-137909585D01*
X122534958Y-137728903D01*
X122835421Y-137604447D01*
X122941744Y-137583298D01*
X123154389Y-137541000D01*
X123479611Y-137541000D01*
X123692256Y-137583298D01*
X123692256Y-137583298D01*
G37*
G36*
X117076098Y-134199033D02*
G01*
X117540350Y-134391332D01*
X117540352Y-134391333D01*
X117958168Y-134670509D01*
X118313491Y-135025832D01*
X118592667Y-135443648D01*
X118592668Y-135443650D01*
X118784967Y-135907902D01*
X118883000Y-136400747D01*
X118883000Y-136903253D01*
X118784967Y-137396098D01*
X118647115Y-137728902D01*
X118592667Y-137860352D01*
X118313491Y-138278168D01*
X117958168Y-138633491D01*
X117540352Y-138912667D01*
X117540351Y-138912668D01*
X117540350Y-138912668D01*
X117076098Y-139104967D01*
X116583253Y-139203000D01*
X116080747Y-139203000D01*
X115587902Y-139104967D01*
X115123650Y-138912668D01*
X115123649Y-138912668D01*
X115123648Y-138912667D01*
X114705832Y-138633491D01*
X114350509Y-138278168D01*
X114071333Y-137860352D01*
X114016885Y-137728902D01*
X113879033Y-137396098D01*
X113781000Y-136903253D01*
X113781000Y-136400747D01*
X113879033Y-135907902D01*
X114071332Y-135443650D01*
X114071333Y-135443648D01*
X114350509Y-135025832D01*
X114705832Y-134670509D01*
X115123648Y-134391333D01*
X115123650Y-134391332D01*
X115587902Y-134199033D01*
X116080747Y-134101000D01*
X116583253Y-134101000D01*
X117076098Y-134199033D01*
X117076098Y-134199033D01*
G37*
G36*
X175709558Y-136174051D02*
G01*
X175781525Y-136181139D01*
X175951364Y-136232659D01*
X176107889Y-136316324D01*
X176126148Y-136331309D01*
X176245084Y-136428916D01*
X176322279Y-136522980D01*
X176357676Y-136566111D01*
X176441341Y-136722636D01*
X176492861Y-136892475D01*
X176510257Y-137069102D01*
X176492861Y-137245729D01*
X176441341Y-137415568D01*
X176357676Y-137572093D01*
X176331124Y-137604447D01*
X176245084Y-137709288D01*
X176143627Y-137792550D01*
X176107889Y-137821880D01*
X175951364Y-137905545D01*
X175781525Y-137957065D01*
X175715340Y-137963584D01*
X175649158Y-137970102D01*
X175560638Y-137970102D01*
X175494456Y-137963584D01*
X175428271Y-137957065D01*
X175258432Y-137905545D01*
X175101907Y-137821880D01*
X175066169Y-137792550D01*
X174964712Y-137709288D01*
X174878672Y-137604447D01*
X174852120Y-137572093D01*
X174768455Y-137415568D01*
X174716935Y-137245729D01*
X174699539Y-137069102D01*
X174716935Y-136892475D01*
X174768455Y-136722636D01*
X174852120Y-136566111D01*
X174887517Y-136522980D01*
X174964712Y-136428916D01*
X175083648Y-136331309D01*
X175101907Y-136316324D01*
X175258432Y-136232659D01*
X175428271Y-136181139D01*
X175500238Y-136174051D01*
X175560638Y-136168102D01*
X175649158Y-136168102D01*
X175709558Y-136174051D01*
X175709558Y-136174051D01*
G37*
G36*
X149180674Y-135270465D02*
G01*
X149218367Y-135281899D01*
X149253103Y-135300466D01*
X149283548Y-135325452D01*
X149308534Y-135355897D01*
X149327101Y-135390633D01*
X149338535Y-135428326D01*
X149343000Y-135473661D01*
X149343000Y-136560339D01*
X149338535Y-136605674D01*
X149327101Y-136643367D01*
X149308534Y-136678103D01*
X149283548Y-136708548D01*
X149253103Y-136733534D01*
X149218367Y-136752101D01*
X149180674Y-136763535D01*
X149135339Y-136768000D01*
X148298661Y-136768000D01*
X148253326Y-136763535D01*
X148215633Y-136752101D01*
X148180897Y-136733534D01*
X148150452Y-136708548D01*
X148125466Y-136678103D01*
X148106899Y-136643367D01*
X148095465Y-136605674D01*
X148091000Y-136560339D01*
X148091000Y-135473661D01*
X148095465Y-135428326D01*
X148106899Y-135390633D01*
X148125466Y-135355897D01*
X148150452Y-135325452D01*
X148180897Y-135300466D01*
X148215633Y-135281899D01*
X148253326Y-135270465D01*
X148298661Y-135266000D01*
X149135339Y-135266000D01*
X149180674Y-135270465D01*
X149180674Y-135270465D01*
G37*
G36*
X147130674Y-135270465D02*
G01*
X147168367Y-135281899D01*
X147203103Y-135300466D01*
X147233548Y-135325452D01*
X147258534Y-135355897D01*
X147277101Y-135390633D01*
X147288535Y-135428326D01*
X147293000Y-135473661D01*
X147293000Y-136560339D01*
X147288535Y-136605674D01*
X147277101Y-136643367D01*
X147258534Y-136678103D01*
X147233548Y-136708548D01*
X147203103Y-136733534D01*
X147168367Y-136752101D01*
X147130674Y-136763535D01*
X147085339Y-136768000D01*
X146248661Y-136768000D01*
X146203326Y-136763535D01*
X146165633Y-136752101D01*
X146130897Y-136733534D01*
X146100452Y-136708548D01*
X146075466Y-136678103D01*
X146056899Y-136643367D01*
X146045465Y-136605674D01*
X146041000Y-136560339D01*
X146041000Y-135473661D01*
X146045465Y-135428326D01*
X146056899Y-135390633D01*
X146075466Y-135355897D01*
X146100452Y-135325452D01*
X146130897Y-135300466D01*
X146165633Y-135281899D01*
X146203326Y-135270465D01*
X146248661Y-135266000D01*
X147085339Y-135266000D01*
X147130674Y-135270465D01*
X147130674Y-135270465D01*
G37*
G36*
X141906499Y-135495445D02*
G01*
X141943995Y-135506820D01*
X141978554Y-135525292D01*
X142008847Y-135550153D01*
X142033708Y-135580446D01*
X142052180Y-135615005D01*
X142063555Y-135652501D01*
X142068000Y-135697638D01*
X142068000Y-136336362D01*
X142063555Y-136381499D01*
X142052180Y-136418995D01*
X142033708Y-136453554D01*
X142008847Y-136483847D01*
X141978554Y-136508708D01*
X141943995Y-136527180D01*
X141906499Y-136538555D01*
X141861362Y-136543000D01*
X141122638Y-136543000D01*
X141077501Y-136538555D01*
X141040005Y-136527180D01*
X141005446Y-136508708D01*
X140975153Y-136483847D01*
X140950292Y-136453554D01*
X140931820Y-136418995D01*
X140920445Y-136381499D01*
X140916000Y-136336362D01*
X140916000Y-135697638D01*
X140920445Y-135652501D01*
X140931820Y-135615005D01*
X140950292Y-135580446D01*
X140975153Y-135550153D01*
X141005446Y-135525292D01*
X141040005Y-135506820D01*
X141077501Y-135495445D01*
X141122638Y-135491000D01*
X141861362Y-135491000D01*
X141906499Y-135495445D01*
X141906499Y-135495445D01*
G37*
G36*
X153336499Y-135495445D02*
G01*
X153373995Y-135506820D01*
X153408554Y-135525292D01*
X153438847Y-135550153D01*
X153463708Y-135580446D01*
X153482180Y-135615005D01*
X153493555Y-135652501D01*
X153498000Y-135697638D01*
X153498000Y-136336362D01*
X153493555Y-136381499D01*
X153482180Y-136418995D01*
X153463708Y-136453554D01*
X153438847Y-136483847D01*
X153408554Y-136508708D01*
X153373995Y-136527180D01*
X153336499Y-136538555D01*
X153291362Y-136543000D01*
X152552638Y-136543000D01*
X152507501Y-136538555D01*
X152470005Y-136527180D01*
X152435446Y-136508708D01*
X152405153Y-136483847D01*
X152380292Y-136453554D01*
X152361820Y-136418995D01*
X152350445Y-136381499D01*
X152346000Y-136336362D01*
X152346000Y-135697638D01*
X152350445Y-135652501D01*
X152361820Y-135615005D01*
X152380292Y-135580446D01*
X152405153Y-135550153D01*
X152435446Y-135525292D01*
X152470005Y-135506820D01*
X152507501Y-135495445D01*
X152552638Y-135491000D01*
X153291362Y-135491000D01*
X153336499Y-135495445D01*
X153336499Y-135495445D01*
G37*
G36*
X155086499Y-135495445D02*
G01*
X155123995Y-135506820D01*
X155158554Y-135525292D01*
X155188847Y-135550153D01*
X155213708Y-135580446D01*
X155232180Y-135615005D01*
X155243555Y-135652501D01*
X155248000Y-135697638D01*
X155248000Y-136336362D01*
X155243555Y-136381499D01*
X155232180Y-136418995D01*
X155213708Y-136453554D01*
X155188847Y-136483847D01*
X155158554Y-136508708D01*
X155123995Y-136527180D01*
X155086499Y-136538555D01*
X155041362Y-136543000D01*
X154302638Y-136543000D01*
X154257501Y-136538555D01*
X154220005Y-136527180D01*
X154185446Y-136508708D01*
X154155153Y-136483847D01*
X154130292Y-136453554D01*
X154111820Y-136418995D01*
X154100445Y-136381499D01*
X154096000Y-136336362D01*
X154096000Y-135697638D01*
X154100445Y-135652501D01*
X154111820Y-135615005D01*
X154130292Y-135580446D01*
X154155153Y-135550153D01*
X154185446Y-135525292D01*
X154220005Y-135506820D01*
X154257501Y-135495445D01*
X154302638Y-135491000D01*
X155041362Y-135491000D01*
X155086499Y-135495445D01*
X155086499Y-135495445D01*
G37*
G36*
X158416499Y-135495445D02*
G01*
X158453995Y-135506820D01*
X158488554Y-135525292D01*
X158518847Y-135550153D01*
X158543708Y-135580446D01*
X158562180Y-135615005D01*
X158573555Y-135652501D01*
X158578000Y-135697638D01*
X158578000Y-136336362D01*
X158573555Y-136381499D01*
X158562180Y-136418995D01*
X158543708Y-136453554D01*
X158518847Y-136483847D01*
X158488554Y-136508708D01*
X158453995Y-136527180D01*
X158416499Y-136538555D01*
X158371362Y-136543000D01*
X157632638Y-136543000D01*
X157587501Y-136538555D01*
X157550005Y-136527180D01*
X157515446Y-136508708D01*
X157485153Y-136483847D01*
X157460292Y-136453554D01*
X157441820Y-136418995D01*
X157430445Y-136381499D01*
X157426000Y-136336362D01*
X157426000Y-135697638D01*
X157430445Y-135652501D01*
X157441820Y-135615005D01*
X157460292Y-135580446D01*
X157485153Y-135550153D01*
X157515446Y-135525292D01*
X157550005Y-135506820D01*
X157587501Y-135495445D01*
X157632638Y-135491000D01*
X158371362Y-135491000D01*
X158416499Y-135495445D01*
X158416499Y-135495445D01*
G37*
G36*
X160166499Y-135495445D02*
G01*
X160203995Y-135506820D01*
X160238554Y-135525292D01*
X160268847Y-135550153D01*
X160293708Y-135580446D01*
X160312180Y-135615005D01*
X160323555Y-135652501D01*
X160328000Y-135697638D01*
X160328000Y-136336362D01*
X160323555Y-136381499D01*
X160312180Y-136418995D01*
X160293708Y-136453554D01*
X160268847Y-136483847D01*
X160238554Y-136508708D01*
X160203995Y-136527180D01*
X160166499Y-136538555D01*
X160121362Y-136543000D01*
X159382638Y-136543000D01*
X159337501Y-136538555D01*
X159300005Y-136527180D01*
X159265446Y-136508708D01*
X159235153Y-136483847D01*
X159210292Y-136453554D01*
X159191820Y-136418995D01*
X159180445Y-136381499D01*
X159176000Y-136336362D01*
X159176000Y-135697638D01*
X159180445Y-135652501D01*
X159191820Y-135615005D01*
X159210292Y-135580446D01*
X159235153Y-135550153D01*
X159265446Y-135525292D01*
X159300005Y-135506820D01*
X159337501Y-135495445D01*
X159382638Y-135491000D01*
X160121362Y-135491000D01*
X160166499Y-135495445D01*
X160166499Y-135495445D01*
G37*
G36*
X143656499Y-135495445D02*
G01*
X143693995Y-135506820D01*
X143728554Y-135525292D01*
X143758847Y-135550153D01*
X143783708Y-135580446D01*
X143802180Y-135615005D01*
X143813555Y-135652501D01*
X143818000Y-135697638D01*
X143818000Y-136336362D01*
X143813555Y-136381499D01*
X143802180Y-136418995D01*
X143783708Y-136453554D01*
X143758847Y-136483847D01*
X143728554Y-136508708D01*
X143693995Y-136527180D01*
X143656499Y-136538555D01*
X143611362Y-136543000D01*
X142872638Y-136543000D01*
X142827501Y-136538555D01*
X142790005Y-136527180D01*
X142755446Y-136508708D01*
X142725153Y-136483847D01*
X142700292Y-136453554D01*
X142681820Y-136418995D01*
X142670445Y-136381499D01*
X142666000Y-136336362D01*
X142666000Y-135697638D01*
X142670445Y-135652501D01*
X142681820Y-135615005D01*
X142700292Y-135580446D01*
X142725153Y-135550153D01*
X142755446Y-135525292D01*
X142790005Y-135506820D01*
X142827501Y-135495445D01*
X142872638Y-135491000D01*
X143611362Y-135491000D01*
X143656499Y-135495445D01*
X143656499Y-135495445D01*
G37*
G36*
X177511391Y-134378569D02*
G01*
X177577576Y-134385088D01*
X177747415Y-134436608D01*
X177903940Y-134520273D01*
X177939678Y-134549603D01*
X178041135Y-134632865D01*
X178124397Y-134734322D01*
X178153727Y-134770060D01*
X178237392Y-134926585D01*
X178288912Y-135096424D01*
X178306308Y-135273051D01*
X178288912Y-135449678D01*
X178237392Y-135619517D01*
X178153727Y-135776042D01*
X178124397Y-135811780D01*
X178041135Y-135913237D01*
X177939678Y-135996499D01*
X177903940Y-136025829D01*
X177747415Y-136109494D01*
X177577576Y-136161014D01*
X177511391Y-136167533D01*
X177445209Y-136174051D01*
X177356689Y-136174051D01*
X177290507Y-136167533D01*
X177224322Y-136161014D01*
X177054483Y-136109494D01*
X176897958Y-136025829D01*
X176862220Y-135996499D01*
X176760763Y-135913237D01*
X176677501Y-135811780D01*
X176648171Y-135776042D01*
X176564506Y-135619517D01*
X176512986Y-135449678D01*
X176495590Y-135273051D01*
X176512986Y-135096424D01*
X176564506Y-134926585D01*
X176648171Y-134770060D01*
X176677501Y-134734322D01*
X176760763Y-134632865D01*
X176862220Y-134549603D01*
X176897958Y-134520273D01*
X177054483Y-134436608D01*
X177224322Y-134385088D01*
X177290507Y-134378569D01*
X177356689Y-134372051D01*
X177445209Y-134372051D01*
X177511391Y-134378569D01*
X177511391Y-134378569D01*
G37*
G36*
X180471206Y-133477000D02*
G01*
X179197000Y-134751206D01*
X177922794Y-133477000D01*
X179197000Y-132202794D01*
X180471206Y-133477000D01*
X180471206Y-133477000D01*
G37*
G36*
X138286499Y-133145445D02*
G01*
X138323995Y-133156820D01*
X138358554Y-133175292D01*
X138388847Y-133200153D01*
X138413708Y-133230446D01*
X138432180Y-133265005D01*
X138443555Y-133302501D01*
X138448000Y-133347638D01*
X138448000Y-134086362D01*
X138443555Y-134131499D01*
X138432180Y-134168995D01*
X138413708Y-134203554D01*
X138388847Y-134233847D01*
X138358554Y-134258708D01*
X138323995Y-134277180D01*
X138286499Y-134288555D01*
X138241362Y-134293000D01*
X137602638Y-134293000D01*
X137557501Y-134288555D01*
X137520005Y-134277180D01*
X137485446Y-134258708D01*
X137455153Y-134233847D01*
X137430292Y-134203554D01*
X137411820Y-134168995D01*
X137400445Y-134131499D01*
X137396000Y-134086362D01*
X137396000Y-133347638D01*
X137400445Y-133302501D01*
X137411820Y-133265005D01*
X137430292Y-133230446D01*
X137455153Y-133200153D01*
X137485446Y-133175292D01*
X137520005Y-133156820D01*
X137557501Y-133145445D01*
X137602638Y-133141000D01*
X138241362Y-133141000D01*
X138286499Y-133145445D01*
X138286499Y-133145445D01*
G37*
G36*
X111996098Y-129119033D02*
G01*
X112460350Y-129311332D01*
X112460352Y-129311333D01*
X112878168Y-129590509D01*
X113233491Y-129945832D01*
X113512667Y-130363648D01*
X113512668Y-130363650D01*
X113704967Y-130827902D01*
X113803000Y-131320747D01*
X113803000Y-131823253D01*
X113704967Y-132316098D01*
X113610981Y-132543000D01*
X113512667Y-132780352D01*
X113233491Y-133198168D01*
X112878168Y-133553491D01*
X112460352Y-133832667D01*
X112460351Y-133832668D01*
X112460350Y-133832668D01*
X111996098Y-134024967D01*
X111503253Y-134123000D01*
X111000747Y-134123000D01*
X110507902Y-134024967D01*
X110043650Y-133832668D01*
X110043649Y-133832668D01*
X110043648Y-133832667D01*
X109625832Y-133553491D01*
X109270509Y-133198168D01*
X108991333Y-132780352D01*
X108893019Y-132543000D01*
X108799033Y-132316098D01*
X108701000Y-131823253D01*
X108701000Y-131320747D01*
X108799033Y-130827902D01*
X108991332Y-130363650D01*
X108991333Y-130363648D01*
X109270509Y-129945832D01*
X109625832Y-129590509D01*
X110043648Y-129311333D01*
X110043650Y-129311332D01*
X110507902Y-129119033D01*
X111000747Y-129021000D01*
X111503253Y-129021000D01*
X111996098Y-129119033D01*
X111996098Y-129119033D01*
G37*
G36*
X138286499Y-131395445D02*
G01*
X138323995Y-131406820D01*
X138358554Y-131425292D01*
X138388847Y-131450153D01*
X138413708Y-131480446D01*
X138432180Y-131515005D01*
X138443555Y-131552501D01*
X138448000Y-131597638D01*
X138448000Y-132336362D01*
X138443555Y-132381499D01*
X138432180Y-132418995D01*
X138413708Y-132453554D01*
X138388847Y-132483847D01*
X138358554Y-132508708D01*
X138323995Y-132527180D01*
X138286499Y-132538555D01*
X138241362Y-132543000D01*
X137602638Y-132543000D01*
X137557501Y-132538555D01*
X137520005Y-132527180D01*
X137485446Y-132508708D01*
X137455153Y-132483847D01*
X137430292Y-132453554D01*
X137411820Y-132418995D01*
X137400445Y-132381499D01*
X137396000Y-132336362D01*
X137396000Y-131597638D01*
X137400445Y-131552501D01*
X137411820Y-131515005D01*
X137430292Y-131480446D01*
X137455153Y-131450153D01*
X137485446Y-131425292D01*
X137520005Y-131406820D01*
X137557501Y-131395445D01*
X137602638Y-131391000D01*
X138241362Y-131391000D01*
X138286499Y-131395445D01*
X138286499Y-131395445D01*
G37*
G36*
X166928800Y-131546600D02*
G01*
X164795200Y-131546600D01*
X164795200Y-126009400D01*
X166928800Y-126009400D01*
X166928800Y-131546600D01*
X166928800Y-131546600D01*
G37*
G36*
X184513098Y-125563033D02*
G01*
X184973354Y-125753677D01*
X184977352Y-125755333D01*
X185395168Y-126034509D01*
X185750491Y-126389832D01*
X186029667Y-126807648D01*
X186029668Y-126807650D01*
X186221967Y-127271902D01*
X186320000Y-127764747D01*
X186320000Y-128267253D01*
X186221967Y-128760098D01*
X186073291Y-129119034D01*
X186029667Y-129224352D01*
X185750491Y-129642168D01*
X185395168Y-129997491D01*
X184977352Y-130276667D01*
X184977351Y-130276668D01*
X184977350Y-130276668D01*
X184513098Y-130468967D01*
X184020253Y-130567000D01*
X183517747Y-130567000D01*
X183024902Y-130468967D01*
X182560650Y-130276668D01*
X182560649Y-130276668D01*
X182560648Y-130276667D01*
X182142832Y-129997491D01*
X181787509Y-129642168D01*
X181508333Y-129224352D01*
X181464709Y-129119034D01*
X181316033Y-128760098D01*
X181218000Y-128267253D01*
X181218000Y-127764747D01*
X181316033Y-127271902D01*
X181508332Y-126807650D01*
X181508333Y-126807648D01*
X181787509Y-126389832D01*
X182142832Y-126034509D01*
X182560648Y-125755333D01*
X182564646Y-125753677D01*
X183024902Y-125563033D01*
X183517747Y-125465000D01*
X184020253Y-125465000D01*
X184513098Y-125563033D01*
X184513098Y-125563033D01*
G37*
G36*
X155573000Y-130183000D02*
G01*
X145671000Y-130183000D01*
X145671000Y-128581000D01*
X155573000Y-128581000D01*
X155573000Y-130183000D01*
X155573000Y-130183000D01*
G37*
G36*
X173211499Y-128940445D02*
G01*
X173248995Y-128951820D01*
X173283554Y-128970292D01*
X173313847Y-128995153D01*
X173338708Y-129025446D01*
X173357180Y-129060005D01*
X173368555Y-129097501D01*
X173373000Y-129142638D01*
X173373000Y-129881362D01*
X173368555Y-129926499D01*
X173357180Y-129963995D01*
X173338708Y-129998554D01*
X173313847Y-130028847D01*
X173283554Y-130053708D01*
X173248995Y-130072180D01*
X173211499Y-130083555D01*
X173166362Y-130088000D01*
X172527638Y-130088000D01*
X172482501Y-130083555D01*
X172445005Y-130072180D01*
X172410446Y-130053708D01*
X172380153Y-130028847D01*
X172355292Y-129998554D01*
X172336820Y-129963995D01*
X172325445Y-129926499D01*
X172321000Y-129881362D01*
X172321000Y-129142638D01*
X172325445Y-129097501D01*
X172336820Y-129060005D01*
X172355292Y-129025446D01*
X172380153Y-128995153D01*
X172410446Y-128970292D01*
X172445005Y-128951820D01*
X172482501Y-128940445D01*
X172527638Y-128936000D01*
X173166362Y-128936000D01*
X173211499Y-128940445D01*
X173211499Y-128940445D01*
G37*
G36*
X132776499Y-128510445D02*
G01*
X132813995Y-128521820D01*
X132848554Y-128540292D01*
X132878847Y-128565153D01*
X132903708Y-128595446D01*
X132922180Y-128630005D01*
X132933555Y-128667501D01*
X132938000Y-128712638D01*
X132938000Y-129351362D01*
X132933555Y-129396499D01*
X132922180Y-129433995D01*
X132903708Y-129468554D01*
X132878847Y-129498847D01*
X132848554Y-129523708D01*
X132813995Y-129542180D01*
X132776499Y-129553555D01*
X132731362Y-129558000D01*
X131992638Y-129558000D01*
X131947501Y-129553555D01*
X131910005Y-129542180D01*
X131875446Y-129523708D01*
X131845153Y-129498847D01*
X131820292Y-129468554D01*
X131801820Y-129433995D01*
X131790445Y-129396499D01*
X131786000Y-129351362D01*
X131786000Y-128712638D01*
X131790445Y-128667501D01*
X131801820Y-128630005D01*
X131820292Y-128595446D01*
X131845153Y-128565153D01*
X131875446Y-128540292D01*
X131910005Y-128521820D01*
X131947501Y-128510445D01*
X131992638Y-128506000D01*
X132731362Y-128506000D01*
X132776499Y-128510445D01*
X132776499Y-128510445D01*
G37*
G36*
X134526499Y-128510445D02*
G01*
X134563995Y-128521820D01*
X134598554Y-128540292D01*
X134628847Y-128565153D01*
X134653708Y-128595446D01*
X134672180Y-128630005D01*
X134683555Y-128667501D01*
X134688000Y-128712638D01*
X134688000Y-129351362D01*
X134683555Y-129396499D01*
X134672180Y-129433995D01*
X134653708Y-129468554D01*
X134628847Y-129498847D01*
X134598554Y-129523708D01*
X134563995Y-129542180D01*
X134526499Y-129553555D01*
X134481362Y-129558000D01*
X133742638Y-129558000D01*
X133697501Y-129553555D01*
X133660005Y-129542180D01*
X133625446Y-129523708D01*
X133595153Y-129498847D01*
X133570292Y-129468554D01*
X133551820Y-129433995D01*
X133540445Y-129396499D01*
X133536000Y-129351362D01*
X133536000Y-128712638D01*
X133540445Y-128667501D01*
X133551820Y-128630005D01*
X133570292Y-128595446D01*
X133595153Y-128565153D01*
X133625446Y-128540292D01*
X133660005Y-128521820D01*
X133697501Y-128510445D01*
X133742638Y-128506000D01*
X134481362Y-128506000D01*
X134526499Y-128510445D01*
X134526499Y-128510445D01*
G37*
G36*
X106811206Y-127127000D02*
G01*
X105537000Y-128401206D01*
X104262794Y-127127000D01*
X105537000Y-125852794D01*
X106811206Y-127127000D01*
X106811206Y-127127000D01*
G37*
G36*
X173211499Y-127190445D02*
G01*
X173248995Y-127201820D01*
X173283554Y-127220292D01*
X173313847Y-127245153D01*
X173338708Y-127275446D01*
X173357180Y-127310005D01*
X173368555Y-127347501D01*
X173373000Y-127392638D01*
X173373000Y-128131362D01*
X173368555Y-128176499D01*
X173357180Y-128213995D01*
X173338708Y-128248554D01*
X173313847Y-128278847D01*
X173283554Y-128303708D01*
X173248995Y-128322180D01*
X173211499Y-128333555D01*
X173166362Y-128338000D01*
X172527638Y-128338000D01*
X172482501Y-128333555D01*
X172445005Y-128322180D01*
X172410446Y-128303708D01*
X172380153Y-128278847D01*
X172355292Y-128248554D01*
X172336820Y-128213995D01*
X172325445Y-128176499D01*
X172321000Y-128131362D01*
X172321000Y-127392638D01*
X172325445Y-127347501D01*
X172336820Y-127310005D01*
X172355292Y-127275446D01*
X172380153Y-127245153D01*
X172410446Y-127220292D01*
X172445005Y-127201820D01*
X172482501Y-127190445D01*
X172527638Y-127186000D01*
X173166362Y-127186000D01*
X173211499Y-127190445D01*
X173211499Y-127190445D01*
G37*
G36*
X158123000Y-127633000D02*
G01*
X156521000Y-127633000D01*
X156521000Y-117731000D01*
X158123000Y-117731000D01*
X158123000Y-127633000D01*
X158123000Y-127633000D01*
G37*
G36*
X144723000Y-127633000D02*
G01*
X143121000Y-127633000D01*
X143121000Y-117731000D01*
X144723000Y-117731000D01*
X144723000Y-127633000D01*
X144723000Y-127633000D01*
G37*
G36*
X103845609Y-124435898D02*
G01*
X103917576Y-124442986D01*
X104087415Y-124494506D01*
X104243940Y-124578171D01*
X104279678Y-124607501D01*
X104381135Y-124690763D01*
X104440323Y-124762885D01*
X104493727Y-124827958D01*
X104577392Y-124984483D01*
X104628912Y-125154322D01*
X104646308Y-125330949D01*
X104628912Y-125507576D01*
X104577392Y-125677415D01*
X104493727Y-125833940D01*
X104478254Y-125852794D01*
X104381135Y-125971135D01*
X104305751Y-126033000D01*
X104243940Y-126083727D01*
X104087415Y-126167392D01*
X103917576Y-126218912D01*
X103851391Y-126225431D01*
X103785209Y-126231949D01*
X103696689Y-126231949D01*
X103630507Y-126225431D01*
X103564322Y-126218912D01*
X103394483Y-126167392D01*
X103237958Y-126083727D01*
X103176147Y-126033000D01*
X103100763Y-125971135D01*
X103003644Y-125852794D01*
X102988171Y-125833940D01*
X102904506Y-125677415D01*
X102852986Y-125507576D01*
X102835590Y-125330949D01*
X102852986Y-125154322D01*
X102904506Y-124984483D01*
X102988171Y-124827958D01*
X103041575Y-124762885D01*
X103100763Y-124690763D01*
X103202220Y-124607501D01*
X103237958Y-124578171D01*
X103394483Y-124494506D01*
X103564322Y-124442986D01*
X103636289Y-124435898D01*
X103696689Y-124429949D01*
X103785209Y-124429949D01*
X103845609Y-124435898D01*
X103845609Y-124435898D01*
G37*
G36*
X160892499Y-124650445D02*
G01*
X160929995Y-124661820D01*
X160964554Y-124680292D01*
X160994847Y-124705153D01*
X161019708Y-124735446D01*
X161038180Y-124770005D01*
X161049555Y-124807501D01*
X161054000Y-124852638D01*
X161054000Y-125591362D01*
X161049555Y-125636499D01*
X161038180Y-125673995D01*
X161019708Y-125708554D01*
X160994847Y-125738847D01*
X160964554Y-125763708D01*
X160929995Y-125782180D01*
X160892499Y-125793555D01*
X160847362Y-125798000D01*
X160208638Y-125798000D01*
X160163501Y-125793555D01*
X160126005Y-125782180D01*
X160091446Y-125763708D01*
X160061153Y-125738847D01*
X160036292Y-125708554D01*
X160017820Y-125673995D01*
X160006445Y-125636499D01*
X160002000Y-125591362D01*
X160002000Y-124852638D01*
X160006445Y-124807501D01*
X160017820Y-124770005D01*
X160036292Y-124735446D01*
X160061153Y-124705153D01*
X160091446Y-124680292D01*
X160126005Y-124661820D01*
X160163501Y-124650445D01*
X160208638Y-124646000D01*
X160847362Y-124646000D01*
X160892499Y-124650445D01*
X160892499Y-124650445D01*
G37*
G36*
X122030442Y-123565518D02*
G01*
X122096627Y-123572037D01*
X122266466Y-123623557D01*
X122266468Y-123623558D01*
X122340258Y-123663000D01*
X122422991Y-123707222D01*
X122428234Y-123711525D01*
X122560186Y-123819814D01*
X122618074Y-123890352D01*
X122672778Y-123957009D01*
X122756443Y-124113534D01*
X122807963Y-124283373D01*
X122825359Y-124460000D01*
X122807963Y-124636627D01*
X122756443Y-124806466D01*
X122672778Y-124962991D01*
X122655141Y-124984481D01*
X122560186Y-125100186D01*
X122458729Y-125183448D01*
X122422991Y-125212778D01*
X122266466Y-125296443D01*
X122096627Y-125347963D01*
X122030442Y-125354482D01*
X121964260Y-125361000D01*
X121875740Y-125361000D01*
X121809558Y-125354482D01*
X121743373Y-125347963D01*
X121573534Y-125296443D01*
X121417009Y-125212778D01*
X121381271Y-125183448D01*
X121279814Y-125100186D01*
X121184859Y-124984481D01*
X121167222Y-124962991D01*
X121083557Y-124806466D01*
X121032037Y-124636627D01*
X121014641Y-124460000D01*
X121032037Y-124283373D01*
X121083557Y-124113534D01*
X121167222Y-123957009D01*
X121221926Y-123890352D01*
X121279814Y-123819814D01*
X121411766Y-123711525D01*
X121417009Y-123707222D01*
X121499742Y-123663000D01*
X121573532Y-123623558D01*
X121573534Y-123623557D01*
X121743373Y-123572037D01*
X121809558Y-123565518D01*
X121875740Y-123559000D01*
X121964260Y-123559000D01*
X122030442Y-123565518D01*
X122030442Y-123565518D01*
G37*
G36*
X119490442Y-123565518D02*
G01*
X119556627Y-123572037D01*
X119726466Y-123623557D01*
X119726468Y-123623558D01*
X119800258Y-123663000D01*
X119882991Y-123707222D01*
X119888234Y-123711525D01*
X120020186Y-123819814D01*
X120078074Y-123890352D01*
X120132778Y-123957009D01*
X120216443Y-124113534D01*
X120267963Y-124283373D01*
X120285359Y-124460000D01*
X120267963Y-124636627D01*
X120216443Y-124806466D01*
X120132778Y-124962991D01*
X120115141Y-124984481D01*
X120020186Y-125100186D01*
X119918729Y-125183448D01*
X119882991Y-125212778D01*
X119726466Y-125296443D01*
X119556627Y-125347963D01*
X119490442Y-125354482D01*
X119424260Y-125361000D01*
X119335740Y-125361000D01*
X119269558Y-125354482D01*
X119203373Y-125347963D01*
X119033534Y-125296443D01*
X118877009Y-125212778D01*
X118841271Y-125183448D01*
X118739814Y-125100186D01*
X118644859Y-124984481D01*
X118627222Y-124962991D01*
X118543557Y-124806466D01*
X118492037Y-124636627D01*
X118474641Y-124460000D01*
X118492037Y-124283373D01*
X118543557Y-124113534D01*
X118627222Y-123957009D01*
X118681926Y-123890352D01*
X118739814Y-123819814D01*
X118871766Y-123711525D01*
X118877009Y-123707222D01*
X118959742Y-123663000D01*
X119033532Y-123623558D01*
X119033534Y-123623557D01*
X119203373Y-123572037D01*
X119269558Y-123565518D01*
X119335740Y-123559000D01*
X119424260Y-123559000D01*
X119490442Y-123565518D01*
X119490442Y-123565518D01*
G37*
G36*
X188958098Y-120229033D02*
G01*
X189422350Y-120421332D01*
X189422352Y-120421333D01*
X189840168Y-120700509D01*
X190195491Y-121055832D01*
X190436822Y-121417009D01*
X190474668Y-121473650D01*
X190666967Y-121937902D01*
X190765000Y-122430747D01*
X190765000Y-122933253D01*
X190666967Y-123426098D01*
X190518305Y-123785000D01*
X190474667Y-123890352D01*
X190195491Y-124308168D01*
X189840168Y-124663491D01*
X189422352Y-124942667D01*
X189422351Y-124942668D01*
X189422350Y-124942668D01*
X188958098Y-125134967D01*
X188465253Y-125233000D01*
X187962747Y-125233000D01*
X187469902Y-125134967D01*
X187005650Y-124942668D01*
X187005649Y-124942668D01*
X187005648Y-124942667D01*
X186587832Y-124663491D01*
X186232509Y-124308168D01*
X185953333Y-123890352D01*
X185909695Y-123785000D01*
X185761033Y-123426098D01*
X185663000Y-122933253D01*
X185663000Y-122430747D01*
X185761033Y-121937902D01*
X185953332Y-121473650D01*
X185991178Y-121417009D01*
X186232509Y-121055832D01*
X186587832Y-120700509D01*
X187005648Y-120421333D01*
X187005650Y-120421332D01*
X187469902Y-120229033D01*
X187962747Y-120131000D01*
X188465253Y-120131000D01*
X188958098Y-120229033D01*
X188958098Y-120229033D01*
G37*
G36*
X102055341Y-122640417D02*
G01*
X102121525Y-122646935D01*
X102291364Y-122698455D01*
X102447889Y-122782120D01*
X102483627Y-122811450D01*
X102585084Y-122894712D01*
X102659546Y-122985446D01*
X102697676Y-123031907D01*
X102781341Y-123188432D01*
X102832861Y-123358271D01*
X102850257Y-123534898D01*
X102832861Y-123711525D01*
X102781341Y-123881364D01*
X102697676Y-124037889D01*
X102689378Y-124048000D01*
X102585084Y-124175084D01*
X102483627Y-124258346D01*
X102447889Y-124287676D01*
X102291364Y-124371341D01*
X102121525Y-124422861D01*
X102055341Y-124429379D01*
X101989158Y-124435898D01*
X101900638Y-124435898D01*
X101834455Y-124429379D01*
X101768271Y-124422861D01*
X101598432Y-124371341D01*
X101441907Y-124287676D01*
X101406169Y-124258346D01*
X101304712Y-124175084D01*
X101200418Y-124048000D01*
X101192120Y-124037889D01*
X101108455Y-123881364D01*
X101056935Y-123711525D01*
X101039539Y-123534898D01*
X101056935Y-123358271D01*
X101108455Y-123188432D01*
X101192120Y-123031907D01*
X101230250Y-122985446D01*
X101304712Y-122894712D01*
X101406169Y-122811450D01*
X101441907Y-122782120D01*
X101598432Y-122698455D01*
X101768271Y-122646935D01*
X101834455Y-122640417D01*
X101900638Y-122633898D01*
X101989158Y-122633898D01*
X102055341Y-122640417D01*
X102055341Y-122640417D01*
G37*
G36*
X160892499Y-122900445D02*
G01*
X160929995Y-122911820D01*
X160964554Y-122930292D01*
X160994847Y-122955153D01*
X161019708Y-122985446D01*
X161038180Y-123020005D01*
X161049555Y-123057501D01*
X161054000Y-123102638D01*
X161054000Y-123841362D01*
X161049555Y-123886499D01*
X161038180Y-123923995D01*
X161019708Y-123958554D01*
X160994847Y-123988847D01*
X160964554Y-124013708D01*
X160929995Y-124032180D01*
X160892499Y-124043555D01*
X160847362Y-124048000D01*
X160208638Y-124048000D01*
X160163501Y-124043555D01*
X160126005Y-124032180D01*
X160091446Y-124013708D01*
X160061153Y-123988847D01*
X160036292Y-123958554D01*
X160017820Y-123923995D01*
X160006445Y-123886499D01*
X160002000Y-123841362D01*
X160002000Y-123102638D01*
X160006445Y-123057501D01*
X160017820Y-123020005D01*
X160036292Y-122985446D01*
X160061153Y-122955153D01*
X160091446Y-122930292D01*
X160126005Y-122911820D01*
X160163501Y-122900445D01*
X160208638Y-122896000D01*
X160847362Y-122896000D01*
X160892499Y-122900445D01*
X160892499Y-122900445D01*
G37*
G36*
X132263000Y-123663000D02*
G01*
X130061000Y-123663000D01*
X130061000Y-121861000D01*
X132263000Y-121861000D01*
X132263000Y-123663000D01*
X132263000Y-123663000D01*
G37*
G36*
X138163000Y-123663000D02*
G01*
X135961000Y-123663000D01*
X135961000Y-121861000D01*
X138163000Y-121861000D01*
X138163000Y-123663000D01*
X138163000Y-123663000D01*
G37*
G36*
X122030442Y-121025518D02*
G01*
X122096627Y-121032037D01*
X122266466Y-121083557D01*
X122422991Y-121167222D01*
X122451533Y-121190646D01*
X122560186Y-121279814D01*
X122607264Y-121337180D01*
X122672778Y-121417009D01*
X122756443Y-121573534D01*
X122807963Y-121743373D01*
X122825359Y-121920000D01*
X122807963Y-122096627D01*
X122756443Y-122266466D01*
X122672778Y-122422991D01*
X122643448Y-122458729D01*
X122560186Y-122560186D01*
X122470366Y-122633898D01*
X122422991Y-122672778D01*
X122266466Y-122756443D01*
X122096627Y-122807963D01*
X122030443Y-122814481D01*
X121964260Y-122821000D01*
X121875740Y-122821000D01*
X121809557Y-122814481D01*
X121743373Y-122807963D01*
X121573534Y-122756443D01*
X121417009Y-122672778D01*
X121369634Y-122633898D01*
X121279814Y-122560186D01*
X121196552Y-122458729D01*
X121167222Y-122422991D01*
X121083557Y-122266466D01*
X121032037Y-122096627D01*
X121014641Y-121920000D01*
X121032037Y-121743373D01*
X121083557Y-121573534D01*
X121167222Y-121417009D01*
X121232736Y-121337180D01*
X121279814Y-121279814D01*
X121388467Y-121190646D01*
X121417009Y-121167222D01*
X121573534Y-121083557D01*
X121743373Y-121032037D01*
X121809558Y-121025518D01*
X121875740Y-121019000D01*
X121964260Y-121019000D01*
X122030442Y-121025518D01*
X122030442Y-121025518D01*
G37*
G36*
X120281000Y-122821000D02*
G01*
X118479000Y-122821000D01*
X118479000Y-121019000D01*
X120281000Y-121019000D01*
X120281000Y-122821000D01*
X120281000Y-122821000D01*
G37*
G36*
X166928800Y-121894600D02*
G01*
X164795200Y-121894600D01*
X164795200Y-116357400D01*
X166928800Y-116357400D01*
X166928800Y-121894600D01*
X166928800Y-121894600D01*
G37*
G36*
X173211499Y-120205445D02*
G01*
X173248995Y-120216820D01*
X173283554Y-120235292D01*
X173313847Y-120260153D01*
X173338708Y-120290446D01*
X173357180Y-120325005D01*
X173368555Y-120362501D01*
X173373000Y-120407638D01*
X173373000Y-121146362D01*
X173368555Y-121191499D01*
X173357180Y-121228995D01*
X173338708Y-121263554D01*
X173313847Y-121293847D01*
X173283554Y-121318708D01*
X173248995Y-121337180D01*
X173211499Y-121348555D01*
X173166362Y-121353000D01*
X172527638Y-121353000D01*
X172482501Y-121348555D01*
X172445005Y-121337180D01*
X172410446Y-121318708D01*
X172380153Y-121293847D01*
X172355292Y-121263554D01*
X172336820Y-121228995D01*
X172325445Y-121191499D01*
X172321000Y-121146362D01*
X172321000Y-120407638D01*
X172325445Y-120362501D01*
X172336820Y-120325005D01*
X172355292Y-120290446D01*
X172380153Y-120260153D01*
X172410446Y-120235292D01*
X172445005Y-120216820D01*
X172482501Y-120205445D01*
X172527638Y-120201000D01*
X173166362Y-120201000D01*
X173211499Y-120205445D01*
X173211499Y-120205445D01*
G37*
G36*
X138163000Y-120963000D02*
G01*
X135961000Y-120963000D01*
X135961000Y-119161000D01*
X138163000Y-119161000D01*
X138163000Y-120963000D01*
X138163000Y-120963000D01*
G37*
G36*
X132263000Y-120963000D02*
G01*
X130061000Y-120963000D01*
X130061000Y-119161000D01*
X132263000Y-119161000D01*
X132263000Y-120963000D01*
X132263000Y-120963000D01*
G37*
G36*
X107760674Y-118760465D02*
G01*
X107798367Y-118771899D01*
X107833103Y-118790466D01*
X107863548Y-118815452D01*
X107888534Y-118845897D01*
X107907101Y-118880633D01*
X107918535Y-118918326D01*
X107923000Y-118963661D01*
X107923000Y-120050339D01*
X107918535Y-120095674D01*
X107907101Y-120133367D01*
X107888534Y-120168103D01*
X107863548Y-120198548D01*
X107833103Y-120223534D01*
X107798367Y-120242101D01*
X107760674Y-120253535D01*
X107715339Y-120258000D01*
X106878661Y-120258000D01*
X106833326Y-120253535D01*
X106795633Y-120242101D01*
X106760897Y-120223534D01*
X106730452Y-120198548D01*
X106705466Y-120168103D01*
X106686899Y-120133367D01*
X106675465Y-120095674D01*
X106671000Y-120050339D01*
X106671000Y-118963661D01*
X106675465Y-118918326D01*
X106686899Y-118880633D01*
X106705466Y-118845897D01*
X106730452Y-118815452D01*
X106760897Y-118790466D01*
X106795633Y-118771899D01*
X106833326Y-118760465D01*
X106878661Y-118756000D01*
X107715339Y-118756000D01*
X107760674Y-118760465D01*
X107760674Y-118760465D01*
G37*
G36*
X109810674Y-118760465D02*
G01*
X109848367Y-118771899D01*
X109883103Y-118790466D01*
X109913548Y-118815452D01*
X109938534Y-118845897D01*
X109957101Y-118880633D01*
X109968535Y-118918326D01*
X109973000Y-118963661D01*
X109973000Y-120050339D01*
X109968535Y-120095674D01*
X109957101Y-120133367D01*
X109938534Y-120168103D01*
X109913548Y-120198548D01*
X109883103Y-120223534D01*
X109848367Y-120242101D01*
X109810674Y-120253535D01*
X109765339Y-120258000D01*
X108928661Y-120258000D01*
X108883326Y-120253535D01*
X108845633Y-120242101D01*
X108810897Y-120223534D01*
X108780452Y-120198548D01*
X108755466Y-120168103D01*
X108736899Y-120133367D01*
X108725465Y-120095674D01*
X108721000Y-120050339D01*
X108721000Y-118963661D01*
X108725465Y-118918326D01*
X108736899Y-118880633D01*
X108755466Y-118845897D01*
X108780452Y-118815452D01*
X108810897Y-118790466D01*
X108845633Y-118771899D01*
X108883326Y-118760465D01*
X108928661Y-118756000D01*
X109765339Y-118756000D01*
X109810674Y-118760465D01*
X109810674Y-118760465D01*
G37*
G36*
X173211499Y-118455445D02*
G01*
X173248995Y-118466820D01*
X173283554Y-118485292D01*
X173313847Y-118510153D01*
X173338708Y-118540446D01*
X173357180Y-118575005D01*
X173368555Y-118612501D01*
X173373000Y-118657638D01*
X173373000Y-119396362D01*
X173368555Y-119441499D01*
X173357180Y-119478995D01*
X173338708Y-119513554D01*
X173313847Y-119543847D01*
X173283554Y-119568708D01*
X173248995Y-119587180D01*
X173211499Y-119598555D01*
X173166362Y-119603000D01*
X172527638Y-119603000D01*
X172482501Y-119598555D01*
X172445005Y-119587180D01*
X172410446Y-119568708D01*
X172380153Y-119543847D01*
X172355292Y-119513554D01*
X172336820Y-119478995D01*
X172325445Y-119441499D01*
X172321000Y-119396362D01*
X172321000Y-118657638D01*
X172325445Y-118612501D01*
X172336820Y-118575005D01*
X172355292Y-118540446D01*
X172380153Y-118510153D01*
X172410446Y-118485292D01*
X172445005Y-118466820D01*
X172482501Y-118455445D01*
X172527638Y-118451000D01*
X173166362Y-118451000D01*
X173211499Y-118455445D01*
X173211499Y-118455445D01*
G37*
G36*
X140826499Y-116000445D02*
G01*
X140863995Y-116011820D01*
X140898554Y-116030292D01*
X140928847Y-116055153D01*
X140953708Y-116085446D01*
X140972180Y-116120005D01*
X140983555Y-116157501D01*
X140988000Y-116202638D01*
X140988000Y-116941362D01*
X140983555Y-116986499D01*
X140972180Y-117023995D01*
X140953708Y-117058554D01*
X140928847Y-117088847D01*
X140898554Y-117113708D01*
X140863995Y-117132180D01*
X140826499Y-117143555D01*
X140781362Y-117148000D01*
X140142638Y-117148000D01*
X140097501Y-117143555D01*
X140060005Y-117132180D01*
X140025446Y-117113708D01*
X139995153Y-117088847D01*
X139970292Y-117058554D01*
X139951820Y-117023995D01*
X139940445Y-116986499D01*
X139936000Y-116941362D01*
X139936000Y-116202638D01*
X139940445Y-116157501D01*
X139951820Y-116120005D01*
X139970292Y-116085446D01*
X139995153Y-116055153D01*
X140025446Y-116030292D01*
X140060005Y-116011820D01*
X140097501Y-116000445D01*
X140142638Y-115996000D01*
X140781362Y-115996000D01*
X140826499Y-116000445D01*
X140826499Y-116000445D01*
G37*
G36*
X155573000Y-116783000D02*
G01*
X145671000Y-116783000D01*
X145671000Y-115181000D01*
X155573000Y-115181000D01*
X155573000Y-116783000D01*
X155573000Y-116783000D01*
G37*
G36*
X100197256Y-113453298D02*
G01*
X100303579Y-113474447D01*
X100604042Y-113598903D01*
X100874451Y-113779585D01*
X101104415Y-114009549D01*
X101275784Y-114266020D01*
X101285098Y-114279960D01*
X101308081Y-114335446D01*
X101409553Y-114580421D01*
X101418509Y-114625446D01*
X101473000Y-114899389D01*
X101473000Y-115224611D01*
X101433011Y-115425646D01*
X101409553Y-115543579D01*
X101285097Y-115844042D01*
X101104415Y-116114451D01*
X100874451Y-116344415D01*
X100604042Y-116525097D01*
X100303579Y-116649553D01*
X100197256Y-116670702D01*
X99984611Y-116713000D01*
X99659389Y-116713000D01*
X99446744Y-116670702D01*
X99340421Y-116649553D01*
X99039958Y-116525097D01*
X98769549Y-116344415D01*
X98539585Y-116114451D01*
X98358903Y-115844042D01*
X98234447Y-115543579D01*
X98210989Y-115425646D01*
X98171000Y-115224611D01*
X98171000Y-114899389D01*
X98225491Y-114625446D01*
X98234447Y-114580421D01*
X98335919Y-114335446D01*
X98358902Y-114279960D01*
X98368216Y-114266020D01*
X98539585Y-114009549D01*
X98769549Y-113779585D01*
X99039958Y-113598903D01*
X99340421Y-113474447D01*
X99446744Y-113453298D01*
X99659389Y-113411000D01*
X99984611Y-113411000D01*
X100197256Y-113453298D01*
X100197256Y-113453298D01*
G37*
G36*
X192272256Y-113453298D02*
G01*
X192378579Y-113474447D01*
X192679042Y-113598903D01*
X192949451Y-113779585D01*
X193179415Y-114009549D01*
X193350784Y-114266020D01*
X193360098Y-114279960D01*
X193383081Y-114335446D01*
X193484553Y-114580421D01*
X193493509Y-114625446D01*
X193548000Y-114899389D01*
X193548000Y-115224611D01*
X193508011Y-115425646D01*
X193484553Y-115543579D01*
X193360097Y-115844042D01*
X193179415Y-116114451D01*
X192949451Y-116344415D01*
X192679042Y-116525097D01*
X192378579Y-116649553D01*
X192272256Y-116670702D01*
X192059611Y-116713000D01*
X191734389Y-116713000D01*
X191521744Y-116670702D01*
X191415421Y-116649553D01*
X191114958Y-116525097D01*
X190844549Y-116344415D01*
X190614585Y-116114451D01*
X190433903Y-115844042D01*
X190309447Y-115543579D01*
X190285989Y-115425646D01*
X190246000Y-115224611D01*
X190246000Y-114899389D01*
X190300491Y-114625446D01*
X190309447Y-114580421D01*
X190410919Y-114335446D01*
X190433902Y-114279960D01*
X190443216Y-114266020D01*
X190614585Y-114009549D01*
X190844549Y-113779585D01*
X191114958Y-113598903D01*
X191415421Y-113474447D01*
X191521744Y-113453298D01*
X191734389Y-113411000D01*
X192059611Y-113411000D01*
X192272256Y-113453298D01*
X192272256Y-113453298D01*
G37*
G36*
X135401499Y-114540445D02*
G01*
X135438995Y-114551820D01*
X135473554Y-114570292D01*
X135503847Y-114595153D01*
X135528708Y-114625446D01*
X135547180Y-114660005D01*
X135558555Y-114697501D01*
X135563000Y-114742638D01*
X135563000Y-115381362D01*
X135558555Y-115426499D01*
X135547180Y-115463995D01*
X135528708Y-115498554D01*
X135503847Y-115528847D01*
X135473554Y-115553708D01*
X135438995Y-115572180D01*
X135401499Y-115583555D01*
X135356362Y-115588000D01*
X134617638Y-115588000D01*
X134572501Y-115583555D01*
X134535005Y-115572180D01*
X134500446Y-115553708D01*
X134470153Y-115528847D01*
X134445292Y-115498554D01*
X134426820Y-115463995D01*
X134415445Y-115426499D01*
X134411000Y-115381362D01*
X134411000Y-114742638D01*
X134415445Y-114697501D01*
X134426820Y-114660005D01*
X134445292Y-114625446D01*
X134470153Y-114595153D01*
X134500446Y-114570292D01*
X134535005Y-114551820D01*
X134572501Y-114540445D01*
X134617638Y-114536000D01*
X135356362Y-114536000D01*
X135401499Y-114540445D01*
X135401499Y-114540445D01*
G37*
G36*
X133651499Y-114540445D02*
G01*
X133688995Y-114551820D01*
X133723554Y-114570292D01*
X133753847Y-114595153D01*
X133778708Y-114625446D01*
X133797180Y-114660005D01*
X133808555Y-114697501D01*
X133813000Y-114742638D01*
X133813000Y-115381362D01*
X133808555Y-115426499D01*
X133797180Y-115463995D01*
X133778708Y-115498554D01*
X133753847Y-115528847D01*
X133723554Y-115553708D01*
X133688995Y-115572180D01*
X133651499Y-115583555D01*
X133606362Y-115588000D01*
X132867638Y-115588000D01*
X132822501Y-115583555D01*
X132785005Y-115572180D01*
X132750446Y-115553708D01*
X132720153Y-115528847D01*
X132695292Y-115498554D01*
X132676820Y-115463995D01*
X132665445Y-115426499D01*
X132661000Y-115381362D01*
X132661000Y-114742638D01*
X132665445Y-114697501D01*
X132676820Y-114660005D01*
X132695292Y-114625446D01*
X132720153Y-114595153D01*
X132750446Y-114570292D01*
X132785005Y-114551820D01*
X132822501Y-114540445D01*
X132867638Y-114536000D01*
X133606362Y-114536000D01*
X133651499Y-114540445D01*
X133651499Y-114540445D01*
G37*
G36*
X140826499Y-114250445D02*
G01*
X140863995Y-114261820D01*
X140898554Y-114280292D01*
X140928847Y-114305153D01*
X140953708Y-114335446D01*
X140972180Y-114370005D01*
X140983555Y-114407501D01*
X140988000Y-114452638D01*
X140988000Y-115191362D01*
X140983555Y-115236499D01*
X140972180Y-115273995D01*
X140953708Y-115308554D01*
X140928847Y-115338847D01*
X140898554Y-115363708D01*
X140863995Y-115382180D01*
X140826499Y-115393555D01*
X140781362Y-115398000D01*
X140142638Y-115398000D01*
X140097501Y-115393555D01*
X140060005Y-115382180D01*
X140025446Y-115363708D01*
X139995153Y-115338847D01*
X139970292Y-115308554D01*
X139951820Y-115273995D01*
X139940445Y-115236499D01*
X139936000Y-115191362D01*
X139936000Y-114452638D01*
X139940445Y-114407501D01*
X139951820Y-114370005D01*
X139970292Y-114335446D01*
X139995153Y-114305153D01*
X140025446Y-114280292D01*
X140060005Y-114261820D01*
X140097501Y-114250445D01*
X140142638Y-114246000D01*
X140781362Y-114246000D01*
X140826499Y-114250445D01*
X140826499Y-114250445D01*
G37*
G36*
X107616499Y-113905445D02*
G01*
X107653995Y-113916820D01*
X107688554Y-113935292D01*
X107718847Y-113960153D01*
X107743708Y-113990446D01*
X107762180Y-114025005D01*
X107773555Y-114062501D01*
X107778000Y-114107638D01*
X107778000Y-114746362D01*
X107773555Y-114791499D01*
X107762180Y-114828995D01*
X107743708Y-114863554D01*
X107718847Y-114893847D01*
X107688554Y-114918708D01*
X107653995Y-114937180D01*
X107616499Y-114948555D01*
X107571362Y-114953000D01*
X106832638Y-114953000D01*
X106787501Y-114948555D01*
X106750005Y-114937180D01*
X106715446Y-114918708D01*
X106685153Y-114893847D01*
X106660292Y-114863554D01*
X106641820Y-114828995D01*
X106630445Y-114791499D01*
X106626000Y-114746362D01*
X106626000Y-114107638D01*
X106630445Y-114062501D01*
X106641820Y-114025005D01*
X106660292Y-113990446D01*
X106685153Y-113960153D01*
X106715446Y-113935292D01*
X106750005Y-113916820D01*
X106787501Y-113905445D01*
X106832638Y-113901000D01*
X107571362Y-113901000D01*
X107616499Y-113905445D01*
X107616499Y-113905445D01*
G37*
G36*
X109366499Y-113905445D02*
G01*
X109403995Y-113916820D01*
X109438554Y-113935292D01*
X109468847Y-113960153D01*
X109493708Y-113990446D01*
X109512180Y-114025005D01*
X109523555Y-114062501D01*
X109528000Y-114107638D01*
X109528000Y-114746362D01*
X109523555Y-114791499D01*
X109512180Y-114828995D01*
X109493708Y-114863554D01*
X109468847Y-114893847D01*
X109438554Y-114918708D01*
X109403995Y-114937180D01*
X109366499Y-114948555D01*
X109321362Y-114953000D01*
X108582638Y-114953000D01*
X108537501Y-114948555D01*
X108500005Y-114937180D01*
X108465446Y-114918708D01*
X108435153Y-114893847D01*
X108410292Y-114863554D01*
X108391820Y-114828995D01*
X108380445Y-114791499D01*
X108376000Y-114746362D01*
X108376000Y-114107638D01*
X108380445Y-114062501D01*
X108391820Y-114025005D01*
X108410292Y-113990446D01*
X108435153Y-113960153D01*
X108465446Y-113935292D01*
X108500005Y-113916820D01*
X108537501Y-113905445D01*
X108582638Y-113901000D01*
X109321362Y-113901000D01*
X109366499Y-113905445D01*
X109366499Y-113905445D01*
G37*
G36*
X120624600Y-114274600D02*
G01*
X118897400Y-114274600D01*
X118897400Y-113309400D01*
X120624600Y-113309400D01*
X120624600Y-114274600D01*
X120624600Y-114274600D01*
G37*
G36*
X115036600Y-114274600D02*
G01*
X113309400Y-114274600D01*
X113309400Y-113309400D01*
X115036600Y-113309400D01*
X115036600Y-114274600D01*
X115036600Y-114274600D01*
G37*
G36*
X152306499Y-110730445D02*
G01*
X152343995Y-110741820D01*
X152378554Y-110760292D01*
X152408847Y-110785153D01*
X152433708Y-110815446D01*
X152452180Y-110850005D01*
X152463555Y-110887501D01*
X152468000Y-110932638D01*
X152468000Y-111571362D01*
X152463555Y-111616499D01*
X152452180Y-111653995D01*
X152433708Y-111688554D01*
X152408847Y-111718847D01*
X152378554Y-111743708D01*
X152343995Y-111762180D01*
X152306499Y-111773555D01*
X152261362Y-111778000D01*
X151522638Y-111778000D01*
X151477501Y-111773555D01*
X151440005Y-111762180D01*
X151405446Y-111743708D01*
X151375153Y-111718847D01*
X151350292Y-111688554D01*
X151331820Y-111653995D01*
X151320445Y-111616499D01*
X151316000Y-111571362D01*
X151316000Y-110932638D01*
X151320445Y-110887501D01*
X151331820Y-110850005D01*
X151350292Y-110815446D01*
X151375153Y-110785153D01*
X151405446Y-110760292D01*
X151440005Y-110741820D01*
X151477501Y-110730445D01*
X151522638Y-110726000D01*
X152261362Y-110726000D01*
X152306499Y-110730445D01*
X152306499Y-110730445D01*
G37*
G36*
X150556499Y-110730445D02*
G01*
X150593995Y-110741820D01*
X150628554Y-110760292D01*
X150658847Y-110785153D01*
X150683708Y-110815446D01*
X150702180Y-110850005D01*
X150713555Y-110887501D01*
X150718000Y-110932638D01*
X150718000Y-111571362D01*
X150713555Y-111616499D01*
X150702180Y-111653995D01*
X150683708Y-111688554D01*
X150658847Y-111718847D01*
X150628554Y-111743708D01*
X150593995Y-111762180D01*
X150556499Y-111773555D01*
X150511362Y-111778000D01*
X149772638Y-111778000D01*
X149727501Y-111773555D01*
X149690005Y-111762180D01*
X149655446Y-111743708D01*
X149625153Y-111718847D01*
X149600292Y-111688554D01*
X149581820Y-111653995D01*
X149570445Y-111616499D01*
X149566000Y-111571362D01*
X149566000Y-110932638D01*
X149570445Y-110887501D01*
X149581820Y-110850005D01*
X149600292Y-110815446D01*
X149625153Y-110785153D01*
X149655446Y-110760292D01*
X149690005Y-110741820D01*
X149727501Y-110730445D01*
X149772638Y-110726000D01*
X150511362Y-110726000D01*
X150556499Y-110730445D01*
X150556499Y-110730445D01*
G37*
G36*
X147734499Y-110730445D02*
G01*
X147771995Y-110741820D01*
X147806554Y-110760292D01*
X147836847Y-110785153D01*
X147861708Y-110815446D01*
X147880180Y-110850005D01*
X147891555Y-110887501D01*
X147896000Y-110932638D01*
X147896000Y-111571362D01*
X147891555Y-111616499D01*
X147880180Y-111653995D01*
X147861708Y-111688554D01*
X147836847Y-111718847D01*
X147806554Y-111743708D01*
X147771995Y-111762180D01*
X147734499Y-111773555D01*
X147689362Y-111778000D01*
X146950638Y-111778000D01*
X146905501Y-111773555D01*
X146868005Y-111762180D01*
X146833446Y-111743708D01*
X146803153Y-111718847D01*
X146778292Y-111688554D01*
X146759820Y-111653995D01*
X146748445Y-111616499D01*
X146744000Y-111571362D01*
X146744000Y-110932638D01*
X146748445Y-110887501D01*
X146759820Y-110850005D01*
X146778292Y-110815446D01*
X146803153Y-110785153D01*
X146833446Y-110760292D01*
X146868005Y-110741820D01*
X146905501Y-110730445D01*
X146950638Y-110726000D01*
X147689362Y-110726000D01*
X147734499Y-110730445D01*
X147734499Y-110730445D01*
G37*
G36*
X145984499Y-110730445D02*
G01*
X146021995Y-110741820D01*
X146056554Y-110760292D01*
X146086847Y-110785153D01*
X146111708Y-110815446D01*
X146130180Y-110850005D01*
X146141555Y-110887501D01*
X146146000Y-110932638D01*
X146146000Y-111571362D01*
X146141555Y-111616499D01*
X146130180Y-111653995D01*
X146111708Y-111688554D01*
X146086847Y-111718847D01*
X146056554Y-111743708D01*
X146021995Y-111762180D01*
X145984499Y-111773555D01*
X145939362Y-111778000D01*
X145200638Y-111778000D01*
X145155501Y-111773555D01*
X145118005Y-111762180D01*
X145083446Y-111743708D01*
X145053153Y-111718847D01*
X145028292Y-111688554D01*
X145009820Y-111653995D01*
X144998445Y-111616499D01*
X144994000Y-111571362D01*
X144994000Y-110932638D01*
X144998445Y-110887501D01*
X145009820Y-110850005D01*
X145028292Y-110815446D01*
X145053153Y-110785153D01*
X145083446Y-110760292D01*
X145118005Y-110741820D01*
X145155501Y-110730445D01*
X145200638Y-110726000D01*
X145939362Y-110726000D01*
X145984499Y-110730445D01*
X145984499Y-110730445D01*
G37*
G36*
X110812562Y-109060181D02*
G01*
X110847481Y-109070774D01*
X110879663Y-109087976D01*
X110907873Y-109111127D01*
X110931024Y-109139337D01*
X110948226Y-109171519D01*
X110958819Y-109206438D01*
X110963000Y-109248895D01*
X110963000Y-110715105D01*
X110958819Y-110757562D01*
X110948226Y-110792481D01*
X110931024Y-110824663D01*
X110907873Y-110852873D01*
X110879663Y-110876024D01*
X110847481Y-110893226D01*
X110812562Y-110903819D01*
X110770105Y-110908000D01*
X109628895Y-110908000D01*
X109586438Y-110903819D01*
X109551519Y-110893226D01*
X109519337Y-110876024D01*
X109491127Y-110852873D01*
X109467976Y-110824663D01*
X109450774Y-110792481D01*
X109440181Y-110757562D01*
X109436000Y-110715105D01*
X109436000Y-109248895D01*
X109440181Y-109206438D01*
X109450774Y-109171519D01*
X109467976Y-109139337D01*
X109491127Y-109111127D01*
X109519337Y-109087976D01*
X109551519Y-109070774D01*
X109586438Y-109060181D01*
X109628895Y-109056000D01*
X110770105Y-109056000D01*
X110812562Y-109060181D01*
X110812562Y-109060181D01*
G37*
G36*
X107837562Y-109060181D02*
G01*
X107872481Y-109070774D01*
X107904663Y-109087976D01*
X107932873Y-109111127D01*
X107956024Y-109139337D01*
X107973226Y-109171519D01*
X107983819Y-109206438D01*
X107988000Y-109248895D01*
X107988000Y-110715105D01*
X107983819Y-110757562D01*
X107973226Y-110792481D01*
X107956024Y-110824663D01*
X107932873Y-110852873D01*
X107904663Y-110876024D01*
X107872481Y-110893226D01*
X107837562Y-110903819D01*
X107795105Y-110908000D01*
X106653895Y-110908000D01*
X106611438Y-110903819D01*
X106576519Y-110893226D01*
X106544337Y-110876024D01*
X106516127Y-110852873D01*
X106492976Y-110824663D01*
X106475774Y-110792481D01*
X106465181Y-110757562D01*
X106461000Y-110715105D01*
X106461000Y-109248895D01*
X106465181Y-109206438D01*
X106475774Y-109171519D01*
X106492976Y-109139337D01*
X106516127Y-109111127D01*
X106544337Y-109087976D01*
X106576519Y-109070774D01*
X106611438Y-109060181D01*
X106653895Y-109056000D01*
X107795105Y-109056000D01*
X107837562Y-109060181D01*
X107837562Y-109060181D01*
G37*
G36*
X102580674Y-109235465D02*
G01*
X102618367Y-109246899D01*
X102653103Y-109265466D01*
X102683548Y-109290452D01*
X102708534Y-109320897D01*
X102727101Y-109355633D01*
X102738535Y-109393326D01*
X102743000Y-109438661D01*
X102743000Y-110525339D01*
X102738535Y-110570674D01*
X102727101Y-110608367D01*
X102708534Y-110643103D01*
X102683548Y-110673548D01*
X102653103Y-110698534D01*
X102618367Y-110717101D01*
X102580674Y-110728535D01*
X102535339Y-110733000D01*
X101698661Y-110733000D01*
X101653326Y-110728535D01*
X101615633Y-110717101D01*
X101580897Y-110698534D01*
X101550452Y-110673548D01*
X101525466Y-110643103D01*
X101506899Y-110608367D01*
X101495465Y-110570674D01*
X101491000Y-110525339D01*
X101491000Y-109438661D01*
X101495465Y-109393326D01*
X101506899Y-109355633D01*
X101525466Y-109320897D01*
X101550452Y-109290452D01*
X101580897Y-109265466D01*
X101615633Y-109246899D01*
X101653326Y-109235465D01*
X101698661Y-109231000D01*
X102535339Y-109231000D01*
X102580674Y-109235465D01*
X102580674Y-109235465D01*
G37*
G36*
X100530674Y-109235465D02*
G01*
X100568367Y-109246899D01*
X100603103Y-109265466D01*
X100633548Y-109290452D01*
X100658534Y-109320897D01*
X100677101Y-109355633D01*
X100688535Y-109393326D01*
X100693000Y-109438661D01*
X100693000Y-110525339D01*
X100688535Y-110570674D01*
X100677101Y-110608367D01*
X100658534Y-110643103D01*
X100633548Y-110673548D01*
X100603103Y-110698534D01*
X100568367Y-110717101D01*
X100530674Y-110728535D01*
X100485339Y-110733000D01*
X99648661Y-110733000D01*
X99603326Y-110728535D01*
X99565633Y-110717101D01*
X99530897Y-110698534D01*
X99500452Y-110673548D01*
X99475466Y-110643103D01*
X99456899Y-110608367D01*
X99445465Y-110570674D01*
X99441000Y-110525339D01*
X99441000Y-109438661D01*
X99445465Y-109393326D01*
X99456899Y-109355633D01*
X99475466Y-109320897D01*
X99500452Y-109290452D01*
X99530897Y-109265466D01*
X99565633Y-109246899D01*
X99603326Y-109235465D01*
X99648661Y-109231000D01*
X100485339Y-109231000D01*
X100530674Y-109235465D01*
X100530674Y-109235465D01*
G37*
G36*
X120624600Y-110464600D02*
G01*
X118897400Y-110464600D01*
X118897400Y-109499400D01*
X120624600Y-109499400D01*
X120624600Y-110464600D01*
X120624600Y-110464600D01*
G37*
G36*
X115036600Y-110464600D02*
G01*
X113309400Y-110464600D01*
X113309400Y-109499400D01*
X115036600Y-109499400D01*
X115036600Y-110464600D01*
X115036600Y-110464600D01*
G37*
G36*
X171560443Y-108325519D02*
G01*
X171626627Y-108332037D01*
X171796466Y-108383557D01*
X171952991Y-108467222D01*
X171988729Y-108496552D01*
X172090186Y-108579814D01*
X172173448Y-108681271D01*
X172202778Y-108717009D01*
X172286443Y-108873534D01*
X172337963Y-109043373D01*
X172355359Y-109220000D01*
X172337963Y-109396627D01*
X172286443Y-109566466D01*
X172202778Y-109722991D01*
X172173448Y-109758729D01*
X172090186Y-109860186D01*
X171988729Y-109943448D01*
X171952991Y-109972778D01*
X171796466Y-110056443D01*
X171626627Y-110107963D01*
X171560443Y-110114481D01*
X171494260Y-110121000D01*
X171405740Y-110121000D01*
X171339557Y-110114481D01*
X171273373Y-110107963D01*
X171103534Y-110056443D01*
X170947009Y-109972778D01*
X170911271Y-109943448D01*
X170809814Y-109860186D01*
X170726552Y-109758729D01*
X170697222Y-109722991D01*
X170613557Y-109566466D01*
X170562037Y-109396627D01*
X170544641Y-109220000D01*
X170562037Y-109043373D01*
X170613557Y-108873534D01*
X170697222Y-108717009D01*
X170726552Y-108681271D01*
X170809814Y-108579814D01*
X170911271Y-108496552D01*
X170947009Y-108467222D01*
X171103534Y-108383557D01*
X171273373Y-108332037D01*
X171339557Y-108325519D01*
X171405740Y-108319000D01*
X171494260Y-108319000D01*
X171560443Y-108325519D01*
X171560443Y-108325519D01*
G37*
G36*
X169020443Y-108325519D02*
G01*
X169086627Y-108332037D01*
X169256466Y-108383557D01*
X169412991Y-108467222D01*
X169448729Y-108496552D01*
X169550186Y-108579814D01*
X169633448Y-108681271D01*
X169662778Y-108717009D01*
X169746443Y-108873534D01*
X169797963Y-109043373D01*
X169815359Y-109220000D01*
X169797963Y-109396627D01*
X169746443Y-109566466D01*
X169662778Y-109722991D01*
X169633448Y-109758729D01*
X169550186Y-109860186D01*
X169448729Y-109943448D01*
X169412991Y-109972778D01*
X169256466Y-110056443D01*
X169086627Y-110107963D01*
X169020443Y-110114481D01*
X168954260Y-110121000D01*
X168865740Y-110121000D01*
X168799557Y-110114481D01*
X168733373Y-110107963D01*
X168563534Y-110056443D01*
X168407009Y-109972778D01*
X168371271Y-109943448D01*
X168269814Y-109860186D01*
X168186552Y-109758729D01*
X168157222Y-109722991D01*
X168073557Y-109566466D01*
X168022037Y-109396627D01*
X168004641Y-109220000D01*
X168022037Y-109043373D01*
X168073557Y-108873534D01*
X168157222Y-108717009D01*
X168186552Y-108681271D01*
X168269814Y-108579814D01*
X168371271Y-108496552D01*
X168407009Y-108467222D01*
X168563534Y-108383557D01*
X168733373Y-108332037D01*
X168799557Y-108325519D01*
X168865740Y-108319000D01*
X168954260Y-108319000D01*
X169020443Y-108325519D01*
X169020443Y-108325519D01*
G37*
G36*
X139265674Y-107965465D02*
G01*
X139303367Y-107976899D01*
X139338103Y-107995466D01*
X139368548Y-108020452D01*
X139393534Y-108050897D01*
X139412101Y-108085633D01*
X139423535Y-108123326D01*
X139428000Y-108168661D01*
X139428000Y-109255339D01*
X139423535Y-109300674D01*
X139412101Y-109338367D01*
X139393534Y-109373103D01*
X139368548Y-109403548D01*
X139338103Y-109428534D01*
X139303367Y-109447101D01*
X139265674Y-109458535D01*
X139220339Y-109463000D01*
X138383661Y-109463000D01*
X138338326Y-109458535D01*
X138300633Y-109447101D01*
X138265897Y-109428534D01*
X138235452Y-109403548D01*
X138210466Y-109373103D01*
X138191899Y-109338367D01*
X138180465Y-109300674D01*
X138176000Y-109255339D01*
X138176000Y-108168661D01*
X138180465Y-108123326D01*
X138191899Y-108085633D01*
X138210466Y-108050897D01*
X138235452Y-108020452D01*
X138265897Y-107995466D01*
X138300633Y-107976899D01*
X138338326Y-107965465D01*
X138383661Y-107961000D01*
X139220339Y-107961000D01*
X139265674Y-107965465D01*
X139265674Y-107965465D01*
G37*
G36*
X134965674Y-107965465D02*
G01*
X135003367Y-107976899D01*
X135038103Y-107995466D01*
X135068548Y-108020452D01*
X135093534Y-108050897D01*
X135112101Y-108085633D01*
X135123535Y-108123326D01*
X135128000Y-108168661D01*
X135128000Y-109255339D01*
X135123535Y-109300674D01*
X135112101Y-109338367D01*
X135093534Y-109373103D01*
X135068548Y-109403548D01*
X135038103Y-109428534D01*
X135003367Y-109447101D01*
X134965674Y-109458535D01*
X134920339Y-109463000D01*
X134083661Y-109463000D01*
X134038326Y-109458535D01*
X134000633Y-109447101D01*
X133965897Y-109428534D01*
X133935452Y-109403548D01*
X133910466Y-109373103D01*
X133891899Y-109338367D01*
X133880465Y-109300674D01*
X133876000Y-109255339D01*
X133876000Y-108168661D01*
X133880465Y-108123326D01*
X133891899Y-108085633D01*
X133910466Y-108050897D01*
X133935452Y-108020452D01*
X133965897Y-107995466D01*
X134000633Y-107976899D01*
X134038326Y-107965465D01*
X134083661Y-107961000D01*
X134920339Y-107961000D01*
X134965674Y-107965465D01*
X134965674Y-107965465D01*
G37*
G36*
X132915674Y-107965465D02*
G01*
X132953367Y-107976899D01*
X132988103Y-107995466D01*
X133018548Y-108020452D01*
X133043534Y-108050897D01*
X133062101Y-108085633D01*
X133073535Y-108123326D01*
X133078000Y-108168661D01*
X133078000Y-109255339D01*
X133073535Y-109300674D01*
X133062101Y-109338367D01*
X133043534Y-109373103D01*
X133018548Y-109403548D01*
X132988103Y-109428534D01*
X132953367Y-109447101D01*
X132915674Y-109458535D01*
X132870339Y-109463000D01*
X132033661Y-109463000D01*
X131988326Y-109458535D01*
X131950633Y-109447101D01*
X131915897Y-109428534D01*
X131885452Y-109403548D01*
X131860466Y-109373103D01*
X131841899Y-109338367D01*
X131830465Y-109300674D01*
X131826000Y-109255339D01*
X131826000Y-108168661D01*
X131830465Y-108123326D01*
X131841899Y-108085633D01*
X131860466Y-108050897D01*
X131885452Y-108020452D01*
X131915897Y-107995466D01*
X131950633Y-107976899D01*
X131988326Y-107965465D01*
X132033661Y-107961000D01*
X132870339Y-107961000D01*
X132915674Y-107965465D01*
X132915674Y-107965465D01*
G37*
G36*
X141315674Y-107965465D02*
G01*
X141353367Y-107976899D01*
X141388103Y-107995466D01*
X141418548Y-108020452D01*
X141443534Y-108050897D01*
X141462101Y-108085633D01*
X141473535Y-108123326D01*
X141478000Y-108168661D01*
X141478000Y-109255339D01*
X141473535Y-109300674D01*
X141462101Y-109338367D01*
X141443534Y-109373103D01*
X141418548Y-109403548D01*
X141388103Y-109428534D01*
X141353367Y-109447101D01*
X141315674Y-109458535D01*
X141270339Y-109463000D01*
X140433661Y-109463000D01*
X140388326Y-109458535D01*
X140350633Y-109447101D01*
X140315897Y-109428534D01*
X140285452Y-109403548D01*
X140260466Y-109373103D01*
X140241899Y-109338367D01*
X140230465Y-109300674D01*
X140226000Y-109255339D01*
X140226000Y-108168661D01*
X140230465Y-108123326D01*
X140241899Y-108085633D01*
X140260466Y-108050897D01*
X140285452Y-108020452D01*
X140315897Y-107995466D01*
X140350633Y-107976899D01*
X140388326Y-107965465D01*
X140433661Y-107961000D01*
X141270339Y-107961000D01*
X141315674Y-107965465D01*
X141315674Y-107965465D01*
G37*
G36*
X197739000Y-105508000D02*
G01*
X197688999Y-105508000D01*
X197664613Y-105510402D01*
X197641164Y-105517515D01*
X197619553Y-105529066D01*
X197600611Y-105544611D01*
X197585066Y-105563553D01*
X197573515Y-105585164D01*
X197566402Y-105608613D01*
X197564000Y-105632999D01*
X197564000Y-105818501D01*
X197566402Y-105842887D01*
X197573515Y-105866336D01*
X197585066Y-105887947D01*
X197600611Y-105906889D01*
X197619553Y-105922434D01*
X197641164Y-105933985D01*
X197664613Y-105941098D01*
X197688999Y-105943500D01*
X198526225Y-105943500D01*
X198541164Y-105951485D01*
X198564613Y-105958598D01*
X198588999Y-105961000D01*
X199963050Y-105961000D01*
X199964613Y-105961474D01*
X199976745Y-105963274D01*
X200060321Y-105971505D01*
X200197172Y-106013019D01*
X200197175Y-106013020D01*
X200323294Y-106080432D01*
X200433843Y-106171157D01*
X200524568Y-106281706D01*
X200591980Y-106407825D01*
X200591981Y-106407828D01*
X200633495Y-106544679D01*
X200647512Y-106687000D01*
X200633495Y-106829321D01*
X200618385Y-106879130D01*
X200591980Y-106966175D01*
X200524568Y-107092294D01*
X200433843Y-107202843D01*
X200323294Y-107293568D01*
X200197175Y-107360980D01*
X200197172Y-107360981D01*
X200060321Y-107402495D01*
X199976746Y-107410726D01*
X199965314Y-107413000D01*
X198588999Y-107413000D01*
X198564613Y-107415402D01*
X198541164Y-107422515D01*
X198519553Y-107434066D01*
X198500611Y-107449611D01*
X198485066Y-107468553D01*
X198473515Y-107490164D01*
X198466402Y-107513613D01*
X198464000Y-107537999D01*
X198464000Y-107870500D01*
X197590421Y-107870500D01*
X197584836Y-107867515D01*
X197561387Y-107860402D01*
X197537001Y-107858000D01*
X195962000Y-107858000D01*
X195962000Y-106550621D01*
X195959598Y-106526235D01*
X195956617Y-106514335D01*
X195950696Y-106494818D01*
X195939093Y-106377000D01*
X195950696Y-106259182D01*
X195956617Y-106239665D01*
X195961398Y-106215632D01*
X195962000Y-106203379D01*
X195962000Y-105705241D01*
X195965934Y-105700447D01*
X195977485Y-105678836D01*
X195984598Y-105655387D01*
X195987000Y-105631001D01*
X195987000Y-102406000D01*
X197739000Y-102406000D01*
X197739000Y-105508000D01*
X197739000Y-105508000D01*
G37*
G36*
X171552102Y-105784697D02*
G01*
X171626627Y-105792037D01*
X171796466Y-105843557D01*
X171952991Y-105927222D01*
X171980713Y-105949973D01*
X172090186Y-106039814D01*
X172173448Y-106141271D01*
X172202778Y-106177009D01*
X172286443Y-106333534D01*
X172337963Y-106503373D01*
X172355359Y-106680000D01*
X172337963Y-106856627D01*
X172286443Y-107026466D01*
X172202778Y-107182991D01*
X172173448Y-107218729D01*
X172090186Y-107320186D01*
X171989891Y-107402495D01*
X171952991Y-107432778D01*
X171796466Y-107516443D01*
X171626627Y-107567963D01*
X171560443Y-107574481D01*
X171494260Y-107581000D01*
X171405740Y-107581000D01*
X171339557Y-107574481D01*
X171273373Y-107567963D01*
X171103534Y-107516443D01*
X170947009Y-107432778D01*
X170910109Y-107402495D01*
X170809814Y-107320186D01*
X170726552Y-107218729D01*
X170697222Y-107182991D01*
X170613557Y-107026466D01*
X170562037Y-106856627D01*
X170544641Y-106680000D01*
X170562037Y-106503373D01*
X170613557Y-106333534D01*
X170697222Y-106177009D01*
X170726552Y-106141271D01*
X170809814Y-106039814D01*
X170919287Y-105949973D01*
X170947009Y-105927222D01*
X171103534Y-105843557D01*
X171273373Y-105792037D01*
X171347898Y-105784697D01*
X171405740Y-105779000D01*
X171494260Y-105779000D01*
X171552102Y-105784697D01*
X171552102Y-105784697D01*
G37*
G36*
X169811000Y-107581000D02*
G01*
X168009000Y-107581000D01*
X168009000Y-105779000D01*
X169811000Y-105779000D01*
X169811000Y-107581000D01*
X169811000Y-107581000D01*
G37*
G36*
X106583923Y-104909787D02*
G01*
X106741088Y-104974887D01*
X106882533Y-105069398D01*
X107002822Y-105189687D01*
X107097333Y-105331132D01*
X107162433Y-105488297D01*
X107195620Y-105655143D01*
X107195620Y-105825257D01*
X107162433Y-105992103D01*
X107097333Y-106149268D01*
X107002822Y-106290713D01*
X106882533Y-106411002D01*
X106741088Y-106505513D01*
X106583923Y-106570613D01*
X106417077Y-106603800D01*
X106246963Y-106603800D01*
X106080117Y-106570613D01*
X105922952Y-106505513D01*
X105781507Y-106411002D01*
X105661218Y-106290713D01*
X105566707Y-106149268D01*
X105501607Y-105992103D01*
X105468420Y-105825257D01*
X105468420Y-105655143D01*
X105501607Y-105488297D01*
X105566707Y-105331132D01*
X105661218Y-105189687D01*
X105781507Y-105069398D01*
X105922952Y-104974887D01*
X106080117Y-104909787D01*
X106246963Y-104876600D01*
X106417077Y-104876600D01*
X106583923Y-104909787D01*
X106583923Y-104909787D01*
G37*
G36*
X114584923Y-104909787D02*
G01*
X114742088Y-104974887D01*
X114883533Y-105069398D01*
X115003822Y-105189687D01*
X115098333Y-105331132D01*
X115163433Y-105488297D01*
X115196620Y-105655143D01*
X115196620Y-105825257D01*
X115163433Y-105992103D01*
X115098333Y-106149268D01*
X115003822Y-106290713D01*
X114883533Y-106411002D01*
X114742088Y-106505513D01*
X114584923Y-106570613D01*
X114418077Y-106603800D01*
X114247963Y-106603800D01*
X114081117Y-106570613D01*
X113923952Y-106505513D01*
X113782507Y-106411002D01*
X113662218Y-106290713D01*
X113567707Y-106149268D01*
X113502607Y-105992103D01*
X113469420Y-105825257D01*
X113469420Y-105655143D01*
X113502607Y-105488297D01*
X113567707Y-105331132D01*
X113662218Y-105189687D01*
X113782507Y-105069398D01*
X113923952Y-104974887D01*
X114081117Y-104909787D01*
X114247963Y-104876600D01*
X114418077Y-104876600D01*
X114584923Y-104909787D01*
X114584923Y-104909787D01*
G37*
G36*
X112585943Y-104909787D02*
G01*
X112743108Y-104974887D01*
X112884553Y-105069398D01*
X113004842Y-105189687D01*
X113099353Y-105331132D01*
X113164453Y-105488297D01*
X113197640Y-105655143D01*
X113197640Y-105825257D01*
X113164453Y-105992103D01*
X113099353Y-106149268D01*
X113004842Y-106290713D01*
X112884553Y-106411002D01*
X112743108Y-106505513D01*
X112585943Y-106570613D01*
X112419097Y-106603800D01*
X112248983Y-106603800D01*
X112082137Y-106570613D01*
X111924972Y-106505513D01*
X111783527Y-106411002D01*
X111663238Y-106290713D01*
X111568727Y-106149268D01*
X111503627Y-105992103D01*
X111470440Y-105825257D01*
X111470440Y-105655143D01*
X111503627Y-105488297D01*
X111568727Y-105331132D01*
X111663238Y-105189687D01*
X111783527Y-105069398D01*
X111924972Y-104974887D01*
X112082137Y-104909787D01*
X112248983Y-104876600D01*
X112419097Y-104876600D01*
X112585943Y-104909787D01*
X112585943Y-104909787D01*
G37*
G36*
X110584423Y-104909787D02*
G01*
X110741588Y-104974887D01*
X110883033Y-105069398D01*
X111003322Y-105189687D01*
X111097833Y-105331132D01*
X111162933Y-105488297D01*
X111196120Y-105655143D01*
X111196120Y-105825257D01*
X111162933Y-105992103D01*
X111097833Y-106149268D01*
X111003322Y-106290713D01*
X110883033Y-106411002D01*
X110741588Y-106505513D01*
X110584423Y-106570613D01*
X110417577Y-106603800D01*
X110247463Y-106603800D01*
X110080617Y-106570613D01*
X109923452Y-106505513D01*
X109782007Y-106411002D01*
X109661718Y-106290713D01*
X109567207Y-106149268D01*
X109502107Y-105992103D01*
X109468920Y-105825257D01*
X109468920Y-105655143D01*
X109502107Y-105488297D01*
X109567207Y-105331132D01*
X109661718Y-105189687D01*
X109782007Y-105069398D01*
X109923452Y-104974887D01*
X110080617Y-104909787D01*
X110247463Y-104876600D01*
X110417577Y-104876600D01*
X110584423Y-104909787D01*
X110584423Y-104909787D01*
G37*
G36*
X104584943Y-104909787D02*
G01*
X104742108Y-104974887D01*
X104883553Y-105069398D01*
X105003842Y-105189687D01*
X105098353Y-105331132D01*
X105163453Y-105488297D01*
X105196640Y-105655143D01*
X105196640Y-105825257D01*
X105163453Y-105992103D01*
X105098353Y-106149268D01*
X105003842Y-106290713D01*
X104883553Y-106411002D01*
X104742108Y-106505513D01*
X104584943Y-106570613D01*
X104418097Y-106603800D01*
X104247983Y-106603800D01*
X104081137Y-106570613D01*
X103923972Y-106505513D01*
X103782527Y-106411002D01*
X103662238Y-106290713D01*
X103567727Y-106149268D01*
X103502627Y-105992103D01*
X103469440Y-105825257D01*
X103469440Y-105655143D01*
X103502627Y-105488297D01*
X103567727Y-105331132D01*
X103662238Y-105189687D01*
X103782527Y-105069398D01*
X103923972Y-104974887D01*
X104081137Y-104909787D01*
X104247983Y-104876600D01*
X104418097Y-104876600D01*
X104584943Y-104909787D01*
X104584943Y-104909787D01*
G37*
G36*
X102585963Y-104909787D02*
G01*
X102743128Y-104974887D01*
X102884573Y-105069398D01*
X103004862Y-105189687D01*
X103099373Y-105331132D01*
X103164473Y-105488297D01*
X103197660Y-105655143D01*
X103197660Y-105825257D01*
X103164473Y-105992103D01*
X103099373Y-106149268D01*
X103004862Y-106290713D01*
X102884573Y-106411002D01*
X102743128Y-106505513D01*
X102585963Y-106570613D01*
X102419117Y-106603800D01*
X102249003Y-106603800D01*
X102082157Y-106570613D01*
X101924992Y-106505513D01*
X101783547Y-106411002D01*
X101663258Y-106290713D01*
X101568747Y-106149268D01*
X101503647Y-105992103D01*
X101470460Y-105825257D01*
X101470460Y-105655143D01*
X101503647Y-105488297D01*
X101568747Y-105331132D01*
X101663258Y-105189687D01*
X101783547Y-105069398D01*
X101924992Y-104974887D01*
X102082157Y-104909787D01*
X102249003Y-104876600D01*
X102419117Y-104876600D01*
X102585963Y-104909787D01*
X102585963Y-104909787D01*
G37*
G36*
X100584443Y-104909787D02*
G01*
X100741608Y-104974887D01*
X100883053Y-105069398D01*
X101003342Y-105189687D01*
X101097853Y-105331132D01*
X101162953Y-105488297D01*
X101196140Y-105655143D01*
X101196140Y-105825257D01*
X101162953Y-105992103D01*
X101097853Y-106149268D01*
X101003342Y-106290713D01*
X100883053Y-106411002D01*
X100741608Y-106505513D01*
X100584443Y-106570613D01*
X100417597Y-106603800D01*
X100247483Y-106603800D01*
X100080637Y-106570613D01*
X99923472Y-106505513D01*
X99782027Y-106411002D01*
X99661738Y-106290713D01*
X99567227Y-106149268D01*
X99502127Y-105992103D01*
X99468940Y-105825257D01*
X99468940Y-105655143D01*
X99502127Y-105488297D01*
X99567227Y-105331132D01*
X99661738Y-105189687D01*
X99782027Y-105069398D01*
X99923472Y-104974887D01*
X100080637Y-104909787D01*
X100247483Y-104876600D01*
X100417597Y-104876600D01*
X100584443Y-104909787D01*
X100584443Y-104909787D01*
G37*
G36*
X96583943Y-104909787D02*
G01*
X96741108Y-104974887D01*
X96882553Y-105069398D01*
X97002842Y-105189687D01*
X97097353Y-105331132D01*
X97162453Y-105488297D01*
X97195640Y-105655143D01*
X97195640Y-105825257D01*
X97162453Y-105992103D01*
X97097353Y-106149268D01*
X97002842Y-106290713D01*
X96882553Y-106411002D01*
X96741108Y-106505513D01*
X96583943Y-106570613D01*
X96417097Y-106603800D01*
X96246983Y-106603800D01*
X96080137Y-106570613D01*
X95922972Y-106505513D01*
X95781527Y-106411002D01*
X95661238Y-106290713D01*
X95566727Y-106149268D01*
X95501627Y-105992103D01*
X95468440Y-105825257D01*
X95468440Y-105655143D01*
X95501627Y-105488297D01*
X95566727Y-105331132D01*
X95661238Y-105189687D01*
X95781527Y-105069398D01*
X95922972Y-104974887D01*
X96080137Y-104909787D01*
X96246983Y-104876600D01*
X96417097Y-104876600D01*
X96583943Y-104909787D01*
X96583943Y-104909787D01*
G37*
G36*
X98585463Y-104909787D02*
G01*
X98742628Y-104974887D01*
X98884073Y-105069398D01*
X99004362Y-105189687D01*
X99098873Y-105331132D01*
X99163973Y-105488297D01*
X99197160Y-105655143D01*
X99197160Y-105825257D01*
X99163973Y-105992103D01*
X99098873Y-106149268D01*
X99004362Y-106290713D01*
X98884073Y-106411002D01*
X98742628Y-106505513D01*
X98585463Y-106570613D01*
X98418617Y-106603800D01*
X98248503Y-106603800D01*
X98081657Y-106570613D01*
X97924492Y-106505513D01*
X97783047Y-106411002D01*
X97662758Y-106290713D01*
X97568247Y-106149268D01*
X97503147Y-105992103D01*
X97469960Y-105825257D01*
X97469960Y-105655143D01*
X97503147Y-105488297D01*
X97568247Y-105331132D01*
X97662758Y-105189687D01*
X97783047Y-105069398D01*
X97924492Y-104974887D01*
X98081657Y-104909787D01*
X98248503Y-104876600D01*
X98418617Y-104876600D01*
X98585463Y-104909787D01*
X98585463Y-104909787D01*
G37*
G36*
X108585443Y-104909787D02*
G01*
X108742608Y-104974887D01*
X108884053Y-105069398D01*
X109004342Y-105189687D01*
X109098853Y-105331132D01*
X109163953Y-105488297D01*
X109197140Y-105655143D01*
X109197140Y-105825257D01*
X109163953Y-105992103D01*
X109098853Y-106149268D01*
X109004342Y-106290713D01*
X108884053Y-106411002D01*
X108742608Y-106505513D01*
X108585443Y-106570613D01*
X108418597Y-106603800D01*
X108248483Y-106603800D01*
X108081637Y-106570613D01*
X107924472Y-106505513D01*
X107783027Y-106411002D01*
X107662738Y-106290713D01*
X107568227Y-106149268D01*
X107503127Y-105992103D01*
X107469940Y-105825257D01*
X107469940Y-105655143D01*
X107503127Y-105488297D01*
X107568227Y-105331132D01*
X107662738Y-105189687D01*
X107783027Y-105069398D01*
X107924472Y-104974887D01*
X108081637Y-104909787D01*
X108248483Y-104876600D01*
X108418597Y-104876600D01*
X108585443Y-104909787D01*
X108585443Y-104909787D01*
G37*
G36*
X201314000Y-105683000D02*
G01*
X198712000Y-105683000D01*
X198712000Y-104151000D01*
X201314000Y-104151000D01*
X201314000Y-105683000D01*
X201314000Y-105683000D01*
G37*
G36*
X201314000Y-103763000D02*
G01*
X198712000Y-103763000D01*
X198712000Y-102231000D01*
X201314000Y-102231000D01*
X201314000Y-103763000D01*
X201314000Y-103763000D01*
G37*
G36*
X198464000Y-100356001D02*
G01*
X198466402Y-100380387D01*
X198473515Y-100403836D01*
X198485066Y-100425447D01*
X198500611Y-100444389D01*
X198519553Y-100459934D01*
X198541164Y-100471485D01*
X198564613Y-100478598D01*
X198588999Y-100481000D01*
X199917347Y-100481000D01*
X199919553Y-100482810D01*
X199941164Y-100494361D01*
X199964613Y-100501474D01*
X199976745Y-100503274D01*
X200060321Y-100511505D01*
X200197172Y-100553019D01*
X200197175Y-100553020D01*
X200323294Y-100620432D01*
X200433843Y-100711157D01*
X200524568Y-100821706D01*
X200591980Y-100947825D01*
X200591981Y-100947828D01*
X200633495Y-101084679D01*
X200647512Y-101227000D01*
X200633495Y-101369321D01*
X200618369Y-101419184D01*
X200591980Y-101506175D01*
X200524568Y-101632294D01*
X200433843Y-101742843D01*
X200323294Y-101833568D01*
X200197175Y-101900980D01*
X200197172Y-101900981D01*
X200060321Y-101942495D01*
X199989213Y-101949498D01*
X199953660Y-101953000D01*
X199532340Y-101953000D01*
X199425678Y-101942495D01*
X199412124Y-101938383D01*
X199388091Y-101933602D01*
X199375838Y-101933000D01*
X197668999Y-101933000D01*
X197644613Y-101935402D01*
X197621164Y-101942515D01*
X197599553Y-101954066D01*
X197580611Y-101969611D01*
X197565066Y-101988553D01*
X197553515Y-102010164D01*
X197546402Y-102033613D01*
X197544000Y-102057999D01*
X197544000Y-102108000D01*
X197149586Y-102108000D01*
X197125200Y-102110402D01*
X197113300Y-102113383D01*
X197060818Y-102129304D01*
X196972519Y-102138000D01*
X196513481Y-102138000D01*
X196425182Y-102129304D01*
X196372700Y-102113383D01*
X196348667Y-102108602D01*
X196336414Y-102108000D01*
X195942000Y-102108000D01*
X195942000Y-101572659D01*
X195941398Y-101560407D01*
X195939093Y-101537000D01*
X195941398Y-101513593D01*
X195942000Y-101501341D01*
X195942000Y-100006000D01*
X197537001Y-100006000D01*
X197561387Y-100003598D01*
X197584836Y-99996485D01*
X197590421Y-99993500D01*
X198464000Y-99993500D01*
X198464000Y-100356001D01*
X198464000Y-100356001D01*
G37*
G36*
X156320443Y-98165519D02*
G01*
X156386627Y-98172037D01*
X156556466Y-98223557D01*
X156712991Y-98307222D01*
X156748729Y-98336552D01*
X156850186Y-98419814D01*
X156933448Y-98521271D01*
X156962778Y-98557009D01*
X157046443Y-98713534D01*
X157097963Y-98883373D01*
X157115359Y-99060000D01*
X157097963Y-99236627D01*
X157046443Y-99406466D01*
X156962778Y-99562991D01*
X156933448Y-99598729D01*
X156850186Y-99700186D01*
X156748729Y-99783448D01*
X156712991Y-99812778D01*
X156556466Y-99896443D01*
X156386627Y-99947963D01*
X156320443Y-99954481D01*
X156254260Y-99961000D01*
X156165740Y-99961000D01*
X156099557Y-99954481D01*
X156033373Y-99947963D01*
X155863534Y-99896443D01*
X155707009Y-99812778D01*
X155671271Y-99783448D01*
X155569814Y-99700186D01*
X155486552Y-99598729D01*
X155457222Y-99562991D01*
X155373557Y-99406466D01*
X155322037Y-99236627D01*
X155304641Y-99060000D01*
X155322037Y-98883373D01*
X155373557Y-98713534D01*
X155457222Y-98557009D01*
X155486552Y-98521271D01*
X155569814Y-98419814D01*
X155671271Y-98336552D01*
X155707009Y-98307222D01*
X155863534Y-98223557D01*
X156033373Y-98172037D01*
X156099557Y-98165519D01*
X156165740Y-98159000D01*
X156254260Y-98159000D01*
X156320443Y-98165519D01*
X156320443Y-98165519D01*
G37*
G36*
X153780443Y-98165519D02*
G01*
X153846627Y-98172037D01*
X154016466Y-98223557D01*
X154172991Y-98307222D01*
X154208729Y-98336552D01*
X154310186Y-98419814D01*
X154393448Y-98521271D01*
X154422778Y-98557009D01*
X154506443Y-98713534D01*
X154557963Y-98883373D01*
X154575359Y-99060000D01*
X154557963Y-99236627D01*
X154506443Y-99406466D01*
X154422778Y-99562991D01*
X154393448Y-99598729D01*
X154310186Y-99700186D01*
X154208729Y-99783448D01*
X154172991Y-99812778D01*
X154016466Y-99896443D01*
X153846627Y-99947963D01*
X153780443Y-99954481D01*
X153714260Y-99961000D01*
X153625740Y-99961000D01*
X153559557Y-99954481D01*
X153493373Y-99947963D01*
X153323534Y-99896443D01*
X153167009Y-99812778D01*
X153131271Y-99783448D01*
X153029814Y-99700186D01*
X152946552Y-99598729D01*
X152917222Y-99562991D01*
X152833557Y-99406466D01*
X152782037Y-99236627D01*
X152764641Y-99060000D01*
X152782037Y-98883373D01*
X152833557Y-98713534D01*
X152917222Y-98557009D01*
X152946552Y-98521271D01*
X153029814Y-98419814D01*
X153131271Y-98336552D01*
X153167009Y-98307222D01*
X153323534Y-98223557D01*
X153493373Y-98172037D01*
X153559557Y-98165519D01*
X153625740Y-98159000D01*
X153714260Y-98159000D01*
X153780443Y-98165519D01*
X153780443Y-98165519D01*
G37*
G36*
X146160443Y-98165519D02*
G01*
X146226627Y-98172037D01*
X146396466Y-98223557D01*
X146552991Y-98307222D01*
X146588729Y-98336552D01*
X146690186Y-98419814D01*
X146773448Y-98521271D01*
X146802778Y-98557009D01*
X146886443Y-98713534D01*
X146937963Y-98883373D01*
X146955359Y-99060000D01*
X146937963Y-99236627D01*
X146886443Y-99406466D01*
X146802778Y-99562991D01*
X146773448Y-99598729D01*
X146690186Y-99700186D01*
X146588729Y-99783448D01*
X146552991Y-99812778D01*
X146396466Y-99896443D01*
X146226627Y-99947963D01*
X146160443Y-99954481D01*
X146094260Y-99961000D01*
X146005740Y-99961000D01*
X145939557Y-99954481D01*
X145873373Y-99947963D01*
X145703534Y-99896443D01*
X145547009Y-99812778D01*
X145511271Y-99783448D01*
X145409814Y-99700186D01*
X145326552Y-99598729D01*
X145297222Y-99562991D01*
X145213557Y-99406466D01*
X145162037Y-99236627D01*
X145144641Y-99060000D01*
X145162037Y-98883373D01*
X145213557Y-98713534D01*
X145297222Y-98557009D01*
X145326552Y-98521271D01*
X145409814Y-98419814D01*
X145511271Y-98336552D01*
X145547009Y-98307222D01*
X145703534Y-98223557D01*
X145873373Y-98172037D01*
X145939557Y-98165519D01*
X146005740Y-98159000D01*
X146094260Y-98159000D01*
X146160443Y-98165519D01*
X146160443Y-98165519D01*
G37*
G36*
X151240443Y-98165519D02*
G01*
X151306627Y-98172037D01*
X151476466Y-98223557D01*
X151632991Y-98307222D01*
X151668729Y-98336552D01*
X151770186Y-98419814D01*
X151853448Y-98521271D01*
X151882778Y-98557009D01*
X151966443Y-98713534D01*
X152017963Y-98883373D01*
X152035359Y-99060000D01*
X152017963Y-99236627D01*
X151966443Y-99406466D01*
X151882778Y-99562991D01*
X151853448Y-99598729D01*
X151770186Y-99700186D01*
X151668729Y-99783448D01*
X151632991Y-99812778D01*
X151476466Y-99896443D01*
X151306627Y-99947963D01*
X151240443Y-99954481D01*
X151174260Y-99961000D01*
X151085740Y-99961000D01*
X151019557Y-99954481D01*
X150953373Y-99947963D01*
X150783534Y-99896443D01*
X150627009Y-99812778D01*
X150591271Y-99783448D01*
X150489814Y-99700186D01*
X150406552Y-99598729D01*
X150377222Y-99562991D01*
X150293557Y-99406466D01*
X150242037Y-99236627D01*
X150224641Y-99060000D01*
X150242037Y-98883373D01*
X150293557Y-98713534D01*
X150377222Y-98557009D01*
X150406552Y-98521271D01*
X150489814Y-98419814D01*
X150591271Y-98336552D01*
X150627009Y-98307222D01*
X150783534Y-98223557D01*
X150953373Y-98172037D01*
X151019557Y-98165519D01*
X151085740Y-98159000D01*
X151174260Y-98159000D01*
X151240443Y-98165519D01*
X151240443Y-98165519D01*
G37*
G36*
X158860443Y-98165519D02*
G01*
X158926627Y-98172037D01*
X159096466Y-98223557D01*
X159252991Y-98307222D01*
X159288729Y-98336552D01*
X159390186Y-98419814D01*
X159473448Y-98521271D01*
X159502778Y-98557009D01*
X159586443Y-98713534D01*
X159637963Y-98883373D01*
X159655359Y-99060000D01*
X159637963Y-99236627D01*
X159586443Y-99406466D01*
X159502778Y-99562991D01*
X159473448Y-99598729D01*
X159390186Y-99700186D01*
X159288729Y-99783448D01*
X159252991Y-99812778D01*
X159096466Y-99896443D01*
X158926627Y-99947963D01*
X158860443Y-99954481D01*
X158794260Y-99961000D01*
X158705740Y-99961000D01*
X158639557Y-99954481D01*
X158573373Y-99947963D01*
X158403534Y-99896443D01*
X158247009Y-99812778D01*
X158211271Y-99783448D01*
X158109814Y-99700186D01*
X158026552Y-99598729D01*
X157997222Y-99562991D01*
X157913557Y-99406466D01*
X157862037Y-99236627D01*
X157844641Y-99060000D01*
X157862037Y-98883373D01*
X157913557Y-98713534D01*
X157997222Y-98557009D01*
X158026552Y-98521271D01*
X158109814Y-98419814D01*
X158211271Y-98336552D01*
X158247009Y-98307222D01*
X158403534Y-98223557D01*
X158573373Y-98172037D01*
X158639557Y-98165519D01*
X158705740Y-98159000D01*
X158794260Y-98159000D01*
X158860443Y-98165519D01*
X158860443Y-98165519D01*
G37*
G36*
X148700443Y-98165519D02*
G01*
X148766627Y-98172037D01*
X148936466Y-98223557D01*
X149092991Y-98307222D01*
X149128729Y-98336552D01*
X149230186Y-98419814D01*
X149313448Y-98521271D01*
X149342778Y-98557009D01*
X149426443Y-98713534D01*
X149477963Y-98883373D01*
X149495359Y-99060000D01*
X149477963Y-99236627D01*
X149426443Y-99406466D01*
X149342778Y-99562991D01*
X149313448Y-99598729D01*
X149230186Y-99700186D01*
X149128729Y-99783448D01*
X149092991Y-99812778D01*
X148936466Y-99896443D01*
X148766627Y-99947963D01*
X148700443Y-99954481D01*
X148634260Y-99961000D01*
X148545740Y-99961000D01*
X148479557Y-99954481D01*
X148413373Y-99947963D01*
X148243534Y-99896443D01*
X148087009Y-99812778D01*
X148051271Y-99783448D01*
X147949814Y-99700186D01*
X147866552Y-99598729D01*
X147837222Y-99562991D01*
X147753557Y-99406466D01*
X147702037Y-99236627D01*
X147684641Y-99060000D01*
X147702037Y-98883373D01*
X147753557Y-98713534D01*
X147837222Y-98557009D01*
X147866552Y-98521271D01*
X147949814Y-98419814D01*
X148051271Y-98336552D01*
X148087009Y-98307222D01*
X148243534Y-98223557D01*
X148413373Y-98172037D01*
X148479557Y-98165519D01*
X148545740Y-98159000D01*
X148634260Y-98159000D01*
X148700443Y-98165519D01*
X148700443Y-98165519D01*
G37*
G36*
X141871000Y-99961000D02*
G01*
X140069000Y-99961000D01*
X140069000Y-98159000D01*
X141871000Y-98159000D01*
X141871000Y-99961000D01*
X141871000Y-99961000D01*
G37*
G36*
X143620443Y-98165519D02*
G01*
X143686627Y-98172037D01*
X143856466Y-98223557D01*
X144012991Y-98307222D01*
X144048729Y-98336552D01*
X144150186Y-98419814D01*
X144233448Y-98521271D01*
X144262778Y-98557009D01*
X144346443Y-98713534D01*
X144397963Y-98883373D01*
X144415359Y-99060000D01*
X144397963Y-99236627D01*
X144346443Y-99406466D01*
X144262778Y-99562991D01*
X144233448Y-99598729D01*
X144150186Y-99700186D01*
X144048729Y-99783448D01*
X144012991Y-99812778D01*
X143856466Y-99896443D01*
X143686627Y-99947963D01*
X143620443Y-99954481D01*
X143554260Y-99961000D01*
X143465740Y-99961000D01*
X143399557Y-99954481D01*
X143333373Y-99947963D01*
X143163534Y-99896443D01*
X143007009Y-99812778D01*
X142971271Y-99783448D01*
X142869814Y-99700186D01*
X142786552Y-99598729D01*
X142757222Y-99562991D01*
X142673557Y-99406466D01*
X142622037Y-99236627D01*
X142604641Y-99060000D01*
X142622037Y-98883373D01*
X142673557Y-98713534D01*
X142757222Y-98557009D01*
X142786552Y-98521271D01*
X142869814Y-98419814D01*
X142971271Y-98336552D01*
X143007009Y-98307222D01*
X143163534Y-98223557D01*
X143333373Y-98172037D01*
X143399557Y-98165519D01*
X143465740Y-98159000D01*
X143554260Y-98159000D01*
X143620443Y-98165519D01*
X143620443Y-98165519D01*
G37*
G36*
X129171000Y-96151000D02*
G01*
X127369000Y-96151000D01*
X127369000Y-94349000D01*
X129171000Y-94349000D01*
X129171000Y-96151000D01*
X129171000Y-96151000D01*
G37*
G36*
X125840442Y-94355518D02*
G01*
X125906627Y-94362037D01*
X126076466Y-94413557D01*
X126232991Y-94497222D01*
X126268729Y-94526552D01*
X126370186Y-94609814D01*
X126453448Y-94711271D01*
X126482778Y-94747009D01*
X126566443Y-94903534D01*
X126617963Y-95073373D01*
X126635359Y-95250000D01*
X126617963Y-95426627D01*
X126566443Y-95596466D01*
X126482778Y-95752991D01*
X126453448Y-95788729D01*
X126370186Y-95890186D01*
X126268729Y-95973448D01*
X126232991Y-96002778D01*
X126076466Y-96086443D01*
X125906627Y-96137963D01*
X125840443Y-96144481D01*
X125774260Y-96151000D01*
X125685740Y-96151000D01*
X125619558Y-96144482D01*
X125553373Y-96137963D01*
X125383534Y-96086443D01*
X125227009Y-96002778D01*
X125191271Y-95973448D01*
X125089814Y-95890186D01*
X125006552Y-95788729D01*
X124977222Y-95752991D01*
X124893557Y-95596466D01*
X124842037Y-95426627D01*
X124824641Y-95250000D01*
X124842037Y-95073373D01*
X124893557Y-94903534D01*
X124977222Y-94747009D01*
X125006552Y-94711271D01*
X125089814Y-94609814D01*
X125191271Y-94526552D01*
X125227009Y-94497222D01*
X125383534Y-94413557D01*
X125553373Y-94362037D01*
X125619557Y-94355519D01*
X125685740Y-94349000D01*
X125774260Y-94349000D01*
X125840442Y-94355518D01*
X125840442Y-94355518D01*
G37*
G36*
X125840442Y-91815518D02*
G01*
X125906627Y-91822037D01*
X126076466Y-91873557D01*
X126232991Y-91957222D01*
X126268729Y-91986552D01*
X126370186Y-92069814D01*
X126453448Y-92171271D01*
X126482778Y-92207009D01*
X126566443Y-92363534D01*
X126617963Y-92533373D01*
X126635359Y-92710000D01*
X126617963Y-92886627D01*
X126566443Y-93056466D01*
X126482778Y-93212991D01*
X126453448Y-93248729D01*
X126370186Y-93350186D01*
X126268729Y-93433448D01*
X126232991Y-93462778D01*
X126076466Y-93546443D01*
X125906627Y-93597963D01*
X125840442Y-93604482D01*
X125774260Y-93611000D01*
X125685740Y-93611000D01*
X125619557Y-93604481D01*
X125553373Y-93597963D01*
X125383534Y-93546443D01*
X125227009Y-93462778D01*
X125191271Y-93433448D01*
X125089814Y-93350186D01*
X125006552Y-93248729D01*
X124977222Y-93212991D01*
X124893557Y-93056466D01*
X124842037Y-92886627D01*
X124824641Y-92710000D01*
X124842037Y-92533373D01*
X124893557Y-92363534D01*
X124977222Y-92207009D01*
X125006552Y-92171271D01*
X125089814Y-92069814D01*
X125191271Y-91986552D01*
X125227009Y-91957222D01*
X125383534Y-91873557D01*
X125553373Y-91822037D01*
X125619558Y-91815518D01*
X125685740Y-91809000D01*
X125774260Y-91809000D01*
X125840442Y-91815518D01*
X125840442Y-91815518D01*
G37*
G36*
X128380442Y-91815518D02*
G01*
X128446627Y-91822037D01*
X128616466Y-91873557D01*
X128772991Y-91957222D01*
X128808729Y-91986552D01*
X128910186Y-92069814D01*
X128993448Y-92171271D01*
X129022778Y-92207009D01*
X129106443Y-92363534D01*
X129157963Y-92533373D01*
X129175359Y-92710000D01*
X129157963Y-92886627D01*
X129106443Y-93056466D01*
X129022778Y-93212991D01*
X128993448Y-93248729D01*
X128910186Y-93350186D01*
X128808729Y-93433448D01*
X128772991Y-93462778D01*
X128616466Y-93546443D01*
X128446627Y-93597963D01*
X128380442Y-93604482D01*
X128314260Y-93611000D01*
X128225740Y-93611000D01*
X128159557Y-93604481D01*
X128093373Y-93597963D01*
X127923534Y-93546443D01*
X127767009Y-93462778D01*
X127731271Y-93433448D01*
X127629814Y-93350186D01*
X127546552Y-93248729D01*
X127517222Y-93212991D01*
X127433557Y-93056466D01*
X127382037Y-92886627D01*
X127364641Y-92710000D01*
X127382037Y-92533373D01*
X127433557Y-92363534D01*
X127517222Y-92207009D01*
X127546552Y-92171271D01*
X127629814Y-92069814D01*
X127731271Y-91986552D01*
X127767009Y-91957222D01*
X127923534Y-91873557D01*
X128093373Y-91822037D01*
X128159558Y-91815518D01*
X128225740Y-91809000D01*
X128314260Y-91809000D01*
X128380442Y-91815518D01*
X128380442Y-91815518D01*
G37*
G36*
X193657098Y-87844033D02*
G01*
X194121350Y-88036332D01*
X194121352Y-88036333D01*
X194539168Y-88315509D01*
X194894491Y-88670832D01*
X195173667Y-89088648D01*
X195173668Y-89088650D01*
X195365967Y-89552902D01*
X195464000Y-90045747D01*
X195464000Y-90548253D01*
X195365967Y-91041098D01*
X195173668Y-91505350D01*
X195173667Y-91505352D01*
X194894491Y-91923168D01*
X194539168Y-92278491D01*
X194121352Y-92557667D01*
X194121351Y-92557668D01*
X194121350Y-92557668D01*
X193657098Y-92749967D01*
X193164253Y-92848000D01*
X192661747Y-92848000D01*
X192168902Y-92749967D01*
X191704650Y-92557668D01*
X191704649Y-92557668D01*
X191704648Y-92557667D01*
X191286832Y-92278491D01*
X190931509Y-91923168D01*
X190652333Y-91505352D01*
X190652332Y-91505350D01*
X190460033Y-91041098D01*
X190362000Y-90548253D01*
X190362000Y-90045747D01*
X190460033Y-89552902D01*
X190652332Y-89088650D01*
X190652333Y-89088648D01*
X190931509Y-88670832D01*
X191286832Y-88315509D01*
X191704648Y-88036333D01*
X191704650Y-88036332D01*
X192168902Y-87844033D01*
X192661747Y-87746000D01*
X193164253Y-87746000D01*
X193657098Y-87844033D01*
X193657098Y-87844033D01*
G37*
G36*
X128380443Y-89275520D02*
G01*
X128446627Y-89282038D01*
X128616466Y-89333558D01*
X128772991Y-89417223D01*
X128808729Y-89446553D01*
X128910186Y-89529815D01*
X128993448Y-89631272D01*
X129022778Y-89667010D01*
X129106443Y-89823535D01*
X129157963Y-89993374D01*
X129175359Y-90170001D01*
X129157963Y-90346628D01*
X129106443Y-90516467D01*
X129022778Y-90672992D01*
X128993448Y-90708730D01*
X128910186Y-90810187D01*
X128808729Y-90893449D01*
X128772991Y-90922779D01*
X128616466Y-91006444D01*
X128446627Y-91057964D01*
X128380442Y-91064483D01*
X128314260Y-91071001D01*
X128225740Y-91071001D01*
X128159558Y-91064483D01*
X128093373Y-91057964D01*
X127923534Y-91006444D01*
X127767009Y-90922779D01*
X127731271Y-90893449D01*
X127629814Y-90810187D01*
X127546552Y-90708730D01*
X127517222Y-90672992D01*
X127433557Y-90516467D01*
X127382037Y-90346628D01*
X127364641Y-90170001D01*
X127382037Y-89993374D01*
X127433557Y-89823535D01*
X127517222Y-89667010D01*
X127546552Y-89631272D01*
X127629814Y-89529815D01*
X127731271Y-89446553D01*
X127767009Y-89417223D01*
X127923534Y-89333558D01*
X128093373Y-89282038D01*
X128159557Y-89275520D01*
X128225740Y-89269001D01*
X128314260Y-89269001D01*
X128380443Y-89275520D01*
X128380443Y-89275520D01*
G37*
G36*
X125840443Y-89275519D02*
G01*
X125906627Y-89282037D01*
X126076466Y-89333557D01*
X126232991Y-89417222D01*
X126268729Y-89446552D01*
X126370186Y-89529814D01*
X126453448Y-89631271D01*
X126482778Y-89667009D01*
X126566443Y-89823534D01*
X126617963Y-89993373D01*
X126635359Y-90170000D01*
X126617963Y-90346627D01*
X126566443Y-90516466D01*
X126482778Y-90672991D01*
X126482777Y-90672992D01*
X126370186Y-90810186D01*
X126268729Y-90893448D01*
X126232991Y-90922778D01*
X126076466Y-91006443D01*
X125906627Y-91057963D01*
X125840442Y-91064482D01*
X125774260Y-91071000D01*
X125685740Y-91071000D01*
X125619558Y-91064482D01*
X125553373Y-91057963D01*
X125383534Y-91006443D01*
X125227009Y-90922778D01*
X125191271Y-90893448D01*
X125089814Y-90810186D01*
X124977223Y-90672992D01*
X124977222Y-90672991D01*
X124893557Y-90516466D01*
X124842037Y-90346627D01*
X124824641Y-90170000D01*
X124842037Y-89993373D01*
X124893557Y-89823534D01*
X124977222Y-89667009D01*
X125006552Y-89631271D01*
X125089814Y-89529814D01*
X125191271Y-89446552D01*
X125227009Y-89417222D01*
X125383534Y-89333557D01*
X125553373Y-89282037D01*
X125619557Y-89275519D01*
X125685740Y-89269000D01*
X125774260Y-89269000D01*
X125840443Y-89275519D01*
X125840443Y-89275519D01*
G37*
G36*
X125840442Y-86735518D02*
G01*
X125906627Y-86742037D01*
X126076466Y-86793557D01*
X126232991Y-86877222D01*
X126268729Y-86906552D01*
X126370186Y-86989814D01*
X126453448Y-87091271D01*
X126482778Y-87127009D01*
X126566443Y-87283534D01*
X126617963Y-87453373D01*
X126635359Y-87630000D01*
X126617963Y-87806627D01*
X126566443Y-87976466D01*
X126482778Y-88132991D01*
X126453448Y-88168729D01*
X126370186Y-88270186D01*
X126268729Y-88353448D01*
X126232991Y-88382778D01*
X126076466Y-88466443D01*
X125906627Y-88517963D01*
X125840442Y-88524482D01*
X125774260Y-88531000D01*
X125685740Y-88531000D01*
X125619558Y-88524482D01*
X125553373Y-88517963D01*
X125383534Y-88466443D01*
X125227009Y-88382778D01*
X125191271Y-88353448D01*
X125089814Y-88270186D01*
X125006552Y-88168729D01*
X124977222Y-88132991D01*
X124893557Y-87976466D01*
X124842037Y-87806627D01*
X124824641Y-87630000D01*
X124842037Y-87453373D01*
X124893557Y-87283534D01*
X124977222Y-87127009D01*
X125006552Y-87091271D01*
X125089814Y-86989814D01*
X125191271Y-86906552D01*
X125227009Y-86877222D01*
X125383534Y-86793557D01*
X125553373Y-86742037D01*
X125619558Y-86735518D01*
X125685740Y-86729000D01*
X125774260Y-86729000D01*
X125840442Y-86735518D01*
X125840442Y-86735518D01*
G37*
G36*
X128380442Y-86735518D02*
G01*
X128446627Y-86742037D01*
X128616466Y-86793557D01*
X128772991Y-86877222D01*
X128808729Y-86906552D01*
X128910186Y-86989814D01*
X128993448Y-87091271D01*
X129022778Y-87127009D01*
X129106443Y-87283534D01*
X129157963Y-87453373D01*
X129175359Y-87630000D01*
X129157963Y-87806627D01*
X129106443Y-87976466D01*
X129022778Y-88132991D01*
X128993448Y-88168729D01*
X128910186Y-88270186D01*
X128808729Y-88353448D01*
X128772991Y-88382778D01*
X128616466Y-88466443D01*
X128446627Y-88517963D01*
X128380442Y-88524482D01*
X128314260Y-88531000D01*
X128225740Y-88531000D01*
X128159558Y-88524482D01*
X128093373Y-88517963D01*
X127923534Y-88466443D01*
X127767009Y-88382778D01*
X127731271Y-88353448D01*
X127629814Y-88270186D01*
X127546552Y-88168729D01*
X127517222Y-88132991D01*
X127433557Y-87976466D01*
X127382037Y-87806627D01*
X127364641Y-87630000D01*
X127382037Y-87453373D01*
X127433557Y-87283534D01*
X127517222Y-87127009D01*
X127546552Y-87091271D01*
X127629814Y-86989814D01*
X127731271Y-86906552D01*
X127767009Y-86877222D01*
X127923534Y-86793557D01*
X128093373Y-86742037D01*
X128159558Y-86735518D01*
X128225740Y-86729000D01*
X128314260Y-86729000D01*
X128380442Y-86735518D01*
X128380442Y-86735518D01*
G37*
G36*
X125840442Y-84195518D02*
G01*
X125906627Y-84202037D01*
X126076466Y-84253557D01*
X126232991Y-84337222D01*
X126268729Y-84366552D01*
X126370186Y-84449814D01*
X126453448Y-84551271D01*
X126482778Y-84587009D01*
X126566443Y-84743534D01*
X126617963Y-84913373D01*
X126635359Y-85090000D01*
X126617963Y-85266627D01*
X126566443Y-85436466D01*
X126482778Y-85592991D01*
X126453448Y-85628729D01*
X126370186Y-85730186D01*
X126268729Y-85813448D01*
X126232991Y-85842778D01*
X126076466Y-85926443D01*
X125906627Y-85977963D01*
X125840442Y-85984482D01*
X125774260Y-85991000D01*
X125685740Y-85991000D01*
X125619558Y-85984482D01*
X125553373Y-85977963D01*
X125383534Y-85926443D01*
X125227009Y-85842778D01*
X125191271Y-85813448D01*
X125089814Y-85730186D01*
X125006552Y-85628729D01*
X124977222Y-85592991D01*
X124893557Y-85436466D01*
X124842037Y-85266627D01*
X124824641Y-85090000D01*
X124842037Y-84913373D01*
X124893557Y-84743534D01*
X124977222Y-84587009D01*
X125006552Y-84551271D01*
X125089814Y-84449814D01*
X125191271Y-84366552D01*
X125227009Y-84337222D01*
X125383534Y-84253557D01*
X125553373Y-84202037D01*
X125619558Y-84195518D01*
X125685740Y-84189000D01*
X125774260Y-84189000D01*
X125840442Y-84195518D01*
X125840442Y-84195518D01*
G37*
G36*
X128380442Y-84195518D02*
G01*
X128446627Y-84202037D01*
X128616466Y-84253557D01*
X128772991Y-84337222D01*
X128808729Y-84366552D01*
X128910186Y-84449814D01*
X128993448Y-84551271D01*
X129022778Y-84587009D01*
X129106443Y-84743534D01*
X129157963Y-84913373D01*
X129175359Y-85090000D01*
X129157963Y-85266627D01*
X129106443Y-85436466D01*
X129022778Y-85592991D01*
X128993448Y-85628729D01*
X128910186Y-85730186D01*
X128808729Y-85813448D01*
X128772991Y-85842778D01*
X128616466Y-85926443D01*
X128446627Y-85977963D01*
X128380442Y-85984482D01*
X128314260Y-85991000D01*
X128225740Y-85991000D01*
X128159558Y-85984482D01*
X128093373Y-85977963D01*
X127923534Y-85926443D01*
X127767009Y-85842778D01*
X127731271Y-85813448D01*
X127629814Y-85730186D01*
X127546552Y-85628729D01*
X127517222Y-85592991D01*
X127433557Y-85436466D01*
X127382037Y-85266627D01*
X127364641Y-85090000D01*
X127382037Y-84913373D01*
X127433557Y-84743534D01*
X127517222Y-84587009D01*
X127546552Y-84551271D01*
X127629814Y-84449814D01*
X127731271Y-84366552D01*
X127767009Y-84337222D01*
X127923534Y-84253557D01*
X128093373Y-84202037D01*
X128159558Y-84195518D01*
X128225740Y-84189000D01*
X128314260Y-84189000D01*
X128380442Y-84195518D01*
X128380442Y-84195518D01*
G37*
G36*
X193530098Y-80224033D02*
G01*
X193994350Y-80416332D01*
X193994352Y-80416333D01*
X194412168Y-80695509D01*
X194767491Y-81050832D01*
X195046667Y-81468648D01*
X195046668Y-81468650D01*
X195238967Y-81932902D01*
X195337000Y-82425747D01*
X195337000Y-82928253D01*
X195238967Y-83421098D01*
X195140531Y-83658743D01*
X195046667Y-83885352D01*
X194767491Y-84303168D01*
X194412168Y-84658491D01*
X193994352Y-84937667D01*
X193994351Y-84937668D01*
X193994350Y-84937668D01*
X193530098Y-85129967D01*
X193037253Y-85228000D01*
X192534747Y-85228000D01*
X192041902Y-85129967D01*
X191577650Y-84937668D01*
X191577649Y-84937668D01*
X191577648Y-84937667D01*
X191159832Y-84658491D01*
X190804509Y-84303168D01*
X190525333Y-83885352D01*
X190431469Y-83658743D01*
X190333033Y-83421098D01*
X190235000Y-82928253D01*
X190235000Y-82425747D01*
X190333033Y-81932902D01*
X190525332Y-81468650D01*
X190525333Y-81468648D01*
X190804509Y-81050832D01*
X191159832Y-80695509D01*
X191577648Y-80416333D01*
X191577650Y-80416332D01*
X192041902Y-80224033D01*
X192534747Y-80126000D01*
X193037253Y-80126000D01*
X193530098Y-80224033D01*
X193530098Y-80224033D01*
G37*
G36*
X96583943Y-82913387D02*
G01*
X96741108Y-82978487D01*
X96882553Y-83072998D01*
X97002842Y-83193287D01*
X97097353Y-83334732D01*
X97162453Y-83491897D01*
X97195640Y-83658743D01*
X97195640Y-83828857D01*
X97162453Y-83995703D01*
X97097353Y-84152868D01*
X97002842Y-84294313D01*
X96882553Y-84414602D01*
X96741108Y-84509113D01*
X96583943Y-84574213D01*
X96417097Y-84607400D01*
X96246983Y-84607400D01*
X96080137Y-84574213D01*
X95922972Y-84509113D01*
X95781527Y-84414602D01*
X95661238Y-84294313D01*
X95566727Y-84152868D01*
X95501627Y-83995703D01*
X95468440Y-83828857D01*
X95468440Y-83658743D01*
X95501627Y-83491897D01*
X95566727Y-83334732D01*
X95661238Y-83193287D01*
X95781527Y-83072998D01*
X95922972Y-82978487D01*
X96080137Y-82913387D01*
X96246983Y-82880200D01*
X96417097Y-82880200D01*
X96583943Y-82913387D01*
X96583943Y-82913387D01*
G37*
G36*
X114584923Y-82913387D02*
G01*
X114742088Y-82978487D01*
X114883533Y-83072998D01*
X115003822Y-83193287D01*
X115098333Y-83334732D01*
X115163433Y-83491897D01*
X115196620Y-83658743D01*
X115196620Y-83828857D01*
X115163433Y-83995703D01*
X115098333Y-84152868D01*
X115003822Y-84294313D01*
X114883533Y-84414602D01*
X114742088Y-84509113D01*
X114584923Y-84574213D01*
X114418077Y-84607400D01*
X114247963Y-84607400D01*
X114081117Y-84574213D01*
X113923952Y-84509113D01*
X113782507Y-84414602D01*
X113662218Y-84294313D01*
X113567707Y-84152868D01*
X113502607Y-83995703D01*
X113469420Y-83828857D01*
X113469420Y-83658743D01*
X113502607Y-83491897D01*
X113567707Y-83334732D01*
X113662218Y-83193287D01*
X113782507Y-83072998D01*
X113923952Y-82978487D01*
X114081117Y-82913387D01*
X114247963Y-82880200D01*
X114418077Y-82880200D01*
X114584923Y-82913387D01*
X114584923Y-82913387D01*
G37*
G36*
X112585943Y-82913387D02*
G01*
X112743108Y-82978487D01*
X112884553Y-83072998D01*
X113004842Y-83193287D01*
X113099353Y-83334732D01*
X113164453Y-83491897D01*
X113197640Y-83658743D01*
X113197640Y-83828857D01*
X113164453Y-83995703D01*
X113099353Y-84152868D01*
X113004842Y-84294313D01*
X112884553Y-84414602D01*
X112743108Y-84509113D01*
X112585943Y-84574213D01*
X112419097Y-84607400D01*
X112248983Y-84607400D01*
X112082137Y-84574213D01*
X111924972Y-84509113D01*
X111783527Y-84414602D01*
X111663238Y-84294313D01*
X111568727Y-84152868D01*
X111503627Y-83995703D01*
X111470440Y-83828857D01*
X111470440Y-83658743D01*
X111503627Y-83491897D01*
X111568727Y-83334732D01*
X111663238Y-83193287D01*
X111783527Y-83072998D01*
X111924972Y-82978487D01*
X112082137Y-82913387D01*
X112248983Y-82880200D01*
X112419097Y-82880200D01*
X112585943Y-82913387D01*
X112585943Y-82913387D01*
G37*
G36*
X108585443Y-82913387D02*
G01*
X108742608Y-82978487D01*
X108884053Y-83072998D01*
X109004342Y-83193287D01*
X109098853Y-83334732D01*
X109163953Y-83491897D01*
X109197140Y-83658743D01*
X109197140Y-83828857D01*
X109163953Y-83995703D01*
X109098853Y-84152868D01*
X109004342Y-84294313D01*
X108884053Y-84414602D01*
X108742608Y-84509113D01*
X108585443Y-84574213D01*
X108418597Y-84607400D01*
X108248483Y-84607400D01*
X108081637Y-84574213D01*
X107924472Y-84509113D01*
X107783027Y-84414602D01*
X107662738Y-84294313D01*
X107568227Y-84152868D01*
X107503127Y-83995703D01*
X107469940Y-83828857D01*
X107469940Y-83658743D01*
X107503127Y-83491897D01*
X107568227Y-83334732D01*
X107662738Y-83193287D01*
X107783027Y-83072998D01*
X107924472Y-82978487D01*
X108081637Y-82913387D01*
X108248483Y-82880200D01*
X108418597Y-82880200D01*
X108585443Y-82913387D01*
X108585443Y-82913387D01*
G37*
G36*
X106583923Y-82913387D02*
G01*
X106741088Y-82978487D01*
X106882533Y-83072998D01*
X107002822Y-83193287D01*
X107097333Y-83334732D01*
X107162433Y-83491897D01*
X107195620Y-83658743D01*
X107195620Y-83828857D01*
X107162433Y-83995703D01*
X107097333Y-84152868D01*
X107002822Y-84294313D01*
X106882533Y-84414602D01*
X106741088Y-84509113D01*
X106583923Y-84574213D01*
X106417077Y-84607400D01*
X106246963Y-84607400D01*
X106080117Y-84574213D01*
X105922952Y-84509113D01*
X105781507Y-84414602D01*
X105661218Y-84294313D01*
X105566707Y-84152868D01*
X105501607Y-83995703D01*
X105468420Y-83828857D01*
X105468420Y-83658743D01*
X105501607Y-83491897D01*
X105566707Y-83334732D01*
X105661218Y-83193287D01*
X105781507Y-83072998D01*
X105922952Y-82978487D01*
X106080117Y-82913387D01*
X106246963Y-82880200D01*
X106417077Y-82880200D01*
X106583923Y-82913387D01*
X106583923Y-82913387D01*
G37*
G36*
X110584423Y-82913387D02*
G01*
X110741588Y-82978487D01*
X110883033Y-83072998D01*
X111003322Y-83193287D01*
X111097833Y-83334732D01*
X111162933Y-83491897D01*
X111196120Y-83658743D01*
X111196120Y-83828857D01*
X111162933Y-83995703D01*
X111097833Y-84152868D01*
X111003322Y-84294313D01*
X110883033Y-84414602D01*
X110741588Y-84509113D01*
X110584423Y-84574213D01*
X110417577Y-84607400D01*
X110247463Y-84607400D01*
X110080617Y-84574213D01*
X109923452Y-84509113D01*
X109782007Y-84414602D01*
X109661718Y-84294313D01*
X109567207Y-84152868D01*
X109502107Y-83995703D01*
X109468920Y-83828857D01*
X109468920Y-83658743D01*
X109502107Y-83491897D01*
X109567207Y-83334732D01*
X109661718Y-83193287D01*
X109782007Y-83072998D01*
X109923452Y-82978487D01*
X110080617Y-82913387D01*
X110247463Y-82880200D01*
X110417577Y-82880200D01*
X110584423Y-82913387D01*
X110584423Y-82913387D01*
G37*
G36*
X100584443Y-82913387D02*
G01*
X100741608Y-82978487D01*
X100883053Y-83072998D01*
X101003342Y-83193287D01*
X101097853Y-83334732D01*
X101162953Y-83491897D01*
X101196140Y-83658743D01*
X101196140Y-83828857D01*
X101162953Y-83995703D01*
X101097853Y-84152868D01*
X101003342Y-84294313D01*
X100883053Y-84414602D01*
X100741608Y-84509113D01*
X100584443Y-84574213D01*
X100417597Y-84607400D01*
X100247483Y-84607400D01*
X100080637Y-84574213D01*
X99923472Y-84509113D01*
X99782027Y-84414602D01*
X99661738Y-84294313D01*
X99567227Y-84152868D01*
X99502127Y-83995703D01*
X99468940Y-83828857D01*
X99468940Y-83658743D01*
X99502127Y-83491897D01*
X99567227Y-83334732D01*
X99661738Y-83193287D01*
X99782027Y-83072998D01*
X99923472Y-82978487D01*
X100080637Y-82913387D01*
X100247483Y-82880200D01*
X100417597Y-82880200D01*
X100584443Y-82913387D01*
X100584443Y-82913387D01*
G37*
G36*
X98585463Y-82913387D02*
G01*
X98742628Y-82978487D01*
X98884073Y-83072998D01*
X99004362Y-83193287D01*
X99098873Y-83334732D01*
X99163973Y-83491897D01*
X99197160Y-83658743D01*
X99197160Y-83828857D01*
X99163973Y-83995703D01*
X99098873Y-84152868D01*
X99004362Y-84294313D01*
X98884073Y-84414602D01*
X98742628Y-84509113D01*
X98585463Y-84574213D01*
X98418617Y-84607400D01*
X98248503Y-84607400D01*
X98081657Y-84574213D01*
X97924492Y-84509113D01*
X97783047Y-84414602D01*
X97662758Y-84294313D01*
X97568247Y-84152868D01*
X97503147Y-83995703D01*
X97469960Y-83828857D01*
X97469960Y-83658743D01*
X97503147Y-83491897D01*
X97568247Y-83334732D01*
X97662758Y-83193287D01*
X97783047Y-83072998D01*
X97924492Y-82978487D01*
X98081657Y-82913387D01*
X98248503Y-82880200D01*
X98418617Y-82880200D01*
X98585463Y-82913387D01*
X98585463Y-82913387D01*
G37*
G36*
X102585963Y-82913387D02*
G01*
X102743128Y-82978487D01*
X102884573Y-83072998D01*
X103004862Y-83193287D01*
X103099373Y-83334732D01*
X103164473Y-83491897D01*
X103197660Y-83658743D01*
X103197660Y-83828857D01*
X103164473Y-83995703D01*
X103099373Y-84152868D01*
X103004862Y-84294313D01*
X102884573Y-84414602D01*
X102743128Y-84509113D01*
X102585963Y-84574213D01*
X102419117Y-84607400D01*
X102249003Y-84607400D01*
X102082157Y-84574213D01*
X101924992Y-84509113D01*
X101783547Y-84414602D01*
X101663258Y-84294313D01*
X101568747Y-84152868D01*
X101503647Y-83995703D01*
X101470460Y-83828857D01*
X101470460Y-83658743D01*
X101503647Y-83491897D01*
X101568747Y-83334732D01*
X101663258Y-83193287D01*
X101783547Y-83072998D01*
X101924992Y-82978487D01*
X102082157Y-82913387D01*
X102249003Y-82880200D01*
X102419117Y-82880200D01*
X102585963Y-82913387D01*
X102585963Y-82913387D01*
G37*
G36*
X104584943Y-82913387D02*
G01*
X104742108Y-82978487D01*
X104883553Y-83072998D01*
X105003842Y-83193287D01*
X105098353Y-83334732D01*
X105163453Y-83491897D01*
X105196640Y-83658743D01*
X105196640Y-83828857D01*
X105163453Y-83995703D01*
X105098353Y-84152868D01*
X105003842Y-84294313D01*
X104883553Y-84414602D01*
X104742108Y-84509113D01*
X104584943Y-84574213D01*
X104418097Y-84607400D01*
X104247983Y-84607400D01*
X104081137Y-84574213D01*
X103923972Y-84509113D01*
X103782527Y-84414602D01*
X103662238Y-84294313D01*
X103567727Y-84152868D01*
X103502627Y-83995703D01*
X103469440Y-83828857D01*
X103469440Y-83658743D01*
X103502627Y-83491897D01*
X103567727Y-83334732D01*
X103662238Y-83193287D01*
X103782527Y-83072998D01*
X103923972Y-82978487D01*
X104081137Y-82913387D01*
X104247983Y-82880200D01*
X104418097Y-82880200D01*
X104584943Y-82913387D01*
X104584943Y-82913387D01*
G37*
G36*
X144890442Y-80385518D02*
G01*
X144956627Y-80392037D01*
X145126466Y-80443557D01*
X145282991Y-80527222D01*
X145318729Y-80556552D01*
X145420186Y-80639814D01*
X145503448Y-80741271D01*
X145532778Y-80777009D01*
X145616443Y-80933534D01*
X145667963Y-81103373D01*
X145685359Y-81280000D01*
X145667963Y-81456627D01*
X145616443Y-81626466D01*
X145532778Y-81782991D01*
X145503448Y-81818729D01*
X145420186Y-81920186D01*
X145318729Y-82003448D01*
X145282991Y-82032778D01*
X145126466Y-82116443D01*
X144956627Y-82167963D01*
X144890443Y-82174481D01*
X144824260Y-82181000D01*
X144735740Y-82181000D01*
X144669557Y-82174481D01*
X144603373Y-82167963D01*
X144433534Y-82116443D01*
X144277009Y-82032778D01*
X144241271Y-82003448D01*
X144139814Y-81920186D01*
X144056552Y-81818729D01*
X144027222Y-81782991D01*
X143943557Y-81626466D01*
X143892037Y-81456627D01*
X143874641Y-81280000D01*
X143892037Y-81103373D01*
X143943557Y-80933534D01*
X144027222Y-80777009D01*
X144056552Y-80741271D01*
X144139814Y-80639814D01*
X144241271Y-80556552D01*
X144277009Y-80527222D01*
X144433534Y-80443557D01*
X144603373Y-80392037D01*
X144669558Y-80385518D01*
X144735740Y-80379000D01*
X144824260Y-80379000D01*
X144890442Y-80385518D01*
X144890442Y-80385518D01*
G37*
G36*
X152510442Y-80385518D02*
G01*
X152576627Y-80392037D01*
X152746466Y-80443557D01*
X152902991Y-80527222D01*
X152938729Y-80556552D01*
X153040186Y-80639814D01*
X153123448Y-80741271D01*
X153152778Y-80777009D01*
X153236443Y-80933534D01*
X153287963Y-81103373D01*
X153305359Y-81280000D01*
X153287963Y-81456627D01*
X153236443Y-81626466D01*
X153152778Y-81782991D01*
X153123448Y-81818729D01*
X153040186Y-81920186D01*
X152938729Y-82003448D01*
X152902991Y-82032778D01*
X152746466Y-82116443D01*
X152576627Y-82167963D01*
X152510443Y-82174481D01*
X152444260Y-82181000D01*
X152355740Y-82181000D01*
X152289557Y-82174481D01*
X152223373Y-82167963D01*
X152053534Y-82116443D01*
X151897009Y-82032778D01*
X151861271Y-82003448D01*
X151759814Y-81920186D01*
X151676552Y-81818729D01*
X151647222Y-81782991D01*
X151563557Y-81626466D01*
X151512037Y-81456627D01*
X151494641Y-81280000D01*
X151512037Y-81103373D01*
X151563557Y-80933534D01*
X151647222Y-80777009D01*
X151676552Y-80741271D01*
X151759814Y-80639814D01*
X151861271Y-80556552D01*
X151897009Y-80527222D01*
X152053534Y-80443557D01*
X152223373Y-80392037D01*
X152289558Y-80385518D01*
X152355740Y-80379000D01*
X152444260Y-80379000D01*
X152510442Y-80385518D01*
X152510442Y-80385518D01*
G37*
G36*
X149970442Y-80385518D02*
G01*
X150036627Y-80392037D01*
X150206466Y-80443557D01*
X150362991Y-80527222D01*
X150398729Y-80556552D01*
X150500186Y-80639814D01*
X150583448Y-80741271D01*
X150612778Y-80777009D01*
X150696443Y-80933534D01*
X150747963Y-81103373D01*
X150765359Y-81280000D01*
X150747963Y-81456627D01*
X150696443Y-81626466D01*
X150612778Y-81782991D01*
X150583448Y-81818729D01*
X150500186Y-81920186D01*
X150398729Y-82003448D01*
X150362991Y-82032778D01*
X150206466Y-82116443D01*
X150036627Y-82167963D01*
X149970443Y-82174481D01*
X149904260Y-82181000D01*
X149815740Y-82181000D01*
X149749557Y-82174481D01*
X149683373Y-82167963D01*
X149513534Y-82116443D01*
X149357009Y-82032778D01*
X149321271Y-82003448D01*
X149219814Y-81920186D01*
X149136552Y-81818729D01*
X149107222Y-81782991D01*
X149023557Y-81626466D01*
X148972037Y-81456627D01*
X148954641Y-81280000D01*
X148972037Y-81103373D01*
X149023557Y-80933534D01*
X149107222Y-80777009D01*
X149136552Y-80741271D01*
X149219814Y-80639814D01*
X149321271Y-80556552D01*
X149357009Y-80527222D01*
X149513534Y-80443557D01*
X149683373Y-80392037D01*
X149749558Y-80385518D01*
X149815740Y-80379000D01*
X149904260Y-80379000D01*
X149970442Y-80385518D01*
X149970442Y-80385518D01*
G37*
G36*
X147430442Y-80385518D02*
G01*
X147496627Y-80392037D01*
X147666466Y-80443557D01*
X147822991Y-80527222D01*
X147858729Y-80556552D01*
X147960186Y-80639814D01*
X148043448Y-80741271D01*
X148072778Y-80777009D01*
X148156443Y-80933534D01*
X148207963Y-81103373D01*
X148225359Y-81280000D01*
X148207963Y-81456627D01*
X148156443Y-81626466D01*
X148072778Y-81782991D01*
X148043448Y-81818729D01*
X147960186Y-81920186D01*
X147858729Y-82003448D01*
X147822991Y-82032778D01*
X147666466Y-82116443D01*
X147496627Y-82167963D01*
X147430443Y-82174481D01*
X147364260Y-82181000D01*
X147275740Y-82181000D01*
X147209557Y-82174481D01*
X147143373Y-82167963D01*
X146973534Y-82116443D01*
X146817009Y-82032778D01*
X146781271Y-82003448D01*
X146679814Y-81920186D01*
X146596552Y-81818729D01*
X146567222Y-81782991D01*
X146483557Y-81626466D01*
X146432037Y-81456627D01*
X146414641Y-81280000D01*
X146432037Y-81103373D01*
X146483557Y-80933534D01*
X146567222Y-80777009D01*
X146596552Y-80741271D01*
X146679814Y-80639814D01*
X146781271Y-80556552D01*
X146817009Y-80527222D01*
X146973534Y-80443557D01*
X147143373Y-80392037D01*
X147209558Y-80385518D01*
X147275740Y-80379000D01*
X147364260Y-80379000D01*
X147430442Y-80385518D01*
X147430442Y-80385518D01*
G37*
G36*
X103827562Y-77945181D02*
G01*
X103862481Y-77955774D01*
X103894663Y-77972976D01*
X103922873Y-77996127D01*
X103946024Y-78024337D01*
X103963226Y-78056519D01*
X103973819Y-78091438D01*
X103978000Y-78133895D01*
X103978000Y-79600105D01*
X103973819Y-79642562D01*
X103963226Y-79677481D01*
X103946024Y-79709663D01*
X103922873Y-79737873D01*
X103894663Y-79761024D01*
X103862481Y-79778226D01*
X103827562Y-79788819D01*
X103785105Y-79793000D01*
X102643895Y-79793000D01*
X102601438Y-79788819D01*
X102566519Y-79778226D01*
X102534337Y-79761024D01*
X102506127Y-79737873D01*
X102482976Y-79709663D01*
X102465774Y-79677481D01*
X102455181Y-79642562D01*
X102451000Y-79600105D01*
X102451000Y-78133895D01*
X102455181Y-78091438D01*
X102465774Y-78056519D01*
X102482976Y-78024337D01*
X102506127Y-77996127D01*
X102534337Y-77972976D01*
X102566519Y-77955774D01*
X102601438Y-77945181D01*
X102643895Y-77941000D01*
X103785105Y-77941000D01*
X103827562Y-77945181D01*
X103827562Y-77945181D01*
G37*
G36*
X100852562Y-77945181D02*
G01*
X100887481Y-77955774D01*
X100919663Y-77972976D01*
X100947873Y-77996127D01*
X100971024Y-78024337D01*
X100988226Y-78056519D01*
X100998819Y-78091438D01*
X101003000Y-78133895D01*
X101003000Y-79600105D01*
X100998819Y-79642562D01*
X100988226Y-79677481D01*
X100971024Y-79709663D01*
X100947873Y-79737873D01*
X100919663Y-79761024D01*
X100887481Y-79778226D01*
X100852562Y-79788819D01*
X100810105Y-79793000D01*
X99668895Y-79793000D01*
X99626438Y-79788819D01*
X99591519Y-79778226D01*
X99559337Y-79761024D01*
X99531127Y-79737873D01*
X99507976Y-79709663D01*
X99490774Y-79677481D01*
X99480181Y-79642562D01*
X99476000Y-79600105D01*
X99476000Y-78133895D01*
X99480181Y-78091438D01*
X99490774Y-78056519D01*
X99507976Y-78024337D01*
X99531127Y-77996127D01*
X99559337Y-77972976D01*
X99591519Y-77955774D01*
X99626438Y-77945181D01*
X99668895Y-77941000D01*
X100810105Y-77941000D01*
X100852562Y-77945181D01*
X100852562Y-77945181D01*
G37*
G36*
X149970443Y-77845519D02*
G01*
X150036627Y-77852037D01*
X150206466Y-77903557D01*
X150362991Y-77987222D01*
X150398729Y-78016552D01*
X150500186Y-78099814D01*
X150578891Y-78195718D01*
X150612778Y-78237009D01*
X150612779Y-78237011D01*
X150693578Y-78388173D01*
X150696443Y-78393534D01*
X150747963Y-78563373D01*
X150765359Y-78740000D01*
X150747963Y-78916627D01*
X150696443Y-79086466D01*
X150612778Y-79242991D01*
X150583448Y-79278729D01*
X150500186Y-79380186D01*
X150408202Y-79455674D01*
X150362991Y-79492778D01*
X150206466Y-79576443D01*
X150036627Y-79627963D01*
X149970442Y-79634482D01*
X149904260Y-79641000D01*
X149815740Y-79641000D01*
X149749558Y-79634482D01*
X149683373Y-79627963D01*
X149513534Y-79576443D01*
X149357009Y-79492778D01*
X149311798Y-79455674D01*
X149219814Y-79380186D01*
X149136552Y-79278729D01*
X149107222Y-79242991D01*
X149023557Y-79086466D01*
X148972037Y-78916627D01*
X148954641Y-78740000D01*
X148972037Y-78563373D01*
X149023557Y-78393534D01*
X149026423Y-78388173D01*
X149107221Y-78237011D01*
X149107222Y-78237009D01*
X149141109Y-78195718D01*
X149219814Y-78099814D01*
X149321271Y-78016552D01*
X149357009Y-77987222D01*
X149513534Y-77903557D01*
X149683373Y-77852037D01*
X149749557Y-77845519D01*
X149815740Y-77839000D01*
X149904260Y-77839000D01*
X149970443Y-77845519D01*
X149970443Y-77845519D01*
G37*
G36*
X153301000Y-79641000D02*
G01*
X151499000Y-79641000D01*
X151499000Y-77839000D01*
X153301000Y-77839000D01*
X153301000Y-79641000D01*
X153301000Y-79641000D01*
G37*
G36*
X147430443Y-77845519D02*
G01*
X147496627Y-77852037D01*
X147666466Y-77903557D01*
X147822991Y-77987222D01*
X147858729Y-78016552D01*
X147960186Y-78099814D01*
X148038891Y-78195718D01*
X148072778Y-78237009D01*
X148072779Y-78237011D01*
X148153578Y-78388173D01*
X148156443Y-78393534D01*
X148207963Y-78563373D01*
X148225359Y-78740000D01*
X148207963Y-78916627D01*
X148156443Y-79086466D01*
X148072778Y-79242991D01*
X148043448Y-79278729D01*
X147960186Y-79380186D01*
X147868202Y-79455674D01*
X147822991Y-79492778D01*
X147666466Y-79576443D01*
X147496627Y-79627963D01*
X147430442Y-79634482D01*
X147364260Y-79641000D01*
X147275740Y-79641000D01*
X147209558Y-79634482D01*
X147143373Y-79627963D01*
X146973534Y-79576443D01*
X146817009Y-79492778D01*
X146771798Y-79455674D01*
X146679814Y-79380186D01*
X146596552Y-79278729D01*
X146567222Y-79242991D01*
X146483557Y-79086466D01*
X146432037Y-78916627D01*
X146414641Y-78740000D01*
X146432037Y-78563373D01*
X146483557Y-78393534D01*
X146486423Y-78388173D01*
X146567221Y-78237011D01*
X146567222Y-78237009D01*
X146601109Y-78195718D01*
X146679814Y-78099814D01*
X146781271Y-78016552D01*
X146817009Y-77987222D01*
X146973534Y-77903557D01*
X147143373Y-77852037D01*
X147209557Y-77845519D01*
X147275740Y-77839000D01*
X147364260Y-77839000D01*
X147430443Y-77845519D01*
X147430443Y-77845519D01*
G37*
G36*
X144890443Y-77845519D02*
G01*
X144956627Y-77852037D01*
X145126466Y-77903557D01*
X145282991Y-77987222D01*
X145318729Y-78016552D01*
X145420186Y-78099814D01*
X145498891Y-78195718D01*
X145532778Y-78237009D01*
X145532779Y-78237011D01*
X145613578Y-78388173D01*
X145616443Y-78393534D01*
X145667963Y-78563373D01*
X145685359Y-78740000D01*
X145667963Y-78916627D01*
X145616443Y-79086466D01*
X145532778Y-79242991D01*
X145503448Y-79278729D01*
X145420186Y-79380186D01*
X145328202Y-79455674D01*
X145282991Y-79492778D01*
X145126466Y-79576443D01*
X144956627Y-79627963D01*
X144890442Y-79634482D01*
X144824260Y-79641000D01*
X144735740Y-79641000D01*
X144669558Y-79634482D01*
X144603373Y-79627963D01*
X144433534Y-79576443D01*
X144277009Y-79492778D01*
X144231798Y-79455674D01*
X144139814Y-79380186D01*
X144056552Y-79278729D01*
X144027222Y-79242991D01*
X143943557Y-79086466D01*
X143892037Y-78916627D01*
X143874641Y-78740000D01*
X143892037Y-78563373D01*
X143943557Y-78393534D01*
X143946423Y-78388173D01*
X144027221Y-78237011D01*
X144027222Y-78237009D01*
X144061109Y-78195718D01*
X144139814Y-78099814D01*
X144241271Y-78016552D01*
X144277009Y-77987222D01*
X144433534Y-77903557D01*
X144603373Y-77852037D01*
X144669557Y-77845519D01*
X144735740Y-77839000D01*
X144824260Y-77839000D01*
X144890443Y-77845519D01*
X144890443Y-77845519D01*
G37*
G36*
X110055674Y-78120465D02*
G01*
X110093367Y-78131899D01*
X110128103Y-78150466D01*
X110158548Y-78175452D01*
X110183534Y-78205897D01*
X110202101Y-78240633D01*
X110213535Y-78278326D01*
X110218000Y-78323661D01*
X110218000Y-79410339D01*
X110213535Y-79455674D01*
X110202101Y-79493367D01*
X110183534Y-79528103D01*
X110158548Y-79558548D01*
X110128103Y-79583534D01*
X110093367Y-79602101D01*
X110055674Y-79613535D01*
X110010339Y-79618000D01*
X109173661Y-79618000D01*
X109128326Y-79613535D01*
X109090633Y-79602101D01*
X109055897Y-79583534D01*
X109025452Y-79558548D01*
X109000466Y-79528103D01*
X108981899Y-79493367D01*
X108970465Y-79455674D01*
X108966000Y-79410339D01*
X108966000Y-78323661D01*
X108970465Y-78278326D01*
X108981899Y-78240633D01*
X109000466Y-78205897D01*
X109025452Y-78175452D01*
X109055897Y-78150466D01*
X109090633Y-78131899D01*
X109128326Y-78120465D01*
X109173661Y-78116000D01*
X110010339Y-78116000D01*
X110055674Y-78120465D01*
X110055674Y-78120465D01*
G37*
G36*
X112105674Y-78120465D02*
G01*
X112143367Y-78131899D01*
X112178103Y-78150466D01*
X112208548Y-78175452D01*
X112233534Y-78205897D01*
X112252101Y-78240633D01*
X112263535Y-78278326D01*
X112268000Y-78323661D01*
X112268000Y-79410339D01*
X112263535Y-79455674D01*
X112252101Y-79493367D01*
X112233534Y-79528103D01*
X112208548Y-79558548D01*
X112178103Y-79583534D01*
X112143367Y-79602101D01*
X112105674Y-79613535D01*
X112060339Y-79618000D01*
X111223661Y-79618000D01*
X111178326Y-79613535D01*
X111140633Y-79602101D01*
X111105897Y-79583534D01*
X111075452Y-79558548D01*
X111050466Y-79528103D01*
X111031899Y-79493367D01*
X111020465Y-79455674D01*
X111016000Y-79410339D01*
X111016000Y-78323661D01*
X111020465Y-78278326D01*
X111031899Y-78240633D01*
X111050466Y-78205897D01*
X111075452Y-78175452D01*
X111105897Y-78150466D01*
X111140633Y-78131899D01*
X111178326Y-78120465D01*
X111223661Y-78116000D01*
X112060339Y-78116000D01*
X112105674Y-78120465D01*
X112105674Y-78120465D01*
G37*
G36*
X180245062Y-77310181D02*
G01*
X180279981Y-77320774D01*
X180312163Y-77337976D01*
X180340373Y-77361127D01*
X180363524Y-77389337D01*
X180380726Y-77421519D01*
X180391319Y-77456438D01*
X180395500Y-77498895D01*
X180395500Y-78965105D01*
X180391319Y-79007562D01*
X180380726Y-79042481D01*
X180363524Y-79074663D01*
X180340373Y-79102873D01*
X180312163Y-79126024D01*
X180279981Y-79143226D01*
X180245062Y-79153819D01*
X180202605Y-79158000D01*
X179061395Y-79158000D01*
X179018938Y-79153819D01*
X178984019Y-79143226D01*
X178951837Y-79126024D01*
X178923627Y-79102873D01*
X178900476Y-79074663D01*
X178883274Y-79042481D01*
X178872681Y-79007562D01*
X178868500Y-78965105D01*
X178868500Y-77498895D01*
X178872681Y-77456438D01*
X178883274Y-77421519D01*
X178900476Y-77389337D01*
X178923627Y-77361127D01*
X178951837Y-77337976D01*
X178984019Y-77320774D01*
X179018938Y-77310181D01*
X179061395Y-77306000D01*
X180202605Y-77306000D01*
X180245062Y-77310181D01*
X180245062Y-77310181D01*
G37*
G36*
X177270062Y-77310181D02*
G01*
X177304981Y-77320774D01*
X177337163Y-77337976D01*
X177365373Y-77361127D01*
X177388524Y-77389337D01*
X177405726Y-77421519D01*
X177416319Y-77456438D01*
X177420500Y-77498895D01*
X177420500Y-78965105D01*
X177416319Y-79007562D01*
X177405726Y-79042481D01*
X177388524Y-79074663D01*
X177365373Y-79102873D01*
X177337163Y-79126024D01*
X177304981Y-79143226D01*
X177270062Y-79153819D01*
X177227605Y-79158000D01*
X176086395Y-79158000D01*
X176043938Y-79153819D01*
X176009019Y-79143226D01*
X175976837Y-79126024D01*
X175948627Y-79102873D01*
X175925476Y-79074663D01*
X175908274Y-79042481D01*
X175897681Y-79007562D01*
X175893500Y-78965105D01*
X175893500Y-77498895D01*
X175897681Y-77456438D01*
X175908274Y-77421519D01*
X175925476Y-77389337D01*
X175948627Y-77361127D01*
X175976837Y-77337976D01*
X176009019Y-77320774D01*
X176043938Y-77310181D01*
X176086395Y-77306000D01*
X177227605Y-77306000D01*
X177270062Y-77310181D01*
X177270062Y-77310181D01*
G37*
G36*
X173455674Y-77485465D02*
G01*
X173493367Y-77496899D01*
X173528103Y-77515466D01*
X173558548Y-77540452D01*
X173583534Y-77570897D01*
X173602101Y-77605633D01*
X173613535Y-77643326D01*
X173618000Y-77688661D01*
X173618000Y-78775339D01*
X173613535Y-78820674D01*
X173602101Y-78858367D01*
X173583534Y-78893103D01*
X173558548Y-78923548D01*
X173528103Y-78948534D01*
X173493367Y-78967101D01*
X173455674Y-78978535D01*
X173410339Y-78983000D01*
X172573661Y-78983000D01*
X172528326Y-78978535D01*
X172490633Y-78967101D01*
X172455897Y-78948534D01*
X172425452Y-78923548D01*
X172400466Y-78893103D01*
X172381899Y-78858367D01*
X172370465Y-78820674D01*
X172366000Y-78775339D01*
X172366000Y-77688661D01*
X172370465Y-77643326D01*
X172381899Y-77605633D01*
X172400466Y-77570897D01*
X172425452Y-77540452D01*
X172455897Y-77515466D01*
X172490633Y-77496899D01*
X172528326Y-77485465D01*
X172573661Y-77481000D01*
X173410339Y-77481000D01*
X173455674Y-77485465D01*
X173455674Y-77485465D01*
G37*
G36*
X171405674Y-77485465D02*
G01*
X171443367Y-77496899D01*
X171478103Y-77515466D01*
X171508548Y-77540452D01*
X171533534Y-77570897D01*
X171552101Y-77605633D01*
X171563535Y-77643326D01*
X171568000Y-77688661D01*
X171568000Y-78775339D01*
X171563535Y-78820674D01*
X171552101Y-78858367D01*
X171533534Y-78893103D01*
X171508548Y-78923548D01*
X171478103Y-78948534D01*
X171443367Y-78967101D01*
X171405674Y-78978535D01*
X171360339Y-78983000D01*
X170523661Y-78983000D01*
X170478326Y-78978535D01*
X170440633Y-78967101D01*
X170405897Y-78948534D01*
X170375452Y-78923548D01*
X170350466Y-78893103D01*
X170331899Y-78858367D01*
X170320465Y-78820674D01*
X170316000Y-78775339D01*
X170316000Y-77688661D01*
X170320465Y-77643326D01*
X170331899Y-77605633D01*
X170350466Y-77570897D01*
X170375452Y-77540452D01*
X170405897Y-77515466D01*
X170440633Y-77496899D01*
X170478326Y-77485465D01*
X170523661Y-77481000D01*
X171360339Y-77481000D01*
X171405674Y-77485465D01*
X171405674Y-77485465D01*
G37*
G36*
X129171000Y-77101000D02*
G01*
X127369000Y-77101000D01*
X127369000Y-75299000D01*
X129171000Y-75299000D01*
X129171000Y-77101000D01*
X129171000Y-77101000D01*
G37*
G36*
X125840442Y-75305518D02*
G01*
X125906627Y-75312037D01*
X126076466Y-75363557D01*
X126232991Y-75447222D01*
X126268729Y-75476552D01*
X126370186Y-75559814D01*
X126453448Y-75661271D01*
X126482778Y-75697009D01*
X126566443Y-75853534D01*
X126617963Y-76023373D01*
X126635359Y-76200000D01*
X126617963Y-76376627D01*
X126566443Y-76546466D01*
X126482778Y-76702991D01*
X126453448Y-76738729D01*
X126370186Y-76840186D01*
X126268729Y-76923448D01*
X126232991Y-76952778D01*
X126076466Y-77036443D01*
X125906627Y-77087963D01*
X125840442Y-77094482D01*
X125774260Y-77101000D01*
X125685740Y-77101000D01*
X125619558Y-77094482D01*
X125553373Y-77087963D01*
X125383534Y-77036443D01*
X125227009Y-76952778D01*
X125191271Y-76923448D01*
X125089814Y-76840186D01*
X125006552Y-76738729D01*
X124977222Y-76702991D01*
X124893557Y-76546466D01*
X124842037Y-76376627D01*
X124824641Y-76200000D01*
X124842037Y-76023373D01*
X124893557Y-75853534D01*
X124977222Y-75697009D01*
X125006552Y-75661271D01*
X125089814Y-75559814D01*
X125191271Y-75476552D01*
X125227009Y-75447222D01*
X125383534Y-75363557D01*
X125553373Y-75312037D01*
X125619558Y-75305518D01*
X125685740Y-75299000D01*
X125774260Y-75299000D01*
X125840442Y-75305518D01*
X125840442Y-75305518D01*
G37*
G36*
X172178000Y-75128000D02*
G01*
X170976000Y-75128000D01*
X170976000Y-70426000D01*
X172178000Y-70426000D01*
X172178000Y-75128000D01*
X172178000Y-75128000D01*
G37*
G36*
X169638000Y-75128000D02*
G01*
X168436000Y-75128000D01*
X168436000Y-70426000D01*
X169638000Y-70426000D01*
X169638000Y-75128000D01*
X169638000Y-75128000D01*
G37*
G36*
X174718000Y-75128000D02*
G01*
X173516000Y-75128000D01*
X173516000Y-70426000D01*
X174718000Y-70426000D01*
X174718000Y-75128000D01*
X174718000Y-75128000D01*
G37*
G36*
X183673170Y-73508040D02*
G01*
X183710863Y-73519474D01*
X183745599Y-73538041D01*
X183776044Y-73563027D01*
X183801030Y-73593472D01*
X183819597Y-73628208D01*
X183831031Y-73665901D01*
X183835496Y-73711236D01*
X183835496Y-74547914D01*
X183831031Y-74593249D01*
X183819597Y-74630942D01*
X183801030Y-74665678D01*
X183776044Y-74696123D01*
X183745599Y-74721109D01*
X183710863Y-74739676D01*
X183673170Y-74751110D01*
X183627835Y-74755575D01*
X182541157Y-74755575D01*
X182495822Y-74751110D01*
X182458129Y-74739676D01*
X182423393Y-74721109D01*
X182392948Y-74696123D01*
X182367962Y-74665678D01*
X182349395Y-74630942D01*
X182337961Y-74593249D01*
X182333496Y-74547914D01*
X182333496Y-73711236D01*
X182337961Y-73665901D01*
X182349395Y-73628208D01*
X182367962Y-73593472D01*
X182392948Y-73563027D01*
X182423393Y-73538041D01*
X182458129Y-73519474D01*
X182495822Y-73508040D01*
X182541157Y-73503575D01*
X183627835Y-73503575D01*
X183673170Y-73508040D01*
X183673170Y-73508040D01*
G37*
G36*
X125840442Y-72765518D02*
G01*
X125906627Y-72772037D01*
X126076466Y-72823557D01*
X126232991Y-72907222D01*
X126268729Y-72936552D01*
X126370186Y-73019814D01*
X126453448Y-73121271D01*
X126482778Y-73157009D01*
X126566443Y-73313534D01*
X126617963Y-73483373D01*
X126635359Y-73660000D01*
X126617963Y-73836627D01*
X126566443Y-74006466D01*
X126482778Y-74162991D01*
X126453448Y-74198729D01*
X126370186Y-74300186D01*
X126268729Y-74383448D01*
X126232991Y-74412778D01*
X126076466Y-74496443D01*
X125906627Y-74547963D01*
X125840442Y-74554482D01*
X125774260Y-74561000D01*
X125685740Y-74561000D01*
X125619558Y-74554482D01*
X125553373Y-74547963D01*
X125383534Y-74496443D01*
X125227009Y-74412778D01*
X125191271Y-74383448D01*
X125089814Y-74300186D01*
X125006552Y-74198729D01*
X124977222Y-74162991D01*
X124893557Y-74006466D01*
X124842037Y-73836627D01*
X124824641Y-73660000D01*
X124842037Y-73483373D01*
X124893557Y-73313534D01*
X124977222Y-73157009D01*
X125006552Y-73121271D01*
X125089814Y-73019814D01*
X125191271Y-72936552D01*
X125227009Y-72907222D01*
X125383534Y-72823557D01*
X125553373Y-72772037D01*
X125619558Y-72765518D01*
X125685740Y-72759000D01*
X125774260Y-72759000D01*
X125840442Y-72765518D01*
X125840442Y-72765518D01*
G37*
G36*
X128380442Y-72765518D02*
G01*
X128446627Y-72772037D01*
X128616466Y-72823557D01*
X128772991Y-72907222D01*
X128808729Y-72936552D01*
X128910186Y-73019814D01*
X128993448Y-73121271D01*
X129022778Y-73157009D01*
X129106443Y-73313534D01*
X129157963Y-73483373D01*
X129175359Y-73660000D01*
X129157963Y-73836627D01*
X129106443Y-74006466D01*
X129022778Y-74162991D01*
X128993448Y-74198729D01*
X128910186Y-74300186D01*
X128808729Y-74383448D01*
X128772991Y-74412778D01*
X128616466Y-74496443D01*
X128446627Y-74547963D01*
X128380442Y-74554482D01*
X128314260Y-74561000D01*
X128225740Y-74561000D01*
X128159558Y-74554482D01*
X128093373Y-74547963D01*
X127923534Y-74496443D01*
X127767009Y-74412778D01*
X127731271Y-74383448D01*
X127629814Y-74300186D01*
X127546552Y-74198729D01*
X127517222Y-74162991D01*
X127433557Y-74006466D01*
X127382037Y-73836627D01*
X127364641Y-73660000D01*
X127382037Y-73483373D01*
X127433557Y-73313534D01*
X127517222Y-73157009D01*
X127546552Y-73121271D01*
X127629814Y-73019814D01*
X127731271Y-72936552D01*
X127767009Y-72907222D01*
X127923534Y-72823557D01*
X128093373Y-72772037D01*
X128159558Y-72765518D01*
X128225740Y-72759000D01*
X128314260Y-72759000D01*
X128380442Y-72765518D01*
X128380442Y-72765518D01*
G37*
G36*
X192272256Y-69638298D02*
G01*
X192378579Y-69659447D01*
X192679042Y-69783903D01*
X192949451Y-69964585D01*
X193179415Y-70194549D01*
X193325750Y-70413554D01*
X193360098Y-70464960D01*
X193367562Y-70482980D01*
X193484553Y-70765421D01*
X193486167Y-70773534D01*
X193548000Y-71084389D01*
X193548000Y-71409611D01*
X193536690Y-71466468D01*
X193484553Y-71728579D01*
X193360097Y-72029042D01*
X193179415Y-72299451D01*
X192949451Y-72529415D01*
X192679042Y-72710097D01*
X192378579Y-72834553D01*
X192272256Y-72855702D01*
X192059611Y-72898000D01*
X191734389Y-72898000D01*
X191521744Y-72855702D01*
X191415421Y-72834553D01*
X191114958Y-72710097D01*
X190844549Y-72529415D01*
X190614585Y-72299451D01*
X190433903Y-72029042D01*
X190309447Y-71728579D01*
X190257310Y-71466468D01*
X190246000Y-71409611D01*
X190246000Y-71084389D01*
X190307833Y-70773534D01*
X190309447Y-70765421D01*
X190426438Y-70482980D01*
X190433902Y-70464960D01*
X190468250Y-70413554D01*
X190614585Y-70194549D01*
X190844549Y-69964585D01*
X191114958Y-69783903D01*
X191415421Y-69659447D01*
X191521744Y-69638298D01*
X191734389Y-69596000D01*
X192059611Y-69596000D01*
X192272256Y-69638298D01*
X192272256Y-69638298D01*
G37*
G36*
X100197256Y-69638298D02*
G01*
X100303579Y-69659447D01*
X100604042Y-69783903D01*
X100874451Y-69964585D01*
X101104415Y-70194549D01*
X101250750Y-70413554D01*
X101285098Y-70464960D01*
X101292562Y-70482980D01*
X101409553Y-70765421D01*
X101411167Y-70773534D01*
X101473000Y-71084389D01*
X101473000Y-71409611D01*
X101461690Y-71466468D01*
X101409553Y-71728579D01*
X101285097Y-72029042D01*
X101104415Y-72299451D01*
X100874451Y-72529415D01*
X100604042Y-72710097D01*
X100303579Y-72834553D01*
X100197256Y-72855702D01*
X99984611Y-72898000D01*
X99659389Y-72898000D01*
X99446744Y-72855702D01*
X99340421Y-72834553D01*
X99039958Y-72710097D01*
X98769549Y-72529415D01*
X98539585Y-72299451D01*
X98358903Y-72029042D01*
X98234447Y-71728579D01*
X98182310Y-71466468D01*
X98171000Y-71409611D01*
X98171000Y-71084389D01*
X98232833Y-70773534D01*
X98234447Y-70765421D01*
X98351438Y-70482980D01*
X98358902Y-70464960D01*
X98393250Y-70413554D01*
X98539585Y-70194549D01*
X98769549Y-69964585D01*
X99039958Y-69783903D01*
X99340421Y-69659447D01*
X99446744Y-69638298D01*
X99659389Y-69596000D01*
X99984611Y-69596000D01*
X100197256Y-69638298D01*
X100197256Y-69638298D01*
G37*
G36*
X183673170Y-71458040D02*
G01*
X183710863Y-71469474D01*
X183745599Y-71488041D01*
X183776044Y-71513027D01*
X183801030Y-71543472D01*
X183819597Y-71578208D01*
X183831031Y-71615901D01*
X183835496Y-71661236D01*
X183835496Y-72497914D01*
X183831031Y-72543249D01*
X183819597Y-72580942D01*
X183801030Y-72615678D01*
X183776044Y-72646123D01*
X183745599Y-72671109D01*
X183710863Y-72689676D01*
X183673170Y-72701110D01*
X183627835Y-72705575D01*
X182541157Y-72705575D01*
X182495822Y-72701110D01*
X182458129Y-72689676D01*
X182423393Y-72671109D01*
X182392948Y-72646123D01*
X182367962Y-72615678D01*
X182349395Y-72580942D01*
X182337961Y-72543249D01*
X182333496Y-72497914D01*
X182333496Y-71661236D01*
X182337961Y-71615901D01*
X182349395Y-71578208D01*
X182367962Y-71543472D01*
X182392948Y-71513027D01*
X182423393Y-71488041D01*
X182458129Y-71469474D01*
X182495822Y-71458040D01*
X182541157Y-71453575D01*
X183627835Y-71453575D01*
X183673170Y-71458040D01*
X183673170Y-71458040D01*
G37*
G36*
X128380442Y-70225519D02*
G01*
X128446627Y-70232038D01*
X128616466Y-70283558D01*
X128616468Y-70283559D01*
X128694728Y-70325390D01*
X128772991Y-70367223D01*
X128787335Y-70378995D01*
X128910186Y-70479815D01*
X128993448Y-70581272D01*
X129022778Y-70617010D01*
X129022779Y-70617012D01*
X129102107Y-70765422D01*
X129106443Y-70773535D01*
X129157963Y-70943374D01*
X129175359Y-71120001D01*
X129157963Y-71296628D01*
X129106443Y-71466467D01*
X129022778Y-71622992D01*
X128993448Y-71658730D01*
X128910186Y-71760187D01*
X128808729Y-71843449D01*
X128772991Y-71872779D01*
X128616466Y-71956444D01*
X128446627Y-72007964D01*
X128380443Y-72014482D01*
X128314260Y-72021001D01*
X128225740Y-72021001D01*
X128159557Y-72014482D01*
X128093373Y-72007964D01*
X127923534Y-71956444D01*
X127767009Y-71872779D01*
X127731271Y-71843449D01*
X127629814Y-71760187D01*
X127546552Y-71658730D01*
X127517222Y-71622992D01*
X127433557Y-71466467D01*
X127382037Y-71296628D01*
X127364641Y-71120001D01*
X127382037Y-70943374D01*
X127433557Y-70773535D01*
X127437894Y-70765422D01*
X127517221Y-70617012D01*
X127517222Y-70617010D01*
X127546552Y-70581272D01*
X127629814Y-70479815D01*
X127752665Y-70378995D01*
X127767009Y-70367223D01*
X127845271Y-70325391D01*
X127923532Y-70283559D01*
X127923534Y-70283558D01*
X128093373Y-70232038D01*
X128159558Y-70225519D01*
X128225740Y-70219001D01*
X128314260Y-70219001D01*
X128380442Y-70225519D01*
X128380442Y-70225519D01*
G37*
G36*
X125840442Y-70225518D02*
G01*
X125906627Y-70232037D01*
X126076466Y-70283557D01*
X126232991Y-70367222D01*
X126247336Y-70378995D01*
X126370186Y-70479814D01*
X126453448Y-70581271D01*
X126482778Y-70617009D01*
X126482779Y-70617011D01*
X126562107Y-70765421D01*
X126566443Y-70773534D01*
X126617963Y-70943373D01*
X126635359Y-71120000D01*
X126617963Y-71296627D01*
X126566443Y-71466466D01*
X126482778Y-71622991D01*
X126482777Y-71622992D01*
X126370186Y-71760186D01*
X126268729Y-71843448D01*
X126232991Y-71872778D01*
X126076466Y-71956443D01*
X125906627Y-72007963D01*
X125840443Y-72014481D01*
X125774260Y-72021000D01*
X125685740Y-72021000D01*
X125619557Y-72014481D01*
X125553373Y-72007963D01*
X125383534Y-71956443D01*
X125227009Y-71872778D01*
X125191271Y-71843448D01*
X125089814Y-71760186D01*
X124977223Y-71622992D01*
X124977222Y-71622991D01*
X124893557Y-71466466D01*
X124842037Y-71296627D01*
X124824641Y-71120000D01*
X124842037Y-70943373D01*
X124893557Y-70773534D01*
X124897894Y-70765421D01*
X124977221Y-70617011D01*
X124977222Y-70617009D01*
X125006552Y-70581271D01*
X125089814Y-70479814D01*
X125212664Y-70378995D01*
X125227009Y-70367222D01*
X125383534Y-70283557D01*
X125553373Y-70232037D01*
X125619558Y-70225518D01*
X125685740Y-70219000D01*
X125774260Y-70219000D01*
X125840442Y-70225518D01*
X125840442Y-70225518D01*
G37*
G36*
X147226499Y-69455445D02*
G01*
X147263995Y-69466820D01*
X147298554Y-69485292D01*
X147328847Y-69510153D01*
X147353708Y-69540446D01*
X147372180Y-69575005D01*
X147383555Y-69612501D01*
X147388000Y-69657638D01*
X147388000Y-70296362D01*
X147383555Y-70341499D01*
X147372180Y-70378995D01*
X147353708Y-70413554D01*
X147328847Y-70443847D01*
X147298554Y-70468708D01*
X147263995Y-70487180D01*
X147226499Y-70498555D01*
X147181362Y-70503000D01*
X146442638Y-70503000D01*
X146397501Y-70498555D01*
X146360005Y-70487180D01*
X146325446Y-70468708D01*
X146295153Y-70443847D01*
X146270292Y-70413554D01*
X146251820Y-70378995D01*
X146240445Y-70341499D01*
X146236000Y-70296362D01*
X146236000Y-69657638D01*
X146240445Y-69612501D01*
X146251820Y-69575005D01*
X146270292Y-69540446D01*
X146295153Y-69510153D01*
X146325446Y-69485292D01*
X146360005Y-69466820D01*
X146397501Y-69455445D01*
X146442638Y-69451000D01*
X147181362Y-69451000D01*
X147226499Y-69455445D01*
X147226499Y-69455445D01*
G37*
G36*
X145476499Y-69455445D02*
G01*
X145513995Y-69466820D01*
X145548554Y-69485292D01*
X145578847Y-69510153D01*
X145603708Y-69540446D01*
X145622180Y-69575005D01*
X145633555Y-69612501D01*
X145638000Y-69657638D01*
X145638000Y-70296362D01*
X145633555Y-70341499D01*
X145622180Y-70378995D01*
X145603708Y-70413554D01*
X145578847Y-70443847D01*
X145548554Y-70468708D01*
X145513995Y-70487180D01*
X145476499Y-70498555D01*
X145431362Y-70503000D01*
X144692638Y-70503000D01*
X144647501Y-70498555D01*
X144610005Y-70487180D01*
X144575446Y-70468708D01*
X144545153Y-70443847D01*
X144520292Y-70413554D01*
X144501820Y-70378995D01*
X144490445Y-70341499D01*
X144486000Y-70296362D01*
X144486000Y-69657638D01*
X144490445Y-69612501D01*
X144501820Y-69575005D01*
X144520292Y-69540446D01*
X144545153Y-69510153D01*
X144575446Y-69485292D01*
X144610005Y-69466820D01*
X144647501Y-69455445D01*
X144692638Y-69451000D01*
X145431362Y-69451000D01*
X145476499Y-69455445D01*
X145476499Y-69455445D01*
G37*
G36*
X183673170Y-67158040D02*
G01*
X183710863Y-67169474D01*
X183745599Y-67188041D01*
X183776044Y-67213027D01*
X183801030Y-67243472D01*
X183819597Y-67278208D01*
X183831031Y-67315901D01*
X183835496Y-67361236D01*
X183835496Y-68197914D01*
X183831031Y-68243249D01*
X183819597Y-68280942D01*
X183801030Y-68315678D01*
X183776044Y-68346123D01*
X183745599Y-68371109D01*
X183710863Y-68389676D01*
X183673170Y-68401110D01*
X183627835Y-68405575D01*
X182541157Y-68405575D01*
X182495822Y-68401110D01*
X182458129Y-68389676D01*
X182423393Y-68371109D01*
X182392948Y-68346123D01*
X182367962Y-68315678D01*
X182349395Y-68280942D01*
X182337961Y-68243249D01*
X182333496Y-68197914D01*
X182333496Y-67361236D01*
X182337961Y-67315901D01*
X182349395Y-67278208D01*
X182367962Y-67243472D01*
X182392948Y-67213027D01*
X182423393Y-67188041D01*
X182458129Y-67169474D01*
X182495822Y-67158040D01*
X182541157Y-67153575D01*
X183627835Y-67153575D01*
X183673170Y-67158040D01*
X183673170Y-67158040D01*
G37*
G36*
X177028000Y-68378000D02*
G01*
X166126000Y-68378000D01*
X166126000Y-58876000D01*
X177028000Y-58876000D01*
X177028000Y-68378000D01*
X177028000Y-68378000D01*
G37*
G36*
X158724600Y-67919600D02*
G01*
X156997400Y-67919600D01*
X156997400Y-66954400D01*
X158724600Y-66954400D01*
X158724600Y-67919600D01*
X158724600Y-67919600D01*
G37*
G36*
X153136600Y-67919600D02*
G01*
X151409400Y-67919600D01*
X151409400Y-66954400D01*
X153136600Y-66954400D01*
X153136600Y-67919600D01*
X153136600Y-67919600D01*
G37*
G36*
X104376098Y-61809033D02*
G01*
X104739399Y-61959517D01*
X104840352Y-62001333D01*
X105258168Y-62280509D01*
X105613491Y-62635832D01*
X105794087Y-62906113D01*
X105892668Y-63053650D01*
X106084967Y-63517902D01*
X106183000Y-64010747D01*
X106183000Y-64513253D01*
X106084967Y-65006098D01*
X105992966Y-65228208D01*
X105892667Y-65470352D01*
X105613491Y-65888168D01*
X105258168Y-66243491D01*
X104840352Y-66522667D01*
X104840351Y-66522668D01*
X104840350Y-66522668D01*
X104376098Y-66714967D01*
X103883253Y-66813000D01*
X103380747Y-66813000D01*
X102887902Y-66714967D01*
X102423650Y-66522668D01*
X102423649Y-66522668D01*
X102423648Y-66522667D01*
X102005832Y-66243491D01*
X101650509Y-65888168D01*
X101371333Y-65470352D01*
X101271034Y-65228208D01*
X101179033Y-65006098D01*
X101081000Y-64513253D01*
X101081000Y-64010747D01*
X101179033Y-63517902D01*
X101371332Y-63053650D01*
X101469913Y-62906113D01*
X101650509Y-62635832D01*
X102005832Y-62280509D01*
X102423648Y-62001333D01*
X102524601Y-61959517D01*
X102887902Y-61809033D01*
X103380747Y-61711000D01*
X103883253Y-61711000D01*
X104376098Y-61809033D01*
X104376098Y-61809033D01*
G37*
G36*
X183673170Y-65108040D02*
G01*
X183710863Y-65119474D01*
X183745599Y-65138041D01*
X183776044Y-65163027D01*
X183801030Y-65193472D01*
X183819597Y-65228208D01*
X183831031Y-65265901D01*
X183835496Y-65311236D01*
X183835496Y-66147914D01*
X183831031Y-66193249D01*
X183819597Y-66230942D01*
X183801030Y-66265678D01*
X183776044Y-66296123D01*
X183745599Y-66321109D01*
X183710863Y-66339676D01*
X183673170Y-66351110D01*
X183627835Y-66355575D01*
X182541157Y-66355575D01*
X182495822Y-66351110D01*
X182458129Y-66339676D01*
X182423393Y-66321109D01*
X182392948Y-66296123D01*
X182367962Y-66265678D01*
X182349395Y-66230942D01*
X182337961Y-66193249D01*
X182333496Y-66147914D01*
X182333496Y-65311236D01*
X182337961Y-65265901D01*
X182349395Y-65228208D01*
X182367962Y-65193472D01*
X182392948Y-65163027D01*
X182423393Y-65138041D01*
X182458129Y-65119474D01*
X182495822Y-65108040D01*
X182541157Y-65103575D01*
X183627835Y-65103575D01*
X183673170Y-65108040D01*
X183673170Y-65108040D01*
G37*
G36*
X145225674Y-63515465D02*
G01*
X145263367Y-63526899D01*
X145298103Y-63545466D01*
X145328548Y-63570452D01*
X145353534Y-63600897D01*
X145372101Y-63635633D01*
X145383535Y-63673326D01*
X145388000Y-63718661D01*
X145388000Y-64805339D01*
X145383535Y-64850674D01*
X145372101Y-64888367D01*
X145353534Y-64923103D01*
X145328548Y-64953548D01*
X145298103Y-64978534D01*
X145263367Y-64997101D01*
X145225674Y-65008535D01*
X145180339Y-65013000D01*
X144343661Y-65013000D01*
X144298326Y-65008535D01*
X144260633Y-64997101D01*
X144225897Y-64978534D01*
X144195452Y-64953548D01*
X144170466Y-64923103D01*
X144151899Y-64888367D01*
X144140465Y-64850674D01*
X144136000Y-64805339D01*
X144136000Y-63718661D01*
X144140465Y-63673326D01*
X144151899Y-63635633D01*
X144170466Y-63600897D01*
X144195452Y-63570452D01*
X144225897Y-63545466D01*
X144260633Y-63526899D01*
X144298326Y-63515465D01*
X144343661Y-63511000D01*
X145180339Y-63511000D01*
X145225674Y-63515465D01*
X145225674Y-63515465D01*
G37*
G36*
X147275674Y-63515465D02*
G01*
X147313367Y-63526899D01*
X147348103Y-63545466D01*
X147378548Y-63570452D01*
X147403534Y-63600897D01*
X147422101Y-63635633D01*
X147433535Y-63673326D01*
X147438000Y-63718661D01*
X147438000Y-64805339D01*
X147433535Y-64850674D01*
X147422101Y-64888367D01*
X147403534Y-64923103D01*
X147378548Y-64953548D01*
X147348103Y-64978534D01*
X147313367Y-64997101D01*
X147275674Y-65008535D01*
X147230339Y-65013000D01*
X146393661Y-65013000D01*
X146348326Y-65008535D01*
X146310633Y-64997101D01*
X146275897Y-64978534D01*
X146245452Y-64953548D01*
X146220466Y-64923103D01*
X146201899Y-64888367D01*
X146190465Y-64850674D01*
X146186000Y-64805339D01*
X146186000Y-63718661D01*
X146190465Y-63673326D01*
X146201899Y-63635633D01*
X146220466Y-63600897D01*
X146245452Y-63570452D01*
X146275897Y-63545466D01*
X146310633Y-63526899D01*
X146348326Y-63515465D01*
X146393661Y-63511000D01*
X147230339Y-63511000D01*
X147275674Y-63515465D01*
X147275674Y-63515465D01*
G37*
G36*
X189878762Y-62514051D02*
G01*
X189950729Y-62521139D01*
X190120568Y-62572659D01*
X190277093Y-62656324D01*
X190312831Y-62685654D01*
X190414288Y-62768916D01*
X190497550Y-62870373D01*
X190526880Y-62906111D01*
X190610545Y-63062636D01*
X190662065Y-63232475D01*
X190679461Y-63409102D01*
X190662065Y-63585729D01*
X190610545Y-63755568D01*
X190526880Y-63912093D01*
X190497550Y-63947831D01*
X190414288Y-64049288D01*
X190312831Y-64132550D01*
X190277093Y-64161880D01*
X190120568Y-64245545D01*
X189950729Y-64297065D01*
X189884544Y-64303584D01*
X189818362Y-64310102D01*
X189729842Y-64310102D01*
X189663660Y-64303584D01*
X189597475Y-64297065D01*
X189427636Y-64245545D01*
X189271111Y-64161880D01*
X189235373Y-64132550D01*
X189133916Y-64049288D01*
X189050654Y-63947831D01*
X189021324Y-63912093D01*
X188937659Y-63755568D01*
X188886139Y-63585729D01*
X188868743Y-63409102D01*
X188886139Y-63232475D01*
X188937659Y-63062636D01*
X189021324Y-62906111D01*
X189050654Y-62870373D01*
X189133916Y-62768916D01*
X189235373Y-62685654D01*
X189271111Y-62656324D01*
X189427636Y-62572659D01*
X189597475Y-62521139D01*
X189669442Y-62514051D01*
X189729842Y-62508102D01*
X189818362Y-62508102D01*
X189878762Y-62514051D01*
X189878762Y-62514051D01*
G37*
G36*
X158724600Y-64109600D02*
G01*
X156997400Y-64109600D01*
X156997400Y-63144400D01*
X158724600Y-63144400D01*
X158724600Y-64109600D01*
X158724600Y-64109600D01*
G37*
G36*
X153136600Y-64109600D02*
G01*
X151409400Y-64109600D01*
X151409400Y-63144400D01*
X153136600Y-63144400D01*
X153136600Y-64109600D01*
X153136600Y-64109600D01*
G37*
G36*
X188088494Y-60718570D02*
G01*
X188154678Y-60725088D01*
X188324517Y-60776608D01*
X188481042Y-60860273D01*
X188516780Y-60889603D01*
X188618237Y-60972865D01*
X188701499Y-61074322D01*
X188730829Y-61110060D01*
X188814494Y-61266585D01*
X188866014Y-61436424D01*
X188883410Y-61613051D01*
X188866014Y-61789678D01*
X188814494Y-61959517D01*
X188730829Y-62116042D01*
X188701499Y-62151780D01*
X188618237Y-62253237D01*
X188516780Y-62336499D01*
X188481042Y-62365829D01*
X188324517Y-62449494D01*
X188154678Y-62501014D01*
X188088494Y-62507532D01*
X188022311Y-62514051D01*
X187933791Y-62514051D01*
X187867608Y-62507532D01*
X187801424Y-62501014D01*
X187631585Y-62449494D01*
X187475060Y-62365829D01*
X187439322Y-62336499D01*
X187337865Y-62253237D01*
X187254603Y-62151780D01*
X187225273Y-62116042D01*
X187141608Y-61959517D01*
X187090088Y-61789678D01*
X187072692Y-61613051D01*
X187090088Y-61436424D01*
X187141608Y-61266585D01*
X187225273Y-61110060D01*
X187254603Y-61074322D01*
X187337865Y-60972865D01*
X187439322Y-60889603D01*
X187475060Y-60860273D01*
X187631585Y-60776608D01*
X187801424Y-60725088D01*
X187867608Y-60718570D01*
X187933791Y-60712051D01*
X188022311Y-60712051D01*
X188088494Y-60718570D01*
X188088494Y-60718570D01*
G37*
G36*
X109456098Y-56729033D02*
G01*
X109920350Y-56921332D01*
X109920352Y-56921333D01*
X110338168Y-57200509D01*
X110693491Y-57555832D01*
X110873321Y-57824967D01*
X110972668Y-57973650D01*
X111164967Y-58437902D01*
X111263000Y-58930747D01*
X111263000Y-59433253D01*
X111164967Y-59926098D01*
X110972668Y-60390350D01*
X110972667Y-60390352D01*
X110693491Y-60808168D01*
X110338168Y-61163491D01*
X109920352Y-61442667D01*
X109920351Y-61442668D01*
X109920350Y-61442668D01*
X109456098Y-61634967D01*
X108963253Y-61733000D01*
X108460747Y-61733000D01*
X107967902Y-61634967D01*
X107503650Y-61442668D01*
X107503649Y-61442668D01*
X107503648Y-61442667D01*
X107085832Y-61163491D01*
X106730509Y-60808168D01*
X106451333Y-60390352D01*
X106451332Y-60390350D01*
X106259033Y-59926098D01*
X106161000Y-59433253D01*
X106161000Y-58930747D01*
X106259033Y-58437902D01*
X106451332Y-57973650D01*
X106550679Y-57824967D01*
X106730509Y-57555832D01*
X107085832Y-57200509D01*
X107503648Y-56921333D01*
X107503650Y-56921332D01*
X107967902Y-56729033D01*
X108460747Y-56631000D01*
X108963253Y-56631000D01*
X109456098Y-56729033D01*
X109456098Y-56729033D01*
G37*
G36*
X187456206Y-59817000D02*
G01*
X186182000Y-61091206D01*
X184907794Y-59817000D01*
X186182000Y-58542794D01*
X187456206Y-59817000D01*
X187456206Y-59817000D01*
G37*
G36*
X180576098Y-52919033D02*
G01*
X180913352Y-53058728D01*
X181040352Y-53111333D01*
X181458168Y-53390509D01*
X181813491Y-53745832D01*
X182092667Y-54163648D01*
X182092668Y-54163650D01*
X182284967Y-54627902D01*
X182383000Y-55120747D01*
X182383000Y-55623253D01*
X182284967Y-56116098D01*
X182092668Y-56580350D01*
X182092667Y-56580352D01*
X181813491Y-56998168D01*
X181458168Y-57353491D01*
X181040352Y-57632667D01*
X181040351Y-57632668D01*
X181040350Y-57632668D01*
X180576098Y-57824967D01*
X180083253Y-57923000D01*
X179580747Y-57923000D01*
X179087902Y-57824967D01*
X178623650Y-57632668D01*
X178623649Y-57632668D01*
X178623648Y-57632667D01*
X178205832Y-57353491D01*
X177850509Y-56998168D01*
X177571333Y-56580352D01*
X177571332Y-56580350D01*
X177379033Y-56116098D01*
X177281000Y-55623253D01*
X177281000Y-55120747D01*
X177379033Y-54627902D01*
X177571332Y-54163650D01*
X177571333Y-54163648D01*
X177850509Y-53745832D01*
X178205832Y-53390509D01*
X178623648Y-53111333D01*
X178750648Y-53058728D01*
X179087902Y-52919033D01*
X179580747Y-52821000D01*
X180083253Y-52821000D01*
X180576098Y-52919033D01*
X180576098Y-52919033D01*
G37*
G36*
X141400765Y-55005620D02*
G01*
X141590288Y-55084123D01*
X141760854Y-55198092D01*
X141905908Y-55343146D01*
X142013395Y-55504011D01*
X142019878Y-55513714D01*
X142098380Y-55703235D01*
X142138400Y-55904430D01*
X142138400Y-56109570D01*
X142123669Y-56183627D01*
X142098380Y-56310765D01*
X142019877Y-56500288D01*
X141905908Y-56670854D01*
X141760854Y-56815908D01*
X141590288Y-56929877D01*
X141590287Y-56929878D01*
X141590286Y-56929878D01*
X141400765Y-57008380D01*
X141199570Y-57048400D01*
X140994430Y-57048400D01*
X140793235Y-57008380D01*
X140603714Y-56929878D01*
X140603713Y-56929878D01*
X140603712Y-56929877D01*
X140433146Y-56815908D01*
X140288092Y-56670854D01*
X140174123Y-56500288D01*
X140095620Y-56310765D01*
X140070331Y-56183627D01*
X140055600Y-56109570D01*
X140055600Y-55904430D01*
X140095620Y-55703235D01*
X140174122Y-55513714D01*
X140180605Y-55504011D01*
X140288092Y-55343146D01*
X140433146Y-55198092D01*
X140603712Y-55084123D01*
X140793235Y-55005620D01*
X140994430Y-54965600D01*
X141199570Y-54965600D01*
X141400765Y-55005620D01*
X141400765Y-55005620D01*
G37*
G36*
X138860765Y-55005620D02*
G01*
X139050288Y-55084123D01*
X139220854Y-55198092D01*
X139365908Y-55343146D01*
X139473395Y-55504011D01*
X139479878Y-55513714D01*
X139558380Y-55703235D01*
X139598400Y-55904430D01*
X139598400Y-56109570D01*
X139583669Y-56183627D01*
X139558380Y-56310765D01*
X139479877Y-56500288D01*
X139365908Y-56670854D01*
X139220854Y-56815908D01*
X139050288Y-56929877D01*
X139050287Y-56929878D01*
X139050286Y-56929878D01*
X138860765Y-57008380D01*
X138659570Y-57048400D01*
X138454430Y-57048400D01*
X138253235Y-57008380D01*
X138063714Y-56929878D01*
X138063713Y-56929878D01*
X138063712Y-56929877D01*
X137893146Y-56815908D01*
X137748092Y-56670854D01*
X137634123Y-56500288D01*
X137555620Y-56310765D01*
X137530331Y-56183627D01*
X137515600Y-56109570D01*
X137515600Y-55904430D01*
X137555620Y-55703235D01*
X137634122Y-55513714D01*
X137640605Y-55504011D01*
X137748092Y-55343146D01*
X137893146Y-55198092D01*
X138063712Y-55084123D01*
X138253235Y-55005620D01*
X138454430Y-54965600D01*
X138659570Y-54965600D01*
X138860765Y-55005620D01*
X138860765Y-55005620D01*
G37*
G36*
X143940765Y-55005620D02*
G01*
X144130288Y-55084123D01*
X144300854Y-55198092D01*
X144445908Y-55343146D01*
X144553395Y-55504011D01*
X144559878Y-55513714D01*
X144638380Y-55703235D01*
X144678400Y-55904430D01*
X144678400Y-56109570D01*
X144663669Y-56183627D01*
X144638380Y-56310765D01*
X144559877Y-56500288D01*
X144445908Y-56670854D01*
X144300854Y-56815908D01*
X144130288Y-56929877D01*
X144130287Y-56929878D01*
X144130286Y-56929878D01*
X143940765Y-57008380D01*
X143739570Y-57048400D01*
X143534430Y-57048400D01*
X143333235Y-57008380D01*
X143143714Y-56929878D01*
X143143713Y-56929878D01*
X143143712Y-56929877D01*
X142973146Y-56815908D01*
X142828092Y-56670854D01*
X142714123Y-56500288D01*
X142635620Y-56310765D01*
X142610331Y-56183627D01*
X142595600Y-56109570D01*
X142595600Y-55904430D01*
X142635620Y-55703235D01*
X142714122Y-55513714D01*
X142720605Y-55504011D01*
X142828092Y-55343146D01*
X142973146Y-55198092D01*
X143143712Y-55084123D01*
X143333235Y-55005620D01*
X143534430Y-54965600D01*
X143739570Y-54965600D01*
X143940765Y-55005620D01*
X143940765Y-55005620D01*
G37*
G36*
X157717443Y-55112519D02*
G01*
X157783627Y-55119037D01*
X157953466Y-55170557D01*
X158109991Y-55254222D01*
X158145729Y-55283552D01*
X158247186Y-55366814D01*
X158330448Y-55468271D01*
X158359778Y-55504009D01*
X158443443Y-55660534D01*
X158494963Y-55830373D01*
X158512359Y-56007000D01*
X158494963Y-56183627D01*
X158443443Y-56353466D01*
X158359778Y-56509991D01*
X158330448Y-56545729D01*
X158247186Y-56647186D01*
X158147454Y-56729033D01*
X158109991Y-56759778D01*
X157953466Y-56843443D01*
X157783627Y-56894963D01*
X157717442Y-56901482D01*
X157651260Y-56908000D01*
X157562740Y-56908000D01*
X157496558Y-56901482D01*
X157430373Y-56894963D01*
X157260534Y-56843443D01*
X157104009Y-56759778D01*
X157066546Y-56729033D01*
X156966814Y-56647186D01*
X156883552Y-56545729D01*
X156854222Y-56509991D01*
X156770557Y-56353466D01*
X156719037Y-56183627D01*
X156701641Y-56007000D01*
X156719037Y-55830373D01*
X156770557Y-55660534D01*
X156854222Y-55504009D01*
X156883552Y-55468271D01*
X156966814Y-55366814D01*
X157068271Y-55283552D01*
X157104009Y-55254222D01*
X157260534Y-55170557D01*
X157430373Y-55119037D01*
X157496557Y-55112519D01*
X157562740Y-55106000D01*
X157651260Y-55106000D01*
X157717443Y-55112519D01*
X157717443Y-55112519D01*
G37*
G36*
X155177443Y-55112519D02*
G01*
X155243627Y-55119037D01*
X155413466Y-55170557D01*
X155569991Y-55254222D01*
X155605729Y-55283552D01*
X155707186Y-55366814D01*
X155790448Y-55468271D01*
X155819778Y-55504009D01*
X155903443Y-55660534D01*
X155954963Y-55830373D01*
X155972359Y-56007000D01*
X155954963Y-56183627D01*
X155903443Y-56353466D01*
X155819778Y-56509991D01*
X155790448Y-56545729D01*
X155707186Y-56647186D01*
X155607454Y-56729033D01*
X155569991Y-56759778D01*
X155413466Y-56843443D01*
X155243627Y-56894963D01*
X155177442Y-56901482D01*
X155111260Y-56908000D01*
X155022740Y-56908000D01*
X154956558Y-56901482D01*
X154890373Y-56894963D01*
X154720534Y-56843443D01*
X154564009Y-56759778D01*
X154526546Y-56729033D01*
X154426814Y-56647186D01*
X154343552Y-56545729D01*
X154314222Y-56509991D01*
X154230557Y-56353466D01*
X154179037Y-56183627D01*
X154161641Y-56007000D01*
X154179037Y-55830373D01*
X154230557Y-55660534D01*
X154314222Y-55504009D01*
X154343552Y-55468271D01*
X154426814Y-55366814D01*
X154528271Y-55283552D01*
X154564009Y-55254222D01*
X154720534Y-55170557D01*
X154890373Y-55119037D01*
X154956557Y-55112519D01*
X155022740Y-55106000D01*
X155111260Y-55106000D01*
X155177443Y-55112519D01*
X155177443Y-55112519D01*
G37*
G36*
X160257443Y-55112519D02*
G01*
X160323627Y-55119037D01*
X160493466Y-55170557D01*
X160649991Y-55254222D01*
X160685729Y-55283552D01*
X160787186Y-55366814D01*
X160870448Y-55468271D01*
X160899778Y-55504009D01*
X160983443Y-55660534D01*
X161034963Y-55830373D01*
X161052359Y-56007000D01*
X161034963Y-56183627D01*
X160983443Y-56353466D01*
X160899778Y-56509991D01*
X160870448Y-56545729D01*
X160787186Y-56647186D01*
X160687454Y-56729033D01*
X160649991Y-56759778D01*
X160493466Y-56843443D01*
X160323627Y-56894963D01*
X160257442Y-56901482D01*
X160191260Y-56908000D01*
X160102740Y-56908000D01*
X160036558Y-56901482D01*
X159970373Y-56894963D01*
X159800534Y-56843443D01*
X159644009Y-56759778D01*
X159606546Y-56729033D01*
X159506814Y-56647186D01*
X159423552Y-56545729D01*
X159394222Y-56509991D01*
X159310557Y-56353466D01*
X159259037Y-56183627D01*
X159241641Y-56007000D01*
X159259037Y-55830373D01*
X159310557Y-55660534D01*
X159394222Y-55504009D01*
X159423552Y-55468271D01*
X159506814Y-55366814D01*
X159608271Y-55283552D01*
X159644009Y-55254222D01*
X159800534Y-55170557D01*
X159970373Y-55119037D01*
X160036557Y-55112519D01*
X160102740Y-55106000D01*
X160191260Y-55106000D01*
X160257443Y-55112519D01*
X160257443Y-55112519D01*
G37*
G36*
X162797443Y-55112519D02*
G01*
X162863627Y-55119037D01*
X163033466Y-55170557D01*
X163189991Y-55254222D01*
X163225729Y-55283552D01*
X163327186Y-55366814D01*
X163410448Y-55468271D01*
X163439778Y-55504009D01*
X163523443Y-55660534D01*
X163574963Y-55830373D01*
X163592359Y-56007000D01*
X163574963Y-56183627D01*
X163523443Y-56353466D01*
X163439778Y-56509991D01*
X163410448Y-56545729D01*
X163327186Y-56647186D01*
X163227454Y-56729033D01*
X163189991Y-56759778D01*
X163033466Y-56843443D01*
X162863627Y-56894963D01*
X162797442Y-56901482D01*
X162731260Y-56908000D01*
X162642740Y-56908000D01*
X162576558Y-56901482D01*
X162510373Y-56894963D01*
X162340534Y-56843443D01*
X162184009Y-56759778D01*
X162146546Y-56729033D01*
X162046814Y-56647186D01*
X161963552Y-56545729D01*
X161934222Y-56509991D01*
X161850557Y-56353466D01*
X161799037Y-56183627D01*
X161781641Y-56007000D01*
X161799037Y-55830373D01*
X161850557Y-55660534D01*
X161934222Y-55504009D01*
X161963552Y-55468271D01*
X162046814Y-55366814D01*
X162148271Y-55283552D01*
X162184009Y-55254222D01*
X162340534Y-55170557D01*
X162510373Y-55119037D01*
X162576557Y-55112519D01*
X162642740Y-55106000D01*
X162731260Y-55106000D01*
X162797443Y-55112519D01*
X162797443Y-55112519D01*
G37*
G36*
X153428000Y-56908000D02*
G01*
X151626000Y-56908000D01*
X151626000Y-55106000D01*
X153428000Y-55106000D01*
X153428000Y-56908000D01*
X153428000Y-56908000D01*
G37*
G36*
X114431206Y-54102000D02*
G01*
X113157000Y-55376206D01*
X111882794Y-54102000D01*
X113157000Y-52827794D01*
X114431206Y-54102000D01*
X114431206Y-54102000D01*
G37*
G36*
X140130765Y-52465620D02*
G01*
X140320288Y-52544123D01*
X140490854Y-52658092D01*
X140635908Y-52803146D01*
X140749877Y-52973712D01*
X140749878Y-52973714D01*
X140819746Y-53142391D01*
X140828380Y-53163235D01*
X140868400Y-53364431D01*
X140868400Y-53569569D01*
X140828380Y-53770765D01*
X140749877Y-53960288D01*
X140635908Y-54130854D01*
X140490854Y-54275908D01*
X140320288Y-54389877D01*
X140320287Y-54389878D01*
X140320286Y-54389878D01*
X140130765Y-54468380D01*
X139929570Y-54508400D01*
X139724430Y-54508400D01*
X139523235Y-54468380D01*
X139333714Y-54389878D01*
X139333713Y-54389878D01*
X139333712Y-54389877D01*
X139163146Y-54275908D01*
X139018092Y-54130854D01*
X138904123Y-53960288D01*
X138825620Y-53770765D01*
X138785600Y-53569569D01*
X138785600Y-53364431D01*
X138825620Y-53163235D01*
X138834254Y-53142391D01*
X138904122Y-52973714D01*
X138904123Y-52973712D01*
X139018092Y-52803146D01*
X139163146Y-52658092D01*
X139333712Y-52544123D01*
X139523235Y-52465620D01*
X139724430Y-52425600D01*
X139929570Y-52425600D01*
X140130765Y-52465620D01*
X140130765Y-52465620D01*
G37*
G36*
X137590765Y-52465620D02*
G01*
X137780288Y-52544123D01*
X137950854Y-52658092D01*
X138095908Y-52803146D01*
X138209877Y-52973712D01*
X138209878Y-52973714D01*
X138279746Y-53142391D01*
X138288380Y-53163235D01*
X138328400Y-53364431D01*
X138328400Y-53569569D01*
X138288380Y-53770765D01*
X138209877Y-53960288D01*
X138095908Y-54130854D01*
X137950854Y-54275908D01*
X137780288Y-54389877D01*
X137780287Y-54389878D01*
X137780286Y-54389878D01*
X137590765Y-54468380D01*
X137389570Y-54508400D01*
X137184430Y-54508400D01*
X136983235Y-54468380D01*
X136793714Y-54389878D01*
X136793713Y-54389878D01*
X136793712Y-54389877D01*
X136623146Y-54275908D01*
X136478092Y-54130854D01*
X136364123Y-53960288D01*
X136285620Y-53770765D01*
X136245600Y-53569569D01*
X136245600Y-53364431D01*
X136285620Y-53163235D01*
X136294254Y-53142391D01*
X136364122Y-52973714D01*
X136364123Y-52973712D01*
X136478092Y-52803146D01*
X136623146Y-52658092D01*
X136793712Y-52544123D01*
X136983235Y-52465620D01*
X137184430Y-52425600D01*
X137389570Y-52425600D01*
X137590765Y-52465620D01*
X137590765Y-52465620D01*
G37*
G36*
X142670765Y-52465620D02*
G01*
X142860288Y-52544123D01*
X143030854Y-52658092D01*
X143175908Y-52803146D01*
X143289877Y-52973712D01*
X143289878Y-52973714D01*
X143359746Y-53142391D01*
X143368380Y-53163235D01*
X143408400Y-53364431D01*
X143408400Y-53569569D01*
X143368380Y-53770765D01*
X143289877Y-53960288D01*
X143175908Y-54130854D01*
X143030854Y-54275908D01*
X142860288Y-54389877D01*
X142860287Y-54389878D01*
X142860286Y-54389878D01*
X142670765Y-54468380D01*
X142469570Y-54508400D01*
X142264430Y-54508400D01*
X142063235Y-54468380D01*
X141873714Y-54389878D01*
X141873713Y-54389878D01*
X141873712Y-54389877D01*
X141703146Y-54275908D01*
X141558092Y-54130854D01*
X141444123Y-53960288D01*
X141365620Y-53770765D01*
X141325600Y-53569569D01*
X141325600Y-53364431D01*
X141365620Y-53163235D01*
X141374254Y-53142391D01*
X141444122Y-52973714D01*
X141444123Y-52973712D01*
X141558092Y-52803146D01*
X141703146Y-52658092D01*
X141873712Y-52544123D01*
X142063235Y-52465620D01*
X142264430Y-52425600D01*
X142469570Y-52425600D01*
X142670765Y-52465620D01*
X142670765Y-52465620D01*
G37*
G36*
X115057711Y-51410898D02*
G01*
X115129678Y-51417986D01*
X115299517Y-51469506D01*
X115456042Y-51553171D01*
X115491780Y-51582501D01*
X115593237Y-51665763D01*
X115676499Y-51767220D01*
X115705829Y-51802958D01*
X115789494Y-51959483D01*
X115841014Y-52129322D01*
X115858410Y-52305949D01*
X115841014Y-52482576D01*
X115789494Y-52652415D01*
X115705829Y-52808940D01*
X115690356Y-52827794D01*
X115593237Y-52946135D01*
X115491780Y-53029397D01*
X115456042Y-53058727D01*
X115299517Y-53142392D01*
X115129678Y-53193912D01*
X115063493Y-53200431D01*
X114997311Y-53206949D01*
X114908791Y-53206949D01*
X114842609Y-53200431D01*
X114776424Y-53193912D01*
X114606585Y-53142392D01*
X114450060Y-53058727D01*
X114414322Y-53029397D01*
X114312865Y-52946135D01*
X114215746Y-52827794D01*
X114200273Y-52808940D01*
X114116608Y-52652415D01*
X114065088Y-52482576D01*
X114047692Y-52305949D01*
X114065088Y-52129322D01*
X114116608Y-51959483D01*
X114200273Y-51802958D01*
X114229603Y-51767220D01*
X114312865Y-51665763D01*
X114414322Y-51582501D01*
X114450060Y-51553171D01*
X114606585Y-51469506D01*
X114776424Y-51417986D01*
X114848391Y-51410898D01*
X114908791Y-51404949D01*
X114997311Y-51404949D01*
X115057711Y-51410898D01*
X115057711Y-51410898D01*
G37*
G36*
X174861098Y-47839033D02*
G01*
X175325350Y-48031332D01*
X175325352Y-48031333D01*
X175743168Y-48310509D01*
X176098491Y-48665832D01*
X176377667Y-49083648D01*
X176377668Y-49083650D01*
X176569967Y-49547902D01*
X176668000Y-50040747D01*
X176668000Y-50543253D01*
X176569967Y-51036098D01*
X176377668Y-51500350D01*
X176377667Y-51500352D01*
X176098491Y-51918168D01*
X175743168Y-52273491D01*
X175325352Y-52552667D01*
X175325351Y-52552668D01*
X175325350Y-52552668D01*
X174861098Y-52744967D01*
X174368253Y-52843000D01*
X173865747Y-52843000D01*
X173372902Y-52744967D01*
X172908650Y-52552668D01*
X172908649Y-52552668D01*
X172908648Y-52552667D01*
X172490832Y-52273491D01*
X172135509Y-51918168D01*
X171856333Y-51500352D01*
X171856332Y-51500350D01*
X171664033Y-51036098D01*
X171566000Y-50543253D01*
X171566000Y-50040747D01*
X171664033Y-49547902D01*
X171856332Y-49083650D01*
X171856333Y-49083648D01*
X172135509Y-48665832D01*
X172490832Y-48310509D01*
X172908648Y-48031333D01*
X172908650Y-48031332D01*
X173372902Y-47839033D01*
X173865747Y-47741000D01*
X174368253Y-47741000D01*
X174861098Y-47839033D01*
X174861098Y-47839033D01*
G37*
G36*
X116859544Y-49615416D02*
G01*
X116925729Y-49621935D01*
X117095568Y-49673455D01*
X117252093Y-49757120D01*
X117287831Y-49786450D01*
X117389288Y-49869712D01*
X117472550Y-49971169D01*
X117501880Y-50006907D01*
X117585545Y-50163432D01*
X117637065Y-50333271D01*
X117654461Y-50509898D01*
X117637065Y-50686525D01*
X117585545Y-50856364D01*
X117501880Y-51012889D01*
X117482833Y-51036098D01*
X117389288Y-51150084D01*
X117287831Y-51233346D01*
X117252093Y-51262676D01*
X117095568Y-51346341D01*
X116925729Y-51397861D01*
X116859545Y-51404379D01*
X116793362Y-51410898D01*
X116704842Y-51410898D01*
X116638660Y-51404380D01*
X116572475Y-51397861D01*
X116402636Y-51346341D01*
X116246111Y-51262676D01*
X116210373Y-51233346D01*
X116108916Y-51150084D01*
X116015371Y-51036098D01*
X115996324Y-51012889D01*
X115912659Y-50856364D01*
X115861139Y-50686525D01*
X115843743Y-50509898D01*
X115861139Y-50333271D01*
X115912659Y-50163432D01*
X115996324Y-50006907D01*
X116025654Y-49971169D01*
X116108916Y-49869712D01*
X116210373Y-49786450D01*
X116246111Y-49757120D01*
X116402636Y-49673455D01*
X116572475Y-49621935D01*
X116638660Y-49615416D01*
X116704842Y-49608898D01*
X116793362Y-49608898D01*
X116859544Y-49615416D01*
X116859544Y-49615416D01*
G37*
G36*
X146045805Y-45456175D02*
G01*
X146176005Y-45510106D01*
X146360136Y-45586375D01*
X146643026Y-45775396D01*
X146883604Y-46015974D01*
X147072625Y-46298864D01*
X147087576Y-46334960D01*
X147202825Y-46613195D01*
X147269200Y-46946884D01*
X147269200Y-47287116D01*
X147202825Y-47620805D01*
X147153038Y-47741000D01*
X147072625Y-47935136D01*
X146883604Y-48218026D01*
X146643026Y-48458604D01*
X146360136Y-48647625D01*
X146176005Y-48723894D01*
X146045805Y-48777825D01*
X145712116Y-48844200D01*
X145371884Y-48844200D01*
X145038195Y-48777825D01*
X144907995Y-48723894D01*
X144723864Y-48647625D01*
X144440974Y-48458604D01*
X144200396Y-48218026D01*
X144011375Y-47935136D01*
X143930962Y-47741000D01*
X143881175Y-47620805D01*
X143814800Y-47287116D01*
X143814800Y-46946884D01*
X143881175Y-46613195D01*
X143996424Y-46334960D01*
X144011375Y-46298864D01*
X144200396Y-46015974D01*
X144440974Y-45775396D01*
X144723864Y-45586375D01*
X144907995Y-45510106D01*
X145038195Y-45456175D01*
X145371884Y-45389800D01*
X145712116Y-45389800D01*
X146045805Y-45456175D01*
X146045805Y-45456175D01*
G37*
G36*
X135885805Y-45456175D02*
G01*
X136016005Y-45510106D01*
X136200136Y-45586375D01*
X136483026Y-45775396D01*
X136723604Y-46015974D01*
X136912625Y-46298864D01*
X136927576Y-46334960D01*
X137042825Y-46613195D01*
X137109200Y-46946884D01*
X137109200Y-47287116D01*
X137042825Y-47620805D01*
X136993038Y-47741000D01*
X136912625Y-47935136D01*
X136723604Y-48218026D01*
X136483026Y-48458604D01*
X136200136Y-48647625D01*
X136016005Y-48723894D01*
X135885805Y-48777825D01*
X135552116Y-48844200D01*
X135211884Y-48844200D01*
X134878195Y-48777825D01*
X134747995Y-48723894D01*
X134563864Y-48647625D01*
X134280974Y-48458604D01*
X134040396Y-48218026D01*
X133851375Y-47935136D01*
X133770962Y-47741000D01*
X133721175Y-47620805D01*
X133654800Y-47287116D01*
X133654800Y-46946884D01*
X133721175Y-46613195D01*
X133836424Y-46334960D01*
X133851375Y-46298864D01*
X134040396Y-46015974D01*
X134280974Y-45775396D01*
X134563864Y-45586375D01*
X134747995Y-45510106D01*
X134878195Y-45456175D01*
X135211884Y-45389800D01*
X135552116Y-45389800D01*
X135885805Y-45456175D01*
X135885805Y-45456175D01*
G37*
G36*
X167507256Y-45508298D02*
G01*
X167613579Y-45529447D01*
X167914042Y-45653903D01*
X168184451Y-45834585D01*
X168414415Y-46064549D01*
X168595097Y-46334958D01*
X168714227Y-46622562D01*
X168719553Y-46635422D01*
X168783000Y-46954389D01*
X168783000Y-47279611D01*
X168781507Y-47287116D01*
X168719553Y-47598579D01*
X168595097Y-47899042D01*
X168414415Y-48169451D01*
X168184451Y-48399415D01*
X167914042Y-48580097D01*
X167613579Y-48704553D01*
X167507256Y-48725702D01*
X167294611Y-48768000D01*
X166969389Y-48768000D01*
X166756744Y-48725702D01*
X166650421Y-48704553D01*
X166349958Y-48580097D01*
X166079549Y-48399415D01*
X165849585Y-48169451D01*
X165668903Y-47899042D01*
X165544447Y-47598579D01*
X165482493Y-47287116D01*
X165481000Y-47279611D01*
X165481000Y-46954389D01*
X165544447Y-46635422D01*
X165549774Y-46622562D01*
X165668903Y-46334958D01*
X165849585Y-46064549D01*
X166079549Y-45834585D01*
X166349958Y-45653903D01*
X166650421Y-45529447D01*
X166756744Y-45508298D01*
X166969389Y-45466000D01*
X167294611Y-45466000D01*
X167507256Y-45508298D01*
X167507256Y-45508298D01*
G37*
G36*
X123692256Y-45508298D02*
G01*
X123798579Y-45529447D01*
X124099042Y-45653903D01*
X124369451Y-45834585D01*
X124599415Y-46064549D01*
X124780097Y-46334958D01*
X124899227Y-46622562D01*
X124904553Y-46635422D01*
X124968000Y-46954389D01*
X124968000Y-47279611D01*
X124966507Y-47287116D01*
X124904553Y-47598579D01*
X124780097Y-47899042D01*
X124599415Y-48169451D01*
X124369451Y-48399415D01*
X124099042Y-48580097D01*
X123798579Y-48704553D01*
X123692256Y-48725702D01*
X123479611Y-48768000D01*
X123154389Y-48768000D01*
X122941744Y-48725702D01*
X122835421Y-48704553D01*
X122534958Y-48580097D01*
X122264549Y-48399415D01*
X122034585Y-48169451D01*
X121853903Y-47899042D01*
X121729447Y-47598579D01*
X121667493Y-47287116D01*
X121666000Y-47279611D01*
X121666000Y-46954389D01*
X121729447Y-46635422D01*
X121734774Y-46622562D01*
X121853903Y-46334958D01*
X122034585Y-46064549D01*
X122264549Y-45834585D01*
X122534958Y-45653903D01*
X122835421Y-45529447D01*
X122941744Y-45508298D01*
X123154389Y-45466000D01*
X123479611Y-45466000D01*
X123692256Y-45508298D01*
X123692256Y-45508298D01*
G37*
G36*
X161612562Y-44925181D02*
G01*
X161647481Y-44935774D01*
X161679663Y-44952976D01*
X161707873Y-44976127D01*
X161731024Y-45004337D01*
X161748226Y-45036519D01*
X161758819Y-45071438D01*
X161763000Y-45113895D01*
X161763000Y-46580105D01*
X161758819Y-46622562D01*
X161748226Y-46657481D01*
X161731024Y-46689663D01*
X161707873Y-46717873D01*
X161679663Y-46741024D01*
X161647481Y-46758226D01*
X161612562Y-46768819D01*
X161570105Y-46773000D01*
X160428895Y-46773000D01*
X160386438Y-46768819D01*
X160351519Y-46758226D01*
X160319337Y-46741024D01*
X160291127Y-46717873D01*
X160267976Y-46689663D01*
X160250774Y-46657481D01*
X160240181Y-46622562D01*
X160236000Y-46580105D01*
X160236000Y-45113895D01*
X160240181Y-45071438D01*
X160250774Y-45036519D01*
X160267976Y-45004337D01*
X160291127Y-44976127D01*
X160319337Y-44952976D01*
X160351519Y-44935774D01*
X160386438Y-44925181D01*
X160428895Y-44921000D01*
X161570105Y-44921000D01*
X161612562Y-44925181D01*
X161612562Y-44925181D01*
G37*
G36*
X158637562Y-44925181D02*
G01*
X158672481Y-44935774D01*
X158704663Y-44952976D01*
X158732873Y-44976127D01*
X158756024Y-45004337D01*
X158773226Y-45036519D01*
X158783819Y-45071438D01*
X158788000Y-45113895D01*
X158788000Y-46580105D01*
X158783819Y-46622562D01*
X158773226Y-46657481D01*
X158756024Y-46689663D01*
X158732873Y-46717873D01*
X158704663Y-46741024D01*
X158672481Y-46758226D01*
X158637562Y-46768819D01*
X158595105Y-46773000D01*
X157453895Y-46773000D01*
X157411438Y-46768819D01*
X157376519Y-46758226D01*
X157344337Y-46741024D01*
X157316127Y-46717873D01*
X157292976Y-46689663D01*
X157275774Y-46657481D01*
X157265181Y-46622562D01*
X157261000Y-46580105D01*
X157261000Y-45113895D01*
X157265181Y-45071438D01*
X157275774Y-45036519D01*
X157292976Y-45004337D01*
X157316127Y-44976127D01*
X157344337Y-44952976D01*
X157376519Y-44935774D01*
X157411438Y-44925181D01*
X157453895Y-44921000D01*
X158595105Y-44921000D01*
X158637562Y-44925181D01*
X158637562Y-44925181D01*
G37*
G36*
X154405674Y-45100465D02*
G01*
X154443367Y-45111899D01*
X154478103Y-45130466D01*
X154508548Y-45155452D01*
X154533534Y-45185897D01*
X154552101Y-45220633D01*
X154563535Y-45258326D01*
X154568000Y-45303661D01*
X154568000Y-46390339D01*
X154563535Y-46435674D01*
X154552101Y-46473367D01*
X154533534Y-46508103D01*
X154508548Y-46538548D01*
X154478103Y-46563534D01*
X154443367Y-46582101D01*
X154405674Y-46593535D01*
X154360339Y-46598000D01*
X153523661Y-46598000D01*
X153478326Y-46593535D01*
X153440633Y-46582101D01*
X153405897Y-46563534D01*
X153375452Y-46538548D01*
X153350466Y-46508103D01*
X153331899Y-46473367D01*
X153320465Y-46435674D01*
X153316000Y-46390339D01*
X153316000Y-45303661D01*
X153320465Y-45258326D01*
X153331899Y-45220633D01*
X153350466Y-45185897D01*
X153375452Y-45155452D01*
X153405897Y-45130466D01*
X153440633Y-45111899D01*
X153478326Y-45100465D01*
X153523661Y-45096000D01*
X154360339Y-45096000D01*
X154405674Y-45100465D01*
X154405674Y-45100465D01*
G37*
G36*
X152355674Y-45100465D02*
G01*
X152393367Y-45111899D01*
X152428103Y-45130466D01*
X152458548Y-45155452D01*
X152483534Y-45185897D01*
X152502101Y-45220633D01*
X152513535Y-45258326D01*
X152518000Y-45303661D01*
X152518000Y-46390339D01*
X152513535Y-46435674D01*
X152502101Y-46473367D01*
X152483534Y-46508103D01*
X152458548Y-46538548D01*
X152428103Y-46563534D01*
X152393367Y-46582101D01*
X152355674Y-46593535D01*
X152310339Y-46598000D01*
X151473661Y-46598000D01*
X151428326Y-46593535D01*
X151390633Y-46582101D01*
X151355897Y-46563534D01*
X151325452Y-46538548D01*
X151300466Y-46508103D01*
X151281899Y-46473367D01*
X151270465Y-46435674D01*
X151266000Y-46390339D01*
X151266000Y-45303661D01*
X151270465Y-45258326D01*
X151281899Y-45220633D01*
X151300466Y-45185897D01*
X151325452Y-45155452D01*
X151355897Y-45130466D01*
X151390633Y-45111899D01*
X151428326Y-45100465D01*
X151473661Y-45096000D01*
X152310339Y-45096000D01*
X152355674Y-45100465D01*
X152355674Y-45100465D01*
G37*
M02*
