G04 #@! TF.GenerationSoftware,KiCad,Pcbnew,5.0.1-33cea8e~68~ubuntu18.04.1*
G04 #@! TF.CreationDate,2018-12-09T11:33:24-08:00*
G04 #@! TF.ProjectId,quad_copter_pcb,717561645F636F707465725F7063622E,rev?*
G04 #@! TF.SameCoordinates,Original*
G04 #@! TF.FileFunction,Paste,Top*
G04 #@! TF.FilePolarity,Positive*
%FSLAX46Y46*%
G04 Gerber Fmt 4.6, Leading zero omitted, Abs format (unit mm)*
G04 Created by KiCad (PCBNEW 5.0.1-33cea8e~68~ubuntu18.04.1) date Sun 09 Dec 2018 11:33:24 AM PST*
%MOMM*%
%LPD*%
G01*
G04 APERTURE LIST*
%ADD10R,1.500000X0.200000*%
%ADD11R,0.200000X1.500000*%
%ADD12C,0.100000*%
%ADD13C,1.150000*%
%ADD14C,1.425000*%
%ADD15C,0.950000*%
%ADD16R,2.000000X1.350000*%
%ADD17R,0.700000X1.825000*%
%ADD18R,1.500000X2.000000*%
%ADD19R,1.650000X0.400000*%
%ADD20R,2.500000X1.430000*%
%ADD21R,1.524000X0.762000*%
%ADD22R,1.100000X4.600000*%
%ADD23R,5.250000X4.550000*%
%ADD24R,1.930400X5.334000*%
%ADD25R,2.100000X1.700000*%
G04 APERTURE END LIST*
D10*
G04 #@! TO.C,U4*
X143922000Y-83592000D03*
X143922000Y-83992000D03*
X143922000Y-84392000D03*
X143922000Y-84792000D03*
X143922000Y-85192000D03*
X143922000Y-85592000D03*
X143922000Y-85992000D03*
X143922000Y-86392000D03*
X143922000Y-86792000D03*
X143922000Y-87192000D03*
X143922000Y-87592000D03*
X143922000Y-87992000D03*
X143922000Y-88392000D03*
X143922000Y-88792000D03*
X143922000Y-89192000D03*
X143922000Y-89592000D03*
X143922000Y-89992000D03*
X143922000Y-90392000D03*
X143922000Y-90792000D03*
X143922000Y-91192000D03*
X143922000Y-91592000D03*
X143922000Y-91992000D03*
X143922000Y-92392000D03*
X143922000Y-92792000D03*
X143922000Y-93192000D03*
D11*
X145822000Y-95092000D03*
X146222000Y-95092000D03*
X146622000Y-95092000D03*
X147022000Y-95092000D03*
X147422000Y-95092000D03*
X147822000Y-95092000D03*
X148222000Y-95092000D03*
X148622000Y-95092000D03*
X149022000Y-95092000D03*
X149422000Y-95092000D03*
X149822000Y-95092000D03*
X150222000Y-95092000D03*
X150622000Y-95092000D03*
X151022000Y-95092000D03*
X151422000Y-95092000D03*
X151822000Y-95092000D03*
X152222000Y-95092000D03*
X152622000Y-95092000D03*
X153022000Y-95092000D03*
X153422000Y-95092000D03*
X153822000Y-95092000D03*
X154222000Y-95092000D03*
X154622000Y-95092000D03*
X155022000Y-95092000D03*
X155422000Y-95092000D03*
D10*
X157322000Y-93192000D03*
X157322000Y-92792000D03*
X157322000Y-92392000D03*
X157322000Y-91992000D03*
X157322000Y-91592000D03*
X157322000Y-91192000D03*
X157322000Y-90792000D03*
X157322000Y-90392000D03*
X157322000Y-89992000D03*
X157322000Y-89592000D03*
X157322000Y-89192000D03*
X157322000Y-88792000D03*
X157322000Y-88392000D03*
X157322000Y-87992000D03*
X157322000Y-87592000D03*
X157322000Y-87192000D03*
X157322000Y-86792000D03*
X157322000Y-86392000D03*
X157322000Y-85992000D03*
X157322000Y-85592000D03*
X157322000Y-85192000D03*
X157322000Y-84792000D03*
X157322000Y-84392000D03*
X157322000Y-83992000D03*
X157322000Y-83592000D03*
D11*
X155422000Y-81692000D03*
X155022000Y-81692000D03*
X154622000Y-81692000D03*
X154222000Y-81692000D03*
X153822000Y-81692000D03*
X153422000Y-81692000D03*
X153022000Y-81692000D03*
X152622000Y-81692000D03*
X152222000Y-81692000D03*
X151822000Y-81692000D03*
X151422000Y-81692000D03*
X151022000Y-81692000D03*
X150622000Y-81692000D03*
X150222000Y-81692000D03*
X149822000Y-81692000D03*
X149422000Y-81692000D03*
X149022000Y-81692000D03*
X148622000Y-81692000D03*
X148222000Y-81692000D03*
X147822000Y-81692000D03*
X147422000Y-81692000D03*
X147022000Y-81692000D03*
X146622000Y-81692000D03*
X146222000Y-81692000D03*
X145822000Y-81692000D03*
G04 #@! TD*
D12*
G04 #@! TO.C,C1*
G36*
X173341505Y-77533204D02*
X173365773Y-77536804D01*
X173389572Y-77542765D01*
X173412671Y-77551030D01*
X173434850Y-77561520D01*
X173455893Y-77574132D01*
X173475599Y-77588747D01*
X173493777Y-77605223D01*
X173510253Y-77623401D01*
X173524868Y-77643107D01*
X173537480Y-77664150D01*
X173547970Y-77686329D01*
X173556235Y-77709428D01*
X173562196Y-77733227D01*
X173565796Y-77757495D01*
X173567000Y-77781999D01*
X173567000Y-78682001D01*
X173565796Y-78706505D01*
X173562196Y-78730773D01*
X173556235Y-78754572D01*
X173547970Y-78777671D01*
X173537480Y-78799850D01*
X173524868Y-78820893D01*
X173510253Y-78840599D01*
X173493777Y-78858777D01*
X173475599Y-78875253D01*
X173455893Y-78889868D01*
X173434850Y-78902480D01*
X173412671Y-78912970D01*
X173389572Y-78921235D01*
X173365773Y-78927196D01*
X173341505Y-78930796D01*
X173317001Y-78932000D01*
X172666999Y-78932000D01*
X172642495Y-78930796D01*
X172618227Y-78927196D01*
X172594428Y-78921235D01*
X172571329Y-78912970D01*
X172549150Y-78902480D01*
X172528107Y-78889868D01*
X172508401Y-78875253D01*
X172490223Y-78858777D01*
X172473747Y-78840599D01*
X172459132Y-78820893D01*
X172446520Y-78799850D01*
X172436030Y-78777671D01*
X172427765Y-78754572D01*
X172421804Y-78730773D01*
X172418204Y-78706505D01*
X172417000Y-78682001D01*
X172417000Y-77781999D01*
X172418204Y-77757495D01*
X172421804Y-77733227D01*
X172427765Y-77709428D01*
X172436030Y-77686329D01*
X172446520Y-77664150D01*
X172459132Y-77643107D01*
X172473747Y-77623401D01*
X172490223Y-77605223D01*
X172508401Y-77588747D01*
X172528107Y-77574132D01*
X172549150Y-77561520D01*
X172571329Y-77551030D01*
X172594428Y-77542765D01*
X172618227Y-77536804D01*
X172642495Y-77533204D01*
X172666999Y-77532000D01*
X173317001Y-77532000D01*
X173341505Y-77533204D01*
X173341505Y-77533204D01*
G37*
D13*
X172992000Y-78232000D03*
D12*
G36*
X171291505Y-77533204D02*
X171315773Y-77536804D01*
X171339572Y-77542765D01*
X171362671Y-77551030D01*
X171384850Y-77561520D01*
X171405893Y-77574132D01*
X171425599Y-77588747D01*
X171443777Y-77605223D01*
X171460253Y-77623401D01*
X171474868Y-77643107D01*
X171487480Y-77664150D01*
X171497970Y-77686329D01*
X171506235Y-77709428D01*
X171512196Y-77733227D01*
X171515796Y-77757495D01*
X171517000Y-77781999D01*
X171517000Y-78682001D01*
X171515796Y-78706505D01*
X171512196Y-78730773D01*
X171506235Y-78754572D01*
X171497970Y-78777671D01*
X171487480Y-78799850D01*
X171474868Y-78820893D01*
X171460253Y-78840599D01*
X171443777Y-78858777D01*
X171425599Y-78875253D01*
X171405893Y-78889868D01*
X171384850Y-78902480D01*
X171362671Y-78912970D01*
X171339572Y-78921235D01*
X171315773Y-78927196D01*
X171291505Y-78930796D01*
X171267001Y-78932000D01*
X170616999Y-78932000D01*
X170592495Y-78930796D01*
X170568227Y-78927196D01*
X170544428Y-78921235D01*
X170521329Y-78912970D01*
X170499150Y-78902480D01*
X170478107Y-78889868D01*
X170458401Y-78875253D01*
X170440223Y-78858777D01*
X170423747Y-78840599D01*
X170409132Y-78820893D01*
X170396520Y-78799850D01*
X170386030Y-78777671D01*
X170377765Y-78754572D01*
X170371804Y-78730773D01*
X170368204Y-78706505D01*
X170367000Y-78682001D01*
X170367000Y-77781999D01*
X170368204Y-77757495D01*
X170371804Y-77733227D01*
X170377765Y-77709428D01*
X170386030Y-77686329D01*
X170396520Y-77664150D01*
X170409132Y-77643107D01*
X170423747Y-77623401D01*
X170440223Y-77605223D01*
X170458401Y-77588747D01*
X170478107Y-77574132D01*
X170499150Y-77561520D01*
X170521329Y-77551030D01*
X170544428Y-77542765D01*
X170568227Y-77536804D01*
X170592495Y-77533204D01*
X170616999Y-77532000D01*
X171267001Y-77532000D01*
X171291505Y-77533204D01*
X171291505Y-77533204D01*
G37*
D13*
X170942000Y-78232000D03*
G04 #@! TD*
D12*
G04 #@! TO.C,C2*
G36*
X180119004Y-77358204D02*
X180143273Y-77361804D01*
X180167071Y-77367765D01*
X180190171Y-77376030D01*
X180212349Y-77386520D01*
X180233393Y-77399133D01*
X180253098Y-77413747D01*
X180271277Y-77430223D01*
X180287753Y-77448402D01*
X180302367Y-77468107D01*
X180314980Y-77489151D01*
X180325470Y-77511329D01*
X180333735Y-77534429D01*
X180339696Y-77558227D01*
X180343296Y-77582496D01*
X180344500Y-77607000D01*
X180344500Y-78857000D01*
X180343296Y-78881504D01*
X180339696Y-78905773D01*
X180333735Y-78929571D01*
X180325470Y-78952671D01*
X180314980Y-78974849D01*
X180302367Y-78995893D01*
X180287753Y-79015598D01*
X180271277Y-79033777D01*
X180253098Y-79050253D01*
X180233393Y-79064867D01*
X180212349Y-79077480D01*
X180190171Y-79087970D01*
X180167071Y-79096235D01*
X180143273Y-79102196D01*
X180119004Y-79105796D01*
X180094500Y-79107000D01*
X179169500Y-79107000D01*
X179144996Y-79105796D01*
X179120727Y-79102196D01*
X179096929Y-79096235D01*
X179073829Y-79087970D01*
X179051651Y-79077480D01*
X179030607Y-79064867D01*
X179010902Y-79050253D01*
X178992723Y-79033777D01*
X178976247Y-79015598D01*
X178961633Y-78995893D01*
X178949020Y-78974849D01*
X178938530Y-78952671D01*
X178930265Y-78929571D01*
X178924304Y-78905773D01*
X178920704Y-78881504D01*
X178919500Y-78857000D01*
X178919500Y-77607000D01*
X178920704Y-77582496D01*
X178924304Y-77558227D01*
X178930265Y-77534429D01*
X178938530Y-77511329D01*
X178949020Y-77489151D01*
X178961633Y-77468107D01*
X178976247Y-77448402D01*
X178992723Y-77430223D01*
X179010902Y-77413747D01*
X179030607Y-77399133D01*
X179051651Y-77386520D01*
X179073829Y-77376030D01*
X179096929Y-77367765D01*
X179120727Y-77361804D01*
X179144996Y-77358204D01*
X179169500Y-77357000D01*
X180094500Y-77357000D01*
X180119004Y-77358204D01*
X180119004Y-77358204D01*
G37*
D14*
X179632000Y-78232000D03*
D12*
G36*
X177144004Y-77358204D02*
X177168273Y-77361804D01*
X177192071Y-77367765D01*
X177215171Y-77376030D01*
X177237349Y-77386520D01*
X177258393Y-77399133D01*
X177278098Y-77413747D01*
X177296277Y-77430223D01*
X177312753Y-77448402D01*
X177327367Y-77468107D01*
X177339980Y-77489151D01*
X177350470Y-77511329D01*
X177358735Y-77534429D01*
X177364696Y-77558227D01*
X177368296Y-77582496D01*
X177369500Y-77607000D01*
X177369500Y-78857000D01*
X177368296Y-78881504D01*
X177364696Y-78905773D01*
X177358735Y-78929571D01*
X177350470Y-78952671D01*
X177339980Y-78974849D01*
X177327367Y-78995893D01*
X177312753Y-79015598D01*
X177296277Y-79033777D01*
X177278098Y-79050253D01*
X177258393Y-79064867D01*
X177237349Y-79077480D01*
X177215171Y-79087970D01*
X177192071Y-79096235D01*
X177168273Y-79102196D01*
X177144004Y-79105796D01*
X177119500Y-79107000D01*
X176194500Y-79107000D01*
X176169996Y-79105796D01*
X176145727Y-79102196D01*
X176121929Y-79096235D01*
X176098829Y-79087970D01*
X176076651Y-79077480D01*
X176055607Y-79064867D01*
X176035902Y-79050253D01*
X176017723Y-79033777D01*
X176001247Y-79015598D01*
X175986633Y-78995893D01*
X175974020Y-78974849D01*
X175963530Y-78952671D01*
X175955265Y-78929571D01*
X175949304Y-78905773D01*
X175945704Y-78881504D01*
X175944500Y-78857000D01*
X175944500Y-77607000D01*
X175945704Y-77582496D01*
X175949304Y-77558227D01*
X175955265Y-77534429D01*
X175963530Y-77511329D01*
X175974020Y-77489151D01*
X175986633Y-77468107D01*
X176001247Y-77448402D01*
X176017723Y-77430223D01*
X176035902Y-77413747D01*
X176055607Y-77399133D01*
X176076651Y-77386520D01*
X176098829Y-77376030D01*
X176121929Y-77367765D01*
X176145727Y-77361804D01*
X176169996Y-77358204D01*
X176194500Y-77357000D01*
X177119500Y-77357000D01*
X177144004Y-77358204D01*
X177144004Y-77358204D01*
G37*
D14*
X176657000Y-78232000D03*
G04 #@! TD*
D12*
G04 #@! TO.C,C4*
G36*
X173107779Y-85963144D02*
X173130834Y-85966563D01*
X173153443Y-85972227D01*
X173175387Y-85980079D01*
X173196457Y-85990044D01*
X173216448Y-86002026D01*
X173235168Y-86015910D01*
X173252438Y-86031562D01*
X173268090Y-86048832D01*
X173281974Y-86067552D01*
X173293956Y-86087543D01*
X173303921Y-86108613D01*
X173311773Y-86130557D01*
X173317437Y-86153166D01*
X173320856Y-86176221D01*
X173322000Y-86199500D01*
X173322000Y-86774500D01*
X173320856Y-86797779D01*
X173317437Y-86820834D01*
X173311773Y-86843443D01*
X173303921Y-86865387D01*
X173293956Y-86886457D01*
X173281974Y-86906448D01*
X173268090Y-86925168D01*
X173252438Y-86942438D01*
X173235168Y-86958090D01*
X173216448Y-86971974D01*
X173196457Y-86983956D01*
X173175387Y-86993921D01*
X173153443Y-87001773D01*
X173130834Y-87007437D01*
X173107779Y-87010856D01*
X173084500Y-87012000D01*
X172609500Y-87012000D01*
X172586221Y-87010856D01*
X172563166Y-87007437D01*
X172540557Y-87001773D01*
X172518613Y-86993921D01*
X172497543Y-86983956D01*
X172477552Y-86971974D01*
X172458832Y-86958090D01*
X172441562Y-86942438D01*
X172425910Y-86925168D01*
X172412026Y-86906448D01*
X172400044Y-86886457D01*
X172390079Y-86865387D01*
X172382227Y-86843443D01*
X172376563Y-86820834D01*
X172373144Y-86797779D01*
X172372000Y-86774500D01*
X172372000Y-86199500D01*
X172373144Y-86176221D01*
X172376563Y-86153166D01*
X172382227Y-86130557D01*
X172390079Y-86108613D01*
X172400044Y-86087543D01*
X172412026Y-86067552D01*
X172425910Y-86048832D01*
X172441562Y-86031562D01*
X172458832Y-86015910D01*
X172477552Y-86002026D01*
X172497543Y-85990044D01*
X172518613Y-85980079D01*
X172540557Y-85972227D01*
X172563166Y-85966563D01*
X172586221Y-85963144D01*
X172609500Y-85962000D01*
X173084500Y-85962000D01*
X173107779Y-85963144D01*
X173107779Y-85963144D01*
G37*
D15*
X172847000Y-86487000D03*
D12*
G36*
X173107779Y-84213144D02*
X173130834Y-84216563D01*
X173153443Y-84222227D01*
X173175387Y-84230079D01*
X173196457Y-84240044D01*
X173216448Y-84252026D01*
X173235168Y-84265910D01*
X173252438Y-84281562D01*
X173268090Y-84298832D01*
X173281974Y-84317552D01*
X173293956Y-84337543D01*
X173303921Y-84358613D01*
X173311773Y-84380557D01*
X173317437Y-84403166D01*
X173320856Y-84426221D01*
X173322000Y-84449500D01*
X173322000Y-85024500D01*
X173320856Y-85047779D01*
X173317437Y-85070834D01*
X173311773Y-85093443D01*
X173303921Y-85115387D01*
X173293956Y-85136457D01*
X173281974Y-85156448D01*
X173268090Y-85175168D01*
X173252438Y-85192438D01*
X173235168Y-85208090D01*
X173216448Y-85221974D01*
X173196457Y-85233956D01*
X173175387Y-85243921D01*
X173153443Y-85251773D01*
X173130834Y-85257437D01*
X173107779Y-85260856D01*
X173084500Y-85262000D01*
X172609500Y-85262000D01*
X172586221Y-85260856D01*
X172563166Y-85257437D01*
X172540557Y-85251773D01*
X172518613Y-85243921D01*
X172497543Y-85233956D01*
X172477552Y-85221974D01*
X172458832Y-85208090D01*
X172441562Y-85192438D01*
X172425910Y-85175168D01*
X172412026Y-85156448D01*
X172400044Y-85136457D01*
X172390079Y-85115387D01*
X172382227Y-85093443D01*
X172376563Y-85070834D01*
X172373144Y-85047779D01*
X172372000Y-85024500D01*
X172372000Y-84449500D01*
X172373144Y-84426221D01*
X172376563Y-84403166D01*
X172382227Y-84380557D01*
X172390079Y-84358613D01*
X172400044Y-84337543D01*
X172412026Y-84317552D01*
X172425910Y-84298832D01*
X172441562Y-84281562D01*
X172458832Y-84265910D01*
X172477552Y-84252026D01*
X172497543Y-84240044D01*
X172518613Y-84230079D01*
X172540557Y-84222227D01*
X172563166Y-84216563D01*
X172586221Y-84213144D01*
X172609500Y-84212000D01*
X173084500Y-84212000D01*
X173107779Y-84213144D01*
X173107779Y-84213144D01*
G37*
D15*
X172847000Y-84737000D03*
G04 #@! TD*
D12*
G04 #@! TO.C,C5*
G36*
X173107779Y-94698144D02*
X173130834Y-94701563D01*
X173153443Y-94707227D01*
X173175387Y-94715079D01*
X173196457Y-94725044D01*
X173216448Y-94737026D01*
X173235168Y-94750910D01*
X173252438Y-94766562D01*
X173268090Y-94783832D01*
X173281974Y-94802552D01*
X173293956Y-94822543D01*
X173303921Y-94843613D01*
X173311773Y-94865557D01*
X173317437Y-94888166D01*
X173320856Y-94911221D01*
X173322000Y-94934500D01*
X173322000Y-95509500D01*
X173320856Y-95532779D01*
X173317437Y-95555834D01*
X173311773Y-95578443D01*
X173303921Y-95600387D01*
X173293956Y-95621457D01*
X173281974Y-95641448D01*
X173268090Y-95660168D01*
X173252438Y-95677438D01*
X173235168Y-95693090D01*
X173216448Y-95706974D01*
X173196457Y-95718956D01*
X173175387Y-95728921D01*
X173153443Y-95736773D01*
X173130834Y-95742437D01*
X173107779Y-95745856D01*
X173084500Y-95747000D01*
X172609500Y-95747000D01*
X172586221Y-95745856D01*
X172563166Y-95742437D01*
X172540557Y-95736773D01*
X172518613Y-95728921D01*
X172497543Y-95718956D01*
X172477552Y-95706974D01*
X172458832Y-95693090D01*
X172441562Y-95677438D01*
X172425910Y-95660168D01*
X172412026Y-95641448D01*
X172400044Y-95621457D01*
X172390079Y-95600387D01*
X172382227Y-95578443D01*
X172376563Y-95555834D01*
X172373144Y-95532779D01*
X172372000Y-95509500D01*
X172372000Y-94934500D01*
X172373144Y-94911221D01*
X172376563Y-94888166D01*
X172382227Y-94865557D01*
X172390079Y-94843613D01*
X172400044Y-94822543D01*
X172412026Y-94802552D01*
X172425910Y-94783832D01*
X172441562Y-94766562D01*
X172458832Y-94750910D01*
X172477552Y-94737026D01*
X172497543Y-94725044D01*
X172518613Y-94715079D01*
X172540557Y-94707227D01*
X172563166Y-94701563D01*
X172586221Y-94698144D01*
X172609500Y-94697000D01*
X173084500Y-94697000D01*
X173107779Y-94698144D01*
X173107779Y-94698144D01*
G37*
D15*
X172847000Y-95222000D03*
D12*
G36*
X173107779Y-92948144D02*
X173130834Y-92951563D01*
X173153443Y-92957227D01*
X173175387Y-92965079D01*
X173196457Y-92975044D01*
X173216448Y-92987026D01*
X173235168Y-93000910D01*
X173252438Y-93016562D01*
X173268090Y-93033832D01*
X173281974Y-93052552D01*
X173293956Y-93072543D01*
X173303921Y-93093613D01*
X173311773Y-93115557D01*
X173317437Y-93138166D01*
X173320856Y-93161221D01*
X173322000Y-93184500D01*
X173322000Y-93759500D01*
X173320856Y-93782779D01*
X173317437Y-93805834D01*
X173311773Y-93828443D01*
X173303921Y-93850387D01*
X173293956Y-93871457D01*
X173281974Y-93891448D01*
X173268090Y-93910168D01*
X173252438Y-93927438D01*
X173235168Y-93943090D01*
X173216448Y-93956974D01*
X173196457Y-93968956D01*
X173175387Y-93978921D01*
X173153443Y-93986773D01*
X173130834Y-93992437D01*
X173107779Y-93995856D01*
X173084500Y-93997000D01*
X172609500Y-93997000D01*
X172586221Y-93995856D01*
X172563166Y-93992437D01*
X172540557Y-93986773D01*
X172518613Y-93978921D01*
X172497543Y-93968956D01*
X172477552Y-93956974D01*
X172458832Y-93943090D01*
X172441562Y-93927438D01*
X172425910Y-93910168D01*
X172412026Y-93891448D01*
X172400044Y-93871457D01*
X172390079Y-93850387D01*
X172382227Y-93828443D01*
X172376563Y-93805834D01*
X172373144Y-93782779D01*
X172372000Y-93759500D01*
X172372000Y-93184500D01*
X172373144Y-93161221D01*
X172376563Y-93138166D01*
X172382227Y-93115557D01*
X172390079Y-93093613D01*
X172400044Y-93072543D01*
X172412026Y-93052552D01*
X172425910Y-93033832D01*
X172441562Y-93016562D01*
X172458832Y-93000910D01*
X172477552Y-92987026D01*
X172497543Y-92975044D01*
X172518613Y-92965079D01*
X172540557Y-92957227D01*
X172563166Y-92951563D01*
X172586221Y-92948144D01*
X172609500Y-92947000D01*
X173084500Y-92947000D01*
X173107779Y-92948144D01*
X173107779Y-92948144D01*
G37*
D15*
X172847000Y-93472000D03*
G04 #@! TD*
D12*
G04 #@! TO.C,C6*
G36*
X149182779Y-76488144D02*
X149205834Y-76491563D01*
X149228443Y-76497227D01*
X149250387Y-76505079D01*
X149271457Y-76515044D01*
X149291448Y-76527026D01*
X149310168Y-76540910D01*
X149327438Y-76556562D01*
X149343090Y-76573832D01*
X149356974Y-76592552D01*
X149368956Y-76612543D01*
X149378921Y-76633613D01*
X149386773Y-76655557D01*
X149392437Y-76678166D01*
X149395856Y-76701221D01*
X149397000Y-76724500D01*
X149397000Y-77199500D01*
X149395856Y-77222779D01*
X149392437Y-77245834D01*
X149386773Y-77268443D01*
X149378921Y-77290387D01*
X149368956Y-77311457D01*
X149356974Y-77331448D01*
X149343090Y-77350168D01*
X149327438Y-77367438D01*
X149310168Y-77383090D01*
X149291448Y-77396974D01*
X149271457Y-77408956D01*
X149250387Y-77418921D01*
X149228443Y-77426773D01*
X149205834Y-77432437D01*
X149182779Y-77435856D01*
X149159500Y-77437000D01*
X148584500Y-77437000D01*
X148561221Y-77435856D01*
X148538166Y-77432437D01*
X148515557Y-77426773D01*
X148493613Y-77418921D01*
X148472543Y-77408956D01*
X148452552Y-77396974D01*
X148433832Y-77383090D01*
X148416562Y-77367438D01*
X148400910Y-77350168D01*
X148387026Y-77331448D01*
X148375044Y-77311457D01*
X148365079Y-77290387D01*
X148357227Y-77268443D01*
X148351563Y-77245834D01*
X148348144Y-77222779D01*
X148347000Y-77199500D01*
X148347000Y-76724500D01*
X148348144Y-76701221D01*
X148351563Y-76678166D01*
X148357227Y-76655557D01*
X148365079Y-76633613D01*
X148375044Y-76612543D01*
X148387026Y-76592552D01*
X148400910Y-76573832D01*
X148416562Y-76556562D01*
X148433832Y-76540910D01*
X148452552Y-76527026D01*
X148472543Y-76515044D01*
X148493613Y-76505079D01*
X148515557Y-76497227D01*
X148538166Y-76491563D01*
X148561221Y-76488144D01*
X148584500Y-76487000D01*
X149159500Y-76487000D01*
X149182779Y-76488144D01*
X149182779Y-76488144D01*
G37*
D15*
X148872000Y-76962000D03*
D12*
G36*
X150932779Y-76488144D02*
X150955834Y-76491563D01*
X150978443Y-76497227D01*
X151000387Y-76505079D01*
X151021457Y-76515044D01*
X151041448Y-76527026D01*
X151060168Y-76540910D01*
X151077438Y-76556562D01*
X151093090Y-76573832D01*
X151106974Y-76592552D01*
X151118956Y-76612543D01*
X151128921Y-76633613D01*
X151136773Y-76655557D01*
X151142437Y-76678166D01*
X151145856Y-76701221D01*
X151147000Y-76724500D01*
X151147000Y-77199500D01*
X151145856Y-77222779D01*
X151142437Y-77245834D01*
X151136773Y-77268443D01*
X151128921Y-77290387D01*
X151118956Y-77311457D01*
X151106974Y-77331448D01*
X151093090Y-77350168D01*
X151077438Y-77367438D01*
X151060168Y-77383090D01*
X151041448Y-77396974D01*
X151021457Y-77408956D01*
X151000387Y-77418921D01*
X150978443Y-77426773D01*
X150955834Y-77432437D01*
X150932779Y-77435856D01*
X150909500Y-77437000D01*
X150334500Y-77437000D01*
X150311221Y-77435856D01*
X150288166Y-77432437D01*
X150265557Y-77426773D01*
X150243613Y-77418921D01*
X150222543Y-77408956D01*
X150202552Y-77396974D01*
X150183832Y-77383090D01*
X150166562Y-77367438D01*
X150150910Y-77350168D01*
X150137026Y-77331448D01*
X150125044Y-77311457D01*
X150115079Y-77290387D01*
X150107227Y-77268443D01*
X150101563Y-77245834D01*
X150098144Y-77222779D01*
X150097000Y-77199500D01*
X150097000Y-76724500D01*
X150098144Y-76701221D01*
X150101563Y-76678166D01*
X150107227Y-76655557D01*
X150115079Y-76633613D01*
X150125044Y-76612543D01*
X150137026Y-76592552D01*
X150150910Y-76573832D01*
X150166562Y-76556562D01*
X150183832Y-76540910D01*
X150202552Y-76527026D01*
X150222543Y-76515044D01*
X150243613Y-76505079D01*
X150265557Y-76497227D01*
X150288166Y-76491563D01*
X150311221Y-76488144D01*
X150334500Y-76487000D01*
X150909500Y-76487000D01*
X150932779Y-76488144D01*
X150932779Y-76488144D01*
G37*
D15*
X150622000Y-76962000D03*
G04 #@! TD*
D12*
G04 #@! TO.C,C7*
G36*
X160788779Y-90408144D02*
X160811834Y-90411563D01*
X160834443Y-90417227D01*
X160856387Y-90425079D01*
X160877457Y-90435044D01*
X160897448Y-90447026D01*
X160916168Y-90460910D01*
X160933438Y-90476562D01*
X160949090Y-90493832D01*
X160962974Y-90512552D01*
X160974956Y-90532543D01*
X160984921Y-90553613D01*
X160992773Y-90575557D01*
X160998437Y-90598166D01*
X161001856Y-90621221D01*
X161003000Y-90644500D01*
X161003000Y-91219500D01*
X161001856Y-91242779D01*
X160998437Y-91265834D01*
X160992773Y-91288443D01*
X160984921Y-91310387D01*
X160974956Y-91331457D01*
X160962974Y-91351448D01*
X160949090Y-91370168D01*
X160933438Y-91387438D01*
X160916168Y-91403090D01*
X160897448Y-91416974D01*
X160877457Y-91428956D01*
X160856387Y-91438921D01*
X160834443Y-91446773D01*
X160811834Y-91452437D01*
X160788779Y-91455856D01*
X160765500Y-91457000D01*
X160290500Y-91457000D01*
X160267221Y-91455856D01*
X160244166Y-91452437D01*
X160221557Y-91446773D01*
X160199613Y-91438921D01*
X160178543Y-91428956D01*
X160158552Y-91416974D01*
X160139832Y-91403090D01*
X160122562Y-91387438D01*
X160106910Y-91370168D01*
X160093026Y-91351448D01*
X160081044Y-91331457D01*
X160071079Y-91310387D01*
X160063227Y-91288443D01*
X160057563Y-91265834D01*
X160054144Y-91242779D01*
X160053000Y-91219500D01*
X160053000Y-90644500D01*
X160054144Y-90621221D01*
X160057563Y-90598166D01*
X160063227Y-90575557D01*
X160071079Y-90553613D01*
X160081044Y-90532543D01*
X160093026Y-90512552D01*
X160106910Y-90493832D01*
X160122562Y-90476562D01*
X160139832Y-90460910D01*
X160158552Y-90447026D01*
X160178543Y-90435044D01*
X160199613Y-90425079D01*
X160221557Y-90417227D01*
X160244166Y-90411563D01*
X160267221Y-90408144D01*
X160290500Y-90407000D01*
X160765500Y-90407000D01*
X160788779Y-90408144D01*
X160788779Y-90408144D01*
G37*
D15*
X160528000Y-90932000D03*
D12*
G36*
X160788779Y-88658144D02*
X160811834Y-88661563D01*
X160834443Y-88667227D01*
X160856387Y-88675079D01*
X160877457Y-88685044D01*
X160897448Y-88697026D01*
X160916168Y-88710910D01*
X160933438Y-88726562D01*
X160949090Y-88743832D01*
X160962974Y-88762552D01*
X160974956Y-88782543D01*
X160984921Y-88803613D01*
X160992773Y-88825557D01*
X160998437Y-88848166D01*
X161001856Y-88871221D01*
X161003000Y-88894500D01*
X161003000Y-89469500D01*
X161001856Y-89492779D01*
X160998437Y-89515834D01*
X160992773Y-89538443D01*
X160984921Y-89560387D01*
X160974956Y-89581457D01*
X160962974Y-89601448D01*
X160949090Y-89620168D01*
X160933438Y-89637438D01*
X160916168Y-89653090D01*
X160897448Y-89666974D01*
X160877457Y-89678956D01*
X160856387Y-89688921D01*
X160834443Y-89696773D01*
X160811834Y-89702437D01*
X160788779Y-89705856D01*
X160765500Y-89707000D01*
X160290500Y-89707000D01*
X160267221Y-89705856D01*
X160244166Y-89702437D01*
X160221557Y-89696773D01*
X160199613Y-89688921D01*
X160178543Y-89678956D01*
X160158552Y-89666974D01*
X160139832Y-89653090D01*
X160122562Y-89637438D01*
X160106910Y-89620168D01*
X160093026Y-89601448D01*
X160081044Y-89581457D01*
X160071079Y-89560387D01*
X160063227Y-89538443D01*
X160057563Y-89515834D01*
X160054144Y-89492779D01*
X160053000Y-89469500D01*
X160053000Y-88894500D01*
X160054144Y-88871221D01*
X160057563Y-88848166D01*
X160063227Y-88825557D01*
X160071079Y-88803613D01*
X160081044Y-88782543D01*
X160093026Y-88762552D01*
X160106910Y-88743832D01*
X160122562Y-88726562D01*
X160139832Y-88710910D01*
X160158552Y-88697026D01*
X160178543Y-88685044D01*
X160199613Y-88675079D01*
X160221557Y-88667227D01*
X160244166Y-88661563D01*
X160267221Y-88658144D01*
X160290500Y-88657000D01*
X160765500Y-88657000D01*
X160788779Y-88658144D01*
X160788779Y-88658144D01*
G37*
D15*
X160528000Y-89182000D03*
G04 #@! TD*
D12*
G04 #@! TO.C,C8*
G36*
X144610779Y-76488144D02*
X144633834Y-76491563D01*
X144656443Y-76497227D01*
X144678387Y-76505079D01*
X144699457Y-76515044D01*
X144719448Y-76527026D01*
X144738168Y-76540910D01*
X144755438Y-76556562D01*
X144771090Y-76573832D01*
X144784974Y-76592552D01*
X144796956Y-76612543D01*
X144806921Y-76633613D01*
X144814773Y-76655557D01*
X144820437Y-76678166D01*
X144823856Y-76701221D01*
X144825000Y-76724500D01*
X144825000Y-77199500D01*
X144823856Y-77222779D01*
X144820437Y-77245834D01*
X144814773Y-77268443D01*
X144806921Y-77290387D01*
X144796956Y-77311457D01*
X144784974Y-77331448D01*
X144771090Y-77350168D01*
X144755438Y-77367438D01*
X144738168Y-77383090D01*
X144719448Y-77396974D01*
X144699457Y-77408956D01*
X144678387Y-77418921D01*
X144656443Y-77426773D01*
X144633834Y-77432437D01*
X144610779Y-77435856D01*
X144587500Y-77437000D01*
X144012500Y-77437000D01*
X143989221Y-77435856D01*
X143966166Y-77432437D01*
X143943557Y-77426773D01*
X143921613Y-77418921D01*
X143900543Y-77408956D01*
X143880552Y-77396974D01*
X143861832Y-77383090D01*
X143844562Y-77367438D01*
X143828910Y-77350168D01*
X143815026Y-77331448D01*
X143803044Y-77311457D01*
X143793079Y-77290387D01*
X143785227Y-77268443D01*
X143779563Y-77245834D01*
X143776144Y-77222779D01*
X143775000Y-77199500D01*
X143775000Y-76724500D01*
X143776144Y-76701221D01*
X143779563Y-76678166D01*
X143785227Y-76655557D01*
X143793079Y-76633613D01*
X143803044Y-76612543D01*
X143815026Y-76592552D01*
X143828910Y-76573832D01*
X143844562Y-76556562D01*
X143861832Y-76540910D01*
X143880552Y-76527026D01*
X143900543Y-76515044D01*
X143921613Y-76505079D01*
X143943557Y-76497227D01*
X143966166Y-76491563D01*
X143989221Y-76488144D01*
X144012500Y-76487000D01*
X144587500Y-76487000D01*
X144610779Y-76488144D01*
X144610779Y-76488144D01*
G37*
D15*
X144300000Y-76962000D03*
D12*
G36*
X146360779Y-76488144D02*
X146383834Y-76491563D01*
X146406443Y-76497227D01*
X146428387Y-76505079D01*
X146449457Y-76515044D01*
X146469448Y-76527026D01*
X146488168Y-76540910D01*
X146505438Y-76556562D01*
X146521090Y-76573832D01*
X146534974Y-76592552D01*
X146546956Y-76612543D01*
X146556921Y-76633613D01*
X146564773Y-76655557D01*
X146570437Y-76678166D01*
X146573856Y-76701221D01*
X146575000Y-76724500D01*
X146575000Y-77199500D01*
X146573856Y-77222779D01*
X146570437Y-77245834D01*
X146564773Y-77268443D01*
X146556921Y-77290387D01*
X146546956Y-77311457D01*
X146534974Y-77331448D01*
X146521090Y-77350168D01*
X146505438Y-77367438D01*
X146488168Y-77383090D01*
X146469448Y-77396974D01*
X146449457Y-77408956D01*
X146428387Y-77418921D01*
X146406443Y-77426773D01*
X146383834Y-77432437D01*
X146360779Y-77435856D01*
X146337500Y-77437000D01*
X145762500Y-77437000D01*
X145739221Y-77435856D01*
X145716166Y-77432437D01*
X145693557Y-77426773D01*
X145671613Y-77418921D01*
X145650543Y-77408956D01*
X145630552Y-77396974D01*
X145611832Y-77383090D01*
X145594562Y-77367438D01*
X145578910Y-77350168D01*
X145565026Y-77331448D01*
X145553044Y-77311457D01*
X145543079Y-77290387D01*
X145535227Y-77268443D01*
X145529563Y-77245834D01*
X145526144Y-77222779D01*
X145525000Y-77199500D01*
X145525000Y-76724500D01*
X145526144Y-76701221D01*
X145529563Y-76678166D01*
X145535227Y-76655557D01*
X145543079Y-76633613D01*
X145553044Y-76612543D01*
X145565026Y-76592552D01*
X145578910Y-76573832D01*
X145594562Y-76556562D01*
X145611832Y-76540910D01*
X145630552Y-76527026D01*
X145650543Y-76515044D01*
X145671613Y-76505079D01*
X145693557Y-76497227D01*
X145716166Y-76491563D01*
X145739221Y-76488144D01*
X145762500Y-76487000D01*
X146337500Y-76487000D01*
X146360779Y-76488144D01*
X146360779Y-76488144D01*
G37*
D15*
X146050000Y-76962000D03*
G04 #@! TD*
D12*
G04 #@! TO.C,C9*
G36*
X140722779Y-80008144D02*
X140745834Y-80011563D01*
X140768443Y-80017227D01*
X140790387Y-80025079D01*
X140811457Y-80035044D01*
X140831448Y-80047026D01*
X140850168Y-80060910D01*
X140867438Y-80076562D01*
X140883090Y-80093832D01*
X140896974Y-80112552D01*
X140908956Y-80132543D01*
X140918921Y-80153613D01*
X140926773Y-80175557D01*
X140932437Y-80198166D01*
X140935856Y-80221221D01*
X140937000Y-80244500D01*
X140937000Y-80819500D01*
X140935856Y-80842779D01*
X140932437Y-80865834D01*
X140926773Y-80888443D01*
X140918921Y-80910387D01*
X140908956Y-80931457D01*
X140896974Y-80951448D01*
X140883090Y-80970168D01*
X140867438Y-80987438D01*
X140850168Y-81003090D01*
X140831448Y-81016974D01*
X140811457Y-81028956D01*
X140790387Y-81038921D01*
X140768443Y-81046773D01*
X140745834Y-81052437D01*
X140722779Y-81055856D01*
X140699500Y-81057000D01*
X140224500Y-81057000D01*
X140201221Y-81055856D01*
X140178166Y-81052437D01*
X140155557Y-81046773D01*
X140133613Y-81038921D01*
X140112543Y-81028956D01*
X140092552Y-81016974D01*
X140073832Y-81003090D01*
X140056562Y-80987438D01*
X140040910Y-80970168D01*
X140027026Y-80951448D01*
X140015044Y-80931457D01*
X140005079Y-80910387D01*
X139997227Y-80888443D01*
X139991563Y-80865834D01*
X139988144Y-80842779D01*
X139987000Y-80819500D01*
X139987000Y-80244500D01*
X139988144Y-80221221D01*
X139991563Y-80198166D01*
X139997227Y-80175557D01*
X140005079Y-80153613D01*
X140015044Y-80132543D01*
X140027026Y-80112552D01*
X140040910Y-80093832D01*
X140056562Y-80076562D01*
X140073832Y-80060910D01*
X140092552Y-80047026D01*
X140112543Y-80035044D01*
X140133613Y-80025079D01*
X140155557Y-80017227D01*
X140178166Y-80011563D01*
X140201221Y-80008144D01*
X140224500Y-80007000D01*
X140699500Y-80007000D01*
X140722779Y-80008144D01*
X140722779Y-80008144D01*
G37*
D15*
X140462000Y-80532000D03*
D12*
G36*
X140722779Y-81758144D02*
X140745834Y-81761563D01*
X140768443Y-81767227D01*
X140790387Y-81775079D01*
X140811457Y-81785044D01*
X140831448Y-81797026D01*
X140850168Y-81810910D01*
X140867438Y-81826562D01*
X140883090Y-81843832D01*
X140896974Y-81862552D01*
X140908956Y-81882543D01*
X140918921Y-81903613D01*
X140926773Y-81925557D01*
X140932437Y-81948166D01*
X140935856Y-81971221D01*
X140937000Y-81994500D01*
X140937000Y-82569500D01*
X140935856Y-82592779D01*
X140932437Y-82615834D01*
X140926773Y-82638443D01*
X140918921Y-82660387D01*
X140908956Y-82681457D01*
X140896974Y-82701448D01*
X140883090Y-82720168D01*
X140867438Y-82737438D01*
X140850168Y-82753090D01*
X140831448Y-82766974D01*
X140811457Y-82778956D01*
X140790387Y-82788921D01*
X140768443Y-82796773D01*
X140745834Y-82802437D01*
X140722779Y-82805856D01*
X140699500Y-82807000D01*
X140224500Y-82807000D01*
X140201221Y-82805856D01*
X140178166Y-82802437D01*
X140155557Y-82796773D01*
X140133613Y-82788921D01*
X140112543Y-82778956D01*
X140092552Y-82766974D01*
X140073832Y-82753090D01*
X140056562Y-82737438D01*
X140040910Y-82720168D01*
X140027026Y-82701448D01*
X140015044Y-82681457D01*
X140005079Y-82660387D01*
X139997227Y-82638443D01*
X139991563Y-82615834D01*
X139988144Y-82592779D01*
X139987000Y-82569500D01*
X139987000Y-81994500D01*
X139988144Y-81971221D01*
X139991563Y-81948166D01*
X139997227Y-81925557D01*
X140005079Y-81903613D01*
X140015044Y-81882543D01*
X140027026Y-81862552D01*
X140040910Y-81843832D01*
X140056562Y-81826562D01*
X140073832Y-81810910D01*
X140092552Y-81797026D01*
X140112543Y-81785044D01*
X140133613Y-81775079D01*
X140155557Y-81767227D01*
X140178166Y-81761563D01*
X140201221Y-81758144D01*
X140224500Y-81757000D01*
X140699500Y-81757000D01*
X140722779Y-81758144D01*
X140722779Y-81758144D01*
G37*
D15*
X140462000Y-82282000D03*
G04 #@! TD*
D12*
G04 #@! TO.C,C10*
G36*
X138182779Y-98903144D02*
X138205834Y-98906563D01*
X138228443Y-98912227D01*
X138250387Y-98920079D01*
X138271457Y-98930044D01*
X138291448Y-98942026D01*
X138310168Y-98955910D01*
X138327438Y-98971562D01*
X138343090Y-98988832D01*
X138356974Y-99007552D01*
X138368956Y-99027543D01*
X138378921Y-99048613D01*
X138386773Y-99070557D01*
X138392437Y-99093166D01*
X138395856Y-99116221D01*
X138397000Y-99139500D01*
X138397000Y-99714500D01*
X138395856Y-99737779D01*
X138392437Y-99760834D01*
X138386773Y-99783443D01*
X138378921Y-99805387D01*
X138368956Y-99826457D01*
X138356974Y-99846448D01*
X138343090Y-99865168D01*
X138327438Y-99882438D01*
X138310168Y-99898090D01*
X138291448Y-99911974D01*
X138271457Y-99923956D01*
X138250387Y-99933921D01*
X138228443Y-99941773D01*
X138205834Y-99947437D01*
X138182779Y-99950856D01*
X138159500Y-99952000D01*
X137684500Y-99952000D01*
X137661221Y-99950856D01*
X137638166Y-99947437D01*
X137615557Y-99941773D01*
X137593613Y-99933921D01*
X137572543Y-99923956D01*
X137552552Y-99911974D01*
X137533832Y-99898090D01*
X137516562Y-99882438D01*
X137500910Y-99865168D01*
X137487026Y-99846448D01*
X137475044Y-99826457D01*
X137465079Y-99805387D01*
X137457227Y-99783443D01*
X137451563Y-99760834D01*
X137448144Y-99737779D01*
X137447000Y-99714500D01*
X137447000Y-99139500D01*
X137448144Y-99116221D01*
X137451563Y-99093166D01*
X137457227Y-99070557D01*
X137465079Y-99048613D01*
X137475044Y-99027543D01*
X137487026Y-99007552D01*
X137500910Y-98988832D01*
X137516562Y-98971562D01*
X137533832Y-98955910D01*
X137552552Y-98942026D01*
X137572543Y-98930044D01*
X137593613Y-98920079D01*
X137615557Y-98912227D01*
X137638166Y-98906563D01*
X137661221Y-98903144D01*
X137684500Y-98902000D01*
X138159500Y-98902000D01*
X138182779Y-98903144D01*
X138182779Y-98903144D01*
G37*
D15*
X137922000Y-99427000D03*
D12*
G36*
X138182779Y-97153144D02*
X138205834Y-97156563D01*
X138228443Y-97162227D01*
X138250387Y-97170079D01*
X138271457Y-97180044D01*
X138291448Y-97192026D01*
X138310168Y-97205910D01*
X138327438Y-97221562D01*
X138343090Y-97238832D01*
X138356974Y-97257552D01*
X138368956Y-97277543D01*
X138378921Y-97298613D01*
X138386773Y-97320557D01*
X138392437Y-97343166D01*
X138395856Y-97366221D01*
X138397000Y-97389500D01*
X138397000Y-97964500D01*
X138395856Y-97987779D01*
X138392437Y-98010834D01*
X138386773Y-98033443D01*
X138378921Y-98055387D01*
X138368956Y-98076457D01*
X138356974Y-98096448D01*
X138343090Y-98115168D01*
X138327438Y-98132438D01*
X138310168Y-98148090D01*
X138291448Y-98161974D01*
X138271457Y-98173956D01*
X138250387Y-98183921D01*
X138228443Y-98191773D01*
X138205834Y-98197437D01*
X138182779Y-98200856D01*
X138159500Y-98202000D01*
X137684500Y-98202000D01*
X137661221Y-98200856D01*
X137638166Y-98197437D01*
X137615557Y-98191773D01*
X137593613Y-98183921D01*
X137572543Y-98173956D01*
X137552552Y-98161974D01*
X137533832Y-98148090D01*
X137516562Y-98132438D01*
X137500910Y-98115168D01*
X137487026Y-98096448D01*
X137475044Y-98076457D01*
X137465079Y-98055387D01*
X137457227Y-98033443D01*
X137451563Y-98010834D01*
X137448144Y-97987779D01*
X137447000Y-97964500D01*
X137447000Y-97389500D01*
X137448144Y-97366221D01*
X137451563Y-97343166D01*
X137457227Y-97320557D01*
X137465079Y-97298613D01*
X137475044Y-97277543D01*
X137487026Y-97257552D01*
X137500910Y-97238832D01*
X137516562Y-97221562D01*
X137533832Y-97205910D01*
X137552552Y-97192026D01*
X137572543Y-97180044D01*
X137593613Y-97170079D01*
X137615557Y-97162227D01*
X137638166Y-97156563D01*
X137661221Y-97153144D01*
X137684500Y-97152000D01*
X138159500Y-97152000D01*
X138182779Y-97153144D01*
X138182779Y-97153144D01*
G37*
D15*
X137922000Y-97677000D03*
G04 #@! TD*
D12*
G04 #@! TO.C,C11*
G36*
X143552779Y-101253144D02*
X143575834Y-101256563D01*
X143598443Y-101262227D01*
X143620387Y-101270079D01*
X143641457Y-101280044D01*
X143661448Y-101292026D01*
X143680168Y-101305910D01*
X143697438Y-101321562D01*
X143713090Y-101338832D01*
X143726974Y-101357552D01*
X143738956Y-101377543D01*
X143748921Y-101398613D01*
X143756773Y-101420557D01*
X143762437Y-101443166D01*
X143765856Y-101466221D01*
X143767000Y-101489500D01*
X143767000Y-101964500D01*
X143765856Y-101987779D01*
X143762437Y-102010834D01*
X143756773Y-102033443D01*
X143748921Y-102055387D01*
X143738956Y-102076457D01*
X143726974Y-102096448D01*
X143713090Y-102115168D01*
X143697438Y-102132438D01*
X143680168Y-102148090D01*
X143661448Y-102161974D01*
X143641457Y-102173956D01*
X143620387Y-102183921D01*
X143598443Y-102191773D01*
X143575834Y-102197437D01*
X143552779Y-102200856D01*
X143529500Y-102202000D01*
X142954500Y-102202000D01*
X142931221Y-102200856D01*
X142908166Y-102197437D01*
X142885557Y-102191773D01*
X142863613Y-102183921D01*
X142842543Y-102173956D01*
X142822552Y-102161974D01*
X142803832Y-102148090D01*
X142786562Y-102132438D01*
X142770910Y-102115168D01*
X142757026Y-102096448D01*
X142745044Y-102076457D01*
X142735079Y-102055387D01*
X142727227Y-102033443D01*
X142721563Y-102010834D01*
X142718144Y-101987779D01*
X142717000Y-101964500D01*
X142717000Y-101489500D01*
X142718144Y-101466221D01*
X142721563Y-101443166D01*
X142727227Y-101420557D01*
X142735079Y-101398613D01*
X142745044Y-101377543D01*
X142757026Y-101357552D01*
X142770910Y-101338832D01*
X142786562Y-101321562D01*
X142803832Y-101305910D01*
X142822552Y-101292026D01*
X142842543Y-101280044D01*
X142863613Y-101270079D01*
X142885557Y-101262227D01*
X142908166Y-101256563D01*
X142931221Y-101253144D01*
X142954500Y-101252000D01*
X143529500Y-101252000D01*
X143552779Y-101253144D01*
X143552779Y-101253144D01*
G37*
D15*
X143242000Y-101727000D03*
D12*
G36*
X141802779Y-101253144D02*
X141825834Y-101256563D01*
X141848443Y-101262227D01*
X141870387Y-101270079D01*
X141891457Y-101280044D01*
X141911448Y-101292026D01*
X141930168Y-101305910D01*
X141947438Y-101321562D01*
X141963090Y-101338832D01*
X141976974Y-101357552D01*
X141988956Y-101377543D01*
X141998921Y-101398613D01*
X142006773Y-101420557D01*
X142012437Y-101443166D01*
X142015856Y-101466221D01*
X142017000Y-101489500D01*
X142017000Y-101964500D01*
X142015856Y-101987779D01*
X142012437Y-102010834D01*
X142006773Y-102033443D01*
X141998921Y-102055387D01*
X141988956Y-102076457D01*
X141976974Y-102096448D01*
X141963090Y-102115168D01*
X141947438Y-102132438D01*
X141930168Y-102148090D01*
X141911448Y-102161974D01*
X141891457Y-102173956D01*
X141870387Y-102183921D01*
X141848443Y-102191773D01*
X141825834Y-102197437D01*
X141802779Y-102200856D01*
X141779500Y-102202000D01*
X141204500Y-102202000D01*
X141181221Y-102200856D01*
X141158166Y-102197437D01*
X141135557Y-102191773D01*
X141113613Y-102183921D01*
X141092543Y-102173956D01*
X141072552Y-102161974D01*
X141053832Y-102148090D01*
X141036562Y-102132438D01*
X141020910Y-102115168D01*
X141007026Y-102096448D01*
X140995044Y-102076457D01*
X140985079Y-102055387D01*
X140977227Y-102033443D01*
X140971563Y-102010834D01*
X140968144Y-101987779D01*
X140967000Y-101964500D01*
X140967000Y-101489500D01*
X140968144Y-101466221D01*
X140971563Y-101443166D01*
X140977227Y-101420557D01*
X140985079Y-101398613D01*
X140995044Y-101377543D01*
X141007026Y-101357552D01*
X141020910Y-101338832D01*
X141036562Y-101321562D01*
X141053832Y-101305910D01*
X141072552Y-101292026D01*
X141092543Y-101280044D01*
X141113613Y-101270079D01*
X141135557Y-101262227D01*
X141158166Y-101256563D01*
X141181221Y-101253144D01*
X141204500Y-101252000D01*
X141779500Y-101252000D01*
X141802779Y-101253144D01*
X141802779Y-101253144D01*
G37*
D15*
X141492000Y-101727000D03*
G04 #@! TD*
D12*
G04 #@! TO.C,C12*
G36*
X153232779Y-101253144D02*
X153255834Y-101256563D01*
X153278443Y-101262227D01*
X153300387Y-101270079D01*
X153321457Y-101280044D01*
X153341448Y-101292026D01*
X153360168Y-101305910D01*
X153377438Y-101321562D01*
X153393090Y-101338832D01*
X153406974Y-101357552D01*
X153418956Y-101377543D01*
X153428921Y-101398613D01*
X153436773Y-101420557D01*
X153442437Y-101443166D01*
X153445856Y-101466221D01*
X153447000Y-101489500D01*
X153447000Y-101964500D01*
X153445856Y-101987779D01*
X153442437Y-102010834D01*
X153436773Y-102033443D01*
X153428921Y-102055387D01*
X153418956Y-102076457D01*
X153406974Y-102096448D01*
X153393090Y-102115168D01*
X153377438Y-102132438D01*
X153360168Y-102148090D01*
X153341448Y-102161974D01*
X153321457Y-102173956D01*
X153300387Y-102183921D01*
X153278443Y-102191773D01*
X153255834Y-102197437D01*
X153232779Y-102200856D01*
X153209500Y-102202000D01*
X152634500Y-102202000D01*
X152611221Y-102200856D01*
X152588166Y-102197437D01*
X152565557Y-102191773D01*
X152543613Y-102183921D01*
X152522543Y-102173956D01*
X152502552Y-102161974D01*
X152483832Y-102148090D01*
X152466562Y-102132438D01*
X152450910Y-102115168D01*
X152437026Y-102096448D01*
X152425044Y-102076457D01*
X152415079Y-102055387D01*
X152407227Y-102033443D01*
X152401563Y-102010834D01*
X152398144Y-101987779D01*
X152397000Y-101964500D01*
X152397000Y-101489500D01*
X152398144Y-101466221D01*
X152401563Y-101443166D01*
X152407227Y-101420557D01*
X152415079Y-101398613D01*
X152425044Y-101377543D01*
X152437026Y-101357552D01*
X152450910Y-101338832D01*
X152466562Y-101321562D01*
X152483832Y-101305910D01*
X152502552Y-101292026D01*
X152522543Y-101280044D01*
X152543613Y-101270079D01*
X152565557Y-101262227D01*
X152588166Y-101256563D01*
X152611221Y-101253144D01*
X152634500Y-101252000D01*
X153209500Y-101252000D01*
X153232779Y-101253144D01*
X153232779Y-101253144D01*
G37*
D15*
X152922000Y-101727000D03*
D12*
G36*
X154982779Y-101253144D02*
X155005834Y-101256563D01*
X155028443Y-101262227D01*
X155050387Y-101270079D01*
X155071457Y-101280044D01*
X155091448Y-101292026D01*
X155110168Y-101305910D01*
X155127438Y-101321562D01*
X155143090Y-101338832D01*
X155156974Y-101357552D01*
X155168956Y-101377543D01*
X155178921Y-101398613D01*
X155186773Y-101420557D01*
X155192437Y-101443166D01*
X155195856Y-101466221D01*
X155197000Y-101489500D01*
X155197000Y-101964500D01*
X155195856Y-101987779D01*
X155192437Y-102010834D01*
X155186773Y-102033443D01*
X155178921Y-102055387D01*
X155168956Y-102076457D01*
X155156974Y-102096448D01*
X155143090Y-102115168D01*
X155127438Y-102132438D01*
X155110168Y-102148090D01*
X155091448Y-102161974D01*
X155071457Y-102173956D01*
X155050387Y-102183921D01*
X155028443Y-102191773D01*
X155005834Y-102197437D01*
X154982779Y-102200856D01*
X154959500Y-102202000D01*
X154384500Y-102202000D01*
X154361221Y-102200856D01*
X154338166Y-102197437D01*
X154315557Y-102191773D01*
X154293613Y-102183921D01*
X154272543Y-102173956D01*
X154252552Y-102161974D01*
X154233832Y-102148090D01*
X154216562Y-102132438D01*
X154200910Y-102115168D01*
X154187026Y-102096448D01*
X154175044Y-102076457D01*
X154165079Y-102055387D01*
X154157227Y-102033443D01*
X154151563Y-102010834D01*
X154148144Y-101987779D01*
X154147000Y-101964500D01*
X154147000Y-101489500D01*
X154148144Y-101466221D01*
X154151563Y-101443166D01*
X154157227Y-101420557D01*
X154165079Y-101398613D01*
X154175044Y-101377543D01*
X154187026Y-101357552D01*
X154200910Y-101338832D01*
X154216562Y-101321562D01*
X154233832Y-101305910D01*
X154252552Y-101292026D01*
X154272543Y-101280044D01*
X154293613Y-101270079D01*
X154315557Y-101262227D01*
X154338166Y-101256563D01*
X154361221Y-101253144D01*
X154384500Y-101252000D01*
X154959500Y-101252000D01*
X154982779Y-101253144D01*
X154982779Y-101253144D01*
G37*
D15*
X154672000Y-101727000D03*
G04 #@! TD*
D12*
G04 #@! TO.C,C13*
G36*
X160062779Y-101253144D02*
X160085834Y-101256563D01*
X160108443Y-101262227D01*
X160130387Y-101270079D01*
X160151457Y-101280044D01*
X160171448Y-101292026D01*
X160190168Y-101305910D01*
X160207438Y-101321562D01*
X160223090Y-101338832D01*
X160236974Y-101357552D01*
X160248956Y-101377543D01*
X160258921Y-101398613D01*
X160266773Y-101420557D01*
X160272437Y-101443166D01*
X160275856Y-101466221D01*
X160277000Y-101489500D01*
X160277000Y-101964500D01*
X160275856Y-101987779D01*
X160272437Y-102010834D01*
X160266773Y-102033443D01*
X160258921Y-102055387D01*
X160248956Y-102076457D01*
X160236974Y-102096448D01*
X160223090Y-102115168D01*
X160207438Y-102132438D01*
X160190168Y-102148090D01*
X160171448Y-102161974D01*
X160151457Y-102173956D01*
X160130387Y-102183921D01*
X160108443Y-102191773D01*
X160085834Y-102197437D01*
X160062779Y-102200856D01*
X160039500Y-102202000D01*
X159464500Y-102202000D01*
X159441221Y-102200856D01*
X159418166Y-102197437D01*
X159395557Y-102191773D01*
X159373613Y-102183921D01*
X159352543Y-102173956D01*
X159332552Y-102161974D01*
X159313832Y-102148090D01*
X159296562Y-102132438D01*
X159280910Y-102115168D01*
X159267026Y-102096448D01*
X159255044Y-102076457D01*
X159245079Y-102055387D01*
X159237227Y-102033443D01*
X159231563Y-102010834D01*
X159228144Y-101987779D01*
X159227000Y-101964500D01*
X159227000Y-101489500D01*
X159228144Y-101466221D01*
X159231563Y-101443166D01*
X159237227Y-101420557D01*
X159245079Y-101398613D01*
X159255044Y-101377543D01*
X159267026Y-101357552D01*
X159280910Y-101338832D01*
X159296562Y-101321562D01*
X159313832Y-101305910D01*
X159332552Y-101292026D01*
X159352543Y-101280044D01*
X159373613Y-101270079D01*
X159395557Y-101262227D01*
X159418166Y-101256563D01*
X159441221Y-101253144D01*
X159464500Y-101252000D01*
X160039500Y-101252000D01*
X160062779Y-101253144D01*
X160062779Y-101253144D01*
G37*
D15*
X159752000Y-101727000D03*
D12*
G36*
X158312779Y-101253144D02*
X158335834Y-101256563D01*
X158358443Y-101262227D01*
X158380387Y-101270079D01*
X158401457Y-101280044D01*
X158421448Y-101292026D01*
X158440168Y-101305910D01*
X158457438Y-101321562D01*
X158473090Y-101338832D01*
X158486974Y-101357552D01*
X158498956Y-101377543D01*
X158508921Y-101398613D01*
X158516773Y-101420557D01*
X158522437Y-101443166D01*
X158525856Y-101466221D01*
X158527000Y-101489500D01*
X158527000Y-101964500D01*
X158525856Y-101987779D01*
X158522437Y-102010834D01*
X158516773Y-102033443D01*
X158508921Y-102055387D01*
X158498956Y-102076457D01*
X158486974Y-102096448D01*
X158473090Y-102115168D01*
X158457438Y-102132438D01*
X158440168Y-102148090D01*
X158421448Y-102161974D01*
X158401457Y-102173956D01*
X158380387Y-102183921D01*
X158358443Y-102191773D01*
X158335834Y-102197437D01*
X158312779Y-102200856D01*
X158289500Y-102202000D01*
X157714500Y-102202000D01*
X157691221Y-102200856D01*
X157668166Y-102197437D01*
X157645557Y-102191773D01*
X157623613Y-102183921D01*
X157602543Y-102173956D01*
X157582552Y-102161974D01*
X157563832Y-102148090D01*
X157546562Y-102132438D01*
X157530910Y-102115168D01*
X157517026Y-102096448D01*
X157505044Y-102076457D01*
X157495079Y-102055387D01*
X157487227Y-102033443D01*
X157481563Y-102010834D01*
X157478144Y-101987779D01*
X157477000Y-101964500D01*
X157477000Y-101489500D01*
X157478144Y-101466221D01*
X157481563Y-101443166D01*
X157487227Y-101420557D01*
X157495079Y-101398613D01*
X157505044Y-101377543D01*
X157517026Y-101357552D01*
X157530910Y-101338832D01*
X157546562Y-101321562D01*
X157563832Y-101305910D01*
X157582552Y-101292026D01*
X157602543Y-101280044D01*
X157623613Y-101270079D01*
X157645557Y-101262227D01*
X157668166Y-101256563D01*
X157691221Y-101253144D01*
X157714500Y-101252000D01*
X158289500Y-101252000D01*
X158312779Y-101253144D01*
X158312779Y-101253144D01*
G37*
D15*
X158002000Y-101727000D03*
G04 #@! TD*
D12*
G04 #@! TO.C,C14*
G36*
X133547779Y-80298144D02*
X133570834Y-80301563D01*
X133593443Y-80307227D01*
X133615387Y-80315079D01*
X133636457Y-80325044D01*
X133656448Y-80337026D01*
X133675168Y-80350910D01*
X133692438Y-80366562D01*
X133708090Y-80383832D01*
X133721974Y-80402552D01*
X133733956Y-80422543D01*
X133743921Y-80443613D01*
X133751773Y-80465557D01*
X133757437Y-80488166D01*
X133760856Y-80511221D01*
X133762000Y-80534500D01*
X133762000Y-81009500D01*
X133760856Y-81032779D01*
X133757437Y-81055834D01*
X133751773Y-81078443D01*
X133743921Y-81100387D01*
X133733956Y-81121457D01*
X133721974Y-81141448D01*
X133708090Y-81160168D01*
X133692438Y-81177438D01*
X133675168Y-81193090D01*
X133656448Y-81206974D01*
X133636457Y-81218956D01*
X133615387Y-81228921D01*
X133593443Y-81236773D01*
X133570834Y-81242437D01*
X133547779Y-81245856D01*
X133524500Y-81247000D01*
X132949500Y-81247000D01*
X132926221Y-81245856D01*
X132903166Y-81242437D01*
X132880557Y-81236773D01*
X132858613Y-81228921D01*
X132837543Y-81218956D01*
X132817552Y-81206974D01*
X132798832Y-81193090D01*
X132781562Y-81177438D01*
X132765910Y-81160168D01*
X132752026Y-81141448D01*
X132740044Y-81121457D01*
X132730079Y-81100387D01*
X132722227Y-81078443D01*
X132716563Y-81055834D01*
X132713144Y-81032779D01*
X132712000Y-81009500D01*
X132712000Y-80534500D01*
X132713144Y-80511221D01*
X132716563Y-80488166D01*
X132722227Y-80465557D01*
X132730079Y-80443613D01*
X132740044Y-80422543D01*
X132752026Y-80402552D01*
X132765910Y-80383832D01*
X132781562Y-80366562D01*
X132798832Y-80350910D01*
X132817552Y-80337026D01*
X132837543Y-80325044D01*
X132858613Y-80315079D01*
X132880557Y-80307227D01*
X132903166Y-80301563D01*
X132926221Y-80298144D01*
X132949500Y-80297000D01*
X133524500Y-80297000D01*
X133547779Y-80298144D01*
X133547779Y-80298144D01*
G37*
D15*
X133237000Y-80772000D03*
D12*
G36*
X135297779Y-80298144D02*
X135320834Y-80301563D01*
X135343443Y-80307227D01*
X135365387Y-80315079D01*
X135386457Y-80325044D01*
X135406448Y-80337026D01*
X135425168Y-80350910D01*
X135442438Y-80366562D01*
X135458090Y-80383832D01*
X135471974Y-80402552D01*
X135483956Y-80422543D01*
X135493921Y-80443613D01*
X135501773Y-80465557D01*
X135507437Y-80488166D01*
X135510856Y-80511221D01*
X135512000Y-80534500D01*
X135512000Y-81009500D01*
X135510856Y-81032779D01*
X135507437Y-81055834D01*
X135501773Y-81078443D01*
X135493921Y-81100387D01*
X135483956Y-81121457D01*
X135471974Y-81141448D01*
X135458090Y-81160168D01*
X135442438Y-81177438D01*
X135425168Y-81193090D01*
X135406448Y-81206974D01*
X135386457Y-81218956D01*
X135365387Y-81228921D01*
X135343443Y-81236773D01*
X135320834Y-81242437D01*
X135297779Y-81245856D01*
X135274500Y-81247000D01*
X134699500Y-81247000D01*
X134676221Y-81245856D01*
X134653166Y-81242437D01*
X134630557Y-81236773D01*
X134608613Y-81228921D01*
X134587543Y-81218956D01*
X134567552Y-81206974D01*
X134548832Y-81193090D01*
X134531562Y-81177438D01*
X134515910Y-81160168D01*
X134502026Y-81141448D01*
X134490044Y-81121457D01*
X134480079Y-81100387D01*
X134472227Y-81078443D01*
X134466563Y-81055834D01*
X134463144Y-81032779D01*
X134462000Y-81009500D01*
X134462000Y-80534500D01*
X134463144Y-80511221D01*
X134466563Y-80488166D01*
X134472227Y-80465557D01*
X134480079Y-80443613D01*
X134490044Y-80422543D01*
X134502026Y-80402552D01*
X134515910Y-80383832D01*
X134531562Y-80366562D01*
X134548832Y-80350910D01*
X134567552Y-80337026D01*
X134587543Y-80325044D01*
X134608613Y-80315079D01*
X134630557Y-80307227D01*
X134653166Y-80301563D01*
X134676221Y-80298144D01*
X134699500Y-80297000D01*
X135274500Y-80297000D01*
X135297779Y-80298144D01*
X135297779Y-80298144D01*
G37*
D15*
X134987000Y-80772000D03*
G04 #@! TD*
D12*
G04 #@! TO.C,C15*
G36*
X132672779Y-94268144D02*
X132695834Y-94271563D01*
X132718443Y-94277227D01*
X132740387Y-94285079D01*
X132761457Y-94295044D01*
X132781448Y-94307026D01*
X132800168Y-94320910D01*
X132817438Y-94336562D01*
X132833090Y-94353832D01*
X132846974Y-94372552D01*
X132858956Y-94392543D01*
X132868921Y-94413613D01*
X132876773Y-94435557D01*
X132882437Y-94458166D01*
X132885856Y-94481221D01*
X132887000Y-94504500D01*
X132887000Y-94979500D01*
X132885856Y-95002779D01*
X132882437Y-95025834D01*
X132876773Y-95048443D01*
X132868921Y-95070387D01*
X132858956Y-95091457D01*
X132846974Y-95111448D01*
X132833090Y-95130168D01*
X132817438Y-95147438D01*
X132800168Y-95163090D01*
X132781448Y-95176974D01*
X132761457Y-95188956D01*
X132740387Y-95198921D01*
X132718443Y-95206773D01*
X132695834Y-95212437D01*
X132672779Y-95215856D01*
X132649500Y-95217000D01*
X132074500Y-95217000D01*
X132051221Y-95215856D01*
X132028166Y-95212437D01*
X132005557Y-95206773D01*
X131983613Y-95198921D01*
X131962543Y-95188956D01*
X131942552Y-95176974D01*
X131923832Y-95163090D01*
X131906562Y-95147438D01*
X131890910Y-95130168D01*
X131877026Y-95111448D01*
X131865044Y-95091457D01*
X131855079Y-95070387D01*
X131847227Y-95048443D01*
X131841563Y-95025834D01*
X131838144Y-95002779D01*
X131837000Y-94979500D01*
X131837000Y-94504500D01*
X131838144Y-94481221D01*
X131841563Y-94458166D01*
X131847227Y-94435557D01*
X131855079Y-94413613D01*
X131865044Y-94392543D01*
X131877026Y-94372552D01*
X131890910Y-94353832D01*
X131906562Y-94336562D01*
X131923832Y-94320910D01*
X131942552Y-94307026D01*
X131962543Y-94295044D01*
X131983613Y-94285079D01*
X132005557Y-94277227D01*
X132028166Y-94271563D01*
X132051221Y-94268144D01*
X132074500Y-94267000D01*
X132649500Y-94267000D01*
X132672779Y-94268144D01*
X132672779Y-94268144D01*
G37*
D15*
X132362000Y-94742000D03*
D12*
G36*
X134422779Y-94268144D02*
X134445834Y-94271563D01*
X134468443Y-94277227D01*
X134490387Y-94285079D01*
X134511457Y-94295044D01*
X134531448Y-94307026D01*
X134550168Y-94320910D01*
X134567438Y-94336562D01*
X134583090Y-94353832D01*
X134596974Y-94372552D01*
X134608956Y-94392543D01*
X134618921Y-94413613D01*
X134626773Y-94435557D01*
X134632437Y-94458166D01*
X134635856Y-94481221D01*
X134637000Y-94504500D01*
X134637000Y-94979500D01*
X134635856Y-95002779D01*
X134632437Y-95025834D01*
X134626773Y-95048443D01*
X134618921Y-95070387D01*
X134608956Y-95091457D01*
X134596974Y-95111448D01*
X134583090Y-95130168D01*
X134567438Y-95147438D01*
X134550168Y-95163090D01*
X134531448Y-95176974D01*
X134511457Y-95188956D01*
X134490387Y-95198921D01*
X134468443Y-95206773D01*
X134445834Y-95212437D01*
X134422779Y-95215856D01*
X134399500Y-95217000D01*
X133824500Y-95217000D01*
X133801221Y-95215856D01*
X133778166Y-95212437D01*
X133755557Y-95206773D01*
X133733613Y-95198921D01*
X133712543Y-95188956D01*
X133692552Y-95176974D01*
X133673832Y-95163090D01*
X133656562Y-95147438D01*
X133640910Y-95130168D01*
X133627026Y-95111448D01*
X133615044Y-95091457D01*
X133605079Y-95070387D01*
X133597227Y-95048443D01*
X133591563Y-95025834D01*
X133588144Y-95002779D01*
X133587000Y-94979500D01*
X133587000Y-94504500D01*
X133588144Y-94481221D01*
X133591563Y-94458166D01*
X133597227Y-94435557D01*
X133605079Y-94413613D01*
X133615044Y-94392543D01*
X133627026Y-94372552D01*
X133640910Y-94353832D01*
X133656562Y-94336562D01*
X133673832Y-94320910D01*
X133692552Y-94307026D01*
X133712543Y-94295044D01*
X133733613Y-94285079D01*
X133755557Y-94277227D01*
X133778166Y-94271563D01*
X133801221Y-94268144D01*
X133824500Y-94267000D01*
X134399500Y-94267000D01*
X134422779Y-94268144D01*
X134422779Y-94268144D01*
G37*
D15*
X134112000Y-94742000D03*
G04 #@! TD*
D12*
G04 #@! TO.C,D1*
G36*
X161486504Y-44973204D02*
X161510773Y-44976804D01*
X161534571Y-44982765D01*
X161557671Y-44991030D01*
X161579849Y-45001520D01*
X161600893Y-45014133D01*
X161620598Y-45028747D01*
X161638777Y-45045223D01*
X161655253Y-45063402D01*
X161669867Y-45083107D01*
X161682480Y-45104151D01*
X161692970Y-45126329D01*
X161701235Y-45149429D01*
X161707196Y-45173227D01*
X161710796Y-45197496D01*
X161712000Y-45222000D01*
X161712000Y-46472000D01*
X161710796Y-46496504D01*
X161707196Y-46520773D01*
X161701235Y-46544571D01*
X161692970Y-46567671D01*
X161682480Y-46589849D01*
X161669867Y-46610893D01*
X161655253Y-46630598D01*
X161638777Y-46648777D01*
X161620598Y-46665253D01*
X161600893Y-46679867D01*
X161579849Y-46692480D01*
X161557671Y-46702970D01*
X161534571Y-46711235D01*
X161510773Y-46717196D01*
X161486504Y-46720796D01*
X161462000Y-46722000D01*
X160537000Y-46722000D01*
X160512496Y-46720796D01*
X160488227Y-46717196D01*
X160464429Y-46711235D01*
X160441329Y-46702970D01*
X160419151Y-46692480D01*
X160398107Y-46679867D01*
X160378402Y-46665253D01*
X160360223Y-46648777D01*
X160343747Y-46630598D01*
X160329133Y-46610893D01*
X160316520Y-46589849D01*
X160306030Y-46567671D01*
X160297765Y-46544571D01*
X160291804Y-46520773D01*
X160288204Y-46496504D01*
X160287000Y-46472000D01*
X160287000Y-45222000D01*
X160288204Y-45197496D01*
X160291804Y-45173227D01*
X160297765Y-45149429D01*
X160306030Y-45126329D01*
X160316520Y-45104151D01*
X160329133Y-45083107D01*
X160343747Y-45063402D01*
X160360223Y-45045223D01*
X160378402Y-45028747D01*
X160398107Y-45014133D01*
X160419151Y-45001520D01*
X160441329Y-44991030D01*
X160464429Y-44982765D01*
X160488227Y-44976804D01*
X160512496Y-44973204D01*
X160537000Y-44972000D01*
X161462000Y-44972000D01*
X161486504Y-44973204D01*
X161486504Y-44973204D01*
G37*
D14*
X160999500Y-45847000D03*
D12*
G36*
X158511504Y-44973204D02*
X158535773Y-44976804D01*
X158559571Y-44982765D01*
X158582671Y-44991030D01*
X158604849Y-45001520D01*
X158625893Y-45014133D01*
X158645598Y-45028747D01*
X158663777Y-45045223D01*
X158680253Y-45063402D01*
X158694867Y-45083107D01*
X158707480Y-45104151D01*
X158717970Y-45126329D01*
X158726235Y-45149429D01*
X158732196Y-45173227D01*
X158735796Y-45197496D01*
X158737000Y-45222000D01*
X158737000Y-46472000D01*
X158735796Y-46496504D01*
X158732196Y-46520773D01*
X158726235Y-46544571D01*
X158717970Y-46567671D01*
X158707480Y-46589849D01*
X158694867Y-46610893D01*
X158680253Y-46630598D01*
X158663777Y-46648777D01*
X158645598Y-46665253D01*
X158625893Y-46679867D01*
X158604849Y-46692480D01*
X158582671Y-46702970D01*
X158559571Y-46711235D01*
X158535773Y-46717196D01*
X158511504Y-46720796D01*
X158487000Y-46722000D01*
X157562000Y-46722000D01*
X157537496Y-46720796D01*
X157513227Y-46717196D01*
X157489429Y-46711235D01*
X157466329Y-46702970D01*
X157444151Y-46692480D01*
X157423107Y-46679867D01*
X157403402Y-46665253D01*
X157385223Y-46648777D01*
X157368747Y-46630598D01*
X157354133Y-46610893D01*
X157341520Y-46589849D01*
X157331030Y-46567671D01*
X157322765Y-46544571D01*
X157316804Y-46520773D01*
X157313204Y-46496504D01*
X157312000Y-46472000D01*
X157312000Y-45222000D01*
X157313204Y-45197496D01*
X157316804Y-45173227D01*
X157322765Y-45149429D01*
X157331030Y-45126329D01*
X157341520Y-45104151D01*
X157354133Y-45083107D01*
X157368747Y-45063402D01*
X157385223Y-45045223D01*
X157403402Y-45028747D01*
X157423107Y-45014133D01*
X157444151Y-45001520D01*
X157466329Y-44991030D01*
X157489429Y-44982765D01*
X157513227Y-44976804D01*
X157537496Y-44973204D01*
X157562000Y-44972000D01*
X158487000Y-44972000D01*
X158511504Y-44973204D01*
X158511504Y-44973204D01*
G37*
D14*
X158024500Y-45847000D03*
G04 #@! TD*
D12*
G04 #@! TO.C,D2*
G36*
X107711504Y-109108204D02*
X107735773Y-109111804D01*
X107759571Y-109117765D01*
X107782671Y-109126030D01*
X107804849Y-109136520D01*
X107825893Y-109149133D01*
X107845598Y-109163747D01*
X107863777Y-109180223D01*
X107880253Y-109198402D01*
X107894867Y-109218107D01*
X107907480Y-109239151D01*
X107917970Y-109261329D01*
X107926235Y-109284429D01*
X107932196Y-109308227D01*
X107935796Y-109332496D01*
X107937000Y-109357000D01*
X107937000Y-110607000D01*
X107935796Y-110631504D01*
X107932196Y-110655773D01*
X107926235Y-110679571D01*
X107917970Y-110702671D01*
X107907480Y-110724849D01*
X107894867Y-110745893D01*
X107880253Y-110765598D01*
X107863777Y-110783777D01*
X107845598Y-110800253D01*
X107825893Y-110814867D01*
X107804849Y-110827480D01*
X107782671Y-110837970D01*
X107759571Y-110846235D01*
X107735773Y-110852196D01*
X107711504Y-110855796D01*
X107687000Y-110857000D01*
X106762000Y-110857000D01*
X106737496Y-110855796D01*
X106713227Y-110852196D01*
X106689429Y-110846235D01*
X106666329Y-110837970D01*
X106644151Y-110827480D01*
X106623107Y-110814867D01*
X106603402Y-110800253D01*
X106585223Y-110783777D01*
X106568747Y-110765598D01*
X106554133Y-110745893D01*
X106541520Y-110724849D01*
X106531030Y-110702671D01*
X106522765Y-110679571D01*
X106516804Y-110655773D01*
X106513204Y-110631504D01*
X106512000Y-110607000D01*
X106512000Y-109357000D01*
X106513204Y-109332496D01*
X106516804Y-109308227D01*
X106522765Y-109284429D01*
X106531030Y-109261329D01*
X106541520Y-109239151D01*
X106554133Y-109218107D01*
X106568747Y-109198402D01*
X106585223Y-109180223D01*
X106603402Y-109163747D01*
X106623107Y-109149133D01*
X106644151Y-109136520D01*
X106666329Y-109126030D01*
X106689429Y-109117765D01*
X106713227Y-109111804D01*
X106737496Y-109108204D01*
X106762000Y-109107000D01*
X107687000Y-109107000D01*
X107711504Y-109108204D01*
X107711504Y-109108204D01*
G37*
D14*
X107224500Y-109982000D03*
D12*
G36*
X110686504Y-109108204D02*
X110710773Y-109111804D01*
X110734571Y-109117765D01*
X110757671Y-109126030D01*
X110779849Y-109136520D01*
X110800893Y-109149133D01*
X110820598Y-109163747D01*
X110838777Y-109180223D01*
X110855253Y-109198402D01*
X110869867Y-109218107D01*
X110882480Y-109239151D01*
X110892970Y-109261329D01*
X110901235Y-109284429D01*
X110907196Y-109308227D01*
X110910796Y-109332496D01*
X110912000Y-109357000D01*
X110912000Y-110607000D01*
X110910796Y-110631504D01*
X110907196Y-110655773D01*
X110901235Y-110679571D01*
X110892970Y-110702671D01*
X110882480Y-110724849D01*
X110869867Y-110745893D01*
X110855253Y-110765598D01*
X110838777Y-110783777D01*
X110820598Y-110800253D01*
X110800893Y-110814867D01*
X110779849Y-110827480D01*
X110757671Y-110837970D01*
X110734571Y-110846235D01*
X110710773Y-110852196D01*
X110686504Y-110855796D01*
X110662000Y-110857000D01*
X109737000Y-110857000D01*
X109712496Y-110855796D01*
X109688227Y-110852196D01*
X109664429Y-110846235D01*
X109641329Y-110837970D01*
X109619151Y-110827480D01*
X109598107Y-110814867D01*
X109578402Y-110800253D01*
X109560223Y-110783777D01*
X109543747Y-110765598D01*
X109529133Y-110745893D01*
X109516520Y-110724849D01*
X109506030Y-110702671D01*
X109497765Y-110679571D01*
X109491804Y-110655773D01*
X109488204Y-110631504D01*
X109487000Y-110607000D01*
X109487000Y-109357000D01*
X109488204Y-109332496D01*
X109491804Y-109308227D01*
X109497765Y-109284429D01*
X109506030Y-109261329D01*
X109516520Y-109239151D01*
X109529133Y-109218107D01*
X109543747Y-109198402D01*
X109560223Y-109180223D01*
X109578402Y-109163747D01*
X109598107Y-109149133D01*
X109619151Y-109136520D01*
X109641329Y-109126030D01*
X109664429Y-109117765D01*
X109688227Y-109111804D01*
X109712496Y-109108204D01*
X109737000Y-109107000D01*
X110662000Y-109107000D01*
X110686504Y-109108204D01*
X110686504Y-109108204D01*
G37*
D14*
X110199500Y-109982000D03*
G04 #@! TD*
D12*
G04 #@! TO.C,D3*
G36*
X100726504Y-77993204D02*
X100750773Y-77996804D01*
X100774571Y-78002765D01*
X100797671Y-78011030D01*
X100819849Y-78021520D01*
X100840893Y-78034133D01*
X100860598Y-78048747D01*
X100878777Y-78065223D01*
X100895253Y-78083402D01*
X100909867Y-78103107D01*
X100922480Y-78124151D01*
X100932970Y-78146329D01*
X100941235Y-78169429D01*
X100947196Y-78193227D01*
X100950796Y-78217496D01*
X100952000Y-78242000D01*
X100952000Y-79492000D01*
X100950796Y-79516504D01*
X100947196Y-79540773D01*
X100941235Y-79564571D01*
X100932970Y-79587671D01*
X100922480Y-79609849D01*
X100909867Y-79630893D01*
X100895253Y-79650598D01*
X100878777Y-79668777D01*
X100860598Y-79685253D01*
X100840893Y-79699867D01*
X100819849Y-79712480D01*
X100797671Y-79722970D01*
X100774571Y-79731235D01*
X100750773Y-79737196D01*
X100726504Y-79740796D01*
X100702000Y-79742000D01*
X99777000Y-79742000D01*
X99752496Y-79740796D01*
X99728227Y-79737196D01*
X99704429Y-79731235D01*
X99681329Y-79722970D01*
X99659151Y-79712480D01*
X99638107Y-79699867D01*
X99618402Y-79685253D01*
X99600223Y-79668777D01*
X99583747Y-79650598D01*
X99569133Y-79630893D01*
X99556520Y-79609849D01*
X99546030Y-79587671D01*
X99537765Y-79564571D01*
X99531804Y-79540773D01*
X99528204Y-79516504D01*
X99527000Y-79492000D01*
X99527000Y-78242000D01*
X99528204Y-78217496D01*
X99531804Y-78193227D01*
X99537765Y-78169429D01*
X99546030Y-78146329D01*
X99556520Y-78124151D01*
X99569133Y-78103107D01*
X99583747Y-78083402D01*
X99600223Y-78065223D01*
X99618402Y-78048747D01*
X99638107Y-78034133D01*
X99659151Y-78021520D01*
X99681329Y-78011030D01*
X99704429Y-78002765D01*
X99728227Y-77996804D01*
X99752496Y-77993204D01*
X99777000Y-77992000D01*
X100702000Y-77992000D01*
X100726504Y-77993204D01*
X100726504Y-77993204D01*
G37*
D14*
X100239500Y-78867000D03*
D12*
G36*
X103701504Y-77993204D02*
X103725773Y-77996804D01*
X103749571Y-78002765D01*
X103772671Y-78011030D01*
X103794849Y-78021520D01*
X103815893Y-78034133D01*
X103835598Y-78048747D01*
X103853777Y-78065223D01*
X103870253Y-78083402D01*
X103884867Y-78103107D01*
X103897480Y-78124151D01*
X103907970Y-78146329D01*
X103916235Y-78169429D01*
X103922196Y-78193227D01*
X103925796Y-78217496D01*
X103927000Y-78242000D01*
X103927000Y-79492000D01*
X103925796Y-79516504D01*
X103922196Y-79540773D01*
X103916235Y-79564571D01*
X103907970Y-79587671D01*
X103897480Y-79609849D01*
X103884867Y-79630893D01*
X103870253Y-79650598D01*
X103853777Y-79668777D01*
X103835598Y-79685253D01*
X103815893Y-79699867D01*
X103794849Y-79712480D01*
X103772671Y-79722970D01*
X103749571Y-79731235D01*
X103725773Y-79737196D01*
X103701504Y-79740796D01*
X103677000Y-79742000D01*
X102752000Y-79742000D01*
X102727496Y-79740796D01*
X102703227Y-79737196D01*
X102679429Y-79731235D01*
X102656329Y-79722970D01*
X102634151Y-79712480D01*
X102613107Y-79699867D01*
X102593402Y-79685253D01*
X102575223Y-79668777D01*
X102558747Y-79650598D01*
X102544133Y-79630893D01*
X102531520Y-79609849D01*
X102521030Y-79587671D01*
X102512765Y-79564571D01*
X102506804Y-79540773D01*
X102503204Y-79516504D01*
X102502000Y-79492000D01*
X102502000Y-78242000D01*
X102503204Y-78217496D01*
X102506804Y-78193227D01*
X102512765Y-78169429D01*
X102521030Y-78146329D01*
X102531520Y-78124151D01*
X102544133Y-78103107D01*
X102558747Y-78083402D01*
X102575223Y-78065223D01*
X102593402Y-78048747D01*
X102613107Y-78034133D01*
X102634151Y-78021520D01*
X102656329Y-78011030D01*
X102679429Y-78002765D01*
X102703227Y-77996804D01*
X102727496Y-77993204D01*
X102752000Y-77992000D01*
X103677000Y-77992000D01*
X103701504Y-77993204D01*
X103701504Y-77993204D01*
G37*
D14*
X103214500Y-78867000D03*
G04 #@! TD*
D16*
G04 #@! TO.C,J12*
X198813000Y-101207000D03*
X198813000Y-106687000D03*
D17*
X198063000Y-106907000D03*
X198063000Y-100957000D03*
D18*
X196763000Y-106807000D03*
X196743000Y-101057000D03*
D19*
X196863000Y-105257000D03*
X196863000Y-104607000D03*
X196863000Y-103957000D03*
X196863000Y-103307000D03*
X196863000Y-102657000D03*
D20*
X200013000Y-104917000D03*
X200013000Y-102997000D03*
G04 #@! TD*
D12*
G04 #@! TO.C,R1*
G36*
X154291505Y-45148204D02*
X154315773Y-45151804D01*
X154339572Y-45157765D01*
X154362671Y-45166030D01*
X154384850Y-45176520D01*
X154405893Y-45189132D01*
X154425599Y-45203747D01*
X154443777Y-45220223D01*
X154460253Y-45238401D01*
X154474868Y-45258107D01*
X154487480Y-45279150D01*
X154497970Y-45301329D01*
X154506235Y-45324428D01*
X154512196Y-45348227D01*
X154515796Y-45372495D01*
X154517000Y-45396999D01*
X154517000Y-46297001D01*
X154515796Y-46321505D01*
X154512196Y-46345773D01*
X154506235Y-46369572D01*
X154497970Y-46392671D01*
X154487480Y-46414850D01*
X154474868Y-46435893D01*
X154460253Y-46455599D01*
X154443777Y-46473777D01*
X154425599Y-46490253D01*
X154405893Y-46504868D01*
X154384850Y-46517480D01*
X154362671Y-46527970D01*
X154339572Y-46536235D01*
X154315773Y-46542196D01*
X154291505Y-46545796D01*
X154267001Y-46547000D01*
X153616999Y-46547000D01*
X153592495Y-46545796D01*
X153568227Y-46542196D01*
X153544428Y-46536235D01*
X153521329Y-46527970D01*
X153499150Y-46517480D01*
X153478107Y-46504868D01*
X153458401Y-46490253D01*
X153440223Y-46473777D01*
X153423747Y-46455599D01*
X153409132Y-46435893D01*
X153396520Y-46414850D01*
X153386030Y-46392671D01*
X153377765Y-46369572D01*
X153371804Y-46345773D01*
X153368204Y-46321505D01*
X153367000Y-46297001D01*
X153367000Y-45396999D01*
X153368204Y-45372495D01*
X153371804Y-45348227D01*
X153377765Y-45324428D01*
X153386030Y-45301329D01*
X153396520Y-45279150D01*
X153409132Y-45258107D01*
X153423747Y-45238401D01*
X153440223Y-45220223D01*
X153458401Y-45203747D01*
X153478107Y-45189132D01*
X153499150Y-45176520D01*
X153521329Y-45166030D01*
X153544428Y-45157765D01*
X153568227Y-45151804D01*
X153592495Y-45148204D01*
X153616999Y-45147000D01*
X154267001Y-45147000D01*
X154291505Y-45148204D01*
X154291505Y-45148204D01*
G37*
D13*
X153942000Y-45847000D03*
D12*
G36*
X152241505Y-45148204D02*
X152265773Y-45151804D01*
X152289572Y-45157765D01*
X152312671Y-45166030D01*
X152334850Y-45176520D01*
X152355893Y-45189132D01*
X152375599Y-45203747D01*
X152393777Y-45220223D01*
X152410253Y-45238401D01*
X152424868Y-45258107D01*
X152437480Y-45279150D01*
X152447970Y-45301329D01*
X152456235Y-45324428D01*
X152462196Y-45348227D01*
X152465796Y-45372495D01*
X152467000Y-45396999D01*
X152467000Y-46297001D01*
X152465796Y-46321505D01*
X152462196Y-46345773D01*
X152456235Y-46369572D01*
X152447970Y-46392671D01*
X152437480Y-46414850D01*
X152424868Y-46435893D01*
X152410253Y-46455599D01*
X152393777Y-46473777D01*
X152375599Y-46490253D01*
X152355893Y-46504868D01*
X152334850Y-46517480D01*
X152312671Y-46527970D01*
X152289572Y-46536235D01*
X152265773Y-46542196D01*
X152241505Y-46545796D01*
X152217001Y-46547000D01*
X151566999Y-46547000D01*
X151542495Y-46545796D01*
X151518227Y-46542196D01*
X151494428Y-46536235D01*
X151471329Y-46527970D01*
X151449150Y-46517480D01*
X151428107Y-46504868D01*
X151408401Y-46490253D01*
X151390223Y-46473777D01*
X151373747Y-46455599D01*
X151359132Y-46435893D01*
X151346520Y-46414850D01*
X151336030Y-46392671D01*
X151327765Y-46369572D01*
X151321804Y-46345773D01*
X151318204Y-46321505D01*
X151317000Y-46297001D01*
X151317000Y-45396999D01*
X151318204Y-45372495D01*
X151321804Y-45348227D01*
X151327765Y-45324428D01*
X151336030Y-45301329D01*
X151346520Y-45279150D01*
X151359132Y-45258107D01*
X151373747Y-45238401D01*
X151390223Y-45220223D01*
X151408401Y-45203747D01*
X151428107Y-45189132D01*
X151449150Y-45176520D01*
X151471329Y-45166030D01*
X151494428Y-45157765D01*
X151518227Y-45151804D01*
X151542495Y-45148204D01*
X151566999Y-45147000D01*
X152217001Y-45147000D01*
X152241505Y-45148204D01*
X152241505Y-45148204D01*
G37*
D13*
X151892000Y-45847000D03*
G04 #@! TD*
D12*
G04 #@! TO.C,R2*
G36*
X183559001Y-71505779D02*
X183583269Y-71509379D01*
X183607068Y-71515340D01*
X183630167Y-71523605D01*
X183652346Y-71534095D01*
X183673389Y-71546707D01*
X183693095Y-71561322D01*
X183711273Y-71577798D01*
X183727749Y-71595976D01*
X183742364Y-71615682D01*
X183754976Y-71636725D01*
X183765466Y-71658904D01*
X183773731Y-71682003D01*
X183779692Y-71705802D01*
X183783292Y-71730070D01*
X183784496Y-71754574D01*
X183784496Y-72404576D01*
X183783292Y-72429080D01*
X183779692Y-72453348D01*
X183773731Y-72477147D01*
X183765466Y-72500246D01*
X183754976Y-72522425D01*
X183742364Y-72543468D01*
X183727749Y-72563174D01*
X183711273Y-72581352D01*
X183693095Y-72597828D01*
X183673389Y-72612443D01*
X183652346Y-72625055D01*
X183630167Y-72635545D01*
X183607068Y-72643810D01*
X183583269Y-72649771D01*
X183559001Y-72653371D01*
X183534497Y-72654575D01*
X182634495Y-72654575D01*
X182609991Y-72653371D01*
X182585723Y-72649771D01*
X182561924Y-72643810D01*
X182538825Y-72635545D01*
X182516646Y-72625055D01*
X182495603Y-72612443D01*
X182475897Y-72597828D01*
X182457719Y-72581352D01*
X182441243Y-72563174D01*
X182426628Y-72543468D01*
X182414016Y-72522425D01*
X182403526Y-72500246D01*
X182395261Y-72477147D01*
X182389300Y-72453348D01*
X182385700Y-72429080D01*
X182384496Y-72404576D01*
X182384496Y-71754574D01*
X182385700Y-71730070D01*
X182389300Y-71705802D01*
X182395261Y-71682003D01*
X182403526Y-71658904D01*
X182414016Y-71636725D01*
X182426628Y-71615682D01*
X182441243Y-71595976D01*
X182457719Y-71577798D01*
X182475897Y-71561322D01*
X182495603Y-71546707D01*
X182516646Y-71534095D01*
X182538825Y-71523605D01*
X182561924Y-71515340D01*
X182585723Y-71509379D01*
X182609991Y-71505779D01*
X182634495Y-71504575D01*
X183534497Y-71504575D01*
X183559001Y-71505779D01*
X183559001Y-71505779D01*
G37*
D13*
X183084496Y-72079575D03*
D12*
G36*
X183559001Y-73555779D02*
X183583269Y-73559379D01*
X183607068Y-73565340D01*
X183630167Y-73573605D01*
X183652346Y-73584095D01*
X183673389Y-73596707D01*
X183693095Y-73611322D01*
X183711273Y-73627798D01*
X183727749Y-73645976D01*
X183742364Y-73665682D01*
X183754976Y-73686725D01*
X183765466Y-73708904D01*
X183773731Y-73732003D01*
X183779692Y-73755802D01*
X183783292Y-73780070D01*
X183784496Y-73804574D01*
X183784496Y-74454576D01*
X183783292Y-74479080D01*
X183779692Y-74503348D01*
X183773731Y-74527147D01*
X183765466Y-74550246D01*
X183754976Y-74572425D01*
X183742364Y-74593468D01*
X183727749Y-74613174D01*
X183711273Y-74631352D01*
X183693095Y-74647828D01*
X183673389Y-74662443D01*
X183652346Y-74675055D01*
X183630167Y-74685545D01*
X183607068Y-74693810D01*
X183583269Y-74699771D01*
X183559001Y-74703371D01*
X183534497Y-74704575D01*
X182634495Y-74704575D01*
X182609991Y-74703371D01*
X182585723Y-74699771D01*
X182561924Y-74693810D01*
X182538825Y-74685545D01*
X182516646Y-74675055D01*
X182495603Y-74662443D01*
X182475897Y-74647828D01*
X182457719Y-74631352D01*
X182441243Y-74613174D01*
X182426628Y-74593468D01*
X182414016Y-74572425D01*
X182403526Y-74550246D01*
X182395261Y-74527147D01*
X182389300Y-74503348D01*
X182385700Y-74479080D01*
X182384496Y-74454576D01*
X182384496Y-73804574D01*
X182385700Y-73780070D01*
X182389300Y-73755802D01*
X182395261Y-73732003D01*
X182403526Y-73708904D01*
X182414016Y-73686725D01*
X182426628Y-73665682D01*
X182441243Y-73645976D01*
X182457719Y-73627798D01*
X182475897Y-73611322D01*
X182495603Y-73596707D01*
X182516646Y-73584095D01*
X182538825Y-73573605D01*
X182561924Y-73565340D01*
X182585723Y-73559379D01*
X182609991Y-73555779D01*
X182634495Y-73554575D01*
X183534497Y-73554575D01*
X183559001Y-73555779D01*
X183559001Y-73555779D01*
G37*
D13*
X183084496Y-74129575D03*
G04 #@! TD*
D12*
G04 #@! TO.C,R3*
G36*
X183559001Y-65155779D02*
X183583269Y-65159379D01*
X183607068Y-65165340D01*
X183630167Y-65173605D01*
X183652346Y-65184095D01*
X183673389Y-65196707D01*
X183693095Y-65211322D01*
X183711273Y-65227798D01*
X183727749Y-65245976D01*
X183742364Y-65265682D01*
X183754976Y-65286725D01*
X183765466Y-65308904D01*
X183773731Y-65332003D01*
X183779692Y-65355802D01*
X183783292Y-65380070D01*
X183784496Y-65404574D01*
X183784496Y-66054576D01*
X183783292Y-66079080D01*
X183779692Y-66103348D01*
X183773731Y-66127147D01*
X183765466Y-66150246D01*
X183754976Y-66172425D01*
X183742364Y-66193468D01*
X183727749Y-66213174D01*
X183711273Y-66231352D01*
X183693095Y-66247828D01*
X183673389Y-66262443D01*
X183652346Y-66275055D01*
X183630167Y-66285545D01*
X183607068Y-66293810D01*
X183583269Y-66299771D01*
X183559001Y-66303371D01*
X183534497Y-66304575D01*
X182634495Y-66304575D01*
X182609991Y-66303371D01*
X182585723Y-66299771D01*
X182561924Y-66293810D01*
X182538825Y-66285545D01*
X182516646Y-66275055D01*
X182495603Y-66262443D01*
X182475897Y-66247828D01*
X182457719Y-66231352D01*
X182441243Y-66213174D01*
X182426628Y-66193468D01*
X182414016Y-66172425D01*
X182403526Y-66150246D01*
X182395261Y-66127147D01*
X182389300Y-66103348D01*
X182385700Y-66079080D01*
X182384496Y-66054576D01*
X182384496Y-65404574D01*
X182385700Y-65380070D01*
X182389300Y-65355802D01*
X182395261Y-65332003D01*
X182403526Y-65308904D01*
X182414016Y-65286725D01*
X182426628Y-65265682D01*
X182441243Y-65245976D01*
X182457719Y-65227798D01*
X182475897Y-65211322D01*
X182495603Y-65196707D01*
X182516646Y-65184095D01*
X182538825Y-65173605D01*
X182561924Y-65165340D01*
X182585723Y-65159379D01*
X182609991Y-65155779D01*
X182634495Y-65154575D01*
X183534497Y-65154575D01*
X183559001Y-65155779D01*
X183559001Y-65155779D01*
G37*
D13*
X183084496Y-65729575D03*
D12*
G36*
X183559001Y-67205779D02*
X183583269Y-67209379D01*
X183607068Y-67215340D01*
X183630167Y-67223605D01*
X183652346Y-67234095D01*
X183673389Y-67246707D01*
X183693095Y-67261322D01*
X183711273Y-67277798D01*
X183727749Y-67295976D01*
X183742364Y-67315682D01*
X183754976Y-67336725D01*
X183765466Y-67358904D01*
X183773731Y-67382003D01*
X183779692Y-67405802D01*
X183783292Y-67430070D01*
X183784496Y-67454574D01*
X183784496Y-68104576D01*
X183783292Y-68129080D01*
X183779692Y-68153348D01*
X183773731Y-68177147D01*
X183765466Y-68200246D01*
X183754976Y-68222425D01*
X183742364Y-68243468D01*
X183727749Y-68263174D01*
X183711273Y-68281352D01*
X183693095Y-68297828D01*
X183673389Y-68312443D01*
X183652346Y-68325055D01*
X183630167Y-68335545D01*
X183607068Y-68343810D01*
X183583269Y-68349771D01*
X183559001Y-68353371D01*
X183534497Y-68354575D01*
X182634495Y-68354575D01*
X182609991Y-68353371D01*
X182585723Y-68349771D01*
X182561924Y-68343810D01*
X182538825Y-68335545D01*
X182516646Y-68325055D01*
X182495603Y-68312443D01*
X182475897Y-68297828D01*
X182457719Y-68281352D01*
X182441243Y-68263174D01*
X182426628Y-68243468D01*
X182414016Y-68222425D01*
X182403526Y-68200246D01*
X182395261Y-68177147D01*
X182389300Y-68153348D01*
X182385700Y-68129080D01*
X182384496Y-68104576D01*
X182384496Y-67454574D01*
X182385700Y-67430070D01*
X182389300Y-67405802D01*
X182395261Y-67382003D01*
X182403526Y-67358904D01*
X182414016Y-67336725D01*
X182426628Y-67315682D01*
X182441243Y-67295976D01*
X182457719Y-67277798D01*
X182475897Y-67261322D01*
X182495603Y-67246707D01*
X182516646Y-67234095D01*
X182538825Y-67223605D01*
X182561924Y-67215340D01*
X182585723Y-67209379D01*
X182609991Y-67205779D01*
X182634495Y-67204575D01*
X183534497Y-67204575D01*
X183559001Y-67205779D01*
X183559001Y-67205779D01*
G37*
D13*
X183084496Y-67779575D03*
G04 #@! TD*
D12*
G04 #@! TO.C,R4*
G36*
X147161505Y-63563204D02*
X147185773Y-63566804D01*
X147209572Y-63572765D01*
X147232671Y-63581030D01*
X147254850Y-63591520D01*
X147275893Y-63604132D01*
X147295599Y-63618747D01*
X147313777Y-63635223D01*
X147330253Y-63653401D01*
X147344868Y-63673107D01*
X147357480Y-63694150D01*
X147367970Y-63716329D01*
X147376235Y-63739428D01*
X147382196Y-63763227D01*
X147385796Y-63787495D01*
X147387000Y-63811999D01*
X147387000Y-64712001D01*
X147385796Y-64736505D01*
X147382196Y-64760773D01*
X147376235Y-64784572D01*
X147367970Y-64807671D01*
X147357480Y-64829850D01*
X147344868Y-64850893D01*
X147330253Y-64870599D01*
X147313777Y-64888777D01*
X147295599Y-64905253D01*
X147275893Y-64919868D01*
X147254850Y-64932480D01*
X147232671Y-64942970D01*
X147209572Y-64951235D01*
X147185773Y-64957196D01*
X147161505Y-64960796D01*
X147137001Y-64962000D01*
X146486999Y-64962000D01*
X146462495Y-64960796D01*
X146438227Y-64957196D01*
X146414428Y-64951235D01*
X146391329Y-64942970D01*
X146369150Y-64932480D01*
X146348107Y-64919868D01*
X146328401Y-64905253D01*
X146310223Y-64888777D01*
X146293747Y-64870599D01*
X146279132Y-64850893D01*
X146266520Y-64829850D01*
X146256030Y-64807671D01*
X146247765Y-64784572D01*
X146241804Y-64760773D01*
X146238204Y-64736505D01*
X146237000Y-64712001D01*
X146237000Y-63811999D01*
X146238204Y-63787495D01*
X146241804Y-63763227D01*
X146247765Y-63739428D01*
X146256030Y-63716329D01*
X146266520Y-63694150D01*
X146279132Y-63673107D01*
X146293747Y-63653401D01*
X146310223Y-63635223D01*
X146328401Y-63618747D01*
X146348107Y-63604132D01*
X146369150Y-63591520D01*
X146391329Y-63581030D01*
X146414428Y-63572765D01*
X146438227Y-63566804D01*
X146462495Y-63563204D01*
X146486999Y-63562000D01*
X147137001Y-63562000D01*
X147161505Y-63563204D01*
X147161505Y-63563204D01*
G37*
D13*
X146812000Y-64262000D03*
D12*
G36*
X145111505Y-63563204D02*
X145135773Y-63566804D01*
X145159572Y-63572765D01*
X145182671Y-63581030D01*
X145204850Y-63591520D01*
X145225893Y-63604132D01*
X145245599Y-63618747D01*
X145263777Y-63635223D01*
X145280253Y-63653401D01*
X145294868Y-63673107D01*
X145307480Y-63694150D01*
X145317970Y-63716329D01*
X145326235Y-63739428D01*
X145332196Y-63763227D01*
X145335796Y-63787495D01*
X145337000Y-63811999D01*
X145337000Y-64712001D01*
X145335796Y-64736505D01*
X145332196Y-64760773D01*
X145326235Y-64784572D01*
X145317970Y-64807671D01*
X145307480Y-64829850D01*
X145294868Y-64850893D01*
X145280253Y-64870599D01*
X145263777Y-64888777D01*
X145245599Y-64905253D01*
X145225893Y-64919868D01*
X145204850Y-64932480D01*
X145182671Y-64942970D01*
X145159572Y-64951235D01*
X145135773Y-64957196D01*
X145111505Y-64960796D01*
X145087001Y-64962000D01*
X144436999Y-64962000D01*
X144412495Y-64960796D01*
X144388227Y-64957196D01*
X144364428Y-64951235D01*
X144341329Y-64942970D01*
X144319150Y-64932480D01*
X144298107Y-64919868D01*
X144278401Y-64905253D01*
X144260223Y-64888777D01*
X144243747Y-64870599D01*
X144229132Y-64850893D01*
X144216520Y-64829850D01*
X144206030Y-64807671D01*
X144197765Y-64784572D01*
X144191804Y-64760773D01*
X144188204Y-64736505D01*
X144187000Y-64712001D01*
X144187000Y-63811999D01*
X144188204Y-63787495D01*
X144191804Y-63763227D01*
X144197765Y-63739428D01*
X144206030Y-63716329D01*
X144216520Y-63694150D01*
X144229132Y-63673107D01*
X144243747Y-63653401D01*
X144260223Y-63635223D01*
X144278401Y-63618747D01*
X144298107Y-63604132D01*
X144319150Y-63591520D01*
X144341329Y-63581030D01*
X144364428Y-63572765D01*
X144388227Y-63566804D01*
X144412495Y-63563204D01*
X144436999Y-63562000D01*
X145087001Y-63562000D01*
X145111505Y-63563204D01*
X145111505Y-63563204D01*
G37*
D13*
X144762000Y-64262000D03*
G04 #@! TD*
D12*
G04 #@! TO.C,R5*
G36*
X147122779Y-69503144D02*
X147145834Y-69506563D01*
X147168443Y-69512227D01*
X147190387Y-69520079D01*
X147211457Y-69530044D01*
X147231448Y-69542026D01*
X147250168Y-69555910D01*
X147267438Y-69571562D01*
X147283090Y-69588832D01*
X147296974Y-69607552D01*
X147308956Y-69627543D01*
X147318921Y-69648613D01*
X147326773Y-69670557D01*
X147332437Y-69693166D01*
X147335856Y-69716221D01*
X147337000Y-69739500D01*
X147337000Y-70214500D01*
X147335856Y-70237779D01*
X147332437Y-70260834D01*
X147326773Y-70283443D01*
X147318921Y-70305387D01*
X147308956Y-70326457D01*
X147296974Y-70346448D01*
X147283090Y-70365168D01*
X147267438Y-70382438D01*
X147250168Y-70398090D01*
X147231448Y-70411974D01*
X147211457Y-70423956D01*
X147190387Y-70433921D01*
X147168443Y-70441773D01*
X147145834Y-70447437D01*
X147122779Y-70450856D01*
X147099500Y-70452000D01*
X146524500Y-70452000D01*
X146501221Y-70450856D01*
X146478166Y-70447437D01*
X146455557Y-70441773D01*
X146433613Y-70433921D01*
X146412543Y-70423956D01*
X146392552Y-70411974D01*
X146373832Y-70398090D01*
X146356562Y-70382438D01*
X146340910Y-70365168D01*
X146327026Y-70346448D01*
X146315044Y-70326457D01*
X146305079Y-70305387D01*
X146297227Y-70283443D01*
X146291563Y-70260834D01*
X146288144Y-70237779D01*
X146287000Y-70214500D01*
X146287000Y-69739500D01*
X146288144Y-69716221D01*
X146291563Y-69693166D01*
X146297227Y-69670557D01*
X146305079Y-69648613D01*
X146315044Y-69627543D01*
X146327026Y-69607552D01*
X146340910Y-69588832D01*
X146356562Y-69571562D01*
X146373832Y-69555910D01*
X146392552Y-69542026D01*
X146412543Y-69530044D01*
X146433613Y-69520079D01*
X146455557Y-69512227D01*
X146478166Y-69506563D01*
X146501221Y-69503144D01*
X146524500Y-69502000D01*
X147099500Y-69502000D01*
X147122779Y-69503144D01*
X147122779Y-69503144D01*
G37*
D15*
X146812000Y-69977000D03*
D12*
G36*
X145372779Y-69503144D02*
X145395834Y-69506563D01*
X145418443Y-69512227D01*
X145440387Y-69520079D01*
X145461457Y-69530044D01*
X145481448Y-69542026D01*
X145500168Y-69555910D01*
X145517438Y-69571562D01*
X145533090Y-69588832D01*
X145546974Y-69607552D01*
X145558956Y-69627543D01*
X145568921Y-69648613D01*
X145576773Y-69670557D01*
X145582437Y-69693166D01*
X145585856Y-69716221D01*
X145587000Y-69739500D01*
X145587000Y-70214500D01*
X145585856Y-70237779D01*
X145582437Y-70260834D01*
X145576773Y-70283443D01*
X145568921Y-70305387D01*
X145558956Y-70326457D01*
X145546974Y-70346448D01*
X145533090Y-70365168D01*
X145517438Y-70382438D01*
X145500168Y-70398090D01*
X145481448Y-70411974D01*
X145461457Y-70423956D01*
X145440387Y-70433921D01*
X145418443Y-70441773D01*
X145395834Y-70447437D01*
X145372779Y-70450856D01*
X145349500Y-70452000D01*
X144774500Y-70452000D01*
X144751221Y-70450856D01*
X144728166Y-70447437D01*
X144705557Y-70441773D01*
X144683613Y-70433921D01*
X144662543Y-70423956D01*
X144642552Y-70411974D01*
X144623832Y-70398090D01*
X144606562Y-70382438D01*
X144590910Y-70365168D01*
X144577026Y-70346448D01*
X144565044Y-70326457D01*
X144555079Y-70305387D01*
X144547227Y-70283443D01*
X144541563Y-70260834D01*
X144538144Y-70237779D01*
X144537000Y-70214500D01*
X144537000Y-69739500D01*
X144538144Y-69716221D01*
X144541563Y-69693166D01*
X144547227Y-69670557D01*
X144555079Y-69648613D01*
X144565044Y-69627543D01*
X144577026Y-69607552D01*
X144590910Y-69588832D01*
X144606562Y-69571562D01*
X144623832Y-69555910D01*
X144642552Y-69542026D01*
X144662543Y-69530044D01*
X144683613Y-69520079D01*
X144705557Y-69512227D01*
X144728166Y-69506563D01*
X144751221Y-69503144D01*
X144774500Y-69502000D01*
X145349500Y-69502000D01*
X145372779Y-69503144D01*
X145372779Y-69503144D01*
G37*
D15*
X145062000Y-69977000D03*
G04 #@! TD*
D12*
G04 #@! TO.C,R6*
G36*
X109696505Y-118808204D02*
X109720773Y-118811804D01*
X109744572Y-118817765D01*
X109767671Y-118826030D01*
X109789850Y-118836520D01*
X109810893Y-118849132D01*
X109830599Y-118863747D01*
X109848777Y-118880223D01*
X109865253Y-118898401D01*
X109879868Y-118918107D01*
X109892480Y-118939150D01*
X109902970Y-118961329D01*
X109911235Y-118984428D01*
X109917196Y-119008227D01*
X109920796Y-119032495D01*
X109922000Y-119056999D01*
X109922000Y-119957001D01*
X109920796Y-119981505D01*
X109917196Y-120005773D01*
X109911235Y-120029572D01*
X109902970Y-120052671D01*
X109892480Y-120074850D01*
X109879868Y-120095893D01*
X109865253Y-120115599D01*
X109848777Y-120133777D01*
X109830599Y-120150253D01*
X109810893Y-120164868D01*
X109789850Y-120177480D01*
X109767671Y-120187970D01*
X109744572Y-120196235D01*
X109720773Y-120202196D01*
X109696505Y-120205796D01*
X109672001Y-120207000D01*
X109021999Y-120207000D01*
X108997495Y-120205796D01*
X108973227Y-120202196D01*
X108949428Y-120196235D01*
X108926329Y-120187970D01*
X108904150Y-120177480D01*
X108883107Y-120164868D01*
X108863401Y-120150253D01*
X108845223Y-120133777D01*
X108828747Y-120115599D01*
X108814132Y-120095893D01*
X108801520Y-120074850D01*
X108791030Y-120052671D01*
X108782765Y-120029572D01*
X108776804Y-120005773D01*
X108773204Y-119981505D01*
X108772000Y-119957001D01*
X108772000Y-119056999D01*
X108773204Y-119032495D01*
X108776804Y-119008227D01*
X108782765Y-118984428D01*
X108791030Y-118961329D01*
X108801520Y-118939150D01*
X108814132Y-118918107D01*
X108828747Y-118898401D01*
X108845223Y-118880223D01*
X108863401Y-118863747D01*
X108883107Y-118849132D01*
X108904150Y-118836520D01*
X108926329Y-118826030D01*
X108949428Y-118817765D01*
X108973227Y-118811804D01*
X108997495Y-118808204D01*
X109021999Y-118807000D01*
X109672001Y-118807000D01*
X109696505Y-118808204D01*
X109696505Y-118808204D01*
G37*
D13*
X109347000Y-119507000D03*
D12*
G36*
X107646505Y-118808204D02*
X107670773Y-118811804D01*
X107694572Y-118817765D01*
X107717671Y-118826030D01*
X107739850Y-118836520D01*
X107760893Y-118849132D01*
X107780599Y-118863747D01*
X107798777Y-118880223D01*
X107815253Y-118898401D01*
X107829868Y-118918107D01*
X107842480Y-118939150D01*
X107852970Y-118961329D01*
X107861235Y-118984428D01*
X107867196Y-119008227D01*
X107870796Y-119032495D01*
X107872000Y-119056999D01*
X107872000Y-119957001D01*
X107870796Y-119981505D01*
X107867196Y-120005773D01*
X107861235Y-120029572D01*
X107852970Y-120052671D01*
X107842480Y-120074850D01*
X107829868Y-120095893D01*
X107815253Y-120115599D01*
X107798777Y-120133777D01*
X107780599Y-120150253D01*
X107760893Y-120164868D01*
X107739850Y-120177480D01*
X107717671Y-120187970D01*
X107694572Y-120196235D01*
X107670773Y-120202196D01*
X107646505Y-120205796D01*
X107622001Y-120207000D01*
X106971999Y-120207000D01*
X106947495Y-120205796D01*
X106923227Y-120202196D01*
X106899428Y-120196235D01*
X106876329Y-120187970D01*
X106854150Y-120177480D01*
X106833107Y-120164868D01*
X106813401Y-120150253D01*
X106795223Y-120133777D01*
X106778747Y-120115599D01*
X106764132Y-120095893D01*
X106751520Y-120074850D01*
X106741030Y-120052671D01*
X106732765Y-120029572D01*
X106726804Y-120005773D01*
X106723204Y-119981505D01*
X106722000Y-119957001D01*
X106722000Y-119056999D01*
X106723204Y-119032495D01*
X106726804Y-119008227D01*
X106732765Y-118984428D01*
X106741030Y-118961329D01*
X106751520Y-118939150D01*
X106764132Y-118918107D01*
X106778747Y-118898401D01*
X106795223Y-118880223D01*
X106813401Y-118863747D01*
X106833107Y-118849132D01*
X106854150Y-118836520D01*
X106876329Y-118826030D01*
X106899428Y-118817765D01*
X106923227Y-118811804D01*
X106947495Y-118808204D01*
X106971999Y-118807000D01*
X107622001Y-118807000D01*
X107646505Y-118808204D01*
X107646505Y-118808204D01*
G37*
D13*
X107297000Y-119507000D03*
G04 #@! TD*
D12*
G04 #@! TO.C,R7*
G36*
X109262779Y-113953144D02*
X109285834Y-113956563D01*
X109308443Y-113962227D01*
X109330387Y-113970079D01*
X109351457Y-113980044D01*
X109371448Y-113992026D01*
X109390168Y-114005910D01*
X109407438Y-114021562D01*
X109423090Y-114038832D01*
X109436974Y-114057552D01*
X109448956Y-114077543D01*
X109458921Y-114098613D01*
X109466773Y-114120557D01*
X109472437Y-114143166D01*
X109475856Y-114166221D01*
X109477000Y-114189500D01*
X109477000Y-114664500D01*
X109475856Y-114687779D01*
X109472437Y-114710834D01*
X109466773Y-114733443D01*
X109458921Y-114755387D01*
X109448956Y-114776457D01*
X109436974Y-114796448D01*
X109423090Y-114815168D01*
X109407438Y-114832438D01*
X109390168Y-114848090D01*
X109371448Y-114861974D01*
X109351457Y-114873956D01*
X109330387Y-114883921D01*
X109308443Y-114891773D01*
X109285834Y-114897437D01*
X109262779Y-114900856D01*
X109239500Y-114902000D01*
X108664500Y-114902000D01*
X108641221Y-114900856D01*
X108618166Y-114897437D01*
X108595557Y-114891773D01*
X108573613Y-114883921D01*
X108552543Y-114873956D01*
X108532552Y-114861974D01*
X108513832Y-114848090D01*
X108496562Y-114832438D01*
X108480910Y-114815168D01*
X108467026Y-114796448D01*
X108455044Y-114776457D01*
X108445079Y-114755387D01*
X108437227Y-114733443D01*
X108431563Y-114710834D01*
X108428144Y-114687779D01*
X108427000Y-114664500D01*
X108427000Y-114189500D01*
X108428144Y-114166221D01*
X108431563Y-114143166D01*
X108437227Y-114120557D01*
X108445079Y-114098613D01*
X108455044Y-114077543D01*
X108467026Y-114057552D01*
X108480910Y-114038832D01*
X108496562Y-114021562D01*
X108513832Y-114005910D01*
X108532552Y-113992026D01*
X108552543Y-113980044D01*
X108573613Y-113970079D01*
X108595557Y-113962227D01*
X108618166Y-113956563D01*
X108641221Y-113953144D01*
X108664500Y-113952000D01*
X109239500Y-113952000D01*
X109262779Y-113953144D01*
X109262779Y-113953144D01*
G37*
D15*
X108952000Y-114427000D03*
D12*
G36*
X107512779Y-113953144D02*
X107535834Y-113956563D01*
X107558443Y-113962227D01*
X107580387Y-113970079D01*
X107601457Y-113980044D01*
X107621448Y-113992026D01*
X107640168Y-114005910D01*
X107657438Y-114021562D01*
X107673090Y-114038832D01*
X107686974Y-114057552D01*
X107698956Y-114077543D01*
X107708921Y-114098613D01*
X107716773Y-114120557D01*
X107722437Y-114143166D01*
X107725856Y-114166221D01*
X107727000Y-114189500D01*
X107727000Y-114664500D01*
X107725856Y-114687779D01*
X107722437Y-114710834D01*
X107716773Y-114733443D01*
X107708921Y-114755387D01*
X107698956Y-114776457D01*
X107686974Y-114796448D01*
X107673090Y-114815168D01*
X107657438Y-114832438D01*
X107640168Y-114848090D01*
X107621448Y-114861974D01*
X107601457Y-114873956D01*
X107580387Y-114883921D01*
X107558443Y-114891773D01*
X107535834Y-114897437D01*
X107512779Y-114900856D01*
X107489500Y-114902000D01*
X106914500Y-114902000D01*
X106891221Y-114900856D01*
X106868166Y-114897437D01*
X106845557Y-114891773D01*
X106823613Y-114883921D01*
X106802543Y-114873956D01*
X106782552Y-114861974D01*
X106763832Y-114848090D01*
X106746562Y-114832438D01*
X106730910Y-114815168D01*
X106717026Y-114796448D01*
X106705044Y-114776457D01*
X106695079Y-114755387D01*
X106687227Y-114733443D01*
X106681563Y-114710834D01*
X106678144Y-114687779D01*
X106677000Y-114664500D01*
X106677000Y-114189500D01*
X106678144Y-114166221D01*
X106681563Y-114143166D01*
X106687227Y-114120557D01*
X106695079Y-114098613D01*
X106705044Y-114077543D01*
X106717026Y-114057552D01*
X106730910Y-114038832D01*
X106746562Y-114021562D01*
X106763832Y-114005910D01*
X106782552Y-113992026D01*
X106802543Y-113980044D01*
X106823613Y-113970079D01*
X106845557Y-113962227D01*
X106868166Y-113956563D01*
X106891221Y-113953144D01*
X106914500Y-113952000D01*
X107489500Y-113952000D01*
X107512779Y-113953144D01*
X107512779Y-113953144D01*
G37*
D15*
X107202000Y-114427000D03*
G04 #@! TD*
D12*
G04 #@! TO.C,R8*
G36*
X100416505Y-109283204D02*
X100440773Y-109286804D01*
X100464572Y-109292765D01*
X100487671Y-109301030D01*
X100509850Y-109311520D01*
X100530893Y-109324132D01*
X100550599Y-109338747D01*
X100568777Y-109355223D01*
X100585253Y-109373401D01*
X100599868Y-109393107D01*
X100612480Y-109414150D01*
X100622970Y-109436329D01*
X100631235Y-109459428D01*
X100637196Y-109483227D01*
X100640796Y-109507495D01*
X100642000Y-109531999D01*
X100642000Y-110432001D01*
X100640796Y-110456505D01*
X100637196Y-110480773D01*
X100631235Y-110504572D01*
X100622970Y-110527671D01*
X100612480Y-110549850D01*
X100599868Y-110570893D01*
X100585253Y-110590599D01*
X100568777Y-110608777D01*
X100550599Y-110625253D01*
X100530893Y-110639868D01*
X100509850Y-110652480D01*
X100487671Y-110662970D01*
X100464572Y-110671235D01*
X100440773Y-110677196D01*
X100416505Y-110680796D01*
X100392001Y-110682000D01*
X99741999Y-110682000D01*
X99717495Y-110680796D01*
X99693227Y-110677196D01*
X99669428Y-110671235D01*
X99646329Y-110662970D01*
X99624150Y-110652480D01*
X99603107Y-110639868D01*
X99583401Y-110625253D01*
X99565223Y-110608777D01*
X99548747Y-110590599D01*
X99534132Y-110570893D01*
X99521520Y-110549850D01*
X99511030Y-110527671D01*
X99502765Y-110504572D01*
X99496804Y-110480773D01*
X99493204Y-110456505D01*
X99492000Y-110432001D01*
X99492000Y-109531999D01*
X99493204Y-109507495D01*
X99496804Y-109483227D01*
X99502765Y-109459428D01*
X99511030Y-109436329D01*
X99521520Y-109414150D01*
X99534132Y-109393107D01*
X99548747Y-109373401D01*
X99565223Y-109355223D01*
X99583401Y-109338747D01*
X99603107Y-109324132D01*
X99624150Y-109311520D01*
X99646329Y-109301030D01*
X99669428Y-109292765D01*
X99693227Y-109286804D01*
X99717495Y-109283204D01*
X99741999Y-109282000D01*
X100392001Y-109282000D01*
X100416505Y-109283204D01*
X100416505Y-109283204D01*
G37*
D13*
X100067000Y-109982000D03*
D12*
G36*
X102466505Y-109283204D02*
X102490773Y-109286804D01*
X102514572Y-109292765D01*
X102537671Y-109301030D01*
X102559850Y-109311520D01*
X102580893Y-109324132D01*
X102600599Y-109338747D01*
X102618777Y-109355223D01*
X102635253Y-109373401D01*
X102649868Y-109393107D01*
X102662480Y-109414150D01*
X102672970Y-109436329D01*
X102681235Y-109459428D01*
X102687196Y-109483227D01*
X102690796Y-109507495D01*
X102692000Y-109531999D01*
X102692000Y-110432001D01*
X102690796Y-110456505D01*
X102687196Y-110480773D01*
X102681235Y-110504572D01*
X102672970Y-110527671D01*
X102662480Y-110549850D01*
X102649868Y-110570893D01*
X102635253Y-110590599D01*
X102618777Y-110608777D01*
X102600599Y-110625253D01*
X102580893Y-110639868D01*
X102559850Y-110652480D01*
X102537671Y-110662970D01*
X102514572Y-110671235D01*
X102490773Y-110677196D01*
X102466505Y-110680796D01*
X102442001Y-110682000D01*
X101791999Y-110682000D01*
X101767495Y-110680796D01*
X101743227Y-110677196D01*
X101719428Y-110671235D01*
X101696329Y-110662970D01*
X101674150Y-110652480D01*
X101653107Y-110639868D01*
X101633401Y-110625253D01*
X101615223Y-110608777D01*
X101598747Y-110590599D01*
X101584132Y-110570893D01*
X101571520Y-110549850D01*
X101561030Y-110527671D01*
X101552765Y-110504572D01*
X101546804Y-110480773D01*
X101543204Y-110456505D01*
X101542000Y-110432001D01*
X101542000Y-109531999D01*
X101543204Y-109507495D01*
X101546804Y-109483227D01*
X101552765Y-109459428D01*
X101561030Y-109436329D01*
X101571520Y-109414150D01*
X101584132Y-109393107D01*
X101598747Y-109373401D01*
X101615223Y-109355223D01*
X101633401Y-109338747D01*
X101653107Y-109324132D01*
X101674150Y-109311520D01*
X101696329Y-109301030D01*
X101719428Y-109292765D01*
X101743227Y-109286804D01*
X101767495Y-109283204D01*
X101791999Y-109282000D01*
X102442001Y-109282000D01*
X102466505Y-109283204D01*
X102466505Y-109283204D01*
G37*
D13*
X102117000Y-109982000D03*
G04 #@! TD*
D12*
G04 #@! TO.C,R9*
G36*
X109941505Y-78168204D02*
X109965773Y-78171804D01*
X109989572Y-78177765D01*
X110012671Y-78186030D01*
X110034850Y-78196520D01*
X110055893Y-78209132D01*
X110075599Y-78223747D01*
X110093777Y-78240223D01*
X110110253Y-78258401D01*
X110124868Y-78278107D01*
X110137480Y-78299150D01*
X110147970Y-78321329D01*
X110156235Y-78344428D01*
X110162196Y-78368227D01*
X110165796Y-78392495D01*
X110167000Y-78416999D01*
X110167000Y-79317001D01*
X110165796Y-79341505D01*
X110162196Y-79365773D01*
X110156235Y-79389572D01*
X110147970Y-79412671D01*
X110137480Y-79434850D01*
X110124868Y-79455893D01*
X110110253Y-79475599D01*
X110093777Y-79493777D01*
X110075599Y-79510253D01*
X110055893Y-79524868D01*
X110034850Y-79537480D01*
X110012671Y-79547970D01*
X109989572Y-79556235D01*
X109965773Y-79562196D01*
X109941505Y-79565796D01*
X109917001Y-79567000D01*
X109266999Y-79567000D01*
X109242495Y-79565796D01*
X109218227Y-79562196D01*
X109194428Y-79556235D01*
X109171329Y-79547970D01*
X109149150Y-79537480D01*
X109128107Y-79524868D01*
X109108401Y-79510253D01*
X109090223Y-79493777D01*
X109073747Y-79475599D01*
X109059132Y-79455893D01*
X109046520Y-79434850D01*
X109036030Y-79412671D01*
X109027765Y-79389572D01*
X109021804Y-79365773D01*
X109018204Y-79341505D01*
X109017000Y-79317001D01*
X109017000Y-78416999D01*
X109018204Y-78392495D01*
X109021804Y-78368227D01*
X109027765Y-78344428D01*
X109036030Y-78321329D01*
X109046520Y-78299150D01*
X109059132Y-78278107D01*
X109073747Y-78258401D01*
X109090223Y-78240223D01*
X109108401Y-78223747D01*
X109128107Y-78209132D01*
X109149150Y-78196520D01*
X109171329Y-78186030D01*
X109194428Y-78177765D01*
X109218227Y-78171804D01*
X109242495Y-78168204D01*
X109266999Y-78167000D01*
X109917001Y-78167000D01*
X109941505Y-78168204D01*
X109941505Y-78168204D01*
G37*
D13*
X109592000Y-78867000D03*
D12*
G36*
X111991505Y-78168204D02*
X112015773Y-78171804D01*
X112039572Y-78177765D01*
X112062671Y-78186030D01*
X112084850Y-78196520D01*
X112105893Y-78209132D01*
X112125599Y-78223747D01*
X112143777Y-78240223D01*
X112160253Y-78258401D01*
X112174868Y-78278107D01*
X112187480Y-78299150D01*
X112197970Y-78321329D01*
X112206235Y-78344428D01*
X112212196Y-78368227D01*
X112215796Y-78392495D01*
X112217000Y-78416999D01*
X112217000Y-79317001D01*
X112215796Y-79341505D01*
X112212196Y-79365773D01*
X112206235Y-79389572D01*
X112197970Y-79412671D01*
X112187480Y-79434850D01*
X112174868Y-79455893D01*
X112160253Y-79475599D01*
X112143777Y-79493777D01*
X112125599Y-79510253D01*
X112105893Y-79524868D01*
X112084850Y-79537480D01*
X112062671Y-79547970D01*
X112039572Y-79556235D01*
X112015773Y-79562196D01*
X111991505Y-79565796D01*
X111967001Y-79567000D01*
X111316999Y-79567000D01*
X111292495Y-79565796D01*
X111268227Y-79562196D01*
X111244428Y-79556235D01*
X111221329Y-79547970D01*
X111199150Y-79537480D01*
X111178107Y-79524868D01*
X111158401Y-79510253D01*
X111140223Y-79493777D01*
X111123747Y-79475599D01*
X111109132Y-79455893D01*
X111096520Y-79434850D01*
X111086030Y-79412671D01*
X111077765Y-79389572D01*
X111071804Y-79365773D01*
X111068204Y-79341505D01*
X111067000Y-79317001D01*
X111067000Y-78416999D01*
X111068204Y-78392495D01*
X111071804Y-78368227D01*
X111077765Y-78344428D01*
X111086030Y-78321329D01*
X111096520Y-78299150D01*
X111109132Y-78278107D01*
X111123747Y-78258401D01*
X111140223Y-78240223D01*
X111158401Y-78223747D01*
X111178107Y-78209132D01*
X111199150Y-78196520D01*
X111221329Y-78186030D01*
X111244428Y-78177765D01*
X111268227Y-78171804D01*
X111292495Y-78168204D01*
X111316999Y-78167000D01*
X111967001Y-78167000D01*
X111991505Y-78168204D01*
X111991505Y-78168204D01*
G37*
D13*
X111642000Y-78867000D03*
G04 #@! TD*
D12*
G04 #@! TO.C,R12*
G36*
X160251505Y-111823204D02*
X160275773Y-111826804D01*
X160299572Y-111832765D01*
X160322671Y-111841030D01*
X160344850Y-111851520D01*
X160365893Y-111864132D01*
X160385599Y-111878747D01*
X160403777Y-111895223D01*
X160420253Y-111913401D01*
X160434868Y-111933107D01*
X160447480Y-111954150D01*
X160457970Y-111976329D01*
X160466235Y-111999428D01*
X160472196Y-112023227D01*
X160475796Y-112047495D01*
X160477000Y-112071999D01*
X160477000Y-112972001D01*
X160475796Y-112996505D01*
X160472196Y-113020773D01*
X160466235Y-113044572D01*
X160457970Y-113067671D01*
X160447480Y-113089850D01*
X160434868Y-113110893D01*
X160420253Y-113130599D01*
X160403777Y-113148777D01*
X160385599Y-113165253D01*
X160365893Y-113179868D01*
X160344850Y-113192480D01*
X160322671Y-113202970D01*
X160299572Y-113211235D01*
X160275773Y-113217196D01*
X160251505Y-113220796D01*
X160227001Y-113222000D01*
X159576999Y-113222000D01*
X159552495Y-113220796D01*
X159528227Y-113217196D01*
X159504428Y-113211235D01*
X159481329Y-113202970D01*
X159459150Y-113192480D01*
X159438107Y-113179868D01*
X159418401Y-113165253D01*
X159400223Y-113148777D01*
X159383747Y-113130599D01*
X159369132Y-113110893D01*
X159356520Y-113089850D01*
X159346030Y-113067671D01*
X159337765Y-113044572D01*
X159331804Y-113020773D01*
X159328204Y-112996505D01*
X159327000Y-112972001D01*
X159327000Y-112071999D01*
X159328204Y-112047495D01*
X159331804Y-112023227D01*
X159337765Y-111999428D01*
X159346030Y-111976329D01*
X159356520Y-111954150D01*
X159369132Y-111933107D01*
X159383747Y-111913401D01*
X159400223Y-111895223D01*
X159418401Y-111878747D01*
X159438107Y-111864132D01*
X159459150Y-111851520D01*
X159481329Y-111841030D01*
X159504428Y-111832765D01*
X159528227Y-111826804D01*
X159552495Y-111823204D01*
X159576999Y-111822000D01*
X160227001Y-111822000D01*
X160251505Y-111823204D01*
X160251505Y-111823204D01*
G37*
D13*
X159902000Y-112522000D03*
D12*
G36*
X158201505Y-111823204D02*
X158225773Y-111826804D01*
X158249572Y-111832765D01*
X158272671Y-111841030D01*
X158294850Y-111851520D01*
X158315893Y-111864132D01*
X158335599Y-111878747D01*
X158353777Y-111895223D01*
X158370253Y-111913401D01*
X158384868Y-111933107D01*
X158397480Y-111954150D01*
X158407970Y-111976329D01*
X158416235Y-111999428D01*
X158422196Y-112023227D01*
X158425796Y-112047495D01*
X158427000Y-112071999D01*
X158427000Y-112972001D01*
X158425796Y-112996505D01*
X158422196Y-113020773D01*
X158416235Y-113044572D01*
X158407970Y-113067671D01*
X158397480Y-113089850D01*
X158384868Y-113110893D01*
X158370253Y-113130599D01*
X158353777Y-113148777D01*
X158335599Y-113165253D01*
X158315893Y-113179868D01*
X158294850Y-113192480D01*
X158272671Y-113202970D01*
X158249572Y-113211235D01*
X158225773Y-113217196D01*
X158201505Y-113220796D01*
X158177001Y-113222000D01*
X157526999Y-113222000D01*
X157502495Y-113220796D01*
X157478227Y-113217196D01*
X157454428Y-113211235D01*
X157431329Y-113202970D01*
X157409150Y-113192480D01*
X157388107Y-113179868D01*
X157368401Y-113165253D01*
X157350223Y-113148777D01*
X157333747Y-113130599D01*
X157319132Y-113110893D01*
X157306520Y-113089850D01*
X157296030Y-113067671D01*
X157287765Y-113044572D01*
X157281804Y-113020773D01*
X157278204Y-112996505D01*
X157277000Y-112972001D01*
X157277000Y-112071999D01*
X157278204Y-112047495D01*
X157281804Y-112023227D01*
X157287765Y-111999428D01*
X157296030Y-111976329D01*
X157306520Y-111954150D01*
X157319132Y-111933107D01*
X157333747Y-111913401D01*
X157350223Y-111895223D01*
X157368401Y-111878747D01*
X157388107Y-111864132D01*
X157409150Y-111851520D01*
X157431329Y-111841030D01*
X157454428Y-111832765D01*
X157478227Y-111826804D01*
X157502495Y-111823204D01*
X157526999Y-111822000D01*
X158177001Y-111822000D01*
X158201505Y-111823204D01*
X158201505Y-111823204D01*
G37*
D13*
X157852000Y-112522000D03*
G04 #@! TD*
D12*
G04 #@! TO.C,R13*
G36*
X164551505Y-111823204D02*
X164575773Y-111826804D01*
X164599572Y-111832765D01*
X164622671Y-111841030D01*
X164644850Y-111851520D01*
X164665893Y-111864132D01*
X164685599Y-111878747D01*
X164703777Y-111895223D01*
X164720253Y-111913401D01*
X164734868Y-111933107D01*
X164747480Y-111954150D01*
X164757970Y-111976329D01*
X164766235Y-111999428D01*
X164772196Y-112023227D01*
X164775796Y-112047495D01*
X164777000Y-112071999D01*
X164777000Y-112972001D01*
X164775796Y-112996505D01*
X164772196Y-113020773D01*
X164766235Y-113044572D01*
X164757970Y-113067671D01*
X164747480Y-113089850D01*
X164734868Y-113110893D01*
X164720253Y-113130599D01*
X164703777Y-113148777D01*
X164685599Y-113165253D01*
X164665893Y-113179868D01*
X164644850Y-113192480D01*
X164622671Y-113202970D01*
X164599572Y-113211235D01*
X164575773Y-113217196D01*
X164551505Y-113220796D01*
X164527001Y-113222000D01*
X163876999Y-113222000D01*
X163852495Y-113220796D01*
X163828227Y-113217196D01*
X163804428Y-113211235D01*
X163781329Y-113202970D01*
X163759150Y-113192480D01*
X163738107Y-113179868D01*
X163718401Y-113165253D01*
X163700223Y-113148777D01*
X163683747Y-113130599D01*
X163669132Y-113110893D01*
X163656520Y-113089850D01*
X163646030Y-113067671D01*
X163637765Y-113044572D01*
X163631804Y-113020773D01*
X163628204Y-112996505D01*
X163627000Y-112972001D01*
X163627000Y-112071999D01*
X163628204Y-112047495D01*
X163631804Y-112023227D01*
X163637765Y-111999428D01*
X163646030Y-111976329D01*
X163656520Y-111954150D01*
X163669132Y-111933107D01*
X163683747Y-111913401D01*
X163700223Y-111895223D01*
X163718401Y-111878747D01*
X163738107Y-111864132D01*
X163759150Y-111851520D01*
X163781329Y-111841030D01*
X163804428Y-111832765D01*
X163828227Y-111826804D01*
X163852495Y-111823204D01*
X163876999Y-111822000D01*
X164527001Y-111822000D01*
X164551505Y-111823204D01*
X164551505Y-111823204D01*
G37*
D13*
X164202000Y-112522000D03*
D12*
G36*
X166601505Y-111823204D02*
X166625773Y-111826804D01*
X166649572Y-111832765D01*
X166672671Y-111841030D01*
X166694850Y-111851520D01*
X166715893Y-111864132D01*
X166735599Y-111878747D01*
X166753777Y-111895223D01*
X166770253Y-111913401D01*
X166784868Y-111933107D01*
X166797480Y-111954150D01*
X166807970Y-111976329D01*
X166816235Y-111999428D01*
X166822196Y-112023227D01*
X166825796Y-112047495D01*
X166827000Y-112071999D01*
X166827000Y-112972001D01*
X166825796Y-112996505D01*
X166822196Y-113020773D01*
X166816235Y-113044572D01*
X166807970Y-113067671D01*
X166797480Y-113089850D01*
X166784868Y-113110893D01*
X166770253Y-113130599D01*
X166753777Y-113148777D01*
X166735599Y-113165253D01*
X166715893Y-113179868D01*
X166694850Y-113192480D01*
X166672671Y-113202970D01*
X166649572Y-113211235D01*
X166625773Y-113217196D01*
X166601505Y-113220796D01*
X166577001Y-113222000D01*
X165926999Y-113222000D01*
X165902495Y-113220796D01*
X165878227Y-113217196D01*
X165854428Y-113211235D01*
X165831329Y-113202970D01*
X165809150Y-113192480D01*
X165788107Y-113179868D01*
X165768401Y-113165253D01*
X165750223Y-113148777D01*
X165733747Y-113130599D01*
X165719132Y-113110893D01*
X165706520Y-113089850D01*
X165696030Y-113067671D01*
X165687765Y-113044572D01*
X165681804Y-113020773D01*
X165678204Y-112996505D01*
X165677000Y-112972001D01*
X165677000Y-112071999D01*
X165678204Y-112047495D01*
X165681804Y-112023227D01*
X165687765Y-111999428D01*
X165696030Y-111976329D01*
X165706520Y-111954150D01*
X165719132Y-111933107D01*
X165733747Y-111913401D01*
X165750223Y-111895223D01*
X165768401Y-111878747D01*
X165788107Y-111864132D01*
X165809150Y-111851520D01*
X165831329Y-111841030D01*
X165854428Y-111832765D01*
X165878227Y-111826804D01*
X165902495Y-111823204D01*
X165926999Y-111822000D01*
X166577001Y-111822000D01*
X166601505Y-111823204D01*
X166601505Y-111823204D01*
G37*
D13*
X166252000Y-112522000D03*
G04 #@! TD*
D12*
G04 #@! TO.C,R14*
G36*
X149066505Y-101028204D02*
X149090773Y-101031804D01*
X149114572Y-101037765D01*
X149137671Y-101046030D01*
X149159850Y-101056520D01*
X149180893Y-101069132D01*
X149200599Y-101083747D01*
X149218777Y-101100223D01*
X149235253Y-101118401D01*
X149249868Y-101138107D01*
X149262480Y-101159150D01*
X149272970Y-101181329D01*
X149281235Y-101204428D01*
X149287196Y-101228227D01*
X149290796Y-101252495D01*
X149292000Y-101276999D01*
X149292000Y-102177001D01*
X149290796Y-102201505D01*
X149287196Y-102225773D01*
X149281235Y-102249572D01*
X149272970Y-102272671D01*
X149262480Y-102294850D01*
X149249868Y-102315893D01*
X149235253Y-102335599D01*
X149218777Y-102353777D01*
X149200599Y-102370253D01*
X149180893Y-102384868D01*
X149159850Y-102397480D01*
X149137671Y-102407970D01*
X149114572Y-102416235D01*
X149090773Y-102422196D01*
X149066505Y-102425796D01*
X149042001Y-102427000D01*
X148391999Y-102427000D01*
X148367495Y-102425796D01*
X148343227Y-102422196D01*
X148319428Y-102416235D01*
X148296329Y-102407970D01*
X148274150Y-102397480D01*
X148253107Y-102384868D01*
X148233401Y-102370253D01*
X148215223Y-102353777D01*
X148198747Y-102335599D01*
X148184132Y-102315893D01*
X148171520Y-102294850D01*
X148161030Y-102272671D01*
X148152765Y-102249572D01*
X148146804Y-102225773D01*
X148143204Y-102201505D01*
X148142000Y-102177001D01*
X148142000Y-101276999D01*
X148143204Y-101252495D01*
X148146804Y-101228227D01*
X148152765Y-101204428D01*
X148161030Y-101181329D01*
X148171520Y-101159150D01*
X148184132Y-101138107D01*
X148198747Y-101118401D01*
X148215223Y-101100223D01*
X148233401Y-101083747D01*
X148253107Y-101069132D01*
X148274150Y-101056520D01*
X148296329Y-101046030D01*
X148319428Y-101037765D01*
X148343227Y-101031804D01*
X148367495Y-101028204D01*
X148391999Y-101027000D01*
X149042001Y-101027000D01*
X149066505Y-101028204D01*
X149066505Y-101028204D01*
G37*
D13*
X148717000Y-101727000D03*
D12*
G36*
X147016505Y-101028204D02*
X147040773Y-101031804D01*
X147064572Y-101037765D01*
X147087671Y-101046030D01*
X147109850Y-101056520D01*
X147130893Y-101069132D01*
X147150599Y-101083747D01*
X147168777Y-101100223D01*
X147185253Y-101118401D01*
X147199868Y-101138107D01*
X147212480Y-101159150D01*
X147222970Y-101181329D01*
X147231235Y-101204428D01*
X147237196Y-101228227D01*
X147240796Y-101252495D01*
X147242000Y-101276999D01*
X147242000Y-102177001D01*
X147240796Y-102201505D01*
X147237196Y-102225773D01*
X147231235Y-102249572D01*
X147222970Y-102272671D01*
X147212480Y-102294850D01*
X147199868Y-102315893D01*
X147185253Y-102335599D01*
X147168777Y-102353777D01*
X147150599Y-102370253D01*
X147130893Y-102384868D01*
X147109850Y-102397480D01*
X147087671Y-102407970D01*
X147064572Y-102416235D01*
X147040773Y-102422196D01*
X147016505Y-102425796D01*
X146992001Y-102427000D01*
X146341999Y-102427000D01*
X146317495Y-102425796D01*
X146293227Y-102422196D01*
X146269428Y-102416235D01*
X146246329Y-102407970D01*
X146224150Y-102397480D01*
X146203107Y-102384868D01*
X146183401Y-102370253D01*
X146165223Y-102353777D01*
X146148747Y-102335599D01*
X146134132Y-102315893D01*
X146121520Y-102294850D01*
X146111030Y-102272671D01*
X146102765Y-102249572D01*
X146096804Y-102225773D01*
X146093204Y-102201505D01*
X146092000Y-102177001D01*
X146092000Y-101276999D01*
X146093204Y-101252495D01*
X146096804Y-101228227D01*
X146102765Y-101204428D01*
X146111030Y-101181329D01*
X146121520Y-101159150D01*
X146134132Y-101138107D01*
X146148747Y-101118401D01*
X146165223Y-101100223D01*
X146183401Y-101083747D01*
X146203107Y-101069132D01*
X146224150Y-101056520D01*
X146246329Y-101046030D01*
X146269428Y-101037765D01*
X146293227Y-101031804D01*
X146317495Y-101028204D01*
X146341999Y-101027000D01*
X146992001Y-101027000D01*
X147016505Y-101028204D01*
X147016505Y-101028204D01*
G37*
D13*
X146667000Y-101727000D03*
G04 #@! TD*
D21*
G04 #@! TO.C,S1*
X152273000Y-63627000D03*
X157861000Y-63627000D03*
X152273000Y-67437000D03*
X157861000Y-67437000D03*
G04 #@! TD*
G04 #@! TO.C,S2*
X119761000Y-113792000D03*
X114173000Y-113792000D03*
X119761000Y-109982000D03*
X114173000Y-109982000D03*
G04 #@! TD*
D22*
G04 #@! TO.C,U1*
X169037000Y-72777000D03*
X171577000Y-72777000D03*
X174117000Y-72777000D03*
D23*
X174352000Y-61202000D03*
X168802000Y-66052000D03*
X168802000Y-61202000D03*
X174352000Y-66052000D03*
G04 #@! TD*
D24*
G04 #@! TO.C,Y1*
X165862000Y-84836000D03*
X165862000Y-94488000D03*
G04 #@! TD*
D25*
G04 #@! TO.C,Y2*
X131162000Y-88472000D03*
X137062000Y-88472000D03*
X137062000Y-85772000D03*
X131162000Y-85772000D03*
G04 #@! TD*
M02*
