G04 #@! TF.GenerationSoftware,KiCad,Pcbnew,5.0.1-33cea8e~68~ubuntu18.04.1*
G04 #@! TF.CreationDate,2018-12-09T11:33:24-08:00*
G04 #@! TF.ProjectId,quad_copter_pcb,717561645F636F707465725F7063622E,rev?*
G04 #@! TF.SameCoordinates,Original*
G04 #@! TF.FileFunction,Copper,L2,Bot,Signal*
G04 #@! TF.FilePolarity,Positive*
%FSLAX46Y46*%
G04 Gerber Fmt 4.6, Leading zero omitted, Abs format (unit mm)*
G04 Created by KiCad (PCBNEW 5.0.1-33cea8e~68~ubuntu18.04.1) date Sun 09 Dec 2018 11:33:24 AM PST*
%MOMM*%
%LPD*%
G01*
G04 APERTURE LIST*
G04 #@! TA.AperFunction,ComponentPad*
%ADD10C,5.000000*%
G04 #@! TD*
G04 #@! TA.AperFunction,ComponentPad*
%ADD11C,1.700000*%
G04 #@! TD*
G04 #@! TA.AperFunction,Conductor*
%ADD12C,0.100000*%
G04 #@! TD*
G04 #@! TA.AperFunction,Conductor*
%ADD13C,1.700000*%
G04 #@! TD*
G04 #@! TA.AperFunction,ComponentPad*
%ADD14O,1.700000X1.700000*%
G04 #@! TD*
G04 #@! TA.AperFunction,ComponentPad*
%ADD15R,1.700000X1.700000*%
G04 #@! TD*
G04 #@! TA.AperFunction,ComponentPad*
%ADD16O,1.500000X1.100000*%
G04 #@! TD*
G04 #@! TA.AperFunction,ComponentPad*
%ADD17O,1.700000X1.350000*%
G04 #@! TD*
G04 #@! TA.AperFunction,ComponentPad*
%ADD18C,1.879600*%
G04 #@! TD*
G04 #@! TA.AperFunction,ComponentPad*
%ADD19C,1.524000*%
G04 #@! TD*
G04 #@! TA.AperFunction,ViaPad*
%ADD20C,0.800000*%
G04 #@! TD*
G04 #@! TA.AperFunction,Conductor*
%ADD21C,0.200000*%
G04 #@! TD*
G04 #@! TA.AperFunction,Conductor*
%ADD22C,1.000000*%
G04 #@! TD*
G04 #@! TA.AperFunction,Conductor*
%ADD23C,2.000000*%
G04 #@! TD*
G04 #@! TA.AperFunction,Conductor*
%ADD24C,0.500000*%
G04 #@! TD*
G04 #@! TA.AperFunction,Conductor*
%ADD25C,0.400000*%
G04 #@! TD*
G04 #@! TA.AperFunction,Conductor*
%ADD26C,0.254000*%
G04 #@! TD*
G04 APERTURE END LIST*
D10*
G04 #@! TO.P,H1,1*
G04 #@! TO.N,VBATT*
X192786000Y-82677000D03*
G04 #@! TD*
G04 #@! TO.P,H2,1*
G04 #@! TO.N,GND*
X192913000Y-90297000D03*
G04 #@! TD*
G04 #@! TO.P,H3,1*
G04 #@! TO.N,VBATT*
X103632000Y-64262000D03*
G04 #@! TD*
G04 #@! TO.P,H4,1*
G04 #@! TO.N,GND*
X108712000Y-59182000D03*
G04 #@! TD*
G04 #@! TO.P,H5,1*
G04 #@! TO.N,VBATT*
X116332000Y-136652000D03*
G04 #@! TD*
G04 #@! TO.P,H6,1*
G04 #@! TO.N,GND*
X111252000Y-131572000D03*
G04 #@! TD*
G04 #@! TO.P,H7,1*
G04 #@! TO.N,VBATT*
X188214000Y-122682000D03*
G04 #@! TD*
G04 #@! TO.P,H8,1*
G04 #@! TO.N,GND*
X183769000Y-128016000D03*
G04 #@! TD*
G04 #@! TO.P,H9,1*
G04 #@! TO.N,VBATT*
X174117000Y-50292000D03*
G04 #@! TD*
G04 #@! TO.P,H10,1*
G04 #@! TO.N,GND*
X179832000Y-55372000D03*
G04 #@! TD*
D11*
G04 #@! TO.P,J1,1*
G04 #@! TO.N,MOTOR1_PWM*
X113157000Y-54102000D03*
D12*
G04 #@! TD*
G04 #@! TO.N,MOTOR1_PWM*
G04 #@! TO.C,J1*
G36*
X114359082Y-54102000D02*
X113157000Y-55304082D01*
X111954918Y-54102000D01*
X113157000Y-52899918D01*
X114359082Y-54102000D01*
X114359082Y-54102000D01*
G37*
D11*
G04 #@! TO.P,J1,2*
G04 #@! TO.N,VDD3.3*
X114953051Y-52305949D03*
D13*
G04 #@! TD*
G04 #@! TO.N,VDD3.3*
G04 #@! TO.C,J1*
X114953051Y-52305949D02*
X114953051Y-52305949D01*
D11*
G04 #@! TO.P,J1,3*
G04 #@! TO.N,GND*
X116749102Y-50509898D03*
D13*
G04 #@! TD*
G04 #@! TO.N,GND*
G04 #@! TO.C,J1*
X116749102Y-50509898D02*
X116749102Y-50509898D01*
D11*
G04 #@! TO.P,J2,3*
G04 #@! TO.N,GND*
X101944898Y-123534898D03*
D13*
G04 #@! TD*
G04 #@! TO.N,GND*
G04 #@! TO.C,J2*
X101944898Y-123534898D02*
X101944898Y-123534898D01*
D11*
G04 #@! TO.P,J2,2*
G04 #@! TO.N,VDD3.3*
X103740949Y-125330949D03*
D13*
G04 #@! TD*
G04 #@! TO.N,VDD3.3*
G04 #@! TO.C,J2*
X103740949Y-125330949D02*
X103740949Y-125330949D01*
D11*
G04 #@! TO.P,J2,1*
G04 #@! TO.N,MOTOR2_PWM*
X105537000Y-127127000D03*
D12*
G04 #@! TD*
G04 #@! TO.N,MOTOR2_PWM*
G04 #@! TO.C,J2*
G36*
X105537000Y-125924918D02*
X106739082Y-127127000D01*
X105537000Y-128329082D01*
X104334918Y-127127000D01*
X105537000Y-125924918D01*
X105537000Y-125924918D01*
G37*
D11*
G04 #@! TO.P,J3,3*
G04 #@! TO.N,GND*
X175604898Y-137069102D03*
D13*
G04 #@! TD*
G04 #@! TO.N,GND*
G04 #@! TO.C,J3*
X175604898Y-137069102D02*
X175604898Y-137069102D01*
D11*
G04 #@! TO.P,J3,2*
G04 #@! TO.N,VDD3.3*
X177400949Y-135273051D03*
D13*
G04 #@! TD*
G04 #@! TO.N,VDD3.3*
G04 #@! TO.C,J3*
X177400949Y-135273051D02*
X177400949Y-135273051D01*
D11*
G04 #@! TO.P,J3,1*
G04 #@! TO.N,MOTOR3_PWM*
X179197000Y-133477000D03*
D12*
G04 #@! TD*
G04 #@! TO.N,MOTOR3_PWM*
G04 #@! TO.C,J3*
G36*
X177994918Y-133477000D02*
X179197000Y-132274918D01*
X180399082Y-133477000D01*
X179197000Y-134679082D01*
X177994918Y-133477000D01*
X177994918Y-133477000D01*
G37*
D11*
G04 #@! TO.P,J4,1*
G04 #@! TO.N,MOTOR4_PWM*
X186182000Y-59817000D03*
D12*
G04 #@! TD*
G04 #@! TO.N,MOTOR4_PWM*
G04 #@! TO.C,J4*
G36*
X186182000Y-61019082D02*
X184979918Y-59817000D01*
X186182000Y-58614918D01*
X187384082Y-59817000D01*
X186182000Y-61019082D01*
X186182000Y-61019082D01*
G37*
D11*
G04 #@! TO.P,J4,2*
G04 #@! TO.N,VDD3.3*
X187978051Y-61613051D03*
D13*
G04 #@! TD*
G04 #@! TO.N,VDD3.3*
G04 #@! TO.C,J4*
X187978051Y-61613051D02*
X187978051Y-61613051D01*
D11*
G04 #@! TO.P,J4,3*
G04 #@! TO.N,GND*
X189774102Y-63409102D03*
D13*
G04 #@! TD*
G04 #@! TO.N,GND*
G04 #@! TO.C,J4*
X189774102Y-63409102D02*
X189774102Y-63409102D01*
D11*
G04 #@! TO.P,J5,1*
G04 #@! TO.N,SPI_ATTN_INT_L*
X125857000Y-80772000D03*
D12*
G04 #@! TD*
G04 #@! TO.N,SPI_ATTN_INT_L*
G04 #@! TO.C,J5*
G36*
X127059082Y-80772000D02*
X125857000Y-81974082D01*
X124654918Y-80772000D01*
X125857000Y-79569918D01*
X127059082Y-80772000D01*
X127059082Y-80772000D01*
G37*
D11*
G04 #@! TO.P,J5,2*
G04 #@! TO.N,SPI_ATTN_INT_L*
X124060949Y-78975949D03*
D13*
G04 #@! TD*
G04 #@! TO.N,SPI_ATTN_INT_L*
G04 #@! TO.C,J5*
X124060949Y-78975949D02*
X124060949Y-78975949D01*
D11*
G04 #@! TO.P,J5,3*
G04 #@! TO.N,SS2_CSL_2*
X127653051Y-78975949D03*
D13*
G04 #@! TD*
G04 #@! TO.N,SS2_CSL_2*
G04 #@! TO.C,J5*
X127653051Y-78975949D02*
X127653051Y-78975949D01*
D11*
G04 #@! TO.P,J5,4*
G04 #@! TO.N,SS2_CSL_2*
X125857000Y-77179898D03*
D13*
G04 #@! TD*
G04 #@! TO.N,SS2_CSL_2*
G04 #@! TO.C,J5*
X125857000Y-77179898D02*
X125857000Y-77179898D01*
D11*
G04 #@! TO.P,J5,5*
G04 #@! TO.N,SDO2_MOSI_2*
X129449102Y-77179898D03*
D13*
G04 #@! TD*
G04 #@! TO.N,SDO2_MOSI_2*
G04 #@! TO.C,J5*
X129449102Y-77179898D02*
X129449102Y-77179898D01*
D11*
G04 #@! TO.P,J5,6*
G04 #@! TO.N,SDO2_MOSI_2*
X127653051Y-75383846D03*
D13*
G04 #@! TD*
G04 #@! TO.N,SDO2_MOSI_2*
G04 #@! TO.C,J5*
X127653051Y-75383846D02*
X127653051Y-75383846D01*
D11*
G04 #@! TO.P,J5,7*
G04 #@! TO.N,SDI2_MISO_2*
X131245154Y-75383846D03*
D13*
G04 #@! TD*
G04 #@! TO.N,SDI2_MISO_2*
G04 #@! TO.C,J5*
X131245154Y-75383846D02*
X131245154Y-75383846D01*
D11*
G04 #@! TO.P,J5,8*
G04 #@! TO.N,SDI2_MISO_2*
X129449102Y-73587795D03*
D13*
G04 #@! TD*
G04 #@! TO.N,SDI2_MISO_2*
G04 #@! TO.C,J5*
X129449102Y-73587795D02*
X129449102Y-73587795D01*
D11*
G04 #@! TO.P,J5,9*
G04 #@! TO.N,SCK2_SCLK_2*
X133041205Y-73587795D03*
D13*
G04 #@! TD*
G04 #@! TO.N,SCK2_SCLK_2*
G04 #@! TO.C,J5*
X133041205Y-73587795D02*
X133041205Y-73587795D01*
D11*
G04 #@! TO.P,J5,10*
G04 #@! TO.N,SCK2_SCLK_2*
X131245154Y-71791744D03*
D13*
G04 #@! TD*
G04 #@! TO.N,SCK2_SCLK_2*
G04 #@! TO.C,J5*
X131245154Y-71791744D02*
X131245154Y-71791744D01*
D14*
G04 #@! TO.P,J6,4*
G04 #@! TO.N,I2C1_SCL1*
X124587000Y-125222000D03*
G04 #@! TO.P,J6,3*
X122047000Y-125222000D03*
G04 #@! TO.P,J6,2*
G04 #@! TO.N,I2C1_SDA1*
X124587000Y-122682000D03*
D15*
G04 #@! TO.P,J6,1*
X122047000Y-122682000D03*
G04 #@! TD*
D14*
G04 #@! TO.P,J7,5*
G04 #@! TO.N,GND*
X162687000Y-56007000D03*
G04 #@! TO.P,J7,4*
G04 #@! TO.N,VDD3.3*
X160147000Y-56007000D03*
G04 #@! TO.P,J7,3*
G04 #@! TO.N,MCLR*
X157607000Y-56007000D03*
G04 #@! TO.P,J7,2*
G04 #@! TO.N,PGD*
X155067000Y-56007000D03*
D15*
G04 #@! TO.P,J7,1*
G04 #@! TO.N,PGC*
X152527000Y-56007000D03*
G04 #@! TD*
G04 #@! TO.P,J8,1*
G04 #@! TO.N,RE1*
X132207000Y-112522000D03*
D14*
G04 #@! TO.P,J8,2*
G04 #@! TO.N,RE0*
X129667000Y-112522000D03*
G04 #@! TO.P,J8,3*
G04 #@! TO.N,RE3*
X132207000Y-109982000D03*
G04 #@! TO.P,J8,4*
G04 #@! TO.N,RE2*
X129667000Y-109982000D03*
G04 #@! TO.P,J8,5*
G04 #@! TO.N,RE5*
X132207000Y-107442000D03*
G04 #@! TO.P,J8,6*
G04 #@! TO.N,RE4*
X129667000Y-107442000D03*
G04 #@! TO.P,J8,7*
G04 #@! TO.N,RE7*
X132207000Y-104902000D03*
G04 #@! TO.P,J8,8*
G04 #@! TO.N,RE6*
X129667000Y-104902000D03*
G04 #@! TD*
D15*
G04 #@! TO.P,J9,1*
G04 #@! TO.N,MOTOR1_PWM*
X174752000Y-110617000D03*
D14*
G04 #@! TO.P,J9,2*
G04 #@! TO.N,MOTOR3_PWM*
X177292000Y-110617000D03*
G04 #@! TO.P,J9,3*
G04 #@! TO.N,MOTOR2_PWM*
X174752000Y-113157000D03*
G04 #@! TO.P,J9,4*
G04 #@! TO.N,MOTOR4_PWM*
X177292000Y-113157000D03*
G04 #@! TD*
D11*
G04 #@! TO.P,J10,1*
G04 #@! TO.N,U1CTS*
X120777000Y-71247000D03*
D12*
G04 #@! TD*
G04 #@! TO.N,U1CTS*
G04 #@! TO.C,J10*
G36*
X121979082Y-71247000D02*
X120777000Y-72449082D01*
X119574918Y-71247000D01*
X120777000Y-70044918D01*
X121979082Y-71247000D01*
X121979082Y-71247000D01*
G37*
D11*
G04 #@! TO.P,J10,2*
G04 #@! TO.N,U1RX*
X118980949Y-69450949D03*
D13*
G04 #@! TD*
G04 #@! TO.N,U1RX*
G04 #@! TO.C,J10*
X118980949Y-69450949D02*
X118980949Y-69450949D01*
D11*
G04 #@! TO.P,J10,3*
G04 #@! TO.N,U1RTS*
X122573051Y-69450949D03*
D13*
G04 #@! TD*
G04 #@! TO.N,U1RTS*
G04 #@! TO.C,J10*
X122573051Y-69450949D02*
X122573051Y-69450949D01*
D11*
G04 #@! TO.P,J10,4*
G04 #@! TO.N,U1TX*
X120777000Y-67654898D03*
D13*
G04 #@! TD*
G04 #@! TO.N,U1TX*
G04 #@! TO.C,J10*
X120777000Y-67654898D02*
X120777000Y-67654898D01*
D11*
G04 #@! TO.P,J10,5*
G04 #@! TO.N,XBEE_RESET*
X124369102Y-67654898D03*
D13*
G04 #@! TD*
G04 #@! TO.N,XBEE_RESET*
G04 #@! TO.C,J10*
X124369102Y-67654898D02*
X124369102Y-67654898D01*
D11*
G04 #@! TO.P,J10,6*
G04 #@! TO.N,Net-(J10-Pad6)*
X122573051Y-65858846D03*
D13*
G04 #@! TD*
G04 #@! TO.N,Net-(J10-Pad6)*
G04 #@! TO.C,J10*
X122573051Y-65858846D02*
X122573051Y-65858846D01*
D15*
G04 #@! TO.P,J11,1*
G04 #@! TO.N,VBATT_SCALED*
X141097000Y-113792000D03*
D14*
G04 #@! TO.P,J11,2*
G04 #@! TO.N,AN12*
X143637000Y-113792000D03*
G04 #@! TO.P,J11,3*
G04 #@! TO.N,AN13*
X146177000Y-113792000D03*
G04 #@! TO.P,J11,4*
G04 #@! TO.N,AN14*
X148717000Y-113792000D03*
G04 #@! TO.P,J11,5*
G04 #@! TO.N,AN15*
X151257000Y-113792000D03*
G04 #@! TD*
D16*
G04 #@! TO.P,J12,6*
G04 #@! TO.N,GND*
X196743000Y-106377000D03*
X196743000Y-101537000D03*
D17*
X199743000Y-106687000D03*
X199743000Y-101227000D03*
G04 #@! TD*
D18*
G04 #@! TO.P,JP1,1*
G04 #@! TO.N,MCLR*
X143637000Y-56007000D03*
G04 #@! TO.P,JP1,2*
G04 #@! TO.N,VDD3.3*
X142367000Y-53467000D03*
G04 #@! TO.P,JP1,3*
G04 #@! TO.N,GND*
X141097000Y-56007000D03*
G04 #@! TO.P,JP1,4*
G04 #@! TO.N,PGD*
X139827000Y-53467000D03*
G04 #@! TO.P,JP1,5*
G04 #@! TO.N,PGC*
X138557000Y-56007000D03*
G04 #@! TO.P,JP1,6*
G04 #@! TO.N,GND*
X137287000Y-53467000D03*
G04 #@! TD*
D19*
G04 #@! TO.P,JP2,1*
G04 #@! TO.N,VDD3.3*
X96332040Y-105740200D03*
G04 #@! TO.P,JP2,2*
G04 #@! TO.N,U1RX*
X98333560Y-105740200D03*
G04 #@! TO.P,JP2,3*
G04 #@! TO.N,U1TX*
X100332540Y-105740200D03*
G04 #@! TO.P,JP2,4*
G04 #@! TO.N,SDI2_MISO_2*
X102334060Y-105740200D03*
G04 #@! TO.P,JP2,5*
G04 #@! TO.N,XBEE_RESET*
X104333040Y-105740200D03*
G04 #@! TO.P,JP2,6*
G04 #@! TO.N,Net-(JP2-Pad6)*
X106332020Y-105740200D03*
G04 #@! TO.P,JP2,7*
G04 #@! TO.N,RE2*
X108333540Y-105740200D03*
G04 #@! TO.P,JP2,8*
G04 #@! TO.N,RE1*
X110332520Y-105740200D03*
G04 #@! TO.P,JP2,9*
G04 #@! TO.N,RE0*
X112334040Y-105740200D03*
G04 #@! TO.P,JP2,10*
G04 #@! TO.N,GND*
X114333020Y-105740200D03*
G04 #@! TO.P,JP2,11*
G04 #@! TO.N,SDO2_MOSI_2*
X114333020Y-83743800D03*
G04 #@! TO.P,JP2,12*
G04 #@! TO.N,U1RTS*
X112334040Y-83743800D03*
G04 #@! TO.P,JP2,13*
G04 #@! TO.N,RE5*
X110332520Y-83743800D03*
G04 #@! TO.P,JP2,14*
G04 #@! TO.N,RE4*
X108333540Y-83743800D03*
G04 #@! TO.P,JP2,15*
G04 #@! TO.N,Net-(JP2-Pad15)*
X106332020Y-83743800D03*
G04 #@! TO.P,JP2,16*
G04 #@! TO.N,U1CTS*
X104333040Y-83743800D03*
G04 #@! TO.P,JP2,17*
G04 #@! TO.N,SS2_CSL_2*
X102334060Y-83743800D03*
G04 #@! TO.P,JP2,18*
G04 #@! TO.N,SCK2_SCLK_2*
X100332540Y-83743800D03*
G04 #@! TO.P,JP2,19*
G04 #@! TO.N,SPI_ATTN_INT_L*
X98333560Y-83743800D03*
G04 #@! TO.P,JP2,20*
G04 #@! TO.N,RE3*
X96332040Y-83743800D03*
G04 #@! TD*
D15*
G04 #@! TO.P,U3,1*
G04 #@! TO.N,VDD3.3*
X134747000Y-138557000D03*
D14*
G04 #@! TO.P,U3,2*
G04 #@! TO.N,GND*
X137287000Y-138557000D03*
G04 #@! TO.P,U3,3*
G04 #@! TO.N,I2C1_SCL1*
X139827000Y-138557000D03*
G04 #@! TO.P,U3,4*
G04 #@! TO.N,I2C1_SDA1*
X142367000Y-138557000D03*
G04 #@! TO.P,U3,5*
G04 #@! TO.N,GND*
X144907000Y-138557000D03*
G04 #@! TO.P,U3,6*
X147447000Y-138557000D03*
G04 #@! TO.P,U3,7*
X149987000Y-138557000D03*
G04 #@! TO.P,U3,8*
G04 #@! TO.N,INT1*
X152527000Y-138557000D03*
G04 #@! TD*
D20*
G04 #@! TO.N,VBATT*
X174371000Y-78105000D03*
X174498000Y-76073000D03*
X132334000Y-135509000D03*
X136017000Y-136017000D03*
X142748000Y-131953000D03*
X170053000Y-131191000D03*
X180086000Y-65125600D03*
X179882800Y-61112400D03*
X199034400Y-94996000D03*
G04 #@! TO.N,GND*
X149522000Y-97028000D03*
X150922000Y-96774000D03*
X138430000Y-81153000D03*
X140589000Y-75565000D03*
X103759000Y-120777000D03*
X103759000Y-117602000D03*
X116205000Y-110871000D03*
X118110000Y-110109000D03*
X111506000Y-112522000D03*
X161925000Y-60071000D03*
X162814000Y-61468000D03*
X136144000Y-92329000D03*
X139192000Y-98933000D03*
X141478000Y-95377000D03*
X157607000Y-98806000D03*
X157353000Y-103759000D03*
X155448000Y-103505000D03*
X155764000Y-101727000D03*
X124206000Y-109728000D03*
X134239000Y-104013000D03*
X141655475Y-90474475D03*
X139954000Y-88773000D03*
X146177000Y-85852000D03*
X150368000Y-85090000D03*
X141097000Y-73660000D03*
X143002000Y-72920011D03*
X157353000Y-96647000D03*
X154813000Y-111633000D03*
X150876000Y-133096000D03*
X139192000Y-93599000D03*
X146685000Y-84328000D03*
X160274000Y-84201000D03*
X158750000Y-82423000D03*
X137515600Y-142595600D03*
X194919600Y-125069600D03*
G04 #@! TO.N,VDD3.3*
X147968025Y-84949975D03*
X150876000Y-78740000D03*
X144780000Y-100584000D03*
X139065000Y-105918000D03*
X143891000Y-73914000D03*
X145542000Y-66548000D03*
X146812000Y-59563000D03*
X150495000Y-59055000D03*
X158623000Y-99568000D03*
X159258000Y-106299000D03*
X180467000Y-83439000D03*
X186563000Y-90297000D03*
X184404000Y-94234000D03*
X185039000Y-98806000D03*
X174498000Y-102616000D03*
X171704000Y-100965000D03*
X170053000Y-100584000D03*
X167894000Y-99568000D03*
X164973000Y-101346000D03*
X163576000Y-107442000D03*
X161925000Y-129032000D03*
X154813000Y-90547999D03*
X159639000Y-96393000D03*
X161671000Y-90424000D03*
X173863000Y-97917000D03*
X151511000Y-101981000D03*
X153162000Y-105791000D03*
X128905000Y-139446000D03*
G04 #@! TO.N,SOSCO*
X152654000Y-83566000D03*
X138176000Y-83312000D03*
G04 #@! TO.N,SOSCI*
X138176000Y-91186000D03*
X152654000Y-85090000D03*
G04 #@! TO.N,Net-(D2-Pad2)*
X103124000Y-111506000D03*
X105156000Y-111506000D03*
G04 #@! TO.N,Net-(D3-Pad2)*
X105918000Y-77216000D03*
X114300000Y-72390000D03*
G04 #@! TO.N,MOTOR1_PWM*
X183134000Y-107188000D03*
X162052000Y-80645000D03*
G04 #@! TO.N,MOTOR2_PWM*
X157607000Y-79502000D03*
G04 #@! TO.N,MOTOR3_PWM*
X156718000Y-78232000D03*
X180086000Y-113284000D03*
X183388000Y-119126000D03*
G04 #@! TO.N,MOTOR4_PWM*
X153797000Y-74803000D03*
X154559000Y-71882000D03*
X162052000Y-63500000D03*
X188276000Y-106172000D03*
X187071000Y-95631000D03*
X186055000Y-66040000D03*
G04 #@! TO.N,SPI_ATTN_INT_L*
X146050000Y-91948000D03*
X121920000Y-80391000D03*
X120142000Y-85090000D03*
X104775000Y-86487000D03*
X104013000Y-88646000D03*
G04 #@! TO.N,SS2_CSL_2*
X149352000Y-92710000D03*
X136398000Y-105156000D03*
X102616000Y-89662000D03*
X125730000Y-74168000D03*
X123825000Y-73279000D03*
X105410000Y-80137000D03*
G04 #@! TO.N,SDO2_MOSI_2*
X149606000Y-90932000D03*
X137668000Y-103886000D03*
X118364000Y-96774000D03*
X118364000Y-87630000D03*
X125857000Y-83947000D03*
X120269000Y-89408000D03*
G04 #@! TO.N,SDI2_MISO_2*
X149860000Y-89662000D03*
X120523000Y-98806000D03*
X126111000Y-98679000D03*
X128143000Y-87757000D03*
X131699000Y-81026000D03*
G04 #@! TO.N,SCK2_SCLK_2*
X96647000Y-77978000D03*
X101219000Y-81661000D03*
X118237000Y-64897000D03*
G04 #@! TO.N,I2C1_SCL1*
X176022000Y-89154000D03*
X178562000Y-96520000D03*
X167005000Y-103759000D03*
X167005000Y-108585000D03*
X133350000Y-131699000D03*
G04 #@! TO.N,I2C1_SDA1*
X177419000Y-88392000D03*
X180340000Y-96266000D03*
X188722000Y-99314000D03*
X160655000Y-109728000D03*
X133350000Y-129286000D03*
G04 #@! TO.N,MCLR*
X154178000Y-85598000D03*
X149098000Y-71120000D03*
G04 #@! TO.N,PGD*
X155448000Y-88900000D03*
G04 #@! TO.N,PGC*
X155194000Y-87884000D03*
G04 #@! TO.N,RE1*
X121412000Y-111506000D03*
X146177000Y-78740000D03*
X127508000Y-85406000D03*
X111379000Y-93345000D03*
X107569000Y-96139000D03*
X110871000Y-101600000D03*
G04 #@! TO.N,RE0*
X125603000Y-107315000D03*
X129032000Y-70739000D03*
X114554000Y-85406000D03*
X110363000Y-91440000D03*
X118110000Y-103632000D03*
X112649000Y-103632000D03*
G04 #@! TO.N,RE3*
X132207000Y-77978000D03*
X126873000Y-84582000D03*
X122047000Y-88138000D03*
X96647000Y-86868000D03*
X123952000Y-104394000D03*
G04 #@! TO.N,RE2*
X118999000Y-81026000D03*
X124206000Y-84328000D03*
X112776000Y-93091000D03*
X108204000Y-98044000D03*
X108204000Y-101219000D03*
X121920000Y-112903000D03*
G04 #@! TO.N,RE5*
X139954000Y-84582000D03*
X124333000Y-102489000D03*
G04 #@! TO.N,RE4*
X115062000Y-79629000D03*
X113665000Y-81788000D03*
X127635000Y-106934000D03*
X123436477Y-102046000D03*
X123190000Y-92456000D03*
X116840000Y-93599000D03*
X110617000Y-88900000D03*
G04 #@! TO.N,RE7*
X140208000Y-86614000D03*
G04 #@! TO.N,RE6*
X140208000Y-85598000D03*
G04 #@! TO.N,U1CTS*
X154686000Y-91948000D03*
X151892000Y-87884000D03*
G04 #@! TO.N,U1RX*
X152908000Y-93218000D03*
X156464000Y-106680000D03*
X141732000Y-120904000D03*
X104140000Y-115316000D03*
X106172000Y-74930000D03*
X94172000Y-80899000D03*
G04 #@! TO.N,U1RTS*
X162306000Y-99568000D03*
X117983000Y-79375000D03*
G04 #@! TO.N,U1TX*
X161798000Y-94742000D03*
X124968000Y-118872000D03*
G04 #@! TO.N,XBEE_RESET*
X141224000Y-107950000D03*
X108458000Y-116586000D03*
X96520000Y-80137000D03*
X96877195Y-103274805D03*
X104648000Y-101600000D03*
X106807000Y-101600000D03*
X106426000Y-103632000D03*
G04 #@! TO.N,VBATT_SCALED*
X179197000Y-73914000D03*
X180340000Y-68707000D03*
G04 #@! TO.N,AN12*
X151130000Y-97790000D03*
G04 #@! TO.N,AN13*
X152400000Y-98552000D03*
G04 #@! TO.N,AN14*
X153416000Y-99060000D03*
G04 #@! TO.N,AN15*
X154432000Y-99568000D03*
G04 #@! TO.N,USB_BUS*
X162052000Y-92964000D03*
X186182000Y-105664000D03*
G04 #@! TO.N,USB_D-*
X155702000Y-89916000D03*
X161036000Y-104902000D03*
G04 #@! TO.N,USB_D+*
X159004000Y-90932000D03*
X186944000Y-104007000D03*
G04 #@! TO.N,USB_ID*
X166624000Y-98806000D03*
X186436000Y-102870000D03*
G04 #@! TO.N,Net-(JP2-Pad6)*
X103886000Y-107696000D03*
X99314000Y-107696000D03*
G04 #@! TO.N,Net-(JP2-Pad15)*
X107823000Y-80264000D03*
G04 #@! TO.N,Net-(R7-Pad1)*
X111379000Y-115443000D03*
X117475000Y-113665000D03*
G04 #@! TD*
D21*
G04 #@! TO.N,VBATT*
X174770999Y-77705001D02*
X174770999Y-76308001D01*
X174371000Y-78105000D02*
X174770999Y-77705001D01*
X174770999Y-76308001D02*
X174535998Y-76073000D01*
X174535998Y-76073000D02*
X174498000Y-76073000D01*
X132334000Y-135509000D02*
X132842000Y-136017000D01*
X132842000Y-136017000D02*
X136017000Y-136017000D01*
X142748000Y-131953000D02*
X143510000Y-131191000D01*
X143510000Y-131191000D02*
X170053000Y-131191000D01*
D22*
X193802000Y-81661000D02*
X192786000Y-82677000D01*
X180086000Y-65125600D02*
X180086000Y-64559915D01*
X180086000Y-64559915D02*
X180086000Y-61315600D01*
X180086000Y-61315600D02*
X179882800Y-61112400D01*
D23*
X194411600Y-122682000D02*
X188214000Y-122682000D01*
X194411600Y-99053115D02*
X194411600Y-108610400D01*
X198468715Y-94996000D02*
X194411600Y-99053115D01*
X199034400Y-94996000D02*
X198468715Y-94996000D01*
X194411600Y-108610400D02*
X199796400Y-113995200D01*
X199796400Y-113995200D02*
X199796400Y-117297200D01*
X199796400Y-117297200D02*
X194411600Y-122682000D01*
D21*
G04 #@! TO.N,GND*
X149522000Y-97028000D02*
X150668000Y-97028000D01*
X150668000Y-97028000D02*
X150922000Y-96774000D01*
X127660309Y-66504897D02*
X140462000Y-79306588D01*
X123629002Y-66504897D02*
X127660309Y-66504897D01*
X123125052Y-67008847D02*
X123629002Y-66504897D01*
X122021050Y-67008847D02*
X123125052Y-67008847D01*
X108712000Y-59182000D02*
X114194203Y-59182000D01*
X114194203Y-59182000D02*
X122021050Y-67008847D01*
X140462000Y-79306588D02*
X140276412Y-79306588D01*
X140276412Y-79306588D02*
X138430000Y-81153000D01*
X140276412Y-76443273D02*
X140276412Y-79306588D01*
X140589000Y-76130685D02*
X140276412Y-76443273D01*
X140589000Y-75565000D02*
X140589000Y-76130685D01*
X103759000Y-120777000D02*
X103759000Y-117602000D01*
X116205000Y-110871000D02*
X116967000Y-110109000D01*
X116967000Y-110109000D02*
X118110000Y-110109000D01*
X115639315Y-110871000D02*
X113988315Y-112522000D01*
X116205000Y-110871000D02*
X115639315Y-110871000D01*
X113988315Y-112522000D02*
X111506000Y-112522000D01*
X162687000Y-59309000D02*
X162687000Y-56007000D01*
X161925000Y-60071000D02*
X162687000Y-59309000D01*
X163322000Y-55372000D02*
X162687000Y-56007000D01*
X179832000Y-55372000D02*
X163322000Y-55372000D01*
X179832000Y-55372000D02*
X168910000Y-55372000D01*
X168910000Y-55372000D02*
X162814000Y-61468000D01*
X139192000Y-95377000D02*
X139192000Y-98933000D01*
X139192000Y-95377000D02*
X138938000Y-95123000D01*
X141478000Y-95377000D02*
X139192000Y-95377000D01*
X157607000Y-98806000D02*
X157607000Y-103505000D01*
X157607000Y-103505000D02*
X157353000Y-103759000D01*
X155448000Y-103505000D02*
X155448000Y-102043000D01*
X155448000Y-102043000D02*
X155764000Y-101727000D01*
X118110000Y-110109000D02*
X123825000Y-110109000D01*
X123825000Y-110109000D02*
X124206000Y-109728000D01*
X134239000Y-104013000D02*
X134638999Y-103613001D01*
X134638999Y-103613001D02*
X134638999Y-96628001D01*
X136144000Y-92329000D02*
X137541000Y-93726000D01*
X134638999Y-96628001D02*
X137541000Y-93726000D01*
X141655475Y-90474475D02*
X141255476Y-90074476D01*
X141255476Y-90074476D02*
X139954000Y-88773000D01*
X146177000Y-85852000D02*
X149606000Y-85852000D01*
X149606000Y-85852000D02*
X150368000Y-85090000D01*
X141097000Y-73660000D02*
X141836989Y-72920011D01*
X141836989Y-72920011D02*
X143002000Y-72920011D01*
X157353000Y-98552000D02*
X157607000Y-98806000D01*
X157353000Y-96647000D02*
X157353000Y-98552000D01*
X157353000Y-103759000D02*
X157353000Y-109093000D01*
X157353000Y-109093000D02*
X154813000Y-111633000D01*
X149987000Y-133985000D02*
X149987000Y-138557000D01*
X150876000Y-133096000D02*
X149987000Y-133985000D01*
X138792001Y-94252999D02*
X138430000Y-94615000D01*
X138792001Y-93998999D02*
X138792001Y-94252999D01*
X139192000Y-93599000D02*
X138792001Y-93998999D01*
X137541000Y-93726000D02*
X138430000Y-94615000D01*
X138430000Y-94615000D02*
X138938000Y-95123000D01*
X146685000Y-85344000D02*
X146177000Y-85852000D01*
X146685000Y-84328000D02*
X146685000Y-85344000D01*
X159874001Y-83801001D02*
X159874001Y-83547001D01*
X160274000Y-84201000D02*
X159874001Y-83801001D01*
X159874001Y-83547001D02*
X158750000Y-82423000D01*
D23*
X199694800Y-83515200D02*
X192913000Y-90297000D01*
X199694800Y-66704816D02*
X199694800Y-83515200D01*
X179832000Y-55372000D02*
X188361984Y-55372000D01*
X192913000Y-93832533D02*
X191668400Y-95077133D01*
X192913000Y-90297000D02*
X192913000Y-93832533D01*
X183769000Y-124480467D02*
X183769000Y-128016000D01*
X183769000Y-121650998D02*
X183769000Y-124480467D01*
X186339010Y-116018788D02*
X186339010Y-119080988D01*
X191668400Y-110689398D02*
X186339010Y-116018788D01*
X186339010Y-119080988D02*
X183769000Y-121650998D01*
X191668400Y-95077133D02*
X191668400Y-110689398D01*
X183769000Y-131551533D02*
X183794400Y-131576933D01*
X183769000Y-128016000D02*
X183769000Y-131551533D01*
X183794400Y-131576933D02*
X183794400Y-135696941D01*
D21*
X177223982Y-137486105D02*
X181938971Y-137486105D01*
X176806979Y-137069102D02*
X177223982Y-137486105D01*
X175604898Y-137069102D02*
X176806979Y-137069102D01*
D23*
X111252000Y-131572000D02*
X111252000Y-139769479D01*
X111318847Y-139836326D02*
X111252000Y-139769479D01*
X111318847Y-139837600D02*
X111318847Y-139836326D01*
X111318847Y-139837600D02*
X116566047Y-145084800D01*
X183794400Y-135696941D02*
X181938970Y-137486105D01*
X174058842Y-145084800D02*
X181938970Y-137486105D01*
X181938970Y-137486105D02*
X181938971Y-137486105D01*
D21*
X137515600Y-145034000D02*
X137566400Y-145084800D01*
X137515600Y-142595600D02*
X137515600Y-145034000D01*
D23*
X116566047Y-145084800D02*
X137566400Y-145084800D01*
X137566400Y-145084800D02*
X174058842Y-145084800D01*
D24*
X191973200Y-128016000D02*
X183769000Y-128016000D01*
X194919600Y-125069600D02*
X191973200Y-128016000D01*
D23*
X106212001Y-56682001D02*
X106212001Y-51836489D01*
X108712000Y-59182000D02*
X106212001Y-56682001D01*
X106212001Y-51836489D02*
X117378480Y-40670010D01*
X173456740Y-40670010D02*
X177509880Y-44667880D01*
X117378480Y-40670010D02*
X173456740Y-40670010D01*
X179832000Y-46990000D02*
X179832000Y-55372000D01*
X177509880Y-44667880D02*
X179832000Y-46990000D01*
D21*
X190624101Y-61348315D02*
X192481200Y-59491216D01*
X190624101Y-62559103D02*
X190624101Y-61348315D01*
X189774102Y-63409102D02*
X190624101Y-62559103D01*
D23*
X188361984Y-55372000D02*
X192481200Y-59491216D01*
X192481200Y-59491216D02*
X199694800Y-66704816D01*
D21*
G04 #@! TO.N,VDD3.3*
X153354001Y-81218001D02*
X150876000Y-78740000D01*
X153354001Y-83902001D02*
X153354001Y-81218001D01*
X152990001Y-84266001D02*
X153354001Y-83902001D01*
X147968025Y-84949975D02*
X148651999Y-84266001D01*
X148651999Y-84266001D02*
X152990001Y-84266001D01*
X143236990Y-102127010D02*
X143236990Y-107334010D01*
X144780000Y-100584000D02*
X143236990Y-102127010D01*
X140396999Y-107249999D02*
X139065000Y-105918000D01*
X143236990Y-107334010D02*
X143152979Y-107249999D01*
X143152979Y-107249999D02*
X140396999Y-107249999D01*
X144290999Y-73514001D02*
X144290999Y-67799001D01*
X143891000Y-73914000D02*
X144290999Y-73514001D01*
X144290999Y-67799001D02*
X145542000Y-66548000D01*
X146812000Y-59563000D02*
X147320000Y-59055000D01*
X147320000Y-59055000D02*
X150495000Y-59055000D01*
X158623000Y-99568000D02*
X159258000Y-100203000D01*
X159258000Y-100203000D02*
X159258000Y-106299000D01*
X154813000Y-90547999D02*
X159639000Y-95373999D01*
X159639000Y-95373999D02*
X159639000Y-96393000D01*
X162236685Y-90424000D02*
X169729685Y-97917000D01*
X161671000Y-90424000D02*
X162236685Y-90424000D01*
X169729685Y-97917000D02*
X173863000Y-97917000D01*
X151511000Y-101981000D02*
X153162000Y-103632000D01*
X153162000Y-103632000D02*
X153162000Y-105791000D01*
D25*
X180467000Y-84201000D02*
X186563000Y-90297000D01*
X180467000Y-83439000D02*
X180467000Y-84201000D01*
X184404000Y-98171000D02*
X185039000Y-98806000D01*
X184404000Y-94234000D02*
X184404000Y-98171000D01*
X173355000Y-102616000D02*
X171704000Y-100965000D01*
X174498000Y-102616000D02*
X173355000Y-102616000D01*
X168910000Y-100584000D02*
X167894000Y-99568000D01*
X170053000Y-100584000D02*
X168910000Y-100584000D01*
X163576000Y-102743000D02*
X163576000Y-107442000D01*
X164973000Y-101346000D02*
X163576000Y-102743000D01*
X171159898Y-129032000D02*
X177400949Y-135273051D01*
X161925000Y-129032000D02*
X171159898Y-129032000D01*
X177400949Y-135273051D02*
X160255949Y-135273051D01*
D21*
X154305000Y-141224000D02*
X154381200Y-141147800D01*
D25*
X154305000Y-141224000D02*
X154736800Y-140792200D01*
X130683000Y-141224000D02*
X154305000Y-141224000D01*
X128905000Y-139446000D02*
X130683000Y-141224000D01*
X160255949Y-135273051D02*
X154736800Y-140792200D01*
X154736800Y-140792200D02*
X154381200Y-141147800D01*
D21*
G04 #@! TO.N,SOSCO*
X152654000Y-83566000D02*
X150114000Y-83566000D01*
X150114000Y-83566000D02*
X138430000Y-83566000D01*
X138430000Y-83566000D02*
X138176000Y-83312000D01*
G04 #@! TO.N,SOSCI*
X138176000Y-91186000D02*
X146558000Y-91186000D01*
X146558000Y-91186000D02*
X152654000Y-85090000D01*
G04 #@! TO.N,Net-(D2-Pad2)*
X103124000Y-111506000D02*
X105156000Y-111506000D01*
G04 #@! TO.N,Net-(D3-Pad2)*
X105918000Y-77216000D02*
X110744000Y-72390000D01*
X110744000Y-72390000D02*
X114300000Y-72390000D01*
G04 #@! TO.N,MOTOR1_PWM*
X186683690Y-106764011D02*
X187960000Y-105487701D01*
X183134000Y-107188000D02*
X183557989Y-106764011D01*
X183557989Y-106764011D02*
X186683690Y-106764011D01*
X187960000Y-103357998D02*
X181102000Y-96499998D01*
X187960000Y-105487701D02*
X187960000Y-103357998D01*
X181102000Y-91038998D02*
X170708002Y-80645000D01*
X181102000Y-96499998D02*
X181102000Y-91038998D01*
X170708002Y-80645000D02*
X162052000Y-80645000D01*
G04 #@! TO.N,MOTOR2_PWM*
X106839082Y-127127000D02*
X105537000Y-127127000D01*
X169475698Y-127127000D02*
X106839082Y-127127000D01*
X189422001Y-96409906D02*
X189422001Y-107180697D01*
X172514095Y-79502000D02*
X189422001Y-96409906D01*
X157607000Y-79502000D02*
X172514095Y-79502000D01*
X173902001Y-122700697D02*
X173863000Y-122739698D01*
X174752000Y-113157000D02*
X173902001Y-114006999D01*
X173902001Y-114006999D02*
X173902001Y-122700697D01*
X189422001Y-107180697D02*
X173863000Y-122739698D01*
X173863000Y-122739698D02*
X169475698Y-127127000D01*
G04 #@! TO.N,MOTOR3_PWM*
X189822011Y-96244217D02*
X189822011Y-110532989D01*
X156718000Y-78232000D02*
X171809793Y-78232000D01*
X171809793Y-78232000D02*
X189822011Y-96244217D01*
X179197000Y-121158000D02*
X179197000Y-133477000D01*
X177292000Y-110617000D02*
X179959000Y-113284000D01*
X179959000Y-113284000D02*
X180086000Y-113284000D01*
X185039000Y-117475000D02*
X185039000Y-115316000D01*
X183388000Y-119126000D02*
X185039000Y-117475000D01*
X189822011Y-110532989D02*
X185039000Y-115316000D01*
X185039000Y-115316000D02*
X179197000Y-121158000D01*
G04 #@! TO.N,MOTOR4_PWM*
X153797000Y-74803000D02*
X154559000Y-74041000D01*
X154559000Y-74041000D02*
X154559000Y-71882000D01*
X165735000Y-59817000D02*
X186182000Y-59817000D01*
X162052000Y-63500000D02*
X165735000Y-59817000D01*
X188276000Y-106172000D02*
X188360010Y-106087990D01*
X187071000Y-101903300D02*
X187071000Y-95631000D01*
X188360010Y-103192309D02*
X187071000Y-101903300D01*
X188360010Y-106087990D02*
X188360010Y-103192309D01*
X185655001Y-65640001D02*
X185655001Y-63481001D01*
X186055000Y-66040000D02*
X185655001Y-65640001D01*
X186182000Y-62954002D02*
X186182000Y-59817000D01*
X185655001Y-63481001D02*
X186182000Y-62954002D01*
G04 #@! TO.N,SPI_ATTN_INT_L*
X97571561Y-84505799D02*
X98333560Y-83743800D01*
X95270039Y-86807321D02*
X97571561Y-84505799D01*
X97612079Y-108592001D02*
X95270039Y-106249961D01*
X95270039Y-106249961D02*
X95270039Y-86807321D01*
X134601383Y-108592001D02*
X97612079Y-108592001D01*
X149523999Y-88961999D02*
X150196001Y-88961999D01*
X150560001Y-92633383D02*
X134601383Y-108592001D01*
X150560001Y-89325999D02*
X150560001Y-92633383D01*
X150196001Y-88961999D02*
X150560001Y-89325999D01*
X146537998Y-91948000D02*
X149523999Y-88961999D01*
X146050000Y-91948000D02*
X146537998Y-91948000D01*
X124906001Y-84664001D02*
X124480002Y-85090000D01*
X121920000Y-80391000D02*
X124906001Y-83377001D01*
X124906001Y-83377001D02*
X124906001Y-84664001D01*
X124480002Y-85090000D02*
X120142000Y-85090000D01*
X104209315Y-86487000D02*
X104013000Y-86683315D01*
X104775000Y-86487000D02*
X104209315Y-86487000D01*
X104013000Y-86683315D02*
X104013000Y-88646000D01*
X124910948Y-79825948D02*
X125857000Y-80772000D01*
X124060949Y-78975949D02*
X124910948Y-79825948D01*
G04 #@! TO.N,SS2_CSL_2*
X137471685Y-105156000D02*
X136398000Y-105156000D01*
X149352000Y-92710000D02*
X149352000Y-93275685D01*
X149352000Y-93275685D02*
X137471685Y-105156000D01*
X102616000Y-84025740D02*
X102334060Y-83743800D01*
X102616000Y-89662000D02*
X102616000Y-84025740D01*
X125857000Y-77179898D02*
X127653051Y-78975949D01*
X125857000Y-77179898D02*
X125857000Y-74295000D01*
X125857000Y-74295000D02*
X125730000Y-74168000D01*
X123825000Y-73279000D02*
X112268000Y-73279000D01*
X112268000Y-73279000D02*
X105410000Y-80137000D01*
G04 #@! TO.N,SDO2_MOSI_2*
X149606000Y-90932000D02*
X149206001Y-91331999D01*
X149206001Y-91331999D02*
X137668000Y-102870000D01*
X137668000Y-102870000D02*
X137668000Y-103886000D01*
X118364000Y-96774000D02*
X118364000Y-87630000D01*
X128503050Y-76233846D02*
X129449102Y-77179898D01*
X127653051Y-75383846D02*
X128503050Y-76233846D01*
X129449102Y-77179898D02*
X129449102Y-80354898D01*
X129449102Y-80354898D02*
X125857000Y-83947000D01*
X118491000Y-87630000D02*
X118364000Y-87630000D01*
X120269000Y-89408000D02*
X118491000Y-87630000D01*
G04 #@! TO.N,SDI2_MISO_2*
X149860000Y-89662000D02*
X133357001Y-106164999D01*
X105712260Y-102362000D02*
X102334060Y-105740200D01*
X105712260Y-102362000D02*
X105712260Y-100662740D01*
X105712260Y-100662740D02*
X106934000Y-99441000D01*
X111633000Y-99441000D02*
X114681000Y-102489000D01*
X118356999Y-106164999D02*
X114681000Y-102489000D01*
X106934000Y-99441000D02*
X111633000Y-99441000D01*
X114681000Y-102489000D02*
X114554000Y-102362000D01*
X130395155Y-74533847D02*
X131245154Y-75383846D01*
X129449102Y-73587795D02*
X130395155Y-74533847D01*
X120015000Y-99314000D02*
X120523000Y-98806000D01*
X120015000Y-106164999D02*
X120015000Y-99314000D01*
X120015000Y-106164999D02*
X118356999Y-106164999D01*
X133357001Y-106164999D02*
X120015000Y-106164999D01*
X126111000Y-98679000D02*
X128143000Y-96647000D01*
X128143000Y-96647000D02*
X128143000Y-87757000D01*
X132095153Y-76233845D02*
X131245154Y-75383846D01*
X132907001Y-79817999D02*
X132907001Y-77045693D01*
X132907001Y-77045693D02*
X132095153Y-76233845D01*
X131699000Y-81026000D02*
X132907001Y-79817999D01*
G04 #@! TO.N,SCK2_SCLK_2*
X132095153Y-72641743D02*
X133041205Y-73587795D01*
X131245154Y-71791744D02*
X132095153Y-72641743D01*
X101219000Y-82857340D02*
X100332540Y-83743800D01*
X101219000Y-81661000D02*
X101219000Y-82857340D01*
X97046999Y-77578001D02*
X97681999Y-77578001D01*
X96647000Y-77978000D02*
X97046999Y-77578001D01*
X97681999Y-77578001D02*
X99441000Y-75819000D01*
X99441000Y-75819000D02*
X101854000Y-75819000D01*
X101854000Y-75819000D02*
X112776000Y-64897000D01*
X112776000Y-64897000D02*
X118237000Y-64897000D01*
G04 #@! TO.N,I2C1_SCL1*
X176022000Y-89154000D02*
X176022000Y-93980000D01*
X176022000Y-93980000D02*
X178562000Y-96520000D01*
X167005000Y-103759000D02*
X167005000Y-108585000D01*
X123384919Y-125222000D02*
X122047000Y-125222000D01*
X124587000Y-125222000D02*
X123384919Y-125222000D01*
X139827000Y-138176000D02*
X139827000Y-138557000D01*
X133350000Y-131699000D02*
X139827000Y-138176000D01*
G04 #@! TO.N,I2C1_SDA1*
X177419000Y-88392000D02*
X177419000Y-93345000D01*
X177419000Y-93345000D02*
X180340000Y-96266000D01*
X188722000Y-99879685D02*
X188976000Y-100133685D01*
X188722000Y-99314000D02*
X188722000Y-99879685D01*
X188976000Y-100133685D02*
X188976000Y-104471700D01*
X188976000Y-104471700D02*
X188976000Y-107061000D01*
X188976000Y-107061000D02*
X187960000Y-108077000D01*
X187960000Y-108077000D02*
X169926000Y-108077000D01*
X169926000Y-108077000D02*
X168275000Y-109728000D01*
X168275000Y-109728000D02*
X160655000Y-109728000D01*
X142367000Y-138303000D02*
X142367000Y-138557000D01*
X133350000Y-129286000D02*
X142367000Y-138303000D01*
X123384919Y-122682000D02*
X122047000Y-122682000D01*
X124587000Y-122682000D02*
X123384919Y-122682000D01*
G04 #@! TO.N,MCLR*
X154577999Y-85198001D02*
X154577999Y-76599999D01*
X154178000Y-85598000D02*
X154577999Y-85198001D01*
X154577999Y-76599999D02*
X149098000Y-71120000D01*
X153427189Y-51827189D02*
X156757001Y-55157001D01*
X139631905Y-51827189D02*
X153427189Y-51827189D01*
X138587199Y-52871895D02*
X139631905Y-51827189D01*
X138587199Y-54062105D02*
X138587199Y-52871895D01*
X139231895Y-54706801D02*
X138587199Y-54062105D01*
X156757001Y-55157001D02*
X157607000Y-56007000D01*
X142336801Y-54706801D02*
X139231895Y-54706801D01*
X143637000Y-56007000D02*
X142336801Y-54706801D01*
G04 #@! TO.N,PGD*
X140766799Y-52527201D02*
X139827000Y-53467000D01*
X141066801Y-52227199D02*
X140766799Y-52527201D01*
X152489280Y-52227199D02*
X141066801Y-52227199D01*
X155067000Y-54804919D02*
X152489280Y-52227199D01*
X155067000Y-56007000D02*
X155067000Y-54804919D01*
X155448000Y-88900000D02*
X155994009Y-88353991D01*
X155916999Y-56856999D02*
X155067000Y-56007000D01*
X155994009Y-56934009D02*
X155916999Y-56856999D01*
X155994009Y-88353991D02*
X155994009Y-56934009D01*
G04 #@! TO.N,PGC*
X152527000Y-57057000D02*
X152527000Y-56007000D01*
X155593999Y-60123999D02*
X152527000Y-57057000D01*
X155593999Y-87484001D02*
X155593999Y-60123999D01*
X155194000Y-87884000D02*
X155593999Y-87484001D01*
X139496799Y-56946799D02*
X138557000Y-56007000D01*
X150237199Y-57246801D02*
X139796801Y-57246801D01*
X139796801Y-57246801D02*
X139496799Y-56946799D01*
X151477000Y-56007000D02*
X150237199Y-57246801D01*
X152527000Y-56007000D02*
X151477000Y-56007000D01*
G04 #@! TO.N,RE1*
X132106999Y-113672001D02*
X132207000Y-113572000D01*
X121652999Y-113672001D02*
X132106999Y-113672001D01*
X121012001Y-113031003D02*
X121652999Y-113672001D01*
X132207000Y-113572000D02*
X132207000Y-112522000D01*
X121012001Y-111905999D02*
X121012001Y-113031003D01*
X121412000Y-111506000D02*
X121012001Y-111905999D01*
X146177000Y-78740000D02*
X142494000Y-82423000D01*
X142494000Y-82423000D02*
X130491000Y-82423000D01*
X130491000Y-82423000D02*
X127508000Y-85406000D01*
X110979001Y-93744999D02*
X110090001Y-93744999D01*
X111379000Y-93345000D02*
X110979001Y-93744999D01*
X110090001Y-93744999D02*
X107696000Y-96139000D01*
X107696000Y-96139000D02*
X107569000Y-96139000D01*
X110871000Y-105201720D02*
X110332520Y-105740200D01*
X110871000Y-101600000D02*
X110871000Y-105201720D01*
G04 #@! TO.N,RE0*
X114336058Y-107315000D02*
X125603000Y-107315000D01*
X112334040Y-105740200D02*
X113908840Y-107315000D01*
X113908840Y-107315000D02*
X114336058Y-107315000D01*
X127890060Y-70739000D02*
X117729000Y-80900060D01*
X129032000Y-70739000D02*
X127890060Y-70739000D01*
X117729000Y-80900060D02*
X117729000Y-82231000D01*
X117729000Y-82231000D02*
X114554000Y-85406000D01*
X113476001Y-98998001D02*
X118110000Y-103632000D01*
X113476001Y-92754999D02*
X113476001Y-98998001D01*
X110363000Y-91440000D02*
X112161002Y-91440000D01*
X112161002Y-91440000D02*
X113476001Y-92754999D01*
X112649000Y-105425240D02*
X112334040Y-105740200D01*
X112649000Y-103632000D02*
X112649000Y-105425240D01*
G04 #@! TO.N,RE3*
X131807001Y-78377999D02*
X131807001Y-79647999D01*
X132207000Y-77978000D02*
X131807001Y-78377999D01*
X131807001Y-79647999D02*
X126873000Y-84582000D01*
X120415010Y-86506010D02*
X109327990Y-86506010D01*
X122047000Y-88138000D02*
X120415010Y-86506010D01*
X105471999Y-90362001D02*
X100395001Y-90362001D01*
X109327990Y-86506010D02*
X105471999Y-90362001D01*
X100395001Y-90362001D02*
X96901000Y-86868000D01*
X96901000Y-86868000D02*
X96647000Y-86868000D01*
X122047000Y-88703685D02*
X122047000Y-88138000D01*
X122047000Y-101923315D02*
X122047000Y-88703685D01*
X123952000Y-103828315D02*
X122047000Y-101923315D01*
X123952000Y-104394000D02*
X123952000Y-103828315D01*
G04 #@! TO.N,RE2*
X118999000Y-81026000D02*
X120904000Y-81026000D01*
X120904000Y-81026000D02*
X124206000Y-84328000D01*
X112776000Y-93091000D02*
X112776000Y-95123000D01*
X112776000Y-95123000D02*
X112776000Y-95885000D01*
X112776000Y-95885000D02*
X110617000Y-98044000D01*
X110617000Y-98044000D02*
X108204000Y-98044000D01*
X108204000Y-105610660D02*
X108333540Y-105740200D01*
X108204000Y-101219000D02*
X108204000Y-105610660D01*
X126746000Y-112903000D02*
X129667000Y-109982000D01*
X121920000Y-112903000D02*
X126746000Y-112903000D01*
G04 #@! TO.N,RE5*
X139388315Y-84582000D02*
X137864315Y-86106000D01*
X139954000Y-84582000D02*
X139388315Y-84582000D01*
X112694720Y-86106000D02*
X110332520Y-83743800D01*
X137864315Y-86106000D02*
X112694720Y-86106000D01*
X124333000Y-89387998D02*
X124333000Y-101923315D01*
X121051002Y-86106000D02*
X124333000Y-89387998D01*
X124333000Y-101923315D02*
X124333000Y-102489000D01*
X112694720Y-86106000D02*
X121051002Y-86106000D01*
G04 #@! TO.N,RE4*
X115062000Y-79629000D02*
X115062000Y-80391000D01*
X115062000Y-80391000D02*
X113665000Y-81788000D01*
X129667000Y-107442000D02*
X128143000Y-107442000D01*
X128143000Y-107442000D02*
X127635000Y-106934000D01*
X123436477Y-101480315D02*
X123190000Y-101233838D01*
X123436477Y-102046000D02*
X123436477Y-101480315D01*
X123190000Y-101233838D02*
X123190000Y-92456000D01*
X116440001Y-93199001D02*
X114916001Y-93199001D01*
X116840000Y-93599000D02*
X116440001Y-93199001D01*
X114916001Y-93199001D02*
X110617000Y-88900000D01*
G04 #@! TO.N,RE7*
X132207000Y-94615000D02*
X132207000Y-104902000D01*
X140208000Y-86614000D02*
X132207000Y-94615000D01*
G04 #@! TO.N,RE6*
X129667000Y-103699919D02*
X129667000Y-104902000D01*
X129667000Y-95573315D02*
X129667000Y-103699919D01*
X139642315Y-85598000D02*
X129667000Y-95573315D01*
X140208000Y-85598000D02*
X139642315Y-85598000D01*
G04 #@! TO.N,U1CTS*
X154686000Y-91948000D02*
X151892000Y-89154000D01*
X151892000Y-89154000D02*
X151892000Y-87884000D01*
G04 #@! TO.N,U1RX*
X152908000Y-93218000D02*
X156464000Y-96774000D01*
X156464000Y-96774000D02*
X156464000Y-106680000D01*
X141732000Y-120904000D02*
X109728000Y-120904000D01*
X109728000Y-120904000D02*
X104140000Y-115316000D01*
X106172000Y-74930000D02*
X100203000Y-80899000D01*
X100203000Y-80899000D02*
X94172000Y-80899000D01*
G04 #@! TO.N,U1RTS*
X113096039Y-82981801D02*
X112334040Y-83743800D01*
X113589839Y-82488001D02*
X113096039Y-82981801D01*
X114869999Y-82488001D02*
X113589839Y-82488001D01*
X117983000Y-79375000D02*
X114869999Y-82488001D01*
X110378240Y-81788000D02*
X112334040Y-83743800D01*
X109728000Y-81137760D02*
X110378240Y-81788000D01*
X109728000Y-80772000D02*
X109728000Y-81137760D01*
X107372698Y-78740000D02*
X107696000Y-78740000D01*
X99334002Y-112542002D02*
X94234000Y-107442000D01*
X103378000Y-112542002D02*
X99334002Y-112542002D01*
X150429999Y-117286001D02*
X108121999Y-117286001D01*
X106680000Y-80645000D02*
X106680000Y-79432698D01*
X108121999Y-117286001D02*
X103378000Y-112542002D01*
X107696000Y-78740000D02*
X109728000Y-80772000D01*
X162306000Y-99568000D02*
X162306000Y-105410000D01*
X162306000Y-105410000D02*
X150429999Y-117286001D01*
X95758000Y-81788000D02*
X96246990Y-81299010D01*
X94234000Y-107442000D02*
X94234000Y-82550000D01*
X94234000Y-82550000D02*
X94996000Y-81788000D01*
X94996000Y-81788000D02*
X95758000Y-81788000D01*
X106680000Y-79432698D02*
X107372698Y-78740000D01*
X96246990Y-81299010D02*
X100368689Y-81299010D01*
X106426000Y-80899000D02*
X106680000Y-80645000D01*
X100368689Y-81299010D02*
X100768699Y-80899000D01*
X100768699Y-80899000D02*
X106426000Y-80899000D01*
G04 #@! TO.N,U1TX*
X149409699Y-118872000D02*
X124968000Y-118872000D01*
X163006001Y-105275698D02*
X149409699Y-118872000D01*
X161798000Y-94742000D02*
X163006001Y-95950001D01*
X163006001Y-95950001D02*
X163006001Y-105275698D01*
G04 #@! TO.N,XBEE_RESET*
X141224000Y-107950000D02*
X132334000Y-116840000D01*
X132334000Y-116840000D02*
X108712000Y-116840000D01*
X108712000Y-116840000D02*
X108458000Y-116586000D01*
X96877195Y-103274805D02*
X98552000Y-101600000D01*
X98552000Y-101600000D02*
X104648000Y-101600000D01*
X106426000Y-101981000D02*
X106807000Y-101600000D01*
X106426000Y-103632000D02*
X106426000Y-101981000D01*
X120224999Y-68804899D02*
X121329001Y-68804899D01*
X118603100Y-67183000D02*
X120224999Y-68804899D01*
X98298000Y-78359000D02*
X98298000Y-77724000D01*
X96520000Y-80137000D02*
X98298000Y-78359000D01*
X111379000Y-67183000D02*
X118603100Y-67183000D01*
X122479002Y-67654898D02*
X124369102Y-67654898D01*
X121329001Y-68804899D02*
X122479002Y-67654898D01*
X99568000Y-76454000D02*
X102108000Y-76454000D01*
X98298000Y-77724000D02*
X99568000Y-76454000D01*
X102108000Y-76454000D02*
X111379000Y-67183000D01*
G04 #@! TO.N,VBATT_SCALED*
X179197000Y-73348315D02*
X180340000Y-72205315D01*
X179197000Y-73914000D02*
X179197000Y-73348315D01*
X180340000Y-72205315D02*
X180340000Y-68707000D01*
G04 #@! TO.N,AN12*
X143637000Y-105283000D02*
X143637000Y-113792000D01*
X151130000Y-97790000D02*
X143637000Y-105283000D01*
G04 #@! TO.N,AN13*
X146177000Y-104775000D02*
X146177000Y-113792000D01*
X152400000Y-98552000D02*
X146177000Y-104775000D01*
G04 #@! TO.N,AN14*
X148717000Y-103759000D02*
X148717000Y-113792000D01*
X153416000Y-99060000D02*
X148717000Y-103759000D01*
G04 #@! TO.N,AN15*
X154432000Y-110617000D02*
X151257000Y-113792000D01*
X154432000Y-99568000D02*
X154432000Y-110617000D01*
G04 #@! TO.N,USB_BUS*
X172445998Y-105664000D02*
X186182000Y-105664000D01*
X165923999Y-99142001D02*
X172445998Y-105664000D01*
X162052000Y-92964000D02*
X165923999Y-96835999D01*
X165923999Y-96835999D02*
X165923999Y-99142001D01*
G04 #@! TO.N,USB_D-*
X161036000Y-104902000D02*
X161036000Y-96012000D01*
X157672001Y-92648001D02*
X161036000Y-96012000D01*
X157672001Y-91632001D02*
X157672001Y-92648001D01*
X157418001Y-91632001D02*
X155702000Y-89916000D01*
X157672001Y-91632001D02*
X157418001Y-91632001D01*
G04 #@! TO.N,USB_D+*
X165523989Y-97451989D02*
X165523989Y-99307690D01*
X159004000Y-90932000D02*
X165523989Y-97451989D01*
X165523989Y-99307690D02*
X172580300Y-106364001D01*
X172580300Y-106364001D02*
X186518001Y-106364001D01*
X186518001Y-106364001D02*
X186944000Y-105938002D01*
X186944000Y-105938002D02*
X186944000Y-104007000D01*
G04 #@! TO.N,USB_ID*
X166624000Y-98806000D02*
X182372000Y-98806000D01*
X182372000Y-98806000D02*
X186436000Y-102870000D01*
G04 #@! TO.N,Net-(JP2-Pad6)*
X103886000Y-107696000D02*
X99314000Y-107696000D01*
G04 #@! TO.N,Net-(JP2-Pad15)*
X107823000Y-82252820D02*
X106332020Y-83743800D01*
X107823000Y-80264000D02*
X107823000Y-82252820D01*
G04 #@! TO.N,Net-(R7-Pad1)*
X111778999Y-115842999D02*
X115297001Y-115842999D01*
X111379000Y-115443000D02*
X111778999Y-115842999D01*
X115297001Y-115842999D02*
X117475000Y-113665000D01*
G04 #@! TD*
D26*
G04 #@! TO.N,GND*
G36*
X188233525Y-111082028D02*
X184570465Y-114745089D01*
X184570462Y-114745091D01*
X184570460Y-114745093D01*
X184509096Y-114786095D01*
X184468094Y-114847459D01*
X178728465Y-120587089D01*
X178667095Y-120628095D01*
X178504646Y-120871218D01*
X178462000Y-121085613D01*
X178462000Y-121085616D01*
X178447602Y-121158000D01*
X178462000Y-121230384D01*
X178462000Y-124514004D01*
X173057947Y-129749181D01*
X171808485Y-128499720D01*
X171761899Y-128429999D01*
X171485699Y-128245448D01*
X171242135Y-128197000D01*
X171242131Y-128197000D01*
X171159898Y-128180643D01*
X171077665Y-128197000D01*
X162553711Y-128197000D01*
X162511280Y-128154569D01*
X162130874Y-127997000D01*
X161719126Y-127997000D01*
X161338720Y-128154569D01*
X161047569Y-128445720D01*
X160890000Y-128826126D01*
X160890000Y-129237874D01*
X161047569Y-129618280D01*
X161338720Y-129909431D01*
X161719126Y-130067000D01*
X162130874Y-130067000D01*
X162511280Y-129909431D01*
X162553711Y-129867000D01*
X170814031Y-129867000D01*
X171858335Y-130911305D01*
X168217823Y-134438051D01*
X160338181Y-134438051D01*
X160255948Y-134421694D01*
X160173715Y-134438051D01*
X160173712Y-134438051D01*
X159930148Y-134486499D01*
X159653948Y-134671050D01*
X159607366Y-134740765D01*
X158929947Y-135418184D01*
X140457416Y-135353969D01*
X136850573Y-131747126D01*
X141713000Y-131747126D01*
X141713000Y-132158874D01*
X141870569Y-132539280D01*
X142161720Y-132830431D01*
X142542126Y-132988000D01*
X142953874Y-132988000D01*
X143334280Y-132830431D01*
X143625431Y-132539280D01*
X143783000Y-132158874D01*
X143783000Y-131957447D01*
X143814447Y-131926000D01*
X169324289Y-131926000D01*
X169466720Y-132068431D01*
X169847126Y-132226000D01*
X170258874Y-132226000D01*
X170639280Y-132068431D01*
X170930431Y-131777280D01*
X171088000Y-131396874D01*
X171088000Y-130985126D01*
X170930431Y-130604720D01*
X170639280Y-130313569D01*
X170258874Y-130156000D01*
X169847126Y-130156000D01*
X169466720Y-130313569D01*
X169324289Y-130456000D01*
X143582388Y-130456000D01*
X143510000Y-130441601D01*
X143437612Y-130456000D01*
X143223217Y-130498646D01*
X142980095Y-130661095D01*
X142939090Y-130722463D01*
X142743553Y-130918000D01*
X142542126Y-130918000D01*
X142161720Y-131075569D01*
X141870569Y-131366720D01*
X141713000Y-131747126D01*
X136850573Y-131747126D01*
X134385000Y-129281554D01*
X134385000Y-129080126D01*
X134227431Y-128699720D01*
X133936280Y-128408569D01*
X133555874Y-128251000D01*
X133144126Y-128251000D01*
X132763720Y-128408569D01*
X132472569Y-128699720D01*
X132315000Y-129080126D01*
X132315000Y-129491874D01*
X132472569Y-129872280D01*
X132763720Y-130163431D01*
X133144126Y-130321000D01*
X133345554Y-130321000D01*
X133782372Y-130757819D01*
X133555874Y-130664000D01*
X133144126Y-130664000D01*
X132763720Y-130821569D01*
X132472569Y-131112720D01*
X132315000Y-131493126D01*
X132315000Y-131904874D01*
X132472569Y-132285280D01*
X132763720Y-132576431D01*
X133144126Y-132734000D01*
X133345554Y-132734000D01*
X135657279Y-135045725D01*
X135430720Y-135139569D01*
X135288289Y-135282000D01*
X133360249Y-135282000D01*
X133211431Y-134922720D01*
X132920280Y-134631569D01*
X132539874Y-134474000D01*
X132128126Y-134474000D01*
X131747720Y-134631569D01*
X131456569Y-134922720D01*
X131299000Y-135303126D01*
X131299000Y-135322132D01*
X123440955Y-135294816D01*
X116174545Y-127862000D01*
X169403314Y-127862000D01*
X169475698Y-127876398D01*
X169548082Y-127862000D01*
X169548086Y-127862000D01*
X169762481Y-127819354D01*
X170005603Y-127656905D01*
X170046609Y-127595535D01*
X174370539Y-123271606D01*
X174431906Y-123230602D01*
X174472912Y-123169232D01*
X188233525Y-109408620D01*
X188233525Y-111082028D01*
X188233525Y-111082028D01*
G37*
X188233525Y-111082028D02*
X184570465Y-114745089D01*
X184570462Y-114745091D01*
X184570460Y-114745093D01*
X184509096Y-114786095D01*
X184468094Y-114847459D01*
X178728465Y-120587089D01*
X178667095Y-120628095D01*
X178504646Y-120871218D01*
X178462000Y-121085613D01*
X178462000Y-121085616D01*
X178447602Y-121158000D01*
X178462000Y-121230384D01*
X178462000Y-124514004D01*
X173057947Y-129749181D01*
X171808485Y-128499720D01*
X171761899Y-128429999D01*
X171485699Y-128245448D01*
X171242135Y-128197000D01*
X171242131Y-128197000D01*
X171159898Y-128180643D01*
X171077665Y-128197000D01*
X162553711Y-128197000D01*
X162511280Y-128154569D01*
X162130874Y-127997000D01*
X161719126Y-127997000D01*
X161338720Y-128154569D01*
X161047569Y-128445720D01*
X160890000Y-128826126D01*
X160890000Y-129237874D01*
X161047569Y-129618280D01*
X161338720Y-129909431D01*
X161719126Y-130067000D01*
X162130874Y-130067000D01*
X162511280Y-129909431D01*
X162553711Y-129867000D01*
X170814031Y-129867000D01*
X171858335Y-130911305D01*
X168217823Y-134438051D01*
X160338181Y-134438051D01*
X160255948Y-134421694D01*
X160173715Y-134438051D01*
X160173712Y-134438051D01*
X159930148Y-134486499D01*
X159653948Y-134671050D01*
X159607366Y-134740765D01*
X158929947Y-135418184D01*
X140457416Y-135353969D01*
X136850573Y-131747126D01*
X141713000Y-131747126D01*
X141713000Y-132158874D01*
X141870569Y-132539280D01*
X142161720Y-132830431D01*
X142542126Y-132988000D01*
X142953874Y-132988000D01*
X143334280Y-132830431D01*
X143625431Y-132539280D01*
X143783000Y-132158874D01*
X143783000Y-131957447D01*
X143814447Y-131926000D01*
X169324289Y-131926000D01*
X169466720Y-132068431D01*
X169847126Y-132226000D01*
X170258874Y-132226000D01*
X170639280Y-132068431D01*
X170930431Y-131777280D01*
X171088000Y-131396874D01*
X171088000Y-130985126D01*
X170930431Y-130604720D01*
X170639280Y-130313569D01*
X170258874Y-130156000D01*
X169847126Y-130156000D01*
X169466720Y-130313569D01*
X169324289Y-130456000D01*
X143582388Y-130456000D01*
X143510000Y-130441601D01*
X143437612Y-130456000D01*
X143223217Y-130498646D01*
X142980095Y-130661095D01*
X142939090Y-130722463D01*
X142743553Y-130918000D01*
X142542126Y-130918000D01*
X142161720Y-131075569D01*
X141870569Y-131366720D01*
X141713000Y-131747126D01*
X136850573Y-131747126D01*
X134385000Y-129281554D01*
X134385000Y-129080126D01*
X134227431Y-128699720D01*
X133936280Y-128408569D01*
X133555874Y-128251000D01*
X133144126Y-128251000D01*
X132763720Y-128408569D01*
X132472569Y-128699720D01*
X132315000Y-129080126D01*
X132315000Y-129491874D01*
X132472569Y-129872280D01*
X132763720Y-130163431D01*
X133144126Y-130321000D01*
X133345554Y-130321000D01*
X133782372Y-130757819D01*
X133555874Y-130664000D01*
X133144126Y-130664000D01*
X132763720Y-130821569D01*
X132472569Y-131112720D01*
X132315000Y-131493126D01*
X132315000Y-131904874D01*
X132472569Y-132285280D01*
X132763720Y-132576431D01*
X133144126Y-132734000D01*
X133345554Y-132734000D01*
X135657279Y-135045725D01*
X135430720Y-135139569D01*
X135288289Y-135282000D01*
X133360249Y-135282000D01*
X133211431Y-134922720D01*
X132920280Y-134631569D01*
X132539874Y-134474000D01*
X132128126Y-134474000D01*
X131747720Y-134631569D01*
X131456569Y-134922720D01*
X131299000Y-135303126D01*
X131299000Y-135322132D01*
X123440955Y-135294816D01*
X116174545Y-127862000D01*
X169403314Y-127862000D01*
X169475698Y-127876398D01*
X169548082Y-127862000D01*
X169548086Y-127862000D01*
X169762481Y-127819354D01*
X170005603Y-127656905D01*
X170046609Y-127595535D01*
X174370539Y-123271606D01*
X174431906Y-123230602D01*
X174472912Y-123169232D01*
X188233525Y-109408620D01*
X188233525Y-111082028D01*
G36*
X188233525Y-115047840D02*
X185778652Y-117425998D01*
X185774000Y-117402612D01*
X185774000Y-115620446D01*
X188233525Y-113160922D01*
X188233525Y-115047840D01*
X188233525Y-115047840D01*
G37*
X188233525Y-115047840D02*
X185778652Y-117425998D01*
X185774000Y-117402612D01*
X185774000Y-115620446D01*
X188233525Y-113160922D01*
X188233525Y-115047840D01*
G36*
X138187569Y-106504280D02*
X138478720Y-106795431D01*
X138859126Y-106953000D01*
X139060554Y-106953000D01*
X139826089Y-107718536D01*
X139867094Y-107779904D01*
X140110216Y-107942353D01*
X140178598Y-107955955D01*
X132029554Y-116105000D01*
X116074446Y-116105000D01*
X117479447Y-114700000D01*
X117680874Y-114700000D01*
X118061280Y-114542431D01*
X118352431Y-114251280D01*
X118510000Y-113870874D01*
X118510000Y-113459126D01*
X118352431Y-113078720D01*
X118061280Y-112787569D01*
X117680874Y-112630000D01*
X117269126Y-112630000D01*
X116888720Y-112787569D01*
X116597569Y-113078720D01*
X116440000Y-113459126D01*
X116440000Y-113660553D01*
X114992555Y-115107999D01*
X112360514Y-115107999D01*
X112256431Y-114856720D01*
X111965280Y-114565569D01*
X111584874Y-114408000D01*
X111173126Y-114408000D01*
X110792720Y-114565569D01*
X110501569Y-114856720D01*
X110344000Y-115237126D01*
X110344000Y-115648874D01*
X110501569Y-116029280D01*
X110577289Y-116105000D01*
X109379039Y-116105000D01*
X109335431Y-115999720D01*
X109044280Y-115708569D01*
X108663874Y-115551000D01*
X108252126Y-115551000D01*
X107871720Y-115708569D01*
X107727867Y-115852422D01*
X104116444Y-112241000D01*
X104427289Y-112241000D01*
X104569720Y-112383431D01*
X104950126Y-112541000D01*
X105361874Y-112541000D01*
X105742280Y-112383431D01*
X106033431Y-112092280D01*
X106191000Y-111711874D01*
X106191000Y-111300126D01*
X106033431Y-110919720D01*
X105742280Y-110628569D01*
X105361874Y-110471000D01*
X104950126Y-110471000D01*
X104569720Y-110628569D01*
X104427289Y-110771000D01*
X103852711Y-110771000D01*
X103710280Y-110628569D01*
X103409129Y-110503828D01*
X103372261Y-109327001D01*
X128318663Y-109327001D01*
X128268161Y-109402582D01*
X128152908Y-109982000D01*
X128231656Y-110377897D01*
X126441554Y-112168000D01*
X122648711Y-112168000D01*
X122506280Y-112025569D01*
X122344774Y-111958671D01*
X122447000Y-111711874D01*
X122447000Y-111300126D01*
X122289431Y-110919720D01*
X121998280Y-110628569D01*
X121617874Y-110471000D01*
X121206126Y-110471000D01*
X120825720Y-110628569D01*
X120534569Y-110919720D01*
X120377000Y-111300126D01*
X120377000Y-111533382D01*
X120319647Y-111619217D01*
X120277001Y-111833612D01*
X120277001Y-111833615D01*
X120262603Y-111905999D01*
X120277001Y-111978384D01*
X120277002Y-112958614D01*
X120262603Y-113031003D01*
X120319647Y-113317785D01*
X120441092Y-113499540D01*
X120482097Y-113560908D01*
X120543464Y-113601912D01*
X121082089Y-114140538D01*
X121123094Y-114201906D01*
X121366216Y-114364355D01*
X121580611Y-114407001D01*
X121580614Y-114407001D01*
X121652998Y-114421399D01*
X121725382Y-114407001D01*
X132034615Y-114407001D01*
X132106999Y-114421399D01*
X132179383Y-114407001D01*
X132179387Y-114407001D01*
X132393782Y-114364355D01*
X132636904Y-114201906D01*
X132676959Y-114141959D01*
X132736905Y-114101905D01*
X132792006Y-114019440D01*
X133057000Y-114019440D01*
X133304765Y-113970157D01*
X133514809Y-113829809D01*
X133655157Y-113619765D01*
X133704440Y-113372000D01*
X133704440Y-111672000D01*
X133655157Y-111424235D01*
X133514809Y-111214191D01*
X133304765Y-111073843D01*
X133259381Y-111064816D01*
X133277625Y-111052625D01*
X133605839Y-110561418D01*
X133721092Y-109982000D01*
X133605839Y-109402582D01*
X133555337Y-109327001D01*
X134528999Y-109327001D01*
X134601383Y-109341399D01*
X134673767Y-109327001D01*
X134673771Y-109327001D01*
X134888166Y-109284355D01*
X135131288Y-109121906D01*
X135172294Y-109060536D01*
X138053126Y-106179704D01*
X138187569Y-106504280D01*
X138187569Y-106504280D01*
G37*
X138187569Y-106504280D02*
X138478720Y-106795431D01*
X138859126Y-106953000D01*
X139060554Y-106953000D01*
X139826089Y-107718536D01*
X139867094Y-107779904D01*
X140110216Y-107942353D01*
X140178598Y-107955955D01*
X132029554Y-116105000D01*
X116074446Y-116105000D01*
X117479447Y-114700000D01*
X117680874Y-114700000D01*
X118061280Y-114542431D01*
X118352431Y-114251280D01*
X118510000Y-113870874D01*
X118510000Y-113459126D01*
X118352431Y-113078720D01*
X118061280Y-112787569D01*
X117680874Y-112630000D01*
X117269126Y-112630000D01*
X116888720Y-112787569D01*
X116597569Y-113078720D01*
X116440000Y-113459126D01*
X116440000Y-113660553D01*
X114992555Y-115107999D01*
X112360514Y-115107999D01*
X112256431Y-114856720D01*
X111965280Y-114565569D01*
X111584874Y-114408000D01*
X111173126Y-114408000D01*
X110792720Y-114565569D01*
X110501569Y-114856720D01*
X110344000Y-115237126D01*
X110344000Y-115648874D01*
X110501569Y-116029280D01*
X110577289Y-116105000D01*
X109379039Y-116105000D01*
X109335431Y-115999720D01*
X109044280Y-115708569D01*
X108663874Y-115551000D01*
X108252126Y-115551000D01*
X107871720Y-115708569D01*
X107727867Y-115852422D01*
X104116444Y-112241000D01*
X104427289Y-112241000D01*
X104569720Y-112383431D01*
X104950126Y-112541000D01*
X105361874Y-112541000D01*
X105742280Y-112383431D01*
X106033431Y-112092280D01*
X106191000Y-111711874D01*
X106191000Y-111300126D01*
X106033431Y-110919720D01*
X105742280Y-110628569D01*
X105361874Y-110471000D01*
X104950126Y-110471000D01*
X104569720Y-110628569D01*
X104427289Y-110771000D01*
X103852711Y-110771000D01*
X103710280Y-110628569D01*
X103409129Y-110503828D01*
X103372261Y-109327001D01*
X128318663Y-109327001D01*
X128268161Y-109402582D01*
X128152908Y-109982000D01*
X128231656Y-110377897D01*
X126441554Y-112168000D01*
X122648711Y-112168000D01*
X122506280Y-112025569D01*
X122344774Y-111958671D01*
X122447000Y-111711874D01*
X122447000Y-111300126D01*
X122289431Y-110919720D01*
X121998280Y-110628569D01*
X121617874Y-110471000D01*
X121206126Y-110471000D01*
X120825720Y-110628569D01*
X120534569Y-110919720D01*
X120377000Y-111300126D01*
X120377000Y-111533382D01*
X120319647Y-111619217D01*
X120277001Y-111833612D01*
X120277001Y-111833615D01*
X120262603Y-111905999D01*
X120277001Y-111978384D01*
X120277002Y-112958614D01*
X120262603Y-113031003D01*
X120319647Y-113317785D01*
X120441092Y-113499540D01*
X120482097Y-113560908D01*
X120543464Y-113601912D01*
X121082089Y-114140538D01*
X121123094Y-114201906D01*
X121366216Y-114364355D01*
X121580611Y-114407001D01*
X121580614Y-114407001D01*
X121652998Y-114421399D01*
X121725382Y-114407001D01*
X132034615Y-114407001D01*
X132106999Y-114421399D01*
X132179383Y-114407001D01*
X132179387Y-114407001D01*
X132393782Y-114364355D01*
X132636904Y-114201906D01*
X132676959Y-114141959D01*
X132736905Y-114101905D01*
X132792006Y-114019440D01*
X133057000Y-114019440D01*
X133304765Y-113970157D01*
X133514809Y-113829809D01*
X133655157Y-113619765D01*
X133704440Y-113372000D01*
X133704440Y-111672000D01*
X133655157Y-111424235D01*
X133514809Y-111214191D01*
X133304765Y-111073843D01*
X133259381Y-111064816D01*
X133277625Y-111052625D01*
X133605839Y-110561418D01*
X133721092Y-109982000D01*
X133605839Y-109402582D01*
X133555337Y-109327001D01*
X134528999Y-109327001D01*
X134601383Y-109341399D01*
X134673767Y-109327001D01*
X134673771Y-109327001D01*
X134888166Y-109284355D01*
X135131288Y-109121906D01*
X135172294Y-109060536D01*
X138053126Y-106179704D01*
X138187569Y-106504280D01*
G36*
X151362095Y-89683905D02*
X151423465Y-89724911D01*
X153651000Y-91952447D01*
X153651000Y-92153874D01*
X153808569Y-92534280D01*
X154099720Y-92825431D01*
X154480126Y-92983000D01*
X154891874Y-92983000D01*
X155272280Y-92825431D01*
X155563431Y-92534280D01*
X155620956Y-92395402D01*
X158896922Y-95671367D01*
X158761569Y-95806720D01*
X158604000Y-96187126D01*
X158604000Y-96598874D01*
X158761569Y-96979280D01*
X159052720Y-97270431D01*
X159433126Y-97428000D01*
X159844874Y-97428000D01*
X160225280Y-97270431D01*
X160301001Y-97194710D01*
X160301000Y-104173289D01*
X160158569Y-104315720D01*
X160001000Y-104696126D01*
X160001000Y-105107874D01*
X160158569Y-105488280D01*
X160449720Y-105779431D01*
X160766081Y-105910472D01*
X160293000Y-106383553D01*
X160293000Y-106093126D01*
X160135431Y-105712720D01*
X159993000Y-105570289D01*
X159993000Y-100275388D01*
X160007399Y-100203000D01*
X159979630Y-100063398D01*
X159950354Y-99916217D01*
X159787905Y-99673095D01*
X159726538Y-99632091D01*
X159658000Y-99563553D01*
X159658000Y-99362126D01*
X159500431Y-98981720D01*
X159209280Y-98690569D01*
X158828874Y-98533000D01*
X158417126Y-98533000D01*
X158036720Y-98690569D01*
X157745569Y-98981720D01*
X157588000Y-99362126D01*
X157588000Y-99773874D01*
X157745569Y-100154280D01*
X158036720Y-100445431D01*
X158417126Y-100603000D01*
X158523000Y-100603000D01*
X158523001Y-105570288D01*
X158380569Y-105712720D01*
X158223000Y-106093126D01*
X158223000Y-106504874D01*
X158380569Y-106885280D01*
X158671720Y-107176431D01*
X159052126Y-107334000D01*
X159342553Y-107334000D01*
X152742919Y-113933635D01*
X152771092Y-113792000D01*
X152692343Y-113396103D01*
X154900537Y-111187909D01*
X154961905Y-111146905D01*
X155124354Y-110903783D01*
X155167000Y-110689388D01*
X155167000Y-110689385D01*
X155181398Y-110617001D01*
X155167000Y-110544617D01*
X155167000Y-100296711D01*
X155309431Y-100154280D01*
X155467000Y-99773874D01*
X155467000Y-99362126D01*
X155309431Y-98981720D01*
X155018280Y-98690569D01*
X154637874Y-98533000D01*
X154317986Y-98533000D01*
X154293431Y-98473720D01*
X154002280Y-98182569D01*
X153621874Y-98025000D01*
X153301986Y-98025000D01*
X153277431Y-97965720D01*
X152986280Y-97674569D01*
X152605874Y-97517000D01*
X152194126Y-97517000D01*
X152145533Y-97537128D01*
X152007431Y-97203720D01*
X151716280Y-96912569D01*
X151335874Y-96755000D01*
X150924126Y-96755000D01*
X150543720Y-96912569D01*
X150252569Y-97203720D01*
X150095000Y-97584126D01*
X150095000Y-97785553D01*
X143971990Y-103908564D01*
X143971990Y-102431456D01*
X144784447Y-101619000D01*
X144985874Y-101619000D01*
X145366280Y-101461431D01*
X145657431Y-101170280D01*
X145815000Y-100789874D01*
X145815000Y-100378126D01*
X145657431Y-99997720D01*
X145366280Y-99706569D01*
X144985874Y-99549000D01*
X144683831Y-99549000D01*
X151028539Y-93204292D01*
X151089906Y-93163288D01*
X151190909Y-93012126D01*
X151873000Y-93012126D01*
X151873000Y-93423874D01*
X152030569Y-93804280D01*
X152321720Y-94095431D01*
X152702126Y-94253000D01*
X152903554Y-94253000D01*
X155729000Y-97078447D01*
X155729001Y-105951288D01*
X155586569Y-106093720D01*
X155429000Y-106474126D01*
X155429000Y-106885874D01*
X155586569Y-107266280D01*
X155877720Y-107557431D01*
X156258126Y-107715000D01*
X156669874Y-107715000D01*
X157050280Y-107557431D01*
X157341431Y-107266280D01*
X157499000Y-106885874D01*
X157499000Y-106474126D01*
X157341431Y-106093720D01*
X157199000Y-105951289D01*
X157199000Y-96846383D01*
X157213398Y-96773999D01*
X157199000Y-96701613D01*
X157199000Y-96701612D01*
X157156354Y-96487217D01*
X156993905Y-96244095D01*
X156932538Y-96203091D01*
X153943000Y-93213554D01*
X153943000Y-93012126D01*
X153785431Y-92631720D01*
X153494280Y-92340569D01*
X153113874Y-92183000D01*
X152702126Y-92183000D01*
X152321720Y-92340569D01*
X152030569Y-92631720D01*
X151873000Y-93012126D01*
X151190909Y-93012126D01*
X151252355Y-92920166D01*
X151295001Y-92705771D01*
X151295001Y-92705768D01*
X151309399Y-92633384D01*
X151295001Y-92561000D01*
X151295001Y-89583491D01*
X151362095Y-89683905D01*
X151362095Y-89683905D01*
G37*
X151362095Y-89683905D02*
X151423465Y-89724911D01*
X153651000Y-91952447D01*
X153651000Y-92153874D01*
X153808569Y-92534280D01*
X154099720Y-92825431D01*
X154480126Y-92983000D01*
X154891874Y-92983000D01*
X155272280Y-92825431D01*
X155563431Y-92534280D01*
X155620956Y-92395402D01*
X158896922Y-95671367D01*
X158761569Y-95806720D01*
X158604000Y-96187126D01*
X158604000Y-96598874D01*
X158761569Y-96979280D01*
X159052720Y-97270431D01*
X159433126Y-97428000D01*
X159844874Y-97428000D01*
X160225280Y-97270431D01*
X160301001Y-97194710D01*
X160301000Y-104173289D01*
X160158569Y-104315720D01*
X160001000Y-104696126D01*
X160001000Y-105107874D01*
X160158569Y-105488280D01*
X160449720Y-105779431D01*
X160766081Y-105910472D01*
X160293000Y-106383553D01*
X160293000Y-106093126D01*
X160135431Y-105712720D01*
X159993000Y-105570289D01*
X159993000Y-100275388D01*
X160007399Y-100203000D01*
X159979630Y-100063398D01*
X159950354Y-99916217D01*
X159787905Y-99673095D01*
X159726538Y-99632091D01*
X159658000Y-99563553D01*
X159658000Y-99362126D01*
X159500431Y-98981720D01*
X159209280Y-98690569D01*
X158828874Y-98533000D01*
X158417126Y-98533000D01*
X158036720Y-98690569D01*
X157745569Y-98981720D01*
X157588000Y-99362126D01*
X157588000Y-99773874D01*
X157745569Y-100154280D01*
X158036720Y-100445431D01*
X158417126Y-100603000D01*
X158523000Y-100603000D01*
X158523001Y-105570288D01*
X158380569Y-105712720D01*
X158223000Y-106093126D01*
X158223000Y-106504874D01*
X158380569Y-106885280D01*
X158671720Y-107176431D01*
X159052126Y-107334000D01*
X159342553Y-107334000D01*
X152742919Y-113933635D01*
X152771092Y-113792000D01*
X152692343Y-113396103D01*
X154900537Y-111187909D01*
X154961905Y-111146905D01*
X155124354Y-110903783D01*
X155167000Y-110689388D01*
X155167000Y-110689385D01*
X155181398Y-110617001D01*
X155167000Y-110544617D01*
X155167000Y-100296711D01*
X155309431Y-100154280D01*
X155467000Y-99773874D01*
X155467000Y-99362126D01*
X155309431Y-98981720D01*
X155018280Y-98690569D01*
X154637874Y-98533000D01*
X154317986Y-98533000D01*
X154293431Y-98473720D01*
X154002280Y-98182569D01*
X153621874Y-98025000D01*
X153301986Y-98025000D01*
X153277431Y-97965720D01*
X152986280Y-97674569D01*
X152605874Y-97517000D01*
X152194126Y-97517000D01*
X152145533Y-97537128D01*
X152007431Y-97203720D01*
X151716280Y-96912569D01*
X151335874Y-96755000D01*
X150924126Y-96755000D01*
X150543720Y-96912569D01*
X150252569Y-97203720D01*
X150095000Y-97584126D01*
X150095000Y-97785553D01*
X143971990Y-103908564D01*
X143971990Y-102431456D01*
X144784447Y-101619000D01*
X144985874Y-101619000D01*
X145366280Y-101461431D01*
X145657431Y-101170280D01*
X145815000Y-100789874D01*
X145815000Y-100378126D01*
X145657431Y-99997720D01*
X145366280Y-99706569D01*
X144985874Y-99549000D01*
X144683831Y-99549000D01*
X151028539Y-93204292D01*
X151089906Y-93163288D01*
X151190909Y-93012126D01*
X151873000Y-93012126D01*
X151873000Y-93423874D01*
X152030569Y-93804280D01*
X152321720Y-94095431D01*
X152702126Y-94253000D01*
X152903554Y-94253000D01*
X155729000Y-97078447D01*
X155729001Y-105951288D01*
X155586569Y-106093720D01*
X155429000Y-106474126D01*
X155429000Y-106885874D01*
X155586569Y-107266280D01*
X155877720Y-107557431D01*
X156258126Y-107715000D01*
X156669874Y-107715000D01*
X157050280Y-107557431D01*
X157341431Y-107266280D01*
X157499000Y-106885874D01*
X157499000Y-106474126D01*
X157341431Y-106093720D01*
X157199000Y-105951289D01*
X157199000Y-96846383D01*
X157213398Y-96773999D01*
X157199000Y-96701613D01*
X157199000Y-96701612D01*
X157156354Y-96487217D01*
X156993905Y-96244095D01*
X156932538Y-96203091D01*
X153943000Y-93213554D01*
X153943000Y-93012126D01*
X153785431Y-92631720D01*
X153494280Y-92340569D01*
X153113874Y-92183000D01*
X152702126Y-92183000D01*
X152321720Y-92340569D01*
X152030569Y-92631720D01*
X151873000Y-93012126D01*
X151190909Y-93012126D01*
X151252355Y-92920166D01*
X151295001Y-92705771D01*
X151295001Y-92705768D01*
X151309399Y-92633384D01*
X151295001Y-92561000D01*
X151295001Y-89583491D01*
X151362095Y-89683905D01*
G36*
X114212462Y-103059909D02*
X114212465Y-103059911D01*
X117732553Y-106580000D01*
X115352428Y-106580000D01*
X115313235Y-106540807D01*
X115555417Y-106471343D01*
X115742164Y-105947898D01*
X115714382Y-105392832D01*
X115555417Y-105009057D01*
X115313233Y-104939592D01*
X114512625Y-105740200D01*
X114526768Y-105754343D01*
X114347163Y-105933948D01*
X114333020Y-105919805D01*
X114318878Y-105933948D01*
X114139273Y-105754343D01*
X114153415Y-105740200D01*
X114139273Y-105726058D01*
X114318878Y-105546453D01*
X114333020Y-105560595D01*
X115133628Y-104759987D01*
X115064163Y-104517803D01*
X114540718Y-104331056D01*
X113985652Y-104358838D01*
X113601877Y-104517803D01*
X113532413Y-104759985D01*
X113417402Y-104644974D01*
X113384000Y-104678376D01*
X113384000Y-104360711D01*
X113526431Y-104218280D01*
X113684000Y-103837874D01*
X113684000Y-103426126D01*
X113526431Y-103045720D01*
X113235280Y-102754569D01*
X112854874Y-102597000D01*
X112443126Y-102597000D01*
X112062720Y-102754569D01*
X111771569Y-103045720D01*
X111614000Y-103426126D01*
X111614000Y-103837874D01*
X111771569Y-104218280D01*
X111914000Y-104360711D01*
X111914000Y-104402084D01*
X111606000Y-104529662D01*
X111606000Y-102328711D01*
X111748431Y-102186280D01*
X111906000Y-101805874D01*
X111906000Y-101394126D01*
X111748431Y-101013720D01*
X111457280Y-100722569D01*
X111076874Y-100565000D01*
X110665126Y-100565000D01*
X110284720Y-100722569D01*
X109993569Y-101013720D01*
X109836000Y-101394126D01*
X109836000Y-101805874D01*
X109993569Y-102186280D01*
X110136000Y-102328711D01*
X110136001Y-104343200D01*
X110054639Y-104343200D01*
X109541183Y-104555880D01*
X109333030Y-104764033D01*
X109124877Y-104555880D01*
X108939000Y-104478887D01*
X108939000Y-101947711D01*
X109081431Y-101805280D01*
X109239000Y-101424874D01*
X109239000Y-101013126D01*
X109081431Y-100632720D01*
X108790280Y-100341569D01*
X108409874Y-100184000D01*
X107998126Y-100184000D01*
X107617720Y-100341569D01*
X107326569Y-100632720D01*
X107304572Y-100685825D01*
X107012874Y-100565000D01*
X106849447Y-100565000D01*
X107238447Y-100176000D01*
X111328554Y-100176000D01*
X114212462Y-103059909D01*
X114212462Y-103059909D01*
G37*
X114212462Y-103059909D02*
X114212465Y-103059911D01*
X117732553Y-106580000D01*
X115352428Y-106580000D01*
X115313235Y-106540807D01*
X115555417Y-106471343D01*
X115742164Y-105947898D01*
X115714382Y-105392832D01*
X115555417Y-105009057D01*
X115313233Y-104939592D01*
X114512625Y-105740200D01*
X114526768Y-105754343D01*
X114347163Y-105933948D01*
X114333020Y-105919805D01*
X114318878Y-105933948D01*
X114139273Y-105754343D01*
X114153415Y-105740200D01*
X114139273Y-105726058D01*
X114318878Y-105546453D01*
X114333020Y-105560595D01*
X115133628Y-104759987D01*
X115064163Y-104517803D01*
X114540718Y-104331056D01*
X113985652Y-104358838D01*
X113601877Y-104517803D01*
X113532413Y-104759985D01*
X113417402Y-104644974D01*
X113384000Y-104678376D01*
X113384000Y-104360711D01*
X113526431Y-104218280D01*
X113684000Y-103837874D01*
X113684000Y-103426126D01*
X113526431Y-103045720D01*
X113235280Y-102754569D01*
X112854874Y-102597000D01*
X112443126Y-102597000D01*
X112062720Y-102754569D01*
X111771569Y-103045720D01*
X111614000Y-103426126D01*
X111614000Y-103837874D01*
X111771569Y-104218280D01*
X111914000Y-104360711D01*
X111914000Y-104402084D01*
X111606000Y-104529662D01*
X111606000Y-102328711D01*
X111748431Y-102186280D01*
X111906000Y-101805874D01*
X111906000Y-101394126D01*
X111748431Y-101013720D01*
X111457280Y-100722569D01*
X111076874Y-100565000D01*
X110665126Y-100565000D01*
X110284720Y-100722569D01*
X109993569Y-101013720D01*
X109836000Y-101394126D01*
X109836000Y-101805874D01*
X109993569Y-102186280D01*
X110136000Y-102328711D01*
X110136001Y-104343200D01*
X110054639Y-104343200D01*
X109541183Y-104555880D01*
X109333030Y-104764033D01*
X109124877Y-104555880D01*
X108939000Y-104478887D01*
X108939000Y-101947711D01*
X109081431Y-101805280D01*
X109239000Y-101424874D01*
X109239000Y-101013126D01*
X109081431Y-100632720D01*
X108790280Y-100341569D01*
X108409874Y-100184000D01*
X107998126Y-100184000D01*
X107617720Y-100341569D01*
X107326569Y-100632720D01*
X107304572Y-100685825D01*
X107012874Y-100565000D01*
X106849447Y-100565000D01*
X107238447Y-100176000D01*
X111328554Y-100176000D01*
X114212462Y-103059909D01*
G36*
X147090594Y-84363695D02*
X146933025Y-84744101D01*
X146933025Y-85155849D01*
X147090594Y-85536255D01*
X147381745Y-85827406D01*
X147762151Y-85984975D01*
X148173899Y-85984975D01*
X148554305Y-85827406D01*
X148845456Y-85536255D01*
X149003025Y-85155849D01*
X149003025Y-85001001D01*
X151619000Y-85001001D01*
X151619000Y-85085553D01*
X146253554Y-90451000D01*
X138904711Y-90451000D01*
X138762280Y-90308569D01*
X138381874Y-90151000D01*
X137970126Y-90151000D01*
X137589720Y-90308569D01*
X137298569Y-90599720D01*
X137141000Y-90980126D01*
X137141000Y-91391874D01*
X137298569Y-91772280D01*
X137589720Y-92063431D01*
X137970126Y-92221000D01*
X138381874Y-92221000D01*
X138762280Y-92063431D01*
X138904711Y-91921000D01*
X145015000Y-91921000D01*
X145015000Y-92153874D01*
X145172569Y-92534280D01*
X145463720Y-92825431D01*
X145600476Y-92882077D01*
X133697775Y-104784779D01*
X133605839Y-104322582D01*
X133277625Y-103831375D01*
X132942000Y-103607118D01*
X132942000Y-94919446D01*
X140212447Y-87649000D01*
X140413874Y-87649000D01*
X140794280Y-87491431D01*
X141085431Y-87200280D01*
X141243000Y-86819874D01*
X141243000Y-86408126D01*
X141117856Y-86106000D01*
X141243000Y-85803874D01*
X141243000Y-85392126D01*
X141085431Y-85011720D01*
X140951681Y-84877970D01*
X140989000Y-84787874D01*
X140989000Y-84376126D01*
X140957882Y-84301000D01*
X147153289Y-84301000D01*
X147090594Y-84363695D01*
X147090594Y-84363695D01*
G37*
X147090594Y-84363695D02*
X146933025Y-84744101D01*
X146933025Y-85155849D01*
X147090594Y-85536255D01*
X147381745Y-85827406D01*
X147762151Y-85984975D01*
X148173899Y-85984975D01*
X148554305Y-85827406D01*
X148845456Y-85536255D01*
X149003025Y-85155849D01*
X149003025Y-85001001D01*
X151619000Y-85001001D01*
X151619000Y-85085553D01*
X146253554Y-90451000D01*
X138904711Y-90451000D01*
X138762280Y-90308569D01*
X138381874Y-90151000D01*
X137970126Y-90151000D01*
X137589720Y-90308569D01*
X137298569Y-90599720D01*
X137141000Y-90980126D01*
X137141000Y-91391874D01*
X137298569Y-91772280D01*
X137589720Y-92063431D01*
X137970126Y-92221000D01*
X138381874Y-92221000D01*
X138762280Y-92063431D01*
X138904711Y-91921000D01*
X145015000Y-91921000D01*
X145015000Y-92153874D01*
X145172569Y-92534280D01*
X145463720Y-92825431D01*
X145600476Y-92882077D01*
X133697775Y-104784779D01*
X133605839Y-104322582D01*
X133277625Y-103831375D01*
X132942000Y-103607118D01*
X132942000Y-94919446D01*
X140212447Y-87649000D01*
X140413874Y-87649000D01*
X140794280Y-87491431D01*
X141085431Y-87200280D01*
X141243000Y-86819874D01*
X141243000Y-86408126D01*
X141117856Y-86106000D01*
X141243000Y-85803874D01*
X141243000Y-85392126D01*
X141085431Y-85011720D01*
X140951681Y-84877970D01*
X140989000Y-84787874D01*
X140989000Y-84376126D01*
X140957882Y-84301000D01*
X147153289Y-84301000D01*
X147090594Y-84363695D01*
G36*
X156729569Y-80088280D02*
X157020720Y-80379431D01*
X157401126Y-80537000D01*
X157812874Y-80537000D01*
X158193280Y-80379431D01*
X158335711Y-80237000D01*
X161100723Y-80237000D01*
X161017000Y-80439126D01*
X161017000Y-80850874D01*
X161174569Y-81231280D01*
X161465720Y-81522431D01*
X161846126Y-81680000D01*
X162257874Y-81680000D01*
X162638280Y-81522431D01*
X162780711Y-81380000D01*
X170403556Y-81380000D01*
X176685422Y-87661867D01*
X176541569Y-87805720D01*
X176384869Y-88184029D01*
X176227874Y-88119000D01*
X175816126Y-88119000D01*
X175435720Y-88276569D01*
X175144569Y-88567720D01*
X174987000Y-88948126D01*
X174987000Y-89359874D01*
X175144569Y-89740280D01*
X175287000Y-89882711D01*
X175287001Y-93907611D01*
X175272602Y-93980000D01*
X175329646Y-94266782D01*
X175405296Y-94380000D01*
X175492096Y-94509905D01*
X175553463Y-94550909D01*
X177527000Y-96524447D01*
X177527000Y-96725874D01*
X177684569Y-97106280D01*
X177975720Y-97397431D01*
X178356126Y-97555000D01*
X178767874Y-97555000D01*
X179148280Y-97397431D01*
X179439431Y-97106280D01*
X179520603Y-96910314D01*
X179753720Y-97143431D01*
X180134126Y-97301000D01*
X180545874Y-97301000D01*
X180770509Y-97207953D01*
X181633556Y-98071000D01*
X174898000Y-98071000D01*
X174898000Y-97711126D01*
X174740431Y-97330720D01*
X174449280Y-97039569D01*
X174068874Y-96882000D01*
X173657126Y-96882000D01*
X173276720Y-97039569D01*
X173134289Y-97182000D01*
X170034132Y-97182000D01*
X162807596Y-89955465D01*
X162766590Y-89894095D01*
X162523468Y-89731646D01*
X162422217Y-89711506D01*
X162257280Y-89546569D01*
X161876874Y-89389000D01*
X161465126Y-89389000D01*
X161084720Y-89546569D01*
X160793569Y-89837720D01*
X160636000Y-90218126D01*
X160636000Y-90629874D01*
X160793569Y-91010280D01*
X161084720Y-91301431D01*
X161465126Y-91459000D01*
X161876874Y-91459000D01*
X162128155Y-91354916D01*
X168844238Y-98071000D01*
X167352711Y-98071000D01*
X167210280Y-97928569D01*
X166829874Y-97771000D01*
X166658999Y-97771000D01*
X166658999Y-96908382D01*
X166673397Y-96835998D01*
X166658999Y-96763612D01*
X166658999Y-96763611D01*
X166616353Y-96549216D01*
X166453904Y-96306094D01*
X166392537Y-96265090D01*
X163087000Y-92959554D01*
X163087000Y-92758126D01*
X162929431Y-92377720D01*
X162638280Y-92086569D01*
X162257874Y-91929000D01*
X161846126Y-91929000D01*
X161465720Y-92086569D01*
X161331868Y-92220421D01*
X160039000Y-90927554D01*
X160039000Y-90726126D01*
X159881431Y-90345720D01*
X159590280Y-90054569D01*
X159209874Y-89897000D01*
X158798126Y-89897000D01*
X158417720Y-90054569D01*
X158126569Y-90345720D01*
X157969000Y-90726126D01*
X157969000Y-90946473D01*
X157958784Y-90939647D01*
X157744389Y-90897001D01*
X157717000Y-90891553D01*
X156737000Y-89911554D01*
X156737000Y-89710126D01*
X156579431Y-89329720D01*
X156445681Y-89195970D01*
X156483000Y-89105874D01*
X156483000Y-88911234D01*
X156523914Y-88883896D01*
X156686363Y-88640774D01*
X156729009Y-88426379D01*
X156729009Y-88426376D01*
X156743407Y-88353992D01*
X156729009Y-88281608D01*
X156729009Y-80086928D01*
X156729569Y-80088280D01*
X156729569Y-80088280D01*
G37*
X156729569Y-80088280D02*
X157020720Y-80379431D01*
X157401126Y-80537000D01*
X157812874Y-80537000D01*
X158193280Y-80379431D01*
X158335711Y-80237000D01*
X161100723Y-80237000D01*
X161017000Y-80439126D01*
X161017000Y-80850874D01*
X161174569Y-81231280D01*
X161465720Y-81522431D01*
X161846126Y-81680000D01*
X162257874Y-81680000D01*
X162638280Y-81522431D01*
X162780711Y-81380000D01*
X170403556Y-81380000D01*
X176685422Y-87661867D01*
X176541569Y-87805720D01*
X176384869Y-88184029D01*
X176227874Y-88119000D01*
X175816126Y-88119000D01*
X175435720Y-88276569D01*
X175144569Y-88567720D01*
X174987000Y-88948126D01*
X174987000Y-89359874D01*
X175144569Y-89740280D01*
X175287000Y-89882711D01*
X175287001Y-93907611D01*
X175272602Y-93980000D01*
X175329646Y-94266782D01*
X175405296Y-94380000D01*
X175492096Y-94509905D01*
X175553463Y-94550909D01*
X177527000Y-96524447D01*
X177527000Y-96725874D01*
X177684569Y-97106280D01*
X177975720Y-97397431D01*
X178356126Y-97555000D01*
X178767874Y-97555000D01*
X179148280Y-97397431D01*
X179439431Y-97106280D01*
X179520603Y-96910314D01*
X179753720Y-97143431D01*
X180134126Y-97301000D01*
X180545874Y-97301000D01*
X180770509Y-97207953D01*
X181633556Y-98071000D01*
X174898000Y-98071000D01*
X174898000Y-97711126D01*
X174740431Y-97330720D01*
X174449280Y-97039569D01*
X174068874Y-96882000D01*
X173657126Y-96882000D01*
X173276720Y-97039569D01*
X173134289Y-97182000D01*
X170034132Y-97182000D01*
X162807596Y-89955465D01*
X162766590Y-89894095D01*
X162523468Y-89731646D01*
X162422217Y-89711506D01*
X162257280Y-89546569D01*
X161876874Y-89389000D01*
X161465126Y-89389000D01*
X161084720Y-89546569D01*
X160793569Y-89837720D01*
X160636000Y-90218126D01*
X160636000Y-90629874D01*
X160793569Y-91010280D01*
X161084720Y-91301431D01*
X161465126Y-91459000D01*
X161876874Y-91459000D01*
X162128155Y-91354916D01*
X168844238Y-98071000D01*
X167352711Y-98071000D01*
X167210280Y-97928569D01*
X166829874Y-97771000D01*
X166658999Y-97771000D01*
X166658999Y-96908382D01*
X166673397Y-96835998D01*
X166658999Y-96763612D01*
X166658999Y-96763611D01*
X166616353Y-96549216D01*
X166453904Y-96306094D01*
X166392537Y-96265090D01*
X163087000Y-92959554D01*
X163087000Y-92758126D01*
X162929431Y-92377720D01*
X162638280Y-92086569D01*
X162257874Y-91929000D01*
X161846126Y-91929000D01*
X161465720Y-92086569D01*
X161331868Y-92220421D01*
X160039000Y-90927554D01*
X160039000Y-90726126D01*
X159881431Y-90345720D01*
X159590280Y-90054569D01*
X159209874Y-89897000D01*
X158798126Y-89897000D01*
X158417720Y-90054569D01*
X158126569Y-90345720D01*
X157969000Y-90726126D01*
X157969000Y-90946473D01*
X157958784Y-90939647D01*
X157744389Y-90897001D01*
X157717000Y-90891553D01*
X156737000Y-89911554D01*
X156737000Y-89710126D01*
X156579431Y-89329720D01*
X156445681Y-89195970D01*
X156483000Y-89105874D01*
X156483000Y-88911234D01*
X156523914Y-88883896D01*
X156686363Y-88640774D01*
X156729009Y-88426379D01*
X156729009Y-88426376D01*
X156743407Y-88353992D01*
X156729009Y-88281608D01*
X156729009Y-80086928D01*
X156729569Y-80088280D01*
G36*
X175739513Y-59082000D02*
X165807388Y-59082000D01*
X165735000Y-59067601D01*
X165662612Y-59082000D01*
X165448217Y-59124646D01*
X165205095Y-59287095D01*
X165164091Y-59348462D01*
X162047554Y-62465000D01*
X161846126Y-62465000D01*
X161465720Y-62622569D01*
X161174569Y-62913720D01*
X161017000Y-63294126D01*
X161017000Y-63705874D01*
X161174569Y-64086280D01*
X161465720Y-64377431D01*
X161846126Y-64535000D01*
X162257874Y-64535000D01*
X162638280Y-64377431D01*
X162929431Y-64086280D01*
X163087000Y-63705874D01*
X163087000Y-63504446D01*
X166039447Y-60552000D01*
X177234734Y-60552000D01*
X178951001Y-62239318D01*
X178951000Y-64448132D01*
X178951000Y-65237382D01*
X179016854Y-65568454D01*
X179267711Y-65943889D01*
X179643145Y-66194746D01*
X180086000Y-66282835D01*
X180528854Y-66194746D01*
X180904289Y-65943889D01*
X181155146Y-65568455D01*
X181221000Y-65237383D01*
X181221000Y-64471028D01*
X188233525Y-71365269D01*
X188233525Y-93616284D01*
X177850367Y-83233126D01*
X179432000Y-83233126D01*
X179432000Y-83644874D01*
X179589569Y-84025280D01*
X179632000Y-84067711D01*
X179632000Y-84118767D01*
X179615643Y-84201000D01*
X179632000Y-84283233D01*
X179632000Y-84283237D01*
X179649366Y-84370538D01*
X179680448Y-84526800D01*
X179763703Y-84651400D01*
X179865000Y-84803001D01*
X179934718Y-84849585D01*
X185528000Y-90442868D01*
X185528000Y-90502874D01*
X185685569Y-90883280D01*
X185976720Y-91174431D01*
X186357126Y-91332000D01*
X186768874Y-91332000D01*
X187149280Y-91174431D01*
X187440431Y-90883280D01*
X187598000Y-90502874D01*
X187598000Y-90091126D01*
X187440431Y-89710720D01*
X187149280Y-89419569D01*
X186768874Y-89262000D01*
X186708868Y-89262000D01*
X181381838Y-83934971D01*
X181502000Y-83644874D01*
X181502000Y-83233126D01*
X181344431Y-82852720D01*
X181053280Y-82561569D01*
X180672874Y-82404000D01*
X180261126Y-82404000D01*
X179880720Y-82561569D01*
X179589569Y-82852720D01*
X179432000Y-83233126D01*
X177850367Y-83233126D01*
X172516366Y-77899126D01*
X173336000Y-77899126D01*
X173336000Y-78310874D01*
X173493569Y-78691280D01*
X173784720Y-78982431D01*
X174165126Y-79140000D01*
X174576874Y-79140000D01*
X174957280Y-78982431D01*
X175248431Y-78691280D01*
X175406000Y-78310874D01*
X175406000Y-78077619D01*
X175463353Y-77991784D01*
X175505999Y-77777389D01*
X175505999Y-77777386D01*
X175520397Y-77705002D01*
X175505999Y-77632618D01*
X175505999Y-76380389D01*
X175519902Y-76310496D01*
X175533000Y-76278874D01*
X175533000Y-75867126D01*
X175375431Y-75486720D01*
X175084280Y-75195569D01*
X174703874Y-75038000D01*
X174292126Y-75038000D01*
X173911720Y-75195569D01*
X173620569Y-75486720D01*
X173463000Y-75867126D01*
X173463000Y-76278874D01*
X173620569Y-76659280D01*
X173911720Y-76950431D01*
X174036000Y-77001909D01*
X174035999Y-77123486D01*
X173784720Y-77227569D01*
X173493569Y-77518720D01*
X173336000Y-77899126D01*
X172516366Y-77899126D01*
X172380704Y-77763465D01*
X172339698Y-77702095D01*
X172096576Y-77539646D01*
X171882181Y-77497000D01*
X171882177Y-77497000D01*
X171809793Y-77482602D01*
X171737409Y-77497000D01*
X157446711Y-77497000D01*
X157304280Y-77354569D01*
X156923874Y-77197000D01*
X156729009Y-77197000D01*
X156729009Y-73708126D01*
X178162000Y-73708126D01*
X178162000Y-74119874D01*
X178319569Y-74500280D01*
X178610720Y-74791431D01*
X178991126Y-74949000D01*
X179402874Y-74949000D01*
X179783280Y-74791431D01*
X180074431Y-74500280D01*
X180232000Y-74119874D01*
X180232000Y-73708126D01*
X180127916Y-73456845D01*
X180808538Y-72776224D01*
X180869905Y-72735220D01*
X181032354Y-72492098D01*
X181075000Y-72277703D01*
X181075000Y-72277700D01*
X181089398Y-72205316D01*
X181075000Y-72132932D01*
X181075000Y-69435711D01*
X181217431Y-69293280D01*
X181375000Y-68912874D01*
X181375000Y-68501126D01*
X181217431Y-68120720D01*
X180926280Y-67829569D01*
X180545874Y-67672000D01*
X180134126Y-67672000D01*
X179753720Y-67829569D01*
X179462569Y-68120720D01*
X179305000Y-68501126D01*
X179305000Y-68912874D01*
X179462569Y-69293280D01*
X179605001Y-69435712D01*
X179605000Y-71900868D01*
X178728463Y-72777406D01*
X178667096Y-72818410D01*
X178504646Y-73061532D01*
X178484506Y-73162783D01*
X178319569Y-73327720D01*
X178162000Y-73708126D01*
X156729009Y-73708126D01*
X156729009Y-57206339D01*
X157027582Y-57405839D01*
X157460744Y-57492000D01*
X157753256Y-57492000D01*
X158186418Y-57405839D01*
X158677625Y-57077625D01*
X158877000Y-56779239D01*
X159076375Y-57077625D01*
X159567582Y-57405839D01*
X160000744Y-57492000D01*
X160293256Y-57492000D01*
X160726418Y-57405839D01*
X161217625Y-57077625D01*
X161430843Y-56758522D01*
X161491817Y-56888358D01*
X161920076Y-57278645D01*
X162330110Y-57448476D01*
X162560000Y-57327155D01*
X162560000Y-56134000D01*
X162814000Y-56134000D01*
X162814000Y-57327155D01*
X163043890Y-57448476D01*
X163453924Y-57278645D01*
X163882183Y-56888358D01*
X164128486Y-56363892D01*
X164007819Y-56134000D01*
X162814000Y-56134000D01*
X162560000Y-56134000D01*
X162540000Y-56134000D01*
X162540000Y-55880000D01*
X162560000Y-55880000D01*
X162560000Y-54686845D01*
X162814000Y-54686845D01*
X162814000Y-55880000D01*
X164007819Y-55880000D01*
X164128486Y-55650108D01*
X163882183Y-55125642D01*
X163453924Y-54735355D01*
X163043890Y-54565524D01*
X162814000Y-54686845D01*
X162560000Y-54686845D01*
X162330110Y-54565524D01*
X161920076Y-54735355D01*
X161491817Y-55125642D01*
X161430843Y-55255478D01*
X161217625Y-54936375D01*
X160726418Y-54608161D01*
X160293256Y-54522000D01*
X160000744Y-54522000D01*
X159567582Y-54608161D01*
X159076375Y-54936375D01*
X158877000Y-55234761D01*
X158677625Y-54936375D01*
X158186418Y-54608161D01*
X157753256Y-54522000D01*
X157460744Y-54522000D01*
X157211103Y-54571656D01*
X153998100Y-51358654D01*
X153957094Y-51297284D01*
X153713972Y-51134835D01*
X153499577Y-51092189D01*
X153499573Y-51092189D01*
X153427189Y-51077791D01*
X153354805Y-51092189D01*
X139704288Y-51092189D01*
X139631904Y-51077791D01*
X139559520Y-51092189D01*
X139559517Y-51092189D01*
X139345122Y-51134835D01*
X139102000Y-51297284D01*
X139060995Y-51358652D01*
X138176220Y-52243428D01*
X138125077Y-52097420D01*
X137537167Y-51880955D01*
X136911172Y-51905951D01*
X136448923Y-52097420D01*
X136357637Y-52358032D01*
X137287000Y-53287395D01*
X137301143Y-53273253D01*
X137480748Y-53452858D01*
X137466605Y-53467000D01*
X137480748Y-53481143D01*
X137301143Y-53660748D01*
X137287000Y-53646605D01*
X136357637Y-54575968D01*
X136448923Y-54836580D01*
X137036833Y-55053045D01*
X137294126Y-55042771D01*
X137221949Y-55114948D01*
X136982200Y-55693753D01*
X136982200Y-56320247D01*
X137221949Y-56899052D01*
X137664948Y-57342051D01*
X138243753Y-57581800D01*
X138870247Y-57581800D01*
X139027300Y-57516747D01*
X139028261Y-57517708D01*
X139028264Y-57517710D01*
X139225890Y-57715336D01*
X139266896Y-57776706D01*
X139510018Y-57939155D01*
X139724413Y-57981801D01*
X139724417Y-57981801D01*
X139796801Y-57996199D01*
X139869185Y-57981801D01*
X150164815Y-57981801D01*
X150237199Y-57996199D01*
X150309583Y-57981801D01*
X150309587Y-57981801D01*
X150523982Y-57939155D01*
X150767104Y-57776706D01*
X150808110Y-57715336D01*
X151214964Y-57308483D01*
X151219191Y-57314809D01*
X151429235Y-57455157D01*
X151677000Y-57504440D01*
X151941994Y-57504440D01*
X151997095Y-57586905D01*
X152058465Y-57627911D01*
X154859000Y-60428447D01*
X154859000Y-70885988D01*
X154764874Y-70847000D01*
X154353126Y-70847000D01*
X153972720Y-71004569D01*
X153681569Y-71295720D01*
X153524000Y-71676126D01*
X153524000Y-72087874D01*
X153681569Y-72468280D01*
X153824001Y-72610712D01*
X153824000Y-73736553D01*
X153792553Y-73768000D01*
X153591126Y-73768000D01*
X153210720Y-73925569D01*
X153076868Y-74059421D01*
X150133000Y-71115554D01*
X150133000Y-70914126D01*
X149975431Y-70533720D01*
X149684280Y-70242569D01*
X149303874Y-70085000D01*
X148892126Y-70085000D01*
X148511720Y-70242569D01*
X148220569Y-70533720D01*
X148063000Y-70914126D01*
X148063000Y-71325874D01*
X148220569Y-71706280D01*
X148511720Y-71997431D01*
X148892126Y-72155000D01*
X149093554Y-72155000D01*
X153843000Y-76904447D01*
X153843000Y-80660763D01*
X153822538Y-80647092D01*
X151911000Y-78735554D01*
X151911000Y-78534126D01*
X151753431Y-78153720D01*
X151462280Y-77862569D01*
X151081874Y-77705000D01*
X150670126Y-77705000D01*
X150289720Y-77862569D01*
X149998569Y-78153720D01*
X149841000Y-78534126D01*
X149841000Y-78945874D01*
X149998569Y-79326280D01*
X150289720Y-79617431D01*
X150670126Y-79775000D01*
X150871554Y-79775000D01*
X152619002Y-81522449D01*
X152619002Y-82531000D01*
X152448126Y-82531000D01*
X152067720Y-82688569D01*
X151925289Y-82831000D01*
X143125446Y-82831000D01*
X146181447Y-79775000D01*
X146382874Y-79775000D01*
X146763280Y-79617431D01*
X147054431Y-79326280D01*
X147212000Y-78945874D01*
X147212000Y-78534126D01*
X147054431Y-78153720D01*
X146763280Y-77862569D01*
X146382874Y-77705000D01*
X145971126Y-77705000D01*
X145590720Y-77862569D01*
X145299569Y-78153720D01*
X145142000Y-78534126D01*
X145142000Y-78735553D01*
X142189554Y-81688000D01*
X132500711Y-81688000D01*
X132576431Y-81612280D01*
X132734000Y-81231874D01*
X132734000Y-81030446D01*
X133375539Y-80388908D01*
X133436906Y-80347904D01*
X133599355Y-80104782D01*
X133642001Y-79890387D01*
X133642001Y-79890384D01*
X133656399Y-79818000D01*
X133642001Y-79745616D01*
X133642001Y-77118076D01*
X133656399Y-77045692D01*
X133642001Y-76973308D01*
X133642001Y-76973305D01*
X133599355Y-76758910D01*
X133436906Y-76515788D01*
X133375538Y-76474783D01*
X132680497Y-75779743D01*
X132759246Y-75383846D01*
X132689235Y-75031876D01*
X132894949Y-75072795D01*
X133187461Y-75072795D01*
X133620623Y-74986634D01*
X134111830Y-74658420D01*
X134440044Y-74167213D01*
X134531361Y-73708126D01*
X142856000Y-73708126D01*
X142856000Y-74119874D01*
X143013569Y-74500280D01*
X143304720Y-74791431D01*
X143685126Y-74949000D01*
X144096874Y-74949000D01*
X144477280Y-74791431D01*
X144768431Y-74500280D01*
X144926000Y-74119874D01*
X144926000Y-73886619D01*
X144983353Y-73800784D01*
X145025999Y-73586389D01*
X145025999Y-73586386D01*
X145040397Y-73514002D01*
X145025999Y-73441618D01*
X145025999Y-68103447D01*
X145546447Y-67583000D01*
X145747874Y-67583000D01*
X146128280Y-67425431D01*
X146419431Y-67134280D01*
X146577000Y-66753874D01*
X146577000Y-66342126D01*
X146419431Y-65961720D01*
X146128280Y-65670569D01*
X145747874Y-65513000D01*
X145336126Y-65513000D01*
X144955720Y-65670569D01*
X144664569Y-65961720D01*
X144507000Y-66342126D01*
X144507000Y-66543553D01*
X143822462Y-67228092D01*
X143761095Y-67269096D01*
X143720091Y-67330463D01*
X143720090Y-67330464D01*
X143598645Y-67512219D01*
X143541601Y-67799001D01*
X143556000Y-67871390D01*
X143555999Y-72932486D01*
X143304720Y-73036569D01*
X143013569Y-73327720D01*
X142856000Y-73708126D01*
X134531361Y-73708126D01*
X134555297Y-73587795D01*
X134440044Y-73008377D01*
X134111830Y-72517170D01*
X133620623Y-72188956D01*
X133187461Y-72102795D01*
X132894949Y-72102795D01*
X132689235Y-72143714D01*
X132759246Y-71791744D01*
X132643993Y-71212326D01*
X132315779Y-70721119D01*
X131824572Y-70392905D01*
X131391410Y-70306744D01*
X131098898Y-70306744D01*
X130665736Y-70392905D01*
X130174529Y-70721119D01*
X130067000Y-70882048D01*
X130067000Y-70533126D01*
X129909431Y-70152720D01*
X129618280Y-69861569D01*
X129237874Y-69704000D01*
X128826126Y-69704000D01*
X128445720Y-69861569D01*
X128303289Y-70004000D01*
X127962444Y-70004000D01*
X127890060Y-69989602D01*
X127817676Y-70004000D01*
X127817672Y-70004000D01*
X127603277Y-70046646D01*
X127360155Y-70209095D01*
X127319151Y-70270462D01*
X124759388Y-72830226D01*
X124702431Y-72692720D01*
X124411280Y-72401569D01*
X124030874Y-72244000D01*
X123619126Y-72244000D01*
X123238720Y-72401569D01*
X123096289Y-72544000D01*
X121597700Y-72544000D01*
X122436891Y-71704809D01*
X122577239Y-71494765D01*
X122626522Y-71247000D01*
X122577239Y-70999235D01*
X122534952Y-70935949D01*
X122719307Y-70935949D01*
X123152469Y-70849788D01*
X123643676Y-70521574D01*
X123971890Y-70030367D01*
X124087143Y-69450949D01*
X124017132Y-69098979D01*
X124222846Y-69139898D01*
X124515358Y-69139898D01*
X124948520Y-69053737D01*
X125439727Y-68725523D01*
X125767941Y-68234316D01*
X125883194Y-67654898D01*
X125767941Y-67075480D01*
X125439727Y-66584273D01*
X124948520Y-66256059D01*
X124515358Y-66169898D01*
X124222846Y-66169898D01*
X124017132Y-66210817D01*
X124087143Y-65858846D01*
X123971890Y-65279428D01*
X123643676Y-64788221D01*
X123152469Y-64460007D01*
X122719307Y-64373846D01*
X122426795Y-64373846D01*
X121993633Y-64460007D01*
X121502426Y-64788221D01*
X121174212Y-65279428D01*
X121058959Y-65858846D01*
X121128970Y-66210817D01*
X120923256Y-66169898D01*
X120630744Y-66169898D01*
X120197582Y-66256059D01*
X119706375Y-66584273D01*
X119440992Y-66981446D01*
X119174011Y-66714465D01*
X119133005Y-66653095D01*
X118889883Y-66490646D01*
X118675488Y-66448000D01*
X118675484Y-66448000D01*
X118603100Y-66433602D01*
X118530716Y-66448000D01*
X112264447Y-66448000D01*
X113080447Y-65632000D01*
X117508289Y-65632000D01*
X117650720Y-65774431D01*
X118031126Y-65932000D01*
X118442874Y-65932000D01*
X118823280Y-65774431D01*
X119114431Y-65483280D01*
X119272000Y-65102874D01*
X119272000Y-64691126D01*
X119114431Y-64310720D01*
X118823280Y-64019569D01*
X118442874Y-63862000D01*
X118031126Y-63862000D01*
X117650720Y-64019569D01*
X117508289Y-64162000D01*
X112848388Y-64162000D01*
X112776000Y-64147601D01*
X112703612Y-64162000D01*
X112489217Y-64204646D01*
X112246095Y-64367095D01*
X112205091Y-64428462D01*
X103711473Y-72922081D01*
X115937396Y-59357126D01*
X145777000Y-59357126D01*
X145777000Y-59768874D01*
X145934569Y-60149280D01*
X146225720Y-60440431D01*
X146606126Y-60598000D01*
X147017874Y-60598000D01*
X147398280Y-60440431D01*
X147689431Y-60149280D01*
X147838249Y-59790000D01*
X149766289Y-59790000D01*
X149908720Y-59932431D01*
X150289126Y-60090000D01*
X150700874Y-60090000D01*
X151081280Y-59932431D01*
X151372431Y-59641280D01*
X151530000Y-59260874D01*
X151530000Y-58849126D01*
X151372431Y-58468720D01*
X151081280Y-58177569D01*
X150700874Y-58020000D01*
X150289126Y-58020000D01*
X149908720Y-58177569D01*
X149766289Y-58320000D01*
X147392383Y-58320000D01*
X147319999Y-58305602D01*
X147247615Y-58320000D01*
X147247612Y-58320000D01*
X147033217Y-58362646D01*
X146790095Y-58525095D01*
X146788154Y-58528000D01*
X146606126Y-58528000D01*
X146225720Y-58685569D01*
X145934569Y-58976720D01*
X145777000Y-59357126D01*
X115937396Y-59357126D01*
X121471566Y-53216833D01*
X135700955Y-53216833D01*
X135725951Y-53842828D01*
X135917420Y-54305077D01*
X136178032Y-54396363D01*
X137107395Y-53467000D01*
X136178032Y-52537637D01*
X135917420Y-52628923D01*
X135700955Y-53216833D01*
X121471566Y-53216833D01*
X123545668Y-50915568D01*
X167226797Y-50712872D01*
X175739513Y-59082000D01*
X175739513Y-59082000D01*
G37*
X175739513Y-59082000D02*
X165807388Y-59082000D01*
X165735000Y-59067601D01*
X165662612Y-59082000D01*
X165448217Y-59124646D01*
X165205095Y-59287095D01*
X165164091Y-59348462D01*
X162047554Y-62465000D01*
X161846126Y-62465000D01*
X161465720Y-62622569D01*
X161174569Y-62913720D01*
X161017000Y-63294126D01*
X161017000Y-63705874D01*
X161174569Y-64086280D01*
X161465720Y-64377431D01*
X161846126Y-64535000D01*
X162257874Y-64535000D01*
X162638280Y-64377431D01*
X162929431Y-64086280D01*
X163087000Y-63705874D01*
X163087000Y-63504446D01*
X166039447Y-60552000D01*
X177234734Y-60552000D01*
X178951001Y-62239318D01*
X178951000Y-64448132D01*
X178951000Y-65237382D01*
X179016854Y-65568454D01*
X179267711Y-65943889D01*
X179643145Y-66194746D01*
X180086000Y-66282835D01*
X180528854Y-66194746D01*
X180904289Y-65943889D01*
X181155146Y-65568455D01*
X181221000Y-65237383D01*
X181221000Y-64471028D01*
X188233525Y-71365269D01*
X188233525Y-93616284D01*
X177850367Y-83233126D01*
X179432000Y-83233126D01*
X179432000Y-83644874D01*
X179589569Y-84025280D01*
X179632000Y-84067711D01*
X179632000Y-84118767D01*
X179615643Y-84201000D01*
X179632000Y-84283233D01*
X179632000Y-84283237D01*
X179649366Y-84370538D01*
X179680448Y-84526800D01*
X179763703Y-84651400D01*
X179865000Y-84803001D01*
X179934718Y-84849585D01*
X185528000Y-90442868D01*
X185528000Y-90502874D01*
X185685569Y-90883280D01*
X185976720Y-91174431D01*
X186357126Y-91332000D01*
X186768874Y-91332000D01*
X187149280Y-91174431D01*
X187440431Y-90883280D01*
X187598000Y-90502874D01*
X187598000Y-90091126D01*
X187440431Y-89710720D01*
X187149280Y-89419569D01*
X186768874Y-89262000D01*
X186708868Y-89262000D01*
X181381838Y-83934971D01*
X181502000Y-83644874D01*
X181502000Y-83233126D01*
X181344431Y-82852720D01*
X181053280Y-82561569D01*
X180672874Y-82404000D01*
X180261126Y-82404000D01*
X179880720Y-82561569D01*
X179589569Y-82852720D01*
X179432000Y-83233126D01*
X177850367Y-83233126D01*
X172516366Y-77899126D01*
X173336000Y-77899126D01*
X173336000Y-78310874D01*
X173493569Y-78691280D01*
X173784720Y-78982431D01*
X174165126Y-79140000D01*
X174576874Y-79140000D01*
X174957280Y-78982431D01*
X175248431Y-78691280D01*
X175406000Y-78310874D01*
X175406000Y-78077619D01*
X175463353Y-77991784D01*
X175505999Y-77777389D01*
X175505999Y-77777386D01*
X175520397Y-77705002D01*
X175505999Y-77632618D01*
X175505999Y-76380389D01*
X175519902Y-76310496D01*
X175533000Y-76278874D01*
X175533000Y-75867126D01*
X175375431Y-75486720D01*
X175084280Y-75195569D01*
X174703874Y-75038000D01*
X174292126Y-75038000D01*
X173911720Y-75195569D01*
X173620569Y-75486720D01*
X173463000Y-75867126D01*
X173463000Y-76278874D01*
X173620569Y-76659280D01*
X173911720Y-76950431D01*
X174036000Y-77001909D01*
X174035999Y-77123486D01*
X173784720Y-77227569D01*
X173493569Y-77518720D01*
X173336000Y-77899126D01*
X172516366Y-77899126D01*
X172380704Y-77763465D01*
X172339698Y-77702095D01*
X172096576Y-77539646D01*
X171882181Y-77497000D01*
X171882177Y-77497000D01*
X171809793Y-77482602D01*
X171737409Y-77497000D01*
X157446711Y-77497000D01*
X157304280Y-77354569D01*
X156923874Y-77197000D01*
X156729009Y-77197000D01*
X156729009Y-73708126D01*
X178162000Y-73708126D01*
X178162000Y-74119874D01*
X178319569Y-74500280D01*
X178610720Y-74791431D01*
X178991126Y-74949000D01*
X179402874Y-74949000D01*
X179783280Y-74791431D01*
X180074431Y-74500280D01*
X180232000Y-74119874D01*
X180232000Y-73708126D01*
X180127916Y-73456845D01*
X180808538Y-72776224D01*
X180869905Y-72735220D01*
X181032354Y-72492098D01*
X181075000Y-72277703D01*
X181075000Y-72277700D01*
X181089398Y-72205316D01*
X181075000Y-72132932D01*
X181075000Y-69435711D01*
X181217431Y-69293280D01*
X181375000Y-68912874D01*
X181375000Y-68501126D01*
X181217431Y-68120720D01*
X180926280Y-67829569D01*
X180545874Y-67672000D01*
X180134126Y-67672000D01*
X179753720Y-67829569D01*
X179462569Y-68120720D01*
X179305000Y-68501126D01*
X179305000Y-68912874D01*
X179462569Y-69293280D01*
X179605001Y-69435712D01*
X179605000Y-71900868D01*
X178728463Y-72777406D01*
X178667096Y-72818410D01*
X178504646Y-73061532D01*
X178484506Y-73162783D01*
X178319569Y-73327720D01*
X178162000Y-73708126D01*
X156729009Y-73708126D01*
X156729009Y-57206339D01*
X157027582Y-57405839D01*
X157460744Y-57492000D01*
X157753256Y-57492000D01*
X158186418Y-57405839D01*
X158677625Y-57077625D01*
X158877000Y-56779239D01*
X159076375Y-57077625D01*
X159567582Y-57405839D01*
X160000744Y-57492000D01*
X160293256Y-57492000D01*
X160726418Y-57405839D01*
X161217625Y-57077625D01*
X161430843Y-56758522D01*
X161491817Y-56888358D01*
X161920076Y-57278645D01*
X162330110Y-57448476D01*
X162560000Y-57327155D01*
X162560000Y-56134000D01*
X162814000Y-56134000D01*
X162814000Y-57327155D01*
X163043890Y-57448476D01*
X163453924Y-57278645D01*
X163882183Y-56888358D01*
X164128486Y-56363892D01*
X164007819Y-56134000D01*
X162814000Y-56134000D01*
X162560000Y-56134000D01*
X162540000Y-56134000D01*
X162540000Y-55880000D01*
X162560000Y-55880000D01*
X162560000Y-54686845D01*
X162814000Y-54686845D01*
X162814000Y-55880000D01*
X164007819Y-55880000D01*
X164128486Y-55650108D01*
X163882183Y-55125642D01*
X163453924Y-54735355D01*
X163043890Y-54565524D01*
X162814000Y-54686845D01*
X162560000Y-54686845D01*
X162330110Y-54565524D01*
X161920076Y-54735355D01*
X161491817Y-55125642D01*
X161430843Y-55255478D01*
X161217625Y-54936375D01*
X160726418Y-54608161D01*
X160293256Y-54522000D01*
X160000744Y-54522000D01*
X159567582Y-54608161D01*
X159076375Y-54936375D01*
X158877000Y-55234761D01*
X158677625Y-54936375D01*
X158186418Y-54608161D01*
X157753256Y-54522000D01*
X157460744Y-54522000D01*
X157211103Y-54571656D01*
X153998100Y-51358654D01*
X153957094Y-51297284D01*
X153713972Y-51134835D01*
X153499577Y-51092189D01*
X153499573Y-51092189D01*
X153427189Y-51077791D01*
X153354805Y-51092189D01*
X139704288Y-51092189D01*
X139631904Y-51077791D01*
X139559520Y-51092189D01*
X139559517Y-51092189D01*
X139345122Y-51134835D01*
X139102000Y-51297284D01*
X139060995Y-51358652D01*
X138176220Y-52243428D01*
X138125077Y-52097420D01*
X137537167Y-51880955D01*
X136911172Y-51905951D01*
X136448923Y-52097420D01*
X136357637Y-52358032D01*
X137287000Y-53287395D01*
X137301143Y-53273253D01*
X137480748Y-53452858D01*
X137466605Y-53467000D01*
X137480748Y-53481143D01*
X137301143Y-53660748D01*
X137287000Y-53646605D01*
X136357637Y-54575968D01*
X136448923Y-54836580D01*
X137036833Y-55053045D01*
X137294126Y-55042771D01*
X137221949Y-55114948D01*
X136982200Y-55693753D01*
X136982200Y-56320247D01*
X137221949Y-56899052D01*
X137664948Y-57342051D01*
X138243753Y-57581800D01*
X138870247Y-57581800D01*
X139027300Y-57516747D01*
X139028261Y-57517708D01*
X139028264Y-57517710D01*
X139225890Y-57715336D01*
X139266896Y-57776706D01*
X139510018Y-57939155D01*
X139724413Y-57981801D01*
X139724417Y-57981801D01*
X139796801Y-57996199D01*
X139869185Y-57981801D01*
X150164815Y-57981801D01*
X150237199Y-57996199D01*
X150309583Y-57981801D01*
X150309587Y-57981801D01*
X150523982Y-57939155D01*
X150767104Y-57776706D01*
X150808110Y-57715336D01*
X151214964Y-57308483D01*
X151219191Y-57314809D01*
X151429235Y-57455157D01*
X151677000Y-57504440D01*
X151941994Y-57504440D01*
X151997095Y-57586905D01*
X152058465Y-57627911D01*
X154859000Y-60428447D01*
X154859000Y-70885988D01*
X154764874Y-70847000D01*
X154353126Y-70847000D01*
X153972720Y-71004569D01*
X153681569Y-71295720D01*
X153524000Y-71676126D01*
X153524000Y-72087874D01*
X153681569Y-72468280D01*
X153824001Y-72610712D01*
X153824000Y-73736553D01*
X153792553Y-73768000D01*
X153591126Y-73768000D01*
X153210720Y-73925569D01*
X153076868Y-74059421D01*
X150133000Y-71115554D01*
X150133000Y-70914126D01*
X149975431Y-70533720D01*
X149684280Y-70242569D01*
X149303874Y-70085000D01*
X148892126Y-70085000D01*
X148511720Y-70242569D01*
X148220569Y-70533720D01*
X148063000Y-70914126D01*
X148063000Y-71325874D01*
X148220569Y-71706280D01*
X148511720Y-71997431D01*
X148892126Y-72155000D01*
X149093554Y-72155000D01*
X153843000Y-76904447D01*
X153843000Y-80660763D01*
X153822538Y-80647092D01*
X151911000Y-78735554D01*
X151911000Y-78534126D01*
X151753431Y-78153720D01*
X151462280Y-77862569D01*
X151081874Y-77705000D01*
X150670126Y-77705000D01*
X150289720Y-77862569D01*
X149998569Y-78153720D01*
X149841000Y-78534126D01*
X149841000Y-78945874D01*
X149998569Y-79326280D01*
X150289720Y-79617431D01*
X150670126Y-79775000D01*
X150871554Y-79775000D01*
X152619002Y-81522449D01*
X152619002Y-82531000D01*
X152448126Y-82531000D01*
X152067720Y-82688569D01*
X151925289Y-82831000D01*
X143125446Y-82831000D01*
X146181447Y-79775000D01*
X146382874Y-79775000D01*
X146763280Y-79617431D01*
X147054431Y-79326280D01*
X147212000Y-78945874D01*
X147212000Y-78534126D01*
X147054431Y-78153720D01*
X146763280Y-77862569D01*
X146382874Y-77705000D01*
X145971126Y-77705000D01*
X145590720Y-77862569D01*
X145299569Y-78153720D01*
X145142000Y-78534126D01*
X145142000Y-78735553D01*
X142189554Y-81688000D01*
X132500711Y-81688000D01*
X132576431Y-81612280D01*
X132734000Y-81231874D01*
X132734000Y-81030446D01*
X133375539Y-80388908D01*
X133436906Y-80347904D01*
X133599355Y-80104782D01*
X133642001Y-79890387D01*
X133642001Y-79890384D01*
X133656399Y-79818000D01*
X133642001Y-79745616D01*
X133642001Y-77118076D01*
X133656399Y-77045692D01*
X133642001Y-76973308D01*
X133642001Y-76973305D01*
X133599355Y-76758910D01*
X133436906Y-76515788D01*
X133375538Y-76474783D01*
X132680497Y-75779743D01*
X132759246Y-75383846D01*
X132689235Y-75031876D01*
X132894949Y-75072795D01*
X133187461Y-75072795D01*
X133620623Y-74986634D01*
X134111830Y-74658420D01*
X134440044Y-74167213D01*
X134531361Y-73708126D01*
X142856000Y-73708126D01*
X142856000Y-74119874D01*
X143013569Y-74500280D01*
X143304720Y-74791431D01*
X143685126Y-74949000D01*
X144096874Y-74949000D01*
X144477280Y-74791431D01*
X144768431Y-74500280D01*
X144926000Y-74119874D01*
X144926000Y-73886619D01*
X144983353Y-73800784D01*
X145025999Y-73586389D01*
X145025999Y-73586386D01*
X145040397Y-73514002D01*
X145025999Y-73441618D01*
X145025999Y-68103447D01*
X145546447Y-67583000D01*
X145747874Y-67583000D01*
X146128280Y-67425431D01*
X146419431Y-67134280D01*
X146577000Y-66753874D01*
X146577000Y-66342126D01*
X146419431Y-65961720D01*
X146128280Y-65670569D01*
X145747874Y-65513000D01*
X145336126Y-65513000D01*
X144955720Y-65670569D01*
X144664569Y-65961720D01*
X144507000Y-66342126D01*
X144507000Y-66543553D01*
X143822462Y-67228092D01*
X143761095Y-67269096D01*
X143720091Y-67330463D01*
X143720090Y-67330464D01*
X143598645Y-67512219D01*
X143541601Y-67799001D01*
X143556000Y-67871390D01*
X143555999Y-72932486D01*
X143304720Y-73036569D01*
X143013569Y-73327720D01*
X142856000Y-73708126D01*
X134531361Y-73708126D01*
X134555297Y-73587795D01*
X134440044Y-73008377D01*
X134111830Y-72517170D01*
X133620623Y-72188956D01*
X133187461Y-72102795D01*
X132894949Y-72102795D01*
X132689235Y-72143714D01*
X132759246Y-71791744D01*
X132643993Y-71212326D01*
X132315779Y-70721119D01*
X131824572Y-70392905D01*
X131391410Y-70306744D01*
X131098898Y-70306744D01*
X130665736Y-70392905D01*
X130174529Y-70721119D01*
X130067000Y-70882048D01*
X130067000Y-70533126D01*
X129909431Y-70152720D01*
X129618280Y-69861569D01*
X129237874Y-69704000D01*
X128826126Y-69704000D01*
X128445720Y-69861569D01*
X128303289Y-70004000D01*
X127962444Y-70004000D01*
X127890060Y-69989602D01*
X127817676Y-70004000D01*
X127817672Y-70004000D01*
X127603277Y-70046646D01*
X127360155Y-70209095D01*
X127319151Y-70270462D01*
X124759388Y-72830226D01*
X124702431Y-72692720D01*
X124411280Y-72401569D01*
X124030874Y-72244000D01*
X123619126Y-72244000D01*
X123238720Y-72401569D01*
X123096289Y-72544000D01*
X121597700Y-72544000D01*
X122436891Y-71704809D01*
X122577239Y-71494765D01*
X122626522Y-71247000D01*
X122577239Y-70999235D01*
X122534952Y-70935949D01*
X122719307Y-70935949D01*
X123152469Y-70849788D01*
X123643676Y-70521574D01*
X123971890Y-70030367D01*
X124087143Y-69450949D01*
X124017132Y-69098979D01*
X124222846Y-69139898D01*
X124515358Y-69139898D01*
X124948520Y-69053737D01*
X125439727Y-68725523D01*
X125767941Y-68234316D01*
X125883194Y-67654898D01*
X125767941Y-67075480D01*
X125439727Y-66584273D01*
X124948520Y-66256059D01*
X124515358Y-66169898D01*
X124222846Y-66169898D01*
X124017132Y-66210817D01*
X124087143Y-65858846D01*
X123971890Y-65279428D01*
X123643676Y-64788221D01*
X123152469Y-64460007D01*
X122719307Y-64373846D01*
X122426795Y-64373846D01*
X121993633Y-64460007D01*
X121502426Y-64788221D01*
X121174212Y-65279428D01*
X121058959Y-65858846D01*
X121128970Y-66210817D01*
X120923256Y-66169898D01*
X120630744Y-66169898D01*
X120197582Y-66256059D01*
X119706375Y-66584273D01*
X119440992Y-66981446D01*
X119174011Y-66714465D01*
X119133005Y-66653095D01*
X118889883Y-66490646D01*
X118675488Y-66448000D01*
X118675484Y-66448000D01*
X118603100Y-66433602D01*
X118530716Y-66448000D01*
X112264447Y-66448000D01*
X113080447Y-65632000D01*
X117508289Y-65632000D01*
X117650720Y-65774431D01*
X118031126Y-65932000D01*
X118442874Y-65932000D01*
X118823280Y-65774431D01*
X119114431Y-65483280D01*
X119272000Y-65102874D01*
X119272000Y-64691126D01*
X119114431Y-64310720D01*
X118823280Y-64019569D01*
X118442874Y-63862000D01*
X118031126Y-63862000D01*
X117650720Y-64019569D01*
X117508289Y-64162000D01*
X112848388Y-64162000D01*
X112776000Y-64147601D01*
X112703612Y-64162000D01*
X112489217Y-64204646D01*
X112246095Y-64367095D01*
X112205091Y-64428462D01*
X103711473Y-72922081D01*
X115937396Y-59357126D01*
X145777000Y-59357126D01*
X145777000Y-59768874D01*
X145934569Y-60149280D01*
X146225720Y-60440431D01*
X146606126Y-60598000D01*
X147017874Y-60598000D01*
X147398280Y-60440431D01*
X147689431Y-60149280D01*
X147838249Y-59790000D01*
X149766289Y-59790000D01*
X149908720Y-59932431D01*
X150289126Y-60090000D01*
X150700874Y-60090000D01*
X151081280Y-59932431D01*
X151372431Y-59641280D01*
X151530000Y-59260874D01*
X151530000Y-58849126D01*
X151372431Y-58468720D01*
X151081280Y-58177569D01*
X150700874Y-58020000D01*
X150289126Y-58020000D01*
X149908720Y-58177569D01*
X149766289Y-58320000D01*
X147392383Y-58320000D01*
X147319999Y-58305602D01*
X147247615Y-58320000D01*
X147247612Y-58320000D01*
X147033217Y-58362646D01*
X146790095Y-58525095D01*
X146788154Y-58528000D01*
X146606126Y-58528000D01*
X146225720Y-58685569D01*
X145934569Y-58976720D01*
X145777000Y-59357126D01*
X115937396Y-59357126D01*
X121471566Y-53216833D01*
X135700955Y-53216833D01*
X135725951Y-53842828D01*
X135917420Y-54305077D01*
X136178032Y-54396363D01*
X137107395Y-53467000D01*
X136178032Y-52537637D01*
X135917420Y-52628923D01*
X135700955Y-53216833D01*
X121471566Y-53216833D01*
X123545668Y-50915568D01*
X167226797Y-50712872D01*
X175739513Y-59082000D01*
G36*
X141290748Y-55992858D02*
X141276605Y-56007000D01*
X141290748Y-56021143D01*
X141111143Y-56200748D01*
X141097000Y-56186605D01*
X141082858Y-56200748D01*
X140903253Y-56021143D01*
X140917395Y-56007000D01*
X140903253Y-55992858D01*
X141082858Y-55813253D01*
X141097000Y-55827395D01*
X141111143Y-55813253D01*
X141290748Y-55992858D01*
X141290748Y-55992858D01*
G37*
X141290748Y-55992858D02*
X141276605Y-56007000D01*
X141290748Y-56021143D01*
X141111143Y-56200748D01*
X141097000Y-56186605D01*
X141082858Y-56200748D01*
X140903253Y-56021143D01*
X140917395Y-56007000D01*
X140903253Y-55992858D01*
X141082858Y-55813253D01*
X141097000Y-55827395D01*
X141111143Y-55813253D01*
X141290748Y-55992858D01*
G04 #@! TD*
M02*
