M48
;DRILL file {KiCad 5.0.1-33cea8e~68~ubuntu18.04.1} date Sun 09 Dec 2018 11:33:26 AM PST
;FORMAT={-:-/ absolute / inch / decimal}
FMAT,2
INCH,TZ
T1C0.0157
T2C0.0256
T3C0.0276
T4C0.0314
T5C0.0394
T6C0.0400
T7C0.0984
%
G90
G05
M72
T1
X3.7076Y-3.185
X3.8Y-3.155
X3.805Y-3.07
X3.805Y-3.42
X3.8141Y-4.0659
X3.91Y-4.24
X3.985Y-3.215
X4.04Y-3.53
X4.06Y-4.39
X4.085Y-4.63
X4.085Y-4.755
X4.09Y-4.24
X4.095Y-3.49
X4.1Y-4.54
X4.12Y-4.
X4.125Y-3.405
X4.14Y-4.39
X4.15Y-3.155
X4.17Y-3.04
X4.18Y-2.95
X4.19Y-4.08
X4.205Y-4.
X4.235Y-3.785
X4.245Y-3.16
X4.26Y-3.86
X4.26Y-3.985
X4.27Y-4.59
X4.345Y-3.6
X4.355Y-3.5
X4.365Y-4.
X4.385Y-3.675
X4.385Y-4.545
X4.39Y-4.43
X4.435Y-4.08
X4.44Y-3.665
X4.475Y-3.22
X4.5Y-2.85
X4.51Y-3.3624
X4.53Y-3.135
X4.575Y-4.365
X4.6Y-3.685
X4.625Y-4.475
X4.645Y-3.125
X4.65Y-4.08
X4.65Y-4.335
X4.655Y-2.555
X4.66Y-3.45
X4.66Y-3.81
X4.685Y-3.19
X4.73Y-3.35
X4.735Y-3.52
X4.745Y-3.89
X4.78Y-4.39
X4.8Y-3.165
X4.8Y-4.445
X4.805Y-3.47
X4.85Y-3.64
X4.8597Y-4.0176
X4.875Y-2.885
X4.88Y-4.11
X4.89Y-3.32
X4.89Y-4.32
X4.895Y-4.035
X4.92Y-4.68
X4.945Y-4.225
X4.95Y-2.92
X4.955Y-3.305
X4.965Y-3.885
X4.995Y-3.33
X5.02Y-3.3624
X5.025Y-4.21
X5.045Y-3.455
X5.075Y-5.49
X5.08Y-2.785
X5.185Y-3.19
X5.205Y-3.07
X5.21Y-5.335
X5.25Y-5.09
X5.25Y-5.185
X5.285Y-4.095
X5.355Y-5.355
X5.36Y-3.635
X5.37Y-4.14
X5.414Y-5.614
X5.42Y-4.09
X5.44Y-3.28
X5.44Y-3.59
X5.45Y-3.195
X5.475Y-4.17
X5.48Y-3.685
X5.48Y-3.895
X5.51Y-3.33
X5.51Y-3.495
X5.52Y-3.37
X5.52Y-3.41
X5.535Y-2.975
X5.555Y-2.9
X5.56Y-4.25
X5.57Y-3.755
X5.577Y-3.562
X5.58Y-4.76
X5.62Y-5.195
X5.63Y-2.8709
X5.665Y-2.91
X5.7Y-3.96
X5.73Y-2.62
X5.75Y-3.62
X5.755Y-3.1
X5.755Y-3.38
X5.775Y-3.32
X5.78Y-2.345
X5.8255Y-3.3445
X5.87Y-2.8
X5.88Y-3.65
X5.8867Y-3.82
X5.89Y-3.58
X5.9Y-3.53
X5.92Y-3.35
X5.925Y-2.325
X5.94Y-3.1
X5.94Y-5.24
X5.9418Y-3.81
X5.95Y-3.85
X5.965Y-4.015
X5.98Y-3.46
X6.Y-3.88
X6.01Y-3.29
X6.01Y-3.35
X6.02Y-3.67
X6.03Y-4.165
X6.04Y-3.9
X6.055Y-2.945
X6.07Y-3.37
X6.08Y-3.92
X6.085Y-2.83
X6.09Y-3.62
X6.095Y-3.5649
X6.095Y-4.395
X6.11Y-3.46
X6.12Y-3.5
X6.12Y-4.075
X6.13Y-3.54
X6.1324Y-4.005
X6.16Y-4.2
X6.17Y-3.08
X6.195Y-3.805
X6.195Y-4.085
X6.205Y-3.13
X6.205Y-3.89
X6.245Y-3.92
X6.25Y-3.245
X6.26Y-3.58
X6.27Y-4.185
X6.285Y-3.795
X6.31Y-3.315
X6.325Y-4.32
X6.34Y-4.13
X6.365Y-3.56
X6.37Y-3.73
X6.375Y-2.365
X6.375Y-5.08
X6.38Y-2.5
X6.38Y-3.175
X6.38Y-3.66
X6.39Y-3.92
X6.41Y-2.42
X6.44Y-4.23
X6.495Y-3.99
X6.56Y-3.89
X6.575Y-4.085
X6.575Y-4.275
X6.61Y-3.92
X6.695Y-3.96
X6.695Y-5.165
X6.76Y-3.975
X6.845Y-3.855
X6.865Y-3.075
X6.87Y-2.995
X6.87Y-4.04
X6.93Y-3.51
X6.985Y-3.48
X7.03Y-3.8
X7.055Y-2.91
X7.082Y-2.406
X7.09Y-2.564
X7.09Y-4.46
X7.1Y-2.705
X7.1Y-3.79
X7.105Y-3.285
X7.21Y-4.22
X7.22Y-4.69
X7.26Y-3.71
X7.285Y-3.89
X7.325Y-2.6
X7.33Y-4.16
X7.34Y-4.05
X7.345Y-3.555
X7.36Y-4.0948
X7.365Y-3.765
X7.4124Y-4.18
X7.43Y-3.91
X7.674Y-4.924
T3
X7.836Y-3.74
T4
X3.7926Y-3.297
X3.7926Y-4.163
X3.8714Y-3.297
X3.8714Y-4.163
X3.9501Y-3.297
X3.9501Y-4.163
X4.0289Y-3.297
X4.0289Y-4.163
X4.1076Y-3.297
X4.1076Y-4.163
X4.1863Y-3.297
X4.1863Y-4.163
X4.2651Y-3.297
X4.2651Y-4.163
X4.3438Y-3.297
X4.3438Y-4.163
X4.4226Y-3.297
X4.4226Y-4.163
X4.5013Y-3.297
X4.5013Y-4.163
T5
X5.105Y-4.13
X5.105Y-4.23
X5.105Y-4.33
X5.105Y-4.43
X5.205Y-4.13
X5.205Y-4.23
X5.205Y-4.33
X5.205Y-4.43
X5.555Y-4.48
X5.655Y-4.48
X5.755Y-4.48
X5.855Y-4.48
X5.955Y-4.48
X4.6843Y-2.7343
X4.755Y-2.6636
X4.755Y-2.805
X4.8257Y-2.5929
X4.8257Y-2.7343
X4.8964Y-2.6636
X4.805Y-4.83
X4.805Y-4.93
X4.905Y-4.83
X4.905Y-4.93
X4.8843Y-3.1093
X4.955Y-3.0386
X4.955Y-3.18
X5.0257Y-2.9679
X5.0257Y-3.1093
X5.0964Y-2.8972
X5.0964Y-3.0386
X5.1671Y-2.8264
X5.1671Y-2.9679
X5.2378Y-2.8972
X7.33Y-2.355
X7.4007Y-2.4257
X7.4714Y-2.4964
X5.305Y-5.455
X5.405Y-5.455
X5.505Y-5.455
X5.605Y-5.455
X5.705Y-5.455
X5.805Y-5.455
X5.905Y-5.455
X6.005Y-5.455
X6.005Y-2.205
X6.105Y-2.205
X6.205Y-2.205
X6.305Y-2.205
X6.405Y-2.205
X6.88Y-4.355
X6.88Y-4.455
X6.98Y-4.355
X6.98Y-4.455
X6.9136Y-5.3964
X6.9843Y-5.3257
X7.055Y-5.255
X4.0136Y-4.8636
X4.0843Y-4.9343
X4.155Y-5.005
X4.455Y-2.13
X4.5257Y-2.0593
X4.5964Y-1.9886
T6
X5.405Y-2.105
X5.455Y-2.205
X5.505Y-2.105
X5.555Y-2.205
X5.605Y-2.105
X5.655Y-2.205
T7
X6.855Y-1.98
X7.08Y-2.18
X7.235Y-5.04
X4.28Y-2.33
X7.41Y-4.83
X4.38Y-5.18
X4.58Y-5.38
X4.08Y-2.53
X7.59Y-3.255
X7.595Y-3.555
T2
X7.7537Y-3.9975G85X7.7379Y-3.9975
G05
X7.7537Y-4.1881G85X7.7379Y-4.1881
G05
T3
X7.8737Y-3.9853G85X7.8541Y-3.9853
G05
X7.8737Y-4.2003G85X7.8541Y-4.2003
G05
T0
M30
